<svg width="437" height="479" viewBox="0 0 437 479" fill="none" xmlns="http://www.w3.org/2000/svg">
<path opacity="0.15" d="M5.20522 370.698V353.875H50.7846C51.7178 353.452 52.5492 352.835 53.2221 352.064C53.8951 351.294 54.3963 350.389 54.6889 349.409C54.9867 348.428 55.0634 347.396 54.93 346.382C54.7899 345.368 54.4413 344.395 53.8951 343.528C47.7376 333.625 46.2774 321.373 57.7677 314.581C67.0991 309.121 79.8586 312.676 85.0005 322.135C89.2542 329.943 85.7626 336.799 81.7632 343.782C81.2679 344.651 80.9635 345.614 80.8618 346.609C80.7601 347.603 80.8684 348.609 81.1795 349.559C81.4905 350.51 81.9984 351.384 82.6647 352.128C83.3376 352.871 84.1499 353.466 85.0639 353.875H130.072V398.44C129.805 399.538 129.279 400.557 128.543 401.413C127.8 402.267 126.866 402.934 125.819 403.356C124.772 403.778 123.635 403.944 122.505 403.84C121.382 403.735 120.296 403.364 119.344 402.756C109.377 396.599 97.1254 395.202 90.3966 406.629C84.9371 415.961 88.9365 428.53 98.4588 433.672C106.267 437.926 112.488 434.497 119.598 430.625C124.232 428.149 129.056 430.054 130.072 435.006V478.743H98.4588V478.871H30.5975V478.743H5.20522V434.244C5.14183 434.117 5.20522 370.698 5.20522 370.698Z" fill="black"/>
<path d="M5.20522 370.698V353.875H50.7846C51.7178 353.452 52.5492 352.835 53.2221 352.064C53.8951 351.294 54.3963 350.389 54.6889 349.409C54.9867 348.428 55.0634 347.396 54.93 346.382C54.7899 345.368 54.4413 344.395 53.8951 343.528C47.7376 333.625 46.2774 321.373 57.7677 314.581C67.0991 309.121 79.8586 312.676 85.0005 322.135C89.2542 329.943 85.7626 336.799 81.7632 343.782C81.2679 344.651 80.9635 345.614 80.8618 346.609C80.7601 347.603 80.8684 348.609 81.1795 349.559C81.4905 350.51 81.9984 351.384 82.6647 352.128C83.3376 352.871 84.1499 353.466 85.0639 353.875H130.072V398.44C129.805 399.538 129.279 400.557 128.543 401.413C127.8 402.267 126.866 402.934 125.819 403.356C124.772 403.778 123.635 403.944 122.505 403.84C121.382 403.735 120.296 403.364 119.344 402.756C109.377 396.599 97.1254 395.202 90.3966 406.629C84.9371 415.961 88.9365 428.53 98.4588 433.672C106.267 437.926 112.488 434.497 119.598 430.625C124.232 428.149 129.056 430.054 130.072 435.006V478.743H98.4588V478.871H30.5975V478.743H5.20522V434.244C5.14183 434.117 5.20522 370.698 5.20522 370.698Z" fill="#4D61FC"/>
<path d="M90.3965 406.565C97.1253 395.075 109.377 396.535 119.344 402.693C120.423 403.38 121.674 403.761 122.95 403.796C124.231 403.833 125.501 403.523 126.619 402.898C127.736 402.273 128.663 401.359 129.311 400.25C129.951 399.141 130.281 397.88 130.262 396.599V355.082H174.572C175.549 355.443 176.436 356.012 177.17 356.75C177.905 357.488 178.471 358.377 178.827 359.356C179.183 360.334 179.322 361.379 179.234 362.417C179.147 363.455 178.833 364.462 178.317 365.366C174.318 372.349 170.89 379.205 175.08 387.013C180.285 396.535 193.045 400.027 202.313 394.568C213.803 387.839 212.406 375.587 206.249 365.62C205.684 364.71 205.33 363.687 205.213 362.622C205.096 361.558 205.218 360.482 205.572 359.471C205.925 358.46 206.499 357.542 207.254 356.783C208.008 356.023 208.923 355.442 209.931 355.082H254.304V354.764H254.939V354.002H255.129V478.871H130.262V436.783C130.275 435.529 129.951 434.295 129.336 433.205C128.714 432.116 127.819 431.209 126.733 430.577C125.654 429.946 124.422 429.611 123.166 429.609C121.915 429.606 120.683 429.934 119.597 430.562C112.615 434.561 105.695 437.989 97.8875 433.799C88.4286 428.657 84.8736 415.834 90.3965 406.565Z" fill="#8291FF" fill-opacity="0.6"/>
<path d="M5.20529 352.542L5.01512 230.276H129.882V272.872C129.882 278.522 141.372 291.092 146.133 288.108C156.036 281.887 163.019 271.349 169.812 282.839C175.27 292.107 171.716 304.867 162.257 310.073C154.449 314.262 147.847 303.725 140.864 299.725C136.103 296.996 129.882 307.534 129.882 313.056V355.145H86.1438C85.0831 354.853 84.0998 354.322 83.2743 353.595C82.4488 352.867 81.8017 351.961 81.3823 350.945C80.957 349.929 80.7735 348.83 80.8427 347.732C80.9061 346.634 81.2238 345.564 81.7633 344.607C85.7627 337.687 89.2543 330.768 85.0006 322.96C79.8587 313.5 67.0992 309.946 57.7678 315.469C46.2775 322.198 47.7376 334.45 53.8952 344.416C54.4856 345.373 54.8475 346.457 54.9425 347.578C55.0443 348.7 54.8733 349.828 54.4539 350.873C54.0352 351.918 53.3748 352.849 52.5242 353.592C51.6795 354.333 50.6705 354.865 49.5788 355.145H5.20529V352.542Z" fill="#8291FF" fill-opacity="0.6"/>
<path opacity="0.5" d="M5.20534 370.698V353.875H50.7847C51.7178 353.452 52.5493 352.835 53.2222 352.064C53.8952 351.294 54.3964 350.389 54.689 349.409C54.9868 348.428 55.0634 347.396 54.93 346.382C54.79 345.368 54.4413 344.395 53.8952 343.528C47.7376 333.625 46.2775 321.373 57.7678 314.581C67.0991 309.121 79.8587 312.676 85.0005 322.135C89.2542 329.943 85.7626 336.799 81.7633 343.782C81.268 344.651 80.9636 345.614 80.8619 346.609C80.7601 347.603 80.8685 348.609 81.1795 349.559C81.4906 350.51 81.9984 351.384 82.6647 352.128C83.3377 352.871 84.1499 353.466 85.0639 353.875H130.072V398.44C129.805 399.538 129.279 400.557 128.543 401.413C127.8 402.267 126.866 402.934 125.819 403.356C124.772 403.778 123.635 403.944 122.505 403.84C121.382 403.735 120.296 403.364 119.344 402.756C109.377 396.599 97.1254 395.202 90.3967 406.629C84.9371 415.961 88.9365 428.53 98.4588 433.672C106.267 437.926 112.488 434.497 119.598 430.625C124.232 428.149 129.056 430.054 130.072 435.006V478.743H98.4588V478.871H30.5976V478.743H5.20534V370.698Z" fill="white"/>
<path d="M188.919 235.799C189.427 231.102 193.616 228.88 198.124 230.785C204.98 233.577 211.011 236.117 217.803 231.483C225.992 225.833 228.468 213.962 222.564 205.963C215.264 196.123 204.154 198.536 195.648 205.201C194.829 205.833 193.873 206.264 192.857 206.459C191.841 206.654 190.794 206.608 189.8 206.323C188.805 206.039 187.892 205.525 187.132 204.823C186.373 204.121 185.789 203.25 185.427 202.281L182.888 178.095L181.174 161.97V161.463L194.188 160.066L290.678 149.909L295.63 149.401V149.972L297.217 164.827L299.884 190.664L300.137 191.045L303.439 222.595C303.404 222.746 303.362 222.894 303.311 223.04L307.628 263.795H307.057V264.112L292.202 265.7L266.366 268.429C265.475 268.848 264.69 269.463 264.07 270.228C263.451 270.993 263.011 271.887 262.785 272.846C262.56 273.804 262.553 274.8 262.766 275.762C262.98 276.722 263.406 277.623 264.017 278.396C270.619 286.902 273.095 298.012 263.255 305.313C255.193 311.216 243.195 309.248 237.545 301.059C232.911 294.266 235.451 287.664 238.434 280.871C238.812 279.99 238.996 279.037 238.972 278.077C238.947 277.118 238.717 276.175 238.295 275.313C237.873 274.451 237.27 273.691 236.527 273.083C235.785 272.476 234.919 272.036 233.99 271.794L193.173 276.11L191.458 259.351L188.919 235.799Z" fill="#4D61FC"/>
<path opacity="0.5" d="M188.919 235.799C189.427 231.102 193.616 228.88 198.124 230.785C204.98 233.577 211.011 236.117 217.803 231.483C225.992 225.833 228.468 213.962 222.564 205.963C215.264 196.123 204.154 198.536 195.648 205.201C194.829 205.833 193.873 206.264 192.857 206.459C191.841 206.654 190.794 206.608 189.8 206.323C188.805 206.039 187.892 205.525 187.132 204.823C186.373 204.121 185.789 203.25 185.427 202.281L182.888 178.095L181.174 161.97V161.463L194.188 160.066L290.678 149.909L295.63 149.401V149.972L297.217 164.827L299.884 190.664L300.137 191.045L303.439 222.595C303.404 222.746 303.362 222.894 303.311 223.04L307.628 263.795H307.057V264.112L292.202 265.7L266.366 268.429C265.475 268.848 264.69 269.463 264.07 270.228C263.451 270.993 263.011 271.887 262.785 272.846C262.56 273.804 262.553 274.8 262.766 275.762C262.98 276.722 263.406 277.623 264.017 278.396C270.619 286.902 273.095 298.012 263.255 305.313C255.193 311.216 243.195 309.248 237.545 301.059C232.911 294.266 235.451 287.664 238.434 280.871C238.812 279.99 238.996 279.037 238.972 278.077C238.947 277.118 238.717 276.175 238.295 275.313C237.873 274.451 237.27 273.691 236.527 273.083C235.785 272.476 234.919 272.036 233.99 271.794L193.173 276.11L191.458 259.351L188.919 235.799Z" fill="white"/>
<path d="M10.9181 354.51V353.875H56.4975C57.4373 353.459 58.2687 352.845 58.9541 352.078C59.6337 351.31 60.1416 350.405 60.4401 349.424C60.7446 348.443 60.8271 347.41 60.6937 346.393C60.5603 345.376 60.2109 344.399 59.6713 343.528C53.4504 333.625 52.0537 321.373 63.544 314.581C72.812 309.121 85.5715 312.676 90.7141 322.135C94.9671 329.943 91.4755 336.799 87.5395 343.782C87.0449 344.651 86.7398 345.614 86.6381 346.609C86.5371 347.603 86.6447 348.609 86.9558 349.559C87.2668 350.51 87.7746 351.384 88.4409 352.128C89.1139 352.871 89.9269 353.466 90.8409 353.875H135.785V398.44C135.519 399.538 134.992 400.557 134.256 401.413C133.513 402.267 132.579 402.934 131.532 403.356C130.485 403.778 129.348 403.944 128.218 403.84C127.095 403.735 126.009 403.364 125.057 402.756C115.154 396.599 102.838 395.202 96.1095 406.629C90.65 415.961 94.7135 428.53 104.172 433.672C111.98 437.926 118.265 434.497 125.311 430.625C130.008 428.149 134.769 430.054 135.785 435.006V478.743H104.235V478.871H36.3738V478.743H10.9181V354.51Z" fill="#4D61FC"/>
<path d="M96.1096 406.565C102.839 395.075 115.154 396.535 125.057 402.693C126.143 403.374 127.393 403.75 128.676 403.785C129.958 403.819 131.228 403.509 132.345 402.887C133.468 402.265 134.401 401.353 135.049 400.248C135.703 399.141 136.039 397.881 136.039 396.599V355.082H180.285C181.268 355.436 182.161 356 182.903 356.735C183.644 357.471 184.217 358.359 184.579 359.339C184.943 360.318 185.087 361.364 185.003 362.406C184.919 363.447 184.609 364.457 184.094 365.366C180.095 372.349 176.604 379.205 180.856 387.013C185.999 396.535 198.759 400.027 208.09 394.568C219.58 387.839 218.12 375.587 211.963 365.62C211.398 364.71 211.044 363.687 210.927 362.622C210.81 361.558 210.932 360.482 211.285 359.471C211.639 358.46 212.213 357.542 212.967 356.783C213.721 356.023 214.636 355.442 215.644 355.082H260.081V354.764H260.716V354.002H260.906V478.871H136.039V436.783C136.039 435.527 135.709 434.295 135.081 433.207C134.452 432.119 133.551 431.216 132.465 430.586C131.38 429.957 130.149 429.623 128.891 429.619C127.634 429.615 126.403 429.939 125.311 430.562C118.328 434.561 111.472 437.989 103.664 433.799C94.1423 428.657 90.6508 415.834 96.1096 406.565Z" fill="#8291FF"/>
<path d="M10.9823 352.542V230.276H135.849V272.872C135.849 274.155 136.185 275.415 136.839 276.52C137.487 277.627 138.42 278.538 139.543 279.16C140.661 279.783 141.931 280.093 143.213 280.059C144.495 280.025 145.746 279.648 146.831 278.966C156.733 272.745 168.985 271.349 175.778 282.839C181.237 292.107 177.745 304.867 168.224 310.073C160.415 314.262 153.56 310.834 146.577 306.835C145.486 306.213 144.254 305.888 142.997 305.892C141.74 305.897 140.508 306.231 139.423 306.86C138.337 307.49 137.436 308.393 136.807 309.481C136.179 310.568 135.849 311.801 135.849 313.056V355.145H92.1109C91.0503 354.853 90.0663 354.322 89.2415 353.595C88.416 352.867 87.7688 351.961 87.3494 350.945C86.9241 349.929 86.7399 348.83 86.8099 347.732C86.8733 346.634 87.1909 345.564 87.7305 344.607C91.7299 337.687 95.2214 330.768 90.9678 322.96C85.8259 313.5 73.0663 309.946 63.7349 315.469C52.308 322.198 53.7048 334.45 59.8623 344.416C60.4527 345.373 60.8146 346.457 60.9097 347.578C61.0114 348.7 60.8397 349.828 60.4211 350.873C60.0024 351.918 59.3419 352.849 58.4914 353.592C57.6467 354.333 56.6376 354.865 55.546 355.145H10.9823V352.542Z" fill="#8291FF"/>
<path d="M193.108 235.545C193.553 230.847 197.742 228.626 202.25 230.53C209.106 233.323 215.2 235.862 221.929 231.228C230.118 225.578 232.657 213.707 226.753 205.709C219.453 195.869 208.344 198.281 199.837 204.947C199.013 205.578 198.053 206.009 197.033 206.203C196.012 206.398 194.961 206.352 193.962 206.069C192.964 205.785 192.045 205.272 191.279 204.57C190.514 203.868 189.923 202.997 189.553 202.027L187.014 177.84L185.364 161.716V161.207L198.377 159.811L294.868 149.654L299.756 149.147V149.717L301.343 164.572L304.073 190.41L304.263 190.79L307.628 222.341L307.437 222.785L311.754 263.541H311.183V263.858L296.391 265.445L270.491 268.175C269.601 268.594 268.816 269.209 268.196 269.973C267.577 270.738 267.137 271.633 266.911 272.591C266.686 273.55 266.679 274.546 266.892 275.507C267.106 276.469 267.532 277.368 268.143 278.141C274.745 286.648 277.221 297.757 267.381 305.057C259.383 310.961 247.321 308.993 241.671 300.804C237.037 294.012 239.577 287.41 242.56 280.617C242.949 279.736 243.141 278.781 243.123 277.818C243.104 276.856 242.875 275.908 242.452 275.043C242.029 274.179 241.421 273.417 240.672 272.811C239.923 272.206 239.05 271.772 238.116 271.539L197.361 275.856L195.584 259.097L193.108 235.545Z" fill="#4D61FC"/>
<path opacity="0.7" d="M10.9181 353.875H56.4975C57.4373 353.459 58.2687 352.845 58.9541 352.078C59.6337 351.31 60.1416 350.405 60.4401 349.424C60.7446 348.443 60.8271 347.41 60.6937 346.393C60.5603 345.376 60.2109 344.399 59.6713 343.528C53.4504 333.625 52.0537 321.373 63.544 314.581C72.812 309.121 85.5715 312.676 90.7141 322.135C94.9671 329.943 91.4755 336.799 87.5395 343.782C87.0449 344.651 86.7398 345.614 86.6381 346.609C86.5371 347.603 86.6447 348.609 86.9558 349.559C87.2668 350.51 87.7746 351.384 88.4409 352.128C89.1139 352.871 89.9269 353.466 90.8409 353.875H135.785V398.44C135.519 399.538 134.992 400.557 134.256 401.413C133.513 402.267 132.579 402.934 131.532 403.356C130.485 403.778 129.348 403.944 128.218 403.84C127.095 403.735 126.009 403.364 125.057 402.756C115.154 396.599 102.838 395.202 96.1095 406.629C90.65 415.961 94.7135 428.53 104.172 433.672C111.98 437.926 118.265 434.497 125.311 430.625C130.008 428.149 134.769 430.054 135.785 435.006V478.743H104.235V478.871H36.3738V478.743H10.9181V353.875Z" fill="white"/>
<path opacity="0.7" d="M193.108 235.545C193.553 230.847 197.742 228.626 202.25 230.53C209.106 233.323 215.2 235.862 221.929 231.228C230.118 225.578 232.657 213.707 226.753 205.709C219.453 195.869 208.344 198.281 199.837 204.947C199.013 205.578 198.053 206.009 197.033 206.203C196.012 206.398 194.961 206.352 193.962 206.069C192.964 205.785 192.045 205.272 191.279 204.57C190.514 203.868 189.923 202.997 189.553 202.027L187.014 177.84L185.364 161.716V161.207L198.377 159.811L294.868 149.654L299.756 149.147V149.717L301.343 164.572L304.073 190.41L304.263 190.79L307.628 222.341L307.437 222.785L311.754 263.541H311.183V263.858L296.391 265.445L270.491 268.175C269.601 268.594 268.816 269.209 268.196 269.973C267.577 270.738 267.137 271.633 266.911 272.591C266.686 273.55 266.679 274.546 266.892 275.507C267.106 276.469 267.532 277.368 268.143 278.141C274.745 286.648 277.221 297.757 267.381 305.057C259.383 310.961 247.321 308.993 241.671 300.804C237.037 294.012 239.577 287.41 242.56 280.617C242.949 279.736 243.141 278.781 243.123 277.818C243.104 276.856 242.875 275.908 242.452 275.043C242.029 274.179 241.421 273.417 240.672 272.811C239.923 272.206 239.05 271.772 238.116 271.539L197.361 275.856L195.584 259.097L193.108 235.545Z" fill="white"/>
<path d="M258.494 148.575L249.797 148.067C249.596 148.048 249.394 148.085 249.213 148.175C249.033 148.265 248.881 148.404 248.775 148.576C248.669 148.748 248.614 148.946 248.615 149.147C248.616 149.349 248.674 149.547 248.781 149.717C249.179 150.392 249.779 150.925 250.496 151.241L258.494 148.575Z" fill="#F39494"/>
<path d="M264.271 146.988C264.271 146.988 255.891 145.908 255.447 145.973C255.002 146.036 253.607 147.495 255.194 148.385L259.32 148.638L264.271 146.988Z" fill="#F39494"/>
<path opacity="0.15" d="M256.462 148.448C256.081 148.638 249.098 150.225 249.098 150.225L250.178 151.241L259.065 148.702L256.462 148.448Z" fill="black"/>
<path opacity="0.15" d="M262.873 146.861L256.462 148.448L257.478 148.575L264.143 146.988L262.873 146.861Z" fill="black"/>
<path d="M241.798 155.113C240.402 155.05 240.592 153.082 241.989 152.638C248.21 150.607 264.334 146.925 265.159 146.798C265.985 146.67 281.728 145.147 298.042 144.258L298.423 160.51C293.871 160.304 289.309 160.432 284.775 160.89C282.807 161.144 278.3 162.16 275.887 163.684C273.475 165.207 269.158 166.921 266.683 167.302C266.425 167.325 266.168 167.253 265.959 167.102C265.749 166.951 265.601 166.729 265.54 166.477C265.413 165.524 265.35 164.128 266.619 163.557C267.889 162.985 273.602 159.494 272.84 157.716C272.079 155.939 266.556 154.733 265.604 154.986C264.651 155.241 256.843 156.891 256.717 157.335C256.589 157.78 250.115 165.016 248.083 164.509C247.855 164.455 247.642 164.348 247.464 164.195C247.286 164.041 247.147 163.848 247.06 163.63C246.972 163.411 246.94 163.176 246.964 162.942C246.986 162.708 247.066 162.484 247.194 162.287C248.654 160.192 251.257 155.939 252.527 154.225C248.654 154.542 243.322 155.177 241.798 155.113Z" fill="#F39494"/>
<path opacity="0.15" d="M252.589 154.225C253.027 153.716 253.599 153.343 254.24 153.146L261.159 150.987L253.986 152.574C253.29 152.761 252.683 153.188 252.273 153.781L252.018 154.225H252.589Z" fill="black"/>
<path opacity="0.15" d="M247.956 162.859C249.797 163.303 255.129 157.463 256.335 156.003C256.523 155.778 256.763 155.604 257.034 155.494L265.476 153.273C266.429 153.082 271.952 154.288 272.776 156.066C272.821 156.273 272.821 156.488 272.777 156.696C272.734 156.904 272.648 157.1 272.523 157.272C271.126 155.748 266.492 154.733 265.603 154.923C264.715 155.113 256.843 156.891 256.716 157.335C256.59 157.78 250.114 165.017 248.083 164.509C247.864 164.452 247.661 164.345 247.49 164.196C247.32 164.047 247.186 163.862 247.1 163.652C247.014 163.443 246.978 163.216 246.994 162.99C247.01 162.764 247.078 162.545 247.194 162.35C247.376 162.609 247.648 162.79 247.956 162.859Z" fill="black"/>
<path opacity="0.15" d="M266.556 165.651C269.032 165.271 273.666 163.366 275.76 162.033C277.855 160.7 280.458 158.668 282.934 157.907C286.68 157.057 290.523 156.715 294.361 156.891L298.423 160.51C293.871 160.304 289.309 160.432 284.775 160.89C282.807 161.144 278.3 162.16 275.887 163.684C273.475 165.207 269.158 166.921 266.619 167.302C266.369 167.322 266.121 167.249 265.922 167.097C265.722 166.944 265.587 166.723 265.54 166.477C265.444 165.995 265.444 165.499 265.54 165.017C265.6 165.23 265.738 165.414 265.926 165.531C266.114 165.648 266.338 165.692 266.556 165.651Z" fill="black"/>
<path d="M287.441 144.322L333.465 133.657L353.779 154.607L290.298 161.272L287.441 144.322Z" fill="#4D61FC"/>
<path d="M287.441 144.322L333.465 133.657L353.779 154.607L290.298 161.272L287.441 144.322Z" fill="#7C8EC8"/>
<path d="M333.465 133.657L340.448 80.3326C342.353 70.1757 349.335 68.2709 354.985 65.7953L361.841 63.2563L353.779 154.607L333.465 133.657Z" fill="#7C8EC8"/>
<path opacity="0.15" d="M345.653 146.417L345.78 85.7284C346.351 82.6813 346.351 78.0472 351.303 75.3813L361.079 71.509L353.779 154.797L294.107 160.51L293.345 156.13L342.67 149.083C343.042 149.109 343.415 149.06 343.768 148.939C344.121 148.818 344.446 148.627 344.724 148.38C345.002 148.131 345.227 147.829 345.387 147.492C345.546 147.155 345.637 146.789 345.653 146.417Z" fill="black"/>
<path d="M287.442 144.322L290.298 161.272L294.361 161.526L291.568 142.545L287.442 144.322Z" fill="#21252B"/>
<path d="M425.703 202.091L436.939 96.203C437.827 85.2844 428.94 73.1593 418.529 69.5407L392.311 60.3993L372.124 62.431L362.412 63.3196C362.222 63.5733 341.59 81.3487 341.717 80.9674L342.352 203.996L425.703 202.091Z" fill="#7C8EC8"/>
<path opacity="0.15" d="M381.138 70.5562L376.631 96.7746L378.219 70.4927L381.138 70.5562Z" fill="black"/>
<path d="M351.62 84.3317L350.858 83.5699C350.813 83.5094 350.79 83.4335 350.796 83.3575C350.801 83.2815 350.833 83.21 350.888 83.1554C350.942 83.1016 351.013 83.0684 351.09 83.0633C351.166 83.0581 351.242 83.0802 351.303 83.1259L352.128 83.8877L352.89 83.1259C352.917 83.0898 352.952 83.0596 352.992 83.0374C353.032 83.0161 353.075 83.0035 353.121 82.9998C353.167 82.9962 353.213 83.0035 353.255 83.019C353.297 83.0352 353.336 83.0596 353.368 83.092C353.4 83.1237 353.425 83.1628 353.441 83.2056C353.457 83.2476 353.464 83.2933 353.46 83.3391C353.457 83.384 353.444 83.429 353.423 83.4681C353.4 83.5079 353.37 83.5426 353.334 83.5699L352.572 84.3317L353.334 85.0934C353.37 85.1207 353.4 85.1561 353.423 85.196C353.444 85.2358 353.457 85.28 353.46 85.3257C353.464 85.3707 353.457 85.4165 353.441 85.4585C353.425 85.5013 353.4 85.5403 353.368 85.572C353.336 85.6038 353.297 85.6296 353.255 85.6451C353.213 85.6613 353.167 85.6679 353.121 85.6642C353.075 85.6613 353.032 85.648 352.992 85.6266C352.952 85.6045 352.917 85.5743 352.89 85.5381L352.128 84.7763L351.303 85.5381C351.275 85.5743 351.24 85.6045 351.2 85.6266C351.16 85.648 351.116 85.6613 351.071 85.6642C351.026 85.6679 350.98 85.6613 350.938 85.6451C350.895 85.6296 350.856 85.6038 350.824 85.572C350.792 85.5403 350.768 85.5013 350.751 85.4585C350.736 85.4165 350.729 85.3707 350.732 85.3257C350.735 85.28 350.748 85.2358 350.77 85.196C350.792 85.1561 350.822 85.1207 350.858 85.0934L351.62 84.3317Z" fill="white"/>
<path d="M371.808 106.423L370.792 106.043C370.707 106.009 370.64 105.944 370.605 105.86C370.569 105.777 370.568 105.683 370.601 105.598C370.635 105.515 370.701 105.447 370.784 105.411C370.867 105.375 370.962 105.374 371.046 105.408L371.998 105.853L372.442 104.836C372.447 104.795 372.462 104.754 372.486 104.72C372.511 104.685 372.543 104.657 372.581 104.638C372.618 104.62 372.66 104.61 372.703 104.611C372.745 104.613 372.787 104.625 372.823 104.646C372.867 104.66 372.907 104.683 372.942 104.713C372.975 104.745 373.003 104.782 373.021 104.825C373.039 104.867 373.048 104.912 373.047 104.959C373.045 105.004 373.034 105.049 373.014 105.091L372.633 106.043L373.648 106.487C373.776 106.551 373.902 106.741 373.839 106.868C373.776 106.995 373.585 107.122 373.395 107.058L372.379 106.678L371.998 107.693C371.957 107.771 371.891 107.833 371.81 107.868C371.729 107.903 371.638 107.909 371.553 107.883C371.475 107.843 371.413 107.777 371.379 107.695C371.344 107.614 371.338 107.524 371.363 107.44L371.808 106.423Z" fill="white"/>
<path d="M411.229 77.1585L410.277 76.778C410.086 76.6504 410.023 76.5235 410.086 76.3333C410.091 76.2912 410.106 76.2507 410.13 76.2168C410.155 76.1814 410.187 76.1533 410.225 76.1349C410.263 76.1157 410.305 76.1069 410.347 76.1076C410.389 76.1091 410.431 76.1209 410.467 76.143L411.483 76.587L411.928 75.5715C411.928 75.5214 411.939 75.4719 411.962 75.427C411.985 75.382 412.018 75.3436 412.059 75.3134C412.1 75.2846 412.147 75.2655 412.197 75.2581C412.247 75.25 412.298 75.2544 412.345 75.2706C412.393 75.2861 412.435 75.3134 412.472 75.3495C412.506 75.3849 412.532 75.4284 412.547 75.4771C412.563 75.525 412.566 75.5759 412.558 75.6253C412.549 75.6747 412.528 75.7219 412.499 75.7618L412.118 76.778L413.133 77.2219C413.195 77.2617 413.241 77.3207 413.265 77.3893C413.288 77.4594 413.286 77.5346 413.26 77.6032C413.255 77.6445 413.24 77.6858 413.216 77.7197C413.192 77.7543 413.159 77.7824 413.122 77.8015C413.084 77.8207 413.042 77.8296 412.999 77.8281C412.957 77.8274 412.915 77.8148 412.879 77.7934L411.863 77.4122L411.483 78.4284C411.433 78.4947 411.362 78.5434 411.283 78.5663C411.202 78.5891 411.116 78.5854 411.039 78.5552C410.997 78.5508 410.956 78.5353 410.921 78.511C410.887 78.4866 410.859 78.4542 410.84 78.4158C410.82 78.379 410.812 78.3369 410.813 78.2942C410.815 78.2514 410.826 78.2101 410.848 78.1739L411.229 77.1585Z" fill="white"/>
<path d="M345.525 109.153L344.51 108.773C344.443 108.723 344.395 108.652 344.372 108.572C344.348 108.491 344.353 108.406 344.383 108.328C344.446 108.201 344.637 108.075 344.764 108.138L345.78 108.582L346.161 107.566C346.201 107.488 346.267 107.426 346.349 107.392C346.43 107.357 346.52 107.351 346.604 107.376C346.649 107.389 346.689 107.413 346.724 107.443C346.757 107.474 346.784 107.512 346.803 107.555C346.82 107.596 346.829 107.642 346.829 107.688C346.827 107.734 346.815 107.779 346.795 107.82L346.414 108.836L347.367 109.217C347.41 109.23 347.451 109.254 347.485 109.284C347.519 109.316 347.546 109.353 347.565 109.395C347.583 109.437 347.591 109.483 347.59 109.529C347.588 109.575 347.577 109.62 347.557 109.661C347.493 109.788 347.303 109.915 347.176 109.788L346.161 109.407L345.716 110.423C345.711 110.465 345.696 110.505 345.671 110.54C345.648 110.574 345.615 110.602 345.577 110.622C345.539 110.641 345.497 110.65 345.455 110.648C345.413 110.647 345.371 110.635 345.335 110.614C345.292 110.6 345.25 110.577 345.217 110.546C345.182 110.515 345.155 110.478 345.137 110.435C345.119 110.393 345.11 110.347 345.112 110.301C345.113 110.255 345.124 110.21 345.145 110.169L345.525 109.153Z" fill="white"/>
<path d="M378.028 133.467L377.013 133.022C376.885 132.959 376.758 132.769 376.822 132.642C376.835 132.598 376.858 132.557 376.89 132.523C376.92 132.489 376.958 132.462 377 132.443C377.042 132.426 377.088 132.417 377.134 132.418C377.18 132.42 377.225 132.431 377.266 132.452L378.282 132.832L378.663 131.817C378.676 131.772 378.699 131.732 378.73 131.698C378.761 131.664 378.799 131.637 378.841 131.618C378.883 131.601 378.929 131.592 378.975 131.593C379.021 131.594 379.066 131.606 379.108 131.626C379.186 131.667 379.247 131.733 379.282 131.814C379.317 131.895 379.323 131.986 379.298 132.07L378.853 133.086L379.869 133.467C379.923 133.507 379.962 133.563 379.982 133.626C380.001 133.69 380.001 133.758 379.98 133.821C379.959 133.884 379.918 133.939 379.864 133.979C379.81 134.017 379.745 134.038 379.679 134.038L378.663 133.657L378.219 134.673C378.213 134.715 378.199 134.755 378.174 134.79C378.15 134.825 378.118 134.853 378.079 134.872C378.042 134.891 378 134.9 377.958 134.898C377.915 134.897 377.874 134.885 377.838 134.864C377.794 134.85 377.754 134.828 377.719 134.797C377.685 134.766 377.658 134.728 377.64 134.685C377.622 134.643 377.613 134.597 377.614 134.552C377.616 134.505 377.627 134.46 377.647 134.419L378.028 133.467Z" fill="white"/>
<path d="M381.9 119.692L380.885 119.247C380.842 119.242 380.802 119.227 380.767 119.203C380.733 119.178 380.705 119.146 380.686 119.108C380.667 119.07 380.658 119.028 380.659 118.986C380.661 118.944 380.672 118.902 380.695 118.866C380.708 118.821 380.731 118.782 380.762 118.748C380.792 118.713 380.83 118.686 380.872 118.668C380.914 118.65 380.96 118.641 381.006 118.643C381.052 118.644 381.097 118.655 381.138 118.675L382.155 119.057L382.535 118.041C382.584 117.973 382.655 117.925 382.735 117.902C382.816 117.879 382.901 117.883 382.979 117.914C383.106 117.978 383.234 118.168 383.106 118.295L382.726 119.31L383.742 119.755C383.784 119.759 383.823 119.775 383.858 119.798C383.893 119.823 383.921 119.856 383.939 119.894C383.958 119.931 383.968 119.973 383.966 120.015C383.965 120.058 383.952 120.099 383.932 120.135C383.918 120.18 383.895 120.22 383.865 120.254C383.834 120.288 383.796 120.315 383.753 120.333C383.711 120.352 383.665 120.36 383.619 120.359C383.574 120.358 383.529 120.346 383.487 120.326L382.472 119.945L382.091 120.897C382.077 120.941 382.054 120.981 382.023 121.016C381.993 121.05 381.955 121.077 381.912 121.095C381.87 121.113 381.824 121.122 381.779 121.121C381.733 121.119 381.688 121.108 381.647 121.088C381.519 121.025 381.393 120.834 381.456 120.707L381.9 119.692Z" fill="white"/>
<path d="M362.539 130.928L361.523 130.547C361.484 130.527 361.451 130.499 361.423 130.466C361.396 130.432 361.375 130.394 361.363 130.352C361.352 130.31 361.349 130.266 361.354 130.224C361.36 130.181 361.374 130.139 361.396 130.103C361.401 130.061 361.416 130.02 361.44 129.985C361.464 129.951 361.497 129.923 361.535 129.904C361.573 129.884 361.615 129.876 361.657 129.877C361.699 129.879 361.741 129.89 361.777 129.912L362.792 130.356L363.174 129.341C363.191 129.299 363.215 129.261 363.246 129.229C363.277 129.196 363.315 129.171 363.356 129.154C363.398 129.135 363.442 129.126 363.487 129.126C363.532 129.125 363.576 129.134 363.618 129.15C363.659 129.167 363.698 129.191 363.73 129.222C363.762 129.254 363.788 129.292 363.805 129.333C363.822 129.374 363.832 129.418 363.832 129.463C363.833 129.508 363.825 129.553 363.808 129.595L363.364 130.547L364.38 130.991C364.424 131.005 364.464 131.027 364.498 131.058C364.532 131.089 364.559 131.127 364.577 131.17C364.595 131.211 364.604 131.257 364.603 131.303C364.602 131.349 364.59 131.394 364.57 131.435C364.531 131.497 364.472 131.544 364.402 131.567C364.333 131.589 364.257 131.589 364.189 131.562L363.174 131.182L362.729 132.197C362.666 132.324 362.476 132.451 362.349 132.388C362.304 132.374 362.264 132.351 362.23 132.32C362.195 132.289 362.168 132.252 362.151 132.21C362.132 132.168 362.124 132.122 362.125 132.075C362.126 132.03 362.137 131.985 362.158 131.943L362.539 130.928Z" fill="white"/>
<path d="M397.39 102.361L396.374 101.98C396.29 101.946 396.222 101.88 396.187 101.797C396.151 101.714 396.15 101.62 396.184 101.536C396.217 101.451 396.283 101.384 396.367 101.348C396.45 101.313 396.544 101.311 396.628 101.345L397.644 101.789L398.024 100.774C398.038 100.73 398.061 100.69 398.092 100.655C398.123 100.621 398.161 100.594 398.203 100.575C398.245 100.558 398.29 100.549 398.337 100.55C398.383 100.552 398.428 100.563 398.469 100.583C398.536 100.633 398.585 100.704 398.607 100.784C398.63 100.864 398.627 100.95 398.596 101.027L398.215 101.98L399.231 102.424C399.309 102.465 399.371 102.531 399.406 102.612C399.44 102.693 399.446 102.783 399.421 102.869C399.371 102.935 399.3 102.984 399.221 103.007C399.14 103.03 399.054 103.026 398.977 102.996L397.961 102.614L397.581 103.631C397.547 103.714 397.48 103.783 397.397 103.818C397.315 103.853 397.22 103.855 397.136 103.821C397.051 103.787 396.984 103.721 396.949 103.638C396.913 103.555 396.912 103.46 396.945 103.376L397.39 102.361Z" fill="white"/>
<path d="M425.448 136.514L424.432 136.069C424.391 136.065 424.351 136.05 424.316 136.025C424.281 136.001 424.253 135.968 424.234 135.931C424.215 135.893 424.206 135.851 424.208 135.809C424.208 135.766 424.221 135.725 424.242 135.689C424.256 135.645 424.279 135.604 424.309 135.57C424.34 135.535 424.378 135.509 424.421 135.49C424.463 135.473 424.508 135.464 424.555 135.465C424.6 135.467 424.645 135.478 424.687 135.499L425.639 135.879L426.083 134.927C426.083 134.877 426.095 134.828 426.118 134.783C426.141 134.738 426.174 134.699 426.215 134.669C426.256 134.64 426.303 134.621 426.352 134.614C426.403 134.606 426.453 134.61 426.501 134.626C426.549 134.642 426.591 134.668 426.627 134.705C426.662 134.741 426.689 134.784 426.703 134.833C426.719 134.88 426.722 134.932 426.714 134.981C426.705 135.03 426.684 135.078 426.655 135.117L426.274 136.133L427.289 136.578C427.416 136.641 427.543 136.831 427.479 136.959C427.416 137.086 427.226 137.212 427.035 137.149L426.02 136.768L425.639 137.784C425.589 137.85 425.518 137.899 425.439 137.922C425.357 137.945 425.272 137.941 425.195 137.911C425.153 137.906 425.112 137.891 425.077 137.867C425.043 137.842 425.015 137.81 424.996 137.771C424.977 137.735 424.968 137.693 424.969 137.65C424.97 137.607 424.982 137.566 425.004 137.53L425.448 136.514Z" fill="white"/>
<path d="M423.29 154.289L422.274 153.908C422.231 153.894 422.19 153.871 422.156 153.841C422.121 153.809 422.095 153.772 422.076 153.73C422.058 153.687 422.05 153.641 422.051 153.595C422.052 153.55 422.064 153.504 422.084 153.463C422.125 153.385 422.19 153.323 422.272 153.289C422.353 153.254 422.443 153.248 422.528 153.273L423.48 153.718L423.925 152.702C423.929 152.66 423.945 152.619 423.968 152.584C423.993 152.55 424.026 152.522 424.063 152.503C424.102 152.484 424.143 152.475 424.186 152.477C424.228 152.478 424.269 152.49 424.306 152.511C424.349 152.525 424.39 152.548 424.424 152.579C424.458 152.61 424.486 152.647 424.503 152.689C424.522 152.732 424.531 152.778 424.529 152.823C424.528 152.87 424.517 152.915 424.496 152.956L424.115 153.972L425.131 154.352C425.209 154.393 425.271 154.459 425.305 154.54C425.341 154.621 425.346 154.712 425.321 154.797C425.195 154.924 425.067 155.05 424.877 154.987L423.861 154.543L423.48 155.559C423.447 155.643 423.381 155.71 423.297 155.746C423.214 155.781 423.12 155.783 423.036 155.749C422.952 155.716 422.885 155.649 422.849 155.566C422.813 155.483 422.812 155.388 422.846 155.305L423.29 154.289Z" fill="white"/>
<path d="M419.545 182.475L418.529 182.094C418.451 182.054 418.389 181.986 418.355 181.906C418.319 181.825 418.314 181.734 418.339 181.649C418.352 181.606 418.375 181.565 418.406 181.531C418.437 181.497 418.474 181.47 418.517 181.452C418.559 181.434 418.605 181.425 418.651 181.426C418.697 181.427 418.742 181.439 418.783 181.459L419.799 181.84L420.18 180.824C420.229 180.757 420.3 180.708 420.38 180.686C420.461 180.663 420.546 180.667 420.624 180.697C420.697 180.726 420.757 180.781 420.792 180.851C420.828 180.922 420.835 181.003 420.814 181.078L420.37 182.094L421.386 182.475C421.43 182.488 421.47 182.512 421.504 182.543C421.538 182.573 421.565 182.61 421.584 182.653C421.602 182.695 421.61 182.741 421.609 182.787C421.608 182.833 421.596 182.878 421.576 182.919C421.512 183.046 421.322 183.173 421.195 183.11L420.18 182.729L419.735 183.745C419.693 183.806 419.631 183.851 419.559 183.872C419.488 183.893 419.411 183.888 419.343 183.857C419.275 183.827 419.219 183.774 419.187 183.706C419.154 183.639 419.146 183.563 419.164 183.491L419.545 182.475Z" fill="white"/>
<path d="M406.976 177.397L405.96 177.015C405.916 177.002 405.875 176.978 405.841 176.948C405.807 176.917 405.78 176.88 405.762 176.837C405.744 176.795 405.735 176.749 405.737 176.703C405.737 176.658 405.749 176.612 405.769 176.571C405.789 176.532 405.817 176.498 405.851 176.471C405.883 176.443 405.922 176.424 405.964 176.411C406.006 176.4 406.049 176.397 406.093 176.403C406.135 176.408 406.176 176.422 406.214 176.444L407.229 176.825L407.61 175.81C407.624 175.765 407.647 175.725 407.677 175.691C407.708 175.656 407.746 175.63 407.789 175.611C407.831 175.594 407.876 175.585 407.923 175.586C407.969 175.587 408.014 175.599 408.055 175.619C408.122 175.669 408.17 175.74 408.193 175.819C408.216 175.9 408.212 175.986 408.182 176.063L407.8 177.079L408.816 177.46C408.901 177.493 408.968 177.56 409.003 177.643C409.04 177.726 409.04 177.82 409.007 177.904C408.973 177.989 408.907 178.056 408.824 178.091C408.741 178.127 408.647 178.128 408.563 178.094L407.547 177.65L407.166 178.666C407.15 178.708 407.125 178.745 407.093 178.778C407.062 178.81 407.024 178.835 406.983 178.853C406.942 178.871 406.898 178.88 406.853 178.88C406.808 178.881 406.763 178.873 406.721 178.856C406.679 178.84 406.643 178.815 406.61 178.783C406.578 178.752 406.552 178.715 406.534 178.674C406.517 178.633 406.507 178.588 406.507 178.543C406.506 178.498 406.514 178.454 406.531 178.412L406.976 177.397Z" fill="white"/>
<path d="M390.217 174.667L389.201 174.286C389.122 174.245 389.06 174.179 389.026 174.098C388.991 174.017 388.986 173.926 389.01 173.841C389.023 173.798 389.046 173.757 389.077 173.723C389.108 173.689 389.146 173.661 389.188 173.643C389.231 173.625 389.276 173.616 389.322 173.618C389.368 173.619 389.413 173.63 389.455 173.651L390.47 174.095L390.851 173.08C390.885 172.996 390.95 172.928 391.034 172.892C391.117 172.857 391.211 172.855 391.296 172.889C391.379 172.923 391.447 172.989 391.483 173.072C391.518 173.155 391.52 173.25 391.486 173.333L391.042 174.286L392.057 174.73C392.099 174.735 392.139 174.751 392.174 174.774C392.209 174.799 392.237 174.831 392.256 174.869C392.275 174.906 392.284 174.948 392.283 174.991C392.281 175.034 392.269 175.075 392.248 175.111C392.234 175.155 392.211 175.195 392.18 175.23C392.149 175.264 392.112 175.29 392.069 175.309C392.027 175.327 391.981 175.335 391.936 175.335C391.89 175.333 391.845 175.321 391.804 175.302L390.788 174.92L390.407 175.936C390.366 176.015 390.299 176.077 390.218 176.111C390.138 176.146 390.047 176.152 389.963 176.127C389.902 176.071 389.859 176.001 389.837 175.922C389.814 175.844 389.814 175.761 389.836 175.682L390.217 174.667Z" fill="white"/>
<path d="M398.596 191.236L397.58 190.854C397.496 190.821 397.428 190.755 397.393 190.671C397.358 190.589 397.356 190.494 397.39 190.41C397.423 190.326 397.489 190.258 397.573 190.223C397.656 190.188 397.75 190.186 397.834 190.219L398.85 190.664L399.23 189.649C399.244 189.604 399.267 189.564 399.298 189.53C399.328 189.495 399.367 189.469 399.409 189.45C399.451 189.432 399.496 189.424 399.543 189.425C399.589 189.426 399.634 189.438 399.675 189.458C399.753 189.498 399.816 189.564 399.85 189.646C399.885 189.727 399.89 189.817 399.866 189.902L399.421 190.854L400.437 191.299C400.479 191.303 400.519 191.318 400.553 191.342C400.589 191.368 400.617 191.4 400.635 191.437C400.654 191.475 400.663 191.517 400.663 191.56C400.661 191.601 400.649 191.643 400.627 191.679C400.613 191.724 400.59 191.764 400.56 191.798C400.529 191.832 400.492 191.859 400.449 191.878C400.407 191.896 400.361 191.904 400.315 191.903C400.269 191.902 400.224 191.89 400.183 191.87L399.167 191.489L398.787 192.505C398.745 192.583 398.679 192.645 398.599 192.679C398.517 192.714 398.426 192.72 398.342 192.696C398.215 192.568 398.088 192.378 398.215 192.251L398.596 191.236Z" fill="white"/>
<path d="M380.504 189.585L379.489 189.204C379.41 189.163 379.349 189.097 379.314 189.016C379.279 188.935 379.273 188.845 379.298 188.76C379.312 188.716 379.335 188.675 379.365 188.641C379.396 188.607 379.434 188.58 379.477 188.562C379.518 188.544 379.564 188.535 379.61 188.536C379.656 188.537 379.701 188.549 379.742 188.569L380.758 188.95L381.139 187.934C381.188 187.868 381.26 187.819 381.339 187.796C381.42 187.773 381.505 187.777 381.583 187.807C381.656 187.836 381.717 187.891 381.751 187.961C381.788 188.031 381.795 188.112 381.773 188.188L381.33 189.204L382.345 189.585C382.389 189.599 382.429 189.622 382.464 189.652C382.497 189.683 382.525 189.721 382.543 189.764C382.561 189.805 382.57 189.851 382.569 189.897C382.567 189.943 382.556 189.988 382.536 190.029C382.472 190.156 382.281 190.283 382.155 190.22L381.139 189.839L380.758 190.854C380.708 190.922 380.638 190.97 380.557 190.993C380.477 191.016 380.391 191.012 380.314 190.982C380.272 190.977 380.232 190.962 380.197 190.938C380.162 190.913 380.134 190.881 380.115 190.843C380.096 190.805 380.087 190.763 380.089 190.721C380.09 190.679 380.102 190.637 380.123 190.601L380.504 189.585Z" fill="white"/>
<path d="M361.904 191.489L360.888 191.045C360.827 191.006 360.78 190.946 360.757 190.877C360.734 190.808 360.735 190.733 360.762 190.664C360.766 190.622 360.781 190.582 360.805 190.547C360.83 190.512 360.863 190.484 360.9 190.466C360.938 190.447 360.98 190.438 361.023 190.438C361.064 190.441 361.105 190.452 361.142 190.474L362.158 190.854L362.602 189.839C362.642 189.777 362.701 189.731 362.77 189.708C362.84 189.685 362.915 189.686 362.983 189.712C363.025 189.717 363.065 189.732 363.1 189.756C363.135 189.781 363.163 189.813 363.182 189.851C363.201 189.888 363.21 189.93 363.209 189.973C363.207 190.015 363.196 190.056 363.173 190.093L362.793 191.109L363.745 191.553C363.798 191.592 363.838 191.648 363.857 191.712C363.877 191.775 363.877 191.844 363.855 191.907C363.835 191.971 363.794 192.025 363.74 192.064C363.686 192.103 363.622 192.124 363.554 192.124L362.539 191.743L362.094 192.696C362.055 192.749 361.999 192.788 361.935 192.808C361.872 192.828 361.803 192.828 361.741 192.806C361.677 192.785 361.622 192.745 361.583 192.691C361.544 192.637 361.523 192.572 361.523 192.505L361.904 191.489Z" fill="white"/>
<path d="M346.668 151.432L345.653 150.988C345.526 150.925 345.399 150.734 345.526 150.607C345.53 150.565 345.546 150.524 345.569 150.489C345.594 150.456 345.627 150.427 345.665 150.408C345.702 150.389 345.744 150.38 345.787 150.382C345.829 150.383 345.87 150.395 345.907 150.416L346.923 150.798L347.303 149.781C347.352 149.714 347.423 149.666 347.504 149.643C347.584 149.62 347.669 149.624 347.748 149.655C347.79 149.659 347.829 149.675 347.865 149.699C347.899 149.722 347.927 149.756 347.947 149.793C347.965 149.831 347.975 149.873 347.973 149.915C347.971 149.958 347.959 149.999 347.938 150.036L347.494 151.051L348.51 151.496C348.56 151.496 348.609 151.507 348.654 151.53C348.698 151.554 348.737 151.587 348.766 151.627C348.796 151.668 348.816 151.715 348.823 151.765C348.83 151.815 348.826 151.866 348.81 151.913C348.794 151.961 348.767 152.004 348.732 152.039C348.695 152.075 348.652 152.101 348.604 152.116C348.556 152.13 348.505 152.135 348.455 152.126C348.406 152.117 348.359 152.097 348.319 152.067L347.303 151.686L346.859 152.638C346.859 152.689 346.847 152.738 346.824 152.782C346.801 152.828 346.767 152.866 346.727 152.896C346.686 152.924 346.639 152.944 346.589 152.952C346.539 152.96 346.489 152.955 346.441 152.939C346.393 152.924 346.35 152.896 346.315 152.86C346.279 152.824 346.253 152.781 346.238 152.733C346.223 152.685 346.22 152.634 346.228 152.585C346.237 152.535 346.257 152.488 346.287 152.448L346.668 151.432Z" fill="white"/>
<path d="M365.332 144.703L364.317 144.322C364.275 144.306 364.236 144.281 364.205 144.249C364.172 144.218 364.147 144.181 364.129 144.139C364.111 144.098 364.102 144.054 364.102 144.01C364.101 143.965 364.109 143.92 364.126 143.878C364.143 143.836 364.167 143.799 364.199 143.766C364.23 143.734 364.267 143.709 364.308 143.691C364.35 143.673 364.395 143.664 364.439 143.664C364.484 143.663 364.528 143.671 364.57 143.687L365.586 144.132L365.967 143.116C366.001 143.032 366.066 142.965 366.15 142.929C366.233 142.893 366.327 142.892 366.411 142.925C366.495 142.959 366.563 143.025 366.599 143.108C366.634 143.192 366.635 143.285 366.602 143.37L366.157 144.386L367.173 144.767C367.217 144.78 367.258 144.804 367.291 144.834C367.326 144.865 367.353 144.903 367.371 144.945C367.389 144.987 367.398 145.032 367.396 145.079C367.395 145.125 367.384 145.17 367.364 145.211C367.323 145.289 367.256 145.352 367.176 145.386C367.095 145.42 367.003 145.426 366.919 145.402L365.967 144.957L365.522 145.973C365.509 146.017 365.486 146.057 365.455 146.091C365.424 146.126 365.387 146.153 365.344 146.171C365.302 146.189 365.256 146.198 365.21 146.196C365.164 146.195 365.119 146.184 365.078 146.164C365.012 146.113 364.962 146.043 364.939 145.963C364.917 145.882 364.921 145.796 364.951 145.719L365.332 144.703Z" fill="white"/>
<path d="M350.668 158.542L349.653 158.098C349.525 158.034 349.398 157.844 349.462 157.717C349.475 157.673 349.498 157.632 349.529 157.598C349.56 157.564 349.598 157.537 349.64 157.519C349.682 157.5 349.728 157.492 349.774 157.494C349.82 157.495 349.865 157.506 349.906 157.527L350.922 157.907L351.303 156.892C351.352 156.824 351.423 156.776 351.503 156.753C351.584 156.73 351.669 156.734 351.747 156.765C351.874 156.828 352.001 157.019 351.937 157.146L351.493 158.161L352.509 158.606C352.551 158.61 352.59 158.626 352.626 158.649C352.661 158.674 352.689 158.707 352.708 158.744C352.727 158.782 352.736 158.824 352.734 158.867C352.733 158.909 352.721 158.95 352.7 158.986C352.686 159.031 352.663 159.071 352.632 159.105C352.601 159.139 352.563 159.166 352.521 159.184C352.479 159.202 352.433 159.211 352.387 159.21C352.341 159.209 352.296 159.197 352.255 159.177L351.239 158.796L350.858 159.748C350.845 159.792 350.821 159.833 350.791 159.867C350.76 159.901 350.723 159.928 350.68 159.946C350.638 159.964 350.592 159.973 350.546 159.971C350.5 159.971 350.455 159.959 350.414 159.939C350.353 159.899 350.306 159.84 350.283 159.771C350.26 159.702 350.261 159.626 350.287 159.558L350.668 158.542Z" fill="white"/>
<path d="M388.756 131.245L387.741 130.865C387.697 130.85 387.656 130.828 387.622 130.797C387.587 130.766 387.561 130.728 387.542 130.686C387.525 130.644 387.516 130.598 387.517 130.552C387.518 130.506 387.53 130.461 387.55 130.42C387.59 130.342 387.657 130.28 387.738 130.245C387.819 130.21 387.91 130.204 387.994 130.23L389.01 130.674L389.391 129.658C389.404 129.615 389.427 129.573 389.458 129.539C389.489 129.505 389.527 129.478 389.569 129.46C389.611 129.442 389.657 129.433 389.703 129.435C389.749 129.436 389.794 129.447 389.836 129.468C389.914 129.508 389.975 129.574 390.01 129.655C390.045 129.737 390.051 129.827 390.026 129.912L389.581 130.928L390.597 131.308C390.641 131.322 390.682 131.345 390.716 131.376C390.75 131.407 390.777 131.444 390.795 131.486C390.813 131.529 390.822 131.575 390.821 131.62C390.82 131.667 390.808 131.712 390.788 131.753C390.747 131.831 390.68 131.892 390.6 131.927C390.519 131.963 390.427 131.968 390.343 131.943L389.328 131.499L388.947 132.515C388.933 132.558 388.91 132.599 388.88 132.634C388.849 132.667 388.811 132.694 388.768 132.713C388.726 132.73 388.681 132.739 388.634 132.738C388.588 132.737 388.543 132.726 388.502 132.705C388.464 132.685 388.43 132.657 388.403 132.624C388.375 132.591 388.355 132.553 388.343 132.51C388.331 132.468 388.327 132.425 388.333 132.382C388.339 132.339 388.353 132.297 388.375 132.26L388.756 131.245Z" fill="white"/>
<path d="M367.49 88.9024L366.411 88.4584C366.32 88.4289 366.245 88.367 366.198 88.2851C366.151 88.2032 366.137 88.1059 366.157 88.0137C366.208 87.9304 366.287 87.867 366.379 87.8323C366.47 87.7977 366.571 87.794 366.665 87.8235L367.744 88.2681L368.188 87.1251C368.229 87.0462 368.295 86.985 368.376 86.9503C368.457 86.9157 368.548 86.9098 368.633 86.9348C368.716 86.9865 368.78 87.0639 368.814 87.1561C368.849 87.2475 368.852 87.3485 368.823 87.4429L368.378 88.5218L369.522 88.9665C369.6 89.0071 369.661 89.0727 369.696 89.1538C369.731 89.2349 369.736 89.3256 369.712 89.4105C369.691 89.4562 369.662 89.4982 369.625 89.5321C369.588 89.5675 369.545 89.5941 369.497 89.6118C369.45 89.6295 369.4 89.6376 369.349 89.6361C369.299 89.6339 369.25 89.6221 369.204 89.6007L368.125 89.1568L367.68 90.2991C367.64 90.3773 367.574 90.4392 367.492 90.4739C367.411 90.5085 367.321 90.5137 367.236 90.4893C367.189 90.4687 367.148 90.4392 367.114 90.4031C367.08 90.3662 367.052 90.3227 367.034 90.2755C367.017 90.2283 367.009 90.1781 367.01 90.1273C367.013 90.0771 367.024 90.0277 367.046 89.982L367.49 88.9024Z" fill="white"/>
<path opacity="0.15" d="M347.43 198.409L341.082 156.511L342.352 198.409H347.43Z" fill="black"/>
<path d="M325.275 167.683L314.738 167.873C314.201 167.879 313.676 168.03 313.218 168.309C312.76 168.589 312.386 168.986 312.135 169.46L310.928 171.555L315.817 172.762L325.275 167.683Z" fill="#F39494"/>
<path d="M297.21 180.484L311.43 170.961C312.661 170.191 314.013 169.634 315.429 169.311C315.429 169.311 329.458 166.708 329.649 166.581L350.026 157.313L348.884 178.008L339.552 181.309L308.065 191.91C307.769 192.044 307.433 192.059 307.126 191.953C306.819 191.847 306.564 191.627 306.415 191.339C306.335 191.201 306.284 191.05 306.263 190.892C306.242 190.735 306.253 190.575 306.294 190.421C306.335 190.268 306.407 190.123 306.504 189.998C306.6 189.873 306.721 189.767 306.859 189.688L317.587 183.721L305.145 190.577C304.98 190.676 304.797 190.74 304.605 190.765C304.415 190.789 304.221 190.775 304.036 190.721C303.851 190.667 303.68 190.576 303.532 190.453C303.384 190.33 303.264 190.178 303.178 190.005C303.021 189.715 302.956 189.385 302.99 189.056C303.024 188.727 303.155 188.418 303.368 188.165L302.289 188.99C301.979 189.207 301.599 189.302 301.224 189.255C300.848 189.208 300.503 189.023 300.257 188.736C300.125 188.591 300.023 188.422 299.957 188.237C299.892 188.053 299.865 187.857 299.876 187.661C299.889 187.466 299.939 187.275 300.026 187.099C300.113 186.924 300.236 186.768 300.384 186.641L312.699 175.405L298.67 182.959C298.507 183.048 298.329 183.104 298.145 183.123C297.962 183.142 297.775 183.125 297.599 183.071C297.422 183.018 297.257 182.93 297.114 182.813C296.97 182.696 296.852 182.551 296.766 182.388C296.576 182.075 296.516 181.701 296.599 181.345C296.682 180.989 296.901 180.679 297.21 180.484Z" fill="#F39494"/>
<g opacity="0.15">
<path opacity="0.15" d="M303.946 188.061C303.852 188.08 303.755 188.073 303.665 188.039C303.575 188.006 303.497 187.947 303.438 187.87C303.364 187.761 303.336 187.626 303.359 187.495C303.383 187.365 303.457 187.249 303.566 187.172L314.548 179.427C314.802 179.3 315.119 179.3 315.246 179.554C315.319 179.664 315.348 179.798 315.324 179.929C315.301 180.06 315.227 180.175 315.119 180.253L304.074 187.997L303.946 188.061Z" fill="black"/>
</g>
<g opacity="0.15">
<path opacity="0.15" d="M307.247 189.648C307.137 189.675 307.021 189.665 306.917 189.619C306.814 189.573 306.729 189.494 306.676 189.393C306.641 189.335 306.62 189.271 306.611 189.204C306.602 189.137 306.607 189.07 306.625 189.005C306.642 188.94 306.672 188.879 306.714 188.826C306.755 188.773 306.807 188.728 306.866 188.696L317.531 182.728C317.651 182.674 317.786 182.664 317.914 182.698C318.041 182.734 318.152 182.811 318.229 182.919C318.262 182.976 318.285 183.041 318.293 183.108C318.302 183.174 318.298 183.242 318.279 183.308C318.262 183.373 318.232 183.433 318.19 183.486C318.149 183.54 318.097 183.584 318.038 183.617L307.374 189.521L307.247 189.648Z" fill="black"/>
</g>
<path opacity="0.15" d="M306.549 190.727L335.433 180.125L348.065 177.459V178.728L338.543 181.903L308.199 192.123C307.565 192.441 306.231 191.87 306.549 190.727Z" fill="black"/>
<path opacity="0.15" d="M408.118 148.13L436.431 96.456L436.939 96.2024C436.939 96.7739 436.303 97.5991 436.05 98.1072C433.764 103.566 420.37 135.053 412.752 148.956C409.515 154.86 407.103 158.225 403.167 160.954C401.023 162.454 398.67 163.63 396.184 164.446L341.717 183.172V180.633L396.819 159.177C399.377 158.241 401.707 156.772 403.655 154.867C405.603 152.964 407.124 150.666 408.118 148.13Z" fill="black"/>
<path d="M384.884 137.91L405.769 98.2974L436.939 96.2024L406.531 150.797C404.437 155.748 397.263 158.225 392.248 160.065L343.558 180.189L342.923 160.129L384.884 137.91Z" fill="#7C8EC8"/>
<path opacity="0.15" d="M381.837 137.847L405.135 98.9324L385.138 138.1L342.289 160.764L381.837 137.847Z" fill="black"/>
<path d="M340.258 161.335L343.622 180.697L348.637 178.856L344.701 158.859L340.258 161.335Z" fill="#21252B"/>
<path d="M396.882 34.1809L399.103 19.8339C400.437 12.4063 392.756 8.47058 388.122 8.47058H372.061C367.109 8.47058 361.269 12.3429 363.745 20.7225L365.204 33.4191L396.882 34.1809Z" fill="#1A1A1A"/>
<path opacity="0.2" d="M359.238 67.8262C360.762 69.7303 364.697 74.6188 367.109 77.1578C368.315 78.4277 370.474 78.3643 371.934 76.9676L376.06 73.0318C377.838 71.3173 380.694 71.5083 381.71 73.4758L384.694 78.9351C385.519 80.5862 387.804 81.157 389.772 80.1415L405.642 70.9367C406.59 70.3719 407.428 69.6403 408.118 68.7782C408.372 70.3652 407.356 72.0156 405.642 72.8408L389.772 81.9822C387.804 82.935 385.519 82.3635 384.63 80.7131L381.71 75.1903C380.631 73.2221 377.774 73.0318 375.997 74.7456L371.87 78.6814C370.474 80.0147 368.252 80.0781 367.046 78.8082C364.697 76.2058 360.507 71.0636 358.92 69.1595C358.539 68.588 358.222 67.5725 358.666 67.001L359.238 67.8262Z" fill="#231F20"/>
<path d="M397.897 57.923L403.864 60.1449C404.563 60.3986 407.102 61.2872 407.292 62.8108L407.737 65.7945C407.99 67.3815 408.117 70.0481 408.117 70.0481L389.771 80.7765C387.804 81.7285 385.518 81.157 384.629 79.5066L381.71 74.0473C380.694 72.079 377.774 71.8888 375.996 73.6026L371.933 77.5391C370.473 78.9351 368.315 78.9992 367.109 77.7294C364.697 75.1262 358.539 67.1912 358.539 67.1912C358.539 67.1912 362.855 60.3986 365.141 59.1287L374.156 56.6531C381.519 54.558 389.835 54.9393 397.897 57.923Z" fill="#21252B"/>
<path d="M368.443 27.8957C368.443 27.8957 394.597 11.4544 395.485 31.5144L395.867 36.7834L397.707 63.0018C397.707 63.9539 390.725 68.6514 390.725 68.6514C388.861 69.7377 386.798 70.439 384.659 70.714C382.519 70.9884 380.346 70.8313 378.268 70.2509C376.19 69.6705 374.25 68.6802 372.562 67.3365C370.874 65.9929 369.473 64.3241 368.443 62.4303C368.32 62.2577 368.234 62.0638 368.189 61.8588L370.03 47.1947C369.661 45.6549 369.469 44.0797 369.459 42.4971C369.204 34.8159 368.443 27.8957 368.443 27.8957Z" fill="#FC9D9D"/>
<path d="M365.523 13.6136C365.523 13.6136 356.318 52.5913 376.187 55.1937C393.518 57.4791 395.422 30.5631 395.422 30.5631L394.723 13.1055L365.523 13.6136Z" fill="#FC9D9D"/>
<path opacity="0.15" d="M396.057 37.9265C396.057 37.9265 394.343 38.0533 393.454 37.2915L396.248 41.6078L396.057 37.9265Z" fill="black"/>
<path d="M395.041 27.5151C395.041 27.5151 396.311 23.8331 400.119 25.5469C403.929 27.2615 403.674 37.4183 396.248 37.9264C392.375 38.2435 393.136 36.0216 393.772 33.0379L395.041 27.5151Z" fill="#FC9D9D"/>
<path opacity="0.3" d="M400.437 28.277C400.143 28.0469 399.807 27.878 399.447 27.7799C399.087 27.6818 398.711 27.656 398.342 27.7054C397.644 27.923 397.04 28.3706 396.628 28.9753C396.196 29.8485 395.937 30.7968 395.866 31.7688L395.739 32.6574C395.739 32.9745 395.866 33.1647 396.121 33.1647C396.374 33.1647 396.628 33.0379 396.628 32.7842L396.755 31.8956C396.802 31.1087 397.043 30.3462 397.453 29.6737C397.834 29.1656 398.152 28.7851 398.469 28.7851C398.724 28.7165 398.994 28.715 399.249 28.7821C399.506 28.8492 399.74 28.9812 399.929 29.1656C400.183 29.229 400.437 29.229 400.564 28.9753C400.691 28.7216 400.564 28.3404 400.437 28.277Z" fill="black"/>
<path opacity="0.15" d="M368.696 58.3035L369.332 52.019C371.045 53.7328 375.806 56.2091 381.202 55.0027C383.9 54.2748 386.328 52.7741 388.185 50.6857C388.269 50.6281 388.369 50.5979 388.47 50.5979C388.572 50.5979 388.672 50.6281 388.756 50.6857C388.818 50.7557 388.853 50.8457 388.853 50.9401C388.853 51.033 388.818 51.1237 388.756 51.1938C386.359 53.9002 383.071 55.6568 379.488 56.1457C377.924 57.2076 376.164 57.9451 374.31 58.316C372.457 58.6862 370.548 58.6825 368.696 58.3035Z" fill="black"/>
<g opacity="0.3">
<path opacity="0.3" d="M374.79 47.3215L377.266 47.5752C377.392 47.5523 377.508 47.4911 377.599 47.4004C377.689 47.3097 377.751 47.1939 377.774 47.0678C377.762 46.9307 377.708 46.8001 377.616 46.6969C377.524 46.5936 377.401 46.5236 377.266 46.4963L374.917 46.306C374.849 46.295 374.777 46.3009 374.712 46.3223C374.645 46.3436 374.583 46.3813 374.534 46.4307C374.485 46.4801 374.448 46.5405 374.426 46.6077C374.405 46.674 374.399 46.7448 374.409 46.8134C374.283 46.8768 374.537 47.1947 374.79 47.3215Z" fill="black"/>
</g>
<g opacity="0.3">
<path opacity="0.3" d="M373.966 44.9727C378.345 45.6076 380.313 43.3223 380.949 42.1158C381.004 42.0118 381.023 41.8916 381 41.7759C380.976 41.6601 380.913 41.5554 380.821 41.4809C380.706 41.43 380.577 41.4152 380.453 41.4381C380.328 41.461 380.214 41.52 380.123 41.6077C379.489 42.8142 377.33 45.2264 372.125 43.5126C372.063 43.4808 371.994 43.4624 371.926 43.458C371.856 43.4536 371.786 43.4639 371.72 43.4875C371.655 43.5111 371.595 43.5487 371.544 43.5966C371.494 43.6446 371.454 43.7021 371.427 43.7662C371.299 44.0841 371.427 44.2743 371.68 44.4646C371.934 44.6549 373.204 44.7824 373.966 44.9727Z" fill="black"/>
</g>
<path d="M380.948 33.4199C380.072 33.4199 379.361 32.7082 379.361 31.8329C379.361 30.956 380.072 30.2451 380.948 30.2451C381.825 30.2451 382.535 30.956 382.535 31.8329C382.535 32.7082 381.825 33.4199 380.948 33.4199Z" fill="#21252B"/>
<path d="M380.313 31.7046C380.103 31.7046 379.932 31.535 379.932 31.324C379.932 31.1139 380.103 30.9428 380.313 30.9428C380.524 30.9428 380.695 31.1139 380.695 31.324C380.695 31.535 380.524 31.7046 380.313 31.7046Z" fill="white"/>
<path d="M368.697 34.181C367.82 34.181 367.11 33.4701 367.11 32.594C367.11 31.7171 367.82 31.007 368.697 31.007C369.574 31.007 370.283 31.7171 370.283 32.594C370.283 33.4701 369.574 34.181 368.697 34.181Z" fill="#21252B"/>
<path d="M367.998 32.4663C367.788 32.4663 367.617 32.296 367.617 32.0851C367.617 31.8749 367.788 31.7046 367.998 31.7046C368.208 31.7046 368.379 31.8749 368.379 32.0851C368.379 32.296 368.208 32.4663 367.998 32.4663Z" fill="white"/>
<g opacity="0.3">
<path opacity="0.3" d="M372.695 40.9736L374.791 41.1646C375.108 41.1646 375.299 40.9736 375.299 40.7833C375.299 40.593 375.171 40.2759 374.918 40.2759L372.823 40.0849C372.698 40.0768 372.575 40.0436 372.463 39.9883C372.351 39.9338 372.25 39.8563 372.167 39.7612C372.084 39.6675 372.022 39.5577 371.981 39.4389C371.941 39.3195 371.925 39.1948 371.934 39.0695C371.966 38.8114 372.095 38.5746 372.297 38.4102C372.497 38.2443 372.754 38.1624 373.013 38.1808C373.267 38.1808 373.521 38.054 373.521 37.7996C373.521 37.5459 373.394 37.2922 373.14 37.2922C372.638 37.2553 372.141 37.4124 371.751 37.731C371.361 38.0496 371.109 38.5061 371.045 39.0061C371.019 39.2443 371.041 39.4861 371.111 39.7147C371.18 39.9448 371.296 40.1579 371.451 40.3423C371.605 40.5267 371.794 40.6771 372.009 40.7855C372.222 40.8939 372.457 40.9581 372.695 40.9736Z" fill="black"/>
</g>
<path d="M362.856 1.99507C368.506 -2.0041 379.742 0.789348 385.836 3.58279C385.71 1.80481 386.852 1.99507 386.852 1.99507C397.58 4.85194 394.787 13.3584 394.787 13.3584H394.66C395.803 15.7713 397.263 20.9762 395.867 30.372C395.867 30.372 391.994 22.5639 391.931 16.4689C387.169 18.6274 373.457 21.6746 364.888 18.8184C364.062 23.9599 363.491 30.372 363.491 30.372C362.751 25.9355 362.773 21.4061 363.554 16.977C363.024 16.6068 362.534 16.1821 362.094 15.7079C362.094 15.7079 354.794 7.7088 362.856 1.99507Z" fill="#1A1A1A"/>
<path opacity="0.19" d="M360.063 32.1493C360.063 33.4833 360.459 34.7871 361.202 35.8947C361.944 37.0024 362.999 37.8652 364.232 38.3726C365.465 38.8799 366.822 39.009 368.129 38.7442C369.435 38.4795 370.634 37.832 371.572 36.8851C372.511 35.9375 373.147 34.7325 373.399 33.4228C373.652 32.1139 373.509 30.7584 372.99 29.5298C372.471 28.302 371.599 27.2556 370.484 26.5233C369.369 25.7917 368.062 25.4083 366.729 25.4201C364.955 25.437 363.259 26.1538 362.012 27.4134C360.764 28.6737 360.063 30.3757 360.063 32.1493Z" fill="white"/>
<path opacity="0.19" d="M376.505 32.1493C376.505 33.4833 376.901 34.7871 377.643 35.8947C378.385 37.0024 379.44 37.8652 380.674 38.3726C381.906 38.8799 383.263 39.009 384.57 38.7442C385.877 38.4795 387.075 37.832 388.014 36.8851C388.953 35.9375 389.588 34.7325 389.841 33.4228C390.094 32.1139 389.951 30.7584 389.432 29.5298C388.913 28.302 388.041 27.2556 386.926 26.5233C385.811 25.7917 384.504 25.4083 383.17 25.4201C381.397 25.437 379.701 26.1538 378.453 27.4134C377.204 28.6737 376.504 30.3757 376.505 32.1493Z" fill="white"/>
<path d="M376.505 32.1493C376.505 33.4833 376.901 34.7871 377.643 35.8947C378.385 37.0024 379.44 37.8652 380.674 38.3726C381.906 38.8799 383.263 39.009 384.57 38.7442C385.877 38.4795 387.075 37.832 388.014 36.8851C388.953 35.9375 389.588 34.7325 389.841 33.4228C390.094 32.1139 389.951 30.7584 389.432 29.5298C388.913 28.302 388.041 27.2556 386.926 26.5233C385.811 25.7917 384.504 25.4083 383.17 25.4201C381.397 25.437 379.701 26.1538 378.453 27.4134C377.204 28.6737 376.504 30.3757 376.505 32.1493Z" stroke="#1A1A1A" stroke-width="0.428208" stroke-linecap="round" stroke-linejoin="round"/>
<path d="M360.063 32.1493C360.063 33.4833 360.459 34.7871 361.202 35.8947C361.944 37.0024 362.999 37.8652 364.232 38.3726C365.465 38.8799 366.822 39.009 368.129 38.7442C369.435 38.4795 370.634 37.832 371.572 36.8851C372.511 35.9375 373.147 34.7325 373.399 33.4228C373.652 32.1139 373.509 30.7584 372.99 29.5298C372.471 28.302 371.599 27.2556 370.484 26.5233C369.369 25.7917 368.062 25.4083 366.729 25.4201C364.955 25.437 363.259 26.1538 362.012 27.4134C360.764 28.6737 360.063 30.3757 360.063 32.1493Z" stroke="#1A1A1A" stroke-width="0.428208" stroke-linecap="round" stroke-linejoin="round"/>
<path d="M376.504 32.1493C376.504 32.1493 374.917 30.6892 373.457 32.1493" stroke="#1A1A1A" stroke-width="0.428208" stroke-linecap="round" stroke-linejoin="round"/>
<path d="M389.899 32.15L395.739 29.928" stroke="#1A1A1A" stroke-width="0.428208" stroke-miterlimit="10"/>
<path d="M357.207 435.068H336.004L335.496 447.193C335.428 448.768 335.005 450.304 334.256 451.688C333.51 453.072 332.457 454.271 331.18 455.192L315.627 466.301L354.477 465.349L357.207 435.068Z" fill="#FB9C9C"/>
<path opacity="0.15" d="M348.827 460.334L354.413 462.619L334.099 452.97C335.211 450.075 335.73 446.99 335.623 443.892H356.381V446.622L343.685 447.257C342.351 447.384 341.907 449.479 342.034 450.876V451.129C342.211 453.142 342.939 455.065 344.137 456.684C345.335 458.309 346.957 459.572 348.827 460.334Z" fill="black"/>
<path d="M424.497 435.005L403.802 434.942L407.039 464.524H424.497V435.005Z" fill="#FB9C9C"/>
<path opacity="0.15" d="M407.102 464.397L404.753 443.828L424.432 443.702L424.115 446.241L411.545 448.209C410.972 448.266 410.439 448.533 410.043 448.952C409.647 449.37 409.414 449.917 409.387 450.494L408.943 459.636L407.102 464.397Z" fill="black"/>
<path d="M425.702 201.836L342.288 203.17L334.417 443.829H357.207L378.219 246.464C378.281 245.852 378.57 245.287 379.027 244.876C379.485 244.465 380.079 244.239 380.694 244.242C381.32 244.223 381.93 244.442 382.401 244.854C382.873 245.266 383.17 245.841 383.234 246.464L402.976 443.829H425.702V201.836Z" fill="#3F4249"/>
<path d="M426.21 438.878H401.643L402.087 443.829H426.336L426.21 438.878Z" fill="#3F4249"/>
<path opacity="0.15" d="M410.911 438.878H401.643L402.087 443.829L411.61 443.702L410.911 438.878Z" fill="black"/>
<path d="M358.285 438.878H333.972L333.718 443.829H357.777L358.285 438.878Z" fill="#3F4249"/>
<path opacity="0.15" d="M333.973 438.877L336.893 438.814L336.639 443.829H333.719L333.973 438.877Z" fill="black"/>
<path opacity="0.2" d="M410.911 438.877L394.533 254.78C393.771 248.749 388.439 244.242 382.155 244.242H380.504C381.135 244.239 381.746 244.471 382.215 244.894C382.685 245.317 382.98 245.899 383.043 246.527L402.595 438.877H410.911Z" fill="black"/>
<path d="M348.065 207.613L336.257 438.814H333.973L342.098 207.613H348.065Z" fill="#32353A"/>
<path d="M426.337 475.379H405.135C404.662 475.379 404.2 475.233 403.813 474.96C403.427 474.688 403.134 474.3 402.977 473.856C402.922 474.275 402.901 474.7 402.913 475.126V475.824C402.921 476.109 402.985 476.389 403.102 476.643C403.218 476.903 403.383 477.137 403.59 477.328C403.796 477.525 404.039 477.677 404.304 477.779C404.569 477.881 404.852 477.925 405.135 477.918H426.337C426.621 477.925 426.903 477.881 427.168 477.779C427.433 477.677 427.676 477.525 427.882 477.328C428.089 477.137 428.255 476.903 428.371 476.643C428.487 476.389 428.551 476.109 428.559 475.824V475.57C428.57 475.017 428.549 474.465 428.496 473.919C428.344 474.364 428.051 474.751 427.662 475.011C427.273 475.278 426.807 475.404 426.337 475.379Z" fill="black"/>
<path d="M423.227 452.906L422.719 452.399C420.696 450.507 418.022 449.472 415.254 449.504C412.485 449.542 409.838 450.647 407.865 452.589L407.61 452.906C406.628 453.884 406.059 455.205 406.023 456.589V458.81C406.056 460.08 405.863 461.35 405.452 462.556L403.612 468.587C403.153 470.022 402.918 471.52 402.913 473.031V473.792C402.946 474.37 403.203 474.916 403.63 475.303C404.057 475.696 404.619 475.906 405.199 475.887H426.337C426.626 475.906 426.915 475.862 427.187 475.767C427.46 475.671 427.71 475.519 427.924 475.322C428.136 475.126 428.308 474.89 428.428 474.63C428.548 474.364 428.615 474.084 428.623 473.792V473.475C428.606 471.704 428.305 469.945 427.734 468.27L425.576 462.429C425.128 461.077 424.892 459.661 424.877 458.239V456.525C424.814 455.154 424.222 453.853 423.227 452.906Z" fill="#3F4249"/>
<path opacity="0.4" d="M409.452 457.732C408.995 457.732 408.626 457.364 408.626 456.906C408.626 456.449 408.995 456.081 409.452 456.081C409.907 456.081 410.276 456.449 410.276 456.906C410.276 457.364 409.907 457.732 409.452 457.732Z" fill="#231F20"/>
<path opacity="0.4" d="M409.832 460.905C409.376 460.905 409.006 460.537 409.006 460.08C409.006 459.623 409.376 459.255 409.832 459.255C410.288 459.255 410.657 459.623 410.657 460.08C410.657 460.537 410.288 460.905 409.832 460.905Z" fill="#231F20"/>
<path opacity="0.4" d="M410.086 463.254C409.63 463.254 409.261 462.886 409.261 462.429C409.261 461.972 409.63 461.604 410.086 461.604C410.542 461.604 410.911 461.972 410.911 462.429C410.911 462.886 410.542 463.254 410.086 463.254Z" fill="#231F20"/>
<path opacity="0.4" d="M409.705 467C409.249 467 408.88 466.632 408.88 466.175C408.88 465.717 409.249 465.349 409.705 465.349C410.161 465.349 410.531 465.717 410.531 466.175C410.531 466.632 410.161 467 409.705 467Z" fill="#231F20"/>
<path opacity="0.4" d="M409.705 470.237C409.249 470.237 408.88 469.869 408.88 469.412C408.88 468.955 409.249 468.587 409.705 468.587C410.161 468.587 410.531 468.955 410.531 469.412C410.531 469.869 410.161 470.237 409.705 470.237Z" fill="#231F20"/>
<path opacity="0.4" d="M419.671 470.935C419.216 470.935 418.846 470.567 418.846 470.11C418.846 469.653 419.216 469.285 419.671 469.285C420.127 469.285 420.497 469.653 420.497 470.11C420.497 470.567 420.127 470.935 419.671 470.935Z" fill="#231F20"/>
<path opacity="0.4" d="M419.799 467.888C419.343 467.888 418.973 467.52 418.973 467.063C418.973 466.606 419.343 466.238 419.799 466.238C420.254 466.238 420.624 466.606 420.624 467.063C420.624 467.52 420.254 467.888 419.799 467.888Z" fill="#231F20"/>
<path opacity="0.4" d="M419.925 463.889C419.47 463.889 419.101 463.521 419.101 463.064C419.101 462.607 419.47 462.239 419.925 462.239C420.382 462.239 420.751 462.607 420.751 463.064C420.751 463.521 420.382 463.889 419.925 463.889Z" fill="#231F20"/>
<path opacity="0.4" d="M419.671 460.08C419.216 460.08 418.846 459.712 418.846 459.255C418.846 458.798 419.216 458.43 419.671 458.43C420.127 458.43 420.497 458.798 420.497 459.255C420.497 459.712 420.127 460.08 419.671 460.08Z" fill="#231F20"/>
<path opacity="0.4" d="M419.545 457.097C419.089 457.097 418.719 456.729 418.719 456.271C418.719 455.814 419.089 455.446 419.545 455.446C420 455.446 420.37 455.814 420.37 456.271C420.37 456.729 420 457.097 419.545 457.097Z" fill="#231F20"/>
<path d="M409.705 456.716C409.705 456.716 413.324 452.906 419.544 456.081" stroke="white" stroke-miterlimit="10" stroke-linecap="round"/>
<path d="M409.832 459.89C409.832 459.89 413.45 456.017 419.671 459.255" stroke="white" stroke-miterlimit="10" stroke-linecap="round"/>
<path d="M410.086 462.302C411.039 461.604 415.736 460.08 419.926 463" stroke="white" stroke-miterlimit="10" stroke-linecap="round"/>
<path d="M410.023 466.111C410.023 466.111 414.086 462.81 419.799 466.809" stroke="white" stroke-miterlimit="10" stroke-linecap="round"/>
<path d="M409.705 469.285C409.705 469.285 413.768 465.921 419.481 469.983" stroke="white" stroke-miterlimit="10" stroke-linecap="round"/>
<path d="M356.889 475.57L300.137 475.696C300.024 475.43 299.938 475.157 299.883 474.871C299.757 475.544 299.736 476.224 299.819 476.903C299.834 477.411 300.038 477.893 300.391 478.255C300.743 478.623 301.218 478.839 301.724 478.871L355.048 478.743C355.565 478.725 356.056 478.516 356.422 478.147C356.787 477.786 357 477.29 357.016 476.776L356.889 475.57Z" fill="black"/>
<path d="M303.247 469.158C313.341 464.651 321.594 460.905 329.147 454.113C330.862 452.589 332.195 451.446 334.417 451.256L342.987 456.525C343.495 456.868 344.097 457.046 344.711 457.033C345.324 457.021 345.919 456.824 346.414 456.462L355.555 451.637C357.079 451.51 358.349 453.478 358.222 455.065L356.889 475.57L300.137 475.696C298.931 473.221 301.47 469.92 303.247 469.158Z" fill="#3F4249"/>
<path opacity="0.4" d="M313.151 470.174C312.555 470.174 312.072 469.716 312.072 469.158C312.072 468.599 312.555 468.142 313.151 468.142C313.747 468.142 314.23 468.599 314.23 469.158C314.23 469.716 313.747 470.174 313.151 470.174Z" fill="#231F20"/>
<path opacity="0.4" d="M319.372 468.46C318.776 468.46 318.293 468.003 318.293 467.444C318.293 466.885 318.776 466.428 319.372 466.428C319.968 466.428 320.451 466.885 320.451 467.444C320.451 468.003 319.968 468.46 319.372 468.46Z" fill="#231F20"/>
<path opacity="0.4" d="M324.577 464.905C323.981 464.905 323.498 464.447 323.498 463.889C323.498 463.33 323.981 462.873 324.577 462.873C325.173 462.873 325.657 463.33 325.657 463.889C325.657 464.447 325.173 464.905 324.577 464.905Z" fill="#231F20"/>
<path opacity="0.4" d="M329.529 461.223C328.932 461.223 328.45 460.766 328.45 460.207C328.45 459.648 328.932 459.192 329.529 459.192C330.125 459.192 330.608 459.648 330.608 460.207C330.608 460.766 330.125 461.223 329.529 461.223Z" fill="#231F20"/>
<path opacity="0.4" d="M333.972 456.779C333.376 456.779 332.893 456.322 332.893 455.763C332.893 455.205 333.376 454.748 333.972 454.748C334.569 454.748 335.052 455.205 335.052 455.763C335.052 456.322 334.569 456.779 333.972 456.779Z" fill="#231F20"/>
<path d="M311.184 466.745L311.882 468.65C311.93 468.777 312.004 468.891 312.098 468.986C312.192 469.082 312.304 469.164 312.428 469.215C312.552 469.266 312.686 469.298 312.821 469.298C312.956 469.298 313.09 469.273 313.214 469.222C313.341 469.171 313.455 469.101 313.551 469.006C313.646 468.91 313.721 468.796 313.769 468.669C313.817 468.542 313.837 468.409 313.83 468.275C313.822 468.136 313.786 468.009 313.722 467.888L312.707 466.048L311.184 466.745Z" fill="white"/>
<path d="M316.706 464.143L318.038 467C318.099 467.121 318.184 467.235 318.287 467.323C318.391 467.413 318.512 467.476 318.642 467.52C318.772 467.559 318.91 467.577 319.046 467.565C319.182 467.552 319.314 467.508 319.435 467.444C319.55 467.387 319.653 467.304 319.735 467.203C319.817 467.101 319.877 466.987 319.913 466.86C319.949 466.733 319.959 466.606 319.941 466.473C319.925 466.346 319.882 466.225 319.816 466.111L318.356 463.381L316.706 464.143Z" fill="white"/>
<path d="M321.34 461.223L323.117 463.635C323.204 463.75 323.313 463.845 323.437 463.914C323.561 463.984 323.697 464.029 323.839 464.048C323.981 464.067 324.124 464.054 324.262 464.016C324.4 463.978 324.528 463.914 324.641 463.826H324.704C324.858 463.654 324.952 463.439 324.975 463.21C324.998 462.981 324.948 462.753 324.831 462.556L323.117 460.271L321.34 461.223Z" fill="white"/>
<path d="M325.91 458.175L328.196 460.334C328.374 460.506 328.612 460.607 328.862 460.607C329.111 460.607 329.351 460.506 329.529 460.334C329.632 460.239 329.713 460.125 329.766 459.998C329.82 459.864 329.844 459.731 329.838 459.591C329.832 459.452 329.796 459.312 329.731 459.192C329.667 459.064 329.576 458.956 329.465 458.874L327.18 457.16L325.91 458.175Z" fill="white"/>
<path d="M330.354 454.176C330.354 454.24 331.687 455.255 332.576 455.954C332.775 456.1 333.021 456.163 333.266 456.138C333.512 456.119 333.74 456.004 333.909 455.827C333.988 455.719 334.043 455.592 334.07 455.459C334.098 455.325 334.097 455.186 334.067 455.059C334.036 454.926 333.978 454.799 333.896 454.69C333.815 454.583 333.711 454.494 333.591 454.43L330.925 453.161L330.354 454.176Z" fill="white"/>
<path d="M426.02 198.091H342.162L342.098 207.613H425.638L425.702 202.09L426.02 198.091Z" fill="#21252B"/>
<path d="M426.336 198.091H342.161L342.098 207.613H425.893L426.019 202.09L426.336 198.091Z" fill="#1A1A1A"/>
<path d="M368.379 198.091H386.154V207.588H368.379V198.091Z" fill="#61656D"/>
<path d="M369.394 198.091H385.265V207.588H369.394V198.091Z" fill="#DADDDF"/>
</svg>
