<svg width="266" height="280" viewBox="0 0 266 280" fill="none" xmlns="http://www.w3.org/2000/svg">
<rect x="77" y="39" width="112" height="150" rx="56" fill="#AA724B"/>
<path fill-rule="evenodd" clip-rule="evenodd" d="M75.9999 98C76.3467 99.4884 77.6726 99.2227 77.9999 98C77.5372 96.4457 81.2958 69.2481 90.9999 62C94.6181 59.4834 114.008 57.2319 133.313 57.2456C152.408 57.2591 171.421 59.5106 175 62C184.704 69.2481 188.463 96.4457 188 98C188.327 99.2227 189.653 99.4884 190 98C190.719 87.7019 190 34.2744 133 35C75.9999 35.7256 75.2807 87.7019 75.9999 98Z" fill="#28354B"/>
<mask id="mask0" mask-type="alpha" maskUnits="userSpaceOnUse" x="75" y="34" width="116" height="66">
<path fill-rule="evenodd" clip-rule="evenodd" d="M75.9999 98C76.3467 99.4884 77.6726 99.2227 77.9999 98C77.5372 96.4457 81.2958 69.2481 90.9999 62C94.6181 59.4834 114.008 57.2319 133.313 57.2456C152.408 57.2591 171.421 59.5106 175 62C184.704 69.2481 188.463 96.4457 188 98C188.327 99.2227 189.653 99.4884 190 98C190.719 87.7019 190 34.2744 133 35C75.9999 35.7256 75.2807 87.7019 75.9999 98Z" fill="white"/>
</mask>
<g mask="url(#mask0)">
<rect x="1" width="264" height="280" fill="black"/>
</g>
</svg>
