<svg width="116" height="155" viewBox="0 0 116 155" fill="none" xmlns="http://www.w3.org/2000/svg">
<path d="M114 61C114 30.0721 88.9279 5 58 5C27.0721 5 2 30.0721 2 61V99C2 129.928 27.0721 155 58 155C88.9279 155 114 129.928 114 99V61Z" fill="#AA724B"/>
<path fill-rule="evenodd" clip-rule="evenodd" d="M0.999896 64C1.3467 65.4884 2.6726 65.2227 2.9999 64C2.5372 62.4457 6.2958 35.2481 15.9999 28C19.6181 25.4834 39.008 23.2319 58.313 23.2456C77.408 23.2591 96.421 25.5106 100 28C109.704 35.2481 113.463 62.4457 113 64C113.327 65.2227 114.653 65.4884 115 64C115.719 53.7019 115 0.274397 58 0.999997C0.999897 1.7256 0.280696 53.7019 0.999896 64Z" fill="black"/>
</svg>
