<svg width="655" height="642" viewBox="0 0 655 642" fill="none" xmlns="http://www.w3.org/2000/svg">
<path d="M342.035 510.029C296.776 516.811 249.847 541.154 210.551 534.36C171.256 527.566 139.653 489.251 117.716 446.541C95.5597 403.993 83.2901 356.889 86.3942 310.374C89.2782 264.021 107.536 218.257 139.937 190.321C172.117 162.546 218.116 152.158 260.764 143.214C303.193 134.433 341.889 127.039 385.343 127.029C428.796 127.019 477.008 134.394 510.784 160.902C544.56 187.41 564.121 232.889 557.118 274.109C550.336 315.167 516.827 351.744 498.938 392.473C480.828 433.365 478.117 478.569 454.777 495.753C431.379 513.319 387.514 503.084 342.035 510.029Z" fill="#27345C" fill-opacity="0.65"/>
</svg>
