<svg width="694" height="694" viewBox="0 0 694 694" fill="none" xmlns="http://www.w3.org/2000/svg">
<path d="M536.729 316.691C544.077 361.312 561.678 401.97 559.284 441.868C556.419 481.753 534.029 520.89 500.211 543.037C466.151 564.943 420.894 569.629 378.958 565.236C337.022 560.842 298.407 547.369 254.347 532.106C210.276 516.373 160.999 499.093 123.309 464.018C85.6096 428.472 59.2672 375.361 64.534 327.311C69.7903 278.791 106.426 235.563 143.418 197.75C180.17 159.696 217.049 127.287 261.268 107.764C305.728 88.4823 357.769 82.3287 404.609 95.7837C451.209 108.997 492.849 142.061 512.332 182.769C532.055 223.718 529.15 272.3 536.729 316.691Z" fill="#27345C" fill-opacity="0.65"/>
</svg>
