<svg width="1176" height="945" viewBox="0 0 1176 945" fill="none" xmlns="http://www.w3.org/2000/svg">
<path opacity="0.1" d="M2.91808 332.945H143.931V525.162H13.2286C12.8951 527.149 12.5616 529.123 12.1864 531.11H143.931V686.101C143.708 686.101 143.486 685.934 143.277 685.851C139.572 684.378 135.866 682.817 132.161 681.168C131.369 680.807 130.591 680.432 129.785 680.084C126.079 678.334 122.374 676.481 118.668 674.526C117.376 673.845 116.084 673.137 114.819 672.414C94.2478 660.935 75.551 646.381 59.3759 629.254C58.8895 628.796 58.4449 628.295 57.9863 627.865C55.7352 625.419 53.5258 622.946 51.3859 620.417C50.58 619.486 49.8018 618.541 49.0098 617.638C46.4808 614.553 44.0351 611.357 41.6729 608.147C41.3116 607.66 40.9781 607.188 40.6307 606.757C30.9538 593.367 22.9289 578.856 16.7303 563.542C16.5358 563.083 16.3551 562.583 16.1745 562.152C14.2569 557.289 12.5199 552.356 11.0192 547.326C10.38 545.228 9.75472 543.157 9.22668 540.976C9.03215 540.35 8.87929 539.711 8.71254 539.086C0.90322 508.307 0 476.319 0 444.485C0 440.779 0 437.074 0 433.368C0.111165 420.371 0.264019 407.388 0.458557 394.419C0.532667 391.084 0.602147 387.735 0.666993 384.372C0.861531 375.859 1.13944 367.327 1.50073 358.776C1.5841 356.414 1.69527 354.038 1.82033 351.69C1.87591 350.328 1.94539 348.966 2.02877 347.604C2.27889 342.685 2.57533 337.799 2.91808 332.945Z" fill="#6C63FF"/>
<path opacity="0.1" d="M143.931 118.925H66.5737C79.1542 99.2553 92.8934 80.3517 107.719 62.314C119.224 48.196 131.341 34.4394 143.931 21.183V118.925Z" fill="#6C63FF"/>
<path opacity="0.1" d="M143.931 124.844V326.997H3.36267C3.36267 326.414 3.44604 325.816 3.50162 325.233C3.62669 323.635 3.75174 322.051 3.8907 320.453C4.02966 318.591 4.2103 316.729 4.39094 314.894C4.57158 313.06 4.75222 310.837 4.97455 308.822C5.19688 306.807 5.37753 304.764 5.59986 302.75C5.82219 300.735 6.04452 298.72 6.29464 296.719C6.54476 294.718 6.76708 292.689 7.045 290.688C7.25343 289.035 7.46186 287.367 7.69809 285.7C8.01769 283.351 8.35118 281.003 8.69857 278.669C8.69857 278.307 8.80974 277.96 8.86533 277.612C11.4049 260.525 14.856 243.585 19.2036 226.866C23.7693 209.33 29.5975 192.147 36.6426 175.452C44.1287 157.959 52.8976 141.044 62.8775 124.844H143.931Z" fill="#6C63FF"/>
<path opacity="0.1" d="M177.613 332.945V525.162H478.814V332.945H177.613ZM177.613 531.11V696.189C179.337 696.537 181.032 696.884 182.741 697.176C185.034 697.621 187.34 698.024 189.689 698.371L191.078 698.565C191.995 698.718 192.926 698.843 193.857 698.954C196.178 699.288 198.499 699.538 200.805 699.76C201.889 699.872 203.015 699.955 204.112 700.052L206.794 700.247C208.253 700.358 209.698 700.441 211.144 700.497C212.033 700.497 212.922 700.566 213.825 700.594C214.729 700.622 215.215 700.594 215.938 700.594H218.564C219.759 700.594 220.954 700.594 222.135 700.594H223.663C224.858 700.594 226.054 700.594 227.235 700.483H227.304C228.138 700.483 228.958 700.483 229.791 700.386C230.027 700.4 230.264 700.4 230.5 700.386C231.195 700.386 231.89 700.386 232.557 700.302C232.714 700.29 232.872 700.29 233.029 700.302C234.572 700.205 236.128 700.08 237.698 699.941C239.268 699.802 240.755 699.635 242.325 699.469L245.48 699.08C258.369 697.275 271.115 694.563 283.623 690.965C311.734 683.127 339.205 672.164 367.302 664.146C403.598 653.794 443.728 648.694 478.8 661.297V531.11H177.613ZM478.814 118.925V-136.977C445.842 -137.339 412.958 -133.487 380.962 -125.513C304.689 -106.351 236.197 -64.789 177.613 -11.7078V118.911H192.774V124.844H177.613V326.997H478.814V124.844H254.79V118.897L478.814 118.925ZM865.779 32.4802C846.909 31.8132 828.15 25.852 811.169 16.6114C778.737 -1.02208 752.808 -28.2852 723.849 -51.2686C663.681 -99.1667 589.062 -128.083 512.511 -135.254V118.925H942.455L943.525 117.799L865.779 32.4802ZM904.951 25.5324L946.484 71.1238V13.5405C932.505 15.3052 920.333 19.4044 904.951 25.4768V25.5324ZM946.484 737.181V531.11H857.914C857.692 530.234 857.442 529.345 857.164 528.456C857.428 529.345 857.664 530.234 857.9 531.11H512.511V680.126C515.791 682.558 519.028 685.128 522.238 687.713C525.703 690.548 529.144 693.415 532.563 696.314L536.009 699.163C537.662 700.553 539.344 701.942 541.011 703.262C544.355 705.958 547.723 708.626 551.113 711.266C552.808 712.6 554.513 713.911 556.227 715.198C583.368 735.941 611.996 754.663 641.879 771.212C648.577 774.949 655.344 778.548 662.153 782.064C666.683 784.398 671.245 786.687 675.84 788.928C682.732 792.291 689.68 795.533 696.683 798.655C761.25 827.639 829.527 847.523 899.559 857.739C915.104 860.028 930.718 861.834 946.401 863.159V737.154H947.791L946.484 737.181ZM512.511 124.844V326.997H946.484V124.844H512.511ZM512.511 332.917V525.162H946.484V332.945L512.511 332.917ZM980.168 13.2626V77.5992L1033.17 19.4183C1015.6 16.5188 997.935 14.4669 980.168 13.2626ZM980.168 332.945V525.162H1402.25V332.945H980.168ZM1400.76 752.425L1402.25 531.11H980.168V865.396C1007.35 866.526 1034.58 866.197 1061.73 864.409H1062.21C1075.18 863.576 1088.09 862.39 1100.93 860.852H1101.23C1169.79 852.871 1236.84 834.962 1300.25 807.688L1400.76 752.425ZM1483.67 364.515C1482.07 360.81 1480.43 357.104 1478.74 353.399C1475.6 346.451 1472.29 339.698 1468.88 332.959H1435.94V525.162H1519.19C1519.12 470.719 1505.34 415.137 1483.67 364.515V364.515ZM1435.94 531.11V721.479C1459.38 699.01 1479.21 673.289 1493.47 643.886C1510.63 608.466 1518.48 570.142 1519.14 531.096L1435.94 531.11ZM1435.94 276.931V326.956H1465.79C1456.74 309.759 1446.78 293.061 1435.94 276.931V276.931ZM1149.69 50.9891C1147.5 50.1415 1145.29 49.2939 1143.08 48.4879C1119.78 39.8784 1095.98 32.7223 1071.8 27.0609L990.673 116.076L989.088 117.785L990.131 118.911H1278.85C1238.64 91.2392 1195.28 68.4392 1149.69 50.9891V50.9891ZM1287.33 124.844H986.087L980.168 130.25V326.997H1032.07H1402.25V231.674C1368.77 191.195 1330.14 155.279 1287.33 124.844V124.844Z" fill="#6C63FF"/>
<path opacity="0.1" d="M143.931 226.824V326.997H3.36267C3.36267 326.414 3.44604 325.816 3.50162 325.233C3.62669 323.635 3.75174 322.05 3.8907 320.452C4.02966 318.59 4.2103 316.728 4.39094 314.894C4.57158 313.06 4.75222 310.837 4.97455 308.822C5.19688 306.807 5.37753 304.764 5.59986 302.749C5.82219 300.735 6.04452 298.72 6.29464 296.719C6.54476 294.718 6.76708 292.689 7.045 290.688C7.25343 289.035 7.46186 287.367 7.69809 285.7C8.01769 283.351 8.35118 281.003 8.69857 278.668C8.69857 278.307 8.80974 277.96 8.86533 277.612C11.4049 260.525 14.856 243.585 19.2036 226.866L143.931 226.824Z" fill="#6C63FF"/>
<path opacity="0.1" d="M2.91808 332.945H143.931V525.162H13.2286C12.8951 527.149 12.5616 529.123 12.1864 531.11H143.931V686.101C143.708 686.101 143.486 685.934 143.277 685.851C139.572 684.378 135.866 682.817 132.161 681.168C131.369 680.807 130.591 680.432 129.785 680.084C126.079 678.334 122.374 676.481 118.668 674.526C117.376 673.845 116.084 673.137 114.819 672.414C94.2478 660.935 75.551 646.381 59.3759 629.254C58.8895 628.796 58.4449 628.295 57.9863 627.865C55.7352 625.419 53.5258 622.946 51.3859 620.417C50.58 619.486 49.8018 618.541 49.0098 617.638C46.4808 614.553 44.0351 611.357 41.6729 608.147C41.3116 607.66 40.9781 607.188 40.6307 606.757C30.9538 593.367 22.9289 578.856 16.7303 563.542C16.5358 563.083 16.3551 562.583 16.1745 562.152C14.2569 557.289 12.5199 552.356 11.0192 547.326C10.38 545.228 9.75472 543.157 9.22668 540.976C9.03215 540.35 8.87929 539.711 8.71254 539.086C0.90322 508.307 0 476.319 0 444.485C0 440.779 0 437.074 0 433.368C0.111165 420.371 0.264019 407.388 0.458557 394.419C0.532667 391.084 0.602147 387.735 0.666993 384.372C0.861531 375.859 1.13944 367.327 1.50073 358.776C1.5841 356.414 1.69527 354.038 1.82033 351.69C1.87591 350.328 1.94539 348.966 2.02877 347.604C2.27889 342.685 2.57533 337.799 2.91808 332.945Z" fill="#6C63FF"/>
<path opacity="0.1" d="M283.637 153.803V326.997H177.6V153.803H192.718V95.1632H254.776V153.803H283.637Z" fill="#6C63FF"/>
<path opacity="0.1" d="M283.623 332.931H177.6V525.149H283.623V332.931Z" fill="#6C63FF"/>
<path opacity="0.1" d="M177.613 531.11H283.637V690.909C271.13 694.51 258.384 697.217 245.493 699.01C244.437 699.163 243.395 699.288 242.339 699.399C240.783 699.58 239.24 699.747 237.698 699.886L233.043 700.261H232.571L230.514 700.372H229.805C228.972 700.372 228.152 700.469 227.318 700.483H227.249C226.054 700.483 224.872 700.567 223.677 700.594H222.149C220.968 700.594 219.787 700.594 218.578 700.594H215.965H213.839C212.936 700.594 212.047 700.594 211.144 700.483C209.717 700.428 208.272 700.344 206.808 700.233L204.126 700.039C203.015 699.955 201.903 699.844 200.805 699.733C198.471 699.529 196.155 699.265 193.857 698.941L191.078 698.552L189.689 698.357C187.368 698.01 185.062 697.621 182.741 697.176C181.018 696.87 179.323 696.523 177.613 696.162V531.11Z" fill="#6C63FF"/>
<path opacity="0.1" d="M946.471 133.348H859.04V326.984H946.471V133.348Z" fill="#6C63FF"/>
<path opacity="0.1" d="M946.485 332.931V525.162H512.511V442.247H743.664V491.16H859.04V332.931H946.485Z" fill="#6C63FF"/>
<path opacity="0.1" d="M947.86 737.223C947.402 737.223 946.943 737.223 946.471 737.14V863.242C930.806 861.955 915.196 860.153 899.642 857.837C829.586 847.624 761.283 827.749 696.683 798.781C678.036 790.369 659.767 781.203 641.879 771.281C612.005 754.724 583.382 736.003 556.241 715.268C549.404 710.043 542.669 704.703 536.036 699.246C531.437 695.439 526.879 691.548 522.238 687.783C519.042 685.184 515.804 682.613 512.511 680.168V531.11H857.9C857.65 530.22 857.428 529.345 857.178 528.456C857.442 529.345 857.692 530.22 857.914 531.11H946.484V737.126C946.943 737.14 947.402 737.181 947.86 737.223Z" fill="#6C63FF"/>
<path opacity="0.1" d="M1174.51 118.925H1117.54V101.222H1143.07V48.488C1145.28 49.3032 1147.48 50.137 1149.68 50.9892V101.222H1174.5L1174.51 118.925Z" fill="#6C63FF"/>
<path opacity="0.1" d="M1311.79 326.997H1032.07C1032.09 327.004 1032.12 327.004 1032.15 326.997H1032.03H980.167V133.362H994.869V276.487H1062.04V191.724H1117.55V124.844H1174.52V191.765H1230.01V276.529H1311.8L1311.79 326.997Z" fill="#6C63FF"/>
<path opacity="0.1" d="M980.167 332.945V525.162H1311.8V332.945H980.167ZM1401.77 751.41L1402.25 599.254H1311.8V531.165H980.167V865.396C1007.35 866.527 1034.58 866.197 1061.73 864.409H1062.21C1075.18 863.576 1088.09 862.39 1100.93 860.852H1101.23C1169.79 852.871 1236.84 834.962 1300.25 807.688" fill="#6C63FF"/>
<path opacity="0.1" d="M946.484 187.18H899.642V247.89H946.484V187.18Z" fill="#6C63FF"/>
<path opacity="0.1" d="M946.484 313.018H899.642V326.997H946.484V313.018Z" fill="#6C63FF"/>
<path opacity="0.1" d="M946.484 332.931H899.642V373.714H946.484V332.931Z" fill="#6C63FF"/>
<path opacity="0.1" d="M946.484 438.857H899.642V499.567H946.484V438.857Z" fill="#6C63FF"/>
<path opacity="0.1" d="M946.484 564.695H899.642V625.405H946.484V564.695Z" fill="#6C63FF"/>
<path opacity="0.1" d="M946.484 737.126C946.943 737.126 947.401 737.126 947.874 737.223C947.415 737.223 946.957 737.223 946.484 737.14V751.244H899.642V690.534H946.484V737.126Z" fill="#6C63FF"/>
<path opacity="0.1" d="M946.484 816.359V863.242C930.81 861.955 915.196 860.153 899.642 857.837V816.359H946.484Z" fill="#6C63FF"/>
<path opacity="0.1" d="M713.261 520.702H512.511V525.162H713.261V520.702Z" fill="#6C63FF"/>
<path opacity="0.1" d="M713.261 531.096H512.511V548.187H713.261V531.096Z" fill="#6C63FF"/>
<path opacity="0.1" d="M713.261 604.214H512.511V631.7H713.261V604.214Z" fill="#6C63FF"/>
<path opacity="0.1" d="M713.261 687.727V715.212H556.241C549.404 710.006 542.669 704.661 536.036 699.177C531.423 695.384 526.865 691.493 522.238 687.727H713.261Z" fill="#6C63FF"/>
<path opacity="0.1" d="M713.261 771.226V798.781H696.683C678.035 790.369 659.767 781.203 641.879 771.281L713.261 771.226Z" fill="#6C63FF"/>
<path opacity="0.1" d="M1101.25 351.565H1061.73V391.084H1101.25V351.565Z" fill="#6C63FF"/>
<path opacity="0.1" d="M245.591 167.434H206.072V206.953H245.591V167.434Z" fill="#6C63FF"/>
<path opacity="0.1" d="M245.591 259.229H206.072V298.748H245.591V259.229Z" fill="#6C63FF"/>
<path opacity="0.1" d="M245.591 351.023H206.072V390.542H245.591V351.023Z" fill="#6C63FF"/>
<path opacity="0.1" d="M245.591 442.803H206.072V482.322H245.591V442.803Z" fill="#6C63FF"/>
<path opacity="0.1" d="M245.591 534.598H206.072V574.117H245.591V534.598Z" fill="#6C63FF"/>
<path opacity="0.1" d="M245.591 626.392H206.072V665.911H245.591V626.392Z" fill="#6C63FF"/>
<path opacity="0.1" d="M1101.25 449.042H1061.73V488.561H1101.25V449.042Z" fill="#6C63FF"/>
<path opacity="0.1" d="M1101.25 546.506H1061.73V586.025H1101.25V546.506Z" fill="#6C63FF"/>
<path opacity="0.1" d="M1101.25 643.984H1061.73V683.503H1101.25V643.984Z" fill="#6C63FF"/>
<path opacity="0.1" d="M1101.25 741.461H1061.73V780.98H1101.25V741.461Z" fill="#6C63FF"/>
<path opacity="0.1" d="M1061.73 864.41V838.925H1101.24V860.783L1061.73 864.41Z" fill="#6C63FF"/>
<path opacity="0.1" d="M8.69867 277.571V300.179H143.931V277.571H8.69867ZM22.1635 298.762H11.047V279.002H22.1635V298.762ZM35.6283 298.762H24.5119V279.002H35.6283V298.762ZM49.0654 298.762H37.9489V279.002H49.0654V298.762ZM62.5302 298.762H51.4137V279.002H62.5302V298.762ZM75.9811 298.762H64.8647V279.002H75.9811V298.762ZM89.446 298.762H78.3295V279.002H89.446V298.762ZM102.911 298.762H91.7943V279.002H102.911V298.762ZM116.362 298.762H105.245V279.002H116.362V298.762ZM129.813 298.762H118.696V279.002H129.813V298.762ZM143.277 298.762H132.161V279.002H143.277V298.762Z" fill="#6C63FF"/>
<path opacity="0.1" d="M8.69867 343.38V365.988H143.931V343.38H8.69867ZM22.1635 364.571H11.047V344.811H22.1635V364.571ZM35.6283 364.571H24.5119V344.811H35.6283V364.571ZM49.0654 364.571H37.9489V344.811H49.0654V364.571ZM62.5302 364.571H51.4137V344.811H62.5302V364.571ZM75.9811 364.571H64.8647V344.811H75.9811V364.571ZM89.446 364.571H78.3295V344.811H89.446V364.571ZM102.911 364.571H91.7943V344.811H102.911V364.571ZM116.362 364.571H105.245V344.811H116.362V364.571ZM129.813 364.571H118.696V344.811H129.813V364.571ZM143.277 364.571H132.161V344.811H143.277V364.571Z" fill="#6C63FF"/>
<path opacity="0.1" d="M8.69867 409.204V431.798H143.931V409.204H8.69867ZM22.1635 430.367H11.047V410.607H22.1635V430.367ZM35.6283 430.367H24.5119V410.607H35.6283V430.367ZM49.0654 430.367H37.9489V410.607H49.0654V430.367ZM62.5302 430.367H51.4137V410.607H62.5302V430.367ZM75.9811 430.367H64.8647V410.607H75.9811V430.367ZM89.446 430.367H78.3295V410.607H89.446V430.367ZM102.911 430.367H91.7943V410.607H102.911V430.367ZM116.362 430.367H105.245V410.607H116.362V430.367ZM129.813 430.367H118.696V410.607H129.813V430.367ZM143.277 430.367H132.161V410.607H143.277V430.367Z" fill="#6C63FF"/>
<path opacity="0.1" d="M8.69867 475.013V497.607H143.931V475.013H8.69867ZM22.1635 496.19H11.047V476.403H22.1635V496.19ZM35.6283 496.19H24.5119V476.403H35.6283V496.19ZM49.0654 496.19H37.9489V476.403H49.0654V496.19ZM62.5302 496.19H51.4137V476.403H62.5302V496.19ZM75.9811 496.19H64.8647V476.403H75.9811V496.19ZM89.446 496.19H78.3295V476.403H89.446V496.19ZM102.911 496.19H91.7943V476.403H102.911V496.19ZM116.362 496.19H105.245V476.403H116.362V496.19ZM129.813 496.19H118.696V476.403H129.813V496.19ZM143.277 496.19H132.161V476.403H143.277V496.19Z" fill="#6C63FF"/>
<path opacity="0.1" d="M9.35168 540.795C9.87972 542.935 10.505 545.047 11.1442 547.145V542.226H22.2607V561.972H16.2995C16.4662 562.444 16.6469 562.931 16.8414 563.361H143.986V540.795H9.35168ZM35.7533 561.972H24.6368V542.226H35.7533V561.972ZM49.1904 561.972H38.0739V542.226H49.1904V561.972ZM62.6552 561.972H51.5387V542.226H62.6552V561.972ZM76.1061 561.972H64.9896V542.226H76.1061V561.972ZM89.5709 561.972H78.4545V542.226H89.5709V561.972ZM103.036 561.972H91.9193V542.226H103.036V561.972ZM116.487 561.972H105.37V542.226H116.487V561.972ZM129.938 561.972H118.821V542.226H129.938V561.972ZM143.402 561.972H132.286V542.226H143.402V561.972Z" fill="#6C63FF"/>
<path opacity="0.1" d="M40.6724 606.604C41.0336 607.049 41.3671 607.549 41.7145 607.994H49.0653V617.485L51.4414 620.264V607.938H62.5579V627.865H57.9863C58.4309 628.323 58.8617 628.81 59.3758 629.254H143.903V606.604H40.6724ZM76.0505 627.865H64.9341V608.022H76.0505V627.865ZM89.5154 627.865H78.3989V608.022H89.5154V627.865ZM102.98 627.865H91.8637V608.022H102.98V627.865ZM116.431 627.865H105.315V608.022H116.431V627.865ZM129.882 627.865H118.766V608.022H129.882V627.865ZM143.347 627.865H132.23V608.022H143.347V627.865Z" fill="#6C63FF"/>
<path opacity="0.1" d="M114.861 672.414C116.139 673.137 117.432 673.804 118.724 674.512V673.817H129.84V680.084C130.646 680.432 131.411 680.807 132.203 681.168V673.817H143.319V685.851C143.53 685.946 143.749 686.025 143.972 686.087V672.414H114.861Z" fill="#6C63FF"/>
<path opacity="0.1" d="M946.471 737.126H947.86H946.471ZM857.164 528.456C857.428 529.345 857.664 530.234 857.9 531.11C857.692 530.234 857.442 529.345 857.164 528.456ZM192.773 118.925V124.844H254.845V118.897L192.773 118.925ZM946.484 737.126H947.874H946.484ZM857.164 528.456C857.428 529.345 857.664 530.234 857.9 531.11C857.692 530.234 857.442 529.345 857.164 528.456ZM946.471 737.126H947.86H946.471ZM857.164 528.456C857.428 529.345 857.664 530.234 857.9 531.11C857.692 530.234 857.442 529.345 857.164 528.456Z" fill="#6C63FF"/>
<path opacity="0.1" d="M853.701 932.358C799.886 932.358 756.261 925.351 756.261 916.708C756.261 908.065 799.886 901.058 853.701 901.058C907.515 901.058 951.14 908.065 951.14 916.708C951.14 925.351 907.515 932.358 853.701 932.358Z" fill="#7C8EC8"/>
<path d="M741.521 502.888C741.545 502.789 741.597 502.698 741.671 502.628C743.161 501.158 762.161 474.288 762.161 474.288C762.161 474.288 763.161 471.288 764.781 467.388C764.262 466.715 763.872 465.953 763.631 465.138C763.544 464.793 763.48 464.442 763.441 464.088C763.441 463.978 763.361 463.888 763.331 463.778C762.984 462.422 763.018 460.996 763.431 459.658C763.542 460.001 763.679 460.335 763.841 460.658C764.217 459.493 764.72 458.373 765.341 457.318C767.861 452.978 771.461 449.318 774.111 445.088C778.124 438.516 779.719 430.75 778.621 423.128C778.621 423.518 778.621 423.918 778.621 424.308C778.521 422.796 778.32 421.293 778.021 419.808C777.603 418.117 777.045 416.465 776.351 414.868C773.971 409.418 770.121 404.668 767.781 399.198C766.996 397.353 766.4 395.433 766.001 393.468C765.177 390.186 764.876 386.794 765.111 383.418C765.111 384.218 765.241 385.018 765.361 385.808C765.614 377.691 768.892 369.962 774.551 364.138C782.721 355.928 794.451 352.738 805.671 351.058C810.386 350.508 814.889 348.789 818.771 346.058C823.081 343.268 828.651 342.598 833.691 343.208C839.483 343.834 844.866 346.495 848.881 350.718C854.211 356.578 856.521 364.878 862.741 369.818C866.511 372.818 871.291 374.218 875.681 376.258C880.07 378.298 884.22 381.258 885.63 385.638C885.63 385.638 885.63 385.578 885.63 385.548V385.798L885.69 385.958C887.15 391.138 884.33 396.408 882.86 401.578C881.33 406.928 881.23 412.578 881.15 418.108C881.04 424.868 880.94 431.638 881.05 438.408C881.1 441.068 881.19 443.758 881.39 446.408C883.757 447.123 886.056 448.047 888.26 449.168C890.5 450.628 898.88 459.678 898.88 459.678L915.27 522.298L915.05 522.548L915.27 523.398L914.44 523.208C912.12 525.708 905.19 532.828 897.71 537.268L897.01 549.548C897.01 549.548 896.17 561.868 884.84 566.958C884.58 571.228 883.77 588.568 887.52 595.438C890.117 600.457 891.339 606.074 891.06 611.718C891.06 611.718 889.75 622.138 891.24 627.618C892.111 631.28 892.176 635.088 891.43 638.778V638.778C891.43 638.778 891.43 639.988 891.43 642.068C891.43 653.158 891.3 688.698 891.43 692.718C891.62 697.468 891.43 767.718 891.43 767.718C891.43 767.718 892.36 802.828 895.34 812.338C898.32 821.848 897.57 853.338 897.57 853.338C897.57 853.338 899.44 890.848 892.83 898.248C892.83 898.578 892.89 898.918 892.9 899.248C892.9 899.398 892.9 899.568 892.9 899.718C892.98 902.568 892.43 905.598 889.98 906.528C884.98 908.448 878.37 914.208 877.12 915.858C875.871 917.508 868.601 921.618 859.121 920.518C853.182 919.85 847.206 919.576 841.231 919.698V919.698C841.231 919.698 837.491 919.018 838.701 914.368C839.481 911.468 842.401 907.008 844.481 904.078C844.101 904.178 843.731 904.258 843.381 904.328L843.021 904.398H842.741C842.588 904.407 842.434 904.407 842.281 904.398H842.081C841.894 904.413 841.707 904.413 841.521 904.398V904.398C839.011 904.158 829.651 908.518 827.981 911.398C826.311 914.278 820.421 916.468 815.981 917.018C813.341 917.338 806.681 916.798 801.091 916.078C798.276 915.787 795.488 915.279 792.751 914.558C791.431 914.058 791.151 912.458 791.531 910.658C791.98 908.372 793.202 906.31 794.991 904.818C796.611 903.668 798.751 900.638 800.331 898.158L800.751 897.488C797.961 894.828 792.921 886.128 791.391 884.328C789.531 882.138 794.391 802.048 794.391 802.048V761.898L786.941 723.898L781.731 703.788L777.261 673.428C777.261 673.428 769.441 637.968 771.851 634.488C771.851 634.418 773.851 597.908 775.951 589.138C776.861 585.228 776.631 576.428 776.091 567.868C775.527 567.307 775.133 566.598 774.956 565.823C774.779 565.047 774.826 564.238 775.091 563.488C775.24 562.975 775.434 562.477 775.671 561.998C775.671 561.848 775.671 561.688 775.671 561.538C771.351 559.55 766.837 558.015 762.201 556.958C754.751 555.498 756.611 551.658 756.611 551.658C756.611 551.658 754.931 548.368 753.821 546.358C752.711 544.348 753.631 526.608 753.821 525.148C753.891 524.558 754.351 521.298 754.881 517.598C752.491 515.898 749.381 513.788 745.991 511.788C739.541 507.968 740.991 503.938 741.521 502.888ZM838.721 756.418C838.721 756.418 844.311 770.678 842.071 774.328C839.831 777.978 842.441 791.528 842.441 791.528L844.311 811.638C844.311 811.638 849.521 848.938 847.661 857.708C846.201 864.588 845.661 885.138 845.491 893.708C845.619 893.758 845.742 893.818 845.861 893.888L846.111 894.018C845.251 890.648 845.611 883.828 849.881 870.108L850.241 813.438C850.241 813.438 850.901 747.978 845.731 740.658C840.561 733.338 838.731 720.908 838.731 720.908C838.731 720.908 839.851 738.838 840.581 743.588C841.311 748.338 838.721 756.418 838.721 756.418ZM849.131 897.278C849.181 897.398 849.241 897.518 849.281 897.628L849.561 897.268C849.418 897.282 849.274 897.285 849.131 897.278V897.278Z" fill="url(#paint0_linear)"/>
<path d="M792.121 919.738C795.011 920.848 810.681 922.738 815.061 922.208C819.441 921.678 825.241 919.458 826.891 916.558C828.541 913.658 837.791 909.278 840.271 909.558C841.287 909.588 842.302 909.446 843.271 909.138C844.982 908.62 846.653 907.978 848.271 907.218C848.497 905.957 848.459 904.663 848.161 903.418C848.103 903.167 848.03 902.92 847.941 902.678C847.357 901.037 846.149 899.693 844.581 898.938L844.221 898.768C843.527 898.468 842.803 898.247 842.061 898.108C834.201 896.598 801.771 899.628 801.771 899.628C801.771 899.628 800.861 901.258 799.611 903.278C798.051 905.778 795.931 908.828 794.331 909.978C792.559 911.493 791.356 913.567 790.921 915.858C790.541 917.628 790.821 919.248 792.121 919.738Z" fill="white"/>
<path opacity="0.1" d="M792.121 919.738C795.011 920.848 810.671 922.738 815.051 922.208C819.431 921.678 825.231 919.448 826.891 916.558C828.551 913.668 837.781 909.278 840.261 909.558C842.741 909.838 848.261 907.218 848.261 907.218C848.261 907.218 849.121 903.218 846.621 900.488L841.621 904.038C841.621 904.038 828.241 908.188 825.761 912.038C823.281 915.888 818.761 918.038 812.231 918.428C807.351 918.748 796.141 916.848 790.891 915.898C790.541 917.628 790.811 919.248 792.121 919.738Z" fill="black"/>
<path d="M839.991 924.838C845.889 924.723 851.789 925 857.651 925.668C867.041 926.768 874.21 922.668 875.46 920.978C876.71 919.288 883.18 913.578 888.15 911.578C890.58 910.638 891.15 907.578 891.04 904.718C891.04 904.568 891.04 904.398 891.04 904.248C890.948 902.436 890.68 900.638 890.24 898.878L851.331 898.048L847.961 902.618L847.441 903.318L845.391 906.108C845.391 906.108 844.461 907.328 843.241 909.108C841.181 912.108 838.301 916.538 837.531 919.468C836.301 924.158 839.991 924.838 839.991 924.838Z" fill="white"/>
<path opacity="0.1" d="M839.991 924.838C845.889 924.723 851.789 925 857.651 925.668C867.031 926.768 874.21 922.668 875.45 920.978C876.69 919.288 883.18 913.528 888.15 911.598C890.58 910.658 891.15 907.598 891.04 904.738C888.26 905.388 882.42 907.048 880.13 909.938C877.13 913.798 871.761 920.288 864.131 920.698C857.971 921.028 842.971 919.928 837.471 919.488C836.291 924.158 839.991 924.838 839.991 924.838Z" fill="black"/>
<path opacity="0.1" d="M844.621 898.898C845.071 902.238 846.461 903.138 847.461 903.338C847.705 903.386 847.956 903.386 848.201 903.338C848.332 903.328 848.462 903.308 848.591 903.278C848.591 903.278 883.53 910.998 890.59 904.748C890.77 904.587 890.937 904.413 891.09 904.228C890.998 902.416 890.73 900.618 890.29 898.858L851.381 898.028L848.011 902.598C847.427 900.957 846.22 899.613 844.651 898.858L844.621 898.898Z" fill="black"/>
<path opacity="0.1" d="M799.621 903.238C800.401 904.098 801.051 904.588 801.461 904.418C803.301 903.678 818.381 901.108 823.171 903.318C827.961 905.528 844.171 903.678 844.171 903.678C844.171 903.678 844.171 901.758 844.261 898.678C843.567 898.378 842.843 898.157 842.101 898.018C834.241 896.508 801.811 899.538 801.811 899.538C801.811 899.538 800.861 901.218 799.621 903.238Z" fill="black"/>
<path d="M776.801 677.038L781.221 707.578L786.361 727.818L793.721 766.078V806.578C793.721 806.578 788.941 887.158 790.781 889.358C792.621 891.558 799.611 904.088 801.451 903.358C803.291 902.628 818.371 900.048 823.161 902.248C827.951 904.448 844.161 902.618 844.161 902.618C844.161 902.618 844.531 871.348 846.371 862.518C848.211 853.688 843.061 816.158 843.061 816.158L841.221 795.928C841.221 795.928 838.641 782.308 840.851 778.628C843.061 774.948 837.541 760.628 837.541 760.628C837.541 760.628 840.111 752.518 839.371 747.738C838.631 742.958 837.541 724.928 837.541 724.928C837.541 724.928 839.371 737.448 844.481 744.798C849.591 752.148 848.941 818.018 848.941 818.018L848.581 875.018C839.371 905.198 848.581 902.248 848.581 902.248C848.581 902.248 883.52 909.978 890.58 903.718C897.64 897.458 895.62 858.058 895.62 858.058C895.62 858.058 896.35 826.418 893.41 816.858C890.47 807.298 889.54 771.968 889.54 771.968C889.54 771.968 889.73 701.318 889.54 696.548C889.4 692.548 889.54 656.738 889.54 645.548C889.54 643.468 889.54 642.238 889.54 642.238L885.32 631.758L835.321 625.498H811.401C811.401 625.498 775.401 633.958 771.681 637.608C771.602 637.669 771.534 637.743 771.481 637.828C769.071 641.358 776.801 677.038 776.801 677.038Z" fill="#7C8EC8"/>
<path opacity="0.1" d="M837.511 837.458C837.511 837.458 826.511 863.948 821.321 865.788C816.131 867.628 837.511 837.458 837.511 837.458Z" fill="black"/>
<path opacity="0.1" d="M833.441 876.458C833.441 876.458 796.301 878.298 796.671 882.348C797.041 886.398 833.441 876.458 833.441 876.458Z" fill="black"/>
<path opacity="0.1" d="M883.13 865.868C881.66 867.258 854.801 869.868 857.011 872.408C859.221 874.948 880.92 879.888 880.92 879.888L883.13 865.868Z" fill="black"/>
<path opacity="0.1" d="M887.54 820.168C887.54 821.268 882.02 855.488 880.54 856.958C879.06 858.428 866.931 859.898 866.931 859.898L887.54 820.168Z" fill="black"/>
<path d="M847.491 352.428C852.761 358.318 855.041 366.668 861.18 371.648C864.91 374.648 869.63 376.078 873.97 378.118C878.31 380.158 882.61 383.268 883.9 387.888C885.34 393.088 882.56 398.398 881.1 403.598C879.59 408.978 879.5 414.598 879.41 420.228C879.31 427.038 879.2 433.848 879.32 440.658C879.5 451.268 880.38 462.368 886.01 471.358C865.68 477.828 844.061 478.708 822.741 479.538C818.644 479.83 814.528 479.726 810.451 479.228C806.918 478.524 803.423 477.639 799.981 476.578C793.175 474.777 786.161 473.879 779.121 473.908C776.051 473.908 772.921 474.098 769.961 473.298C767.001 472.498 764.151 470.448 763.351 467.488C762.641 464.828 763.681 461.998 765.041 459.608C767.521 455.248 771.041 451.608 773.701 447.308C776.416 442.766 778.027 437.65 778.404 432.371C778.781 427.093 777.913 421.8 775.871 416.918C773.511 411.428 769.711 406.648 767.391 401.148C765.015 395.243 764.383 388.78 765.57 382.526C766.758 376.272 769.715 370.491 774.091 365.868C782.161 357.608 793.741 354.408 804.821 352.708C809.486 352.157 813.937 350.437 817.761 347.708C822.011 344.908 827.521 344.228 832.501 344.848C838.246 345.492 843.567 348.182 847.491 352.428Z" fill="#3F3D56"/>
<g opacity="0.1">
<path opacity="0.1" d="M775.561 411.148C777.6 415.967 778.474 421.198 778.111 426.418C777.887 422.685 777.025 419.019 775.561 415.578C773.211 410.088 769.411 405.308 767.091 399.808C765.194 395.215 764.397 390.243 764.761 385.288C764.967 388.761 765.755 392.175 767.091 395.388C769.411 400.888 773.211 405.658 775.561 411.148Z" fill="black"/>
<path opacity="0.1" d="M879.11 418.868C879.05 422.788 878.99 426.718 878.98 430.638C878.98 425.238 879.03 419.848 879.11 414.458C879.19 408.868 879.29 403.208 880.8 397.818C881.8 394.398 883.28 390.928 883.8 387.478C884.69 392.378 882.16 397.348 880.8 402.238C879.29 407.578 879.19 413.278 879.11 418.868Z" fill="black"/>
<path opacity="0.1" d="M769.621 467.578C772.621 468.388 775.701 468.208 778.771 468.188C785.806 468.143 792.816 469.024 799.621 470.808C803.064 471.865 806.558 472.746 810.091 473.448C814.171 473.954 818.29 474.062 822.391 473.768C842.991 472.958 863.881 472.088 883.61 466.198C884.196 467.505 884.864 468.775 885.61 469.998C865.281 476.458 843.661 477.348 822.351 478.178C818.25 478.472 814.131 478.364 810.051 477.858C806.531 477.163 803.05 476.285 799.621 475.228C792.83 473.437 785.834 472.546 778.811 472.578C775.741 472.578 772.621 472.768 769.661 471.958C766.701 471.148 763.851 469.118 763.051 466.158C762.714 464.787 762.749 463.351 763.151 461.998C764.041 464.798 766.791 466.748 769.621 467.578Z" fill="black"/>
</g>
<path d="M799.241 455.728C799.981 457.388 803.101 471.728 803.841 473.198C804.581 474.668 808.621 498.198 808.991 499.518C809.361 500.838 835.621 493.998 835.621 493.998L851.431 480.748L867.68 464.578C867.68 464.578 868.16 449.988 856.191 445.308C855.377 444.988 854.541 444.728 853.691 444.528C839.171 441.038 840.631 396.888 840.631 396.888L810.831 409.758C810.831 409.758 816.351 435.518 816.161 440.488C816.111 442.158 814.801 443.198 813.091 443.828C810.447 444.58 807.694 444.878 804.951 444.708C804.951 444.708 798.501 454.078 799.241 455.728Z" fill="#FBBEBE"/>
<path d="M745.891 504.108L741.661 505.218C741.661 505.218 738.531 509.978 745.891 514.408C750.565 517.247 755.05 520.383 759.321 523.798L781.071 530.418L785.261 517.268L765.021 501.908L745.891 504.108Z" fill="#7C8EC8"/>
<path opacity="0.1" d="M745.891 504.108L741.661 505.218C741.661 505.218 738.531 509.978 745.891 514.408C750.565 517.247 755.05 520.383 759.321 523.798L781.071 530.418L785.261 517.268L765.021 501.908L745.891 504.108Z" fill="black"/>
<path d="M904.62 516.808L913.08 525.088C913.08 525.088 897.82 542.748 886.08 543.848C874.34 544.948 866.77 530.418 866.77 530.418L876.93 514.418L904.62 516.808Z" fill="#7C8EC8"/>
<path opacity="0.1" d="M904.62 516.808L913.08 525.088C913.08 525.088 897.82 542.748 886.08 543.848C874.34 544.948 866.77 530.418 866.77 530.418L876.93 514.418L904.62 516.808Z" fill="black"/>
<path opacity="0.1" d="M824.261 425.738C808.007 425.738 794.831 412.562 794.831 396.308C794.831 380.054 808.007 366.878 824.261 366.878C840.514 366.878 853.691 380.054 853.691 396.308C853.691 412.562 840.514 425.738 824.261 425.738Z" fill="black"/>
<path d="M824.261 423.528C808.007 423.528 794.831 410.352 794.831 394.098C794.831 377.844 808.007 364.668 824.261 364.668C840.514 364.668 853.691 377.844 853.691 394.098C853.691 410.352 840.514 423.528 824.261 423.528Z" fill="#FBBEBE"/>
<path opacity="0.1" d="M771.461 641.168C778.162 641.935 784.763 643.413 791.151 645.578C802.151 649.238 888.35 645.638 889.55 645.578C889.55 643.498 889.55 642.268 889.55 642.268L885.33 631.788L835.331 625.528H811.411C811.411 625.528 775.411 633.988 771.691 637.638C771.541 639.838 771.461 641.168 771.461 641.168Z" fill="black"/>
<path opacity="0.1" d="M799.241 455.728C799.981 457.388 803.101 471.728 803.841 473.198C804.581 474.668 808.621 498.198 808.991 499.518C809.361 500.838 835.621 493.998 835.621 493.998L851.431 480.748L867.68 464.578C867.68 464.578 868.16 449.988 856.191 445.308L826.471 479.478L813.091 443.828C810.447 444.58 807.694 444.878 804.951 444.708C804.951 444.708 798.501 454.078 799.241 455.728Z" fill="black"/>
<path d="M826.471 480.578L856.891 445.578C858.671 444.441 860.706 443.765 862.813 443.609C864.92 443.454 867.032 443.825 868.96 444.688C875.77 447.638 884.23 450.028 886.44 451.498C888.65 452.968 896.93 462.068 896.93 462.068L872.27 526.578L883.13 569.068C883.13 569.068 881.47 590.778 885.7 598.688C888.276 603.745 889.483 609.389 889.2 615.058C889.2 615.058 887.91 625.548 889.38 631.058C890.239 634.742 890.304 638.567 889.57 642.278C889.57 642.278 802.181 645.958 791.151 642.278C784.765 640.107 778.163 638.628 771.461 637.868C771.461 637.868 773.461 601.068 775.461 592.238C777.461 583.408 773.801 549.748 773.801 549.748L776.191 513.688L761.851 476.688C761.851 476.688 769.621 452.968 777.721 450.578C777.721 450.578 792.431 447.078 795.561 445.428C798.691 443.778 807.891 442.298 807.891 442.298L812.721 443.918L826.471 480.578Z" fill="#7C8EC8"/>
<path opacity="0.1" d="M784.029 512.47L848.041 508.118C849.66 508.007 851.063 509.231 851.173 510.851L858.045 611.918C858.156 613.538 856.932 614.94 855.312 615.051L791.3 619.403C789.68 619.513 788.277 618.29 788.167 616.67L781.295 515.603C781.185 513.983 782.409 512.58 784.029 512.47Z" fill="black"/>
<path d="M781.825 510.275L845.836 505.923C847.456 505.812 848.859 507.036 848.969 508.656L855.841 609.723C855.951 611.343 854.727 612.746 853.108 612.856L789.096 617.208C787.476 617.319 786.073 616.095 785.963 614.475L779.091 513.408C778.981 511.788 780.205 510.385 781.825 510.275Z" fill="#3F3D56"/>
<path d="M783.937 518.198L844.816 514.058L851.072 606.065L790.193 610.205L783.937 518.198Z" fill="white"/>
<path opacity="0.1" d="M789.396 541.682L839.125 538.201L840.096 552.061L790.366 555.542L789.396 541.682Z" fill="black"/>
<path opacity="0.1" d="M791.195 596.761L799.087 596.224L799.578 603.448L791.686 603.984L791.195 596.761Z" fill="black"/>
<path opacity="0.1" d="M798.979 579.328L839.376 576.581L839.867 583.804L799.471 586.551L798.979 579.328Z" fill="black"/>
<path d="M791.472 514.757L833.535 511.897L834.29 523.002L792.227 525.862L791.472 514.757Z" fill="#3F3D56"/>
<path opacity="0.1" d="M791.472 514.757L833.535 511.897L834.29 523.002L792.227 525.862L791.472 514.757Z" fill="black"/>
<path opacity="0.1" d="M822.791 639.138C822.791 639.138 823.161 693.598 837.511 724.868C837.511 724.868 820.211 683.658 820.211 682.008C820.211 680.358 810.651 663.058 813.211 657.908C815.771 652.758 822.791 639.138 822.791 639.138Z" fill="black"/>
<path opacity="0.1" d="M822.011 386.738C822.561 381.918 821.38 377.059 818.681 373.028C819.002 377.068 817.859 381.089 815.462 384.357C813.064 387.625 809.571 389.921 805.621 390.828C805.958 390.535 806.199 390.147 806.311 389.716C806.423 389.284 806.403 388.828 806.251 388.408C804.201 390.728 802.631 393.478 800.311 395.518C797.991 397.558 794.511 398.778 791.781 397.328C788.071 395.328 788.031 390.058 788.991 385.958C791.051 377.226 795.278 369.155 801.281 362.488C802.779 360.473 804.723 358.832 806.961 357.694C809.199 356.555 811.67 355.951 814.181 355.928C819.861 355.488 825.761 355.988 830.851 358.538C833.715 360.101 836.398 361.976 838.851 364.128L852.851 375.548C854.198 376.518 855.351 377.733 856.251 379.128C856.851 380.294 857.212 381.569 857.311 382.878C857.668 386.618 856.976 390.384 855.312 393.752C853.648 397.121 851.078 399.959 847.891 401.948C847.958 398.992 847.145 396.082 845.555 393.59C843.965 391.097 841.67 389.133 838.961 387.948C838.536 388.303 838.193 388.744 837.953 389.243C837.713 389.741 837.583 390.285 837.571 390.838L834.621 385.578C834.182 384.621 833.49 383.801 832.621 383.208C830.801 382.208 828.531 383.388 826.981 384.798C825.431 386.208 823.921 387.968 821.841 388.188L821.761 380.358" fill="black"/>
<path d="M822.011 385.638C822.562 380.814 821.382 375.952 818.681 371.918C819.581 379.918 813.551 388.178 805.611 389.718C805.948 389.428 806.189 389.042 806.302 388.611C806.414 388.181 806.393 387.726 806.241 387.308C804.191 389.628 802.621 392.368 800.301 394.418C797.981 396.468 794.501 397.678 791.771 396.218C788.061 394.218 788.021 388.948 788.981 384.858C791.041 376.126 795.268 368.055 801.271 361.388C803.134 359.117 805.481 357.293 808.141 356.048C810.066 355.336 812.09 354.924 814.141 354.828C819.821 354.388 825.721 354.878 830.811 357.428C833.673 358.998 836.356 360.876 838.811 363.028L852.811 374.448C854.16 375.416 855.313 376.63 856.211 378.028C856.813 379.194 857.173 380.469 857.271 381.778C857.627 385.516 856.935 389.28 855.271 392.647C853.607 396.014 851.037 398.851 847.851 400.838C847.915 397.882 847.101 394.974 845.512 392.482C843.922 389.989 841.628 388.025 838.921 386.838C838.498 387.194 838.155 387.636 837.916 388.134C837.676 388.632 837.545 389.175 837.531 389.728L834.591 384.488C834.155 383.529 833.463 382.709 832.591 382.118C830.771 381.118 828.501 382.298 826.951 383.708C825.401 385.118 823.891 386.868 821.811 387.098L821.731 379.258" fill="#3F3D56"/>
<path d="M808.071 571.268C810.641 569.968 853.141 576.598 853.141 576.598C853.141 576.598 860.141 574.598 877.06 571.818C893.98 569.038 895.06 552.498 895.06 552.498L896.91 519.388L891.2 514.388L866.741 530.388C866.741 530.388 866.361 538.478 866.741 539.938C866.981 540.938 867.621 542.128 867.561 542.938C867.542 543.157 867.452 543.364 867.303 543.527C867.155 543.69 866.957 543.799 866.741 543.838C865.081 544.258 842.461 547.918 842.461 547.918C842.461 547.918 790.031 544.328 776.961 561.988C775.925 563.284 775.142 564.763 774.651 566.348C771.411 578.418 805.741 572.418 808.071 571.268Z" fill="#FBBEBE"/>
<path opacity="0.1" d="M774.621 566.418C776.621 567.308 777.861 567.948 777.861 567.948C777.861 567.948 796.621 567.398 807.161 563.578C817.701 559.758 830.511 560.438 830.511 560.438C830.511 560.438 874.43 552.878 867.621 543.008C867.602 543.227 867.512 543.434 867.363 543.597C867.215 543.76 867.017 543.869 866.801 543.908C865.141 544.328 842.521 547.988 842.521 547.988C842.521 547.988 790.091 544.398 777.021 562.058C775.953 563.347 775.139 564.826 774.621 566.418V566.418Z" fill="black"/>
<path d="M756.381 508.158C756.381 508.158 753.801 526.368 753.621 527.848C753.441 529.328 752.511 547.158 753.621 549.188C754.731 551.218 756.381 554.518 756.381 554.518C756.381 554.518 754.541 558.378 761.901 559.858C769.261 561.338 777.901 565.738 777.901 565.738C777.901 565.738 796.671 565.188 807.151 561.328C817.631 557.468 830.511 558.198 830.511 558.198C830.511 558.198 886.26 548.628 862.341 536.948C838.421 525.268 821.501 541.088 821.501 541.088L794.831 539.438C794.831 539.438 784.891 533.358 782.131 533.918C780.182 534.166 778.203 533.847 776.431 532.998L776.241 513.678L756.381 508.158Z" fill="#FBBEBE"/>
<path opacity="0.1" d="M891.62 463.458L896.96 463.178L913.14 526.178C913.14 526.178 895.67 521.758 888.14 526.178C880.61 530.598 866.801 531.508 866.801 531.508L871.95 481.288L891.62 463.458Z" fill="black"/>
<path d="M891.62 462.348L896.96 462.068L913.14 525.068C913.14 525.068 895.67 520.648 888.14 525.068C880.61 529.488 866.801 530.398 866.801 530.398L871.95 480.178L891.62 462.348Z" fill="#7C8EC8"/>
<path opacity="0.1" d="M769.251 476.148L761.901 477.808C761.901 477.808 743.131 504.808 741.661 506.318C740.191 507.828 748.661 513.318 752.151 513.318C755.641 513.318 772.751 515.318 777.721 519.938C782.691 524.558 780.621 501.308 780.621 500.778C780.621 500.248 774.451 485.578 774.451 485.578L769.251 476.148Z" fill="black"/>
<path d="M769.251 475.048L761.901 476.698C761.901 476.698 743.131 503.748 741.661 505.218C740.191 506.688 748.661 512.218 752.151 512.218C755.641 512.218 772.751 514.218 777.721 518.838C782.691 523.458 780.621 500.208 780.621 499.678C780.621 499.148 774.411 484.428 774.411 484.428L769.251 475.048Z" fill="#7C8EC8"/>
<g opacity="0.1">
<path opacity="0.1" d="M818.731 372.008C818.774 371.241 818.757 370.472 818.681 369.708C820.203 371.992 821.251 374.56 821.761 377.258V379.578C821.761 379.578 821.761 379.528 821.761 379.498V380.048C821.761 381.668 821.761 383.298 821.811 384.918H821.951V385.668C821.951 385.408 821.951 385.158 822.001 384.898C824.001 384.578 825.431 382.898 826.921 381.558C828.411 380.218 830.741 378.938 832.561 379.968C833.433 380.559 834.125 381.379 834.561 382.338L837.531 387.578C837.544 387.026 837.675 386.484 837.914 385.987C838.154 385.491 838.497 385.051 838.921 384.698C841.63 385.883 843.925 387.847 845.515 390.34C847.105 392.832 847.918 395.742 847.851 398.698C850.583 396.986 852.868 394.648 854.519 391.878C856.169 389.108 857.136 385.986 857.341 382.768C857.514 386.361 856.727 389.935 855.058 393.122C853.39 396.309 850.902 398.993 847.851 400.898C847.915 397.942 847.101 395.034 845.512 392.542C843.922 390.049 841.628 388.085 838.921 386.898C838.498 387.254 838.155 387.696 837.916 388.194C837.676 388.692 837.545 389.235 837.531 389.788L834.591 384.548C834.155 383.589 833.463 382.769 832.591 382.178C830.771 381.178 828.501 382.358 826.951 383.768C825.401 385.178 823.891 386.928 821.811 387.158C821.811 384.598 821.784 382.044 821.731 379.498C821.24 376.826 820.22 374.279 818.731 372.008V372.008Z" fill="black"/>
<path opacity="0.1" d="M822.111 382.078C822.061 381.398 821.981 380.718 821.881 380.078L821.771 377.318C822.071 378.885 822.186 380.483 822.111 382.078Z" fill="black"/>
<path opacity="0.1" d="M791.771 394.008C794.501 395.468 797.981 394.248 800.301 392.208C802.621 390.168 804.191 387.418 806.241 385.098C806.393 385.518 806.414 385.973 806.301 386.405C806.189 386.837 805.948 387.225 805.611 387.518C805.811 387.518 806.001 387.418 806.191 387.368C804.191 389.668 802.601 392.368 800.301 394.368C798.001 396.368 794.501 397.628 791.771 396.168C789.041 394.708 788.261 391.288 788.501 387.958C788.681 390.578 789.621 392.848 791.771 394.008Z" fill="black"/>
<path opacity="0.1" d="M806.251 387.348C809.595 386.436 812.581 384.525 814.808 381.869C817.035 379.213 818.396 375.94 818.711 372.488C819.281 380.338 813.361 388.208 805.611 389.718C805.941 389.431 806.178 389.052 806.292 388.63C806.406 388.208 806.392 387.762 806.251 387.348V387.348Z" fill="black"/>
</g>
<path opacity="0.1" d="M648.44 944.276C594.626 944.276 551 937.27 551 928.626C551 919.983 594.626 912.976 648.44 912.976C702.255 912.976 745.88 919.983 745.88 928.626C745.88 937.27 702.255 944.276 648.44 944.276Z" fill="#7C8EC8"/>
<path d="M560.21 547.056C560.21 547.056 564.15 546.506 564.15 540.776C564.15 535.046 566.97 524.316 566.97 524.316C566.97 524.316 569.41 505.646 572.78 502.686C576.15 499.726 580.48 482.346 580.48 482.346C580.48 482.346 581.22 472.916 582.73 470.886C584.24 468.856 586.28 463.886 589.29 456.796C592.3 449.706 604.82 444.846 604.82 444.846C604.82 444.846 627.51 431.686 633.94 427.396C634.528 427.041 635.078 426.625 635.58 426.156C636.7 424.696 641.58 424.666 641.58 424.666C642.09 421.436 642.58 417.736 642.74 414.386C642.74 414.026 642.74 413.666 642.74 413.306C635.57 409.068 630.17 402.386 627.53 394.486C627.41 394.106 627.31 393.716 627.2 393.326C626.761 393.191 626.356 392.964 626.011 392.661C625.667 392.357 625.39 391.984 625.2 391.566C624.63 390.276 624.61 388.776 623.89 387.566C623.05 386.146 621.45 385.386 620.19 384.326C617.01 381.616 616.19 377.066 616.34 372.936C616.44 369.576 616.98 366.196 616.77 362.866C616.77 362.586 616.77 362.306 616.71 362.026C616.65 361.536 616.58 361.026 616.49 360.546C616 358.066 614.93 355.726 614.33 353.266C613.73 350.806 613.67 348.036 615.07 345.916C617.12 342.806 621.39 342.186 625.14 341.916C629.39 341.556 633.14 342.016 635.91 338.486C637.181 336.643 638.613 334.916 640.19 333.326C640.75 332.806 646.19 329.476 646.19 329.266C651.513 326.791 657.551 326.326 663.19 327.956C666.02 328.776 668.67 330.116 671.54 330.786C677.7 332.246 684.8 330.666 690.04 334.196C692.96 336.196 694.71 339.386 696.35 342.476C697.683 345.023 699.037 347.573 700.41 350.126C702.63 354.316 704.87 358.576 705.8 363.216C705.995 364.23 706.118 365.255 706.17 366.286V366.286C706.17 366.656 706.17 367.026 706.17 367.396C706.17 367.556 706.17 367.716 706.17 367.876C706.17 368.216 706.17 368.556 706.11 368.876C706.05 369.196 706.11 369.286 706.04 369.496C705.97 369.706 705.95 370.176 705.89 370.496C705.83 370.816 705.71 371.386 705.59 371.816C705.59 372.006 705.47 372.186 705.41 372.376C705.35 372.566 705.19 373.046 705.06 373.376C704.93 373.706 704.92 373.726 704.84 373.896C704.69 374.246 704.51 374.586 704.33 374.896C704.25 375.026 704.19 375.156 704.11 375.286C703.836 375.754 703.528 376.202 703.19 376.626C701.06 379.296 697.9 380.996 695.57 383.496C695.57 383.596 695.57 383.696 695.57 383.796C695.57 384.066 695.57 384.336 695.57 384.616C695.427 390.192 693.924 395.649 691.192 400.512C688.459 405.374 684.579 409.495 679.89 412.516C679.89 412.896 679.84 413.286 679.82 413.676C679.625 416.641 679.662 419.617 679.93 422.576C680.338 422.098 680.848 421.716 681.423 421.46C681.997 421.204 682.621 421.08 683.25 421.096C683.68 421.075 684.11 421.112 684.53 421.206L684.62 421.136V421.226C686.82 421.766 689.53 424.056 692.12 430.566C692.12 430.566 700 439.446 706 439.076C712 438.706 727.19 448.326 727.19 448.326C727.19 448.326 742.01 457.936 745.19 467.736C746.968 473.295 749.102 478.733 751.58 484.016L769.95 521.736L773.32 551.736C773.32 551.736 771.45 565.046 771.82 567.086C772.19 569.126 764.13 587.426 764.13 587.426C764.13 587.426 737.5 634.206 726.62 636.606L725.84 636.066C725.372 636.302 724.879 636.483 724.37 636.606L722.13 635.036C721.991 636.794 722.052 638.562 722.31 640.306C723.8 644.936 721.74 675.076 719.12 680.986C716.5 686.896 717.43 764.396 717.43 764.396L717.8 771.226C717.8 771.226 717.8 771.446 717.71 771.826L717.8 773.446L717.53 773.586C717.25 775.759 717.341 777.964 717.8 780.106C718.74 783.106 719.12 791.576 719.12 791.576C719.12 791.576 726.62 839.456 723.06 849.076C719.5 858.696 716.49 869.236 716.49 869.236C716.49 869.236 712.74 881.236 716.31 883.236C719.88 885.236 729.99 888.786 727.93 893.776C726.03 898.396 718.82 910.776 717.75 912.586L717.84 913.586L719.31 929.516C719.072 931.62 718.502 933.672 717.62 935.596C716.01 939.076 712.89 942.666 706.93 942.276C705.93 942.206 704.78 942.096 703.65 941.946C692.76 940.476 679.36 935.616 679.36 935.616C680.055 935.176 680.69 934.648 681.25 934.046V934.046C681.785 933.528 682.209 932.906 682.497 932.218C682.784 931.53 682.928 930.791 682.92 930.046C682.76 927.136 688.19 913.326 689.55 909.916L689.86 909.156C689.86 909.156 677.48 896.206 679.54 884.746C679.54 884.746 693.24 876.746 688.73 872.346C684.22 867.946 676.16 855.346 676.16 855.346C676.16 855.346 675.79 808.196 676.16 801.166C676.546 796.277 676.314 791.358 675.47 786.526C675.32 785.806 675.14 785.096 674.95 784.386C668.707 785.328 662.403 785.806 656.09 785.816C653.783 785.816 651.45 785.77 649.09 785.676C649.09 786.343 649.06 787.063 649 787.836C648.48 799.516 647.51 820.006 646.72 827.616C645.6 838.516 639.41 867.926 639.41 867.926C639.41 867.926 651.22 875.496 637.35 894.186C637.35 894.186 637.35 900.946 638.27 901.936C639.253 905.143 640.044 908.405 640.64 911.706C641.22 915.216 641.46 918.786 640.52 920.626C638.27 925.046 624.77 924.686 624.77 924.686C624.662 924.661 624.551 924.644 624.44 924.636C621.892 924.367 619.316 924.608 616.862 925.347C614.408 926.085 612.126 927.305 610.15 928.936C605.02 933.056 585.56 931.256 575.01 929.936C570.88 929.406 568.12 928.936 568.12 928.936C567.987 928.469 567.94 927.981 567.98 927.496V927.496C568.09 924.906 570.12 919.226 583.88 914.156C583.88 914.156 596.82 905.456 596.64 897.876H596.93H598.42C597.48 897.846 596.82 897.846 596.82 897.846C596.82 897.846 601.89 879.356 599.82 877.846C597.75 876.336 603.95 855.846 603.95 855.846C603.95 855.846 607.5 821.446 607.7 819.046C607.687 816.978 607.37 814.923 606.76 812.946L607.7 794.076C607.7 794.076 607.88 787.806 607.7 785.766C607.72 783.995 607.86 782.228 608.12 780.476C608.21 779.776 608.3 779.046 608.4 778.326C603.55 777.096 600.4 775.966 600.4 775.966L600.96 710.316C596.84 702.316 596.08 684.756 596.1 672.316C596.1 664.316 596.46 658.396 596.46 658.396L590.83 649.206C590.83 649.206 589.53 638.206 591.59 635.796C592.5 634.706 592.09 633.576 591.34 632.646C590.945 632.323 590.528 632.029 590.09 631.766C590.139 631.696 590.183 631.623 590.22 631.546C589.827 631.218 589.409 630.92 588.97 630.656C588.97 630.656 590.97 627.556 589.18 626.246C587.5 627.386 586 628.296 584.86 628.946C584.94 629.676 585.02 630.096 585.02 630.096L584.54 629.096C583.44 629.716 582.77 630.096 582.77 630.096C582.77 630.096 573.95 612.526 574.14 609.946C574.33 607.366 568.14 596.446 568.14 596.446C568.14 596.446 567.39 590.706 564.01 588.306C560.63 585.906 561.39 568.516 561.39 568.516C561.39 568.516 560.45 559.456 558.2 555.766C555.95 552.076 560.21 547.056 560.21 547.056ZM728.97 539.346L728.8 543.536C729.8 541.926 730.52 540.776 730.52 540.776L728.97 539.346Z" fill="url(#paint1_linear)"/>
<path d="M582.25 622.496L584.41 631.696C584.41 631.696 601.71 622.846 604.82 611.646C607.93 600.446 599.61 596.176 599.61 596.176L583.48 602.996L582.25 622.496Z" fill="white"/>
<path opacity="0.1" d="M582.25 622.496L584.41 631.696C584.41 631.696 601.71 622.846 604.82 611.646C607.93 600.446 599.61 596.176 599.61 596.176L583.48 602.996L582.25 622.496Z" fill="black"/>
<path d="M679.34 935.606C679.34 935.606 695.34 941.486 706.34 942.226C712.18 942.616 715.25 939.036 716.83 935.586C717.689 933.684 718.248 931.66 718.49 929.586L717.04 913.736L716.28 905.306L692.91 899.226L689.6 909.356L689.29 910.116C687.97 913.506 682.63 927.246 682.79 930.116C682.803 930.859 682.665 931.596 682.385 932.283C682.105 932.971 681.688 933.594 681.16 934.116C680.619 934.688 680.007 935.189 679.34 935.606V935.606Z" fill="white"/>
<path d="M570.1 927.546C570.059 928.031 570.106 928.519 570.24 928.986C570.24 928.986 604.46 934.686 611.46 928.986C613.428 927.321 615.721 926.085 618.194 925.357C620.667 924.628 623.264 924.424 625.82 924.756C625.82 924.756 639.06 925.116 641.27 920.756C642.19 918.926 641.95 915.376 641.38 911.886C640.798 908.604 640.023 905.358 639.06 902.166L638.53 901.746L635.38 899.216L598.5 898.126H598.22C598.4 905.666 585.71 914.316 585.71 914.316C572.2 919.316 570.21 924.966 570.1 927.546Z" fill="white"/>
<path opacity="0.1" d="M570.09 927.546C570.055 928.031 570.106 928.519 570.24 928.986C570.24 928.986 604.46 934.686 611.45 928.986C613.419 927.32 615.714 926.083 618.189 925.354C620.663 924.626 623.262 924.422 625.82 924.756C625.82 924.756 639.07 925.116 641.28 920.756C642.19 918.926 641.96 915.376 641.39 911.876C636.29 912.386 628.24 913.656 625.08 916.696C620.3 921.296 612.2 925.896 607.24 926.266C603.32 926.506 580.01 927.246 570.09 927.546Z" fill="black"/>
<path opacity="0.1" d="M679.34 935.606C679.34 935.606 695.34 941.486 706.34 942.226C712.18 942.616 715.25 939.036 716.83 935.586C712.75 936.956 707.1 938.386 704.13 937.076C700.61 935.506 688.13 934.506 681.13 934.076C680.602 934.662 680.001 935.176 679.34 935.606V935.606Z" fill="black"/>
<path d="M655.6 461.716C668.8 456.586 685.78 439.636 681.54 431.716C680.603 429.716 680.044 427.56 679.89 425.356C679.617 422.364 679.577 419.355 679.77 416.356C680.068 411.442 680.659 406.55 681.54 401.706C681.54 401.706 640.33 402.636 642.73 408.706C643.43 410.496 643.55 413.586 643.35 417.036C643.15 420.486 642.66 424.416 642.14 427.726C641.43 432.256 640.7 435.726 640.7 435.726C640.7 435.726 643.23 439.256 644.7 439.446C646.17 439.636 636.66 469.066 655.6 461.716Z" fill="#CF6F80"/>
<path opacity="0.1" d="M689.33 910.066L689.64 910.406C701.96 895.506 716.86 914.086 716.86 914.086L717.08 913.686L716.32 905.256L692.95 899.176L689.64 909.306L689.33 910.066Z" fill="black"/>
<path opacity="0.1" d="M598.2 899.176C598.2 899.176 607.2 898.996 612 903.236C616.8 907.476 640 904.146 639 903.236C638.708 902.774 638.53 902.25 638.48 901.706L635.33 899.176L598.45 898.086C598.31 898.786 598.2 899.176 598.2 899.176Z" fill="black"/>
<path d="M674 782.166C674.669 783.824 675.178 785.542 675.52 787.296C676.354 792.102 676.586 796.993 676.21 801.856C675.84 808.856 676.21 855.766 676.21 855.766C676.21 855.766 684.12 868.276 688.54 872.686C692.96 877.096 679.54 885.016 679.54 885.016C677.54 896.426 689.66 909.306 689.66 909.306C701.98 894.406 716.88 912.976 716.88 912.976C716.88 912.976 724.98 898.976 727 893.976C729.02 888.976 719.09 885.526 715.6 883.486C712.11 881.446 715.78 869.486 715.78 869.486C715.78 869.486 718.72 858.996 722.22 849.426C725.72 839.856 718.36 792.226 718.36 792.226C718.36 792.226 717.98 783.756 717.07 780.806C716.616 778.677 716.525 776.486 716.8 774.326C716.86 773.596 716.93 772.996 716.98 772.576C717.03 772.156 717.07 771.976 717.07 771.976L716.93 771.736L711.93 762.416C711.93 762.416 671.6 776.296 674 782.166Z" fill="#7C8EC8"/>
<path d="M598.2 898.076C598.2 898.076 607.2 897.886 612 902.076C616.8 906.266 640 902.996 639 902.076C638 901.156 638.09 894.356 638.09 894.356C651.7 875.766 640.09 868.226 640.09 868.226C640.09 868.226 646.16 838.976 647.26 828.126C648.03 820.556 648.98 800.126 649.49 788.556C649.71 783.556 649.84 780.106 649.84 780.106L638.82 777.916L637.39 777.636L610.57 772.246C610.57 772.246 609.83 777.246 609.33 781.336C609.077 783.082 608.94 784.843 608.92 786.606C609.09 788.606 608.92 794.876 608.92 794.876L608 813.636C608.594 815.606 608.903 817.65 608.92 819.706C608.73 822.106 605.24 856.316 605.24 856.316C605.24 856.316 599.17 876.736 601.24 878.206C603.31 879.676 598.2 898.076 598.2 898.076Z" fill="#7C8EC8"/>
<path opacity="0.1" d="M642.73 408.736C643.43 410.526 643.55 413.616 643.35 417.066C648.87 420.39 655.216 422.09 661.658 421.969C668.1 421.849 674.378 419.914 679.77 416.386C680.068 411.472 680.659 406.58 681.54 401.736C681.54 401.736 640.33 402.666 642.73 408.736Z" fill="black"/>
<path d="M626.82 386.656C626.711 395.729 630.211 404.474 636.55 410.966C642.889 417.459 651.547 421.168 660.62 421.276C669.693 421.385 678.438 417.885 684.93 411.546C691.423 405.208 695.131 396.549 695.24 387.476C695.24 387.196 695.24 386.936 695.24 386.656C695.24 377.581 691.635 368.877 685.217 362.459C678.8 356.042 670.096 352.436 661.02 352.436C651.944 352.436 643.24 356.042 636.823 362.459C630.405 368.877 626.8 377.581 626.8 386.656H626.82Z" fill="#CF6F80"/>
<path opacity="0.1" d="M655.6 461.716C668.8 456.586 685.78 439.636 681.54 431.716C680.603 429.716 680.044 427.56 679.89 425.356L661.82 440.216L650.64 449.386L642.14 427.756C641.43 432.286 640.7 435.756 640.7 435.756C640.7 435.756 643.23 439.286 644.7 439.476C646.17 439.666 636.66 469.066 655.6 461.716Z" fill="black"/>
<path d="M608.87 527.386L623.96 780.886L643.64 782.176L694.61 635.186L686.25 460.676L684.48 423.806L661.82 442.416L650.64 451.586L641.89 429.316L625.62 443.496L608.87 527.386Z" fill="#7C8EC8"/>
<path opacity="0.1" d="M674 782.166C674.669 783.824 675.178 785.542 675.52 787.296C689.854 785.089 703.775 780.744 716.82 774.406L717.09 774.266L717 772.656V771.816L712 762.496C712 762.496 671.6 776.296 674 782.166Z" fill="black"/>
<path opacity="0.1" d="M638.49 787.336C642.151 787.962 645.843 788.386 649.55 788.606C649.77 783.606 649.9 780.156 649.9 780.156L638.82 777.916L638.49 787.336Z" fill="black"/>
<path opacity="0.1" d="M609.29 781.336C616.4 783.186 627.39 785.266 637.21 783.966L637.35 777.636L610.53 772.246C610.53 772.246 609.82 777.206 609.29 781.336Z" fill="black"/>
<path opacity="0.1" d="M637.39 785.126C678.39 792.126 715.94 772.056 715.94 772.056L715.58 765.256C715.58 765.256 714.65 688.166 717.23 682.256C719.81 676.346 721.82 646.416 720.36 641.846C718.9 637.276 725.69 568.276 725.69 568.276L726.79 540.276L767.08 523.906L749.08 486.376C746.649 481.116 744.558 475.704 742.82 470.176C739.69 460.426 725.16 450.856 725.16 450.856C725.16 450.856 710.26 441.296 704.37 441.656C698.48 442.016 690.76 433.196 690.76 433.196C685.06 418.666 679.9 425.196 679.9 425.196C679.9 425.896 679.9 425.196 680.18 427.346C682.18 443.296 647.84 493.696 647.35 494.596L644.04 574.256L640.73 675.066L637.39 785.126Z" fill="black"/>
<path d="M638.49 785.126C679.49 792.126 717.05 772.056 717.05 772.056L716.68 765.256C716.68 765.256 715.76 688.166 718.34 682.256C720.92 676.346 722.93 646.386 721.46 641.776C719.99 637.166 726.82 568.236 726.82 568.236L727.93 540.236L768.21 523.866L750.21 486.336C747.785 481.077 745.694 475.669 743.95 470.146C740.82 460.426 726.24 450.846 726.24 450.846C726.24 450.846 711.34 441.286 705.46 441.646C699.58 442.006 691.82 433.196 691.82 433.196C686.11 418.666 679.82 425.196 679.82 425.196C679.82 425.896 680.42 426.196 680.1 427.346C675.7 442.816 648.86 493.696 648.37 494.596L645.06 574.256L641.82 675.116L638.49 785.126Z" fill="white"/>
<path opacity="0.1" d="M649.54 496.846C653.95 495.006 677.31 468.336 677.31 468.336V462.266C678.16 460.266 683.22 461.486 687.31 462.886L685.55 426.016L683.55 427.676C679.18 443.136 650.02 495.956 649.54 496.846Z" fill="black"/>
<path d="M648.43 494.646C652.85 492.796 676.21 466.136 676.21 466.136V460.056C677.06 458.056 682.11 459.276 686.21 460.676L684.48 423.846L682.48 425.496C678.07 440.936 648.92 493.746 648.43 494.646Z" fill="white"/>
<path opacity="0.1" d="M715.94 627.646C715.39 627.646 687.43 624.706 687.43 624.706C687.43 624.706 670.5 658.006 671.61 666.096C672.72 674.186 674.73 681.366 681.54 680.096C688.35 678.826 718.19 681.096 718.19 681.096L715.94 627.646Z" fill="black"/>
<path d="M717.05 625.436C716.49 625.436 688.53 622.496 688.53 622.496C688.53 622.496 671.61 655.846 672.71 663.846C673.81 671.846 675.84 679.116 682.64 677.846C689.44 676.576 719.3 678.846 719.3 678.846L717.05 625.436Z" fill="white"/>
<path d="M695.98 609.846C695.98 609.846 670.32 623.646 669.77 627.846C669.22 632.046 682.83 626.006 685.77 625.266C687.706 624.806 689.676 624.499 691.66 624.346L711.27 624.876L695.98 609.846Z" fill="#CF6F80"/>
<path opacity="0.1" d="M656.71 498.566C655.219 498.566 654.01 497.357 654.01 495.866C654.01 494.375 655.219 493.166 656.71 493.166C658.201 493.166 659.41 494.375 659.41 495.866C659.41 497.357 658.201 498.566 656.71 498.566Z" fill="black"/>
<path d="M656.71 497.466C655.219 497.466 654.01 496.257 654.01 494.766C654.01 493.275 655.219 492.066 656.71 492.066C658.201 492.066 659.41 493.275 659.41 494.766C659.41 496.257 658.201 497.466 656.71 497.466Z" fill="#3F3D56"/>
<path opacity="0.1" d="M651.74 615.446C650.249 615.446 649.04 614.237 649.04 612.746C649.04 611.255 650.249 610.046 651.74 610.046C653.231 610.046 654.44 611.255 654.44 612.746C654.44 614.237 653.231 615.446 651.74 615.446Z" fill="black"/>
<path d="M651.74 614.336C650.249 614.336 649.04 613.127 649.04 611.636C649.04 610.145 650.249 608.936 651.74 608.936C653.231 608.936 654.44 610.145 654.44 611.636C654.44 613.127 653.231 614.336 651.74 614.336Z" fill="#3F3D56"/>
<path opacity="0.1" d="M654.01 557.006C652.519 557.006 651.31 555.797 651.31 554.306C651.31 552.815 652.519 551.606 654.01 551.606C655.501 551.606 656.71 552.815 656.71 554.306C656.71 555.797 655.501 557.006 654.01 557.006Z" fill="black"/>
<path d="M654.01 555.906C652.519 555.906 651.31 554.697 651.31 553.206C651.31 551.715 652.519 550.506 654.01 550.506C655.501 550.506 656.71 551.715 656.71 553.206C656.71 554.697 655.501 555.906 654.01 555.906Z" fill="#3F3D56"/>
<path d="M591.77 623.786C591.77 623.786 589.93 626.546 591.77 627.786C593.61 629.026 591.59 632.206 591.59 632.206C591.59 632.206 596.18 634.886 594.16 637.316C592.14 639.746 593.42 650.656 593.42 650.656L598.94 659.846C598.94 659.846 598.61 665.736 598.59 673.696C598.59 686.116 599.32 703.576 603.36 711.536L602.82 776.846C602.82 776.846 622.15 783.916 638.33 781.756L640.73 676.956C640.73 676.956 637.23 617.526 635.94 606.126C635.185 600.208 634.877 594.241 635.02 588.276C635.02 588.276 635.57 570.436 637.42 562.166C637.42 562.166 639.42 526.286 639.62 516.356C639.71 511.606 639.46 497.746 639.18 484.566C638.87 470.156 638.52 456.566 638.52 456.566L642.17 427.676C642.17 427.676 638.52 427.316 637.42 428.776C636.927 429.237 636.391 429.648 635.82 430.006C629.51 434.266 607.25 447.366 607.25 447.366C607.25 447.366 594.93 452.266 591.98 459.286C589.03 466.306 586.98 471.286 585.55 473.286C584.12 475.286 583.34 484.686 583.34 484.686C583.34 484.686 579.1 501.986 575.79 504.916C572.48 507.846 570.1 526.446 570.1 526.446L599.35 549.446C599.35 549.446 601.92 587.706 602.47 589.186C603.02 590.666 591.77 623.786 591.77 623.786Z" fill="white"/>
<path d="M590.66 623.786C590.66 623.786 588.83 626.546 590.66 627.786C592.49 629.026 590.49 632.206 590.49 632.206C590.49 632.206 595.08 634.886 593.06 637.316C591.04 639.746 592.32 650.656 592.32 650.656L597.82 659.846C597.82 659.846 597.49 665.736 597.46 673.696C597.46 686.116 598.19 703.576 602.23 711.536L601.68 776.846C601.68 776.846 621.01 783.916 637.19 781.756L639.58 676.956C639.58 676.956 636.09 617.526 634.79 606.126C634.034 600.208 633.73 594.241 633.88 588.276C633.88 588.276 634.43 570.436 636.27 562.166C636.27 562.166 638.27 526.286 638.48 516.356C638.57 511.606 638.32 497.746 638.04 484.566C637.73 470.156 637.38 456.566 637.38 456.566L642.2 427.286C642.2 427.286 637.38 427.286 636.27 428.776C635.782 429.242 635.246 429.654 634.67 430.006V430.006C628.37 434.266 606.11 447.366 606.11 447.366C606.11 447.366 593.82 452.266 590.82 459.286C587.82 466.306 585.82 471.286 584.39 473.286C582.96 475.286 582.18 484.686 582.18 484.686C582.18 484.686 577.94 501.986 574.63 504.916C571.32 507.846 568.93 526.446 568.93 526.446L598.18 549.446C598.18 549.446 600.75 587.706 601.31 589.186C601.87 590.666 590.66 623.786 590.66 623.786Z" fill="white"/>
<path opacity="0.1" d="M625.69 465.056L623.04 472.756L636.95 486.756C636.64 472.346 636.29 458.756 636.29 458.756L641.11 429.486C641.11 429.486 636.29 429.486 635.18 430.976C634.692 431.442 634.156 431.854 633.58 432.206V432.206L621.76 466.296L625.69 465.056Z" fill="black"/>
<path d="M626.82 462.846L624.17 470.536L638.07 484.536C637.77 470.126 637.41 456.536 637.41 456.536L642.24 427.256C642.24 427.256 637.41 427.256 636.31 428.746C635.82 429.209 635.284 429.621 634.71 429.976V429.976L622.82 464.096L626.82 462.846Z" fill="white"/>
<path opacity="0.1" d="M626.82 386.656C626.816 390.259 627.383 393.841 628.5 397.266C628.688 397.298 628.881 397.291 629.067 397.246C629.252 397.202 629.427 397.12 629.58 397.006C629.85 388.006 634.27 379.546 639.72 372.356C641.253 370.188 643.108 368.266 645.22 366.656C647.359 365.051 650.018 364.299 652.68 364.546C655.68 364.956 658.33 366.996 661.36 367.256C665.36 367.586 668.94 364.816 672.91 364.686C674.524 364.7 676.117 365.058 677.581 365.738C679.046 366.417 680.348 367.402 681.4 368.626C683.488 371.088 685.038 373.96 685.95 377.056C687.522 381.755 688.379 386.663 688.49 391.616C688.54 394.416 688.81 397.926 691.41 398.946C691.213 396.889 691.447 394.812 692.096 392.85C692.745 390.887 693.795 389.081 695.18 387.546L695.24 387.476C695.24 387.196 695.24 386.936 695.24 386.656C695.24 377.581 691.635 368.877 685.217 362.459C678.8 356.042 670.096 352.436 661.02 352.436C651.944 352.436 643.24 356.042 636.823 362.459C630.405 368.877 626.8 377.581 626.8 386.656H626.82Z" fill="black"/>
<path d="M646.82 332.326C652.017 329.882 657.927 329.419 663.44 331.026C666.21 331.846 668.82 333.176 671.63 333.846C677.63 335.296 684.63 333.726 689.78 337.236C692.64 339.236 694.36 342.396 695.96 345.476L699.96 353.086C702.14 357.256 704.34 361.496 705.25 366.086C706.16 370.676 705.61 375.816 702.7 379.516C700.59 382.196 697.45 383.886 695.15 386.416C693.768 387.959 692.721 389.77 692.074 391.738C691.427 393.705 691.194 395.785 691.39 397.846C688.79 396.846 688.53 393.316 688.47 390.516C688.358 385.563 687.502 380.655 685.93 375.956C685.018 372.86 683.468 369.988 681.38 367.526C680.328 366.301 679.027 365.314 677.562 364.633C676.098 363.952 674.505 363.591 672.89 363.576C668.89 363.716 665.3 366.486 661.34 366.146C658.34 365.896 655.68 363.856 652.66 363.446C649.997 363.194 647.337 363.947 645.2 365.556C643.086 367.16 641.234 369.083 639.71 371.256C634.25 378.456 629.82 386.876 629.56 395.906C628.43 396.726 626.8 395.646 626.24 394.366C625.68 393.086 625.66 391.586 624.95 390.366C624.13 388.956 622.56 388.196 621.33 387.136C618.21 384.446 617.43 379.916 617.55 375.806C617.67 371.696 618.47 367.526 617.69 363.486C617.22 361.016 616.16 358.686 615.58 356.236C615 353.786 614.93 351.036 616.3 348.926C618.3 345.836 622.51 345.216 626.18 344.926C630.35 344.566 634.08 345.026 636.74 341.516C637.992 339.687 639.397 337.967 640.94 336.376C641.49 335.846 646.82 332.546 646.82 332.326Z" fill="#512E4E"/>
<path opacity="0.1" d="M755.54 543.206L765.98 523.896L769.29 553.696C769.29 553.696 767.45 566.936 767.82 568.966C768.19 570.996 760.28 589.196 760.28 589.196C760.28 589.196 734.15 635.746 723.48 638.136L687.48 612.376L697.04 600.236C697.04 600.236 700.35 598.946 701.18 600.236C701.18 600.236 718.94 569.696 720.77 567.496C722.6 565.296 722.25 560.866 722.25 560.866C722.25 560.866 725.01 557.926 724.09 555.166C723.17 552.406 729.37 542.846 729.37 542.846L723.67 537.516L755.54 543.206Z" fill="black"/>
<path d="M765.43 521.686L768.19 523.896L771.5 553.696C771.5 553.696 769.66 566.936 770.03 568.966C770.4 570.996 762.48 589.196 762.48 589.196C762.48 589.196 736.36 635.746 725.69 638.136L689.63 612.376L699.2 600.236C699.2 600.236 702.51 598.946 703.34 600.236C703.34 600.236 721.09 569.696 722.93 567.496C724.77 565.296 724.4 560.866 724.4 560.866C724.4 560.866 727.16 557.926 726.24 555.166C725.32 552.406 731.58 542.846 731.58 542.846L725.88 537.516L765.43 521.686Z" fill="white"/>
<path opacity="0.1" d="M594.16 638.466C592.16 640.896 593.42 651.816 593.42 651.816L598.94 660.946C598.94 660.946 598.61 666.846 598.59 674.806L607.87 677.706C608.71 677.968 609.6 678.025 610.467 677.873C611.334 677.721 612.151 677.364 612.852 676.832C613.553 676.299 614.116 675.607 614.495 674.813C614.874 674.019 615.057 673.146 615.03 672.266L613.42 620.666L591.77 628.936C593.61 630.216 591.59 633.356 591.59 633.356C591.59 633.356 596.18 636.036 594.16 638.466Z" fill="black"/>
<path d="M593.06 637.366C591.06 639.786 592.32 650.706 592.32 650.706L597.82 659.846C597.82 659.846 597.49 665.736 597.46 673.696L606.91 676.646C607.731 676.903 608.601 676.961 609.448 676.813C610.295 676.665 611.095 676.317 611.78 675.797C612.465 675.278 613.016 674.601 613.387 673.825C613.757 673.049 613.937 672.196 613.91 671.336L612.3 619.556L590.66 627.846C592.51 629.126 590.49 632.266 590.49 632.266C590.49 632.266 595.08 634.936 593.06 637.366Z" fill="white"/>
<path d="M585.88 612.746C585.88 612.746 587.35 622.136 591.03 622.686C594.71 623.236 596.36 637.876 600.03 637.366C603.7 636.856 601.27 623.746 601.14 621.206C601.01 618.666 605.14 608.146 602.06 605.756C598.98 603.366 589.18 605.756 589.18 605.756L585.88 612.746Z" fill="#CF6F80"/>
<path opacity="0.1" d="M578.1 540.446L571.17 526.446C571.17 526.446 568.4 537.116 568.4 542.816C568.4 548.516 564.54 549.076 564.54 549.076C564.54 549.076 560.31 554.076 562.54 557.726C564.77 561.376 565.66 570.416 565.66 570.416C565.66 570.416 564.93 587.706 568.24 590.096C571.55 592.486 572.29 598.196 572.29 598.196C572.29 598.196 578.36 609.046 578.17 611.626C577.98 614.206 586.63 631.676 586.63 631.676C586.63 631.676 582.4 609.966 607.05 600.586C607.05 600.586 607.24 593.226 605.4 591.206C603.56 589.186 600.69 588.206 602.49 578.046C604.29 567.886 603.01 555.636 603.01 553.186C603.01 550.736 597.49 535.466 597.49 535.466L578.1 540.446Z" fill="black"/>
<path d="M575.02 524.446L568.96 526.446C568.96 526.446 566.19 537.116 566.19 542.816C566.19 548.516 562.33 549.076 562.33 549.076C562.33 549.076 558.1 554.076 560.33 557.726C562.56 561.376 563.46 570.416 563.46 570.416C563.46 570.416 562.72 587.706 566.03 590.096C569.34 592.486 570.03 598.196 570.03 598.196C570.03 598.196 576.1 609.046 575.91 611.626C575.72 614.206 584.38 631.676 584.38 631.676C584.38 631.676 580.15 609.966 604.8 600.586C604.8 600.586 604.98 593.226 603.14 591.206C601.3 589.186 598.43 588.206 600.23 578.046C602.03 567.886 600.75 555.636 600.75 553.186C600.75 550.736 595.23 535.466 595.23 535.466L575.02 524.446Z" fill="white"/>
<path opacity="0.1" d="M708.9 887.316C708.9 887.316 699.24 881.246 692.9 885.656C686.56 890.066 708.9 887.316 708.9 887.316Z" fill="black"/>
<path opacity="0.1" d="M633.82 868.546C633.82 868.546 625.27 867.446 618.09 875.176C610.91 882.906 633.82 868.546 633.82 868.546Z" fill="black"/>
<g opacity="0.1">
<path opacity="0.1" d="M621.33 384.936C622.56 386.006 624.14 386.756 624.96 388.166C625.66 389.376 625.68 390.876 626.24 392.166C626.8 393.456 628.43 394.526 629.57 393.706C629.83 384.706 634.26 376.256 639.71 369.056C641.234 366.886 643.086 364.967 645.2 363.366C647.339 361.753 650.003 360.997 652.67 361.246C655.67 361.656 658.31 363.696 661.34 363.956C665.34 364.286 668.93 361.516 672.9 361.386C674.513 361.398 676.105 361.756 677.568 362.436C679.03 363.116 680.331 364.101 681.38 365.326C683.468 367.788 685.017 370.66 685.93 373.756C687.502 378.455 688.358 383.363 688.47 388.316C688.53 391.106 688.79 394.586 691.37 395.626C691.31 396.368 691.31 397.114 691.37 397.856C688.76 396.856 688.5 393.326 688.44 390.526C688.328 385.573 687.472 380.665 685.9 375.966C684.988 372.87 683.438 369.998 681.35 367.536C680.3 366.311 679 365.325 677.537 364.644C676.075 363.963 674.483 363.602 672.87 363.586C668.87 363.726 665.27 366.496 661.31 366.156C658.31 365.906 655.65 363.866 652.64 363.456C649.974 363.205 647.31 363.957 645.17 365.566C643.056 367.17 641.204 369.093 639.68 371.266C634.23 378.466 629.8 386.886 629.54 395.916C628.4 396.736 626.77 395.656 626.21 394.376C625.65 393.096 625.63 391.596 624.93 390.376C624.11 388.966 622.53 388.206 621.3 387.146C618.18 384.456 617.4 379.926 617.52 375.816C617.52 375.686 617.52 375.566 617.52 375.436C617.72 379.016 618.67 382.646 621.33 384.936Z" fill="black"/>
<path opacity="0.1" d="M695.16 384.236C697.45 381.706 700.59 380.006 702.7 377.326C704.482 374.961 705.498 372.106 705.61 369.146C705.924 372.847 704.89 376.537 702.7 379.536C700.59 382.216 697.45 383.906 695.16 386.436C692.948 388.91 691.619 392.047 691.38 395.356C691.23 393.344 691.487 391.322 692.136 389.411C692.786 387.5 693.814 385.74 695.16 384.236Z" fill="black"/>
<path opacity="0.1" d="M615.58 354.036C616.17 356.486 617.22 358.816 617.7 361.286C617.988 362.956 618.092 364.653 618.01 366.346C617.977 365.39 617.874 364.437 617.7 363.496C617.22 361.026 616.17 358.696 615.58 356.246C615.241 354.894 615.13 353.495 615.25 352.106C615.315 352.756 615.425 353.401 615.58 354.036V354.036Z" fill="black"/>
</g>
<path opacity="0.1" d="M417.24 900.96C471.055 900.96 514.68 893.953 514.68 885.31C514.68 876.667 471.055 869.66 417.24 869.66C363.425 869.66 319.8 876.667 319.8 885.31C319.8 893.953 363.425 900.96 417.24 900.96Z" fill="#7C8EC8"/>
<path d="M420.38 585.5H414.11V726.67H420.38V585.5Z" fill="#535461"/>
<path d="M459.79 726.25L459.39 732.61L458.84 741.61L458.61 745.35L458.05 754.35L457.81 758.09L457.26 767.09L450.93 869.16C450.66 873.552 448.725 877.675 445.52 880.689C442.314 883.703 438.08 885.381 433.68 885.38H400.81C396.398 885.382 392.153 883.695 388.945 880.666C385.737 877.637 383.81 873.495 383.56 869.09L377.23 767.02L376.68 758.02L376.45 754.28L375.88 745.28L375.65 741.54L375.1 732.54L374.7 726.18C374.631 724.961 374.81 723.741 375.228 722.593C375.645 721.446 376.292 720.395 377.128 719.506C377.964 718.616 378.973 717.906 380.093 717.418C381.212 716.931 382.419 716.676 383.64 716.67H450.86C452.086 716.677 453.299 716.935 454.422 717.427C455.545 717.919 456.556 718.636 457.392 719.533C458.228 720.43 458.872 721.489 459.285 722.644C459.697 723.799 459.869 725.026 459.79 726.25V726.25Z" fill="#3F3D56"/>
<path d="M459.39 732.6L458.83 741.58H375.65L375.09 732.6H459.39Z" fill="#9D9CB5"/>
<path d="M458.6 745.32L458.05 754.3H376.44L375.88 745.32H458.6Z" fill="#9D9CB5"/>
<path d="M457.81 758.05L457.26 767.02H377.23L376.67 758.05H457.81Z" fill="#9D9CB5"/>
<path d="M365.56 638.42C402.08 664.84 417.29 706.16 417.29 706.16C417.29 706.16 373.29 704.65 336.76 678.23C300.23 651.81 285 610.52 285 610.52C285 610.52 329 612 365.56 638.42Z" fill="#7C8EC8"/>
<path d="M285 610.52C285 610.52 330.67 635.87 345.32 656.86C359.97 677.85 417.25 706.18 417.25 706.18" stroke="#535461" stroke-width="2" stroke-miterlimit="10"/>
<path d="M389.09 585.2C408.97 599.57 417.25 622.06 417.25 622.06C417.25 622.06 393.25 621.24 373.42 606.87C353.59 592.5 345.26 570 345.26 570C345.26 570 369.22 570.82 389.09 585.2Z" fill="#7C8EC8"/>
<path d="M345.26 570C345.26 570 370.12 583.8 378.1 595.22C386.08 606.64 417.25 622.06 417.25 622.06" stroke="#535461" stroke-width="2" stroke-miterlimit="10"/>
<path d="M446.13 620.92C423.3 646.01 418.47 678.8 418.47 678.8C418.47 678.8 450.66 670.9 473.47 645.8C496.28 620.7 501.13 587.92 501.13 587.92C501.13 587.92 468.96 595.83 446.13 620.92Z" fill="#7C8EC8"/>
<path d="M501.15 587.93C501.15 587.93 471.41 613.65 463.85 631.37C456.29 649.09 418.47 678.8 418.47 678.8" stroke="#535461" stroke-width="2" stroke-miterlimit="10"/>
<defs>
<linearGradient id="paint0_linear" x1="828.141" y1="920.698" x2="828.141" y2="343.048" gradientUnits="userSpaceOnUse">
<stop stop-color="#808080" stop-opacity="0.25"/>
<stop offset="0.54" stop-color="#808080" stop-opacity="0.12"/>
<stop offset="1" stop-color="#808080" stop-opacity="0.1"/>
</linearGradient>
<linearGradient id="paint1_linear" x1="-188751" y1="541433" x2="-188751" y2="162811" gradientUnits="userSpaceOnUse">
<stop stop-color="#808080" stop-opacity="0.25"/>
<stop offset="0.54" stop-color="#808080" stop-opacity="0.12"/>
<stop offset="1" stop-color="#808080" stop-opacity="0.1"/>
</linearGradient>
</defs>
</svg>
