<svg width="1246" height="887" viewBox="0 0 1246 887" fill="none" xmlns="http://www.w3.org/2000/svg">
<path opacity="0.1" d="M2.39183 385.194H117.974V542.746H10.8429C10.5696 544.375 10.2962 545.992 9.98871 547.621H117.974V674.661C117.792 674.661 117.609 674.524 117.438 674.456C114.401 673.249 111.364 671.969 108.327 670.618C107.678 670.322 107.04 670.014 106.379 669.729C103.342 668.294 100.305 666.776 97.2674 665.173C96.2082 664.615 95.149 664.035 94.1125 663.442C77.2509 654.034 61.9259 642.104 48.6679 628.066C48.2693 627.69 47.9048 627.28 47.5289 626.927C45.6838 624.923 43.8729 622.895 42.1189 620.822C41.4583 620.059 40.8204 619.285 40.1712 618.544C38.0983 616.016 36.0937 613.396 34.1575 610.765C33.8614 610.367 33.588 609.979 33.3033 609.626C25.3715 598.65 18.7939 586.757 13.7131 574.205C13.5537 573.829 13.4056 573.419 13.2575 573.066C11.6858 569.079 10.2621 565.036 9.03198 560.913C8.50805 559.193 7.99553 557.496 7.56272 555.708C7.40327 555.195 7.27798 554.671 7.1413 554.159C0.740331 528.931 0 502.712 0 476.618C0 473.581 0 470.544 0 467.506C0.091117 456.853 0.216405 446.212 0.37586 435.581C0.436605 432.848 0.493554 430.103 0.546706 427.347C0.706161 420.369 0.933952 413.375 1.23008 406.367C1.29842 404.431 1.38954 402.483 1.49205 400.558C1.53761 399.442 1.59456 398.326 1.66289 397.21C1.86791 393.178 2.11088 389.172 2.39183 385.194Z" fill="#6C63FF"/>
<path opacity="0.1" d="M117.974 209.771H54.5676C64.8793 193.648 76.1407 178.154 88.2923 163.369C97.7229 151.797 107.655 140.522 117.974 129.656V209.771Z" fill="#6C63FF"/>
<path opacity="0.1" d="M117.974 214.623V380.319H2.75623C2.75623 379.841 2.82456 379.351 2.87012 378.872C2.97263 377.563 3.07513 376.264 3.18903 374.954C3.30292 373.428 3.45099 371.902 3.59906 370.399C3.74712 368.895 3.89518 367.073 4.07742 365.421C4.25965 363.77 4.40772 362.095 4.58996 360.444C4.77219 358.793 4.95442 357.141 5.15944 355.501C5.36445 353.861 5.54668 352.198 5.77447 350.558C5.94531 349.202 6.11616 347.836 6.30978 346.469C6.57175 344.544 6.8451 342.619 7.12984 340.706C7.12984 340.41 7.22096 340.125 7.26652 339.84C9.34812 325.834 12.1768 311.949 15.7404 298.245C19.4827 283.872 24.2598 269.788 30.0344 256.104C36.1704 241.766 43.3579 227.901 51.538 214.623H117.974Z" fill="#6C63FF"/>
<path opacity="0.1" d="M145.582 385.194V542.746H392.464V385.194H145.582ZM145.582 547.621V682.93C146.995 683.215 148.384 683.499 149.785 683.739C151.664 684.103 153.555 684.433 155.48 684.718L156.619 684.878C157.371 685.003 158.134 685.105 158.897 685.196C160.799 685.47 162.701 685.675 164.592 685.857C165.48 685.948 166.403 686.017 167.302 686.096L169.5 686.256C170.696 686.347 171.881 686.415 173.065 686.461C173.794 686.461 174.523 686.518 175.264 686.54C176.004 686.563 176.403 686.54 176.995 686.54H179.148C180.127 686.54 181.107 686.54 182.075 686.54H183.328C184.307 686.54 185.287 686.54 186.255 686.449H186.312C186.995 686.449 187.667 686.449 188.35 686.37C188.544 686.381 188.738 686.381 188.931 686.37C189.501 686.37 190.07 686.37 190.617 686.301C190.746 686.291 190.875 686.291 191.004 686.301C192.268 686.222 193.544 686.119 194.831 686.005C196.118 685.891 197.337 685.755 198.624 685.618L201.209 685.299C211.774 683.82 222.222 681.597 232.474 678.647C255.515 672.224 278.032 663.237 301.062 656.665C330.812 648.18 363.705 644 392.453 654.331V547.621H145.582ZM392.464 209.771V0.0191991C365.438 -0.278152 338.484 2.87957 312.258 9.41564C249.74 25.1219 193.601 59.1883 145.582 102.697V209.759H158.008V214.623H145.582V380.319H392.464V214.623H208.84V209.748L392.464 209.771ZM709.642 138.916C694.175 138.369 678.799 133.483 664.881 125.909C638.298 111.455 617.045 89.1089 593.309 70.2704C543.992 31.0104 482.829 7.30856 420.084 1.43151V209.771H772.49L773.367 208.848L709.642 138.916ZM741.75 133.221L775.793 170.59V123.392C764.335 124.838 754.358 128.198 741.75 133.175V133.221ZM775.793 716.529V547.621H703.196C703.014 546.904 702.809 546.175 702.581 545.446C702.797 546.175 702.991 546.904 703.184 547.621H420.084V669.763C422.772 671.757 425.425 673.864 428.056 675.982C430.896 678.306 433.717 680.656 436.519 683.032L439.344 685.367C440.699 686.506 442.077 687.645 443.444 688.727C446.185 690.937 448.945 693.124 451.724 695.288C453.114 696.381 454.511 697.455 455.916 698.511C478.162 715.513 501.627 730.858 526.121 744.422C531.611 747.486 537.158 750.436 542.739 753.318C546.452 755.231 550.191 757.107 553.957 758.944C559.607 761.701 565.302 764.358 571.042 766.917C623.965 790.673 679.928 806.972 737.331 815.346C750.072 817.221 762.87 818.702 775.725 819.788V716.507H776.864L775.793 716.529ZM420.084 214.623V380.319H775.793V214.623H420.084ZM420.084 385.171V542.746H775.793V385.194L420.084 385.171ZM803.402 123.164V175.898L846.842 128.209C832.445 125.833 817.965 124.151 803.402 123.164ZM803.402 385.194V542.746H1149.36V385.194H803.402ZM1148.14 729.024L1149.36 547.621H803.402V821.621C825.686 822.548 848.004 822.278 870.259 820.813H870.646C881.276 820.129 891.857 819.157 902.389 817.897H902.628C958.831 811.355 1013.78 796.676 1065.76 774.32L1148.14 729.024ZM1216.11 411.071C1214.79 408.034 1213.44 404.996 1212.06 401.959C1209.49 396.264 1206.78 390.729 1203.98 385.205H1176.98V542.746H1245.22C1245.16 498.122 1233.86 452.563 1216.11 411.071V411.071ZM1176.98 547.621V703.659C1196.2 685.242 1212.45 664.16 1224.13 640.059C1238.2 611.027 1244.64 579.615 1245.17 547.61L1176.98 547.621ZM1176.98 339.282V380.285H1201.45C1194.03 366.19 1185.86 352.503 1176.98 339.282V339.282ZM942.355 154.087C940.556 153.392 938.745 152.697 936.934 152.037C917.839 144.98 898.326 139.114 878.505 134.474L812.012 207.436L810.714 208.837L811.568 209.759H1048.22C1015.26 187.078 979.723 168.39 942.355 154.087V154.087ZM1055.17 214.623H808.254L803.402 219.053V380.319H845.942H1149.36V302.186C1121.93 269.007 1090.26 239.569 1055.17 214.623V214.623Z" fill="#6C63FF"/>
<path opacity="0.1" d="M117.974 298.211V380.319H2.75623C2.75623 379.841 2.82456 379.351 2.87012 378.872C2.97263 377.563 3.07513 376.264 3.18903 374.954C3.30292 373.428 3.45099 371.902 3.59906 370.399C3.74712 368.895 3.89518 367.073 4.07742 365.421C4.25965 363.77 4.40772 362.095 4.58996 360.444C4.77219 358.792 4.95442 357.141 5.15944 355.501C5.36445 353.861 5.54668 352.198 5.77447 350.558C5.94531 349.202 6.11616 347.836 6.30978 346.469C6.57175 344.544 6.8451 342.619 7.12984 340.706C7.12984 340.41 7.22096 340.125 7.26652 339.84C9.34812 325.834 12.1768 311.949 15.7404 298.245L117.974 298.211Z" fill="#6C63FF"/>
<path opacity="0.1" d="M2.39183 385.194H117.974V542.746H10.8429C10.5696 544.375 10.2962 545.992 9.98871 547.621H117.974V674.661C117.792 674.661 117.609 674.524 117.438 674.456C114.401 673.249 111.364 671.969 108.327 670.618C107.678 670.322 107.04 670.014 106.379 669.729C103.342 668.294 100.305 666.776 97.2674 665.173C96.2082 664.615 95.149 664.035 94.1125 663.442C77.2509 654.034 61.9259 642.104 48.6679 628.066C48.2693 627.69 47.9048 627.28 47.5289 626.927C45.6838 624.923 43.8729 622.895 42.1189 620.822C41.4583 620.059 40.8204 619.285 40.1712 618.544C38.0983 616.016 36.0937 613.396 34.1575 610.765C33.8614 610.367 33.588 609.979 33.3033 609.626C25.3715 598.65 18.7939 586.757 13.7131 574.205C13.5537 573.829 13.4056 573.419 13.2575 573.066C11.6858 569.079 10.2621 565.036 9.03198 560.913C8.50805 559.193 7.99553 557.496 7.56272 555.708C7.40327 555.195 7.27798 554.671 7.1413 554.159C0.740331 528.931 0 502.712 0 476.618C0 473.581 0 470.544 0 467.506C0.091117 456.853 0.216405 446.212 0.37586 435.581C0.436605 432.848 0.493554 430.103 0.546706 427.347C0.706161 420.369 0.933952 413.375 1.23008 406.367C1.29842 404.431 1.38954 402.483 1.49205 400.558C1.53761 399.442 1.59456 398.326 1.66289 397.21C1.86791 393.178 2.11088 389.172 2.39183 385.194Z" fill="#6C63FF"/>
<path opacity="0.1" d="M232.485 238.359V380.319H145.571V238.359H157.963V190.294H208.829V238.359H232.485Z" fill="#6C63FF"/>
<path opacity="0.1" d="M232.474 385.182H145.571V542.735H232.474V385.182Z" fill="#6C63FF"/>
<path opacity="0.1" d="M145.582 547.621H232.485V678.602C222.234 681.553 211.786 683.772 201.221 685.242C200.355 685.367 199.501 685.47 198.635 685.561C197.36 685.709 196.095 685.846 194.831 685.96L191.016 686.267H190.628L188.943 686.358H188.362C187.678 686.358 187.006 686.438 186.323 686.449H186.266C185.287 686.449 184.318 686.518 183.339 686.541H182.086C181.118 686.541 180.15 686.541 179.159 686.541H177.018H175.275C174.535 686.541 173.806 686.541 173.065 686.449C171.896 686.404 170.712 686.336 169.512 686.244L167.314 686.085C166.403 686.017 165.491 685.925 164.592 685.834C162.678 685.667 160.78 685.451 158.897 685.185L156.619 684.866L155.48 684.707C153.578 684.422 151.687 684.103 149.785 683.739C148.373 683.488 146.983 683.203 145.582 682.907V547.621Z" fill="#6C63FF"/>
<path opacity="0.1" d="M775.782 221.593H704.118V380.308H775.782V221.593Z" fill="#6C63FF"/>
<path opacity="0.1" d="M775.793 385.182V542.746H420.084V474.785H609.55V514.876H704.118V385.182H775.793Z" fill="#6C63FF"/>
<path opacity="0.1" d="M776.921 716.564C776.545 716.564 776.169 716.564 775.782 716.495V819.856C762.942 818.801 750.148 817.324 737.399 815.426C679.976 807.054 623.991 790.764 571.042 767.02C555.757 760.125 540.783 752.612 526.121 744.48C501.635 730.908 478.174 715.563 455.927 698.568C450.323 694.286 444.803 689.908 439.366 685.436C435.596 682.315 431.86 679.126 428.056 676.039C425.437 673.909 422.783 671.802 420.084 669.798V547.621H703.184C702.979 546.892 702.797 546.175 702.592 545.446C702.808 546.175 703.013 546.892 703.196 547.621H775.793V716.484C776.169 716.495 776.545 716.529 776.921 716.564Z" fill="#6C63FF"/>
<path opacity="0.1" d="M962.697 209.771H916V195.26H936.922V152.037C938.737 152.705 940.544 153.388 942.344 154.087V195.26H962.686L962.697 209.771Z" fill="#6C63FF"/>
<path opacity="0.1" d="M1075.22 380.319H845.942C845.964 380.324 845.988 380.324 846.01 380.319H845.908H803.402V221.604H815.452V338.918H870.509V269.441H916.011V214.623H962.708V269.475H1008.19V338.952H1075.23L1075.22 380.319Z" fill="#6C63FF"/>
<path opacity="0.1" d="M803.402 385.194V542.746H1075.23V385.194H803.402ZM1148.97 728.192L1149.36 603.476H1075.23V547.667H803.402V821.621C825.686 822.548 848.003 822.278 870.259 820.813H870.646C881.276 820.129 891.857 819.157 902.389 817.897H902.628C958.831 811.355 1013.78 796.676 1065.76 774.32" fill="#6C63FF"/>
<path opacity="0.1" d="M1181.77 547.621H1245.17C1244.62 579.615 1238.2 611.039 1224.13 640.059C1212.45 664.171 1196.2 685.254 1176.98 703.671V603.442H1181.77V547.621Z" fill="#6C63FF"/>
<path opacity="0.1" d="M1245.22 542.747H1181.77V411.071H1216.1C1233.86 452.563 1245.16 498.122 1245.22 542.747Z" fill="#6C63FF"/>
<path opacity="0.1" d="M775.793 265.717H737.399V315.478H775.793V265.717Z" fill="#6C63FF">
    <animate attributeName="fill" dur="2000ms" from="#6C63FF" to="#fff2ab" fill="freeze" begin='0.5s' /> 
    <animate attributeName="opacity" dur="2000ms" from="0.1" to="0.35" fill="freeze" begin='0.5s' /> 
</path>
<path opacity="0.1" d="M775.793 368.861H737.399V380.319H775.793V368.861Z" fill="#6C63FF">
    <animate attributeName="fill" dur="1500ms" from="#6C63FF" to="#fff2ab" fill="freeze" begin='2.5s' /> 
    <animate attributeName="opacity" dur="1500ms" from="0.1" to="0.55" fill="freeze" begin='2.5s' /> 
</path>
<path opacity="0.1" d="M775.793 385.182H737.399V418.611H775.793V385.182Z" fill="#6C63FF">
    <animate attributeName="fill" dur="1500ms" from="#6C63FF" to="#fff2ab" fill="freeze" begin='2.5s' /> 
    <animate attributeName="opacity" dur="1500ms" from="0.1" to="0.55" fill="freeze" begin='2.5s' /> 
</path>
<path opacity="0.1" d="M775.793 472.005H737.399V521.767H775.793V472.005Z" fill="#6C63FF"/>
<path opacity="0.1" d="M775.793 575.15H737.399V624.911H775.793V575.15Z" fill="#6C63FF">
    <animate attributeName="fill" dur="1500ms" from="#6C63FF" to="#EEDD82" fill="freeze" begin='1.5s' /> 
    <animate attributeName="opacity" dur="1500ms" from="0.1" to="0.55" fill="freeze" begin='1.5s' /> 
</path>
<path opacity="0.1" d="M775.793 716.484C776.169 716.484 776.545 716.484 776.932 716.564C776.556 716.564 776.18 716.564 775.793 716.495V728.056H737.399V678.294H775.793V716.484Z" fill="#6C63FF"/>
<path opacity="0.1" d="M775.793 781.428V819.856C762.946 818.801 750.147 817.324 737.399 815.426V781.428H775.793Z" fill="#6C63FF">
    <animate attributeName="fill" dur="1500ms" from="#6C63FF" to="#EEDD82" fill="freeze" begin='4s' /> 
    <animate attributeName="opacity" dur="1500ms" from="0.1" to="0.35" fill="freeze" begin='4s' /> 
</path>
<path opacity="0.1" d="M584.63 539.09H420.084V542.746H584.63V539.09Z" fill="#6C63FF"/>
<path opacity="0.1" d="M584.63 547.61H420.084V561.619H584.63V547.61Z" fill="#6C63FF"/>
<path opacity="0.1" d="M584.63 607.542H420.084V630.071H584.63V607.542Z" fill="#6C63FF"/>
<path opacity="0.1" d="M584.63 675.994V698.522H455.927C450.323 694.255 444.803 689.874 439.366 685.379C435.585 682.269 431.849 679.08 428.056 675.994H584.63Z" fill="#6C63FF"/>
<path opacity="0.1" d="M584.63 744.434V767.02H571.042C555.757 760.125 540.783 752.612 526.121 744.48L584.63 744.434Z" fill="#6C63FF"/>
<path opacity="0.1" d="M902.651 400.456H870.259V432.848H902.651V400.456Z" fill="#6C63FF"/>
<path opacity="0.1" id='left-window-1' d="M201.3 249.532H168.908V281.924H201.3V249.532Z" fill="#6C63FF"> 
    <animate attributeName="fill" dur="2200ms" from="#6C63FF" to="#EEDD82" fill="freeze" d="left-window-1-start" begin='1s' /> 
    <animate attributeName="opacity" dur="2200ms" from="0.1" to="0.45" fill="freeze" begin='1s' /> 
</path>
<path opacity="0.1" id='left-window-2' d="M201.3 324.772H168.908V357.164H201.3V324.772Z" fill="#6C63FF"/>
<path opacity="0.1" id='left-window-3' d="M201.3 400.012H168.908V432.404H201.3V400.012Z" fill="#6C63FF">
    <animate attributeName="fill" dur="2000ms" from="#6C63FF" to="#EEDD82" fill="freeze" d="left-window-3-start" begin='3.5s' /> 
    <animate attributeName="opacity" dur="2000ms" from="0.1" to="0.35" fill="freeze" begin='3.5s' /> 
</path>
<path opacity="0.1" id='left-window-4' d="M201.3 475.24H168.908V507.632H201.3V475.24Z" fill="#6C63FF">
    <animate attributeName="fill" dur="1500ms" from="#6C63FF" to="#EEDD82" fill="freeze" d="left-window-4-start" begin='0.5s' /> 
    <animate attributeName="opacity" dur="1500ms" from="0.1" to="0.45" fill="freeze" begin='0.5s' /> 
</path>
<path opacity="0.1" id='left-window-5' d="M201.3 550.48H168.908V582.872H201.3V550.48Z" fill="#6C63FF"/>
<path opacity="0.1" id='left-window-6' d="M201.3 625.72H168.908V658.112H201.3V625.72Z" fill="#6C63FF">
    <animate attributeName="fill" dur="1500ms" from="#6C63FF" to="#fff2ab" fill="freeze" d="left-window-6-start" begin='3s' /> 
    <animate attributeName="opacity" dur="1500ms" from="0.1" to="0.35" fill="freeze" begin='3s' /> 
</path>
<path opacity="0.1" d="M1026.31 400.456H993.916V432.848H1026.31V400.456Z" fill="#6C63FF"/>
<path opacity="0.1" d="M902.651 480.354H870.259V512.746H902.651V480.354Z" fill="#6C63FF">
    <animate attributeName="fill" dur="2000ms" from="#6C63FF" to="#EEDD82" fill="freeze" d="left-window-6-start" begin='2.5s' /> 
    <animate attributeName="opacity" dur="2000ms" from="0.1" to="0.35" fill="freeze" begin='2.5s' /> 
</path>
<path opacity="0.1" d="M1026.31 480.354H993.916V512.746H1026.31V480.354Z" fill="#6C63FF"/>
<path opacity="0.1" d="M902.651 560.241H870.259V592.633H902.651V560.241Z" fill="#6C63FF">
    <animate attributeName="fill" dur="1500ms" from="#6C63FF" to="#fff2ab" fill="freeze" d="left-window-6-start" begin='3.5s' /> 
    <animate attributeName="opacity" dur="1500ms" from="0.1" to="0.35" fill="freeze" begin='3.5s' /> 
</path>
<path opacity="0.1" d="M1026.31 560.241H993.916V592.633H1026.31V560.241Z" fill="#6C63FF"/>
<path opacity="0.1" d="M902.651 640.139H870.259V672.531H902.651V640.139Z" fill="#6C63FF">
    <animate attributeName="fill" dur="1750ms" from="#6C63FF" to="#EEDD82" fill="freeze" d="left-window-6-start" begin='1.5s' /> 
    <animate attributeName="opacity" dur="1750ms" from="0.1" to="0.55" fill="freeze" begin='1.5s' /> 
</path>
<path opacity="0.1" d="M1026.31 640.139H993.916V672.531H1026.31V640.139Z" fill="#6C63FF"/>
<path opacity="0.1" d="M902.651 720.037H870.259V752.43H902.651V720.037Z" fill="#6C63FF"/>
<path opacity="0.1" d="M1026.31 720.037H993.916V752.43H1026.31V720.037Z" fill="#6C63FF"/>
<path opacity="0.1" d="M870.259 820.813V799.924H902.64V817.84L870.259 820.813Z" fill="#6C63FF">
    <animate attributeName="fill" dur="1750ms" from="#6C63FF" to="#EEDD82" fill="freeze" d="left-window-6-start" begin='3.5s' /> 
    <animate attributeName="opacity" dur="1750ms" from="0.1" to="0.35" fill="freeze" begin='3.5s' /> 
</path>
<path opacity="0.1" d="M7.12988 339.806V358.337H117.974V339.806H7.12988ZM18.1664 357.175H9.05473V340.979H18.1664V357.175ZM29.203 357.175H20.0913V340.979H29.203V357.175ZM40.2168 357.175H31.1051V340.979H40.2168V357.175ZM51.2533 357.175H42.1416V340.979H51.2533V357.175ZM62.2785 357.175H53.1668V340.979H62.2785V357.175ZM73.315 357.175H64.2033V340.979H73.315V357.175ZM84.3516 357.175H75.2399V340.979H84.3516V357.175ZM95.3767 357.175H86.265V340.979H95.3767V357.175ZM106.402 357.175H97.2902V340.979H106.402V357.175ZM117.438 357.175H108.327V340.979H117.438V357.175Z" fill="#6C63FF"/>
<path opacity="0.1" d="M7.12988 393.747V412.278H117.974V393.747H7.12988ZM18.1664 411.116H9.05473V394.92H18.1664V411.116ZM29.203 411.116H20.0913V394.92H29.203V411.116ZM40.2168 411.116H31.1051V394.92H40.2168V411.116ZM51.2533 411.116H42.1416V394.92H51.2533V411.116ZM62.2785 411.116H53.1668V394.92H62.2785V411.116ZM73.315 411.116H64.2033V394.92H73.315V411.116ZM84.3516 411.116H75.2399V394.92H84.3516V411.116ZM95.3767 411.116H86.265V394.92H95.3767V411.116ZM106.402 411.116H97.2902V394.92H106.402V411.116ZM117.438 411.116H108.327V394.92H117.438V411.116Z" fill="#6C63FF"/>
<path opacity="0.1" d="M7.12988 447.7V466.22H117.974V447.7H7.12988ZM18.1664 465.046H9.05473V448.85H18.1664V465.046ZM29.203 465.046H20.0913V448.85H29.203V465.046ZM40.2168 465.046H31.1051V448.85H40.2168V465.046ZM51.2533 465.046H42.1416V448.85H51.2533V465.046ZM62.2785 465.046H53.1668V448.85H62.2785V465.046ZM73.315 465.046H64.2033V448.85H73.315V465.046ZM84.3516 465.046H75.2399V448.85H84.3516V465.046ZM95.3767 465.046H86.265V448.85H95.3767V465.046ZM106.402 465.046H97.2902V448.85H106.402V465.046ZM117.438 465.046H108.327V448.85H117.438V465.046Z" fill="#6C63FF"/>
<path opacity="0.1" d="M7.12988 501.641V520.161H117.974V501.641H7.12988ZM18.1664 518.999H9.05473V502.78H18.1664V518.999ZM29.203 518.999H20.0913V502.78H29.203V518.999ZM40.2168 518.999H31.1051V502.78H40.2168V518.999ZM51.2533 518.999H42.1416V502.78H51.2533V518.999ZM62.2785 518.999H53.1668V502.78H62.2785V518.999ZM73.315 518.999H64.2033V502.78H73.315V518.999ZM84.3516 518.999H75.2399V502.78H84.3516V518.999ZM95.3767 518.999H86.265V502.78H95.3767V518.999ZM106.402 518.999H97.2902V502.78H106.402V518.999ZM117.438 518.999H108.327V502.78H117.438V518.999Z" fill="#6C63FF"/>
<path opacity="0.1" d="M7.66516 555.56C8.09797 557.314 8.6105 559.045 9.13442 560.765V556.733H18.2461V572.918H13.36C13.4967 573.305 13.6447 573.704 13.8042 574.057H118.019V555.56H7.66516ZM29.3055 572.918H20.1938V556.733H29.3055V572.918ZM40.3192 572.918H31.2075V556.733H40.3192V572.918ZM51.3558 572.918H42.2441V556.733H51.3558V572.918ZM62.3809 572.918H53.2692V556.733H62.3809V572.918ZM73.4175 572.918H64.3058V556.733H73.4175V572.918ZM84.454 572.918H75.3423V556.733H84.454V572.918ZM95.4792 572.918H86.3675V556.733H95.4792V572.918ZM106.504 572.918H97.3927V556.733H106.504V572.918ZM117.541 572.918H108.429V556.733H117.541V572.918Z" fill="#6C63FF"/>
<path opacity="0.1" d="M33.3374 609.501C33.6335 609.865 33.9069 610.275 34.1916 610.64H40.2167V618.419L42.1644 620.697V610.594H51.2761V626.927H47.5289C47.8933 627.303 48.2464 627.702 48.6678 628.066H117.951V609.501H33.3374ZM62.3354 626.927H53.2237V610.663H62.3354V626.927ZM73.3719 626.927H64.2602V610.663H73.3719V626.927ZM84.4085 626.927H75.2968V610.663H84.4085V626.927ZM95.4337 626.927H86.322V610.663H95.4337V626.927ZM106.459 626.927H97.3471V610.663H106.459V626.927ZM117.495 626.927H108.384V610.663H117.495V626.927Z" fill="#6C63FF"/>
<path opacity="0.1" d="M94.1466 663.442C95.1945 664.035 96.2537 664.581 97.3129 665.162V664.593H106.425V669.729C107.085 670.014 107.712 670.322 108.361 670.618V664.593H117.473V674.456C117.646 674.534 117.825 674.599 118.008 674.65V663.442H94.1466Z" fill="#6C63FF"/>
<path opacity="0.1" d="M775.782 716.484H776.921H775.782ZM702.581 545.446C702.797 546.175 702.991 546.904 703.184 547.621C703.013 546.904 702.808 546.175 702.581 545.446ZM158.008 209.771V214.623H208.886V209.748L158.008 209.771ZM775.793 716.484H776.932H775.793ZM702.581 545.446C702.797 546.175 702.991 546.904 703.184 547.621C703.013 546.904 702.808 546.175 702.581 545.446ZM775.782 716.484H776.921H775.782ZM702.581 545.446C702.797 546.175 702.991 546.904 703.184 547.621C703.013 546.904 702.808 546.175 702.581 545.446Z" fill="#6C63FF"/>
<path opacity="0.1" d="M699.742 876.507C655.633 876.507 619.875 870.764 619.875 863.68C619.875 856.595 655.633 850.852 699.742 850.852C743.851 850.852 779.609 856.595 779.609 863.68C779.609 870.764 743.851 876.507 699.742 876.507Z" fill="#7C8EC8"/>
<path d="M607.794 524.489C607.813 524.408 607.856 524.334 607.916 524.276C609.138 523.071 624.711 501.047 624.711 501.047C624.711 501.047 625.531 498.588 626.859 495.391C626.433 494.84 626.113 494.215 625.916 493.547C625.844 493.264 625.792 492.976 625.76 492.686C625.76 492.596 625.695 492.522 625.67 492.432C625.386 491.32 625.414 490.152 625.752 489.055C625.843 489.336 625.956 489.61 626.088 489.875C626.397 488.92 626.809 488.002 627.318 487.137C629.383 483.58 632.334 480.58 634.506 477.113C637.795 471.726 639.102 465.36 638.203 459.113C638.203 459.433 638.203 459.761 638.203 460.08C638.12 458.841 637.956 457.609 637.711 456.392C637.368 455.006 636.91 453.652 636.342 452.343C634.391 447.876 631.236 443.982 629.318 439.499C628.674 437.986 628.185 436.413 627.859 434.802C627.183 432.112 626.937 429.332 627.129 426.564C627.129 427.22 627.236 427.876 627.334 428.523C627.541 421.87 630.228 415.535 634.867 410.761C641.563 404.032 651.178 401.417 660.374 400.04C664.239 399.589 667.93 398.181 671.112 395.942C674.644 393.655 679.21 393.106 683.341 393.606C688.089 394.119 692.501 396.301 695.791 399.762C700.16 404.565 702.054 411.368 707.152 415.417C710.242 417.876 714.16 419.024 717.758 420.696C721.356 422.368 724.758 424.794 725.914 428.384C725.914 428.384 725.914 428.335 725.914 428.31V428.515L725.963 428.646C727.16 432.892 724.848 437.212 723.643 441.449C722.389 445.835 722.307 450.466 722.242 454.998C722.151 460.539 722.07 466.088 722.16 471.637C722.201 473.818 722.274 476.023 722.438 478.195C724.378 478.781 726.263 479.538 728.069 480.457C729.905 481.654 736.774 489.072 736.774 489.072L750.208 540.398L750.028 540.603L750.208 541.3L749.528 541.144C747.626 543.194 741.946 549.029 735.815 552.669L735.241 562.734C735.241 562.734 734.553 572.832 725.266 577.004C725.053 580.504 724.389 594.717 727.463 600.348C729.591 604.462 730.592 609.066 730.364 613.692C730.364 613.692 729.291 622.233 730.512 626.725C731.225 629.727 731.279 632.848 730.668 635.872V635.872C730.668 635.872 730.668 636.864 730.668 638.569C730.668 647.659 730.561 676.79 730.668 680.085C730.823 683.978 730.668 741.559 730.668 741.559C730.668 741.559 731.43 770.337 733.873 778.132C736.315 785.927 735.7 811.738 735.7 811.738C735.7 811.738 737.233 842.483 731.815 848.549C731.815 848.819 731.864 849.098 731.873 849.368C731.873 849.491 731.873 849.631 731.873 849.754C731.938 852.09 731.487 854.573 729.479 855.336C725.381 856.909 719.963 861.631 718.938 862.983C717.914 864.335 711.955 867.704 704.185 866.803C699.317 866.255 694.418 866.031 689.521 866.13V866.13C689.521 866.13 686.456 865.573 687.447 861.762C688.087 859.385 690.48 855.729 692.185 853.327C691.873 853.409 691.57 853.475 691.283 853.532L690.988 853.59H690.759C690.633 853.597 690.507 853.597 690.382 853.59H690.218C690.065 853.602 689.912 853.602 689.759 853.59V853.59C687.701 853.393 680.03 856.967 678.661 859.327C677.292 861.688 672.464 863.483 668.825 863.934C666.661 864.196 661.202 863.753 656.62 863.163C654.313 862.925 652.027 862.508 649.784 861.917C648.702 861.508 648.473 860.196 648.784 858.721C649.152 856.847 650.154 855.157 651.62 853.934C652.948 852.991 654.702 850.508 655.997 848.475L656.342 847.926C654.055 845.745 649.924 838.614 648.67 837.139C647.145 835.344 651.129 769.698 651.129 769.698V736.788L645.022 705.641L640.752 689.158L637.088 664.273C637.088 664.273 630.678 635.208 632.654 632.356C632.654 632.298 634.293 602.373 636.014 595.184C636.76 591.98 636.572 584.767 636.129 577.75C635.666 577.291 635.344 576.71 635.199 576.074C635.054 575.438 635.092 574.775 635.309 574.16C635.432 573.74 635.591 573.331 635.785 572.939C635.785 572.816 635.785 572.685 635.785 572.562C632.244 570.933 628.544 569.675 624.744 568.808C618.638 567.611 620.162 564.464 620.162 564.464C620.162 564.464 618.785 561.767 617.875 560.119C616.965 558.472 617.72 543.931 617.875 542.735C617.933 542.251 618.31 539.579 618.744 536.546C616.785 535.153 614.236 533.423 611.457 531.784C606.171 528.653 607.359 525.35 607.794 524.489ZM687.464 732.297C687.464 732.297 692.046 743.985 690.21 746.977C688.374 749.969 690.513 761.075 690.513 761.075L692.046 777.558C692.046 777.558 696.316 808.131 694.791 815.32C693.595 820.959 693.152 837.803 693.013 844.828C693.118 844.868 693.219 844.918 693.316 844.975L693.521 845.082C692.816 842.319 693.111 836.729 696.611 825.484L696.906 779.034C696.906 779.034 697.447 725.379 693.21 719.379C688.972 713.379 687.472 703.191 687.472 703.191C687.472 703.191 688.39 717.887 688.988 721.781C689.587 725.674 687.464 732.297 687.464 732.297ZM695.996 847.754C696.037 847.852 696.087 847.95 696.119 848.041L696.349 847.745C696.232 847.757 696.114 847.76 695.996 847.754V847.754Z" fill="url(#paint0_linear)"/>
<path d="M649.268 866.163C651.637 867.073 664.481 868.622 668.071 868.188C671.661 867.753 676.415 865.934 677.767 863.557C679.12 861.18 686.701 857.59 688.734 857.819C689.567 857.844 690.399 857.728 691.193 857.475C692.596 857.05 693.965 856.524 695.291 855.901C695.477 854.868 695.446 853.807 695.201 852.786C695.154 852.581 695.094 852.378 695.021 852.18C694.543 850.835 693.553 849.734 692.267 849.114L691.972 848.975C691.404 848.73 690.81 848.548 690.201 848.434C683.759 847.196 657.178 849.68 657.178 849.68C657.178 849.68 656.432 851.016 655.407 852.672C654.128 854.721 652.391 857.221 651.079 858.163C649.627 859.405 648.641 861.105 648.284 862.983C647.973 864.434 648.202 865.762 649.268 866.163Z" fill="white"/>
<path opacity="0.1" d="M649.268 866.163C651.637 867.073 664.472 868.622 668.063 868.188C671.653 867.753 676.407 865.925 677.767 863.557C679.128 861.188 686.693 857.59 688.726 857.819C690.759 858.049 695.283 855.901 695.283 855.901C695.283 855.901 695.988 852.622 693.939 850.385L689.841 853.295C689.841 853.295 678.874 856.696 676.841 859.852C674.808 863.008 671.103 864.77 665.751 865.089C661.751 865.352 652.563 863.794 648.26 863.016C647.973 864.434 648.194 865.762 649.268 866.163Z" fill="black"/>
<path d="M688.505 870.343C693.339 870.249 698.175 870.476 702.98 871.024C710.676 871.925 716.553 868.565 717.578 867.18C718.602 865.794 723.906 861.114 727.979 859.475C729.971 858.704 730.438 856.196 730.348 853.852C730.348 853.729 730.348 853.59 730.348 853.467C730.273 851.982 730.053 850.508 729.692 849.065L697.8 848.385L695.037 852.131L694.611 852.704L692.931 854.991C692.931 854.991 692.169 855.991 691.169 857.45C689.48 859.909 687.12 863.54 686.488 865.942C685.48 869.786 688.505 870.343 688.505 870.343Z" fill="white"/>
<path opacity="0.1" d="M688.505 870.343C693.339 870.249 698.175 870.477 702.98 871.024C710.668 871.925 716.553 868.565 717.57 867.18C718.586 865.794 723.906 861.073 727.979 859.491C729.971 858.721 730.438 856.213 730.348 853.868C728.069 854.401 723.283 855.762 721.406 858.131C718.947 861.294 714.545 866.614 708.291 866.95C703.242 867.221 690.947 866.319 686.439 865.958C685.472 869.786 688.505 870.343 688.505 870.343Z" fill="black"/>
<path opacity="0.1" d="M692.3 849.082C692.669 851.819 693.808 852.557 694.627 852.721C694.828 852.76 695.034 852.76 695.234 852.721C695.342 852.713 695.449 852.697 695.554 852.672C695.554 852.672 724.192 858.999 729.979 853.876C730.126 853.745 730.263 853.602 730.389 853.45C730.313 851.965 730.094 850.491 729.733 849.049L697.841 848.368L695.078 852.114C694.6 850.77 693.61 849.668 692.324 849.049L692.3 849.082Z" fill="black"/>
<path opacity="0.1" d="M655.415 852.639C656.055 853.344 656.587 853.745 656.923 853.606C658.432 853 670.792 850.893 674.718 852.704C678.644 854.516 691.931 852.999 691.931 852.999C691.931 852.999 691.931 851.426 692.005 848.901C691.436 848.656 690.843 848.474 690.234 848.36C683.792 847.123 657.21 849.606 657.21 849.606C657.21 849.606 656.432 850.983 655.415 852.639Z" fill="black"/>
<path d="M636.711 667.232L640.334 692.265L644.547 708.854L650.579 740.215V773.411C650.579 773.411 646.661 839.459 648.17 841.262C649.678 843.065 655.407 853.336 656.915 852.737C658.423 852.139 670.784 850.024 674.71 851.827C678.636 853.631 691.923 852.131 691.923 852.131C691.923 852.131 692.226 826.5 693.734 819.262C695.242 812.025 691.021 781.263 691.021 781.263L689.513 764.681C689.513 764.681 687.398 753.518 689.21 750.501C691.021 747.485 686.497 735.747 686.497 735.747C686.497 735.747 688.603 729.1 687.997 725.182C687.39 721.264 686.497 706.486 686.497 706.486C686.497 706.486 687.997 716.748 692.185 722.772C696.373 728.797 695.841 782.788 695.841 782.788L695.546 829.508C687.997 854.245 695.546 851.827 695.546 851.827C695.546 851.827 724.184 858.163 729.971 853.032C735.758 847.901 734.102 815.607 734.102 815.607C734.102 815.607 734.7 789.673 732.291 781.837C729.881 774.001 729.119 745.042 729.119 745.042C729.119 745.042 729.274 687.133 729.119 683.224C729.004 679.945 729.119 650.593 729.119 641.421C729.119 639.716 729.119 638.708 729.119 638.708L725.66 630.118L684.677 624.987H665.071C665.071 624.987 635.563 631.921 632.514 634.913C632.449 634.963 632.394 635.024 632.35 635.093C630.375 637.987 636.711 667.232 636.711 667.232Z" fill="#7C8EC8"/>
<path opacity="0.1" d="M686.472 798.722C686.472 798.722 677.456 820.435 673.202 821.943C668.948 823.451 686.472 798.722 686.472 798.722Z" fill="black"/>
<path opacity="0.1" d="M683.136 830.688C683.136 830.688 652.694 832.197 652.997 835.516C653.301 838.836 683.136 830.688 683.136 830.688Z" fill="black"/>
<path opacity="0.1" d="M723.865 822.008C722.66 823.148 700.644 825.287 702.455 827.369C704.267 829.451 722.053 833.5 722.053 833.5L723.865 822.008Z" fill="black"/>
<path opacity="0.1" d="M727.479 784.55C727.479 785.451 722.955 813.5 721.742 814.705C720.529 815.91 710.586 817.115 710.586 817.115L727.479 784.55Z" fill="black"/>
<path d="M694.652 401.163C698.972 405.991 700.84 412.835 705.873 416.917C708.93 419.376 712.799 420.548 716.357 422.22C719.914 423.892 723.438 426.442 724.496 430.228C725.676 434.491 723.397 438.843 722.201 443.105C720.963 447.515 720.889 452.121 720.815 456.736C720.733 462.318 720.643 467.9 720.742 473.482C720.889 482.178 721.61 491.276 726.225 498.645C709.562 503.948 691.841 504.67 674.366 505.35C671.007 505.59 667.634 505.504 664.292 505.096C661.396 504.519 658.532 503.794 655.71 502.924C650.132 501.448 644.383 500.712 638.612 500.735C636.096 500.735 633.531 500.891 631.104 500.235C628.678 499.58 626.342 497.899 625.686 495.473C625.105 493.293 625.957 490.973 627.072 489.014C629.104 485.44 631.99 482.457 634.17 478.932C636.396 475.21 637.716 471.016 638.025 466.689C638.334 462.363 637.623 458.024 635.949 454.023C634.014 449.523 630.899 445.605 628.998 441.097C627.05 436.257 626.532 430.959 627.506 425.833C628.479 420.708 630.903 415.969 634.49 412.18C641.104 405.409 650.596 402.786 659.678 401.393C663.502 400.941 667.15 399.531 670.284 397.295C673.767 394.999 678.284 394.442 682.365 394.95C687.074 395.478 691.436 397.683 694.652 401.163Z" fill="#3F3D56"/>
<g opacity="0.1">
<path opacity="0.1" d="M635.694 449.294C637.366 453.243 638.082 457.531 637.785 461.81C637.601 458.75 636.894 455.745 635.694 452.925C633.768 448.425 630.654 444.507 628.752 439.999C627.197 436.234 626.544 432.159 626.842 428.097C627.011 430.944 627.657 433.742 628.752 436.376C630.654 440.884 633.768 444.794 635.694 449.294Z" fill="black"/>
<path opacity="0.1" d="M720.57 455.621C720.52 458.834 720.471 462.056 720.463 465.269C720.463 460.842 720.504 456.425 720.57 452.007C720.635 447.425 720.717 442.785 721.955 438.367C722.774 435.564 723.987 432.72 724.414 429.892C725.143 433.909 723.069 437.982 721.955 441.99C720.717 446.367 720.635 451.039 720.57 455.621Z" fill="black"/>
<path opacity="0.1" d="M630.826 495.547C633.285 496.211 635.809 496.063 638.326 496.047C644.092 496.01 649.838 496.732 655.415 498.194C658.237 499.061 661.102 499.783 663.997 500.358C667.341 500.773 670.718 500.861 674.079 500.621C690.964 499.957 708.086 499.243 724.258 494.416C724.738 495.487 725.286 496.528 725.897 497.53C709.234 502.825 691.513 503.555 674.046 504.235C670.685 504.476 667.308 504.388 663.964 503.973C661.079 503.403 658.226 502.684 655.415 501.817C649.849 500.35 644.115 499.619 638.358 499.645C635.842 499.645 633.285 499.801 630.859 499.137C628.432 498.473 626.096 496.809 625.441 494.383C625.164 493.259 625.193 492.082 625.523 490.973C626.252 493.268 628.506 494.867 630.826 495.547Z" fill="black"/>
</g>
<path d="M655.104 485.834C655.71 487.195 658.268 498.948 658.874 500.153C659.481 501.358 662.792 520.645 663.095 521.727C663.399 522.809 684.923 517.202 684.923 517.202L697.882 506.342L711.201 493.088C711.201 493.088 711.594 481.129 701.783 477.293C701.116 477.031 700.431 476.818 699.734 476.654C687.833 473.793 689.029 437.605 689.029 437.605L664.604 448.154C664.604 448.154 669.128 469.269 668.972 473.342C668.931 474.711 667.858 475.564 666.456 476.08C664.289 476.696 662.033 476.94 659.784 476.801C659.784 476.801 654.497 484.481 655.104 485.834Z" fill="#FBBEBE"/>
<path d="M611.375 525.489L607.908 526.399C607.908 526.399 605.343 530.3 611.375 533.931C615.206 536.258 618.883 538.829 622.383 541.628L640.211 547.054L643.645 536.276L627.055 523.686L611.375 525.489Z" fill="#7C8EC8"/>
<path opacity="0.1" d="M611.375 525.489L607.908 526.399C607.908 526.399 605.343 530.3 611.375 533.931C615.206 536.258 618.883 538.829 622.383 541.628L640.211 547.054L643.645 536.276L627.055 523.686L611.375 525.489Z" fill="black"/>
<path d="M741.479 535.899L748.413 542.685C748.413 542.685 735.905 557.16 726.282 558.062C716.66 558.964 710.455 547.054 710.455 547.054L718.783 533.94L741.479 535.899Z" fill="#7C8EC8"/>
<path opacity="0.1" d="M741.479 535.899L748.413 542.685C748.413 542.685 735.905 557.16 726.282 558.062C716.66 558.964 710.455 547.054 710.455 547.054L718.783 533.94L741.479 535.899Z" fill="black"/>
<path opacity="0.1" d="M675.612 461.252C662.289 461.252 651.489 450.452 651.489 437.13C651.489 423.807 662.289 413.007 675.612 413.007C688.934 413.007 699.734 423.807 699.734 437.13C699.734 450.452 688.934 461.252 675.612 461.252Z" fill="black"/>
<path d="M675.612 459.441C662.289 459.441 651.489 448.641 651.489 435.318C651.489 421.996 662.289 411.196 675.612 411.196C688.934 411.196 699.734 421.996 699.734 435.318C699.734 448.641 688.934 459.441 675.612 459.441Z" fill="#FBBEBE"/>
<path opacity="0.1" d="M632.334 637.831C637.827 638.46 643.237 639.671 648.473 641.446C657.489 644.446 728.143 641.495 729.127 641.446C729.127 639.741 729.127 638.733 729.127 638.733L725.668 630.143L684.685 625.012H665.079C665.079 625.012 635.572 631.946 632.522 634.938C632.4 636.741 632.334 637.831 632.334 637.831Z" fill="black"/>
<path opacity="0.1" d="M655.104 485.834C655.71 487.195 658.268 498.948 658.874 500.153C659.481 501.358 662.792 520.645 663.095 521.727C663.399 522.809 684.923 517.202 684.923 517.202L697.882 506.342L711.201 493.088C711.201 493.088 711.594 481.129 701.783 477.293L677.423 505.301L666.456 476.08C664.289 476.696 662.033 476.94 659.784 476.801C659.784 476.801 654.497 484.481 655.104 485.834Z" fill="black"/>
<path d="M677.423 506.202L702.357 477.514C703.816 476.583 705.484 476.028 707.211 475.901C708.938 475.774 710.67 476.077 712.25 476.785C717.832 479.203 724.766 481.162 726.578 482.367C728.389 483.572 735.176 491.031 735.176 491.031L714.963 543.907L723.865 578.734C723.865 578.734 722.504 596.529 725.971 603.012C728.082 607.158 729.071 611.784 728.84 616.43C728.84 616.43 727.782 625.028 728.987 629.544C729.691 632.564 729.744 635.699 729.143 638.741C729.143 638.741 657.514 641.757 648.473 638.741C643.238 636.962 637.827 635.75 632.334 635.126C632.334 635.126 633.973 604.963 635.612 597.725C637.252 590.488 634.252 562.898 634.252 562.898L636.211 533.341L624.457 503.014C624.457 503.014 630.826 483.572 637.465 481.613C637.465 481.613 649.522 478.744 652.088 477.391C654.653 476.039 662.194 474.826 662.194 474.826L666.153 476.154L677.423 506.202Z" fill="#7C8EC8"/>
<path opacity="0.1" d="M642.635 532.343L695.103 528.776C696.431 528.685 697.58 529.688 697.671 531.016L703.303 613.856C703.394 615.184 702.391 616.334 701.063 616.424L648.595 619.992C647.267 620.082 646.117 619.079 646.027 617.751L640.394 534.911C640.304 533.583 641.307 532.434 642.635 532.343Z" fill="black"/>
<path d="M640.828 530.544L693.296 526.976C694.624 526.886 695.774 527.889 695.864 529.217L701.497 612.057C701.587 613.385 700.584 614.535 699.256 614.625L646.788 618.193C645.46 618.283 644.311 617.28 644.221 615.952L638.588 533.112C638.497 531.784 639.501 530.634 640.828 530.544Z" fill="#3F3D56"/>
<path d="M642.56 537.038L692.46 533.645L697.588 609.059L647.688 612.452L642.56 537.038Z" fill="white"/>
<path opacity="0.1" d="M647.034 556.287L687.795 553.433L688.591 564.794L647.829 567.647L647.034 556.287Z" fill="black"/>
<path opacity="0.1" d="M648.509 601.433L654.978 600.993L655.38 606.913L648.912 607.353L648.509 601.433Z" fill="black"/>
<path opacity="0.1" d="M654.89 587.143L688.001 584.892L688.403 590.813L655.292 593.064L654.89 587.143Z" fill="black"/>
<path d="M648.736 534.218L683.213 531.874L683.832 540.975L649.355 543.32L648.736 534.218Z" fill="#3F3D56"/>
<path opacity="0.1" d="M648.736 534.218L683.213 531.874L683.832 540.975L649.355 543.32L648.736 534.218Z" fill="black"/>
<path opacity="0.1" d="M674.407 636.167C674.407 636.167 674.71 680.806 686.472 706.436C686.472 706.436 672.292 672.658 672.292 671.306C672.292 669.954 664.456 655.773 666.554 651.552C668.653 647.331 674.407 636.167 674.407 636.167Z" fill="black"/>
<path opacity="0.1" d="M673.767 429.286C674.218 425.335 673.251 421.352 671.038 418.048C671.301 421.36 670.365 424.656 668.399 427.334C666.434 430.013 663.571 431.895 660.333 432.638C660.61 432.398 660.807 432.08 660.899 431.726C660.991 431.372 660.974 430.999 660.85 430.654C659.169 432.556 657.882 434.81 655.981 436.482C654.079 438.154 651.227 439.154 648.989 437.966C645.948 436.327 645.916 432.007 646.702 428.646C648.391 421.489 651.855 414.873 656.776 409.409C658.004 407.757 659.597 406.412 661.432 405.479C663.266 404.546 665.292 404.051 667.349 404.032C672.005 403.671 676.841 404.081 681.013 406.171C683.361 407.452 685.56 408.989 687.57 410.753L699.045 420.114C700.15 420.909 701.095 421.904 701.832 423.048C702.325 424.004 702.62 425.049 702.701 426.122C702.994 429.187 702.427 432.274 701.063 435.035C699.699 437.796 697.593 440.122 694.98 441.753C695.035 439.33 694.369 436.945 693.066 434.902C691.762 432.858 689.881 431.249 687.66 430.277C687.313 430.568 687.031 430.93 686.835 431.339C686.638 431.747 686.531 432.193 686.521 432.646L684.103 428.335C683.744 427.55 683.177 426.879 682.464 426.392C680.972 425.573 679.111 426.54 677.841 427.696C676.571 428.851 675.333 430.294 673.628 430.474L673.562 424.056" fill="black"/>
<path d="M673.767 428.384C674.219 424.43 673.252 420.445 671.038 417.138C671.776 423.696 666.833 430.466 660.325 431.728C660.602 431.49 660.799 431.174 660.891 430.821C660.984 430.468 660.966 430.096 660.841 429.753C659.161 431.654 657.874 433.9 655.973 435.581C654.071 437.261 651.219 438.253 648.981 437.056C645.94 435.417 645.907 431.097 646.694 427.745C648.383 420.588 651.847 413.972 656.768 408.507C658.295 406.646 660.219 405.151 662.399 404.13C663.977 403.547 665.636 403.209 667.317 403.13C671.972 402.77 676.808 403.171 680.98 405.261C683.327 406.548 685.525 408.087 687.538 409.852L699.013 419.212C700.119 420.005 701.064 421.001 701.8 422.146C702.293 423.102 702.589 424.148 702.668 425.22C702.961 428.285 702.393 431.37 701.029 434.129C699.666 436.889 697.559 439.214 694.947 440.843C695 438.42 694.333 436.037 693.03 433.994C691.727 431.951 689.847 430.341 687.628 429.368C687.281 429.659 687 430.021 686.804 430.43C686.608 430.838 686.5 431.283 686.488 431.736L684.079 427.441C683.721 426.656 683.154 425.983 682.439 425.499C680.948 424.679 679.087 425.646 677.816 426.802C676.546 427.958 675.308 429.392 673.603 429.581L673.538 423.155" fill="#3F3D56"/>
<path d="M662.341 580.537C664.448 579.471 699.283 584.906 699.283 584.906C699.283 584.906 705.021 583.266 718.889 580.988C732.758 578.709 733.643 565.152 733.643 565.152L735.159 538.013L730.479 533.915L710.43 547.029C710.43 547.029 710.119 553.66 710.43 554.857C710.627 555.677 711.152 556.652 711.103 557.316C711.087 557.496 711.013 557.666 710.892 557.799C710.77 557.932 710.608 558.022 710.43 558.054C709.07 558.398 690.529 561.398 690.529 561.398C690.529 561.398 647.555 558.455 636.842 572.931C635.993 573.993 635.351 575.205 634.949 576.504C632.293 586.398 660.432 581.48 662.341 580.537Z" fill="#FBBEBE"/>
<path opacity="0.1" d="M634.924 576.562C636.563 577.291 637.58 577.816 637.58 577.816C637.58 577.816 652.956 577.365 661.596 574.234C670.235 571.103 680.734 571.66 680.734 571.66C680.734 571.66 716.734 565.464 711.152 557.374C711.137 557.553 711.062 557.723 710.941 557.856C710.819 557.99 710.657 558.079 710.48 558.111C709.119 558.455 690.578 561.455 690.578 561.455C690.578 561.455 647.604 558.513 636.891 572.988C636.016 574.045 635.349 575.257 634.924 576.562V576.562Z" fill="black"/>
<path d="M619.974 528.808C619.974 528.808 617.859 543.734 617.711 544.948C617.564 546.161 616.802 560.775 617.711 562.439C618.621 564.103 619.974 566.808 619.974 566.808C619.974 566.808 618.465 569.972 624.498 571.185C630.531 572.398 637.613 576.004 637.613 576.004C637.613 576.004 652.997 575.554 661.587 572.39C670.177 569.226 680.734 569.824 680.734 569.824C680.734 569.824 726.43 561.98 706.824 552.406C687.218 542.833 673.349 555.8 673.349 555.8L651.489 554.447C651.489 554.447 643.342 549.464 641.08 549.923C639.482 550.126 637.86 549.864 636.408 549.169L636.252 533.333L619.974 528.808Z" fill="#FBBEBE"/>
<path opacity="0.1" d="M730.823 492.17L735.2 491.94L748.462 543.579C748.462 543.579 734.143 539.956 727.971 543.579C721.799 547.202 710.48 547.947 710.48 547.947L714.701 506.784L730.823 492.17Z" fill="black"/>
<path d="M730.823 491.26L735.2 491.031L748.462 542.669C748.462 542.669 734.143 539.046 727.971 542.669C721.799 546.292 710.48 547.038 710.48 547.038L714.701 505.875L730.823 491.26Z" fill="#7C8EC8"/>
<path opacity="0.1" d="M630.522 502.571L624.498 503.932C624.498 503.932 609.113 526.063 607.908 527.3C606.703 528.538 613.646 533.038 616.506 533.038C619.367 533.038 633.391 534.677 637.465 538.464C641.539 542.251 639.842 523.194 639.842 522.759C639.842 522.325 634.785 510.301 634.785 510.301L630.522 502.571Z" fill="black"/>
<path d="M630.522 501.67L624.498 503.022C624.498 503.022 609.113 525.194 607.908 526.399C606.703 527.604 613.646 532.136 616.506 532.136C619.367 532.136 633.391 533.776 637.465 537.562C641.539 541.349 639.842 522.292 639.842 521.858C639.842 521.423 634.752 509.358 634.752 509.358L630.522 501.67Z" fill="#7C8EC8"/>
<g opacity="0.1">
<path opacity="0.1" d="M671.079 417.212C671.114 416.584 671.101 415.953 671.038 415.327C672.286 417.2 673.144 419.304 673.562 421.515V423.417C673.562 423.417 673.562 423.376 673.562 423.351V423.802C673.562 425.13 673.562 426.466 673.603 427.794H673.718V428.409C673.718 428.196 673.718 427.991 673.759 427.778C675.398 427.515 676.571 426.138 677.792 425.04C679.013 423.942 680.923 422.892 682.415 423.737C683.129 424.221 683.696 424.893 684.054 425.679L686.488 429.974C686.499 429.522 686.606 429.078 686.803 428.671C686.999 428.264 687.28 427.903 687.628 427.614C689.848 428.585 691.729 430.195 693.033 432.238C694.336 434.281 695.002 436.666 694.947 439.089C697.187 437.686 699.06 435.77 700.413 433.499C701.765 431.229 702.558 428.669 702.726 426.032C702.868 428.977 702.222 431.906 700.855 434.518C699.488 437.131 697.448 439.331 694.947 440.892C695 438.47 694.333 436.086 693.03 434.043C691.727 432 689.847 430.39 687.628 429.417C687.281 429.709 687 430.071 686.804 430.479C686.608 430.887 686.5 431.333 686.488 431.786L684.079 427.491C683.721 426.705 683.154 426.033 682.439 425.548C680.947 424.728 679.087 425.696 677.816 426.851C676.546 428.007 675.308 429.441 673.603 429.63C673.603 427.532 673.582 425.439 673.538 423.351C673.136 421.161 672.3 419.074 671.079 417.212V417.212Z" fill="black"/>
<path opacity="0.1" d="M673.849 425.466C673.808 424.909 673.743 424.351 673.661 423.827L673.571 421.564C673.817 422.849 673.911 424.159 673.849 425.466Z" fill="black"/>
<path opacity="0.1" d="M648.981 435.245C651.219 436.441 654.071 435.441 655.973 433.769C657.874 432.097 659.161 429.843 660.841 427.941C660.966 428.286 660.983 428.659 660.891 429.013C660.799 429.367 660.601 429.685 660.325 429.925C660.489 429.925 660.645 429.843 660.8 429.802C659.161 431.687 657.858 433.9 655.973 435.54C654.088 437.179 651.219 438.212 648.981 437.015C646.743 435.818 646.104 433.015 646.301 430.286C646.448 432.433 647.219 434.294 648.981 435.245Z" fill="black"/>
<path opacity="0.1" d="M660.85 429.786C663.591 429.039 666.038 427.472 667.863 425.295C669.689 423.118 670.805 420.435 671.063 417.605C671.53 424.04 666.677 430.49 660.325 431.728C660.596 431.493 660.79 431.183 660.883 430.837C660.977 430.491 660.965 430.125 660.85 429.786V429.786Z" fill="black"/>
</g>
<path opacity="0.1" d="M531.499 886.276C487.389 886.276 451.631 880.533 451.631 873.449C451.631 866.364 487.389 860.621 531.499 860.621C575.608 860.621 611.366 866.364 611.366 873.449C611.366 880.533 575.608 886.276 531.499 886.276Z" fill="#7C8EC8"/>
<path d="M459.18 560.692C459.18 560.692 462.41 560.241 462.41 555.544C462.41 550.848 464.721 542.053 464.721 542.053C464.721 542.053 466.721 526.75 469.484 524.324C472.246 521.897 475.795 507.652 475.795 507.652C475.795 507.652 476.401 499.922 477.639 498.258C478.877 496.595 480.549 492.521 483.016 486.709C485.483 480.898 495.745 476.915 495.745 476.915C495.745 476.915 514.343 466.128 519.614 462.612C520.096 462.32 520.546 461.979 520.958 461.595C521.876 460.398 525.876 460.374 525.876 460.374C526.294 457.726 526.696 454.694 526.827 451.948C526.827 451.653 526.827 451.358 526.827 451.063C520.95 447.589 516.523 442.112 514.36 435.637C514.261 435.325 514.179 435.005 514.089 434.686C513.73 434.575 513.398 434.389 513.115 434.14C512.832 433.892 512.606 433.586 512.45 433.243C511.983 432.186 511.966 430.956 511.376 429.965C510.688 428.801 509.376 428.178 508.344 427.309C505.737 425.088 505.065 421.358 505.188 417.973C505.27 415.219 505.712 412.448 505.54 409.719C505.54 409.49 505.54 409.26 505.491 409.031C505.442 408.629 505.385 408.211 505.311 407.817C504.909 405.785 504.032 403.867 503.54 401.85C503.049 399.834 502.999 397.564 504.147 395.826C505.827 393.277 509.327 392.769 512.401 392.547C515.884 392.252 518.958 392.629 521.229 389.736C522.27 388.225 523.444 386.809 524.737 385.506C525.196 385.08 529.655 382.351 529.655 382.179C534.017 380.15 538.967 379.769 543.589 381.105C545.908 381.777 548.08 382.875 550.433 383.424C555.482 384.621 561.302 383.326 565.597 386.219C567.99 387.859 569.424 390.473 570.769 393.006C571.862 395.094 572.971 397.184 574.096 399.277C575.916 402.711 577.752 406.203 578.514 410.006C578.674 410.837 578.775 411.677 578.818 412.522V412.522C578.818 412.826 578.818 413.129 578.818 413.432C578.818 413.563 578.818 413.694 578.818 413.826C578.818 414.104 578.818 414.383 578.768 414.645C578.719 414.907 578.768 414.981 578.711 415.153C578.654 415.325 578.637 415.711 578.588 415.973C578.539 416.235 578.441 416.703 578.342 417.055C578.342 417.211 578.244 417.358 578.195 417.514C578.146 417.67 578.014 418.063 577.908 418.334C577.801 418.604 577.793 418.62 577.728 418.76C577.605 419.047 577.457 419.325 577.31 419.579C577.244 419.686 577.195 419.793 577.129 419.899C576.904 420.283 576.652 420.65 576.375 420.998C574.629 423.186 572.039 424.579 570.129 426.629C570.129 426.711 570.129 426.793 570.129 426.874C570.129 427.096 570.129 427.317 570.129 427.547C570.012 432.117 568.78 436.59 566.54 440.575C564.3 444.561 561.12 447.939 557.277 450.415C557.277 450.727 557.236 451.046 557.22 451.366C557.06 453.796 557.09 456.235 557.31 458.661C557.644 458.269 558.062 457.956 558.533 457.746C559.004 457.536 559.516 457.434 560.031 457.448C560.383 457.43 560.736 457.461 561.08 457.538L561.154 457.48V457.554C562.957 457.997 565.179 459.874 567.301 465.21C567.301 465.21 573.76 472.488 578.678 472.185C583.596 471.882 596.047 479.767 596.047 479.767C596.047 479.767 608.194 487.644 610.801 495.677C612.258 500.233 614.007 504.69 616.038 509.021L631.095 539.938L633.858 564.528C633.858 564.528 632.325 575.437 632.628 577.109C632.931 578.782 626.325 593.781 626.325 593.781C626.325 593.781 604.498 632.125 595.58 634.092L594.94 633.649C594.557 633.843 594.153 633.991 593.735 634.092L591.899 632.805C591.786 634.246 591.835 635.695 592.047 637.125C593.268 640.92 591.58 665.624 589.432 670.469C587.285 675.313 588.047 738.836 588.047 738.836L588.35 744.434C588.35 744.434 588.35 744.615 588.277 744.926L588.35 746.254L588.129 746.369C587.899 748.15 587.974 749.957 588.35 751.713C589.121 754.172 589.432 761.114 589.432 761.114C589.432 761.114 595.58 800.36 592.662 808.245C589.744 816.13 587.277 824.769 587.277 824.769C587.277 824.769 584.203 834.605 587.129 836.244C590.055 837.884 598.342 840.793 596.653 844.883C595.096 848.67 589.186 858.818 588.309 860.301L588.383 861.121L589.588 874.178C589.393 875.902 588.925 877.584 588.203 879.162C586.883 882.014 584.326 884.956 579.441 884.637C578.621 884.579 577.678 884.489 576.752 884.366C567.826 883.161 556.843 879.178 556.843 879.178C557.412 878.817 557.933 878.385 558.392 877.891V877.891C558.831 877.466 559.178 876.956 559.414 876.393C559.649 875.829 559.767 875.223 559.761 874.612C559.629 872.227 564.08 860.908 565.195 858.113L565.449 857.49C565.449 857.49 555.302 846.875 556.99 837.482C556.99 837.482 568.219 830.925 564.523 827.318C560.826 823.712 554.22 813.384 554.22 813.384C554.22 813.384 553.916 774.737 554.22 768.975C554.536 764.967 554.346 760.935 553.654 756.975C553.531 756.385 553.384 755.803 553.228 755.221C548.111 755.993 542.944 756.385 537.769 756.393C535.879 756.393 533.966 756.355 532.032 756.278C532.032 756.825 532.007 757.415 531.958 758.049C531.532 767.623 530.737 784.417 530.089 790.655C529.171 799.589 524.097 823.695 524.097 823.695C524.097 823.695 533.778 829.9 522.409 845.22C522.409 845.22 522.409 850.76 523.163 851.572C523.969 854.2 524.617 856.874 525.106 859.58C525.581 862.457 525.778 865.383 525.007 866.891C523.163 870.514 512.098 870.219 512.098 870.219C512.009 870.198 511.918 870.185 511.827 870.178C509.738 869.957 507.627 870.155 505.616 870.76C503.604 871.366 501.734 872.366 500.114 873.703C495.909 877.08 479.959 875.604 471.311 874.522C467.926 874.088 465.664 873.703 465.664 873.703C465.555 873.319 465.516 872.919 465.549 872.522V872.522C465.639 870.399 467.303 865.744 478.582 861.588C478.582 861.588 489.188 854.457 489.041 848.244H489.278H490.5C489.729 848.219 489.188 848.219 489.188 848.219C489.188 848.219 493.344 833.064 491.647 831.826C489.95 830.589 495.032 813.794 495.032 813.794C495.032 813.794 497.942 785.598 498.106 783.63C498.095 781.935 497.836 780.25 497.336 778.63L498.106 763.164C498.106 763.164 498.254 758.024 498.106 756.352C498.122 754.901 498.237 753.452 498.45 752.016C498.524 751.442 498.598 750.844 498.68 750.254C494.704 749.246 492.123 748.32 492.123 748.32L492.582 694.509C489.205 687.952 488.582 673.559 488.598 663.362C488.598 656.805 488.893 651.952 488.893 651.952L484.278 644.42C484.278 644.42 483.213 635.404 484.901 633.428C485.647 632.535 485.311 631.609 484.696 630.846C484.373 630.581 484.03 630.34 483.672 630.125C483.712 630.068 483.748 630.008 483.778 629.945C483.456 629.675 483.114 629.432 482.754 629.215C482.754 629.215 484.393 626.674 482.926 625.6C481.549 626.535 480.319 627.281 479.385 627.814C479.451 628.412 479.516 628.756 479.516 628.756L479.123 627.936C478.221 628.445 477.672 628.756 477.672 628.756C477.672 628.756 470.443 614.355 470.598 612.24C470.754 610.125 465.68 601.175 465.68 601.175C465.68 601.175 465.066 596.47 462.295 594.503C459.525 592.535 460.148 578.282 460.148 578.282C460.148 578.282 459.377 570.856 457.533 567.831C455.689 564.806 459.18 560.692 459.18 560.692ZM597.506 554.372L597.366 557.807C598.186 556.487 598.776 555.544 598.776 555.544L597.506 554.372Z" fill="url(#paint1_linear)"/>
<path d="M477.246 622.527L479.016 630.068C479.016 630.068 493.196 622.814 495.745 613.634C498.295 604.453 491.475 600.953 491.475 600.953L478.254 606.544L477.246 622.527Z" fill="white"/>
<path opacity="0.1" d="M477.246 622.527L479.016 630.068C479.016 630.068 493.196 622.814 495.745 613.634C498.295 604.453 491.475 600.953 491.475 600.953L478.254 606.544L477.246 622.527Z" fill="black"/>
<path d="M556.826 879.17C556.826 879.17 569.941 883.989 578.957 884.596C583.744 884.916 586.26 881.981 587.555 879.153C588.259 877.594 588.718 875.935 588.916 874.235L587.727 861.244L587.104 854.334L567.949 849.351L565.236 857.654L564.982 858.277C563.9 861.055 559.523 872.318 559.654 874.67C559.665 875.278 559.552 875.883 559.322 876.446C559.092 877.01 558.751 877.521 558.318 877.949C557.874 878.417 557.373 878.828 556.826 879.17V879.17Z" fill="white"/>
<path d="M467.287 872.563C467.253 872.96 467.292 873.36 467.402 873.744C467.402 873.744 495.45 878.416 501.188 873.744C502.801 872.379 504.681 871.365 506.707 870.768C508.734 870.171 510.863 870.004 512.958 870.276C512.958 870.276 523.811 870.571 525.622 866.998C526.376 865.498 526.179 862.588 525.712 859.727C525.235 857.037 524.6 854.377 523.811 851.76L523.376 851.416L520.794 849.342L490.565 848.449H490.336C490.483 854.629 480.082 861.719 480.082 861.719C469.008 865.817 467.377 870.449 467.287 872.563Z" fill="white"/>
<path opacity="0.1" d="M467.279 872.563C467.25 872.961 467.291 873.361 467.402 873.744C467.402 873.744 495.45 878.416 501.18 873.744C502.794 872.378 504.675 871.364 506.703 870.767C508.731 870.17 510.862 870.003 512.958 870.277C512.958 870.277 523.819 870.572 525.63 866.998C526.376 865.498 526.188 862.588 525.72 859.719C521.54 860.137 514.942 861.178 512.352 863.67C508.434 867.44 501.795 871.211 497.729 871.514C494.516 871.711 475.41 872.317 467.279 872.563Z" fill="black"/>
<path opacity="0.1" d="M556.826 879.17C556.826 879.17 569.941 883.989 578.957 884.596C583.744 884.916 586.26 881.981 587.555 879.153C584.211 880.276 579.58 881.448 577.146 880.375C574.26 879.088 564.031 878.268 558.293 877.916C557.861 878.396 557.368 878.817 556.826 879.17V879.17Z" fill="black"/>
<path d="M537.368 490.742C548.187 486.537 562.105 472.644 558.629 466.152C557.861 464.513 557.403 462.746 557.277 460.939C557.053 458.487 557.02 456.02 557.179 453.563C557.423 449.535 557.907 445.525 558.629 441.555C558.629 441.555 524.851 442.317 526.819 447.292C527.392 448.759 527.491 451.292 527.327 454.12C527.163 456.948 526.761 460.169 526.335 462.882C525.753 466.595 525.155 469.439 525.155 469.439C525.155 469.439 527.228 472.333 528.433 472.488C529.638 472.644 521.843 496.767 537.368 490.742Z" fill="#CF6F80"/>
<path opacity="0.1" d="M565.015 858.236L565.269 858.514C575.367 846.302 587.58 861.531 587.58 861.531L587.76 861.203L587.137 854.293L567.982 849.31L565.269 857.613L565.015 858.236Z" fill="black"/>
<path opacity="0.1" d="M490.319 849.31C490.319 849.31 497.696 849.162 501.63 852.638C505.565 856.113 524.581 853.383 523.761 852.638C523.522 852.259 523.376 851.829 523.335 851.383L520.753 849.31L490.524 848.416C490.409 848.99 490.319 849.31 490.319 849.31Z" fill="black"/>
<path d="M552.449 753.402C552.998 754.76 553.415 756.168 553.695 757.606C554.379 761.546 554.569 765.555 554.261 769.541C553.957 775.278 554.261 813.728 554.261 813.728C554.261 813.728 560.744 823.982 564.367 827.597C567.99 831.212 556.99 837.703 556.99 837.703C555.351 847.056 565.285 857.613 565.285 857.613C575.383 845.4 587.596 860.621 587.596 860.621C587.596 860.621 594.235 849.146 595.891 845.048C597.547 840.949 589.408 838.121 586.547 836.449C583.686 834.777 586.695 824.974 586.695 824.974C586.695 824.974 589.104 816.376 591.973 808.532C594.842 800.688 588.809 761.647 588.809 761.647C588.809 761.647 588.498 754.705 587.752 752.287C587.38 750.542 587.305 748.746 587.531 746.975C587.58 746.377 587.637 745.885 587.678 745.541C587.719 745.197 587.752 745.049 587.752 745.049L587.637 744.853L583.539 737.213C583.539 737.213 550.482 748.59 552.449 753.402Z" fill="#7C8EC8"/>
<path d="M490.319 848.408C490.319 848.408 497.696 848.252 501.63 851.687C505.565 855.121 524.581 852.441 523.761 851.687C522.942 850.933 523.015 845.359 523.015 845.359C534.171 830.122 524.655 823.941 524.655 823.941C524.655 823.941 529.63 799.966 530.532 791.073C531.163 784.868 531.941 768.123 532.359 758.639C532.54 754.541 532.646 751.713 532.646 751.713L523.614 749.918L522.442 749.689L500.458 745.271C500.458 745.271 499.852 749.369 499.442 752.721C499.235 754.152 499.122 755.595 499.106 757.041C499.245 758.68 499.106 763.819 499.106 763.819L498.352 779.196C498.838 780.81 499.092 782.486 499.106 784.172C498.95 786.139 496.09 814.179 496.09 814.179C496.09 814.179 491.114 830.917 492.811 832.122C494.508 833.326 490.319 848.408 490.319 848.408Z" fill="#7C8EC8"/>
<path opacity="0.1" d="M526.819 447.317C527.392 448.784 527.491 451.317 527.327 454.145C531.851 456.869 537.052 458.262 542.333 458.163C547.613 458.065 552.759 456.479 557.179 453.587C557.423 449.559 557.907 445.549 558.629 441.579C558.629 441.579 524.851 442.342 526.819 447.317Z" fill="black"/>
<path d="M513.778 429.219C513.689 436.656 516.558 443.823 521.753 449.145C526.949 454.467 534.045 457.506 541.482 457.595C548.919 457.685 556.087 454.816 561.408 449.62C566.73 444.425 569.77 437.328 569.859 429.891C569.859 429.661 569.859 429.448 569.859 429.219C569.859 421.78 566.904 414.646 561.644 409.385C556.383 404.125 549.249 401.17 541.81 401.17C534.371 401.17 527.237 404.125 521.977 409.385C516.717 414.646 513.761 421.78 513.761 429.219H513.778Z" fill="#CF6F80"/>
<path opacity="0.1" d="M537.368 490.742C548.187 486.537 562.105 472.644 558.629 466.153C557.861 464.513 557.403 462.746 557.277 460.94L542.466 473.12L533.302 480.636L526.335 462.907C525.753 466.62 525.155 469.464 525.155 469.464C525.155 469.464 527.228 472.357 528.433 472.513C529.638 472.669 521.843 496.767 537.368 490.742Z" fill="black"/>
<path d="M499.065 544.569L511.434 752.352L527.564 753.41L569.342 632.928L562.49 489.89L561.039 459.669L542.466 474.923L533.302 482.439L526.13 464.185L512.794 475.808L499.065 544.569Z" fill="#7C8EC8"/>
<path opacity="0.1" d="M552.449 753.402C552.998 754.76 553.415 756.168 553.695 757.607C565.444 755.797 576.855 752.236 587.547 747.041L587.768 746.926L587.695 745.607V744.918L583.596 737.279C583.596 737.279 550.482 748.59 552.449 753.402Z" fill="black"/>
<path opacity="0.1" d="M523.343 757.639C526.344 758.152 529.37 758.5 532.409 758.68C532.589 754.582 532.696 751.754 532.696 751.754L523.614 749.918L523.343 757.639Z" fill="black"/>
<path opacity="0.1" d="M499.409 752.721C505.237 754.238 514.245 755.943 522.294 754.877L522.409 749.689L500.426 745.271C500.426 745.271 499.844 749.336 499.409 752.721Z" fill="black"/>
<path opacity="0.1" d="M522.442 755.828C556.047 761.565 586.826 745.115 586.826 745.115L586.531 739.541C586.531 739.541 585.768 676.354 587.883 671.51C589.998 666.665 591.645 642.133 590.448 638.387C589.252 634.641 594.817 578.085 594.817 578.085L595.719 555.135L628.743 541.717L613.989 510.955C611.997 506.643 610.283 502.208 608.858 497.677C606.292 489.685 594.383 481.841 594.383 481.841C594.383 481.841 582.17 474.005 577.342 474.3C572.514 474.595 566.187 467.366 566.187 467.366C561.515 455.456 557.285 460.808 557.285 460.808C557.285 461.382 557.285 460.808 557.515 462.571C559.154 475.644 531.007 516.955 530.605 517.693L527.892 582.987L525.179 665.616L522.442 755.828Z" fill="black"/>
<path d="M523.343 755.828C556.949 761.565 587.735 745.115 587.735 745.115L587.432 739.541C587.432 739.541 586.678 676.354 588.793 671.51C590.908 666.665 592.555 642.108 591.35 638.33C590.145 634.551 595.744 578.052 595.744 578.052L596.653 555.102L629.669 541.684L614.915 510.922C612.928 506.611 611.214 502.179 609.784 497.652C607.219 489.685 595.268 481.833 595.268 481.833C595.268 481.833 583.055 473.997 578.236 474.292C573.416 474.587 567.056 467.366 567.056 467.366C562.375 455.456 557.22 460.808 557.22 460.808C557.22 461.382 557.711 461.628 557.449 462.571C553.843 475.251 531.843 516.955 531.441 517.693L528.728 582.987L526.073 665.657L523.343 755.828Z" fill="white"/>
<path opacity="0.1" d="M532.4 519.537C536.015 518.029 555.162 496.168 555.162 496.168V491.193C555.859 489.554 560.007 490.554 563.359 491.701L561.916 461.48L560.277 462.841C556.695 475.513 532.794 518.807 532.4 519.537Z" fill="black"/>
<path d="M531.491 517.734C535.114 516.217 554.261 494.365 554.261 494.365V489.382C554.957 487.742 559.097 488.742 562.457 489.89L561.039 459.702L559.4 461.054C555.785 473.71 531.892 516.996 531.491 517.734Z" fill="white"/>
<path opacity="0.1" d="M586.826 626.748C586.375 626.748 563.457 624.338 563.457 624.338C563.457 624.338 549.581 651.633 550.49 658.264C551.4 664.895 553.048 670.78 558.63 669.739C564.211 668.698 588.67 670.559 588.67 670.559L586.826 626.748Z" fill="black"/>
<path d="M587.736 624.937C587.277 624.937 564.359 622.527 564.359 622.527C564.359 622.527 550.49 649.863 551.392 656.42C552.294 662.977 553.957 668.936 559.531 667.895C565.105 666.854 589.58 668.715 589.58 668.715L587.736 624.937Z" fill="white"/>
<path d="M570.465 612.158C570.465 612.158 549.433 623.469 548.982 626.912C548.531 630.355 559.687 625.404 562.097 624.797C563.684 624.42 565.298 624.168 566.924 624.043L582.998 624.478L570.465 612.158Z" fill="#CF6F80"/>
<path opacity="0.1" d="M538.277 520.947C537.055 520.947 536.064 519.956 536.064 518.734C536.064 517.511 537.055 516.521 538.277 516.521C539.5 516.521 540.49 517.511 540.49 518.734C540.49 519.956 539.5 520.947 538.277 520.947Z" fill="black"/>
<path d="M538.277 520.045C537.055 520.045 536.064 519.054 536.064 517.832C536.064 516.61 537.055 515.619 538.277 515.619C539.5 515.619 540.49 516.61 540.49 517.832C540.49 519.054 539.5 520.045 538.277 520.045Z" fill="#3F3D56"/>
<path opacity="0.1" d="M534.204 616.748C532.981 616.748 531.991 615.757 531.991 614.535C531.991 613.313 532.981 612.322 534.204 612.322C535.426 612.322 536.417 613.313 536.417 614.535C536.417 615.757 535.426 616.748 534.204 616.748Z" fill="black"/>
<path d="M534.204 615.838C532.981 615.838 531.991 614.848 531.991 613.625C531.991 612.403 532.981 611.412 534.204 611.412C535.426 611.412 536.417 612.403 536.417 613.625C536.417 614.848 535.426 615.838 534.204 615.838Z" fill="#3F3D56"/>
<path opacity="0.1" d="M536.064 568.847C534.842 568.847 533.851 567.857 533.851 566.634C533.851 565.412 534.842 564.421 536.064 564.421C537.287 564.421 538.277 565.412 538.277 566.634C538.277 567.857 537.287 568.847 536.064 568.847Z" fill="black"/>
<path d="M536.064 567.946C534.842 567.946 533.851 566.955 533.851 565.733C533.851 564.51 534.842 563.52 536.064 563.52C537.287 563.52 538.277 564.51 538.277 565.733C538.277 566.955 537.287 567.946 536.064 567.946Z" fill="#3F3D56"/>
<path d="M485.049 623.584C485.049 623.584 483.541 625.846 485.049 626.863C486.557 627.879 484.901 630.486 484.901 630.486C484.901 630.486 488.663 632.682 487.008 634.674C485.352 636.666 486.401 645.608 486.401 645.608L490.926 653.141C490.926 653.141 490.655 657.969 490.639 664.493C490.639 674.673 491.237 688.985 494.549 695.509L494.106 749.041C494.106 749.041 509.95 754.836 523.212 753.065L525.179 667.165C525.179 667.165 522.31 618.453 521.253 609.109C520.634 604.258 520.382 599.367 520.499 594.478C520.499 594.478 520.95 579.855 522.466 573.077C522.466 573.077 524.105 543.668 524.269 535.528C524.343 531.635 524.138 520.275 523.909 509.471C523.655 497.66 523.368 486.521 523.368 486.521L526.359 462.841C526.359 462.841 523.368 462.546 522.466 463.743C522.062 464.12 521.623 464.458 521.155 464.751C515.983 468.243 497.737 478.98 497.737 478.98C497.737 478.98 487.639 482.997 485.221 488.751C482.803 494.505 481.123 498.586 479.95 500.226C478.778 501.865 478.139 509.57 478.139 509.57C478.139 509.57 474.664 523.75 471.951 526.152C469.237 528.553 467.287 543.799 467.287 543.799L491.262 562.651C491.262 562.651 493.368 594.011 493.819 595.224C494.27 596.437 485.049 623.584 485.049 623.584Z" fill="white"/>
<path d="M484.139 623.584C484.139 623.584 482.639 625.846 484.139 626.863C485.639 627.879 484 630.486 484 630.486C484 630.486 487.762 632.682 486.106 634.674C484.45 636.666 485.5 645.608 485.5 645.608L490.008 653.141C490.008 653.141 489.737 657.969 489.713 664.493C489.713 674.673 490.311 688.985 493.622 695.509L493.172 749.041C493.172 749.041 509.016 754.836 522.278 753.065L524.237 667.165C524.237 667.165 521.376 618.453 520.31 609.109C519.691 604.258 519.442 599.367 519.565 594.478C519.565 594.478 520.015 579.855 521.524 573.077C521.524 573.077 523.163 543.667 523.335 535.528C523.409 531.635 523.204 520.274 522.974 509.471C522.72 497.66 522.433 486.521 522.433 486.521L526.384 462.521C526.384 462.521 522.433 462.521 521.524 463.743C521.123 464.124 520.684 464.462 520.212 464.751V464.751C515.048 468.243 496.803 478.98 496.803 478.98C496.803 478.98 486.729 482.996 484.27 488.75C481.811 494.504 480.172 498.586 479 500.226C477.828 501.865 477.188 509.57 477.188 509.57C477.188 509.57 473.713 523.75 471 526.151C468.287 528.553 466.328 543.799 466.328 543.799L490.303 562.651C490.303 562.651 492.409 594.011 492.868 595.224C493.327 596.437 484.139 623.584 484.139 623.584Z" fill="white"/>
<path opacity="0.1" d="M512.852 493.48L510.679 499.791L522.081 511.266C521.827 499.455 521.54 488.316 521.54 488.316L525.491 464.325C525.491 464.325 521.54 464.325 520.63 465.546C520.23 465.928 519.79 466.266 519.319 466.554V466.554L509.63 494.496L512.852 493.48Z" fill="black"/>
<path d="M513.778 491.668L511.606 497.972L522.999 509.447C522.753 497.636 522.458 486.496 522.458 486.496L526.417 462.497C526.417 462.497 522.458 462.497 521.556 463.718C521.154 464.098 520.715 464.435 520.245 464.726V464.726L510.499 492.693L513.778 491.668Z" fill="white"/>
<path opacity="0.1" d="M513.778 429.219C513.775 432.172 514.239 435.107 515.155 437.915C515.309 437.941 515.467 437.936 515.619 437.899C515.771 437.862 515.914 437.796 516.04 437.702C516.261 430.325 519.884 423.391 524.351 417.498C525.608 415.72 527.128 414.145 528.86 412.826C530.612 411.51 532.792 410.894 534.974 411.096C537.433 411.432 539.605 413.104 542.089 413.317C545.367 413.588 548.302 411.318 551.556 411.211C552.879 411.222 554.185 411.516 555.385 412.073C556.585 412.63 557.652 413.437 558.515 414.44C560.226 416.459 561.496 418.812 562.244 421.35C563.533 425.201 564.235 429.224 564.326 433.284C564.367 435.579 564.588 438.456 566.72 439.292C566.558 437.606 566.75 435.904 567.282 434.295C567.814 432.687 568.675 431.206 569.81 429.948L569.859 429.891C569.859 429.661 569.859 429.448 569.859 429.219C569.859 421.78 566.904 414.646 561.644 409.385C556.383 404.125 549.249 401.17 541.81 401.17C534.371 401.17 527.237 404.125 521.977 409.385C516.717 414.646 513.761 421.78 513.761 429.219H513.778Z" fill="black"/>
<path d="M530.171 384.687C534.43 382.683 539.275 382.304 543.794 383.621C546.064 384.293 548.204 385.383 550.507 385.933C555.425 387.121 561.162 385.834 565.384 388.711C567.728 390.351 569.138 392.941 570.449 395.465L573.728 401.703C575.515 405.121 577.318 408.596 578.064 412.358C578.81 416.121 578.359 420.334 575.974 423.366C574.244 425.563 571.67 426.948 569.785 429.022C568.653 430.286 567.794 431.771 567.264 433.384C566.733 434.996 566.542 436.701 566.703 438.391C564.572 437.571 564.359 434.678 564.31 432.383C564.218 428.323 563.516 424.3 562.228 420.448C561.48 417.91 560.21 415.557 558.498 413.539C557.636 412.534 556.569 411.726 555.369 411.167C554.169 410.609 552.863 410.314 551.54 410.301C548.261 410.416 545.318 412.686 542.072 412.408C539.614 412.203 537.433 410.531 534.958 410.194C532.775 409.988 530.594 410.605 528.843 411.924C527.11 413.239 525.592 414.815 524.343 416.596C519.868 422.498 516.237 429.399 516.024 436.801C515.098 437.473 513.761 436.587 513.302 435.538C512.843 434.489 512.827 433.26 512.245 432.26C511.573 431.104 510.286 430.481 509.278 429.612C506.721 427.407 506.081 423.694 506.18 420.325C506.278 416.957 506.934 413.539 506.294 410.227C505.909 408.203 505.04 406.293 504.565 404.285C504.09 402.277 504.032 400.023 505.155 398.293C506.794 395.76 510.245 395.252 513.253 395.014C516.671 394.719 519.729 395.096 521.909 392.219C522.935 390.72 524.087 389.311 525.351 388.006C525.802 387.572 530.171 384.867 530.171 384.687Z" fill="#512E4E"/>
<path opacity="0.1" d="M619.284 557.536L627.841 541.709L630.554 566.134C630.554 566.134 629.046 576.987 629.35 578.651C629.653 580.314 623.169 595.232 623.169 595.232C623.169 595.232 601.752 633.387 593.006 635.346L563.498 614.232L571.334 604.281C571.334 604.281 574.047 603.224 574.728 604.281C574.728 604.281 589.285 579.249 590.785 577.446C592.285 575.642 591.998 572.011 591.998 572.011C591.998 572.011 594.26 569.602 593.506 567.339C592.752 565.077 597.834 557.241 597.834 557.241L593.162 552.872L619.284 557.536Z" fill="black"/>
<path d="M627.39 539.897L629.653 541.709L632.366 566.134C632.366 566.134 630.858 576.987 631.161 578.651C631.464 580.315 624.972 595.232 624.972 595.232C624.972 595.232 603.563 633.387 594.817 635.346L565.26 614.232L573.105 604.281C573.105 604.281 575.818 603.224 576.498 604.281C576.498 604.281 591.047 579.249 592.555 577.446C594.063 575.642 593.76 572.011 593.76 572.011C593.76 572.011 596.022 569.602 595.268 567.339C594.514 565.077 599.645 557.241 599.645 557.241L594.973 552.872L627.39 539.897Z" fill="white"/>
<path opacity="0.1" d="M487.008 635.617C485.368 637.609 486.401 646.559 486.401 646.559L490.926 654.043C490.926 654.043 490.655 658.879 490.639 665.403L498.245 667.78C498.934 667.995 499.664 668.042 500.374 667.917C501.084 667.792 501.755 667.5 502.329 667.063C502.903 666.627 503.365 666.06 503.675 665.409C503.986 664.758 504.136 664.042 504.114 663.321L502.794 621.027L485.049 627.805C486.557 628.855 484.901 631.428 484.901 631.428C484.901 631.428 488.664 633.625 487.008 635.617Z" fill="black"/>
<path d="M486.106 634.715C484.467 636.699 485.5 645.649 485.5 645.649L490.008 653.141C490.008 653.141 489.737 657.969 489.713 664.493L497.459 666.911C498.131 667.122 498.844 667.169 499.539 667.048C500.233 666.927 500.889 666.641 501.45 666.215C502.012 665.789 502.463 665.235 502.767 664.599C503.071 663.963 503.218 663.263 503.196 662.559L501.876 620.117L484.139 626.912C485.655 627.961 484 630.535 484 630.535C484 630.535 487.762 632.723 486.106 634.715Z" fill="white"/>
<path d="M480.221 614.535C480.221 614.535 481.426 622.232 484.442 622.683C487.459 623.133 488.811 635.133 491.819 634.715C494.827 634.297 492.836 623.551 492.729 621.47C492.623 619.388 496.008 610.765 493.483 608.806C490.959 606.847 482.926 608.806 482.926 608.806L480.221 614.535Z" fill="#CF6F80"/>
<path opacity="0.1" d="M473.844 555.274L468.164 543.799C468.164 543.799 465.893 552.545 465.893 557.217C465.893 561.889 462.73 562.348 462.73 562.348C462.73 562.348 459.262 566.446 461.09 569.438C462.918 572.429 463.648 579.839 463.648 579.839C463.648 579.839 463.049 594.011 465.762 595.97C468.475 597.929 469.082 602.609 469.082 602.609C469.082 602.609 474.057 611.503 473.901 613.617C473.746 615.732 480.836 630.051 480.836 630.051C480.836 630.051 477.369 612.257 497.573 604.568C497.573 604.568 497.729 598.536 496.221 596.88C494.713 595.224 492.36 594.421 493.836 586.093C495.311 577.765 494.262 567.725 494.262 565.716C494.262 563.708 489.737 551.192 489.737 551.192L473.844 555.274Z" fill="black"/>
<path d="M471.32 542.159L466.353 543.799C466.353 543.799 464.082 552.544 464.082 557.217C464.082 561.889 460.918 562.348 460.918 562.348C460.918 562.348 457.451 566.446 459.279 569.438C461.107 572.429 461.844 579.839 461.844 579.839C461.844 579.839 461.238 594.011 463.951 595.97C466.664 597.929 467.23 602.609 467.23 602.609C467.23 602.609 472.205 611.502 472.049 613.617C471.893 615.732 478.992 630.051 478.992 630.051C478.992 630.051 475.525 612.257 495.729 604.568C495.729 604.568 495.877 598.535 494.368 596.88C492.86 595.224 490.508 594.421 491.983 586.093C493.459 577.765 492.409 567.725 492.409 565.716C492.409 563.708 487.885 551.192 487.885 551.192L471.32 542.159Z" fill="white"/>
<path opacity="0.1" d="M581.055 839.588C581.055 839.588 573.137 834.613 567.941 838.228C562.744 841.843 581.055 839.588 581.055 839.588Z" fill="black"/>
<path opacity="0.1" d="M519.515 824.204C519.515 824.204 512.507 823.302 506.622 829.638C500.737 835.974 519.515 824.204 519.515 824.204Z" fill="black"/>
<g opacity="0.1">
<path opacity="0.1" d="M509.278 427.809C510.286 428.686 511.581 429.301 512.253 430.456C512.827 431.448 512.843 432.678 513.302 433.735C513.761 434.792 515.097 435.669 516.032 434.997C516.245 427.62 519.876 420.694 524.343 414.793C525.592 413.014 527.11 411.441 528.843 410.129C530.596 408.807 532.78 408.187 534.966 408.391C537.425 408.727 539.589 410.399 542.072 410.612C545.351 410.883 548.294 408.613 551.548 408.506C552.87 408.516 554.174 408.809 555.373 409.367C556.572 409.924 557.638 410.731 558.498 411.735C560.209 413.754 561.48 416.107 562.228 418.645C563.516 422.496 564.218 426.519 564.31 430.579C564.359 432.866 564.572 435.719 566.687 436.571C566.638 437.179 566.638 437.791 566.687 438.399C564.547 437.579 564.334 434.686 564.285 432.391C564.193 428.331 563.491 424.308 562.203 420.457C561.455 417.919 560.185 415.565 558.474 413.547C557.613 412.543 556.547 411.735 555.348 411.176C554.15 410.618 552.845 410.322 551.523 410.309C548.244 410.424 545.294 412.694 542.048 412.416C539.589 412.211 537.409 410.539 534.941 410.203C532.756 409.996 530.573 410.613 528.819 411.932C527.086 413.247 525.568 414.823 524.319 416.604C519.851 422.506 516.22 429.407 516.007 436.809C515.073 437.481 513.737 436.596 513.278 435.546C512.819 434.497 512.802 433.268 512.229 432.268C511.557 431.112 510.261 430.489 509.253 429.62C506.696 427.415 506.057 423.702 506.155 420.334C506.155 420.227 506.155 420.129 506.155 420.022C506.319 422.957 507.098 425.932 509.278 427.809Z" fill="black"/>
<path opacity="0.1" d="M569.793 427.235C571.67 425.161 574.244 423.768 575.973 421.571C577.434 419.632 578.267 417.293 578.359 414.867C578.616 417.9 577.769 420.924 575.973 423.383C574.244 425.58 571.67 426.965 569.793 429.038C567.98 431.066 566.891 433.637 566.695 436.35C566.572 434.7 566.783 433.043 567.315 431.477C567.847 429.911 568.69 428.468 569.793 427.235Z" fill="black"/>
<path opacity="0.1" d="M504.565 402.482C505.048 404.49 505.909 406.4 506.303 408.424C506.539 409.793 506.624 411.184 506.557 412.572C506.53 411.788 506.445 411.007 506.303 410.236C505.909 408.211 505.048 406.301 504.565 404.293C504.287 403.185 504.196 402.038 504.294 400.9C504.347 401.433 504.438 401.961 504.565 402.482V402.482Z" fill="black"/>
</g>
<path opacity="0.1" d="M341.994 850.772C386.103 850.772 421.861 845.029 421.861 837.944C421.861 830.86 386.103 825.117 341.994 825.117C297.884 825.117 262.126 830.86 262.126 837.944C262.126 845.029 297.884 850.772 341.994 850.772Z" fill="#7C8EC8"/>
<path d="M344.568 592.203H339.428V707.914H344.568V592.203Z" fill="#535461"/>
<path d="M376.87 707.569L376.542 712.783L376.092 720.159L375.903 723.225L375.444 730.602L375.247 733.667L374.797 741.044L369.608 824.707C369.387 828.306 367.801 831.686 365.174 834.156C362.546 836.627 359.075 838.002 355.469 838.002H328.527C324.911 838.003 321.431 836.621 318.802 834.138C316.172 831.655 314.593 828.26 314.388 824.649L309.199 740.987L308.749 733.61L308.56 730.544L308.093 723.168L307.904 720.102L307.454 712.725L307.126 707.512C307.069 706.513 307.216 705.513 307.558 704.572C307.9 703.632 308.43 702.77 309.116 702.041C309.801 701.312 310.628 700.73 311.546 700.33C312.463 699.931 313.453 699.722 314.453 699.717H369.551C370.556 699.723 371.55 699.934 372.47 700.338C373.391 700.741 374.219 701.329 374.905 702.064C375.59 702.799 376.118 703.667 376.456 704.614C376.794 705.56 376.935 706.566 376.87 707.569V707.569Z" fill="#3F3D56"/>
<path d="M376.542 712.774L376.083 720.135H307.904L307.445 712.774H376.542Z" fill="#9D9CB5"/>
<path d="M375.895 723.2L375.444 730.561H308.552L308.093 723.2H375.895Z" fill="#9D9CB5"/>
<path d="M375.247 733.635L374.797 740.987H309.199L308.74 733.635H375.247Z" fill="#9D9CB5"/>
<path d="M299.634 635.579C329.568 657.234 342.035 691.103 342.035 691.103C342.035 691.103 305.97 689.865 276.028 668.209C246.086 646.554 233.602 612.71 233.602 612.71C233.602 612.71 269.667 613.924 299.634 635.579Z" fill="#7C8EC8"/>
<path d="M233.602 612.71C233.602 612.71 271.036 633.489 283.044 650.693C295.052 667.898 342.002 691.119 342.002 691.119" stroke="#535461" stroke-width="2" stroke-miterlimit="10"/>
<path d="M318.921 591.957C335.215 603.735 342.002 622.169 342.002 622.169C342.002 622.169 322.33 621.497 306.077 609.719C289.823 597.94 282.995 579.498 282.995 579.498C282.995 579.498 302.634 580.17 318.921 591.957Z" fill="#7C8EC8"/>
<path d="M282.995 579.498C282.995 579.498 303.372 590.809 309.913 600.17C316.453 609.53 342.002 622.169 342.002 622.169" stroke="#535461" stroke-width="2" stroke-miterlimit="10"/>
<path d="M365.674 621.235C346.961 641.8 343.002 668.677 343.002 668.677C343.002 668.677 369.387 662.201 388.083 641.628C406.78 621.055 410.755 594.186 410.755 594.186C410.755 594.186 384.387 600.67 365.674 621.235Z" fill="#7C8EC8"/>
<path d="M410.771 594.194C410.771 594.194 386.395 615.276 380.198 629.8C374.002 644.325 343.002 668.677 343.002 668.677" stroke="#535461" stroke-width="2" stroke-miterlimit="10"/>
<defs>
<linearGradient id="paint0_linear" x1="678.792" y1="866.95" x2="678.792" y2="393.475" gradientUnits="userSpaceOnUse">
<stop stop-color="#808080" stop-opacity="0.25"/>
<stop offset="0.54" stop-color="#808080" stop-opacity="0.12"/>
<stop offset="1" stop-color="#808080" stop-opacity="0.1"/>
</linearGradient>
<linearGradient id="paint1_linear" x1="-154711" y1="443902" x2="-154711" y2="133561" gradientUnits="userSpaceOnUse">
<stop stop-color="#808080" stop-opacity="0.25"/>
<stop offset="0.54" stop-color="#808080" stop-opacity="0.12"/>
<stop offset="1" stop-color="#808080" stop-opacity="0.1"/>
</linearGradient>
</defs>
</svg>
