<svg width="907" height="670" viewBox="0 0 907 670" fill="none" xmlns="http://www.w3.org/2000/svg">
<g clip-path="url(#clip0)">
<path opacity="0.1" d="M59.3631 262.605H138.193V370.015H65.127C64.9405 371.126 64.7541 372.228 64.5444 373.339H138.193V459.947C138.069 459.947 137.944 459.854 137.828 459.807C135.756 458.984 133.685 458.112 131.613 457.191C131.171 456.989 130.736 456.779 130.285 456.585C128.214 455.607 126.142 454.571 124.071 453.479C123.348 453.099 122.626 452.702 121.919 452.299C110.419 445.884 99.9668 437.751 90.9245 428.181C90.6526 427.925 90.404 427.646 90.1477 427.405C88.8893 426.038 87.6542 424.656 86.4579 423.243C86.0074 422.723 85.5723 422.195 85.1296 421.69C83.7158 419.966 82.3486 418.18 81.0281 416.387C80.8261 416.115 80.6397 415.851 80.4455 415.61C75.0358 408.127 70.5497 400.019 67.0845 391.462C66.9757 391.205 66.8748 390.926 66.7738 390.685C65.7018 387.967 64.7308 385.211 63.8918 382.4C63.5345 381.228 63.185 380.071 62.8898 378.852C62.781 378.502 62.6956 378.145 62.6024 377.796C58.2367 360.597 57.7318 342.722 57.7318 324.933C57.7318 322.862 57.7318 320.792 57.7318 318.721C57.794 311.458 57.8794 304.204 57.9882 296.956C58.0296 295.093 58.0684 293.222 58.1047 291.342C58.2134 286.585 58.3688 281.818 58.5708 277.04C58.6174 275.72 58.6795 274.392 58.7494 273.08C58.7805 272.319 58.8193 271.558 58.8659 270.797C59.0058 268.048 59.1715 265.318 59.3631 262.605Z" fill="#6C63FF"/>
<path opacity="0.1" d="M138.193 143.012H94.9484C101.981 132.021 109.662 121.457 117.949 111.378C124.381 103.489 131.155 95.8019 138.193 88.3943V143.012Z" fill="#6C63FF"/>
<path opacity="0.1" d="M138.193 146.32V259.282H59.6117C59.6117 258.956 59.6583 258.622 59.6894 258.296C59.7593 257.403 59.8292 256.517 59.9069 255.624C59.9846 254.584 60.0855 253.544 60.1865 252.519C60.2875 251.494 60.3885 250.251 60.5128 249.125C60.6371 247.999 60.7381 246.858 60.8623 245.732C60.9866 244.606 61.1109 243.48 61.2507 242.362C61.3906 241.244 61.5149 240.11 61.6702 238.992C61.7867 238.068 61.9033 237.137 62.0353 236.205C62.214 234.893 62.4004 233.58 62.5946 232.276C62.5946 232.074 62.6568 231.88 62.6878 231.686C64.1075 222.137 66.0367 212.671 68.4672 203.329C71.0195 193.53 74.2777 183.928 78.2161 174.599C82.401 164.824 87.303 155.372 92.8821 146.32H138.193Z" fill="#6C63FF"/>
<path opacity="0.1" d="M157.022 262.605V370.015H325.402V262.605H157.022ZM157.022 373.339V465.584C157.986 465.778 158.933 465.973 159.889 466.136C161.171 466.384 162.46 466.609 163.773 466.803L164.55 466.912C165.062 466.997 165.583 467.067 166.103 467.129C167.401 467.316 168.698 467.456 169.987 467.58C170.593 467.642 171.222 467.689 171.836 467.743L173.335 467.852C174.151 467.914 174.959 467.96 175.767 467.991C176.264 467.991 176.761 468.03 177.266 468.046C177.771 468.061 178.043 468.046 178.447 468.046H179.915C180.583 468.046 181.251 468.046 181.911 468.046H182.766C183.434 468.046 184.102 468.046 184.762 467.984H184.801C185.267 467.984 185.725 467.984 186.191 467.929C186.323 467.937 186.456 467.937 186.587 467.929C186.976 467.929 187.364 467.929 187.737 467.883C187.825 467.876 187.913 467.876 188.001 467.883C188.864 467.828 189.734 467.758 190.611 467.681C191.489 467.603 192.32 467.51 193.198 467.417L194.961 467.199C202.167 466.191 209.292 464.676 216.285 462.665C231.999 458.285 247.357 452.159 263.064 447.679C283.354 441.894 305.788 439.044 325.394 446.087V373.339H157.022ZM325.402 143.012V0.0155302C306.969 -0.187186 288.586 1.96557 270.699 6.42148C228.061 17.1291 189.772 40.3536 157.022 70.0151V143.004H165.497V146.32H157.022V259.282H325.402V146.32H200.166V142.996L325.402 143.012ZM541.725 94.7071C531.176 94.3344 520.689 91.0033 511.197 85.8397C493.066 75.9862 478.571 60.7517 462.383 47.9087C428.747 21.1435 387.033 4.98499 344.239 0.978364V143.012H584.589L585.187 142.383L541.725 94.7071ZM563.623 90.8247L586.842 116.301V84.1237C579.027 85.1098 572.222 87.4004 563.623 90.7936V90.8247ZM586.842 488.49V373.339H537.328C537.204 372.849 537.064 372.353 536.909 371.856C537.057 372.353 537.189 372.849 537.321 373.339H344.239V456.608C346.072 457.967 347.882 459.404 349.677 460.848C351.614 462.432 353.537 464.034 355.448 465.654L357.375 467.246C358.299 468.022 359.239 468.799 360.171 469.537C362.041 471.043 363.923 472.534 365.819 474.009C366.766 474.755 367.719 475.487 368.677 476.207C383.85 487.797 399.854 498.259 416.559 507.506C420.303 509.595 424.086 511.606 427.893 513.571C430.425 514.875 432.976 516.154 435.544 517.406C439.397 519.286 443.281 521.097 447.196 522.842C483.291 539.038 521.459 550.149 560.609 555.858C569.299 557.136 578.028 558.146 586.795 558.886V488.475H587.572L586.842 488.49ZM344.239 146.32V259.282H586.842V146.32H344.239ZM344.239 262.59V370.015H586.842V262.605L344.239 262.59ZM605.671 83.9684V119.919L635.298 87.4082C625.48 85.7879 615.604 84.6413 605.671 83.9684ZM605.671 262.605V370.015H841.625V262.605H605.671ZM840.793 497.008L841.625 373.339H605.671V560.136C620.87 560.768 636.091 560.584 651.27 559.585H651.534C658.784 559.119 666 558.456 673.183 557.597H673.346C711.678 553.137 749.157 543.13 784.607 527.889L840.793 497.008ZM887.145 280.247C886.249 278.176 885.33 276.105 884.387 274.035C882.632 270.152 880.783 266.379 878.872 262.613H860.462V370.015H907C906.961 339.593 899.255 308.534 887.145 280.247ZM860.462 373.339V479.716C873.567 467.161 884.652 452.788 892.622 436.358C902.215 416.565 906.604 395.15 906.969 373.331L860.462 373.339ZM860.462 231.305V259.258H877.148C872.09 249.649 866.52 240.318 860.462 231.305ZM700.441 105.05C699.214 104.576 697.979 104.102 696.743 103.652C683.721 98.8412 670.412 94.8424 656.894 91.6788L611.544 141.42L610.658 142.375L611.241 143.004H772.645C750.164 127.541 725.927 114.801 700.441 105.05ZM777.383 146.32H608.98L605.671 149.34V259.282H634.685H841.625V206.015C822.913 183.396 801.315 163.326 777.383 146.32Z" fill="#6C63FF"/>
<path opacity="0.1" d="M138.193 203.305V259.282H59.6117C59.6117 258.956 59.6583 258.622 59.6894 258.296C59.7593 257.403 59.8292 256.517 59.9069 255.624C59.9846 254.584 60.0855 253.544 60.1865 252.519C60.2875 251.494 60.3885 250.251 60.5128 249.125C60.6371 247.999 60.7381 246.858 60.8623 245.732C60.9866 244.606 61.1109 243.48 61.2507 242.362C61.3906 241.244 61.5149 240.11 61.6702 238.992C61.7867 238.068 61.9033 237.137 62.0353 236.205C62.214 234.893 62.4004 233.58 62.5946 232.276C62.5946 232.074 62.6568 231.88 62.6878 231.686C64.1075 222.137 66.0367 212.671 68.4672 203.329L138.193 203.305Z" fill="#6C63FF"/>
<path opacity="0.1" d="M59.3631 262.605H138.193V370.015H65.127C64.9405 371.126 64.7541 372.228 64.5444 373.339H138.193V459.947C138.069 459.947 137.944 459.854 137.828 459.807C135.756 458.984 133.685 458.112 131.613 457.191C131.171 456.989 130.736 456.779 130.285 456.585C128.214 455.607 126.142 454.571 124.071 453.479C123.348 453.099 122.626 452.702 121.919 452.299C110.419 445.884 99.9668 437.751 90.9245 428.181C90.6526 427.925 90.404 427.646 90.1477 427.405C88.8893 426.038 87.6542 424.656 86.4579 423.243C86.0074 422.723 85.5723 422.195 85.1296 421.69C83.7158 419.966 82.3486 418.18 81.0281 416.387C80.8261 416.115 80.6397 415.851 80.4455 415.61C75.0358 408.127 70.5497 400.019 67.0845 391.462C66.9757 391.205 66.8748 390.926 66.7738 390.685C65.7018 387.967 64.7308 385.211 63.8918 382.4C63.5345 381.228 63.185 380.071 62.8898 378.852C62.781 378.502 62.6956 378.145 62.6024 377.796C58.2367 360.597 57.7318 342.722 57.7318 324.933C57.7318 322.862 57.7318 320.792 57.7318 318.721C57.794 311.458 57.8794 304.204 57.9882 296.956C58.0296 295.093 58.0684 293.222 58.1047 291.342C58.2134 286.585 58.3688 281.818 58.5708 277.04C58.6174 275.72 58.6795 274.392 58.7494 273.08C58.7805 272.319 58.8193 271.558 58.8659 270.797C59.0058 268.048 59.1715 265.318 59.3631 262.605Z" fill="#6C63FF"/>
<path opacity="0.1" d="M216.292 162.501V259.282H157.015V162.501H165.466V129.734H200.158V162.501H216.292Z" fill="#6C63FF"/>
<path opacity="0.1" d="M216.285 262.597H157.015V370.008H216.285V262.597Z" fill="#6C63FF"/>
<path opacity="0.1" d="M157.022 373.339H216.292V462.634C209.301 464.646 202.175 466.159 194.969 467.161C194.379 467.246 193.796 467.316 193.206 467.378C192.336 467.479 191.474 467.572 190.611 467.65L188.009 467.859H187.745L186.595 467.921H186.199C185.733 467.921 185.275 467.976 184.809 467.984H184.77C184.102 467.984 183.441 468.03 182.773 468.046H181.919C181.259 468.046 180.598 468.046 179.923 468.046H178.462H177.274C176.769 468.046 176.272 468.046 175.767 467.984C174.969 467.953 174.161 467.906 173.343 467.844L171.844 467.735C171.222 467.689 170.601 467.626 169.987 467.564C168.682 467.45 167.388 467.303 166.103 467.122L164.55 466.904L163.773 466.796C162.476 466.601 161.186 466.384 159.889 466.136C158.926 465.965 157.978 465.771 157.022 465.569V373.339Z" fill="#6C63FF"/>
<path opacity="0.1" d="M586.834 151.072H537.958V259.274H586.834V151.072Z" fill="#6C63FF"/>
<path opacity="0.1" d="M586.842 262.597V370.015H344.239V323.683H473.46V351.015H537.958V262.597H586.842Z" fill="#6C63FF"/>
<path opacity="0.1" d="M587.611 488.514C587.354 488.514 587.098 488.514 586.834 488.467V558.933C578.077 558.213 569.351 557.206 560.656 555.912C521.492 550.205 483.309 539.099 447.196 522.912C436.772 518.211 426.559 513.089 416.559 507.545C399.859 498.293 383.858 487.832 368.685 476.245C364.863 473.326 361.098 470.342 357.39 467.293C354.819 465.165 352.271 462.991 349.677 460.887C347.89 459.435 346.08 457.998 344.239 456.632V373.339H537.321C537.181 372.842 537.057 372.353 536.917 371.856C537.064 372.353 537.204 372.842 537.328 373.339H586.842V488.459C587.098 488.467 587.354 488.49 587.611 488.514Z" fill="#6C63FF"/>
<path opacity="0.1" d="M714.315 143.012H682.466V133.12H696.736V103.652C697.973 104.108 699.206 104.574 700.433 105.05V133.12H714.307L714.315 143.012Z" fill="#6C63FF"/>
<path opacity="0.1" d="M791.055 259.282H634.685C634.7 259.285 634.716 259.285 634.731 259.282H634.662H605.671V151.079H613.89V231.057H651.44V183.692H682.474V146.32H714.322V183.715H745.34V231.08H791.063L791.055 259.282Z" fill="#6C63FF"/>
<path opacity="0.1" d="M605.671 262.605V370.015H791.063V262.605H605.671ZM841.36 496.442L841.625 411.417H791.063V373.37H605.671V560.136C620.87 560.768 636.091 560.584 651.27 559.585H651.534C658.784 559.119 666 558.456 673.183 557.597H673.346C711.678 553.137 749.157 543.13 784.607 527.889" fill="#6C63FF"/>
<path opacity="0.1" d="M863.724 373.339H906.969C906.596 395.15 902.215 416.573 892.621 436.358C884.652 452.796 873.567 467.168 860.462 479.724V411.394H863.724V373.339Z" fill="#6C63FF"/>
<path opacity="0.1" d="M907 370.015H863.725V280.247H887.145C899.255 308.534 906.961 339.593 907 370.015Z" fill="#6C63FF"/>
<path opacity="0.1" d="M586.842 181.152H560.656V215.077H586.842V181.152Z" fill="#6C63FF"/>
<path opacity="0.1" d="M586.842 251.47H560.656V259.282H586.842V251.47Z" fill="#6C63FF"/>
<path opacity="0.1" d="M586.842 262.597H560.656V285.387H586.842V262.597Z" fill="#6C63FF"/>
<path opacity="0.1" d="M586.842 321.788H560.656V355.713H586.842V321.788Z" fill="#6C63FF"/>
<path opacity="0.1" d="M586.842 392.106H560.656V426.03H586.842V392.106Z" fill="#6C63FF"/>
<path opacity="0.1" d="M586.842 488.459C587.098 488.459 587.354 488.459 587.618 488.514C587.362 488.514 587.106 488.514 586.842 488.467V496.348H560.656V462.424H586.842V488.459Z" fill="#6C63FF"/>
<path opacity="0.1" d="M586.842 532.734V558.933C578.079 558.213 569.351 557.206 560.656 555.912V532.734H586.842Z" fill="#6C63FF"/>
<path opacity="0.1" d="M456.463 367.523H344.239V370.015H456.463V367.523Z" fill="#6C63FF"/>
<path opacity="0.1" d="M456.463 373.331H344.239V382.882H456.463V373.331Z" fill="#6C63FF"/>
<path opacity="0.1" d="M456.463 414.189H344.239V429.548H456.463V414.189Z" fill="#6C63FF"/>
<path opacity="0.1" d="M456.464 460.856V476.214H368.685C364.863 473.305 361.098 470.318 357.39 467.254C354.811 465.134 352.264 462.96 349.677 460.856H456.464Z" fill="#6C63FF"/>
<path opacity="0.1" d="M456.463 507.514V522.912H447.196C436.772 518.211 426.559 513.089 416.559 507.545L456.463 507.514Z" fill="#6C63FF"/>
<path opacity="0.1" d="M673.362 273.01H651.27V295.093H673.362V273.01Z" fill="#6C63FF"/>
<path opacity="0.1" d="M195.023 170.119H172.931V192.202H195.023V170.119Z" fill="#6C63FF"/>
<path opacity="0.1" d="M195.023 221.413H172.931V243.496H195.023V221.413Z" fill="#6C63FF"/>
<path opacity="0.1" d="M195.023 272.707H172.931V294.79H195.023V272.707Z" fill="#6C63FF"/>
<path opacity="0.1" d="M195.023 323.993H172.931V346.076H195.023V323.993Z" fill="#6C63FF"/>
<path opacity="0.1" d="M195.023 375.288H172.931V397.371H195.023V375.288Z" fill="#6C63FF"/>
<path opacity="0.1" d="M195.023 426.582H172.931V448.665H195.023V426.582Z" fill="#6C63FF"/>
<path opacity="0.1" d="M757.699 273.01H735.607V295.093H757.699V273.01Z" fill="#6C63FF"/>
<path opacity="0.1" d="M673.362 327.48H651.27V349.563H673.362V327.48Z" fill="#6C63FF"/>
<path opacity="0.1" d="M757.699 327.48H735.607V349.563H757.699V327.48Z" fill="#6C63FF"/>
<path opacity="0.1" d="M673.362 381.942H651.27V404.025H673.362V381.942Z" fill="#6C63FF"/>
<path opacity="0.1" d="M757.699 381.942H735.607V404.025H757.699V381.942Z" fill="#6C63FF"/>
<path opacity="0.1" d="M673.362 436.412H651.27V458.495H673.362V436.412Z" fill="#6C63FF"/>
<path opacity="0.1" d="M757.699 436.412H735.607V458.495H757.699V436.412Z" fill="#6C63FF"/>
<path opacity="0.1" d="M673.362 490.882H651.27V512.965H673.362V490.882Z" fill="#6C63FF"/>
<path opacity="0.1" d="M757.699 490.882H735.607V512.965H757.699V490.882Z" fill="#6C63FF"/>
<path opacity="0.1" d="M651.27 559.585V545.344H673.354V557.558L651.27 559.585Z" fill="#6C63FF"/>
<path opacity="0.1" d="M62.5946 231.662V244.296H138.193V231.662H62.5946ZM70.1218 243.504H63.9074V232.462H70.1218V243.504ZM77.649 243.504H71.4346V232.462H77.649V243.504ZM85.1607 243.504H78.9463V232.462H85.1607V243.504ZM92.6879 243.504H86.4734V232.462H92.6879V243.504ZM100.207 243.504H93.9929V232.462H100.207V243.504ZM107.734 243.504H101.52V232.462H107.734V243.504ZM115.262 243.504H109.047V232.462H115.262V243.504ZM122.781 243.504H116.567V232.462H122.781V243.504ZM130.301 243.504H124.086V232.462H130.301V243.504ZM137.828 243.504H131.613V232.462H137.828V243.504Z" fill="#6C63FF"/>
<path opacity="0.1" d="M62.5946 268.436V281.07H138.193V268.436H62.5946ZM70.1218 280.278H63.9074V269.236H70.1218V280.278ZM77.649 280.278H71.4346V269.236H77.649V280.278ZM85.1607 280.278H78.9463V269.236H85.1607V280.278ZM92.6879 280.278H86.4734V269.236H92.6879V280.278ZM100.207 280.278H93.9929V269.236H100.207V280.278ZM107.734 280.278H101.52V269.236H107.734V280.278ZM115.262 280.278H109.047V269.236H115.262V280.278ZM122.781 280.278H116.567V269.236H122.781V280.278ZM130.301 280.278H124.086V269.236H130.301V280.278ZM137.828 280.278H131.613V269.236H137.828V280.278Z" fill="#6C63FF"/>
<path opacity="0.1" d="M62.5946 305.218V317.844H138.193V305.218H62.5946ZM70.1218 317.044H63.9074V306.002H70.1218V317.044ZM77.649 317.044H71.4346V306.002H77.649V317.044ZM85.1607 317.044H78.9463V306.002H85.1607V317.044ZM92.6879 317.044H86.4734V306.002H92.6879V317.044ZM100.207 317.044H93.9929V306.002H100.207V317.044ZM107.734 317.044H101.52V306.002H107.734V317.044ZM115.262 317.044H109.047V306.002H115.262V317.044ZM122.781 317.044H116.567V306.002H122.781V317.044ZM130.301 317.044H124.086V306.002H130.301V317.044ZM137.828 317.044H131.613V306.002H137.828V317.044Z" fill="#6C63FF"/>
<path opacity="0.1" d="M62.5946 341.992V354.618H138.193V341.992H62.5946ZM70.1218 353.826H63.9074V342.769H70.1218V353.826ZM77.649 353.826H71.4346V342.769H77.649V353.826ZM85.1607 353.826H78.9463V342.769H85.1607V353.826ZM92.6879 353.826H86.4734V342.769H92.6879V353.826ZM100.207 353.826H93.9929V342.769H100.207V353.826ZM107.734 353.826H101.52V342.769H107.734V353.826ZM115.262 353.826H109.047V342.769H115.262V353.826ZM122.781 353.826H116.567V342.769H122.781V353.826ZM130.301 353.826H124.086V342.769H130.301V353.826ZM137.828 353.826H131.613V342.769H137.828V353.826Z" fill="#6C63FF"/>
<path opacity="0.1" d="M62.9597 378.751C63.2549 379.946 63.6045 381.127 63.9618 382.299V379.55H70.1762V390.584H66.8437C66.9369 390.848 67.0379 391.12 67.1467 391.361H138.224V378.751H62.9597ZM77.7189 390.584H71.5045V379.55H77.7189V390.584ZM85.2306 390.584H79.0162V379.55H85.2306V390.584ZM92.7578 390.584H86.5434V379.55H92.7578V390.584ZM100.277 390.584H94.0628V379.55H100.277V390.584ZM107.804 390.584H101.59V379.55H107.804V390.584ZM115.332 390.584H109.117V379.55H115.332V390.584ZM122.851 390.584H116.637V379.55H122.851V390.584ZM130.37 390.584H124.156V379.55H130.37V390.584ZM137.898 390.584H131.683V379.55H137.898V390.584Z" fill="#6C63FF"/>
<path opacity="0.1" d="M80.4688 415.525C80.6707 415.773 80.8572 416.053 81.0514 416.301H85.1606V421.605L86.489 423.158V416.27H92.7034V427.405H90.1477C90.3963 427.661 90.6371 427.933 90.9245 428.181H138.177V415.525H80.4688ZM100.246 427.405H94.0317V416.317H100.246V427.405ZM107.773 427.405H101.559V416.317H107.773V427.405ZM115.3 427.405H109.086V416.317H115.3V427.405ZM122.82 427.405H116.606V416.317H122.82V427.405ZM130.339 427.405H124.125V416.317H130.339V427.405ZM137.867 427.405H131.652V416.317H137.867V427.405Z" fill="#6C63FF"/>
<path opacity="0.1" d="M121.942 452.299C122.657 452.703 123.379 453.075 124.102 453.471V453.083H130.316V456.585C130.767 456.779 131.194 456.989 131.637 457.191V453.083H137.851V459.807C137.969 459.861 138.091 459.905 138.216 459.939V452.299H121.942Z" fill="#6C63FF"/>
<path opacity="0.1" d="M586.834 488.459H587.611H586.834ZM536.909 371.856C537.057 372.352 537.189 372.849 537.321 373.339C537.204 372.849 537.064 372.352 536.909 371.856ZM165.497 143.012V146.32H200.197V142.996L165.497 143.012ZM586.842 488.459H587.619H586.842ZM536.909 371.856C537.057 372.352 537.189 372.849 537.321 373.339C537.204 372.849 537.064 372.352 536.909 371.856ZM586.834 488.459H587.611H586.834ZM536.909 371.856C537.057 372.352 537.189 372.849 537.321 373.339C537.204 372.849 537.064 372.352 536.909 371.856Z" fill="#6C63FF"/>
<path opacity="0.1" d="M683.142 670C724.945 670 758.833 664.559 758.833 657.848C758.833 651.137 724.945 645.696 683.142 645.696C641.338 645.696 607.45 651.137 607.45 657.848C607.45 664.559 641.338 670 683.142 670Z" fill="#6C63FF"/>
<path opacity="0.1" d="M341.769 657.848C383.572 657.848 417.46 652.408 417.46 645.696C417.46 638.985 383.572 633.544 341.769 633.544C299.966 633.544 266.077 638.985 266.077 645.696C266.077 652.408 299.966 657.848 341.769 657.848Z" fill="#6C63FF"/>
<path d="M428.91 324.374C428.892 324.297 428.851 324.227 428.794 324.172C427.636 323.031 412.877 302.167 412.877 302.167C412.877 302.167 412.1 299.837 410.842 296.809C411.245 296.287 411.548 295.694 411.735 295.062C411.803 294.794 411.853 294.521 411.883 294.247C411.883 294.161 411.945 294.091 411.968 294.006C412.238 292.953 412.211 291.846 411.891 290.807C411.804 291.073 411.698 291.333 411.572 291.583C411.28 290.679 410.889 289.809 410.407 288.99C408.449 285.62 405.653 282.778 403.594 279.493C400.477 274.39 399.238 268.36 400.091 262.442C400.091 262.745 400.091 263.055 400.091 263.358C400.169 262.184 400.325 261.017 400.557 259.864C400.882 258.552 401.316 257.268 401.854 256.028C403.703 251.796 406.694 248.108 408.512 243.861C409.122 242.428 409.585 240.938 409.894 239.412C410.535 236.863 410.768 234.229 410.586 231.608C410.586 232.229 410.485 232.85 410.391 233.464C410.195 227.161 407.649 221.16 403.253 216.637C396.906 210.263 387.794 207.786 379.079 206.481C375.416 206.054 371.918 204.72 368.903 202.599C365.555 200.432 361.228 199.912 357.313 200.386C352.813 200.872 348.632 202.938 345.513 206.217C341.373 210.767 339.578 217.212 334.747 221.048C331.818 223.377 328.105 224.464 324.695 226.048C321.285 227.632 318.061 229.931 316.966 233.332C316.966 233.332 316.966 233.285 316.966 233.262V233.456L316.919 233.58C315.785 237.602 317.976 241.694 319.117 245.709C320.306 249.863 320.384 254.25 320.446 258.544C320.531 263.793 320.609 269.05 320.523 274.307C320.485 276.372 320.415 278.461 320.259 280.518C318.421 281.074 316.635 281.791 314.923 282.661C313.183 283.795 306.673 290.822 306.673 290.822L293.941 339.445L294.112 339.639L293.941 340.299L294.586 340.152C296.388 342.093 301.771 347.622 307.582 351.069L308.126 360.604C308.126 360.604 308.778 370.171 317.579 374.123C317.781 377.438 318.411 390.903 315.498 396.237C313.48 400.134 312.532 404.496 312.748 408.878C312.748 408.878 313.765 416.969 312.608 421.224C311.932 424.068 311.881 427.024 312.46 429.89C312.46 429.89 312.46 430.829 312.46 432.444C312.46 441.055 312.561 468.651 312.46 471.773C312.313 475.461 312.46 530.009 312.46 530.009C312.46 530.009 311.738 557.271 309.423 564.655C307.108 572.04 307.691 596.491 307.691 596.491C307.691 596.491 306.238 625.617 311.373 631.362C311.373 631.619 311.326 631.883 311.318 632.139C311.318 632.255 311.318 632.387 311.318 632.504C311.256 634.717 311.683 637.07 313.587 637.792C317.471 639.283 322.605 643.755 323.576 645.036C324.547 646.317 330.195 649.509 337.559 648.655C342.172 648.136 346.814 647.924 351.456 648.018C351.456 648.018 354.361 647.49 353.421 643.879C352.815 641.627 350.547 638.164 348.931 635.889C349.226 635.967 349.514 636.029 349.785 636.083L350.065 636.138H350.283C350.402 636.145 350.521 636.145 350.64 636.138H350.795C350.94 636.15 351.086 636.15 351.23 636.138C353.18 635.951 360.451 639.337 361.748 641.573C363.045 643.809 367.621 645.51 371.07 645.937C373.121 646.185 378.294 645.766 382.636 645.207C384.823 644.981 386.989 644.587 389.115 644.027C390.14 643.639 390.358 642.396 390.063 640.999C389.714 639.223 388.765 637.622 387.375 636.464C386.116 635.571 384.454 633.218 383.227 631.293L382.9 630.772C385.068 628.707 388.983 621.952 390.171 620.554C391.616 618.853 387.841 556.665 387.841 556.665V525.49L393.628 495.983L397.675 480.368L401.148 456.795C401.148 456.795 407.222 429.261 405.35 426.558C405.35 426.504 403.796 398.155 402.165 391.345C401.458 388.309 401.637 381.476 402.056 374.829C402.495 374.394 402.8 373.844 402.938 373.242C403.075 372.639 403.039 372.011 402.833 371.428C402.717 371.03 402.567 370.643 402.383 370.272C402.383 370.155 402.383 370.031 402.383 369.914C405.738 368.371 409.245 367.179 412.846 366.358C418.633 365.224 417.188 362.243 417.188 362.243C417.188 362.243 418.493 359.688 419.356 358.127C420.218 356.567 419.503 342.792 419.356 341.658C419.301 341.2 418.944 338.669 418.532 335.796C420.389 334.476 422.805 332.838 425.438 331.285C430.448 328.318 429.322 325.189 428.91 324.374ZM353.405 521.235C353.405 521.235 349.063 532.307 350.803 535.141C352.543 537.975 350.516 548.497 350.516 548.497L349.063 564.112C349.063 564.112 345.016 593.074 346.461 599.884C347.595 605.226 348.014 621.183 348.146 627.837C348.047 627.876 347.951 627.923 347.859 627.977L347.665 628.078C348.333 625.461 348.053 620.166 344.736 609.512L344.457 565.509C344.457 565.509 343.944 514.681 347.96 508.997C351.976 503.313 353.398 493.662 353.398 493.662C353.398 493.662 352.528 507.584 351.961 511.272C351.393 514.961 353.405 521.235 353.405 521.235ZM345.319 630.609C345.28 630.702 345.233 630.796 345.202 630.881L344.985 630.602C345.096 630.612 345.207 630.615 345.319 630.609Z" fill="url(#paint0_linear)"/>
<path d="M389.604 648.049C387.359 648.911 375.187 650.378 371.784 649.967C368.382 649.555 363.877 647.831 362.595 645.58C361.313 643.328 354.128 639.927 352.201 640.144C351.412 640.168 350.624 640.058 349.871 639.818C348.542 639.416 347.244 638.918 345.987 638.327C345.811 637.349 345.841 636.344 346.072 635.377C346.117 635.182 346.174 634.99 346.243 634.802C346.697 633.528 347.635 632.485 348.853 631.898L349.133 631.766C349.672 631.534 350.234 631.362 350.811 631.254C356.917 630.081 382.108 632.434 382.108 632.434C382.108 632.434 382.815 633.7 383.786 635.268C384.998 637.209 386.645 639.578 387.888 640.471C389.264 641.647 390.199 643.257 390.536 645.036C390.832 646.411 390.614 647.668 389.604 648.049Z" fill="white"/>
<path opacity="0.1" d="M389.604 648.049C387.359 648.911 375.195 650.378 371.792 649.967C368.39 649.555 363.885 647.824 362.595 645.58C361.306 643.336 354.136 639.927 352.209 640.144C350.283 640.362 345.995 638.327 345.995 638.327C345.995 638.327 345.327 635.221 347.269 633.102L351.153 635.858C351.153 635.858 361.546 639.081 363.473 642.07C365.399 645.059 368.91 646.729 373.983 647.032C377.774 647.28 386.482 645.805 390.56 645.067C390.832 646.411 390.622 647.668 389.604 648.049Z" fill="black"/>
<path d="M352.419 652.009C347.837 651.92 343.254 652.135 338.7 652.654C331.406 653.508 325.837 650.324 324.866 649.012C323.895 647.7 318.869 643.266 315.008 641.713C313.12 640.983 312.678 638.607 312.763 636.386C312.763 636.27 312.763 636.138 312.763 636.021C312.835 634.615 313.043 633.218 313.385 631.852L343.61 631.207L346.228 634.756L346.632 635.299L348.224 637.466C348.224 637.466 348.947 638.413 349.894 639.795C351.494 642.124 353.732 645.564 354.33 647.839C355.285 651.481 352.419 652.009 352.419 652.009Z" fill="white"/>
<path opacity="0.1" d="M352.419 652.009C347.837 651.92 343.254 652.135 338.7 652.654C331.414 653.508 325.837 650.324 324.873 649.012C323.91 647.7 318.869 643.227 315.008 641.728C313.12 640.999 312.678 638.622 312.763 636.402C314.923 636.906 319.459 638.195 321.238 640.439C323.568 643.437 327.74 648.476 333.667 648.794C338.452 649.051 350.104 648.196 354.376 647.855C355.293 651.481 352.419 652.009 352.419 652.009Z" fill="black"/>
<path opacity="0.1" d="M348.822 631.867C348.473 634.461 347.393 635.159 346.616 635.315C346.426 635.352 346.231 635.352 346.041 635.315C345.939 635.307 345.838 635.292 345.738 635.268C345.738 635.268 318.597 641.263 313.113 636.41C312.974 636.285 312.844 636.15 312.724 636.006C312.796 634.599 313.004 633.203 313.346 631.836L343.571 631.192L346.189 634.74C346.642 633.466 347.58 632.423 348.799 631.836L348.822 631.867Z" fill="black"/>
<path opacity="0.1" d="M383.778 635.237C383.172 635.905 382.667 636.285 382.349 636.153C380.92 635.579 369.206 633.583 365.485 635.299C361.764 637.015 349.172 635.579 349.172 635.579C349.172 635.579 349.172 634.088 349.102 631.696C349.64 631.464 350.203 631.292 350.78 631.184C356.885 630.011 382.077 632.364 382.077 632.364C382.077 632.364 382.815 633.669 383.778 635.237Z" fill="black"/>
<path d="M401.505 459.598L398.071 483.311L394.079 499.027L388.361 528.735V560.183C388.361 560.183 392.075 622.751 390.645 624.46C389.216 626.168 383.786 635.897 382.357 635.33C380.927 634.763 369.213 632.76 365.492 634.468C361.772 636.177 349.18 634.756 349.18 634.756C349.18 634.756 348.892 610.475 347.463 603.619C346.034 596.763 350.034 567.621 350.034 567.621L351.463 551.913C351.463 551.913 353.468 541.337 351.751 538.48C350.034 535.623 354.322 524.503 354.322 524.503C354.322 524.503 352.326 518.206 352.9 514.495C353.475 510.783 354.322 496.783 354.322 496.783C354.322 496.783 352.9 506.505 348.931 512.212C344.962 517.919 345.466 569.066 345.466 569.066L345.746 613.325C352.9 636.759 345.746 634.468 345.746 634.468C345.746 634.468 318.605 640.471 313.121 635.61C307.636 630.749 309.205 600.156 309.205 600.156C309.205 600.156 308.638 575.588 310.922 568.165C313.206 560.742 313.928 533.309 313.928 533.309C313.928 533.309 313.781 478.45 313.928 474.747C314.037 471.641 313.928 443.835 313.928 435.146C313.928 433.531 313.928 432.576 313.928 432.576L317.206 424.439L356.046 419.578H374.628C374.628 419.578 402.592 426.147 405.482 428.981C405.544 429.028 405.596 429.086 405.637 429.152C407.51 431.893 401.505 459.598 401.505 459.598Z" fill="#7C8EC8"/>
<path opacity="0.1" d="M354.345 584.16C354.345 584.16 362.89 604.729 366.922 606.158C370.953 607.587 354.345 584.16 354.345 584.16Z" fill="black"/>
<path opacity="0.1" d="M357.507 614.443C357.507 614.443 386.357 615.872 386.07 619.016C385.782 622.161 357.507 614.443 357.507 614.443Z" fill="black"/>
<path opacity="0.1" d="M318.908 606.22C320.049 607.299 340.914 609.326 339.198 611.298C337.481 613.271 320.624 617.106 320.624 617.106L318.908 606.22Z" fill="black"/>
<path opacity="0.1" d="M315.482 570.735C315.482 571.589 319.77 598.16 320.92 599.302C322.069 600.443 331.492 601.584 331.492 601.584L315.482 570.735Z" fill="black"/>
<path d="M346.593 207.545C342.499 212.118 340.728 218.602 335.958 222.469C333.061 224.798 329.394 225.909 326.023 227.493C322.652 229.077 319.312 231.492 318.309 235.079C317.191 239.117 319.35 243.24 320.485 247.277C321.657 251.455 321.727 255.819 321.797 260.19C321.875 265.478 321.96 270.766 321.867 276.054C321.727 284.292 321.044 292.911 316.67 299.892C332.463 304.915 349.257 305.599 365.819 306.243C369.001 306.47 372.198 306.389 375.365 306.002C378.11 305.456 380.824 304.769 383.499 303.945C388.786 302.546 394.234 301.849 399.703 301.872C402.087 301.872 404.519 302.019 406.818 301.398C409.117 300.777 411.331 299.185 411.953 296.887C412.504 294.821 411.696 292.624 410.64 290.768C408.713 287.382 405.979 284.556 403.913 281.217C401.803 277.69 400.552 273.718 400.259 269.619C399.966 265.521 400.641 261.411 402.227 257.62C404.06 253.357 407.012 249.646 408.814 245.375C410.66 240.79 411.151 235.771 410.229 230.915C409.306 226.06 407.009 221.57 403.61 217.981C397.341 211.567 388.346 209.082 379.739 207.762C376.115 207.334 372.657 205.999 369.687 203.88C366.386 201.706 362.105 201.178 358.237 201.659C353.774 202.159 349.641 204.248 346.593 207.545Z" fill="#3F3D56"/>
<g opacity="0.1">
<path opacity="0.1" d="M402.468 253.14C400.884 256.881 400.206 260.944 400.487 264.997C400.661 262.098 401.331 259.251 402.468 256.58C404.294 252.317 407.245 248.605 409.048 244.334C410.521 240.768 411.141 236.908 410.858 233.06C410.697 235.757 410.086 238.408 409.048 240.902C407.245 245.173 404.294 248.877 402.468 253.14Z" fill="black"/>
<path opacity="0.1" d="M322.03 259.134C322.077 262.178 322.124 265.23 322.131 268.273C322.131 264.08 322.093 259.895 322.03 255.71C321.968 251.369 321.891 246.975 320.718 242.789C319.941 240.134 318.791 237.439 318.387 234.761C317.696 238.565 319.661 242.424 320.718 246.221C321.891 250.368 321.968 254.794 322.03 259.134Z" fill="black"/>
<path opacity="0.1" d="M407.082 296.956C404.752 297.585 402.359 297.446 399.975 297.43C394.51 297.395 389.064 298.079 383.778 299.464C381.104 300.285 378.389 300.969 375.645 301.514C372.476 301.908 369.276 301.991 366.091 301.763C350.088 301.134 333.861 300.458 318.535 295.885C318.08 296.9 317.561 297.886 316.981 298.836C332.774 303.852 349.568 304.543 366.122 305.187C369.307 305.415 372.507 305.332 375.676 304.939C378.411 304.399 381.115 303.717 383.778 302.896C389.053 301.506 394.488 300.814 399.944 300.839C402.328 300.839 404.752 300.986 407.051 300.357C409.351 299.728 411.564 298.152 412.186 295.854C412.448 294.789 412.421 293.674 412.108 292.624C411.417 294.798 409.281 296.312 407.082 296.956Z" fill="black"/>
</g>
<path d="M384.073 287.755C383.499 289.044 381.075 300.179 380.5 301.32C379.925 302.462 376.787 320.732 376.5 321.757C376.212 322.782 355.813 317.471 355.813 317.471L343.532 307.183L330.909 294.627C330.909 294.627 330.536 283.298 339.835 279.664C340.467 279.416 341.116 279.214 341.777 279.059C353.056 276.349 351.922 242.067 351.922 242.067L375.07 252.06C375.07 252.06 370.782 272.063 370.93 275.922C370.969 277.218 371.986 278.026 373.315 278.515C375.369 279.099 377.507 279.33 379.638 279.198C379.638 279.198 384.648 286.474 384.073 287.755Z" fill="#FBBEBE"/>
<path d="M425.516 325.321L428.802 326.183C428.802 326.183 431.233 329.879 425.516 333.319C421.885 335.523 418.401 337.959 415.083 340.61L398.188 345.75L394.933 335.54L410.656 323.613L425.516 325.321Z" fill="#7C8EC8"/>
<path opacity="0.1" d="M425.516 325.321L428.802 326.183C428.802 326.183 431.233 329.879 425.516 333.319C421.885 335.523 418.401 337.959 415.083 340.61L398.188 345.75L394.933 335.54L410.656 323.613L425.516 325.321Z" fill="black"/>
<path d="M302.214 335.183L295.643 341.612C295.643 341.612 307.497 355.324 316.616 356.178C325.736 357.033 331.616 345.75 331.616 345.75L323.724 333.327L302.214 335.183Z" fill="#7C8EC8"/>
<path opacity="0.1" d="M302.214 335.183L295.643 341.612C295.643 341.612 307.497 355.324 316.616 356.178C325.736 357.033 331.616 345.75 331.616 345.75L323.724 333.327L302.214 335.183Z" fill="#7C8EC8"/>
<path opacity="0.1" d="M364.638 264.469C377.264 264.469 387.499 254.237 387.499 241.617C387.499 228.996 377.264 218.765 364.638 218.765C352.012 218.765 341.777 228.996 341.777 241.617C341.777 254.237 352.012 264.469 364.638 264.469Z" fill="black"/>
<path d="M364.638 262.753C377.264 262.753 387.499 252.521 387.499 239.901C387.499 227.28 377.264 217.049 364.638 217.049C352.012 217.049 341.777 227.28 341.777 239.901C341.777 252.521 352.012 262.753 364.638 262.753Z" fill="#FBBEBE"/>
<path opacity="0.1" d="M405.653 431.745C400.447 432.341 395.32 433.489 390.358 435.17C381.813 438.012 314.853 435.216 313.921 435.17C313.921 433.555 313.921 432.599 313.921 432.599L317.199 424.462L356.039 419.601H374.62C374.62 419.601 402.585 426.17 405.474 429.004C405.591 430.713 405.653 431.745 405.653 431.745Z" fill="black"/>
<path opacity="0.1" d="M384.073 287.755C383.499 289.044 381.075 300.179 380.5 301.32C379.925 302.462 376.787 320.732 376.5 321.757C376.212 322.782 355.813 317.471 355.813 317.471L343.532 307.183L330.909 294.627C330.909 294.627 330.536 283.298 339.835 279.664L362.921 306.197L373.315 278.515C375.369 279.099 377.507 279.33 379.638 279.198C379.638 279.198 384.648 286.474 384.073 287.755Z" fill="black"/>
<path d="M362.921 307.051L339.291 279.874C337.908 278.991 336.327 278.466 334.69 278.345C333.054 278.225 331.413 278.513 329.915 279.183C324.625 281.473 318.053 283.329 316.336 284.471C314.62 285.612 308.188 292.678 308.188 292.678L327.344 342.769L318.908 375.761C318.908 375.761 320.197 392.619 316.911 398.761C314.91 402.688 313.973 407.07 314.192 411.471C314.192 411.471 315.194 419.617 314.053 423.895C313.385 426.756 313.335 429.726 313.905 432.607C313.905 432.607 381.79 435.465 390.358 432.607C395.319 430.922 400.447 429.774 405.653 429.183C405.653 429.183 404.099 400.609 402.546 393.752C400.992 386.896 403.835 360.76 403.835 360.76L401.979 332.76L413.118 304.03C413.118 304.03 407.082 285.612 400.79 283.756C400.79 283.756 389.363 281.039 386.932 279.757C384.501 278.476 377.354 277.327 377.354 277.327L373.602 278.585L362.921 307.051Z" fill="#7C8EC8"/>
<path opacity="0.1" d="M395.89 331.814L346.166 328.435C344.907 328.349 343.818 329.3 343.732 330.557L338.394 409.033C338.308 410.291 339.259 411.38 340.517 411.466L390.242 414.846C391.501 414.931 392.59 413.981 392.676 412.723L398.014 334.247C398.1 332.989 397.149 331.9 395.89 331.814Z" fill="black"/>
<path d="M397.603 330.11L347.878 326.73C346.62 326.645 345.53 327.595 345.444 328.853L340.106 407.329C340.02 408.587 340.971 409.676 342.23 409.762L391.954 413.141C393.213 413.227 394.302 412.276 394.388 411.019L399.726 332.543C399.812 331.285 398.861 330.196 397.603 330.11Z" fill="#3F3D56"/>
<path d="M395.962 336.262L348.67 333.047L343.811 404.489L391.102 407.703L395.962 336.262Z" fill="white"/>
<path opacity="0.1" d="M391.721 354.497L353.091 351.794L352.337 362.556L390.968 365.259L391.721 354.497Z" fill="black"/>
<path opacity="0.1" d="M390.324 397.264L384.193 396.848L383.812 402.456L389.942 402.873L390.324 397.264Z" fill="black"/>
<path opacity="0.1" d="M384.277 383.728L352.896 381.595L352.515 387.204L383.895 389.337L384.277 383.728Z" fill="black"/>
<path d="M390.108 333.59L357.434 331.37L356.847 339.992L389.522 342.213L390.108 333.59Z" fill="#3F3D56"/>
<path opacity="0.1" d="M390.108 333.59L357.434 331.37L356.847 339.992L389.522 342.213L390.108 333.59Z" fill="black"/>
<path opacity="0.1" d="M365.78 430.169C365.78 430.169 365.492 472.456 354.345 496.737C354.345 496.737 367.784 464.738 367.784 463.457C367.784 462.176 375.21 448.742 373.222 444.744C371.233 440.745 365.78 430.169 365.78 430.169Z" fill="black"/>
<path opacity="0.1" d="M366.386 234.186C365.959 230.443 366.875 226.67 368.972 223.54C368.723 226.678 369.611 229.8 371.473 232.337C373.336 234.875 376.049 236.658 379.117 237.362C378.856 237.135 378.669 236.833 378.581 236.498C378.494 236.163 378.51 235.809 378.628 235.483C380.22 237.284 381.44 239.419 383.242 241.003C385.044 242.587 387.748 243.535 389.868 242.409C392.75 240.856 392.781 236.764 392.036 233.58C390.435 226.8 387.152 220.533 382.489 215.356C381.325 213.792 379.815 212.517 378.077 211.634C376.338 210.75 374.418 210.281 372.468 210.263C368.056 209.921 363.473 210.309 359.519 212.289C357.294 213.503 355.21 214.959 353.304 216.63L342.429 225.497C341.383 226.251 340.487 227.194 339.788 228.277C339.321 229.183 339.041 230.173 338.965 231.189C338.687 234.093 339.224 237.017 340.517 239.633C341.81 242.248 343.806 244.452 346.282 245.996C346.23 243.701 346.861 241.442 348.096 239.506C349.332 237.571 351.115 236.046 353.219 235.125C353.548 235.401 353.815 235.744 354.002 236.131C354.188 236.518 354.289 236.94 354.299 237.369L356.59 233.285C356.931 232.542 357.468 231.906 358.144 231.445C359.558 230.668 361.321 231.585 362.525 232.68C363.729 233.774 364.902 235.141 366.518 235.312L366.58 229.232" fill="black"/>
<path d="M366.386 233.332C365.957 229.586 366.874 225.811 368.972 222.679C368.273 228.89 372.957 235.304 379.125 236.5C378.863 236.275 378.676 235.975 378.588 235.64C378.501 235.306 378.518 234.953 378.636 234.629C380.228 236.43 381.448 238.557 383.25 240.149C385.052 241.741 387.755 242.681 389.876 241.547C392.758 239.994 392.789 235.902 392.043 232.726C390.443 225.946 387.16 219.679 382.497 214.502C381.05 212.739 379.226 211.322 377.16 210.356C375.664 209.803 374.092 209.483 372.499 209.408C368.087 209.067 363.504 209.447 359.55 211.427C357.326 212.646 355.242 214.104 353.335 215.776L342.46 224.643C341.412 225.395 340.516 226.338 339.819 227.423C339.351 228.328 339.071 229.318 338.996 230.335C338.718 233.238 339.256 236.16 340.549 238.775C341.842 241.389 343.838 243.591 346.313 245.134C346.263 242.839 346.895 240.581 348.13 238.646C349.365 236.711 351.147 235.186 353.25 234.264C353.578 234.54 353.844 234.883 354.031 235.27C354.217 235.657 354.319 236.079 354.33 236.508L356.614 232.439C356.952 231.694 357.49 231.058 358.167 230.599C359.581 229.822 361.344 230.738 362.548 231.833C363.752 232.928 364.925 234.287 366.541 234.465L366.603 228.378" fill="#3F3D56"/>
<path d="M377.214 377.47C375.218 376.46 342.204 381.608 342.204 381.608C342.204 381.608 336.766 380.055 323.623 377.897C310.479 375.738 309.64 362.895 309.64 362.895L308.203 337.186L312.639 333.303L331.639 345.727C331.639 345.727 331.935 352.009 331.639 353.142C331.453 353.919 330.956 354.843 331.002 355.472C331.017 355.642 331.087 355.803 331.202 355.929C331.317 356.056 331.471 356.141 331.639 356.171C332.929 356.497 350.5 359.339 350.5 359.339C350.5 359.339 391.228 356.551 401.381 370.264C402.185 371.27 402.794 372.419 403.175 373.649C405.692 383.021 379.024 378.362 377.214 377.47Z" fill="#FBBEBE"/>
<path opacity="0.1" d="M403.198 373.704C401.645 374.395 400.681 374.892 400.681 374.892C400.681 374.892 386.109 374.465 377.921 371.498C369.734 368.532 359.783 369.06 359.783 369.06C359.783 369.06 325.666 363.19 330.956 355.526C330.97 355.697 331.04 355.857 331.156 355.984C331.271 356.11 331.424 356.195 331.593 356.225C332.882 356.551 350.453 359.393 350.453 359.393C350.453 359.393 391.181 356.606 401.334 370.318C402.163 371.319 402.796 372.468 403.198 373.704Z" fill="black"/>
<path d="M417.367 328.466C417.367 328.466 419.371 342.606 419.511 343.755C419.651 344.904 420.373 358.749 419.511 360.325C418.649 361.901 417.367 364.463 417.367 364.463C417.367 364.463 418.796 367.461 413.079 368.61C407.362 369.759 400.65 373.176 400.65 373.176C400.65 373.176 386.07 372.749 377.929 369.751C369.788 366.754 359.783 367.321 359.783 367.321C359.783 367.321 316.476 359.89 335.057 350.821C353.638 341.751 366.782 354.035 366.782 354.035L387.499 352.754C387.499 352.754 395.22 348.033 397.364 348.468C398.878 348.661 400.416 348.413 401.792 347.754L401.94 332.752L417.367 328.466Z" fill="#FBBEBE"/>
<path opacity="0.1" d="M312.313 293.757L308.164 293.54L295.596 342.458C295.596 342.458 309.167 339.026 315.016 342.458C320.865 345.89 331.593 346.597 331.593 346.597L327.592 307.602L312.313 293.757Z" fill="black"/>
<path d="M312.313 292.895L308.164 292.678L295.596 341.596C295.596 341.596 309.167 338.164 315.016 341.596C320.865 345.028 331.593 345.735 331.593 345.735L327.592 306.74L312.313 292.895Z" fill="#7C8EC8"/>
<path opacity="0.1" d="M407.37 303.611L413.079 304.9C413.079 304.9 427.66 325.865 428.802 327.037C429.944 328.21 423.364 332.473 420.653 332.473C417.942 332.473 404.651 334.026 400.79 337.613C396.929 341.2 398.537 323.147 398.537 322.736C398.537 322.324 403.33 310.933 403.33 310.933L407.37 303.611Z" fill="black"/>
<path d="M407.37 302.757L413.079 304.038C413.079 304.038 427.66 325.042 428.802 326.183C429.944 327.325 423.364 331.618 420.653 331.618C417.942 331.618 404.651 333.171 400.79 336.759C396.929 340.346 398.537 322.293 398.537 321.881C398.537 321.47 403.361 310.04 403.361 310.04L407.37 302.757Z" fill="#7C8EC8"/>
<g opacity="0.1">
<path opacity="0.1" d="M368.934 222.748C368.9 222.153 368.913 221.556 368.972 220.962C367.79 222.736 366.976 224.73 366.58 226.825V228.626C366.58 228.626 366.58 228.588 366.58 228.564V228.991C366.58 230.249 366.58 231.515 366.541 232.773H366.432V233.355C366.432 233.153 366.432 232.959 366.393 232.757C364.84 232.509 363.729 231.204 362.572 230.164C361.414 229.123 359.604 228.129 358.19 228.929C357.513 229.388 356.976 230.025 356.637 230.769L354.33 234.838C354.32 234.41 354.218 233.989 354.032 233.603C353.846 233.218 353.579 232.876 353.25 232.602C351.146 233.522 349.363 235.047 348.127 236.983C346.892 238.918 346.261 241.177 346.313 243.473C344.191 242.143 342.415 240.328 341.133 238.177C339.852 236.027 339.1 233.602 338.941 231.103C338.806 233.893 339.418 236.668 340.714 239.143C342.01 241.618 343.943 243.702 346.313 245.181C346.263 242.886 346.895 240.628 348.13 238.693C349.365 236.757 351.147 235.232 353.25 234.31C353.578 234.587 353.844 234.93 354.031 235.316C354.217 235.703 354.319 236.125 354.33 236.554L356.614 232.485C356.952 231.741 357.49 231.104 358.167 230.645C359.581 229.869 361.344 230.785 362.548 231.88C363.752 232.975 364.925 234.333 366.541 234.512C366.541 232.524 366.562 230.542 366.603 228.564C366.984 226.49 367.777 224.512 368.934 222.748Z" fill="black"/>
<path opacity="0.1" d="M366.308 230.568C366.347 230.04 366.409 229.512 366.487 229.015L366.572 226.871C366.339 228.089 366.25 229.329 366.308 230.568Z" fill="black"/>
<path opacity="0.1" d="M389.876 239.831C387.755 240.965 385.052 240.017 383.25 238.433C381.448 236.849 380.228 234.714 378.636 232.912C378.518 233.238 378.502 233.592 378.589 233.928C378.676 234.263 378.863 234.564 379.125 234.792C378.97 234.792 378.822 234.714 378.675 234.675C380.228 236.461 381.463 238.558 383.25 240.11C385.037 241.663 387.755 242.642 389.876 241.508C391.997 240.374 392.603 237.719 392.416 235.133C392.276 237.168 391.546 238.93 389.876 239.831Z" fill="black"/>
<path opacity="0.1" d="M378.628 234.66C376.03 233.952 373.711 232.467 371.981 230.405C370.251 228.343 369.193 225.801 368.949 223.121C368.506 229.216 373.105 235.327 379.125 236.5C378.869 236.277 378.684 235.983 378.596 235.655C378.507 235.328 378.519 234.981 378.628 234.66Z" fill="black"/>
</g>
<path d="M751.679 361.567C751.679 361.567 748.618 361.14 748.618 356.691C748.618 352.242 746.427 343.91 746.427 343.91C746.427 343.91 744.532 329.413 741.914 327.115C739.296 324.816 735.933 311.321 735.933 311.321C735.933 311.321 735.358 303.999 734.185 302.423C733.012 300.847 731.427 296.988 729.089 291.482C726.751 285.977 717.026 282.203 717.026 282.203C717.026 282.203 699.4 271.985 694.405 268.654C693.948 268.378 693.521 268.055 693.131 267.691C692.261 266.557 688.47 266.534 688.47 266.534C688.074 264.026 687.694 261.153 687.569 258.552C687.569 258.272 687.569 257.993 687.569 257.713C693.139 254.422 697.334 249.234 699.384 243.1C699.478 242.805 699.555 242.502 699.641 242.199C699.982 242.094 700.296 241.918 700.564 241.682C700.832 241.447 701.047 241.157 701.194 240.833C701.637 239.831 701.653 238.666 702.212 237.727C702.864 236.624 704.107 236.034 705.086 235.211C707.556 233.107 708.193 229.574 708.077 226.367C707.999 223.758 707.58 221.133 707.743 218.548C707.743 218.33 707.743 218.113 707.789 217.895C707.836 217.515 707.89 217.119 707.96 216.746C708.341 214.821 709.172 213.004 709.638 211.093C710.104 209.183 710.151 207.032 709.063 205.386C707.471 202.971 704.154 202.49 701.241 202.28C697.94 202.001 695.027 202.358 692.875 199.617C691.888 198.186 690.775 196.845 689.55 195.61C689.115 195.207 684.889 192.621 684.889 192.458C680.755 190.536 676.064 190.175 671.684 191.441C669.485 192.077 667.427 193.118 665.197 193.638C660.412 194.772 654.897 193.545 650.827 196.286C648.558 197.839 647.199 200.316 645.925 202.715C644.889 204.693 643.838 206.673 642.771 208.655C641.047 211.909 639.307 215.217 638.584 218.819C638.433 219.606 638.337 220.403 638.297 221.203C638.297 221.49 638.297 221.778 638.297 222.065C638.297 222.189 638.297 222.314 638.297 222.438C638.297 222.702 638.297 222.966 638.344 223.214C638.39 223.463 638.344 223.533 638.398 223.696C638.452 223.859 638.468 224.224 638.514 224.472C638.561 224.721 638.654 225.163 638.747 225.497C638.747 225.645 638.841 225.784 638.887 225.932C638.934 226.079 639.058 226.452 639.159 226.708C639.26 226.965 639.268 226.98 639.33 227.112C639.447 227.384 639.586 227.648 639.726 227.889C639.788 227.99 639.835 228.091 639.897 228.192C640.11 228.555 640.349 228.903 640.612 229.232C642.266 231.305 644.721 232.625 646.531 234.566C646.531 234.644 646.531 234.722 646.531 234.799C646.531 235.009 646.531 235.219 646.531 235.436C646.642 239.766 647.809 244.003 649.932 247.778C652.055 251.554 655.069 254.754 658.711 257.1C658.711 257.395 658.75 257.698 658.766 258.001C658.917 260.303 658.888 262.613 658.68 264.911C658.363 264.54 657.967 264.244 657.521 264.045C657.075 263.846 656.59 263.749 656.101 263.762C655.767 263.745 655.433 263.774 655.107 263.847L655.037 263.793V263.863C653.328 264.282 651.223 266.06 649.211 271.115C649.211 271.115 643.09 278.01 638.429 277.723C633.768 277.436 621.969 284.906 621.969 284.906C621.969 284.906 610.456 292.367 607.986 299.977C606.605 304.293 604.947 308.515 603.022 312.618L588.753 341.907L586.135 365.201C586.135 365.201 587.587 375.536 587.3 377.12C587.013 378.704 593.274 392.914 593.274 392.914C593.274 392.914 613.96 429.237 622.411 431.101L623.017 430.682C623.38 430.865 623.764 431.005 624.159 431.101L625.899 429.882C626.007 431.247 625.96 432.619 625.759 433.974C624.602 437.569 626.202 460.972 628.237 465.561C630.273 470.15 629.55 530.327 629.55 530.327L629.263 535.63C629.263 535.63 629.263 535.801 629.333 536.096L629.263 537.354L629.472 537.463C629.69 539.15 629.619 540.862 629.263 542.526C628.533 544.855 628.237 551.432 628.237 551.432C628.237 551.432 622.411 588.609 625.177 596.079C627.942 603.549 630.28 611.733 630.28 611.733C630.28 611.733 633.193 621.051 630.42 622.604C627.647 624.157 619.794 626.913 621.394 630.788C622.87 634.375 628.47 643.988 629.302 645.393L629.232 646.17L628.09 658.539C628.275 660.172 628.718 661.766 629.403 663.26C630.653 665.962 633.077 668.75 637.707 668.447C638.483 668.393 639.377 668.307 640.254 668.191C648.714 667.049 659.123 663.276 659.123 663.276C658.583 662.934 658.09 662.524 657.655 662.057C657.239 661.654 656.909 661.171 656.686 660.637C656.463 660.103 656.352 659.529 656.357 658.951C656.482 656.691 652.264 645.968 651.207 643.32L650.966 642.73C650.966 642.73 660.583 632.675 658.983 623.776C658.983 623.776 648.341 617.564 651.844 614.148C655.348 610.731 661.609 600.948 661.609 600.948C661.609 600.948 661.896 564.337 661.609 558.878C661.309 555.081 661.489 551.262 662.145 547.51C662.261 546.951 662.401 546.4 662.549 545.849C667.398 546.58 672.295 546.951 677.199 546.959C678.991 546.959 680.803 546.923 682.637 546.85C682.637 547.368 682.66 547.927 682.707 548.528C683.11 557.597 683.864 573.507 684.478 579.416C685.348 587.88 690.156 610.716 690.156 610.716C690.156 610.716 680.982 616.594 691.756 631.106C691.756 631.106 691.756 636.355 691.042 637.124C690.278 639.614 689.663 642.147 689.201 644.71C688.75 647.435 688.564 650.208 689.294 651.636C691.042 655.068 701.528 654.789 701.528 654.789C701.613 654.769 701.698 654.756 701.785 654.75C703.764 654.541 705.765 654.728 707.671 655.302C709.577 655.875 711.35 656.823 712.885 658.089C716.87 661.288 731.987 659.89 740.182 658.865C743.39 658.454 745.534 658.089 745.534 658.089C745.637 657.726 745.674 657.347 745.643 656.971C745.557 654.96 743.98 650.549 733.292 646.612C733.292 646.612 723.24 639.857 723.38 633.971H723.155H721.997C722.727 633.948 723.24 633.948 723.24 633.948C723.24 633.948 719.302 619.591 720.91 618.419C722.518 617.246 717.701 601.336 717.701 601.336C717.701 601.336 714.944 574.625 714.788 572.762C714.799 571.156 715.045 569.56 715.519 568.025L714.788 553.373C714.788 553.373 714.649 548.504 714.788 546.92C714.773 545.545 714.664 544.173 714.462 542.813C714.392 542.269 714.322 541.702 714.245 541.143C718.012 540.188 720.459 539.311 720.459 539.311L720.024 488.335C723.224 482.123 723.815 468.488 723.799 458.829C723.799 452.617 723.52 448.02 723.52 448.02L727.893 440.884C727.893 440.884 728.903 432.343 727.303 430.472C726.596 429.626 726.914 428.748 727.497 428.026C727.803 427.775 728.128 427.546 728.468 427.343C728.43 427.289 728.396 427.231 728.367 427.172C728.672 426.917 728.997 426.686 729.338 426.481C729.338 426.481 727.784 424.074 729.175 423.057C730.48 423.942 731.645 424.648 732.53 425.153C732.468 425.72 732.406 426.046 732.406 426.046L732.779 425.27C733.634 425.751 734.154 426.046 734.154 426.046C734.154 426.046 741.005 412.403 740.858 410.4C740.71 408.397 745.519 399.917 745.519 399.917C745.519 399.917 746.101 395.461 748.727 393.597C751.352 391.733 750.762 378.23 750.762 378.23C750.762 378.23 751.492 371.196 753.24 368.33C754.988 365.465 751.679 361.567 751.679 361.567ZM620.586 355.581L620.718 358.834C619.941 357.584 619.382 356.691 619.382 356.691L620.586 355.581Z" fill="url(#paint1_linear)"/>
<path d="M734.558 420.145L732.88 427.288C732.88 427.288 719.441 420.417 717.026 411.72C714.61 403.023 721.073 399.708 721.073 399.708L733.602 405.003L734.558 420.145Z" fill="white"/>
<path opacity="0.1" d="M734.558 420.145L732.88 427.288C732.88 427.288 719.441 420.417 717.026 411.72C714.61 403.023 721.073 399.708 721.073 399.708L733.602 405.003L734.558 420.145Z" fill="black"/>
<path d="M659.139 663.268C659.139 663.268 646.71 667.834 638.165 668.408C633.628 668.711 631.244 665.931 630.016 663.252C629.349 661.775 628.914 660.204 628.727 658.594L629.853 646.286L630.444 639.741L648.597 635.02L651.169 642.885L651.409 643.476C652.435 646.108 656.583 656.777 656.459 659.005C656.449 659.581 656.556 660.154 656.773 660.688C656.991 661.222 657.315 661.706 657.725 662.111C658.145 662.555 658.62 662.944 659.139 663.268Z" fill="white"/>
<path d="M743.996 657.01C744.028 657.386 743.992 657.765 743.888 658.128C743.888 658.128 717.306 662.554 711.868 658.128C710.339 656.835 708.558 655.875 706.637 655.309C704.716 654.744 702.699 654.585 700.713 654.843C700.713 654.843 690.428 655.123 688.711 651.737C687.997 650.316 688.183 647.56 688.626 644.85C689.078 642.301 689.68 639.781 690.428 637.302L690.84 636.976L693.287 635.012L721.935 634.166H722.153C722.013 640.02 731.871 646.737 731.871 646.737C742.365 650.619 743.911 655.006 743.996 657.01Z" fill="white"/>
<path opacity="0.1" d="M744.004 657.01C744.031 657.386 743.992 657.765 743.887 658.128C743.887 658.128 717.305 662.554 711.876 658.128C710.346 656.834 708.563 655.873 706.641 655.308C704.719 654.742 702.7 654.584 700.713 654.843C700.713 654.843 690.42 655.123 688.704 651.737C687.997 650.316 688.175 647.56 688.618 644.842C692.58 645.238 698.833 646.224 701.288 648.585C705.001 652.156 711.293 655.728 715.146 656.016C718.191 656.202 736.298 656.777 744.004 657.01Z" fill="black"/>
<path opacity="0.1" d="M659.138 663.268C659.138 663.268 646.71 667.834 638.165 668.408C633.628 668.711 631.243 665.931 630.016 663.252C633.185 664.316 637.574 665.427 639.882 664.409C642.616 663.19 652.31 662.414 657.748 662.08C658.158 662.534 658.625 662.934 659.138 663.268Z" fill="black"/>
<path d="M677.58 295.303C667.326 291.319 654.136 278.158 657.429 272.008C658.157 270.455 658.592 268.781 658.711 267.07C658.923 264.746 658.954 262.41 658.804 260.081C658.573 256.266 658.114 252.467 657.429 248.706C657.429 248.706 689.441 249.428 687.577 254.141C687.033 255.531 686.94 257.931 687.095 260.609C687.251 263.288 687.631 266.34 688.035 268.91C688.587 272.427 689.154 275.122 689.154 275.122C689.154 275.122 687.189 277.863 686.047 278.01C684.905 278.158 692.292 301.01 677.58 295.303Z" fill="#CF6F80"/>
<path opacity="0.1" d="M651.378 643.437L651.137 643.701C641.567 632.131 629.993 646.558 629.993 646.558L629.822 646.248L630.412 639.702L648.566 634.981L651.137 642.847L651.378 643.437Z" fill="black"/>
<path opacity="0.1" d="M722.168 634.981C722.168 634.981 715.177 634.841 711.448 638.133C707.72 641.426 689.698 638.84 690.475 638.133C690.701 637.775 690.84 637.368 690.879 636.945L693.325 634.981L721.974 634.134C722.083 634.678 722.168 634.981 722.168 634.981Z" fill="black"/>
<path d="M663.287 544.125C662.767 545.412 662.372 546.746 662.106 548.108C661.458 551.84 661.278 555.638 661.57 559.414C661.857 564.849 661.57 601.274 661.57 601.274C661.57 601.274 655.426 610.988 651.992 614.412C648.559 617.836 658.983 623.986 658.983 623.986C660.537 632.846 651.122 642.847 651.122 642.847C641.552 631.277 629.977 645.696 629.977 645.696C629.977 645.696 623.685 634.826 622.116 630.943C620.547 627.061 628.261 624.382 630.972 622.798C633.683 621.214 630.832 611.927 630.832 611.927C630.832 611.927 628.548 603.782 625.829 596.351C623.111 588.92 628.828 551.936 628.828 551.936C628.828 551.936 629.123 545.36 629.83 543.069C630.183 541.416 630.254 539.715 630.04 538.038C629.993 537.471 629.939 537.005 629.9 536.679C629.861 536.353 629.83 536.213 629.83 536.213L629.939 536.026L633.823 528.79C633.823 528.79 665.151 539.567 663.287 544.125Z" fill="#7C8EC8"/>
<path d="M722.168 634.127C722.168 634.127 715.177 633.979 711.448 637.233C707.72 640.486 689.698 637.947 690.475 637.233C691.252 636.518 691.182 631.238 691.182 631.238C680.609 616.803 689.628 610.949 689.628 610.949C689.628 610.949 684.913 588.237 684.058 579.812C683.46 573.934 682.722 558.071 682.326 549.087C682.155 545.204 682.054 542.526 682.054 542.526L690.615 540.825L691.725 540.608L712.559 536.422C712.559 536.422 713.134 540.305 713.522 543.481C713.719 544.836 713.825 546.203 713.841 547.573C713.709 549.126 713.841 553.994 713.841 553.994L714.556 568.561C714.094 570.09 713.854 571.677 713.841 573.274C713.989 575.138 716.7 601.701 716.7 601.701C716.7 601.701 721.415 617.557 719.807 618.698C718.199 619.839 722.168 634.127 722.168 634.127Z" fill="#7C8EC8"/>
<path opacity="0.1" d="M687.577 254.165C687.033 255.555 686.94 257.954 687.096 260.633C682.808 263.214 677.878 264.533 672.874 264.44C667.87 264.347 662.993 262.844 658.805 260.105C658.573 256.289 658.114 252.49 657.43 248.729C657.43 248.729 689.442 249.451 687.577 254.165Z" fill="black"/>
<path d="M699.936 237.02C700.02 244.065 697.302 250.855 692.378 255.896C687.454 260.938 680.728 263.817 673.68 263.902C666.632 263.986 659.839 261.269 654.796 256.347C649.753 251.425 646.872 244.702 646.787 237.657C646.787 237.439 646.787 237.237 646.787 237.02C646.787 229.973 649.588 223.214 654.573 218.231C659.558 213.248 666.319 210.449 673.369 210.449C680.419 210.449 687.181 213.248 692.166 218.231C697.151 223.214 699.951 229.973 699.951 237.02H699.936Z" fill="#CF6F80"/>
<path opacity="0.1" d="M677.58 295.303C667.326 291.319 654.136 278.158 657.429 272.008C658.157 270.455 658.592 268.781 658.711 267.07L672.748 278.608L681.433 285.729L688.035 268.933C688.587 272.451 689.154 275.145 689.154 275.145C689.154 275.145 687.189 277.886 686.047 278.034C684.905 278.181 692.292 301.01 677.58 295.303Z" fill="black"/>
<path d="M713.88 346.294L702.158 543.131L686.87 544.133L647.277 429.998L653.771 294.495L655.146 265.866L672.748 280.317L681.433 287.437L688.23 270.145L700.868 281.155L713.88 346.294Z" fill="#7C8EC8"/>
<path opacity="0.1" d="M663.287 544.125C662.767 545.412 662.371 546.746 662.106 548.108C650.971 546.395 640.157 543.021 630.024 538.1L629.814 537.991L629.884 536.741V536.089L633.768 528.852C633.768 528.852 665.151 539.567 663.287 544.125Z" fill="black"/>
<path opacity="0.1" d="M690.871 548.139C688.027 548.625 685.159 548.955 682.279 549.126C682.109 545.243 682.008 542.564 682.008 542.564L690.615 540.825L690.871 548.139Z" fill="black"/>
<path opacity="0.1" d="M713.553 543.481C708.03 544.917 699.493 546.532 691.865 545.523L691.756 540.608L712.59 536.422C712.59 536.422 713.142 540.274 713.553 543.481Z" fill="black"/>
<path opacity="0.1" d="M691.725 546.423C659.876 551.859 630.708 536.275 630.708 536.275L630.987 530.995C630.987 530.995 631.71 471.136 629.706 466.547C627.701 461.958 626.14 438.718 627.274 435.17C628.408 431.621 623.134 378.044 623.134 378.044L622.279 356.303L590.982 343.592L604.964 314.451C606.852 310.366 608.477 306.164 609.827 301.872C612.259 294.301 623.545 286.87 623.545 286.87C623.545 286.87 635.12 279.447 639.695 279.726C644.271 280.006 650.267 273.157 650.267 273.157C654.695 261.875 658.703 266.946 658.703 266.946C658.703 267.489 658.703 266.946 658.486 268.615C656.932 281 683.608 320.134 683.988 320.833L686.56 382.687L689.131 460.964L691.725 546.423Z" fill="black"/>
<path d="M690.871 546.423C659.022 551.859 629.845 536.275 629.845 536.275L630.133 530.995C630.133 530.995 630.847 471.136 628.843 466.547C626.839 461.958 625.278 438.695 626.42 435.115C627.562 431.536 622.256 378.013 622.256 378.013L621.394 356.272L590.104 343.561L604.087 314.419C605.97 310.335 607.595 306.137 608.949 301.848C611.381 294.301 622.707 286.862 622.707 286.862C622.707 286.862 634.281 279.439 638.848 279.719C643.416 279.998 649.444 273.157 649.444 273.157C653.88 261.875 658.766 266.946 658.766 266.946C658.766 267.489 658.3 267.722 658.548 268.615C661.966 280.627 682.815 320.134 683.196 320.833L685.767 382.687L688.284 461.003L690.871 546.423Z" fill="white"/>
<path opacity="0.1" d="M682.287 322.58C678.861 321.152 660.715 300.443 660.715 300.443V295.73C660.055 294.177 656.124 295.124 652.947 296.211L654.314 267.582L655.868 268.871C659.263 280.876 681.914 321.889 682.287 322.58Z" fill="black"/>
<path d="M683.149 320.872C679.716 319.435 661.57 298.735 661.57 298.735V294.014C660.909 292.461 656.987 293.408 653.802 294.495L655.146 265.897L656.699 267.178C660.125 279.167 682.769 320.173 683.149 320.872Z" fill="white"/>
<path opacity="0.1" d="M630.708 424.144C631.135 424.144 652.854 421.861 652.854 421.861C652.854 421.861 666.006 447.718 665.143 453.999C664.281 460.281 662.72 465.856 657.43 464.87C652.14 463.884 628.96 465.646 628.96 465.646L630.708 424.144Z" fill="black"/>
<path d="M629.845 422.428C630.28 422.428 652 420.145 652 420.145C652 420.145 665.143 446.04 664.289 452.252C663.434 458.464 661.857 464.109 656.575 463.123C651.293 462.137 628.098 463.899 628.098 463.899L629.845 422.428Z" fill="white"/>
<path d="M646.213 410.322C646.213 410.322 666.145 421.038 666.572 424.299C667 427.56 656.427 422.87 654.144 422.296C652.64 421.938 651.11 421.7 649.568 421.581L634.335 421.993L646.213 410.322Z" fill="#CF6F80"/>
<path opacity="0.1" d="M676.717 323.916C677.876 323.916 678.815 322.977 678.815 321.819C678.815 320.661 677.876 319.723 676.717 319.723C675.559 319.723 674.62 320.661 674.62 321.819C674.62 322.977 675.559 323.916 676.717 323.916Z" fill="black"/>
<path d="M676.717 323.062C677.876 323.062 678.815 322.123 678.815 320.965C678.815 319.807 677.876 318.869 676.717 318.869C675.559 318.869 674.62 319.807 674.62 320.965C674.62 322.123 675.559 323.062 676.717 323.062Z" fill="#3F3D56"/>
<path opacity="0.1" d="M680.578 414.671C681.737 414.671 682.676 413.732 682.676 412.574C682.676 411.416 681.737 410.478 680.578 410.478C679.42 410.478 678.481 411.416 678.481 412.574C678.481 413.732 679.42 414.671 680.578 414.671Z" fill="black"/>
<path d="M680.578 413.809C681.737 413.809 682.676 412.87 682.676 411.712C682.676 410.554 681.737 409.616 680.578 409.616C679.42 409.616 678.481 410.554 678.481 411.712C678.481 412.87 679.42 413.809 680.578 413.809Z" fill="#3F3D56"/>
<path opacity="0.1" d="M678.815 369.293C679.973 369.293 680.912 368.355 680.912 367.197C680.912 366.039 679.973 365.1 678.815 365.1C677.657 365.1 676.718 366.039 676.718 367.197C676.718 368.355 677.657 369.293 678.815 369.293Z" fill="black"/>
<path d="M678.815 368.439C679.973 368.439 680.912 367.5 680.912 366.343C680.912 365.185 679.973 364.246 678.815 364.246C677.657 364.246 676.718 365.185 676.718 366.343C676.718 367.5 677.657 368.439 678.815 368.439Z" fill="#3F3D56"/>
<path d="M727.163 421.146C727.163 421.146 728.592 423.289 727.163 424.252C725.734 425.215 727.303 427.684 727.303 427.684C727.303 427.684 723.737 429.765 725.306 431.652C726.876 433.539 725.881 442.01 725.881 442.01L721.593 449.146C721.593 449.146 721.85 453.72 721.865 459.9C721.865 469.544 721.298 483.102 718.16 489.282L718.579 539.994C718.579 539.994 703.564 545.484 690.995 543.807L689.131 462.432C689.131 462.432 691.85 416.286 692.852 407.434C693.438 402.838 693.677 398.205 693.566 393.574C693.566 393.574 693.139 379.721 691.702 373.3C691.702 373.3 690.148 345.44 689.993 337.729C689.923 334.041 690.117 323.279 690.335 313.045C690.576 301.856 690.848 291.304 690.848 291.304L688.012 268.871C688.012 268.871 690.848 268.592 691.702 269.725C692.085 270.083 692.501 270.403 692.945 270.68C697.846 273.988 715.138 284.16 715.138 284.16C715.138 284.16 724.708 287.965 727 293.416C729.291 298.867 730.884 302.733 731.995 304.286C733.106 305.839 733.711 313.138 733.711 313.138C733.711 313.138 737.005 326.571 739.576 328.846C742.147 331.121 743.996 345.564 743.996 345.564L721.275 363.423C721.275 363.423 719.278 393.131 718.851 394.28C718.424 395.429 727.163 421.146 727.163 421.146Z" fill="white"/>
<path d="M728.025 421.146C728.025 421.146 729.447 423.289 728.025 424.252C726.604 425.215 728.157 427.684 728.157 427.684C728.157 427.684 724.592 429.765 726.161 431.652C727.73 433.539 726.736 442.01 726.736 442.01L722.463 449.146C722.463 449.146 722.72 453.72 722.743 459.9C722.743 469.544 722.176 483.102 719.038 489.282L719.465 539.994C719.465 539.994 704.449 545.484 691.881 543.807L690.024 462.432C690.024 462.432 692.735 416.286 693.745 407.434C694.332 402.838 694.568 398.205 694.452 393.574C694.452 393.574 694.025 379.721 692.595 373.3C692.595 373.3 691.042 345.44 690.878 337.729C690.809 334.041 691.003 323.279 691.22 313.045C691.461 301.856 691.733 291.304 691.733 291.304L687.989 268.568C687.989 268.568 691.733 268.568 692.595 269.725C692.974 270.087 693.391 270.407 693.838 270.68C698.732 273.988 716.024 284.16 716.024 284.16C716.024 284.16 725.57 287.965 727.901 293.416C730.231 298.867 731.785 302.733 732.896 304.286C734.006 305.839 734.612 313.138 734.612 313.138C734.612 313.138 737.906 326.571 740.477 328.846C743.048 331.121 744.905 345.564 744.905 345.564L722.184 363.423C722.184 363.423 720.187 393.131 719.752 394.28C719.317 395.429 728.025 421.146 728.025 421.146Z" fill="white"/>
<path opacity="0.1" d="M700.814 297.896L702.872 303.875L692.067 314.746C692.308 303.557 692.58 293.004 692.58 293.004L688.835 270.277C688.835 270.277 692.58 270.277 693.442 271.434C693.821 271.795 694.238 272.115 694.685 272.389L703.867 298.859L700.814 297.896Z" fill="black"/>
<path d="M699.936 296.18L701.995 302.151L691.197 313.022C691.43 301.833 691.71 291.28 691.71 291.28L687.958 268.545C687.958 268.545 691.71 268.545 692.564 269.702C692.945 270.061 693.362 270.381 693.807 270.657L703.043 297.151L699.936 296.18Z" fill="white"/>
<path opacity="0.1" d="M699.936 237.02C699.939 239.818 699.498 242.598 698.631 245.259C698.485 245.283 698.335 245.278 698.191 245.243C698.047 245.208 697.911 245.145 697.792 245.057C697.582 238.068 694.149 231.499 689.915 225.916C688.725 224.233 687.284 222.74 685.643 221.49C683.982 220.244 681.916 219.66 679.848 219.852C677.518 220.17 675.459 221.755 673.105 221.956C669.998 222.213 667.217 220.062 664.133 219.961C662.879 219.971 661.642 220.25 660.505 220.777C659.367 221.305 658.356 222.07 657.538 223.02C655.917 224.932 654.713 227.162 654.004 229.566C652.782 233.214 652.117 237.025 652.031 240.871C651.992 243.046 651.782 245.771 649.762 246.563C649.915 244.965 649.734 243.353 649.23 241.829C648.726 240.305 647.91 238.903 646.834 237.711L646.787 237.657C646.787 237.439 646.787 237.237 646.787 237.02C646.787 229.973 649.588 223.215 654.573 218.231C659.558 213.248 666.319 210.449 673.369 210.449C680.419 210.449 687.181 213.248 692.166 218.231C697.151 223.215 699.951 229.973 699.951 237.02H699.936Z" fill="black"/>
<path d="M684.4 194.834C680.363 192.936 675.772 192.577 671.49 193.825C669.338 194.461 667.31 195.494 665.128 196.014C660.467 197.14 655.029 195.921 651.029 198.647C648.807 200.199 647.471 202.653 646.228 205.045L643.121 210.954C641.427 214.192 639.718 217.484 639.012 221.048C638.305 224.612 638.732 228.603 640.992 231.476C642.631 233.557 645.071 234.869 646.857 236.834C647.931 238.031 648.744 239.438 649.247 240.966C649.75 242.493 649.93 244.108 649.778 245.709C651.798 244.932 652 242.191 652.046 240.017C652.134 236.171 652.799 232.36 654.019 228.712C654.728 226.307 655.932 224.078 657.554 222.166C658.371 221.215 659.382 220.449 660.519 219.92C661.657 219.391 662.894 219.111 664.149 219.099C667.256 219.208 670.045 221.359 673.121 221.094C675.451 220.9 677.518 219.316 679.863 218.998C681.932 218.802 683.999 219.387 685.658 220.636C687.301 221.882 688.739 223.375 689.923 225.062C694.164 230.653 697.606 237.191 697.808 244.203C698.685 244.839 699.952 244.001 700.387 243.007C700.822 242.013 700.837 240.848 701.389 239.901C702.026 238.806 703.245 238.216 704.201 237.393C706.624 235.304 707.23 231.787 707.137 228.595C707.044 225.404 706.422 222.166 707.028 219.029C707.393 217.111 708.217 215.302 708.667 213.4C709.118 211.497 709.172 209.362 708.108 207.724C706.554 205.324 703.284 204.843 700.433 204.618C697.194 204.338 694.296 204.695 692.23 201.97C691.258 200.549 690.166 199.214 688.968 197.979C688.54 197.567 684.4 195.005 684.4 194.834Z" fill="#512E4E"/>
<path opacity="0.1" d="M599.946 358.578L591.837 343.584L589.265 366.723C589.265 366.723 590.695 377.004 590.407 378.58C590.12 380.156 596.264 394.288 596.264 394.288C596.264 394.288 616.562 430.433 624.851 432.289L652.815 412.287L645.389 402.86C645.389 402.86 642.818 401.859 642.173 402.86C642.173 402.86 628.377 379.147 626.956 377.438C625.534 375.73 625.806 372.29 625.806 372.29C625.806 372.29 623.662 370.008 624.377 367.864C625.091 365.721 620.275 358.298 620.275 358.298L624.703 354.16L599.946 358.578Z" fill="black"/>
<path d="M592.264 341.868L590.12 343.584L587.549 366.723C587.549 366.723 588.978 377.004 588.69 378.58C588.403 380.156 594.555 394.288 594.555 394.288C594.555 394.288 614.845 430.433 623.134 432.289L651.145 412.287L643.711 402.86C643.711 402.86 641.14 401.859 640.495 402.86C640.495 402.86 626.707 379.147 625.278 377.438C623.848 375.73 624.136 372.29 624.136 372.29C624.136 372.29 621.992 370.008 622.707 367.864C623.421 365.721 618.558 358.298 618.558 358.298L622.986 354.16L592.264 341.868Z" fill="white"/>
<path opacity="0.1" d="M725.306 432.545C726.86 434.432 725.881 442.911 725.881 442.911L721.593 450C721.593 450 721.849 454.582 721.865 460.762L714.656 463.014C714.004 463.217 713.312 463.262 712.639 463.144C711.966 463.026 711.33 462.748 710.786 462.335C710.242 461.922 709.804 461.384 709.51 460.768C709.216 460.151 709.073 459.473 709.094 458.79L710.345 418.724L727.163 425.145C725.733 426.139 727.303 428.577 727.303 428.577C727.303 428.577 723.737 430.658 725.306 432.545Z" fill="black"/>
<path d="M726.161 431.691C727.714 433.57 726.735 442.049 726.735 442.049L722.463 449.146C722.463 449.146 722.719 453.72 722.743 459.9L715.402 462.191C714.765 462.391 714.089 462.435 713.43 462.321C712.772 462.206 712.151 461.935 711.619 461.532C711.087 461.128 710.659 460.603 710.371 460.001C710.083 459.398 709.944 458.735 709.964 458.068L711.215 417.862L728.025 424.299C726.588 425.293 728.157 427.731 728.157 427.731C728.157 427.731 724.592 429.804 726.161 431.691Z" fill="white"/>
<path d="M731.738 412.574C731.738 412.574 730.596 419.865 727.738 420.292C724.879 420.719 723.598 432.087 720.747 431.691C717.896 431.295 719.783 421.115 719.884 419.143C719.985 417.171 716.777 409.002 719.17 407.147C721.562 405.291 729.175 407.147 729.175 407.147L731.738 412.574Z" fill="#CF6F80"/>
<path opacity="0.1" d="M737.782 356.435L743.165 345.564C743.165 345.564 745.317 353.849 745.317 358.275C745.317 362.701 748.315 363.136 748.315 363.136C748.315 363.136 751.601 367.018 749.869 369.852C748.137 372.686 747.445 379.706 747.445 379.706C747.445 379.706 748.012 393.131 745.441 394.987C742.87 396.843 742.295 401.276 742.295 401.276C742.295 401.276 737.58 409.701 737.727 411.704C737.875 413.708 731.156 427.273 731.156 427.273C731.156 427.273 734.442 410.415 715.293 403.132C715.293 403.132 715.146 397.417 716.575 395.849C718.004 394.28 720.234 393.519 718.836 385.63C717.437 377.741 718.432 368.229 718.432 366.327C718.432 364.425 722.72 352.568 722.72 352.568L737.782 356.435Z" fill="black"/>
<path d="M740.174 344.011L744.882 345.564C744.882 345.564 747.034 353.849 747.034 358.275C747.034 362.701 750.032 363.136 750.032 363.136C750.032 363.136 753.318 367.018 751.586 369.852C749.853 372.686 749.154 379.706 749.154 379.706C749.154 379.706 749.729 393.131 747.158 394.987C744.587 396.843 744.051 401.276 744.051 401.276C744.051 401.276 739.336 409.701 739.483 411.704C739.631 413.708 732.904 427.273 732.904 427.273C732.904 427.273 736.189 410.415 717.041 403.132C717.041 403.132 716.901 397.417 718.331 395.849C719.76 394.28 721.99 393.519 720.591 385.63C719.193 377.741 720.187 368.229 720.187 366.327C720.187 364.425 724.475 352.568 724.475 352.568L740.174 344.011Z" fill="white"/>
<path opacity="0.1" d="M636.176 625.772C636.176 625.772 643.68 621.059 648.605 624.483C653.53 627.907 636.176 625.772 636.176 625.772Z" fill="black"/>
<path opacity="0.1" d="M694.499 611.197C694.499 611.197 701.14 610.343 706.718 616.345C712.295 622.348 694.499 611.197 694.499 611.197Z" fill="black"/>
<g opacity="0.1">
<path opacity="0.1" d="M704.201 235.685C703.245 236.515 702.018 237.098 701.381 238.193C700.837 239.132 700.822 240.297 700.386 241.298C699.951 242.3 698.685 243.131 697.8 242.494C697.598 235.506 694.157 228.945 689.923 223.354C688.739 221.669 687.3 220.179 685.658 218.936C683.997 217.684 681.928 217.097 679.856 217.29C677.525 217.608 675.474 219.192 673.121 219.394C670.014 219.65 667.225 217.499 664.141 217.398C662.888 217.408 661.652 217.686 660.515 218.214C659.379 218.741 658.369 219.507 657.554 220.458C655.932 222.37 654.728 224.599 654.019 227.004C652.799 230.652 652.133 234.463 652.046 238.309C652 240.475 651.798 243.178 649.793 243.985C649.84 244.561 649.84 245.14 649.793 245.717C651.821 244.94 652.023 242.199 652.069 240.025C652.157 236.179 652.822 232.368 654.043 228.72C654.751 226.315 655.955 224.086 657.577 222.174C658.393 221.223 659.403 220.457 660.539 219.928C661.675 219.399 662.911 219.119 664.164 219.107C667.271 219.215 670.068 221.366 673.144 221.102C675.474 220.908 677.541 219.324 679.879 219.006C681.95 218.81 684.019 219.395 685.682 220.644C687.324 221.89 688.763 223.383 689.946 225.07C694.18 230.661 697.621 237.199 697.823 244.21C698.709 244.847 699.975 244.008 700.41 243.014C700.845 242.021 700.86 240.856 701.404 239.909C702.041 238.814 703.268 238.224 704.224 237.401C706.648 235.312 707.253 231.794 707.16 228.603C707.16 228.502 707.16 228.409 707.16 228.308C707.005 231.088 706.267 233.906 704.201 235.685Z" fill="black"/>
<path opacity="0.1" d="M646.85 235.141C645.071 233.177 642.632 231.856 640.993 229.776C639.608 227.939 638.819 225.722 638.732 223.424C638.488 226.298 639.291 229.163 640.993 231.492C642.632 233.572 645.071 234.885 646.85 236.849C648.568 238.77 649.6 241.206 649.786 243.775C649.903 242.213 649.703 240.643 649.198 239.159C648.694 237.675 647.895 236.309 646.85 235.141Z" fill="black"/>
<path opacity="0.1" d="M708.667 211.691C708.209 213.594 707.393 215.403 707.021 217.321C706.797 218.618 706.716 219.935 706.78 221.25C706.805 220.507 706.886 219.768 707.021 219.037C707.393 217.119 708.209 215.31 708.667 213.407C708.931 212.357 709.017 211.271 708.924 210.193C708.874 210.698 708.788 211.198 708.667 211.691Z" fill="black"/>
</g>
</g>
<defs>
<linearGradient id="paint0_linear" x1="361.624" y1="648.794" x2="361.624" y2="200.262" gradientUnits="userSpaceOnUse">
<stop stop-color="#808080" stop-opacity="0.25"/>
<stop offset="0.54" stop-color="#808080" stop-opacity="0.12"/>
<stop offset="1" stop-color="#808080" stop-opacity="0.1"/>
</linearGradient>
<linearGradient id="paint1_linear" x1="147809" y1="420348" x2="147809" y2="126356" gradientUnits="userSpaceOnUse">
<stop stop-color="#808080" stop-opacity="0.25"/>
<stop offset="0.54" stop-color="#808080" stop-opacity="0.12"/>
<stop offset="1" stop-color="#808080" stop-opacity="0.1"/>
</linearGradient>
<clipPath id="clip0">
<rect width="907" height="670" fill="white"/>
</clipPath>
</defs>
</svg>
