<svg id="svg" version="1.1" xmlns="http://www.w3.org/2000/svg" xmlns:xlink="http://www.w3.org/1999/xlink" width="400" height="344.954128440367" viewBox="0, 0, 400,344.954128440367"><g id="svgg"><path id="path0" d="M276.828 0.546 C 269.895 2.410,271.984 -0.953,248.013 46.937 C 140.031 262.663,107.616 327.669,107.459 328.810 C 107.360 329.526,107.114 330.454,106.912 330.871 C 106.653 331.408,106.654 331.914,106.914 332.597 C 107.116 333.129,107.384 334.185,107.509 334.944 C 109.222 345.358,124.637 348.295,130.734 339.370 C 133.032 336.006,292.022 17.482,292.215 15.857 C 292.326 14.918,292.551 14.150,292.714 14.150 C 293.100 14.150,293.101 12.866,292.715 12.628 C 292.553 12.527,292.330 11.690,292.221 10.767 C 291.445 4.221,283.293 -1.193,276.828 0.546 M90.550 79.549 C 89.386 79.802,87.911 80.270,87.271 80.590 C 86.632 80.910,67.143 100.142,43.964 123.329 L 1.818 165.487 0.852 168.527 C -0.239 171.959,-0.128 173.752,1.404 177.434 C 2.514 180.102,83.747 261.584,87.317 263.610 C 93.350 267.035,101.305 264.510,104.569 258.134 C 105.539 256.239,106.513 250.906,105.889 250.906 C 105.734 250.906,105.607 250.557,105.605 250.129 C 105.593 247.300,105.593 247.301,67.198 208.886 L 30.546 172.216 67.012 135.720 C 105.259 97.441,105.608 97.065,105.608 94.229 C 105.608 93.844,105.725 93.529,105.867 93.529 C 106.009 93.529,106.126 92.675,106.126 91.631 C 106.126 90.587,106.009 89.733,105.867 89.733 C 105.725 89.733,105.608 89.417,105.608 89.031 C 105.608 88.193,104.117 85.165,102.952 83.636 C 100.323 80.185,95.274 78.521,90.550 79.549 M303.365 79.383 C 303.365 79.492,302.702 79.758,301.891 79.975 C 298.760 80.812,294.670 85.283,294.169 88.415 C 294.053 89.140,293.862 89.733,293.744 89.733 C 293.626 89.733,293.529 90.587,293.529 91.631 C 293.529 92.675,293.645 93.529,293.788 93.529 C 293.930 93.529,294.047 93.901,294.047 94.357 C 294.047 97.074,294.669 97.741,332.631 135.722 L 369.111 172.220 332.766 208.543 C 300.178 241.112,294.392 247.135,294.392 248.489 C 294.392 248.679,294.263 248.835,294.106 248.835 C 293.949 248.835,293.889 249.301,293.973 249.871 C 294.057 250.440,293.982 250.906,293.806 250.906 C 293.156 250.906,294.027 256.196,295.001 258.154 C 298.032 264.248,306.239 267.001,311.980 263.848 C 314.451 262.491,396.741 180.439,397.875 178.201 C 399.925 174.155,399.918 170.371,397.852 166.178 C 397.106 164.663,316.536 83.727,313.622 81.565 C 311.286 79.831,303.365 78.146,303.365 79.383 " stroke="none" fill="#040404" fill-rule="evenodd"></path><path id="path1" d="M286.157 1.696 C 286.605 2.059,287.049 2.279,287.144 2.185 C 287.346 1.984,286.122 1.035,285.659 1.035 C 285.485 1.035,285.709 1.333,286.157 1.696 M270.990 2.436 C 270.580 3.093,270.600 3.118,271.253 2.769 C 271.641 2.562,271.959 2.242,271.959 2.059 C 271.959 1.494,271.457 1.690,270.990 2.436 M288.779 3.796 C 289.493 4.555,290.226 5.176,290.407 5.176 C 290.587 5.177,290.129 4.556,289.387 3.796 C 287.630 1.997,287.086 1.996,288.779 3.796 M266.134 9.027 C 265.727 10.006,265.453 10.865,265.524 10.937 C 265.595 11.008,265.862 10.556,266.117 9.933 C 266.372 9.310,266.781 8.595,267.026 8.345 C 267.537 7.822,267.614 7.248,267.173 7.248 C 267.008 7.248,266.541 8.049,266.134 9.027 M264.421 12.268 C 263.923 13.361,263.923 13.460,264.423 13.460 C 264.645 13.460,264.730 13.364,264.612 13.246 C 264.495 13.129,264.624 12.807,264.900 12.531 C 265.453 11.978,265.562 11.389,265.111 11.389 C 264.952 11.389,264.642 11.785,264.421 12.268 M263.676 14.068 C 263.676 14.276,263.481 14.651,263.244 14.902 C 262.830 15.340,261.605 17.771,261.605 18.155 C 261.605 18.257,261.816 18.130,262.074 17.872 C 262.677 17.269,264.085 14.099,263.852 13.867 C 263.755 13.769,263.676 13.860,263.676 14.068 M290.595 21.097 C 289.075 24.176,288.980 24.443,289.642 23.781 C 289.937 23.486,290.538 22.401,290.976 21.372 C 291.414 20.342,291.896 19.448,292.047 19.385 C 292.395 19.238,292.407 18.634,292.062 18.644 C 291.920 18.648,291.260 19.752,290.595 21.097 M259.935 21.241 C 259.437 22.334,259.437 22.433,259.937 22.433 C 260.158 22.433,260.243 22.337,260.126 22.219 C 260.008 22.102,260.138 21.780,260.413 21.505 C 260.967 20.951,261.076 20.362,260.625 20.362 C 260.466 20.362,260.155 20.758,259.935 21.241 M259.025 23.442 C 258.900 23.836,258.652 24.159,258.475 24.159 C 258.298 24.159,258.154 24.314,258.154 24.504 C 258.154 24.694,258.284 24.849,258.443 24.849 C 258.782 24.849,259.633 23.107,259.406 22.880 C 259.321 22.796,259.150 23.049,259.025 23.442 M288.401 25.550 C 288.068 26.113,287.934 26.575,288.105 26.575 C 288.424 26.575,289.332 24.851,289.123 24.642 C 289.059 24.578,288.734 24.986,288.401 25.550 M257.519 26.073 C 256.942 27.340,257.023 27.480,257.808 26.575 C 258.536 25.736,258.693 25.194,258.209 25.194 C 258.050 25.194,257.739 25.590,257.519 26.073 M286.281 29.730 C 284.567 33.212,284.489 33.420,285.155 32.755 C 285.451 32.459,286.052 31.374,286.491 30.345 C 286.931 29.315,287.490 28.268,287.735 28.017 C 288.224 27.515,288.326 26.918,287.921 26.923 C 287.778 26.924,287.041 28.187,286.281 29.730 M255.836 29.549 C 255.954 29.667,255.824 29.988,255.549 30.264 C 254.945 30.868,254.898 31.406,255.450 31.406 C 255.672 31.406,255.757 31.310,255.639 31.193 C 255.522 31.075,255.651 30.754,255.927 30.478 C 256.531 29.874,256.577 29.336,256.025 29.336 C 255.804 29.336,255.719 29.432,255.836 29.549 M254.280 32.809 C 253.961 33.366,253.822 33.822,253.973 33.822 C 254.256 33.822,255.154 32.089,254.968 31.902 C 254.909 31.844,254.600 32.252,254.280 32.809 M283.914 34.523 C 283.581 35.087,283.448 35.548,283.618 35.548 C 283.937 35.548,284.846 33.825,284.637 33.616 C 284.572 33.551,284.247 33.960,283.914 34.523 M253.032 35.046 C 252.455 36.313,252.536 36.454,253.322 35.548 C 254.049 34.709,254.206 34.167,253.722 34.167 C 253.563 34.167,253.252 34.563,253.032 35.046 M281.036 40.213 C 279.860 42.583,279.031 44.521,279.196 44.521 C 279.360 44.521,279.761 43.822,280.087 42.968 C 280.414 42.114,280.786 41.415,280.915 41.415 C 281.044 41.415,281.519 40.522,281.970 39.431 C 282.421 38.339,282.993 37.241,283.241 36.990 C 283.736 36.490,283.842 35.889,283.434 35.899 C 283.292 35.902,282.213 37.844,281.036 40.213 M250.961 39.188 C 250.463 40.281,250.464 40.380,250.963 40.380 C 251.185 40.380,251.270 40.283,251.152 40.166 C 251.035 40.048,251.164 39.727,251.440 39.451 C 251.993 38.898,252.102 38.309,251.652 38.309 C 251.492 38.309,251.182 38.704,250.961 39.188 M250.051 41.389 C 249.926 41.783,249.679 42.105,249.502 42.105 C 249.325 42.105,249.180 42.261,249.180 42.450 C 249.180 42.640,249.311 42.796,249.470 42.796 C 249.808 42.796,250.660 41.054,250.433 40.827 C 250.348 40.742,250.176 40.995,250.051 41.389 M248.545 44.020 C 247.968 45.286,248.050 45.427,248.835 44.521 C 249.563 43.682,249.720 43.141,249.236 43.141 C 249.076 43.141,248.766 43.536,248.545 44.020 M272.371 57.555 C 268.896 64.528,265.839 70.621,265.578 71.096 C 265.317 71.570,264.217 73.745,263.134 75.928 C 262.051 78.110,260.611 80.984,259.934 82.312 C 257.965 86.176,257.791 86.611,258.294 86.418 C 258.533 86.327,259.093 85.365,259.537 84.282 C 259.981 83.199,260.455 82.235,260.591 82.140 C 260.726 82.045,261.260 80.958,261.777 79.724 C 262.295 78.490,262.836 77.403,262.981 77.308 C 263.125 77.213,263.605 76.281,264.045 75.237 C 264.486 74.193,264.954 73.261,265.085 73.167 C 265.216 73.072,265.747 71.984,266.264 70.751 C 266.781 69.517,267.323 68.430,267.467 68.335 C 267.612 68.240,268.091 67.308,268.532 66.264 C 268.973 65.220,269.441 64.288,269.572 64.193 C 269.703 64.098,270.233 63.011,270.751 61.777 C 271.268 60.544,271.809 59.456,271.954 59.362 C 272.099 59.267,272.578 58.335,273.019 57.291 C 273.460 56.247,273.928 55.315,274.059 55.220 C 274.190 55.125,274.720 54.038,275.237 52.804 C 275.754 51.570,276.296 50.483,276.441 50.388 C 276.585 50.293,277.067 49.362,277.510 48.318 C 277.954 47.274,278.517 46.214,278.761 45.963 C 279.251 45.461,279.353 44.863,278.947 44.872 C 278.805 44.874,275.845 50.582,272.371 57.555 M246.284 48.518 C 245.999 49.260,246.016 49.353,246.440 49.353 C 246.641 49.353,246.709 49.198,246.592 49.008 C 246.475 48.818,246.543 48.663,246.744 48.663 C 246.945 48.663,247.110 48.507,247.110 48.318 C 247.110 47.772,246.515 47.916,246.284 48.518 M245.565 50.362 C 245.440 50.756,245.193 51.079,245.016 51.079 C 244.839 51.079,244.694 51.234,244.694 51.424 C 244.694 51.613,244.824 51.769,244.983 51.769 C 245.322 51.769,246.173 50.027,245.946 49.800 C 245.861 49.715,245.690 49.968,245.565 50.362 M244.059 52.993 C 243.482 54.260,243.563 54.400,244.349 53.494 C 245.076 52.656,245.233 52.114,244.749 52.114 C 244.590 52.114,244.279 52.509,244.059 52.993 M241.797 57.492 C 241.512 58.233,241.530 58.326,241.953 58.326 C 242.154 58.326,242.223 58.171,242.105 57.981 C 241.988 57.791,242.056 57.636,242.257 57.636 C 242.458 57.636,242.623 57.481,242.623 57.291 C 242.623 56.745,242.028 56.889,241.797 57.492 M241.078 59.336 C 240.953 59.729,240.706 60.052,240.529 60.052 C 240.352 60.052,240.207 60.207,240.207 60.397 C 240.207 60.587,240.337 60.742,240.497 60.742 C 240.835 60.742,241.687 59.000,241.459 58.773 C 241.375 58.689,241.203 58.942,241.078 59.336 M239.572 61.966 C 238.995 63.233,239.076 63.373,239.862 62.468 C 240.589 61.629,240.747 61.087,240.262 61.087 C 240.103 61.087,239.793 61.483,239.572 61.966 M237.310 66.465 C 237.026 67.207,237.043 67.299,237.466 67.299 C 237.667 67.299,237.736 67.144,237.619 66.954 C 237.501 66.764,237.570 66.609,237.771 66.609 C 237.972 66.609,238.136 66.454,238.136 66.264 C 238.136 65.718,237.542 65.863,237.310 66.465 M236.592 68.309 C 236.466 68.703,236.219 69.025,236.042 69.025 C 235.865 69.025,235.720 69.180,235.720 69.370 C 235.720 69.560,235.851 69.715,236.010 69.715 C 236.349 69.715,237.200 67.974,236.973 67.746 C 236.888 67.662,236.717 67.915,236.592 68.309 M235.086 70.939 C 234.508 72.206,234.590 72.347,235.375 71.441 C 236.103 70.602,236.260 70.060,235.776 70.060 C 235.616 70.060,235.306 70.456,235.086 70.939 M232.824 75.438 C 232.539 76.180,232.556 76.273,232.980 76.273 C 233.181 76.273,233.249 76.117,233.132 75.928 C 233.015 75.738,233.083 75.582,233.284 75.582 C 233.485 75.582,233.650 75.427,233.650 75.237 C 233.650 74.691,233.055 74.836,232.824 75.438 M232.105 77.282 C 231.980 77.676,231.733 77.998,231.556 77.998 C 231.379 77.998,231.234 78.154,231.234 78.343 C 231.234 78.533,231.364 78.689,231.524 78.689 C 231.862 78.689,232.713 76.947,232.486 76.720 C 232.402 76.635,232.230 76.888,232.105 77.282 M230.599 79.913 C 230.022 81.179,230.103 81.320,230.889 80.414 C 231.616 79.575,231.773 79.034,231.289 79.034 C 231.130 79.034,230.819 79.429,230.599 79.913 M300.269 79.710 C 299.990 79.887,299.894 80.156,300.057 80.309 C 300.220 80.462,300.423 80.392,300.508 80.153 C 300.593 79.915,300.794 79.801,300.955 79.900 C 301.115 79.999,301.344 79.922,301.463 79.730 C 301.734 79.292,300.950 79.280,300.269 79.710 M86.434 80.213 C 86.066 80.483,85.862 80.801,85.982 80.920 C 86.101 81.040,86.432 80.904,86.717 80.620 C 87.002 80.335,87.331 80.198,87.448 80.316 C 87.566 80.433,87.662 80.348,87.662 80.127 C 87.662 79.589,87.247 79.619,86.434 80.213 M99.051 80.014 C 99.051 80.173,99.439 80.480,99.914 80.696 C 100.928 81.158,101.101 80.612,100.109 80.081 C 99.300 79.648,99.051 79.632,99.051 80.014 M311.993 80.127 C 311.993 80.348,312.089 80.433,312.207 80.316 C 312.324 80.198,312.653 80.335,312.938 80.620 C 313.223 80.904,313.554 81.040,313.673 80.920 C 313.899 80.694,312.762 79.724,312.272 79.724 C 312.119 79.724,311.993 79.905,311.993 80.127 M57.294 108.981 C 42.016 124.305,29.965 136.454,30.514 135.979 C 32.634 134.146,85.680 81.105,85.385 81.112 C 85.214 81.117,72.573 93.658,57.294 108.981 M344.857 111.993 C 361.888 128.982,375.911 142.882,376.020 142.882 C 376.129 142.882,362.328 128.982,345.351 111.993 C 328.373 95.004,314.350 81.104,314.188 81.104 C 314.025 81.104,327.827 95.004,344.857 111.993 M102.330 82.485 C 102.875 83.054,103.449 83.520,103.605 83.520 C 103.761 83.520,103.473 83.054,102.965 82.485 C 102.458 81.915,101.884 81.450,101.690 81.450 C 101.496 81.450,101.784 81.915,102.330 82.485 M296.695 82.347 C 296.163 82.841,295.820 83.338,295.933 83.451 C 296.047 83.565,296.636 83.161,297.243 82.553 C 298.560 81.237,298.085 81.058,296.695 82.347 M103.905 84.038 C 103.905 84.228,104.133 84.685,104.411 85.053 C 104.690 85.421,104.918 85.568,104.918 85.378 C 104.918 85.188,104.690 84.731,104.411 84.363 C 104.133 83.994,103.905 83.848,103.905 84.038 M228.337 84.411 C 228.053 85.153,228.070 85.246,228.493 85.246 C 228.694 85.246,228.763 85.091,228.645 84.901 C 228.528 84.711,228.597 84.556,228.798 84.556 C 228.999 84.556,229.163 84.400,229.163 84.211 C 229.163 83.665,228.568 83.809,228.337 84.411 M227.179 86.819 C 226.670 87.371,226.628 87.662,227.055 87.662 C 227.350 87.662,227.901 86.623,227.704 86.439 C 227.652 86.391,227.416 86.562,227.179 86.819 M257.208 87.907 C 256.973 88.409,256.844 88.883,256.921 88.960 C 257.129 89.168,257.872 87.677,257.745 87.309 C 257.685 87.136,257.443 87.405,257.208 87.907 M226.112 88.886 C 225.535 90.153,225.616 90.293,226.402 89.387 C 227.129 88.549,227.287 88.007,226.803 88.007 C 226.643 88.007,226.333 88.402,226.112 88.886 M255.843 90.423 C 255.628 90.992,255.506 91.458,255.570 91.458 C 255.898 91.458,256.773 90.310,256.773 89.880 C 256.773 89.036,256.252 89.339,255.843 90.423 M106.016 91.463 C 106.026 92.225,106.172 92.933,106.339 93.036 C 106.507 93.140,106.644 92.516,106.644 91.651 C 106.644 90.786,106.498 90.078,106.320 90.078 C 106.142 90.078,106.005 90.701,106.016 91.463 M293.110 91.631 C 293.113 92.580,293.180 92.927,293.259 92.403 C 293.338 91.878,293.336 91.101,293.254 90.677 C 293.172 90.252,293.107 90.682,293.110 91.631 M254.763 92.672 C 254.525 93.192,254.402 93.689,254.489 93.776 C 254.723 94.010,255.457 92.514,255.316 92.090 C 255.249 91.889,255.000 92.151,254.763 92.672 M223.851 93.385 C 223.566 94.126,223.583 94.219,224.007 94.219 C 224.208 94.219,224.276 94.064,224.159 93.874 C 224.041 93.684,224.110 93.529,224.311 93.529 C 224.512 93.529,224.676 93.374,224.676 93.184 C 224.676 92.638,224.082 92.782,223.851 93.385 M104.767 97.603 C 104.419 98.700,104.668 98.446,67.052 136.043 L 30.903 172.173 67.251 208.461 C 87.241 228.419,103.661 244.686,103.738 244.609 C 103.815 244.532,87.625 228.209,67.761 208.336 L 31.644 172.204 32.474 171.314 C 32.931 170.824,49.240 154.481,68.716 134.996 C 100.300 103.397,105.765 97.712,105.148 97.095 C 105.056 97.003,104.885 97.232,104.767 97.603 M221.626 97.859 C 221.049 99.126,221.130 99.266,221.915 98.361 C 222.643 97.522,222.800 96.980,222.316 96.980 C 222.157 96.980,221.846 97.376,221.626 97.859 M294.047 97.325 C 294.047 97.515,294.191 97.670,294.368 97.670 C 294.545 97.670,294.798 98.020,294.929 98.447 C 295.117 99.056,341.899 146.382,346.818 150.939 C 347.465 151.538,348.474 152.557,349.061 153.203 C 349.649 153.849,350.658 154.859,351.305 155.446 C 351.951 156.034,352.961 157.043,353.548 157.690 C 354.135 158.336,355.145 159.346,355.791 159.933 C 356.438 160.520,357.447 161.530,358.035 162.176 C 358.622 162.823,359.632 163.832,360.278 164.420 C 360.925 165.007,361.934 166.014,362.521 166.658 C 364.028 168.308,364.254 168.534,365.363 169.501 C 365.906 169.975,366.718 170.770,367.167 171.269 L 367.985 172.176 331.862 208.304 C 311.995 228.174,295.808 244.499,295.891 244.582 C 295.973 244.665,312.394 228.399,332.381 208.436 L 368.722 172.140 332.132 135.634 C 310.589 114.140,295.360 98.687,295.098 98.054 C 294.673 97.029,294.047 96.595,294.047 97.325 M219.364 102.358 C 219.079 103.100,219.097 103.192,219.520 103.192 C 219.721 103.192,219.789 103.037,219.672 102.847 C 219.555 102.657,219.623 102.502,219.824 102.502 C 220.025 102.502,220.190 102.347,220.190 102.157 C 220.190 101.611,219.595 101.756,219.364 102.358 M216.948 107.190 C 216.624 108.034,216.694 108.118,217.256 107.556 C 217.843 106.969,217.918 106.644,217.466 106.644 C 217.296 106.644,217.063 106.889,216.948 107.190 M214.877 111.331 C 214.593 112.073,214.610 112.166,215.033 112.166 C 215.234 112.166,215.303 112.010,215.186 111.821 C 215.068 111.631,215.137 111.475,215.338 111.475 C 215.539 111.475,215.703 111.320,215.703 111.130 C 215.703 110.584,215.108 110.729,214.877 111.331 M210.391 120.304 C 210.106 121.046,210.123 121.139,210.547 121.139 C 210.748 121.139,210.816 120.984,210.699 120.794 C 210.582 120.604,210.650 120.449,210.851 120.449 C 211.052 120.449,211.217 120.293,211.217 120.104 C 211.217 119.558,210.622 119.702,210.391 120.304 M205.904 129.278 C 205.616 130.028,205.635 130.112,206.097 130.112 C 206.319 130.112,206.398 130.010,206.273 129.885 C 206.148 129.760,206.219 129.450,206.430 129.195 C 206.672 128.904,206.684 128.732,206.464 128.732 C 206.271 128.732,206.019 128.977,205.904 129.278 M204.535 132.194 C 204.202 132.757,204.069 133.218,204.239 133.218 C 204.558 133.218,205.467 131.495,205.258 131.286 C 205.193 131.222,204.868 131.630,204.535 132.194 M378.611 145.563 C 378.623 145.890,382.034 149.239,382.171 149.059 C 382.228 148.983,381.448 148.109,380.438 147.116 C 379.429 146.124,378.606 145.425,378.611 145.563 M384.996 151.846 C 386.037 153.150,388.628 155.753,388.741 155.608 C 388.796 155.537,387.823 154.469,386.578 153.236 C 385.333 152.002,384.621 151.376,384.996 151.846 M396.919 164.107 C 397.886 165.829,398.203 166.192,398.488 165.907 C 398.612 165.783,398.381 165.327,397.975 164.894 C 397.569 164.461,396.991 163.796,396.691 163.417 C 396.390 163.037,396.493 163.348,396.919 164.107 M2.071 164.333 C 1.045 165.536,0.844 166.005,1.352 166.005 C 1.557 166.005,1.726 165.772,1.726 165.487 C 1.726 165.203,1.844 164.970,1.988 164.970 C 2.276 164.970,3.221 163.583,3.044 163.421 C 2.983 163.366,2.545 163.776,2.071 164.333 M215.858 170.462 C 215.965 170.636,215.858 170.848,215.619 170.933 C 215.381 171.018,215.310 171.221,215.463 171.384 C 215.616 171.547,215.885 171.451,216.062 171.172 C 216.487 170.500,216.475 170.147,216.028 170.147 C 215.827 170.147,215.750 170.289,215.858 170.462 M0.690 177.608 C 0.690 177.797,0.918 178.254,1.197 178.623 C 1.476 178.991,1.704 179.137,1.704 178.947 C 1.704 178.758,1.476 178.301,1.197 177.932 C 0.918 177.564,0.690 177.418,0.690 177.608 M397.939 178.710 C 397.478 179.410,396.938 180.207,396.739 180.480 C 396.482 180.833,396.485 180.913,396.750 180.754 C 397.263 180.447,399.102 177.762,398.922 177.582 C 398.842 177.502,398.400 178.009,397.939 178.710 M211.371 179.436 C 211.478 179.609,211.371 179.821,211.132 179.906 C 210.894 179.991,210.824 180.194,210.976 180.357 C 211.129 180.520,211.399 180.425,211.575 180.145 C 212.000 179.473,211.989 179.120,211.541 179.120 C 211.340 179.120,211.264 179.262,211.371 179.436 M206.594 188.639 C 206.310 189.381,206.327 189.474,206.750 189.474 C 206.951 189.474,207.020 189.318,206.903 189.129 C 206.785 188.939,206.854 188.783,207.055 188.783 C 207.256 188.783,207.420 188.628,207.420 188.438 C 207.420 187.892,206.825 188.037,206.594 188.639 M204.814 192.550 C 204.921 192.724,204.814 192.936,204.575 193.021 C 204.337 193.106,204.266 193.309,204.419 193.472 C 204.572 193.635,204.841 193.539,205.018 193.260 C 205.443 192.588,205.431 192.235,204.984 192.235 C 204.783 192.235,204.706 192.377,204.814 192.550 M200.327 201.524 C 200.434 201.697,200.327 201.909,200.088 201.994 C 199.850 202.079,199.780 202.282,199.932 202.445 C 200.085 202.608,200.355 202.513,200.531 202.233 C 200.956 201.561,200.945 201.208,200.497 201.208 C 200.296 201.208,200.220 201.350,200.327 201.524 M197.613 206.607 C 197.324 207.360,197.708 207.710,198.115 207.065 C 198.523 206.420,198.532 206.040,198.139 206.040 C 197.969 206.040,197.733 206.295,197.613 206.607 M195.858 210.526 C 195.976 210.716,195.925 210.871,195.747 210.871 C 195.568 210.871,195.340 211.182,195.241 211.562 C 194.983 212.548,195.501 212.415,195.976 211.373 C 196.468 210.293,196.471 210.181,196.011 210.181 C 195.810 210.181,195.741 210.336,195.858 210.526 M193.126 215.580 C 192.837 216.333,193.221 216.683,193.629 216.038 C 194.037 215.393,194.045 215.013,193.652 215.013 C 193.483 215.013,193.246 215.268,193.126 215.580 M354.616 222.677 C 353.289 224.050,353.282 224.068,354.443 223.140 C 355.469 222.321,356.445 221.199,356.100 221.237 C 356.043 221.243,355.375 221.891,354.616 222.677 M188.640 224.553 C 188.351 225.306,188.734 225.656,189.142 225.012 C 189.550 224.366,189.559 223.986,189.165 223.986 C 188.996 223.986,188.759 224.241,188.640 224.553 M350.647 226.644 C 349.603 227.724,349.259 228.195,349.883 227.690 C 350.930 226.841,352.931 224.674,352.662 224.678 C 352.598 224.680,351.691 225.564,350.647 226.644 M186.867 228.443 C 186.974 228.617,186.867 228.829,186.629 228.914 C 186.390 228.999,186.320 229.202,186.473 229.365 C 186.625 229.528,186.895 229.432,187.071 229.153 C 187.496 228.481,187.485 228.128,187.037 228.128 C 186.836 228.128,186.760 228.270,186.867 228.443 M347.197 230.025 C 346.752 230.498,346.453 230.944,346.533 231.014 C 346.613 231.085,347.039 230.697,347.481 230.153 C 348.469 228.935,348.295 228.856,347.197 230.025 M344.953 232.269 C 344.407 232.839,344.106 233.296,344.284 233.285 C 344.588 233.268,346.367 231.234,346.079 231.234 C 346.005 231.234,345.498 231.700,344.953 232.269 M184.153 233.527 C 183.864 234.279,184.248 234.629,184.655 233.985 C 185.064 233.339,185.072 232.959,184.679 232.959 C 184.509 232.959,184.273 233.215,184.153 233.527 M338.242 238.997 C 335.310 241.930,332.980 244.378,333.065 244.438 C 333.149 244.497,335.655 242.094,338.633 239.098 C 341.611 236.101,343.940 233.653,343.810 233.658 C 343.679 233.662,341.173 236.065,338.242 238.997 M56.944 234.858 C 57.670 235.830,62.123 240.173,62.121 239.908 C 62.120 239.788,60.839 238.447,59.274 236.929 C 57.708 235.411,56.660 234.479,56.944 234.858 M182.399 237.446 C 182.516 237.636,182.466 237.791,182.287 237.791 C 182.108 237.791,181.874 238.141,181.767 238.568 L 181.572 239.344 182.244 238.529 C 182.991 237.624,183.104 237.101,182.551 237.101 C 182.350 237.101,182.281 237.256,182.399 237.446 M64.452 242.565 C 65.544 243.673,66.502 244.526,66.582 244.462 C 66.771 244.310,63.067 240.557,62.726 240.554 C 62.584 240.553,63.361 241.458,64.452 242.565 M179.666 242.500 C 179.377 243.253,179.761 243.603,180.169 242.958 C 180.577 242.313,180.586 241.933,180.192 241.933 C 180.023 241.933,179.786 242.188,179.666 242.500 M323.289 253.895 C 318.208 258.950,314.112 263.148,314.187 263.224 C 314.263 263.300,318.032 259.643,322.564 255.099 C 331.532 246.104,332.907 244.691,332.679 244.699 C 332.596 244.702,328.370 248.840,323.289 253.895 M76.132 254.219 C 81.169 259.269,85.397 263.294,85.527 263.164 C 85.656 263.035,85.452 262.705,85.073 262.431 C 84.693 262.158,80.560 258.132,75.887 253.486 C 71.213 248.840,67.296 245.039,67.181 245.039 C 67.066 245.039,71.094 249.170,76.132 254.219 M177.259 247.310 C 176.935 248.155,177.005 248.266,177.567 247.800 C 178.141 247.324,178.254 246.764,177.776 246.764 C 177.607 246.764,177.374 247.010,177.259 247.310 M175.180 251.473 C 174.891 252.226,175.274 252.576,175.682 251.931 C 176.090 251.286,176.099 250.906,175.706 250.906 C 175.536 250.906,175.299 251.161,175.180 251.473 M106.016 252.636 C 106.026 253.398,106.172 254.106,106.339 254.210 C 106.507 254.313,106.644 253.690,106.644 252.825 C 106.644 251.959,106.498 251.251,106.320 251.251 C 106.142 251.251,106.005 251.874,106.016 252.636 M293.110 252.804 C 293.113 253.753,293.180 254.101,293.259 253.576 C 293.338 253.051,293.336 252.275,293.254 251.850 C 293.172 251.426,293.107 251.855,293.110 252.804 M173.351 255.261 C 173.469 255.379,173.339 255.700,173.064 255.976 C 172.460 256.580,172.413 257.118,172.965 257.118 C 173.187 257.118,173.272 257.022,173.154 256.905 C 173.037 256.787,173.166 256.465,173.442 256.190 C 174.046 255.586,174.092 255.047,173.540 255.047 C 173.319 255.047,173.234 255.144,173.351 255.261 M295.082 259.910 C 295.082 260.287,298.423 263.676,298.794 263.676 C 298.972 263.676,299.476 263.986,299.914 264.366 C 300.760 265.100,301.294 265.250,301.294 264.753 C 301.294 264.586,300.789 264.243,300.173 263.989 C 299.556 263.736,298.158 262.659,297.066 261.595 C 295.975 260.531,295.082 259.773,295.082 259.910 M170.693 260.446 C 170.404 261.199,170.788 261.549,171.196 260.905 C 171.604 260.259,171.612 259.879,171.219 259.879 C 171.049 259.879,170.813 260.134,170.693 260.446 M139.494 262.036 C 138.440 263.905,137.861 265.401,138.192 265.401 C 138.406 265.401,139.430 263.457,140.237 261.519 C 140.994 259.700,140.694 259.909,139.494 262.036 M102.198 261.839 C 101.556 262.483,101.131 263.110,101.254 263.232 C 101.443 263.422,103.883 261.070,103.883 260.699 C 103.883 260.353,103.255 260.777,102.198 261.839 M99.827 263.752 C 99.400 263.958,99.051 264.258,99.051 264.419 C 99.051 264.879,99.365 264.766,100.166 264.021 C 100.994 263.249,100.948 263.211,99.827 263.752 M86.791 264.234 C 87.098 264.542,87.454 264.689,87.582 264.561 C 87.710 264.433,87.586 264.184,87.307 264.007 C 86.491 263.492,86.183 263.627,86.791 264.234 M312.348 264.007 C 312.069 264.184,311.945 264.433,312.073 264.561 C 312.201 264.689,312.557 264.542,312.864 264.234 C 313.471 263.627,313.164 263.492,312.348 264.007 M168.865 264.234 C 168.982 264.352,168.853 264.674,168.577 264.949 C 167.973 265.553,167.927 266.091,168.479 266.091 C 168.700 266.091,168.785 265.995,168.668 265.878 C 168.550 265.760,168.679 265.439,168.955 265.163 C 169.559 264.559,169.606 264.021,169.054 264.021 C 168.832 264.021,168.747 264.117,168.865 264.234 M137.156 266.915 C 136.680 267.433,132.873 275.243,132.873 275.701 C 132.873 275.889,132.742 276.094,132.583 276.158 C 132.257 276.287,128.387 284.142,128.387 284.674 C 128.387 284.862,128.265 285.068,128.117 285.131 C 127.673 285.320,124.906 291.028,125.150 291.251 C 125.274 291.365,125.432 291.303,125.503 291.113 C 125.573 290.923,128.348 285.346,131.669 278.719 C 137.451 267.186,138.006 265.991,137.156 266.915 M166.207 269.420 C 165.918 270.172,166.301 270.522,166.709 269.878 C 167.117 269.233,167.126 268.852,166.732 268.852 C 166.563 268.852,166.326 269.108,166.207 269.420 M164.378 273.208 C 164.496 273.325,164.366 273.647,164.091 273.923 C 163.537 274.476,163.428 275.065,163.879 275.065 C 164.038 275.065,164.349 274.669,164.569 274.186 C 165.067 273.093,165.067 272.994,164.567 272.994 C 164.346 272.994,164.261 273.090,164.378 273.208 M162.822 276.467 C 162.503 277.025,162.364 277.481,162.515 277.481 C 162.798 277.481,163.696 275.747,163.509 275.560 C 163.451 275.502,163.142 275.910,162.822 276.467 M161.720 278.393 C 161.431 279.146,161.815 279.496,162.222 278.851 C 162.630 278.206,162.639 277.826,162.246 277.826 C 162.076 277.826,161.840 278.081,161.720 278.393 M159.892 282.181 C 160.009 282.298,159.880 282.620,159.604 282.896 C 159.051 283.449,158.942 284.038,159.392 284.038 C 159.552 284.038,159.862 283.642,160.083 283.159 C 160.581 282.066,160.580 281.967,160.081 281.967 C 159.859 281.967,159.774 282.063,159.892 282.181 M158.336 285.441 C 158.016 285.998,157.877 286.454,158.028 286.454 C 158.312 286.454,159.210 284.720,159.023 284.533 C 158.965 284.475,158.656 284.884,158.336 285.441 M157.233 287.366 C 156.944 288.119,157.328 288.469,157.736 287.824 C 158.144 287.179,158.152 286.799,157.759 286.799 C 157.590 286.799,157.353 287.054,157.233 287.366 M155.405 291.154 C 155.522 291.272,155.393 291.593,155.117 291.869 C 154.564 292.422,154.455 293.011,154.906 293.011 C 155.065 293.011,155.376 292.616,155.596 292.132 C 156.094 291.039,156.094 290.940,155.594 290.940 C 155.372 290.940,155.287 291.037,155.405 291.154 M124.220 292.752 C 123.971 293.369,123.674 293.952,123.560 294.047 C 123.077 294.449,120.458 300.036,120.663 300.225 C 120.787 300.338,120.946 300.276,121.017 300.086 C 121.087 299.896,122.060 297.916,123.177 295.686 C 124.295 293.456,125.089 291.631,124.942 291.631 C 124.794 291.631,124.470 292.135,124.220 292.752 M153.849 294.414 C 153.529 294.971,153.391 295.427,153.541 295.427 C 153.825 295.427,154.723 293.693,154.536 293.507 C 154.478 293.448,154.169 293.857,153.849 294.414 M152.747 296.339 C 152.458 297.092,152.841 297.442,153.249 296.798 C 153.657 296.152,153.666 295.772,153.272 295.772 C 153.103 295.772,152.866 296.027,152.747 296.339 M150.918 300.127 C 151.036 300.245,150.906 300.567,150.631 300.842 C 150.077 301.395,149.968 301.984,150.419 301.984 C 150.578 301.984,150.889 301.589,151.109 301.105 C 151.607 300.013,151.607 299.914,151.107 299.914 C 150.886 299.914,150.801 300.010,150.918 300.127 M119.734 301.726 C 119.484 302.343,119.170 302.925,119.035 303.020 C 118.800 303.186,116.926 307.230,116.991 307.433 C 117.008 307.487,116.784 307.770,116.492 308.061 C 115.915 308.639,115.792 309.232,116.251 309.232 C 116.511 309.232,118.345 305.370,118.327 304.861 C 118.322 304.745,118.465 304.555,118.644 304.439 C 119.094 304.147,120.753 300.604,120.440 300.604 C 120.301 300.604,119.983 301.109,119.734 301.726 M149.362 303.387 C 149.043 303.944,148.904 304.400,149.055 304.400 C 149.338 304.400,150.236 302.667,150.050 302.480 C 149.991 302.422,149.682 302.830,149.362 303.387 M148.114 305.625 C 147.537 306.891,147.618 307.032,148.404 306.126 C 149.131 305.287,149.288 304.745,148.804 304.745 C 148.645 304.745,148.334 305.141,148.114 305.625 M146.432 309.101 C 146.549 309.218,146.420 309.540,146.144 309.816 C 145.591 310.369,145.482 310.958,145.933 310.958 C 146.092 310.958,146.402 310.562,146.623 310.079 C 147.121 308.986,147.121 308.887,146.621 308.887 C 146.399 308.887,146.314 308.983,146.432 309.101 M115.314 310.485 C 114.740 311.746,114.990 311.816,115.694 310.590 C 116.013 310.033,116.152 309.577,116.001 309.577 C 115.851 309.577,115.542 309.986,115.314 310.485 M144.876 312.361 C 144.556 312.918,144.418 313.374,144.568 313.374 C 144.852 313.374,145.750 311.640,145.563 311.453 C 145.505 311.395,145.196 311.803,144.876 312.361 M113.452 314.073 C 112.958 315.217,112.550 316.232,112.545 316.329 C 112.540 316.425,112.297 316.743,112.005 317.034 C 111.428 317.612,111.306 318.205,111.764 318.205 C 112.004 318.205,113.827 314.429,113.857 313.870 C 113.862 313.773,114.105 313.456,114.397 313.164 C 114.974 312.587,115.096 311.993,114.638 311.993 C 114.479 311.993,113.946 312.929,113.452 314.073 M143.627 314.598 C 143.050 315.864,143.132 316.005,143.917 315.099 C 144.645 314.261,144.802 313.719,144.318 313.719 C 144.158 313.719,143.848 314.114,143.627 314.598 M141.945 318.074 C 142.063 318.191,141.933 318.513,141.657 318.789 C 141.104 319.342,140.995 319.931,141.446 319.931 C 141.605 319.931,141.916 319.535,142.136 319.052 C 142.634 317.959,142.634 317.860,142.134 317.860 C 141.913 317.860,141.828 317.956,141.945 318.074 M110.828 319.458 C 110.253 320.719,110.504 320.789,111.207 319.564 C 111.527 319.006,111.665 318.550,111.515 318.550 C 111.364 318.550,111.055 318.959,110.828 319.458 M140.389 321.334 C 140.069 321.891,139.931 322.347,140.081 322.347 C 140.365 322.347,141.263 320.613,141.076 320.426 C 141.018 320.368,140.709 320.777,140.389 321.334 M109.460 321.845 C 108.962 322.938,108.962 323.037,109.462 323.037 C 109.684 323.037,109.769 322.941,109.651 322.823 C 109.534 322.706,109.663 322.384,109.939 322.109 C 110.492 321.555,110.601 320.966,110.150 320.966 C 109.991 320.966,109.680 321.362,109.460 321.845 M139.141 323.571 C 138.564 324.838,138.645 324.978,139.431 324.072 C 140.158 323.234,140.315 322.692,139.831 322.692 C 139.672 322.692,139.361 323.088,139.141 323.571 M108.105 324.768 C 107.259 326.237,107.189 326.488,107.627 326.488 C 107.902 326.488,109.154 323.707,108.964 323.517 C 108.915 323.468,108.529 324.031,108.105 324.768 M137.458 327.047 C 137.576 327.165,137.446 327.486,137.171 327.762 C 136.618 328.315,136.509 328.904,136.959 328.904 C 137.119 328.904,137.429 328.509,137.650 328.025 C 138.147 326.932,138.147 326.833,137.647 326.833 C 137.426 326.833,137.341 326.930,137.458 327.047 M135.903 330.307 C 135.583 330.864,135.444 331.320,135.595 331.320 C 135.878 331.320,136.777 329.586,136.590 329.400 C 136.532 329.341,136.222 329.750,135.903 330.307 M134.654 332.544 C 134.077 333.811,134.158 333.952,134.944 333.046 C 135.671 332.207,135.829 331.665,135.344 331.665 C 135.185 331.665,134.874 332.061,134.654 332.544 M133.588 335.029 C 133.349 335.552,133.174 336.024,133.199 336.078 C 133.223 336.132,133.004 336.415,132.713 336.707 C 132.130 337.289,132.014 337.877,132.482 337.877 C 132.647 337.877,133.114 337.077,133.521 336.098 C 134.291 334.245,134.346 333.365,133.588 335.029 M107.470 337.388 C 107.585 337.688,107.679 337.999,107.679 338.078 C 107.679 338.158,107.820 338.223,107.992 338.223 C 108.164 338.223,108.223 337.912,108.124 337.532 C 108.025 337.153,107.790 336.842,107.602 336.842 C 107.414 336.842,107.354 337.088,107.470 337.388 M131.209 339.248 C 130.796 339.808,130.457 340.463,130.457 340.705 C 130.457 340.946,130.859 340.552,131.351 339.829 C 132.411 338.268,132.293 337.782,131.209 339.248 M109.301 340.423 C 109.842 341.354,113.976 344.435,114.684 344.435 C 114.877 344.435,114.086 343.798,112.927 343.019 C 111.767 342.241,110.575 341.232,110.276 340.776 C 109.709 339.910,108.815 339.586,109.301 340.423 M128.300 342.392 C 127.968 342.585,127.696 342.891,127.696 343.072 C 127.696 343.626,128.198 343.436,128.652 342.709 C 129.142 341.924,129.127 341.910,128.300 342.392 " stroke="none" fill="#d5d5d5" fill-rule="evenodd"></path><path id="path2" d="M269.370 4.061 C 269.180 4.200,268.806 4.702,268.538 5.177 C 268.086 5.979,268.093 6.005,268.643 5.550 C 269.174 5.112,270.060 3.788,269.814 3.802 C 269.760 3.805,269.560 3.921,269.370 4.061 M293.450 91.458 C 293.450 92.312,293.518 92.662,293.600 92.235 C 293.682 91.808,293.682 91.109,293.600 90.682 C 293.518 90.255,293.450 90.604,293.450 91.458 M17.037 149.268 C 9.314 156.957,3.064 163.317,3.148 163.401 C 3.233 163.486,9.664 157.195,17.440 149.422 C 25.217 141.650,31.467 135.290,31.330 135.289 C 31.192 135.289,24.761 141.580,17.037 149.268 M389.130 156.344 C 389.475 156.725,389.828 156.965,389.915 156.878 C 390.102 156.691,389.118 155.651,388.755 155.651 C 388.617 155.651,388.786 155.963,389.130 156.344 M395.593 162.899 C 395.831 163.279,396.148 163.589,396.299 163.589 C 396.450 163.589,396.407 163.279,396.204 162.899 C 396.000 162.519,395.683 162.209,395.498 162.209 C 395.312 162.209,395.355 162.517,395.593 162.899 M376.669 200.445 C 358.665 218.414,354.904 222.251,356.558 220.959 C 357.300 220.380,396.549 181.134,396.549 180.971 C 396.549 180.632,394.982 182.166,376.669 200.445 M27.749 205.781 C 49.744 227.784,54.277 232.237,52.286 229.890 C 51.907 229.443,41.521 219.040,29.206 206.773 C 16.892 194.506,6.267 183.887,5.596 183.175 C 4.925 182.463,4.259 181.881,4.116 181.881 C 3.973 181.881,14.608 192.636,27.749 205.781 M352.750 224.120 C 352.468 224.460,352.453 224.686,352.704 224.840 C 352.904 224.964,353.164 224.816,353.281 224.511 C 353.572 223.752,353.252 223.515,352.750 224.120 M348.264 228.606 C 347.981 228.946,347.967 229.172,348.217 229.327 C 348.417 229.451,348.677 229.302,348.794 228.997 C 349.085 228.238,348.765 228.002,348.264 228.606 M346.040 230.831 C 345.576 231.343,345.561 231.464,345.961 231.464 C 346.233 231.464,346.530 231.179,346.621 230.831 C 346.712 230.483,346.747 230.198,346.699 230.198 C 346.652 230.198,346.355 230.483,346.040 230.831 M52.804 231.022 C 52.804 231.095,53.204 231.416,53.692 231.736 C 54.560 232.305,54.571 232.302,54.198 231.603 C 53.882 231.013,52.804 230.563,52.804 231.022 M55.220 233.292 C 55.220 233.476,55.542 233.798,55.936 234.009 C 56.592 234.360,56.620 234.331,56.269 233.676 C 55.875 232.939,55.220 232.700,55.220 233.292 M62.123 240.035 C 62.123 240.319,62.374 240.552,62.682 240.552 C 63.141 240.552,63.165 240.459,62.813 240.035 C 62.576 239.750,62.324 239.517,62.253 239.517 C 62.181 239.517,62.123 239.750,62.123 240.035 M332.580 244.291 C 332.117 244.803,332.102 244.924,332.501 244.924 C 332.773 244.924,333.070 244.639,333.161 244.291 C 333.252 243.943,333.287 243.658,333.239 243.658 C 333.192 243.658,332.895 243.943,332.580 244.291 M66.609 244.521 C 66.609 244.806,66.861 245.039,67.169 245.039 C 67.628 245.039,67.651 244.945,67.299 244.521 C 67.063 244.236,66.811 244.003,66.739 244.003 C 66.668 244.003,66.609 244.236,66.609 244.521 M330.339 246.534 C 329.783 247.126,329.716 247.340,330.087 247.340 C 330.364 247.340,330.561 247.171,330.524 246.966 C 330.487 246.760,330.626 246.622,330.831 246.659 C 331.037 246.696,331.205 246.502,331.205 246.228 C 331.205 245.593,331.232 245.584,330.339 246.534 M145.528 250.101 C 145.198 250.430,145.244 250.906,145.606 250.906 C 145.775 250.906,146.003 250.673,146.113 250.388 C 146.315 249.862,145.947 249.681,145.528 250.101 M325.772 251.162 C 325.163 251.852,325.130 251.945,325.654 251.507 C 326.049 251.175,326.450 250.982,326.545 251.078 C 326.640 251.173,326.718 251.018,326.718 250.733 C 326.718 250.069,326.751 250.054,325.772 251.162 M293.450 252.632 C 293.450 253.486,293.518 253.835,293.600 253.408 C 293.682 252.981,293.682 252.282,293.600 251.855 C 293.518 251.428,293.450 251.777,293.450 252.632 M316.879 259.994 C 316.299 260.612,316.244 260.800,316.646 260.800 C 316.934 260.800,317.092 260.722,316.997 260.626 C 316.901 260.531,317.081 260.169,317.395 259.821 C 318.236 258.892,317.766 259.050,316.879 259.994 M135.807 270.233 C 135.512 270.802,135.349 271.268,135.444 271.268 C 135.539 271.268,135.857 270.802,136.152 270.233 C 136.446 269.664,136.610 269.198,136.515 269.198 C 136.420 269.198,136.101 269.664,135.807 270.233 M133.391 334.771 C 133.096 335.341,132.933 335.807,133.028 335.807 C 133.123 335.807,133.442 335.341,133.736 334.771 C 134.030 334.202,134.194 333.736,134.099 333.736 C 134.004 333.736,133.685 334.202,133.391 334.771 M129.600 341.232 L 128.994 342.192 129.793 341.425 C 130.232 341.003,130.505 340.571,130.399 340.465 C 130.292 340.359,129.933 340.704,129.600 341.232 " stroke="none" fill="#848484" fill-rule="evenodd"></path><path id="path3" d="M274.590 0.852 C 273.855 1.114,273.091 1.491,272.893 1.689 C 272.695 1.887,273.297 1.764,274.230 1.415 C 275.164 1.067,276.160 0.696,276.445 0.591 C 276.905 0.421,276.905 0.398,276.445 0.388 C 276.160 0.381,275.326 0.590,274.590 0.852 M270.751 3.309 L 269.715 4.199 270.837 3.456 C 271.454 3.048,271.959 2.647,271.959 2.565 C 271.959 2.307,271.812 2.397,270.751 3.309 M292.321 11.866 C 292.321 12.151,292.476 12.480,292.666 12.597 C 292.856 12.714,293.011 12.577,293.011 12.293 C 293.011 12.008,292.856 11.679,292.666 11.562 C 292.476 11.444,292.321 11.581,292.321 11.866 M292.321 14.861 C 292.321 15.252,292.476 15.475,292.666 15.358 C 292.856 15.241,293.011 14.921,293.011 14.647 C 293.011 14.374,292.856 14.150,292.666 14.150 C 292.476 14.150,292.321 14.470,292.321 14.861 M261.432 19.672 C 261.138 20.242,260.975 20.708,261.069 20.708 C 261.164 20.708,261.483 20.242,261.777 19.672 C 262.072 19.103,262.235 18.637,262.140 18.637 C 262.045 18.637,261.727 19.103,261.432 19.672 M256.946 28.645 C 256.651 29.215,256.488 29.681,256.583 29.681 C 256.678 29.681,256.996 29.215,257.291 28.645 C 257.585 28.076,257.749 27.610,257.654 27.610 C 257.559 27.610,257.240 28.076,256.946 28.645 M89.918 79.358 C 89.798 79.552,90.243 79.602,91.019 79.482 C 92.752 79.215,92.891 79.034,91.363 79.034 C 90.679 79.034,90.028 79.180,89.918 79.358 M94.248 79.157 C 94.327 79.225,95.013 79.376,95.772 79.493 C 96.712 79.637,96.988 79.599,96.635 79.374 C 96.163 79.074,93.913 78.869,94.248 79.157 M307.190 79.157 C 307.269 79.225,307.955 79.376,308.714 79.493 C 309.655 79.637,309.930 79.599,309.577 79.374 C 309.106 79.074,306.855 78.869,307.190 79.157 M104.636 86.455 C 104.853 86.931,105.076 87.273,105.133 87.217 C 105.343 87.007,104.827 85.591,104.540 85.591 C 104.376 85.591,104.420 85.980,104.636 86.455 M252.526 96.467 C 252.211 97.129,252.024 97.670,252.111 97.670 C 252.347 97.670,253.394 95.557,253.237 95.399 C 253.162 95.324,252.842 95.805,252.526 96.467 M300.604 104.055 C 302.781 106.238,304.639 108.024,304.734 108.024 C 304.829 108.024,303.126 106.238,300.949 104.055 C 298.772 101.872,296.914 100.086,296.819 100.086 C 296.724 100.086,298.427 101.872,300.604 104.055 M248.040 105.440 C 247.724 106.102,247.537 106.644,247.624 106.644 C 247.860 106.644,248.908 104.530,248.750 104.373 C 248.675 104.298,248.356 104.778,248.040 105.440 M246.055 109.282 C 245.864 109.784,245.611 110.351,245.493 110.543 C 245.374 110.735,245.441 110.790,245.642 110.667 C 246.022 110.432,246.851 108.369,246.565 108.369 C 246.476 108.369,246.246 108.780,246.055 109.282 M305.091 108.477 C 305.091 108.537,305.595 109.041,306.212 109.599 L 307.334 110.613 306.320 109.491 C 305.375 108.445,305.091 108.211,305.091 108.477 M243.553 114.413 C 243.238 115.075,243.050 115.617,243.137 115.617 C 243.374 115.617,244.421 113.504,244.263 113.346 C 244.188 113.271,243.869 113.751,243.553 114.413 M241.569 118.255 C 241.378 118.757,241.125 119.325,241.006 119.516 C 240.888 119.708,240.955 119.764,241.155 119.640 C 241.535 119.405,242.364 117.343,242.079 117.343 C 241.989 117.343,241.759 117.753,241.569 118.255 M314.064 117.451 C 314.064 117.510,314.569 118.015,315.186 118.572 L 316.307 119.586 315.293 118.464 C 314.349 117.419,314.064 117.184,314.064 117.451 M25.538 141.415 L 2.588 164.452 25.626 141.502 C 38.296 128.880,48.663 118.513,48.663 118.465 C 48.663 118.223,46.872 120.000,25.538 141.415 M239.171 123.039 C 238.970 123.567,238.724 124.132,238.623 124.295 C 238.523 124.457,238.524 124.590,238.625 124.590 C 238.926 124.590,239.929 122.471,239.724 122.267 C 239.621 122.163,239.372 122.511,239.171 123.039 M237.082 127.228 C 236.891 127.730,236.638 128.298,236.520 128.490 C 236.401 128.681,236.468 128.737,236.669 128.613 C 237.048 128.378,237.878 126.316,237.592 126.316 C 237.502 126.316,237.273 126.726,237.082 127.228 M230.533 140.140 C 230.325 140.530,230.214 141.031,230.288 141.252 C 230.362 141.474,230.597 141.155,230.810 140.543 C 231.248 139.286,231.103 139.075,230.533 140.140 M226.047 149.113 C 225.838 149.503,225.718 149.976,225.781 150.163 C 225.843 150.351,226.073 150.032,226.291 149.454 C 226.744 148.253,226.609 148.063,226.047 149.113 M221.398 158.412 C 221.103 158.982,220.988 159.448,221.141 159.448 C 221.294 159.448,221.595 158.982,221.810 158.412 C 222.025 157.843,222.140 157.377,222.067 157.377 C 221.993 157.377,221.692 157.843,221.398 158.412 M216.911 167.386 C 216.617 167.955,216.501 168.421,216.654 168.421 C 216.807 168.421,217.108 167.955,217.323 167.386 C 217.538 166.816,217.654 166.350,217.580 166.350 C 217.507 166.350,217.206 166.816,216.911 167.386 M0.670 167.956 C 0.479 168.459,0.373 169.022,0.435 169.208 C 0.497 169.393,0.720 168.982,0.932 168.293 C 1.376 166.846,1.186 166.601,0.670 167.956 M30.716 172.074 C 30.716 172.249,47.062 188.698,67.041 208.629 L 103.365 244.866 67.127 208.470 C 47.196 188.451,30.850 172.002,30.802 171.915 C 30.755 171.828,30.716 171.900,30.716 172.074 M356.344 184.642 L 343.922 197.239 356.502 184.742 C 363.421 177.869,369.011 172.200,368.924 172.145 C 368.837 172.090,363.176 177.714,356.344 184.642 M399.125 174.506 C 399.006 175.051,398.761 175.958,398.582 176.524 C 398.371 177.187,398.374 177.432,398.590 177.214 C 398.957 176.844,399.699 173.872,399.480 173.653 C 399.405 173.578,399.245 173.962,399.125 174.506 M0.494 175.841 C 0.629 176.411,0.888 177.028,1.069 177.214 C 1.251 177.399,1.217 177.011,0.994 176.351 C 0.471 174.806,0.177 174.506,0.494 175.841 M212.425 176.359 C 212.130 176.928,212.014 177.394,212.167 177.394 C 212.320 177.394,212.622 176.928,212.837 176.359 C 213.051 175.789,213.167 175.324,213.094 175.324 C 213.020 175.324,212.719 175.789,212.425 176.359 M207.938 185.332 C 207.643 185.902,207.528 186.368,207.681 186.368 C 207.834 186.368,208.135 185.902,208.350 185.332 C 208.565 184.763,208.681 184.297,208.607 184.297 C 208.533 184.297,208.232 184.763,207.938 185.332 M176.170 189.851 C 175.866 190.438,175.679 190.980,175.754 191.054 C 175.829 191.129,176.148 190.649,176.464 189.987 C 177.174 188.499,176.928 188.385,176.170 189.851 M203.451 194.305 C 203.157 194.875,203.041 195.341,203.194 195.341 C 203.347 195.341,203.648 194.875,203.863 194.305 C 204.078 193.736,204.194 193.270,204.120 193.270 C 204.047 193.270,203.746 193.736,203.451 194.305 M341.490 199.569 L 339.431 201.726 341.588 199.666 C 343.591 197.752,343.903 197.412,343.648 197.412 C 343.594 197.412,342.623 198.382,341.490 199.569 M171.683 198.824 C 171.380 199.411,171.192 199.953,171.267 200.028 C 171.342 200.103,171.662 199.622,171.977 198.960 C 172.687 197.472,172.441 197.358,171.683 198.824 M337.004 204.055 L 334.944 206.212 337.101 204.152 C 338.287 203.019,339.258 202.049,339.258 201.995 C 339.258 201.740,338.917 202.052,337.004 204.055 M198.965 203.279 C 198.670 203.848,198.554 204.314,198.708 204.314 C 198.861 204.314,199.162 203.848,199.377 203.279 C 199.592 202.709,199.707 202.243,199.634 202.243 C 199.560 202.243,199.259 202.709,198.965 203.279 M169.267 203.656 C 168.964 204.243,168.777 204.785,168.851 204.859 C 168.926 204.934,169.246 204.454,169.562 203.792 C 170.271 202.304,170.025 202.190,169.267 203.656 M332.517 208.542 L 330.457 210.699 332.614 208.639 C 333.801 207.506,334.771 206.535,334.771 206.482 C 334.771 206.227,334.431 206.538,332.517 208.542 M167.197 207.797 C 166.893 208.384,166.706 208.926,166.781 209.001 C 166.856 209.076,167.175 208.596,167.491 207.934 C 168.201 206.445,167.955 206.331,167.197 207.797 M328.031 213.028 L 325.971 215.186 328.128 213.126 C 329.314 211.993,330.285 211.022,330.285 210.969 C 330.285 210.714,329.944 211.025,328.031 213.028 M194.478 212.252 C 194.184 212.821,194.068 213.287,194.221 213.287 C 194.374 213.287,194.675 212.821,194.890 212.252 C 195.105 211.682,195.221 211.217,195.147 211.217 C 195.074 211.217,194.772 211.682,194.478 212.252 M164.797 212.597 C 164.503 213.167,164.339 213.632,164.434 213.632 C 164.529 213.632,164.848 213.167,165.142 212.597 C 165.437 212.028,165.600 211.562,165.505 211.562 C 165.410 211.562,165.092 212.028,164.797 212.597 M323.544 217.515 L 321.484 219.672 323.641 217.612 C 324.827 216.479,325.798 215.509,325.798 215.455 C 325.798 215.200,325.458 215.511,323.544 217.515 M162.710 216.771 C 162.406 217.358,162.219 217.899,162.294 217.974 C 162.369 218.049,162.688 217.569,163.004 216.907 C 163.714 215.418,163.468 215.305,162.710 216.771 M320.082 220.966 L 319.068 222.088 320.190 221.074 C 320.807 220.517,321.311 220.012,321.311 219.953 C 321.311 219.686,321.027 219.921,320.082 220.966 M189.991 221.225 C 189.697 221.795,189.581 222.261,189.734 222.261 C 189.887 222.261,190.188 221.795,190.403 221.225 C 190.618 220.656,190.734 220.190,190.661 220.190 C 190.587 220.190,190.286 220.656,189.991 221.225 M160.311 221.570 C 160.016 222.140,159.853 222.606,159.948 222.606 C 160.043 222.606,160.361 222.140,160.656 221.570 C 160.950 221.001,161.113 220.535,161.019 220.535 C 160.924 220.535,160.605 221.001,160.311 221.570 M315.595 225.453 L 314.582 226.575 315.703 225.561 C 316.320 225.003,316.825 224.499,316.825 224.439 C 316.825 224.173,316.540 224.407,315.595 225.453 M158.223 225.744 C 157.920 226.331,157.733 226.873,157.807 226.947 C 157.882 227.022,158.202 226.542,158.518 225.880 C 159.227 224.392,158.981 224.278,158.223 225.744 M311.109 229.940 L 310.095 231.061 311.217 230.048 C 311.833 229.490,312.338 228.985,312.338 228.926 C 312.338 228.659,312.053 228.894,311.109 229.940 M185.505 230.198 C 185.210 230.768,185.047 231.234,185.142 231.234 C 185.237 231.234,185.555 230.768,185.850 230.198 C 186.144 229.629,186.308 229.163,186.213 229.163 C 186.118 229.163,185.799 229.629,185.505 230.198 M155.824 230.544 C 155.530 231.113,155.366 231.579,155.461 231.579 C 155.556 231.579,155.875 231.113,156.169 230.544 C 156.464 229.974,156.627 229.508,156.532 229.508 C 156.437 229.508,156.118 229.974,155.824 230.544 M306.622 234.426 L 305.608 235.548 306.730 234.534 C 307.775 233.589,308.010 233.305,307.744 233.305 C 307.684 233.305,307.179 233.809,306.622 234.426 M153.662 234.749 C 153.093 236.256,153.330 236.324,154.031 234.853 C 154.347 234.191,154.486 233.650,154.341 233.650 C 154.196 233.650,153.890 234.144,153.662 234.749 M302.135 238.913 L 301.122 240.035 302.243 239.021 C 302.860 238.463,303.365 237.959,303.365 237.899 C 303.365 237.633,303.080 237.867,302.135 238.913 M181.018 239.172 C 180.724 239.741,180.560 240.207,180.655 240.207 C 180.750 240.207,181.069 239.741,181.363 239.172 C 181.658 238.602,181.821 238.136,181.726 238.136 C 181.631 238.136,181.313 238.602,181.018 239.172 M151.337 239.517 C 151.043 240.086,150.880 240.552,150.975 240.552 C 151.069 240.552,151.388 240.086,151.682 239.517 C 151.977 238.947,152.140 238.481,152.045 238.481 C 151.950 238.481,151.632 238.947,151.337 239.517 M297.276 243.745 C 295.712 245.381,294.736 246.738,294.738 247.273 C 294.739 247.468,295.064 247.084,295.462 246.419 C 295.859 245.755,296.822 244.551,297.603 243.745 C 298.383 242.938,298.944 242.278,298.849 242.278 C 298.755 242.278,298.046 242.938,297.276 243.745 M149.176 243.722 C 148.607 245.230,148.843 245.297,149.544 243.827 C 149.860 243.165,150.000 242.623,149.854 242.623 C 149.709 242.623,149.404 243.117,149.176 243.722 M146.851 248.490 C 146.556 249.060,146.393 249.525,146.488 249.525 C 146.583 249.525,146.901 249.060,147.196 248.490 C 147.490 247.921,147.654 247.455,147.559 247.455 C 147.464 247.455,147.145 247.921,146.851 248.490 M144.689 252.695 C 144.120 254.203,144.357 254.270,145.058 252.800 C 145.373 252.138,145.513 251.596,145.368 251.596 C 145.223 251.596,144.917 252.091,144.689 252.695 M142.364 257.463 C 142.070 258.033,141.906 258.499,142.001 258.499 C 142.096 258.499,142.415 258.033,142.709 257.463 C 143.004 256.894,143.167 256.428,143.072 256.428 C 142.977 256.428,142.659 256.894,142.364 257.463 M104.468 258.330 C 104.152 258.992,103.965 259.534,104.052 259.534 C 104.288 259.534,105.336 257.421,105.178 257.263 C 105.103 257.188,104.783 257.668,104.468 258.330 M313.038 263.175 C 312.379 263.640,311.991 264.020,312.175 264.019 C 312.360 264.018,312.977 263.635,313.546 263.169 C 314.876 262.079,314.586 262.082,313.038 263.175 M92.464 265.433 C 92.993 265.644,93.623 265.646,94.190 265.438 C 94.960 265.156,94.845 265.110,93.356 265.105 C 91.905 265.101,91.763 265.153,92.464 265.433 M305.406 265.433 C 305.935 265.644,306.565 265.646,307.132 265.438 C 307.902 265.156,307.787 265.110,306.299 265.105 C 304.847 265.101,304.705 265.153,305.406 265.433 M165.487 270.233 C 165.193 270.802,165.030 271.268,165.125 271.268 C 165.220 271.268,165.538 270.802,165.833 270.233 C 166.127 269.664,166.290 269.198,166.195 269.198 C 166.101 269.198,165.782 269.664,165.487 270.233 M106.895 329.803 C 106.757 329.941,106.644 330.293,106.644 330.584 C 106.644 330.972,106.746 331.011,107.028 330.729 C 107.239 330.518,107.352 330.167,107.279 329.948 C 107.206 329.730,107.034 329.665,106.895 329.803 M106.654 332.701 C 106.654 332.985,106.805 333.451,106.989 333.736 C 107.286 334.196,107.323 334.196,107.323 333.736 C 107.323 333.451,107.173 332.985,106.989 332.701 C 106.691 332.240,106.654 332.240,106.654 332.701 M110.958 341.329 C 111.699 342.088,112.383 342.709,112.478 342.709 C 112.573 342.709,112.044 342.088,111.303 341.329 C 110.561 340.569,109.877 339.948,109.782 339.948 C 109.687 339.948,110.216 340.569,110.958 341.329 M128.360 341.901 L 127.524 342.819 128.645 342.009 C 129.812 341.166,129.961 340.984,129.482 340.984 C 129.325 340.984,128.821 341.396,128.360 341.901 M123.900 344.262 C 123.236 344.518,122.925 344.727,123.210 344.727 C 123.494 344.727,124.271 344.518,124.935 344.262 C 125.600 344.006,125.910 343.797,125.626 343.797 C 125.341 343.797,124.564 344.006,123.900 344.262 " stroke="none" fill="#5b5b5b" fill-rule="evenodd"></path><path id="path4" d="" stroke="none" fill="#7c7c7c" fill-rule="evenodd"></path></g></svg>