<svg width="266" height="280" viewBox="0 0 266 280" fill="none" xmlns="http://www.w3.org/2000/svg">
<rect x="77" y="40" width="112" height="150" rx="56" fill="#FBE4D3"/>
<path fill-rule="evenodd" clip-rule="evenodd" d="M167.309 35.0061C147.121 23.3065 127.129 25.222 112.037 29.0299C96.9448 32.8379 88.0168 43.6513 80.3567 59.648C76.5956 67.5028 74.366 76.7915 74.0231 85.4813C73.8884 88.8932 74.3484 92.4151 75.2677 95.7003C75.6049 96.9062 77.4232 101.087 77.9225 97.7088C78.0885 96.5842 77.4804 95.0327 77.4216 93.8376C77.3444 92.2694 77.4273 90.6808 77.5342 89.1149C77.7341 86.1874 78.256 83.3154 79.1847 80.5246C80.5119 76.5367 82.2014 72.2128 84.7874 68.8481C91.1884 60.5206 102.269 60.0459 111.066 55.4636C110.303 56.8686 107.36 59.1432 108.379 60.7268C109.084 61.8207 111.749 61.489 113.022 61.4539C116.371 61.3623 119.735 60.7797 123.043 60.3069C128.256 59.5618 133.141 58.0517 138.047 56.2181C142.063 54.7164 146.65 53.3257 149.669 50.1404C154.54 55.1881 160.81 59.9345 167.07 63.1428C172.688 66.0222 181.749 67.461 185.183 73.3007C189.248 80.2147 187.378 88.7074 188.619 96.2008C189.091 99.0504 190.164 98.9865 190.751 96.4378C191.748 92.1082 192.219 87.6102 191.902 83.1593C191.184 73.1114 187.497 46.7057 167.309 35.0061Z" fill="#28354B"/>
<mask id="mask0" mask-type="alpha" maskUnits="userSpaceOnUse" x="74" y="26" width="118" height="73">
<path fill-rule="evenodd" clip-rule="evenodd" d="M167.309 35.0061C147.121 23.3065 127.129 25.222 112.037 29.0299C96.9448 32.8379 88.0168 43.6513 80.3567 59.648C76.5956 67.5028 74.366 76.7915 74.0231 85.4813C73.8884 88.8932 74.3484 92.4151 75.2677 95.7003C75.6049 96.9062 77.4232 101.087 77.9225 97.7088C78.0885 96.5842 77.4804 95.0327 77.4216 93.8376C77.3444 92.2694 77.4273 90.6808 77.5342 89.1149C77.7341 86.1874 78.256 83.3154 79.1847 80.5246C80.5119 76.5367 82.2014 72.2128 84.7874 68.8481C91.1884 60.5206 102.269 60.0459 111.066 55.4636C110.303 56.8686 107.36 59.1432 108.379 60.7268C109.084 61.8207 111.749 61.489 113.022 61.4539C116.371 61.3623 119.735 60.7797 123.043 60.3069C128.256 59.5618 133.141 58.0517 138.047 56.2181C142.063 54.7164 146.65 53.3257 149.669 50.1404C154.54 55.1881 160.81 59.9345 167.07 63.1428C172.688 66.0222 181.749 67.461 185.183 73.3007C189.248 80.2147 187.378 88.7074 188.619 96.2008C189.091 99.0504 190.164 98.9865 190.751 96.4378C191.748 92.1082 192.219 87.6102 191.902 83.1593C191.184 73.1114 187.497 46.7057 167.309 35.0061Z" fill="white"/>
</mask>
<g mask="url(#mask0)">
<rect x="1" width="264" height="280" fill="#BC8B37"/>
</g>
</svg>
