<svg width="118" height="164" viewBox="0 0 118 164" fill="none" xmlns="http://www.w3.org/2000/svg">
<path d="M115 70C115 39.0721 89.9279 14 59 14C28.0721 14 3 39.0721 3 70V108C3 138.928 28.0721 164 59 164C89.9279 164 115 138.928 115 108V70Z" fill="#FBE4D3"/>
<path fill-rule="evenodd" clip-rule="evenodd" d="M93.309 9.00615C73.121 -2.69345 53.129 -0.777955 38.037 3.02995C22.9448 6.83795 14.0168 17.6513 6.35668 33.648C2.59558 41.5028 0.365983 50.7915 0.0230829 59.4813C-0.111617 62.8932 0.348381 66.4151 1.26768 69.7003C1.60488 70.9062 3.42318 75.087 3.92248 71.7088C4.08848 70.5842 3.48038 69.0327 3.42158 67.8376C3.34438 66.2694 3.42728 64.6808 3.53418 63.1149C3.73408 60.1874 4.25598 57.3154 5.18468 54.5246C6.51188 50.5367 8.20138 46.2128 10.7874 42.8481C17.1884 34.5206 28.269 34.0459 37.066 29.4636C36.303 30.8686 33.36 33.1432 34.379 34.7268C35.084 35.8207 37.749 35.489 39.022 35.4539C42.371 35.3623 45.735 34.7797 49.043 34.3069C54.256 33.5618 59.141 32.0517 64.047 30.2181C68.063 28.7164 72.65 27.3257 75.669 24.1404C80.54 29.1881 86.81 33.9345 93.07 37.1428C98.688 40.0222 104.566 42.6603 108 48.5C112.065 55.414 113.378 62.7074 114.619 70.2008C115.091 73.0504 116.164 72.9865 116.751 70.4378C117.748 66.1082 118.219 61.6102 117.902 57.1593C117.184 47.1114 113.497 20.7057 93.309 9.00615Z" fill="#BC8B37"/>
</svg>
