<svg width="118" height="189" viewBox="0 0 118 189" fill="none" xmlns="http://www.w3.org/2000/svg">
<path d="M115 95C115 64.0721 89.9279 39 59 39C28.0721 39 3 64.0721 3 95V133C3 163.928 28.0721 189 59 189C89.9279 189 115 163.928 115 133V95Z" fill="#FAE7D0"/>
<path fill-rule="evenodd" clip-rule="evenodd" d="M77.117 28.2828C80.176 25.3111 82 21.5676 82 17.5C82 7.83502 71.703 0 59 0C46.297 0 36 7.83502 36 17.5C36 21.5925 37.846 25.3569 40.94 28.3372C39.954 28.5587 38.986 28.7906 38.037 29.03C22.9448 32.838 14.0168 43.6513 6.35668 59.6481C2.59558 67.5029 0.365983 76.7915 0.0230829 85.4814C-0.111617 88.8933 0.348381 92.4152 1.26768 95.7003C1.60488 96.9062 3.42318 101.087 3.92248 97.7088C4.02058 97.0446 3.84848 96.2313 3.67908 95.4306C3.56178 94.8757 3.44558 94.3268 3.42158 93.8376C3.34438 92.2694 3.42728 90.6808 3.53418 89.1149C3.73408 86.1874 4.25598 83.3154 5.18468 80.5246C6.51188 76.5367 8.20138 72.2129 10.7874 68.8481C11.7465 67.6004 12.6646 66.1509 13.6577 64.583C19.2929 55.6862 27.344 42.9756 59 41.6707C93.303 40.2568 105.776 63.3365 110.213 71.546C110.592 72.2477 110.912 72.8408 111.183 73.3007C113.849 77.8347 113.962 83.0476 114.074 88.2123C114.133 90.9235 114.192 93.6213 114.619 96.2008C115.091 99.0504 116.164 98.9866 116.751 96.4378C117.748 92.1083 118.219 87.6102 117.902 83.1593C117.184 73.1115 113.497 46.7057 93.309 35.0061C87.866 31.8521 82.438 29.6875 77.117 28.2828Z" fill="black"/>
</svg>
