<svg width="117" height="157" viewBox="0 0 117 157" fill="none" xmlns="http://www.w3.org/2000/svg">
<path d="M115 63C115 32.0721 89.9279 7 59 7C28.0721 7 3 32.0721 3 63V101C3 131.928 28.0721 157 59 157C89.9279 157 115 131.928 115 101V63Z" fill="#C68642"/>
<path fill-rule="evenodd" clip-rule="evenodd" d="M106.15 22.9204C103.39 20.1004 100.186 17.7068 97.069 15.3066C96.382 14.7774 95.683 14.2611 95.011 13.7118C94.858 13.587 93.292 12.4657 93.105 12.0531C92.654 11.0603 92.915 11.8333 92.977 10.6486C93.056 9.15054 96.111 4.91934 93.831 3.94904C92.828 3.52224 91.04 4.65804 90.078 5.03314C88.196 5.76724 86.292 6.39324 84.347 6.93314C85.279 5.07634 87.055 1.35954 83.716 2.35434C81.114 3.12934 78.69 5.12204 76.076 6.05944C76.941 4.64154 80.4 0.247937 77.274 0.00233668C76.302 -0.0741633 73.471 1.75044 72.424 2.13964C69.287 3.30554 66.083 4.05914 62.79 4.65264C51.592 6.67074 38.497 6.09534 28.137 11.1935C20.1495 15.1237 12.2625 21.222 7.6484 28.9875C3.2012 36.4726 1.5378 44.6642 0.607003 53.2413C-0.0759974 59.5359 -0.131603 66.0426 0.187897 72.36C0.292197 74.4298 0.524998 83.971 3.532 81.0814C5.0301 79.6417 5.0191 73.8282 5.3963 71.8604C6.1473 67.9453 6.8701 64.0127 8.122 60.2227C10.3282 53.5439 12.9308 46.4297 18.4269 41.8297C21.954 38.8782 24.4308 34.8889 27.806 31.9112C29.322 30.5739 28.165 30.7131 30.603 30.8886C32.241 31.0063 33.885 31.0513 35.526 31.0942C39.322 31.1929 43.124 31.1677 46.921 31.1811C54.568 31.2087 62.179 31.3167 69.819 30.9164C73.214 30.7386 76.618 30.6423 80.004 30.3283C81.895 30.1528 85.251 28.9406 86.808 29.8669C88.233 30.7144 89.713 33.4818 90.736 34.6151C93.154 37.2936 96.036 39.3392 98.862 41.5355C104.757 46.1149 107.732 51.8667 109.523 59.0232C111.306 66.1533 110.806 72.7682 113.013 79.7848C113.402 81.0185 114.429 83.145 115.695 81.2389C115.93 80.8849 115.87 78.939 115.87 77.8193C115.87 73.2996 117.014 69.9084 117 65.3591C116.944 51.5272 116.496 33.4908 106.15 22.9204Z" fill="black"/>
</svg>
