<svg width="118" height="160" viewBox="0 0 118 160" fill="none" xmlns="http://www.w3.org/2000/svg">
<path d="M116 71.5772C116 42.7696 90.9279 19.4164 60 19.4164C29.0721 19.4164 4 42.7696 4 71.5772V106.972C4 135.78 29.0721 159.133 60 159.133C90.9279 159.133 116 135.78 116 106.972V71.5772Z" fill="#F5D5BE"/>
<path fill-rule="evenodd" clip-rule="evenodd" d="M114.709 35.3664C115.601 38.3908 116.872 46.4971 114.637 49.1821C113.891 50.0783 108.796 47.5624 106.671 46.4692C105.428 45.8296 104.256 45.2205 103.139 44.6407C88.224 36.8945 83.404 34.3913 57.246 34.7459C29.13 35.127 9.86751 47.3969 8.78401 48.6519C8.03021 49.5251 7.06781 51.8565 6.27641 58.3511C6.02591 60.4071 5.95591 62.9794 5.88641 65.5346C5.73631 71.0513 5.58841 76.4886 3.63051 76.4793C1.19151 76.4672 0.660911 54.324 1.71371 45.54C1.75311 45.2115 1.81991 44.8198 1.89181 44.3977C2.11521 43.0871 2.38851 41.4833 2.04741 40.5656C1.89371 40.1524 1.50681 39.9006 1.11021 39.6425C0.489711 39.2389 -0.154592 38.8196 0.0331084 37.7426C0.244708 36.5266 1.12461 36.4117 1.99661 36.2978C2.56591 36.2235 3.13171 36.1496 3.50601 35.7701C4.63411 34.6257 3.95911 34.0304 3.18811 33.3506C2.73261 32.9489 2.24361 32.5177 2.07301 31.9263C1.43891 29.7268 3.09661 29.0438 4.75991 28.3584C4.88681 28.3061 5.01371 28.2539 5.13971 28.2009C5.82671 27.912 6.24251 27.8128 6.56081 27.7368C7.15351 27.5954 7.40811 27.5346 8.44631 26.4813C6.31481 25.026 5.54361 23.0433 8.46241 21.9797C9.02131 21.776 9.98391 21.7857 10.9615 21.7955C12.152 21.8076 13.3648 21.8198 13.8981 21.4471C14.0463 21.3434 14.1421 20.9526 14.2274 20.6048C14.2877 20.3586 14.3428 20.1339 14.4075 20.0479C15.7575 18.2489 15.6424 16.8823 15.4862 15.028C15.4629 14.7522 15.4388 14.4656 15.4184 14.1652C15.289 12.2668 15.3064 10.5241 17.7467 10.3344C18.7515 10.2564 19.6405 10.6983 20.5169 11.134C21.0607 11.4044 21.5996 11.6722 22.1582 11.812C23.0329 12.0308 23.2574 12.2176 23.4791 12.2148C23.6676 12.2125 23.8541 12.073 24.4369 11.6993C25.6242 10.9377 25.7473 9.79073 25.8715 8.63434C25.9801 7.62242 26.0895 6.60324 26.9133 5.82846C28.489 4.34691 29.711 5.24119 30.909 6.11702C31.552 6.58796 32.189 7.0535 32.869 7.14161C35.415 7.47199 35.933 6.15139 36.491 4.72964C36.858 3.79326 37.243 2.81292 38.236 2.2317C40.065 1.16147 40.883 2.18764 41.67 3.17571C42.169 3.80146 42.655 4.41202 43.379 4.46511C44.383 4.53842 45.885 3.44639 47.218 2.47788C48.032 1.88613 48.783 1.34049 49.317 1.13502C51.586 0.263094 53.234 1.19482 54.902 2.13809C56.31 2.9341 57.732 3.73831 59.554 3.47424C59.852 3.43102 60.127 3.38864 60.385 3.34915C62.623 3.0048 63.492 2.87123 65.831 4.24455C67.521 5.237 68.351 5.0929 69.569 4.88128C70.175 4.77603 70.877 4.6541 71.829 4.64702C72.94 4.63929 73.815 5.11004 74.658 5.56384C75.351 5.93716 76.023 6.29894 76.788 6.37308C77.211 6.41434 77.625 6.22926 78.047 6.04074C78.467 5.85287 78.895 5.66155 79.348 5.68726C81.175 5.79046 82.036 7.078 82.902 8.37298C83.57 9.37195 84.241 10.3754 85.362 10.843C86.981 11.5192 88.798 11.0744 90.533 10.6492C91.316 10.4575 92.082 10.27 92.807 10.1907C96.766 9.75785 96.084 12.0236 95.356 14.4373C95.038 15.4923 94.712 16.5754 94.761 17.474C95.909 17.7235 97.066 17.3318 98.221 16.9406C99.313 16.5706 100.404 16.2012 101.485 16.3749C104.883 16.9214 103.739 20.1208 102.927 22.3919C102.902 22.4611 102.877 22.5294 102.853 22.5968C103.488 22.5861 104.391 22.4065 105.405 22.2045C108.268 21.6347 112.024 20.887 113.185 23.2558C113.664 24.2347 113.199 25.4077 112.745 26.5506C112.432 27.3392 112.125 28.1135 112.138 28.8001C112.164 30.2222 112.848 31.4969 113.534 32.7738C113.989 33.6223 114.446 34.4719 114.709 35.3664ZM113.361 51.6514C113.615 51.8159 113.788 51.9276 113.832 51.9505C115.589 52.8714 116.98 62.1024 117.048 65.6324C117.09 67.8106 117.127 76.117 114.654 75.399C113.901 75.1803 112.752 70.7828 112.588 68.2091C112.425 65.6354 110.855 56.879 108.447 52.8502C108.315 52.6302 108.125 52.3703 107.921 52.0917C107.272 51.2047 106.484 50.127 107.002 49.5344C107.724 48.7087 108.428 48.9986 109.261 49.3417C109.403 49.3999 109.548 49.4596 109.697 49.5156C110.565 49.8416 112.468 51.0729 113.361 51.6514Z" fill="#3D2314"/>
</svg>
