<svg width="837" height="826" viewBox="0 0 837 826" fill="none" xmlns="http://www.w3.org/2000/svg">
<path d="M500.121 676.295C447.694 699.889 389.338 705.179 325.053 692.165C260.767 679.15 206.824 644.13 163.221 587.103C119.619 530.077 101.937 466.787 110.175 397.235C118.414 327.682 145.91 271.723 192.664 229.356C239.419 186.99 291.544 147.578 349.039 111.12C406.535 74.6625 464.041 77.057 521.558 118.304C579.074 159.55 631.688 204.948 679.399 254.496C727.11 304.044 752.184 364.79 754.62 436.736C757.055 508.682 728.354 560.697 668.517 592.779C608.679 624.862 552.547 652.7 500.121 676.295Z" fill="url(#paint0_linear)"/>
<path d="M503.969 299.715C503.697 300.478 503.293 301.186 502.775 301.809C498.657 307.127 493.035 311.085 486.639 313.168C484.383 313.929 482.048 314.431 479.679 314.664C477.4 305.844 475.096 297.013 473.115 288.126C471.559 281.185 470.222 274.234 469.219 267.213C468.574 262.814 457.468 248.36 459.014 244.036C460.724 239.282 477.831 253.273 479.876 256.057C491.216 271.39 495.958 283.649 504.017 297.004C504.358 297.878 504.341 298.853 503.969 299.715V299.715Z" fill="#7C8EC8"/>
<path d="M488.045 311.37C487.64 312.023 487.169 312.633 486.642 313.192C484.386 313.953 482.051 314.455 479.682 314.689C477.403 305.868 475.098 297.038 473.117 288.151C472.825 281.043 472.87 273.93 473.252 266.812C473.085 269.791 477.331 275.832 478.594 278.608L484.077 290.707C486.936 297.019 492.446 304.494 488.045 311.37Z" fill="url(#paint1_linear)"/>
<path d="M484.366 327.209C485.917 333.005 487.742 338.847 491.17 343.773C492.934 346.305 495.429 348.715 498.506 348.884C500.207 348.876 501.881 348.454 503.383 347.656C506.518 346.217 509.419 344.317 511.992 342.02C514.44 339.724 516.717 337.253 518.804 334.625C521.939 331.016 524.789 327.169 527.33 323.12C528.49 321.176 529.52 319.147 530.809 317.275C536.132 309.491 545.47 305.307 551.679 298.216C553.355 296.318 556.318 288.098 555.791 285.614C553.135 284.415 548.56 290.759 545.867 291.88C543.174 293.001 540.715 294.636 538.004 295.698C534.757 296.961 531.237 297.357 527.79 296.847C526.627 296.67 523.494 278.9 522.4 279.423C521.853 279.719 521.378 280.133 521.009 280.634C518.907 283.282 519.676 304.019 517.998 306.892C515.69 310.78 512.269 313.9 508.873 316.896C508.569 317.157 508.183 317.44 507.803 317.295C507.674 317.218 507.563 317.115 507.476 316.994C507.388 316.873 507.326 316.735 507.294 316.589C505.988 313.146 504.564 309.74 503.049 306.391C501.987 304.058 500.564 301.517 498.066 301.034C495.841 300.609 493.716 302.052 491.901 303.415C489.565 305.183 487.202 306.93 484.88 308.709C483.587 309.691 482.003 310.678 481.506 312.3C480.895 314.251 481.828 316.768 482.248 318.665C482.9 321.538 483.609 324.382 484.366 327.209Z" fill="#F5BCBA"/>
<path d="M296.31 419.18C298.354 416.314 300.514 413.601 302.78 410.992C322.193 388.678 350.03 375.021 380.539 372.841C411.048 370.662 441.899 380.127 466.717 399.281C491.535 418.435 508.425 445.815 513.897 475.763C519.369 505.712 513.005 535.941 496.119 560.205C495.892 560.524 495.672 560.833 495.451 561.142C486.734 573.641 475.477 584.181 462.332 592.152C449.187 600.122 434.414 605.366 418.868 607.578C403.322 609.791 387.31 608.93 371.759 605.044C356.208 601.158 341.427 594.325 328.268 584.939C315.11 575.554 303.837 563.802 295.1 550.363C286.363 536.925 280.335 522.066 277.366 506.646C274.397 491.227 274.545 475.552 277.802 460.528C281.059 445.504 287.359 431.429 296.34 419.117L296.31 419.18Z" fill="#7C8EC8"/>
<path d="M293.772 422.116C295.691 418.983 297.736 415.998 299.894 413.11C333.826 411.81 375.491 423.402 415.031 447.631C460.994 475.798 492.993 514.233 503.77 549.381C503.557 549.729 503.35 550.067 503.143 550.405C494.973 564.048 484.124 575.902 471.225 585.282C458.325 594.662 443.631 601.381 427.991 605.051C412.352 608.721 396.077 609.269 380.108 606.664C364.139 604.059 348.793 598.352 334.956 589.873C321.12 581.394 309.068 570.311 299.497 557.265C289.926 544.22 283.026 529.47 279.195 513.869C275.365 498.267 274.681 482.124 277.182 466.372C279.683 450.621 285.32 435.573 293.767 422.099L293.772 422.116Z" fill="url(#paint2_linear)"/>
<path d="M452.507 448.44C457.509 449.699 462.885 450.42 467.173 453.323C470.976 455.883 473.532 459.884 475.677 463.927C482.839 477.495 486.444 492.659 486.155 507.999C486.073 512.08 485.761 516.305 487.198 520.088C488.635 523.872 492.584 527.161 496.568 526.278C501.054 514.614 499.886 501.635 498.661 489.198C497.759 480.118 496.837 470.846 492.943 462.588C489.755 455.784 484.741 449.991 479.612 444.514C460.898 424.427 438.853 406.147 412.382 398.914C411.271 398.478 410.042 398.45 408.911 398.833C403.85 401.274 405.636 410.534 408.05 414.086C411.463 418.985 415.186 423.661 419.196 428.085C428.018 438.044 439.62 445.134 452.507 448.44V448.44Z" fill="url(#paint3_linear)"/>
<path d="M402.044 425.901C401.954 424.269 402.004 422.633 402.192 421.009C402.299 420.202 402.627 419.44 403.138 418.807C403.649 418.173 404.324 417.692 405.09 417.417C405.752 417.333 406.407 417.207 407.052 417.039C408.352 416.495 408.765 414.881 409.018 413.503L411.815 398.105C412.348 395.126 412.879 392 411.959 389.129C410.513 384.639 405.991 381.955 401.663 380.118C398.517 378.772 395.016 377.645 391.757 378.591C386.708 380.056 384.254 385.665 382.818 390.721C381.102 396.157 380.279 401.835 380.38 407.534C380.692 414.099 381.727 430.152 386.339 435.461C392.738 442.921 401.871 433.234 402.044 425.901Z" fill="url(#paint4_linear)"/>
<path d="M465.292 400.531C476.612 403.149 488.442 403.546 499.463 407.218C499.814 407.287 500.146 407.428 500.439 407.632C500.732 407.835 500.98 408.098 501.166 408.402C501.31 408.916 501.297 409.461 501.127 409.967C494.85 437.356 492.573 465.51 494.366 493.551C500.793 494.06 507.259 493.561 513.532 492.073C514.242 491.957 514.913 491.668 515.485 491.232C516.02 490.661 516.396 489.959 516.575 489.197C524.51 465.25 531.355 440.976 537.111 416.375C538.129 412.019 539.116 407.47 538.097 403.109C536.624 396.756 531.278 392.167 526.223 388.048L486.821 355.85C485.807 354.912 484.606 354.201 483.297 353.761C481.813 353.476 480.281 353.553 478.833 353.986C464.868 357.142 445.616 359.605 419.526 361.101C416.143 361.291 434.7 378.821 436.454 382.365C437.856 385.177 441.744 388.594 444.118 390.651C450.065 395.766 457.704 398.774 465.292 400.531Z" fill="#525263"/>
<path d="M465.292 400.531C476.612 403.149 488.442 403.546 499.463 407.218C499.814 407.287 500.146 407.428 500.439 407.632C500.732 407.835 500.98 408.098 501.166 408.402C501.31 408.916 501.297 409.461 501.127 409.967C494.85 437.356 492.573 465.51 494.366 493.551C500.793 494.06 507.259 493.561 513.532 492.073C514.242 491.957 514.913 491.668 515.485 491.232C516.02 490.661 516.396 489.959 516.575 489.197C524.51 465.25 531.355 440.976 537.111 416.375C538.129 412.019 539.116 407.47 538.097 403.109C536.624 396.756 531.278 392.167 526.223 388.048L486.821 355.85C485.807 354.912 484.606 354.201 483.297 353.761C481.813 353.476 480.281 353.553 478.833 353.986C464.868 357.142 445.616 359.605 419.526 361.101C416.143 361.291 434.7 378.821 436.454 382.365C437.856 385.177 441.744 388.594 444.118 390.651C450.065 395.766 457.704 398.774 465.292 400.531Z" fill="url(#paint5_linear)"/>
<path d="M494.108 509.587C493.364 511.043 492.921 512.633 492.805 514.264C492.44 517.135 492.247 520.024 492.226 522.918C492.206 525.163 492.361 527.586 493.81 529.283C495.259 530.981 497.414 531.437 499.446 532.003C504.571 533.54 509.588 535.416 514.465 537.619C517.75 539.023 521.174 540.475 524.737 540.255C528.3 540.035 532.031 537.701 532.497 534.168C532.612 532.477 532.301 530.785 531.593 529.246C528.966 522.511 524.543 516.625 518.805 512.228C517.796 511.422 516.692 510.741 515.519 510.201C514.4 509.758 513.244 509.415 512.064 509.179C508.723 508.32 505.324 507.7 501.894 507.325C498.913 507.146 495.857 506.572 494.108 509.587Z" fill="#2E2E3F"/>
<path d="M494.108 509.587C493.364 511.043 492.921 512.633 492.805 514.264C492.44 517.135 492.247 520.024 492.226 522.918C492.206 525.163 492.361 527.586 493.81 529.283C495.259 530.981 497.414 531.437 499.446 532.003C504.571 533.54 509.588 535.416 514.465 537.619C517.75 539.023 521.174 540.475 524.737 540.255C528.3 540.035 532.031 537.701 532.497 534.168C532.612 532.477 532.301 530.785 531.593 529.246C528.966 522.511 524.543 516.625 518.805 512.228C517.796 511.422 516.692 510.741 515.519 510.201C514.4 509.758 513.244 509.415 512.064 509.179C508.723 508.32 505.324 507.7 501.894 507.325C498.913 507.146 495.857 506.572 494.108 509.587Z" fill="url(#paint6_linear)"/>
<path d="M496.207 494.283C495.767 499.15 495.772 504.047 496.223 508.913C496.436 511.05 496.816 513.402 498.502 514.783C500.068 515.792 501.97 516.138 503.791 515.745C506.004 515.442 508.15 514.771 510.142 513.76C510.587 513.571 510.977 513.272 511.275 512.891C511.485 512.524 511.615 512.116 511.656 511.695C512.811 504.6 513.081 497.39 512.46 490.228C512.466 489.096 512.122 487.988 511.474 487.059C510.168 485.567 507.796 485.876 505.903 486.454C503.483 487.23 501.133 488.21 498.878 489.384C496.734 490.377 496.426 491.944 496.207 494.283Z" fill="#F5BCBA"/>
<path d="M522.273 514.614C523.359 516.673 524.289 518.81 525.055 521.007C525.603 522.721 526.007 524.571 527.269 525.86C528.867 527.469 531.387 527.669 533.648 527.481C535.52 527.401 537.349 526.903 539.002 526.022C539.864 525.581 540.549 524.859 540.945 523.976C541.198 523.117 541.226 522.207 541.024 521.334C540.237 515.218 538.109 509.35 534.792 504.152C532.92 501.481 530.859 498.947 528.625 496.571C527.884 495.476 526.745 494.714 525.451 494.448C524.803 494.489 524.17 494.66 523.589 494.95C523.009 495.241 522.492 495.644 522.07 496.138C520.227 497.833 516.093 500.768 516.834 503.56C517.789 507.281 520.565 511.163 522.273 514.614Z" fill="#F5BCBA"/>
<path d="M537.349 517.615C536.059 518.515 534.816 519.481 533.625 520.509C531.742 521.806 529.422 522.256 527.299 523.101C526.733 523.269 526.231 523.604 525.858 524.061C525.597 524.498 525.457 524.995 525.453 525.504C525.37 528.84 525.837 532.167 526.834 535.352C528.644 542.277 530.637 549.155 532.812 555.986C533.713 558.799 534.751 561.756 537.045 563.613C539.339 565.47 542.585 565.866 545.563 565.656C548.358 565.539 551.083 564.745 553.503 563.342C555.411 562.063 557.006 560.369 558.169 558.387C559.332 556.405 560.032 554.186 560.217 551.896C560.554 547.295 559.537 542.695 557.292 538.665C555.766 535.908 554.044 533.263 552.141 530.752C549.596 527.233 547.059 523.713 544.531 520.193C542.606 517.507 540.911 515.664 537.349 517.615Z" fill="#2E2E3F"/>
<path d="M537.349 517.615C536.059 518.515 534.816 519.481 533.625 520.509C531.742 521.806 529.422 522.256 527.299 523.101C526.733 523.269 526.231 523.604 525.858 524.061C525.597 524.498 525.457 524.995 525.453 525.504C525.37 528.84 525.837 532.167 526.834 535.352C528.644 542.277 530.637 549.155 532.812 555.986C533.713 558.799 534.751 561.756 537.045 563.613C539.339 565.47 542.585 565.866 545.563 565.656C548.358 565.539 551.083 564.745 553.503 563.342C555.411 562.063 557.006 560.369 558.169 558.387C559.332 556.405 560.032 554.186 560.217 551.896C560.554 547.295 559.537 542.695 557.292 538.665C555.766 535.908 554.044 533.263 552.141 530.752C549.596 527.233 547.059 523.713 544.531 520.193C542.606 517.507 540.911 515.664 537.349 517.615Z" fill="url(#paint7_linear)"/>
<path d="M369.092 311.161C368.3 313.924 367.87 316.778 367.814 319.652C367.397 327.12 367.4 334.606 367.824 342.074C368.632 356.333 370.964 370.464 371.977 384.703C373.034 399.51 372.818 414.992 379.5 428.24C380.575 430.657 382.199 432.792 384.241 434.475C385.272 435.3 386.496 435.849 387.798 436.069C389.1 436.29 390.437 436.175 391.682 435.735C392.792 435.175 393.759 434.367 394.506 433.372C395.253 432.378 395.761 431.225 395.989 430.002C396.418 427.557 396.466 425.06 396.131 422.599L394.982 409.082C394.955 408.804 394.922 408.478 395.188 408.33C395.3 408.278 395.424 408.257 395.547 408.268C395.67 408.279 395.788 408.323 395.889 408.394C397.017 409.188 398.1 410.046 399.132 410.961C400.293 411.724 402.049 411.976 402.904 410.879C403.133 410.502 403.28 410.08 403.335 409.642C403.39 409.203 403.352 408.758 403.224 408.336C402.063 402.55 396.549 398.842 393.018 394.109C387.927 387.299 387.02 378.171 387.281 369.635C387.596 358.947 389.422 348.365 391.239 337.82L392.79 328.899C393.958 322.125 395.042 314.751 391.758 308.7C390.45 306.381 388.613 304.403 386.397 302.929C384.18 301.454 381.646 300.524 379.002 300.214C373.862 299.786 370.507 306.875 369.092 311.161Z" fill="#F5BCBA"/>
<path d="M486.641 354.916C485.5 359.26 476.225 355.244 471.452 358.255C462.345 364.038 450.913 360.163 440.241 361.358C428.888 362.694 422.154 374.678 411.007 377.225C410.203 377.476 409.357 377.56 408.52 377.473C406.917 377.169 405.844 375.702 405.035 374.307C403.837 372.151 402.904 369.856 402.258 367.475C400.061 359.597 400.607 350.862 401.294 342.563C401.863 335.532 402.427 328.497 402.988 321.459C403.636 313.266 404.292 305.023 404.955 296.731C405.28 291.272 405.962 285.84 406.997 280.47C407.196 279.536 407.411 278.624 407.65 277.723C409.755 270.363 412.463 263.189 415.748 256.275C417.746 251.845 419.737 247.343 423.152 243.797C426.968 239.869 432.167 237.584 437.48 236.203C442.243 234.805 447.276 234.598 452.137 235.599C454.923 236.273 456.221 239.022 458.532 240.56C461.44 242.298 464.094 244.43 466.417 246.897C468.827 249.914 470.675 253.34 471.872 257.011C482.369 285.694 474.575 318.537 484.706 347.341C485.871 350.725 487.556 351.484 486.641 354.916Z" fill="#7C8EC8"/>
<path d="M466.078 252.54L467.633 258.616L463.81 256.959L465.435 273.307L459.501 255.559L462.919 249.342L466.078 252.54Z" fill="url(#paint8_linear)"/>
<path d="M435.37 255.19L437.772 256.171L441.708 258.962L434.624 285.832C434.624 285.832 446.508 262.85 445.872 251.793C445.483 244.991 443.965 238.302 441.38 231.999L435.37 255.19Z" fill="url(#paint9_linear)"/>
<path d="M410.766 331.478C410.589 337.486 411.186 343.491 412.542 349.347C413.408 353.028 414.575 356.668 414.693 360.436C414.777 361.166 414.615 361.903 414.231 362.53C413.709 363.048 413.041 363.391 412.317 363.513C408.601 364.484 404.882 365.467 401.161 366.463C398.963 358.586 399.509 349.85 400.196 341.551C400.765 334.52 401.33 327.486 401.89 320.447C402.539 312.254 403.194 304.012 403.858 295.72C404.182 290.26 404.864 284.828 405.899 279.458C406.099 278.524 406.313 277.613 406.552 276.711C410.089 274.262 415.139 272.199 417.791 275.325C420.566 278.707 418.23 287.475 417.649 291.19C415.525 304.655 411.145 317.759 410.766 331.478Z" fill="url(#paint10_linear)"/>
<path d="M488.26 219.218C488.535 220.707 488.64 222.222 488.575 223.734C488.527 224.49 488.223 225.207 487.714 225.767C487.204 226.327 486.52 226.698 485.772 226.818C481.977 226.914 479.62 230.794 476.856 233.41C474.682 235.404 472 236.76 469.106 237.33C466.211 237.899 463.216 237.66 460.448 236.639C459.905 236.502 459.33 236.58 458.842 236.855C458.354 237.131 457.991 237.583 457.827 238.119C457.557 239.221 457.587 240.376 457.916 241.463L460.618 254.533C461.136 257.055 461.47 260.167 459.446 261.758C457.422 263.35 454.743 262.409 452.801 261.029C449.724 258.607 447.354 255.402 445.941 251.749C442.823 244.375 441.68 236.315 442.624 228.364C443.567 220.413 446.565 212.845 451.321 206.405C453.105 203.963 455.267 201.822 457.726 200.062C460.316 198.373 463.149 197.092 466.128 196.264C468.776 195.354 471.565 194.92 474.365 194.982C478.147 195.288 481.715 196.862 484.49 199.45C486.524 201.271 488.906 207.07 490.935 207.856C489.86 211.645 487.911 215.095 488.26 219.218Z" fill="#F5BCBA"/>
<path d="M454.371 170.23C452.559 169.992 450.717 170.23 449.026 170.92C445.741 172.466 444.187 176.217 443.293 179.732C442.399 183.248 441.753 187.055 439.312 189.724C437.212 192.03 434.023 193.188 432.174 195.689C430.025 198.597 430.188 202.568 430.774 206.131C431.041 208.822 432.061 211.382 433.715 213.52C435.168 215.132 437.256 216.143 438.445 217.927C439.795 219.976 440.514 223.282 442.967 223.184C443.979 223.032 444.897 222.505 445.54 221.709C447.793 219.333 449.378 216.403 450.134 213.217C450.555 211.444 450.752 209.498 451.935 208.161C453.119 206.824 455.768 206.487 456.53 208.143C456.805 209.217 456.748 210.35 456.366 211.391C456.157 212.484 456.433 213.908 457.507 214.167C459.163 210.954 459.909 207.295 461.955 204.324C463.117 202.652 464.646 201.268 466.426 200.278C468.205 199.288 470.188 198.718 472.222 198.612C474.255 198.507 476.286 198.868 478.159 199.668C480.031 200.468 481.696 201.686 483.025 203.229C484.404 204.835 485.429 206.806 487.242 207.87C488.931 208.682 490.803 209.034 492.672 208.891C496.866 208.888 501.276 208.608 504.835 206.389C508.395 204.17 510.714 199.415 508.887 195.634C507.446 192.668 504.037 191.239 500.799 190.561C497.561 189.883 494.156 189.722 491.216 188.234C487.221 186.193 484.789 182.094 482.216 178.411C479.643 174.729 476.286 171.014 471.825 170.531C470.013 170.431 468.196 170.611 466.44 171.067C464.735 171.609 462.967 171.924 461.18 172.004C458.962 171.773 456.715 170.509 454.371 170.23Z" fill="#2E2E3F"/>
<path d="M464.234 269.44C468.38 283.133 470.613 297.334 470.868 311.639C471.088 323.541 469.984 335.491 471.246 347.327C471.754 350.64 471.986 353.99 471.937 357.342C471.732 360.678 449.585 361.612 446.369 361.895C440.953 362.36 448.538 368.995 444.119 365.874C437.179 360.943 433.466 352.546 431.844 344.196C429.527 332.294 430.794 320.024 432.304 307.986C433.353 299.651 434.521 291.281 437.091 283.282C440.278 273.394 445.611 260.683 446.704 250.344C446.859 248.829 441.191 243.943 443.408 243.795C444.844 243.653 444.39 245.953 444.754 247.039C445.375 248.685 446.397 250.151 447.727 251.304C449.606 253.103 452.023 254.237 454.607 254.534C456.267 254.673 458.12 254.416 459.418 255.458C460.994 256.715 461.036 259.467 461.636 261.334C462.499 264.003 463.402 266.706 464.234 269.44Z" fill="#F2F2F2"/>
<path d="M411.774 238.38C406.197 241.642 401.587 246.294 397.275 251.113C393.699 255.042 390.365 259.185 387.29 263.518C384.584 267.445 382.156 271.478 379.26 275.217C375.259 280.357 370.133 285.452 369.894 291.999C369.959 295.394 370.885 298.717 372.585 301.656C374.046 304.685 376.033 307.431 378.451 309.767C381.501 312.533 385.335 314.282 389.423 314.773C390.709 314.975 392.023 314.902 393.279 314.56C395.027 313.869 396.589 312.778 397.84 311.375C400.75 308.681 403.474 305.79 405.99 302.725C408.546 299.484 410.626 295.875 413.101 292.568C415.257 289.72 417.594 287.11 419.755 284.311C422.335 280.957 424.575 277.357 426.814 273.757C430.002 268.859 432.863 263.756 435.379 258.481C437.457 253.84 438.99 248.974 439.948 243.98C440.564 240.725 441.65 236.569 438.212 234.606C430.912 230.479 418.256 234.529 411.774 238.38Z" fill="#7C8EC8"/>
<path d="M411.774 238.38C406.197 241.642 401.587 246.294 397.275 251.113C393.699 255.042 390.365 259.185 387.29 263.518C384.584 267.445 382.156 271.478 379.26 275.217C375.259 280.357 370.133 285.452 369.894 291.999C369.959 295.394 370.885 298.717 372.585 301.656C374.046 304.685 376.033 307.431 378.451 309.767C381.501 312.533 385.335 314.282 389.423 314.773C390.709 314.975 392.023 314.902 393.279 314.56C395.027 313.869 396.589 312.778 397.84 311.375C400.75 308.681 403.474 305.79 405.99 302.725C408.546 299.484 410.626 295.875 413.101 292.568C415.257 289.72 417.594 287.11 419.755 284.311C422.335 280.957 424.575 277.357 426.814 273.757C430.002 268.859 432.863 263.756 435.379 258.481C437.457 253.84 438.99 248.974 439.948 243.98C440.564 240.725 441.65 236.569 438.212 234.606C430.912 230.479 418.256 234.529 411.774 238.38Z" fill="#7C8EC8"/>
<path d="M518.471 283.447C517.248 284.401 516.444 285.795 516.23 287.332C516.017 288.869 516.41 290.429 517.327 291.681C519.705 295.006 522.729 297.816 526.22 299.942C528.358 301.826 532.738 301.732 536.376 299.079C540.014 296.425 557.453 284.558 566.014 277.087C566.643 276.555 567.158 275.9 567.526 275.163C567.895 274.426 568.109 273.621 568.156 272.799C568.203 271.976 568.082 271.152 567.801 270.378C567.519 269.603 567.082 268.894 566.517 268.294L557.842 259.402C556.814 258.35 555.434 257.714 553.966 257.617C552.498 257.52 551.046 257.968 549.889 258.876L518.471 283.447Z" fill="#3D3D54"/>
<path d="M406.278 399.692C408.137 404.558 411.016 408.969 414.722 412.63C418.764 416.496 423.99 419.025 429.009 421.428L450.149 431.58C453.239 432.971 456.224 434.585 459.079 436.411C466.146 441.146 471.227 448.225 476.17 455.147L510.281 502.93C512.013 505.38 514.369 508.108 517.341 507.715C518.926 507.347 520.37 506.526 521.496 505.351C524.966 502.36 528.678 498.98 529.348 494.438C529.814 491.271 528.718 488.1 527.484 485.125C521.515 470.465 513.098 456.939 504.666 443.499C491.277 422.232 477.728 401.026 464.018 379.881C460.375 374.268 455.753 365.425 450.274 361.58C450.274 361.58 403.096 363.392 402.375 368.158C400.775 378.829 402.124 389.734 406.278 399.692V399.692Z" fill="#525263"/>
<path d="M406.278 399.692C408.137 404.558 411.016 408.969 414.722 412.63C418.764 416.496 423.99 419.025 429.009 421.428L450.149 431.58C453.239 432.971 456.224 434.585 459.079 436.411C466.146 441.146 471.227 448.225 476.17 455.147L510.281 502.93C512.013 505.38 514.369 508.108 517.341 507.715C518.926 507.347 520.37 506.526 521.496 505.351C524.966 502.36 528.678 498.98 529.348 494.438C529.814 491.271 528.718 488.1 527.484 485.125C521.515 470.465 513.098 456.939 504.666 443.499C491.277 422.232 477.728 401.026 464.018 379.881C460.375 374.268 455.753 365.425 450.274 361.58C450.274 361.58 403.096 363.392 402.375 368.158C400.775 378.829 402.124 389.734 406.278 399.692V399.692Z" fill="url(#paint11_linear)"/>
<path d="M442.534 228.641L436.166 231.92L434.382 254.813L447.687 252.88L442.534 228.641Z" fill="#7C8EC8"/>
<path d="M458.947 251.212C459.048 252.227 459.148 253.241 459.249 254.255C459.293 254.695 459.361 255.132 459.452 255.564C459.569 256 459.709 256.43 459.873 256.851L462.192 263.253L461.819 252.512C463.882 253.27 465.985 253.939 468.113 254.496C467.799 252.911 467.236 251.387 466.445 249.979C464.93 247.008 463.511 244.016 461.906 241.115C461.52 240.336 461.005 239.628 460.381 239.023C460.067 238.723 459.687 238.501 459.273 238.373C458.858 238.245 458.419 238.215 457.991 238.285C456.834 238.912 458.045 243.364 458.156 244.365L458.947 251.212Z" fill="#7C8EC8"/>
<path d="M559.854 273.992L536.862 291.946C536.455 292.221 535.967 292.349 535.478 292.309C534.988 292.269 534.527 292.063 534.17 291.726L525.497 283.712C525.321 283.578 525.179 283.406 525.08 283.209C524.981 283.012 524.927 282.796 524.924 282.575C524.921 282.355 524.968 282.136 525.062 281.937C525.155 281.737 525.293 281.561 525.464 281.423L548.505 263.476C548.912 263.201 549.4 263.073 549.89 263.113C550.379 263.154 550.84 263.359 551.197 263.696L559.869 271.699C560.043 271.836 560.182 272.011 560.278 272.21C560.373 272.41 560.422 272.628 560.421 272.849C560.419 273.07 560.367 273.288 560.269 273.486C560.171 273.684 560.029 273.857 559.854 273.992Z" fill="#7C8EC8"/>
<defs>
<linearGradient id="paint0_linear" x1="515.576" y1="0" x2="0.000304368" y2="342.886" gradientUnits="userSpaceOnUse">
<stop stop-color="#172552"/>
<stop offset="1" stop-color="#191E2C"/>
</linearGradient>
<linearGradient id="paint1_linear" x1="451.566" y1="293.61" x2="501.041" y2="287.923" gradientUnits="userSpaceOnUse">
<stop offset="0.01"/>
<stop offset="0.13" stop-opacity="0.69"/>
<stop offset="1" stop-opacity="0"/>
</linearGradient>
<linearGradient id="paint2_linear" x1="-72614.3" y1="-60302.3" x2="4687.76" y2="-98082.8" gradientUnits="userSpaceOnUse">
<stop offset="0.01"/>
<stop offset="0.13" stop-opacity="0.69"/>
<stop offset="1" stop-opacity="0"/>
</linearGradient>
<linearGradient id="paint3_linear" x1="28345.2" y1="25811.2" x2="17995.3" y2="34095.7" gradientUnits="userSpaceOnUse">
<stop offset="0.01"/>
<stop offset="0.13" stop-opacity="0.69"/>
<stop offset="1" stop-opacity="0"/>
</linearGradient>
<linearGradient id="paint4_linear" x1="7188.24" y1="11231.9" x2="12387.6" y2="12516.7" gradientUnits="userSpaceOnUse">
<stop offset="0.01"/>
<stop offset="0.13" stop-opacity="0.69"/>
<stop offset="1" stop-opacity="0"/>
</linearGradient>
<linearGradient id="paint5_linear" x1="29520.4" y1="30819.3" x2="40257.1" y2="29751.9" gradientUnits="userSpaceOnUse">
<stop offset="0.01"/>
<stop offset="0.13" stop-opacity="0.69"/>
<stop offset="1" stop-opacity="0"/>
</linearGradient>
<linearGradient id="paint6_linear" x1="13798.8" y1="10751.3" x2="12770.7" y2="10567.3" gradientUnits="userSpaceOnUse">
<stop offset="0.01"/>
<stop offset="0.13" stop-opacity="0.69"/>
<stop offset="1" stop-opacity="0"/>
</linearGradient>
<linearGradient id="paint7_linear" x1="11890.3" y1="15957.2" x2="12762" y2="15870.6" gradientUnits="userSpaceOnUse">
<stop offset="0.01"/>
<stop offset="0.13" stop-opacity="0.69"/>
<stop offset="1" stop-opacity="0"/>
</linearGradient>
<linearGradient id="paint8_linear" x1="2203.87" y1="2038.92" x2="2552.13" y2="2096.42" gradientUnits="userSpaceOnUse">
<stop offset="0.01"/>
<stop offset="0.13" stop-opacity="0.69"/>
<stop offset="1" stop-opacity="0"/>
</linearGradient>
<linearGradient id="paint9_linear" x1="4873.7" y1="4330.29" x2="4030.95" y2="4508.22" gradientUnits="userSpaceOnUse">
<stop offset="0.01"/>
<stop offset="0.13" stop-opacity="0.69"/>
<stop offset="1" stop-opacity="0"/>
</linearGradient>
<linearGradient id="paint10_linear" x1="6764.86" y1="12882.5" x2="8473.42" y2="12694.9" gradientUnits="userSpaceOnUse">
<stop offset="0.01"/>
<stop offset="0.13" stop-opacity="0.69"/>
<stop offset="1" stop-opacity="0"/>
</linearGradient>
<linearGradient id="paint11_linear" x1="32036.3" y1="35448" x2="40538.3" y2="31774.7" gradientUnits="userSpaceOnUse">
<stop offset="0.01"/>
<stop offset="0.13" stop-opacity="0.69"/>
<stop offset="1" stop-opacity="0"/>
</linearGradient>
</defs>
</svg>
