<svg width="633" height="697" viewBox="0 0 633 697" fill="none" xmlns="http://www.w3.org/2000/svg">
<g clip-path="url(#clip0)">
<path opacity="0.18" d="M587.786 229.948C593.467 245.684 595.635 262.472 594.138 279.135C592.641 295.798 587.515 311.931 579.121 326.403C566.55 347.636 547.297 364.493 536.462 386.614C513.038 434.374 534.119 494.316 513.139 543.203C495.606 584.097 453.191 607.547 413.674 627.984C382.643 644.022 351.296 660.172 317.565 668.746C283.834 677.319 246.679 677.701 215.234 662.834C189.305 650.616 169.017 629.175 150.106 607.63C103.613 554.618 60.5409 496.144 41.1425 428.352C21.7441 360.559 29.6819 281.565 76.333 228.69C99.042 202.942 130.222 183.644 144.97 152.635C160.446 120.102 156.448 77.2536 183.123 53.0035C192.966 44.0478 205.815 39.0674 218.758 36.0189C249.932 28.8149 282.594 31.7941 311.951 44.519C341.742 57.5276 367.405 80.3593 399.15 87.4152C440.238 96.5603 490.298 81.4206 520.595 117.56C544.936 146.624 574.743 194.573 587.786 229.948Z" fill="#7C8EC8"/>
<path d="M416.307 224.712C415.942 225.732 415.401 226.68 414.709 227.513C409.199 234.629 401.678 239.923 393.121 242.71C390.103 243.729 386.979 244.4 383.809 244.712C380.76 232.911 377.677 221.097 375.027 209.208C372.945 199.92 371.156 190.62 369.815 181.227C368.952 175.342 354.094 156.004 356.161 150.22C358.449 143.859 381.337 162.578 384.073 166.303C399.244 186.817 405.589 203.217 416.37 221.084C416.827 222.255 416.804 223.558 416.307 224.712Z" fill="#7C8EC8"/>
<path d="M395.002 240.304C394.46 241.178 393.83 241.995 393.124 242.742C390.106 243.761 386.983 244.433 383.813 244.745C380.764 232.944 377.681 221.13 375.03 209.24C374.64 199.73 374.699 190.214 375.21 180.691C374.986 184.677 380.667 192.758 382.358 196.473L389.693 212.66C393.518 221.105 400.891 231.106 395.002 240.304Z" fill="url(#paint0_linear)"/>
<path d="M390.078 261.495C392.154 269.249 394.595 277.065 399.182 283.656C401.541 287.043 404.88 290.268 408.997 290.495C411.273 290.484 413.512 289.919 415.522 288.851C419.715 286.926 423.597 284.384 427.04 281.311C430.315 278.24 433.361 274.933 436.154 271.417C440.347 266.588 444.161 261.443 447.56 256.025C449.112 253.424 450.489 250.71 452.214 248.205C459.336 237.791 471.829 232.194 480.136 222.706C482.379 220.166 486.343 209.169 485.637 205.846C482.085 204.241 475.963 212.729 472.36 214.229C468.757 215.729 465.467 217.916 461.84 219.337C457.496 221.027 452.787 221.557 448.176 220.875C446.619 220.638 442.428 196.863 440.965 197.563C440.232 197.959 439.596 198.513 439.103 199.184C436.29 202.726 437.319 230.47 435.075 234.314C431.987 239.515 427.41 243.689 422.866 247.697C422.46 248.048 421.943 248.425 421.434 248.231C421.263 248.128 421.114 247.991 420.997 247.829C420.88 247.667 420.797 247.483 420.753 247.287C419.007 242.681 417.102 238.124 415.074 233.644C413.654 230.522 411.75 227.123 408.407 226.476C405.431 225.907 402.588 227.838 400.16 229.661C397.034 232.028 393.874 234.365 390.766 236.745C389.037 238.059 386.917 239.379 386.252 241.55C385.435 244.159 386.683 247.526 387.245 250.064C388.117 253.909 389.066 257.713 390.078 261.495Z" fill="#F5BCBA"/>
<path d="M441.399 478.265C441.891 483.208 442.132 488.094 442.176 492.967C442.516 534.674 426.823 574.919 398.34 605.387C369.856 635.854 330.757 654.217 289.121 656.681C247.486 659.145 206.494 645.522 174.615 618.626C142.737 591.731 122.407 553.618 117.826 512.162C117.771 511.613 117.718 511.08 117.665 510.547C115.325 489.174 117.244 467.548 123.312 446.921C129.38 426.295 139.477 407.075 153.019 390.374C166.56 373.674 183.278 359.823 202.206 349.623C221.133 339.422 241.895 333.075 263.29 330.948C284.686 328.821 306.291 330.956 326.856 337.23C347.421 343.504 366.539 353.793 383.104 367.501C399.668 381.208 413.352 398.064 423.362 417.092C433.373 436.121 439.512 456.945 441.425 478.36L441.399 478.265Z" fill="#7C8EC8"/>
<path d="M441.399 478.265C441.891 483.208 442.132 488.094 442.176 492.967C407.446 522.015 354.211 543.457 293.071 549.535C221.997 556.601 157.401 541.212 117.818 512.081C117.763 511.532 117.71 510.999 117.657 510.466C115.316 489.093 117.236 467.468 123.304 446.841C129.372 426.214 139.469 406.994 153.01 390.294C166.552 373.593 183.27 359.742 202.197 349.542C221.125 339.342 241.887 332.995 263.282 330.868C284.678 328.741 306.283 330.876 326.848 337.15C347.413 343.424 366.531 353.712 383.095 367.42C399.66 381.128 413.343 397.983 423.354 417.011C433.364 436.04 439.504 456.864 441.417 478.279L441.399 478.265Z" fill="url(#paint1_linear)"/>
<path d="M347.46 423.69C354.152 425.374 361.344 426.339 367.081 430.222C372.169 433.648 375.588 439.001 378.458 444.409C388.041 462.562 392.864 482.849 392.477 503.373C392.367 508.832 391.95 514.485 393.873 519.547C395.795 524.609 401.078 529.01 406.409 527.828C412.41 512.223 410.847 494.858 409.209 478.219C408.001 466.072 406.768 453.666 401.559 442.618C397.294 433.515 390.585 425.765 383.723 418.437C358.686 391.563 329.192 367.106 293.777 357.429C292.29 356.846 290.646 356.808 289.133 357.32C282.362 360.587 284.752 372.976 287.981 377.728C292.548 384.282 297.528 390.538 302.893 396.457C314.696 409.781 330.218 419.266 347.46 423.69Z" fill="url(#paint2_linear)"/>
<path d="M279.945 393.535C279.824 391.351 279.89 389.162 280.142 386.99C280.286 385.91 280.724 384.891 281.407 384.043C282.091 383.196 282.995 382.552 284.02 382.184C284.905 382.071 285.782 381.903 286.645 381.678C288.383 380.95 288.935 378.791 289.274 376.947L293.017 356.347C293.73 352.361 294.44 348.179 293.21 344.338C291.275 338.331 285.225 334.74 279.434 332.282C275.226 330.481 270.541 328.973 266.181 330.239C259.426 332.199 256.143 339.703 254.222 346.468C251.926 353.74 250.825 361.337 250.96 368.961C251.377 377.745 252.762 399.222 258.933 406.325C267.494 416.305 279.713 403.345 279.945 393.535Z" fill="url(#paint3_linear)"/>
<path d="M364.562 359.593C379.706 363.095 395.533 363.626 410.279 368.539C410.747 368.631 411.192 368.82 411.584 369.092C411.976 369.365 412.307 369.716 412.557 370.123C412.75 370.81 412.732 371.54 412.504 372.216C404.106 408.86 401.06 446.526 403.459 484.043C412.057 484.724 420.709 484.056 429.102 482.065C430.052 481.91 430.949 481.524 431.714 480.941C432.43 480.176 432.933 479.238 433.173 478.218C443.788 446.179 452.947 413.703 460.648 380.79C462.009 374.962 463.329 368.876 461.966 363.041C459.996 354.542 452.844 348.402 446.081 342.892L393.365 299.814C392.009 298.559 390.402 297.607 388.65 297.02C386.664 296.638 384.615 296.74 382.677 297.32C363.994 301.543 338.238 304.837 303.331 306.839C298.805 307.094 323.632 330.547 325.98 335.289C327.854 339.05 333.056 343.623 336.233 346.374C344.189 353.217 354.41 357.242 364.562 359.593Z" fill="#525263"/>
<path d="M364.562 359.593C379.706 363.095 395.533 363.626 410.279 368.539C410.747 368.631 411.192 368.82 411.584 369.092C411.976 369.365 412.307 369.716 412.557 370.123C412.75 370.81 412.732 371.54 412.504 372.216C404.106 408.86 401.06 446.526 403.459 484.043C412.057 484.724 420.709 484.056 429.102 482.065C430.052 481.91 430.949 481.524 431.714 480.941C432.43 480.176 432.933 479.238 433.173 478.218C443.788 446.179 452.947 413.703 460.648 380.79C462.009 374.962 463.329 368.876 461.966 363.041C459.996 354.542 452.844 348.402 446.081 342.892L393.365 299.814C392.009 298.559 390.402 297.607 388.65 297.02C386.664 296.638 384.615 296.74 382.677 297.32C363.994 301.543 338.238 304.837 303.331 306.839C298.805 307.094 323.632 330.547 325.98 335.289C327.854 339.05 333.056 343.623 336.233 346.374C344.189 353.217 354.41 357.242 364.562 359.593Z" fill="url(#paint4_linear)"/>
<path d="M403.112 505.497C402.117 507.445 401.525 509.573 401.369 511.755C400.881 515.595 400.622 519.461 400.595 523.332C400.567 526.337 400.775 529.578 402.714 531.849C404.653 534.119 407.535 534.73 410.253 535.488C417.111 537.544 423.823 540.053 430.347 543C434.743 544.88 439.324 546.822 444.091 546.528C448.858 546.233 453.849 543.111 454.472 538.383C454.626 536.122 454.21 533.858 453.263 531.799C449.749 522.788 443.831 514.913 436.155 509.03C434.804 507.952 433.328 507.041 431.758 506.319C430.261 505.725 428.714 505.268 427.136 504.952C422.665 503.802 418.118 502.973 413.529 502.471C409.541 502.231 405.452 501.463 403.112 505.497Z" fill="#2E2E3F"/>
<path d="M403.112 505.497C402.117 507.445 401.525 509.573 401.369 511.755C400.881 515.595 400.622 519.461 400.595 523.332C400.567 526.337 400.775 529.578 402.714 531.849C404.653 534.119 407.535 534.73 410.253 535.488C417.111 537.544 423.823 540.053 430.347 543C434.743 544.88 439.324 546.822 444.091 546.528C448.858 546.233 453.849 543.111 454.472 538.383C454.626 536.122 454.21 533.858 453.263 531.799C449.749 522.788 443.831 514.913 436.155 509.03C434.804 507.952 433.328 507.041 431.758 506.319C430.261 505.725 428.714 505.268 427.136 504.952C422.665 503.802 418.118 502.973 413.529 502.471C409.541 502.231 405.452 501.463 403.112 505.497Z" fill="url(#paint5_linear)"/>
<path d="M405.922 485.022C405.332 491.533 405.339 498.085 405.943 504.595C406.227 507.454 406.735 510.601 408.991 512.449C411.086 513.799 413.632 514.262 416.068 513.735C419.028 513.33 421.9 512.433 424.564 511.08C425.16 510.827 425.681 510.428 426.08 509.918C426.362 509.427 426.535 508.881 426.59 508.317C428.135 498.826 428.497 489.179 427.666 479.598C427.674 478.082 427.213 476.601 426.347 475.357C424.599 473.361 421.426 473.774 418.893 474.548C415.655 475.585 412.511 476.897 409.495 478.468C406.626 479.797 406.214 481.893 405.922 485.022Z" fill="#F5BCBA"/>
<path d="M440.795 512.223C442.248 514.977 443.492 517.836 444.516 520.777C445.25 523.069 445.789 525.544 447.478 527.268C449.617 529.421 452.988 529.689 456.013 529.438C458.517 529.331 460.965 528.664 463.176 527.486C464.329 526.896 465.246 525.93 465.775 524.748C466.114 523.599 466.151 522.381 465.881 521.214C464.829 513.03 461.982 505.181 457.543 498.226C455.039 494.652 452.282 491.262 449.292 488.084C448.302 486.619 446.778 485.599 445.046 485.243C444.179 485.298 443.332 485.527 442.555 485.915C441.779 486.303 441.088 486.844 440.523 487.504C438.057 489.772 432.526 493.698 433.517 497.433C434.795 502.412 438.509 507.606 440.795 512.223Z" fill="#F5BCBA"/>
<path d="M460.965 516.238C459.239 517.442 457.576 518.734 455.983 520.11C453.464 521.845 450.359 522.447 447.519 523.577C446.762 523.802 446.09 524.25 445.591 524.862C445.242 525.446 445.055 526.112 445.049 526.792C444.938 531.256 445.563 535.707 446.897 539.968C449.319 549.233 451.985 558.435 454.894 567.574C456.1 571.337 457.489 575.293 460.558 577.778C463.627 580.262 467.97 580.793 471.955 580.511C475.694 580.355 479.339 579.293 482.577 577.416C485.13 575.704 487.264 573.438 488.82 570.786C490.375 568.135 491.312 565.166 491.56 562.102C492.01 555.946 490.65 549.793 487.647 544.4C485.605 540.711 483.301 537.173 480.754 533.813C477.35 529.105 473.956 524.397 470.574 519.687C467.998 516.093 465.73 513.627 460.965 516.238Z" fill="#2E2E3F"/>
<path d="M460.965 516.238C459.239 517.442 457.576 518.734 455.983 520.11C453.464 521.845 450.359 522.447 447.519 523.577C446.762 523.802 446.09 524.25 445.591 524.862C445.242 525.446 445.055 526.112 445.049 526.792C444.938 531.256 445.563 535.707 446.897 539.968C449.319 549.233 451.985 558.435 454.894 567.574C456.1 571.337 457.489 575.293 460.558 577.778C463.627 580.262 467.97 580.793 471.955 580.511C475.694 580.355 479.339 579.293 482.577 577.416C485.13 575.704 487.264 573.438 488.82 570.786C490.375 568.135 491.312 565.166 491.56 562.102C492.01 555.946 490.65 549.793 487.647 544.4C485.605 540.711 483.301 537.173 480.754 533.813C477.35 529.105 473.956 524.397 470.574 519.687C467.998 516.093 465.73 513.627 460.965 516.238Z" fill="url(#paint6_linear)"/>
<path d="M235.858 240.025C234.798 243.722 234.224 247.54 234.149 251.385C233.591 261.377 233.595 271.392 234.163 281.384C235.243 300.46 238.363 319.367 239.718 338.416C241.133 358.226 240.843 378.939 249.783 396.664C251.222 399.898 253.394 402.754 256.126 405.005C257.505 406.11 259.143 406.844 260.885 407.139C262.627 407.434 264.415 407.28 266.081 406.691C267.567 405.942 268.86 404.861 269.86 403.531C270.859 402.2 271.538 400.657 271.844 399.022C272.418 395.75 272.482 392.409 272.034 389.117L270.497 371.032C270.46 370.661 270.417 370.225 270.772 370.026C270.922 369.957 271.088 369.928 271.253 369.943C271.418 369.959 271.575 370.017 271.71 370.112C273.22 371.175 274.668 372.322 276.049 373.547C277.602 374.567 279.952 374.905 281.095 373.437C281.401 372.932 281.598 372.368 281.672 371.781C281.746 371.195 281.695 370.599 281.523 370.034C279.97 362.293 272.593 357.333 267.869 351C261.058 341.89 259.844 329.678 260.193 318.257C260.615 303.957 263.057 289.799 265.488 275.692L267.564 263.756C269.127 254.694 270.577 244.828 266.183 236.733C264.434 233.63 261.976 230.984 259.01 229.011C256.044 227.038 252.654 225.794 249.117 225.379C242.241 224.807 237.751 234.29 235.858 240.025Z" fill="#F5BCBA"/>
<path d="M393.127 298.565C391.601 304.377 379.191 299.004 372.805 303.032C360.621 310.768 345.327 305.584 331.049 307.183C315.86 308.971 306.85 325.005 291.936 328.412C290.861 328.748 289.729 328.86 288.609 328.743C286.464 328.336 285.029 326.375 283.946 324.508C282.343 321.623 281.096 318.553 280.232 315.367C277.292 304.828 278.022 293.14 278.941 282.038C279.703 272.631 280.458 263.22 281.208 253.803C282.075 242.842 282.953 231.814 283.84 220.72C284.275 213.416 285.187 206.149 286.571 198.964C286.838 197.714 287.125 196.495 287.446 195.289C290.261 185.442 293.885 175.844 298.279 166.594C300.953 160.667 303.617 154.644 308.186 149.9C313.291 144.645 320.247 141.588 327.355 139.74C333.727 137.87 340.46 137.593 346.964 138.932C350.692 139.834 352.427 143.511 355.519 145.569C359.411 147.894 362.961 150.747 366.068 154.047C369.293 158.084 371.765 162.667 373.368 167.579C387.411 205.954 376.984 249.893 390.537 288.431C392.097 292.958 394.351 293.973 393.127 298.565Z" fill="#7C8EC8"/>
<path d="M365.612 161.596L367.693 169.725L362.578 167.51L364.753 189.381L356.813 165.636L361.386 157.318L365.612 161.596Z" fill="url(#paint7_linear)"/>
<path d="M324.53 165.142L327.743 166.454L333.008 170.188L323.532 206.138C323.532 206.138 339.431 175.39 338.58 160.597C338.059 151.498 336.028 142.548 332.571 134.115L324.53 165.142Z" fill="url(#paint8_linear)"/>
<path d="M293.022 268.615C292.786 276.653 293.584 284.688 295.399 292.522C296.558 297.448 298.118 302.317 298.277 307.358C298.39 308.335 298.172 309.322 297.658 310.16C296.961 310.853 296.066 311.312 295.097 311.475C290.126 312.774 285.151 314.09 280.172 315.422C277.232 304.883 277.962 293.195 278.881 282.093C279.643 272.686 280.398 263.274 281.148 253.858C282.016 242.897 282.893 231.869 283.78 220.775C284.215 213.471 285.127 206.204 286.511 199.019C286.779 197.769 287.065 196.55 287.386 195.343C292.117 192.067 298.874 189.307 302.421 193.49C306.134 198.015 303.01 209.744 302.231 214.715C299.39 232.73 293.531 250.262 293.022 268.615Z" fill="url(#paint9_linear)"/>
<path d="M395.29 117.015C395.658 119.007 395.799 121.035 395.711 123.058C395.647 124.069 395.241 125.028 394.56 125.778C393.878 126.527 392.962 127.023 391.962 127.183C386.885 127.313 383.731 132.504 380.033 136.003C377.124 138.671 373.536 140.485 369.664 141.247C365.791 142.009 361.784 141.689 358.081 140.323C357.354 140.14 356.585 140.244 355.933 140.612C355.28 140.981 354.794 141.586 354.575 142.303C354.213 143.778 354.254 145.323 354.693 146.777L358.308 164.264C359.002 167.637 359.449 171.801 356.74 173.93C354.032 176.059 350.448 174.8 347.851 172.954C343.733 169.714 340.563 165.426 338.672 160.539C334.501 150.672 332.972 139.89 334.234 129.252C335.496 118.615 339.507 108.49 345.871 99.8734C348.257 96.6061 351.149 93.7412 354.44 91.387C357.904 89.1279 361.695 87.4141 365.68 86.3056C369.223 85.0884 372.954 84.5076 376.7 84.5901C381.76 84.9997 386.533 87.1061 390.247 90.5679C392.968 93.0052 396.154 100.763 398.869 101.815C397.431 106.884 394.823 111.499 395.29 117.015Z" fill="#F5BCBA"/>
<path d="M349.95 51.4752C347.526 51.1567 345.062 51.4748 342.799 52.3982C338.404 54.4664 336.326 59.4854 335.129 64.1882C333.933 68.8911 333.069 73.985 329.802 77.5561C326.993 80.6411 322.727 82.1909 320.253 85.5362C317.378 89.4273 317.596 94.7399 318.38 99.5069C318.738 103.106 320.101 106.532 322.315 109.393C324.259 111.549 327.052 112.902 328.643 115.289C330.449 118.029 331.411 122.452 334.693 122.322C336.047 122.118 337.275 121.414 338.135 120.348C341.15 117.17 343.27 113.25 344.281 108.987C344.844 106.615 345.108 104.011 346.692 102.222C348.275 100.434 351.82 99.9834 352.839 102.198C353.207 103.636 353.13 105.151 352.619 106.543C352.34 108.007 352.709 109.911 354.146 110.258C356.361 105.959 357.359 101.064 360.096 97.0889C361.651 94.8517 363.697 93 366.078 91.6755C368.459 90.351 371.111 89.5889 373.832 89.4475C376.553 89.3062 379.27 89.7893 381.775 90.8598C384.281 91.9304 386.508 93.5601 388.286 95.624C390.131 97.7734 391.502 100.41 393.928 101.833C396.187 102.919 398.693 103.39 401.192 103.199C406.804 103.196 412.704 102.821 417.466 99.8519C422.228 96.8826 425.331 90.522 422.887 85.4633C420.959 81.4951 416.397 79.5833 412.066 78.6762C407.734 77.7692 403.178 77.5533 399.244 75.5627C393.899 72.8315 390.646 67.3475 387.204 62.4207C383.761 57.4938 379.271 52.5244 373.301 51.878C370.877 51.7438 368.447 51.9854 366.097 52.5943C363.816 53.32 361.45 53.7417 359.06 53.8485C356.093 53.5398 353.086 51.8486 349.95 51.4752Z" fill="#2E2E3F"/>
<path d="M363.145 184.207C368.692 202.527 371.679 221.526 372.021 240.664C372.315 256.589 370.838 272.576 372.526 288.411C373.207 292.844 373.516 297.325 373.45 301.81C373.176 306.274 343.546 307.523 339.244 307.902C331.998 308.524 342.146 317.401 336.234 313.226C326.948 306.628 321.981 295.393 319.81 284.223C316.71 268.299 318.406 251.883 320.426 235.777C321.83 224.627 323.392 213.427 326.831 202.727C331.094 189.497 338.229 172.491 339.692 158.659C339.899 156.632 332.316 150.094 335.281 149.897C337.204 149.706 336.596 152.785 337.083 154.237C337.914 156.44 339.281 158.401 341.06 159.943C343.574 162.35 346.808 163.867 350.266 164.264C352.487 164.451 354.965 164.107 356.702 165.5C358.81 167.183 358.866 170.864 359.669 173.362C360.824 176.934 362.031 180.549 363.145 184.207Z" fill="#F2F2F2"/>
<path d="M292.963 142.653C285.502 147.016 279.334 153.241 273.564 159.687C268.78 164.944 264.32 170.487 260.206 176.284C256.585 181.538 253.337 186.934 249.462 191.936C244.11 198.814 237.251 205.629 236.931 214.388C237.018 218.931 238.257 223.377 240.532 227.309C242.488 231.361 245.145 235.035 248.381 238.16C252.461 241.861 257.59 244.201 263.059 244.857C264.78 245.128 266.538 245.031 268.219 244.573C270.557 243.648 272.647 242.189 274.32 240.312C278.214 236.707 281.858 232.84 285.225 228.739C288.644 224.402 291.426 219.574 294.738 215.15C297.622 211.34 300.75 207.848 303.64 204.103C307.093 199.616 310.089 194.799 313.084 189.983C317.349 183.43 321.177 176.602 324.543 169.545C327.323 163.336 329.375 156.826 330.657 150.145C331.48 145.789 332.934 140.229 328.333 137.603C318.568 132.081 301.635 137.5 292.963 142.653Z" fill="#7C8EC8"/>
<path d="M292.963 142.653C285.502 147.016 279.334 153.241 273.564 159.687C268.78 164.944 264.32 170.487 260.206 176.284C256.585 181.538 253.337 186.934 249.462 191.936C244.11 198.814 237.251 205.629 236.931 214.388C237.018 218.931 238.257 223.377 240.532 227.309C242.488 231.361 245.145 235.035 248.381 238.16C252.461 241.861 257.59 244.201 263.059 244.857C264.78 245.128 266.538 245.031 268.219 244.573C270.557 243.648 272.647 242.189 274.32 240.312C278.214 236.707 281.858 232.84 285.225 228.739C288.644 224.402 291.426 219.574 294.738 215.15C297.622 211.34 300.75 207.848 303.64 204.103C307.093 199.616 310.089 194.799 313.084 189.983C317.349 183.43 321.177 176.602 324.543 169.545C327.323 163.336 329.375 156.826 330.657 150.145C331.48 145.789 332.934 140.229 328.333 137.603C318.568 132.081 301.635 137.5 292.963 142.653Z" fill="#7C8EC8"/>
<path d="M435.708 202.947C434.071 204.224 432.996 206.088 432.71 208.145C432.424 210.201 432.95 212.288 434.177 213.963C437.358 218.411 441.405 222.17 446.075 225.015C448.936 227.537 454.796 227.411 459.663 223.86C464.53 220.309 487.862 204.434 499.315 194.437C500.157 193.726 500.846 192.85 501.339 191.864C501.831 190.878 502.118 189.801 502.181 188.701C502.244 187.6 502.082 186.498 501.705 185.462C501.328 184.425 500.744 183.477 499.989 182.674L488.382 170.778C487.007 169.37 485.16 168.519 483.196 168.389C481.233 168.26 479.29 168.859 477.741 170.074L435.708 202.947Z" fill="#3D3D54"/>
<path d="M285.61 358.47C288.097 364.98 291.949 370.882 296.907 375.78C302.315 380.952 309.307 384.335 316.021 387.55L344.304 401.133C348.438 402.993 352.432 405.153 356.251 407.596C365.706 413.932 372.504 423.402 379.118 432.663L424.755 496.591C427.071 499.868 430.223 503.519 434.2 502.993C436.321 502.501 438.252 501.402 439.759 499.831C444.402 495.829 449.368 491.306 450.264 485.23C450.887 480.992 449.421 476.75 447.77 472.77C439.784 453.157 428.523 435.06 417.242 417.079C399.329 388.626 381.202 360.255 362.859 331.965C357.986 324.456 351.801 312.624 344.471 307.48C344.471 307.48 281.353 309.905 280.388 316.282C278.247 330.557 280.053 345.147 285.61 358.47Z" fill="#525263"/>
<path d="M285.61 358.47C288.097 364.98 291.949 370.882 296.907 375.78C302.315 380.952 309.307 384.335 316.021 387.55L344.304 401.133C348.438 402.993 352.432 405.153 356.251 407.596C365.706 413.932 372.504 423.402 379.118 432.663L424.755 496.591C427.071 499.868 430.223 503.519 434.2 502.993C436.321 502.501 438.252 501.402 439.759 499.831C444.402 495.829 449.368 491.306 450.264 485.23C450.887 480.992 449.421 476.75 447.77 472.77C439.784 453.157 428.523 435.06 417.242 417.079C399.329 388.626 381.202 360.255 362.859 331.965C357.986 324.456 351.801 312.624 344.471 307.48C344.471 307.48 281.353 309.905 280.388 316.282C278.247 330.557 280.053 345.147 285.61 358.47Z" fill="url(#paint10_linear)"/>
<path d="M334.114 129.622L325.594 134.009L323.207 164.638L341.008 162.052L334.114 129.622Z" fill="#7C8EC8"/>
<path d="M356.072 159.821C356.207 161.177 356.341 162.534 356.476 163.891C356.535 164.479 356.625 165.064 356.748 165.642C356.904 166.226 357.092 166.801 357.311 167.364L360.414 175.93L359.915 161.559C362.675 162.574 365.488 163.468 368.335 164.213C367.915 162.094 367.162 160.054 366.103 158.171C364.077 154.196 362.178 150.192 360.03 146.311C359.515 145.269 358.825 144.322 357.99 143.513C357.57 143.112 357.063 142.814 356.508 142.643C355.953 142.471 355.366 142.431 354.793 142.526C353.245 143.365 354.865 149.321 355.014 150.66L356.072 159.821Z" fill="#7C8EC8"/>
<path d="M491.073 190.298L460.313 214.318C459.769 214.685 459.115 214.856 458.461 214.803C457.806 214.749 457.189 214.474 456.712 214.023L445.107 203.301C444.873 203.122 444.682 202.892 444.55 202.629C444.417 202.365 444.346 202.075 444.342 201.78C444.337 201.485 444.4 201.193 444.525 200.926C444.651 200.659 444.835 200.424 445.064 200.238L475.89 176.228C476.434 175.86 477.088 175.689 477.743 175.743C478.397 175.796 479.014 176.071 479.492 176.523L491.094 187.229C491.326 187.412 491.513 187.647 491.641 187.913C491.769 188.18 491.834 188.472 491.832 188.768C491.83 189.064 491.76 189.355 491.629 189.62C491.498 189.885 491.307 190.117 491.073 190.298Z" fill="#7C8EC8"/>
</g>
<defs>
<linearGradient id="paint0_linear" x1="346.197" y1="216.544" x2="412.389" y2="208.935" gradientUnits="userSpaceOnUse">
<stop offset="0.01"/>
<stop offset="0.13" stop-opacity="0.69"/>
<stop offset="1" stop-opacity="0"/>
</linearGradient>
<linearGradient id="paint1_linear" x1="126064" y1="6578.69" x2="73018.2" y2="109339" gradientUnits="userSpaceOnUse">
<stop offset="0.01"/>
<stop offset="0.13" stop-opacity="0.69"/>
<stop offset="1" stop-opacity="0"/>
</linearGradient>
<linearGradient id="paint2_linear" x1="37664.8" y1="34356.3" x2="23817.8" y2="45440" gradientUnits="userSpaceOnUse">
<stop offset="0.01"/>
<stop offset="0.13" stop-opacity="0.69"/>
<stop offset="1" stop-opacity="0"/>
</linearGradient>
<linearGradient id="paint3_linear" x1="9359.12" y1="14850.8" x2="16315.3" y2="16569.7" gradientUnits="userSpaceOnUse">
<stop offset="0.01"/>
<stop offset="0.13" stop-opacity="0.69"/>
<stop offset="1" stop-opacity="0"/>
</linearGradient>
<linearGradient id="paint4_linear" x1="39237.1" y1="41056.6" x2="53601.6" y2="39628.6" gradientUnits="userSpaceOnUse">
<stop offset="0.01"/>
<stop offset="0.13" stop-opacity="0.69"/>
<stop offset="1" stop-opacity="0"/>
</linearGradient>
<linearGradient id="paint5_linear" x1="18203.3" y1="14207.8" x2="16827.8" y2="13961.7" gradientUnits="userSpaceOnUse">
<stop offset="0.01"/>
<stop offset="0.13" stop-opacity="0.69"/>
<stop offset="1" stop-opacity="0"/>
</linearGradient>
<linearGradient id="paint6_linear" x1="15650" y1="21172.8" x2="16816.3" y2="21056.8" gradientUnits="userSpaceOnUse">
<stop offset="0.01"/>
<stop offset="0.13" stop-opacity="0.69"/>
<stop offset="1" stop-opacity="0"/>
</linearGradient>
<linearGradient id="paint7_linear" x1="2690.58" y1="2551.58" x2="3156.51" y2="2628.5" gradientUnits="userSpaceOnUse">
<stop offset="0.01"/>
<stop offset="0.13" stop-opacity="0.69"/>
<stop offset="1" stop-opacity="0"/>
</linearGradient>
<linearGradient id="paint8_linear" x1="6262.52" y1="5617.18" x2="5135.02" y2="5855.24" gradientUnits="userSpaceOnUse">
<stop offset="0.01"/>
<stop offset="0.13" stop-opacity="0.69"/>
<stop offset="1" stop-opacity="0"/>
</linearGradient>
<linearGradient id="paint9_linear" x1="8794.11" y1="17060.5" x2="11080" y2="16809.5" gradientUnits="userSpaceOnUse">
<stop offset="0.01"/>
<stop offset="0.13" stop-opacity="0.69"/>
<stop offset="1" stop-opacity="0"/>
</linearGradient>
<linearGradient id="paint10_linear" x1="42603.2" y1="47249.3" x2="53977.8" y2="42334.7" gradientUnits="userSpaceOnUse">
<stop offset="0.01"/>
<stop offset="0.13" stop-opacity="0.69"/>
<stop offset="1" stop-opacity="0"/>
</linearGradient>
<clipPath id="clip0">
<rect width="571.236" height="642.839" fill="white" transform="translate(0 56.5106) rotate(-5.67739)"/>
</clipPath>
</defs>
</svg>
