<svg width="1024" height="837" viewBox="0 0 1024 837" fill="none" xmlns="http://www.w3.org/2000/svg">
<path d="M84.7474 736.836L50.1903 346.864C49.3085 336.933 52.3391 327.048 58.6376 319.313L218.229 123.385C222.262 118.462 227.451 114.612 233.335 112.179C239.218 109.744 245.612 108.802 251.948 109.435L740.147 159.586C746.905 160.276 753.363 162.753 758.85 166.762C764.33 170.77 768.645 176.166 771.353 182.394L883.752 439.353C886.698 446.107 887.64 453.562 886.474 460.836L841.724 736.906L84.7474 736.836Z" fill="#F2F2F2"/>
<path d="M850.446 737.537H76.5048C76.4315 737.537 76.3589 737.523 76.2912 737.495C76.2234 737.467 76.162 737.425 76.1096 737.376C76.058 737.32 76.0168 737.258 75.9889 737.195C75.961 737.125 75.9463 737.055 75.9463 736.979C75.9463 736.909 75.961 736.832 75.9889 736.762C76.0168 736.7 76.058 736.637 76.1096 736.588C76.162 736.532 76.2234 736.49 76.2912 736.462C76.3589 736.434 76.4315 736.421 76.5048 736.421H850.516C850.662 736.421 850.809 736.483 850.914 736.588C851.018 736.693 851.074 736.832 851.074 736.979C851.074 737.055 851.06 737.139 851.025 737.209C850.99 737.285 850.949 737.348 850.886 737.397C850.83 737.453 850.76 737.495 850.683 737.516C850.607 737.537 850.523 737.551 850.446 737.537Z" fill="#AFB3B8"/>
<path d="M391.499 530.797H116.368V700.994H391.499V530.797Z" fill="#D7DADC"/>
<path d="M383.75 538.609H124.187V693.238H383.75V538.609Z" fill="#F2F2F2"/>
<path d="M383.331 538.609H124.187V693.238H383.331V538.609Z" fill="#F2F2F2"/>
<path d="M410.907 530.797H391.499V700.994H410.907V530.797Z" fill="#AFB3B8"/>
<path d="M383.75 611.777H124.187V620.078H383.75V611.777Z" fill="#D7DADC"/>
<path d="M194.069 544.259H177.803V611.77H194.069V544.259Z" fill="#AFB3B8"/>
<path d="M237.562 544.259H194.069V611.77H237.562V544.259Z" fill="#D7DADC"/>
<path d="M208.52 552.001H199.375V611.784H208.52V552.001Z" fill="#AFB3B8"/>
<path d="M233.024 552.001H208.52V611.784H233.024V552.001Z" fill="#D7DADC"/>
<path d="M236.446 611.777H222.832L215.013 555.419H228.627L236.446 611.777Z" fill="#AFB3B8"/>
<path d="M236.446 611.777H272.749L264.929 555.419H228.627L236.446 611.777Z" fill="#D7DADC"/>
<path d="M181.852 693.245H168.239L160.419 636.887H174.033L181.852 693.245Z" fill="#AFB3B8"/>
<path d="M181.852 693.245H218.155L210.335 636.887H174.033L181.852 693.245Z" fill="#D7DADC"/>
<path d="M330.692 675.738H247.266V693.252H330.692V675.738Z" fill="#D7DADC"/>
<path d="M306.118 647.907H247.266V662.066H306.118V647.907Z" fill="#D7DADC"/>
<path d="M320.011 662.067H247.266V675.724H320.011V662.067Z" fill="#D7DADC"/>
<path d="M316.102 557.093H302.907V611.791H316.102V557.093Z" fill="#AFB3B8"/>
<path d="M351.357 557.093H316.101V611.791H351.357V557.093Z" fill="#D7DADC"/>
<path d="M345.214 563.301H332.578V611.742H345.214V563.301Z" fill="#AFB3B8"/>
<path d="M366.856 563.301H345.214V611.742H366.856V563.301Z" fill="#D7DADC"/>
<path d="M306.118 659.695H247.266V662.053H306.118V659.695Z" fill="#AFB3B8"/>
<path d="M320.011 673.366H247.266V675.723H320.011V673.366Z" fill="#AFB3B8"/>
<path d="M330.692 690.874H247.266V693.231H330.692V690.874Z" fill="#AFB3B8"/>
<path d="M406.299 701.057L409.301 734.188C409.351 734.474 409.339 734.767 409.264 735.053C409.19 735.332 409.055 735.597 408.869 735.821C408.684 736.051 408.452 736.232 408.189 736.358C407.925 736.483 407.639 736.553 407.346 736.56C406.944 736.553 406.554 736.42 406.229 736.183C405.904 735.946 405.66 735.618 405.531 735.235L396.874 701.057H406.299Z" fill="#D7DADC"/>
<path d="M405.182 720.378L401.552 719.471L396.874 701.057H406.369L409.301 734.258C409.387 734.691 409.324 735.144 409.121 735.535C408.918 735.925 408.587 736.239 408.184 736.421L405.182 720.378Z" fill="#AFB3B8"/>
<path d="M372.37 701.057L375.372 734.188C375.434 734.474 375.433 734.767 375.367 735.046C375.301 735.332 375.174 735.597 374.993 735.821C374.813 736.051 374.584 736.232 374.323 736.358C374.063 736.49 373.777 736.553 373.487 736.56C373.075 736.56 372.674 736.427 372.337 736.19C372.001 735.953 371.744 735.618 371.602 735.235L362.945 701.057H372.37Z" fill="#D7DADC"/>
<path d="M369.229 704.684L363.783 703.638L362.876 700.987H372.3L375.302 734.188C375.388 734.621 375.325 735.074 375.122 735.465C374.919 735.855 374.589 736.169 374.185 736.351L369.229 704.684Z" fill="#AFB3B8"/>
<path d="M167.191 701.057L164.259 734.188C164.183 734.474 164.174 734.774 164.234 735.06C164.293 735.346 164.42 735.618 164.603 735.848C164.787 736.079 165.021 736.267 165.289 736.386C165.557 736.511 165.849 736.567 166.144 736.56C166.547 736.553 166.937 736.42 167.262 736.183C167.586 735.946 167.83 735.618 167.959 735.235L176.686 701.057H167.191Z" fill="#D7DADC"/>
<path d="M168.867 718.704L165.655 717.867L167.191 701.057H176.686L167.959 735.235C167.83 735.618 167.586 735.946 167.261 736.183C166.936 736.42 166.546 736.553 166.144 736.56H166.004L168.867 718.704Z" fill="#AFB3B8"/>
<path d="M132.425 701.057L129.423 734.188C129.361 734.474 129.363 734.767 129.428 735.046C129.493 735.332 129.621 735.597 129.801 735.821C129.982 736.051 130.211 736.232 130.471 736.358C130.732 736.49 131.018 736.553 131.308 736.56C131.713 736.56 132.108 736.434 132.434 736.197C132.762 735.96 133.003 735.618 133.123 735.235L141.849 701.057H132.425Z" fill="#D7DADC"/>
<path d="M136.055 703.917L131.936 703.15L132.424 701.057H141.849L133.122 735.235C133.002 735.618 132.762 735.96 132.434 736.197C132.107 736.434 131.712 736.56 131.307 736.56H131.168L136.055 703.917Z" fill="#AFB3B8"/>
<path d="M503.269 197.183C503.27 188.406 500.03 179.936 494.168 173.398C488.307 166.859 480.237 162.712 471.504 161.75V161.471H467.525C458.328 161.878 449.642 165.814 443.277 172.46C436.913 179.107 433.36 187.95 433.36 197.148C433.36 206.346 436.913 215.19 443.277 221.836C449.642 228.483 458.328 232.419 467.525 232.825H471.504V232.616C480.237 231.654 488.307 227.507 494.168 220.969C500.03 214.43 503.27 205.961 503.269 197.183Z" fill="#B0B4B9"/>
<path d="M471.504 232.895C491.245 232.895 507.248 216.906 507.248 197.183C507.248 177.46 491.245 161.471 471.504 161.471C451.763 161.471 435.76 177.46 435.76 197.183C435.76 216.906 451.763 232.895 471.504 232.895Z" fill="#84888F"/>
<path d="M471.503 228.92C489.046 228.92 503.268 214.711 503.268 197.183C503.268 179.656 489.046 165.447 471.503 165.447C453.96 165.447 439.739 179.656 439.739 197.183C439.739 214.711 453.96 228.92 471.503 228.92Z" fill="white"/>
<path d="M471.503 228.92C489.046 228.92 503.268 214.711 503.268 197.183C503.268 179.656 489.046 165.447 471.503 165.447C453.96 165.447 439.739 179.656 439.739 197.183C439.739 214.711 453.96 228.92 471.503 228.92Z" fill="#84888F"/>
<path opacity="0.9" d="M471.503 228.92C489.046 228.92 503.268 214.711 503.268 197.183C503.268 179.656 489.046 165.447 471.503 165.447C453.96 165.447 439.739 179.656 439.739 197.183C439.739 214.711 453.96 228.92 471.503 228.92Z" fill="white"/>
<path d="M471.504 165.447H469.758C477.801 165.981 485.34 169.549 490.847 175.429C496.354 181.309 499.418 189.061 499.418 197.113C499.418 205.166 496.354 212.918 490.847 218.798C485.34 224.678 477.801 228.246 469.758 228.78H471.504C479.928 228.78 488.008 225.436 493.964 219.484C499.921 213.533 503.268 205.46 503.268 197.044C503.268 188.627 499.921 180.555 493.964 174.603C488.008 168.651 479.928 165.307 471.504 165.307V165.447Z" fill="#B0B4B9"/>
<path d="M471.783 199.624L461.241 178.7C461.043 178.31 461.005 177.858 461.136 177.441C461.266 177.024 461.555 176.675 461.939 176.468C462.33 176.269 462.781 176.232 463.199 176.362C463.616 176.492 463.966 176.781 464.173 177.165L473.249 195.23L485.257 189.301C485.649 189.147 486.085 189.145 486.478 189.298C486.872 189.45 487.193 189.745 487.378 190.124C487.563 190.503 487.598 190.937 487.477 191.34C487.356 191.744 487.086 192.087 486.723 192.301L471.783 199.624Z" fill="#7C8EC8"/>
<path opacity="0.5" d="M498.661 213.505C501.682 208.571 503.277 202.897 503.268 197.113C503.277 192.943 502.462 188.812 500.869 184.957C499.276 181.103 496.936 177.601 493.985 174.652C491.034 171.703 487.528 169.366 483.671 167.774C479.812 166.182 475.678 165.368 471.504 165.377H468.851L498.661 213.505Z" fill="white"/>
<path opacity="0.5" d="M464.104 166.283C462.565 166.688 461.05 167.177 459.566 167.748L492.448 220.967C493.722 219.822 494.911 218.587 496.008 217.271L464.104 166.283Z" fill="white"/>
<path d="M761.994 306.551H617.971V313.896H761.994V306.551Z" fill="#AFB3B8"/>
<path d="M796.83 306.551H762.063V313.896H796.83V306.551Z" fill="#D7DADC"/>
<path d="M676.194 232.756H661.673V306.579H676.194V232.756Z" fill="#AFB3B8"/>
<path d="M715.01 232.756H676.194V306.579H715.01V232.756Z" fill="#D7DADC"/>
<path d="M689.109 239.662H680.941V306.587H689.109V239.662Z" fill="#AFB3B8"/>
<path d="M710.961 239.662H689.109V306.587H710.961V239.662Z" fill="#D7DADC"/>
<path d="M714.032 306.621H701.885L694.904 242.73H707.051L714.032 306.621Z" fill="#AFB3B8"/>
<path d="M714.033 306.621H746.425L739.444 242.73H707.051L714.033 306.621Z" fill="#D7DADC"/>
<path d="M228.207 294.904H290.061V205.303H228.207V294.904Z" fill="#B0B4B9"/>
<path d="M224.787 294.904H286.64V205.303H224.787V294.904Z" fill="white"/>
<path d="M232.536 284.999H279.17V214.761H232.536V284.999Z" fill="#DBDBDB"/>
<path d="M248.034 254.309C251.003 254.309 253.41 251.905 253.41 248.938C253.41 245.973 251.003 243.568 248.034 243.568C245.066 243.568 242.658 245.973 242.658 248.938C242.658 251.905 245.066 254.309 248.034 254.309Z" fill="#7C8EC8"/>
<g opacity="0.2">
<path opacity="0.2" d="M248.034 271.956H263.602V227.79H248.034V271.956Z" fill="black"/>
</g>
<path d="M197.42 292.253H131.168V384.532H197.42V292.253Z" fill="white"/>
<path d="M200.213 292.253H197.35V384.532H200.213V292.253Z" fill="#B0B4B9"/>
<path d="M189.112 301.111H139.476V375.813H189.112V301.111Z" fill="#D8DBDD"/>
<path opacity="0.15" d="M766.462 617.567V599.083H716.337C715.31 598.618 714.396 597.94 713.656 597.093C712.916 596.247 712.364 595.252 712.043 594.175C711.715 593.098 711.631 591.964 711.778 590.85C711.931 589.736 712.315 588.666 712.916 587.714C719.688 576.833 721.293 563.371 708.657 555.908C698.395 549.91 684.362 553.816 678.708 564.208C674.03 572.788 677.87 580.321 682.268 587.993C682.813 588.948 683.148 590.006 683.259 591.099C683.371 592.192 683.252 593.296 682.91 594.34C682.568 595.385 682.01 596.346 681.277 597.163C680.537 597.98 679.643 598.634 678.638 599.083H629.141V648.048C629.434 649.255 630.013 650.375 630.823 651.314C631.64 652.253 632.666 652.986 633.818 653.449C634.97 653.913 636.22 654.095 637.462 653.981C638.698 653.866 639.892 653.458 640.939 652.791C651.9 646.025 665.373 644.491 672.773 657.046C678.777 667.299 674.379 681.109 663.907 686.759C655.32 691.432 648.479 687.666 640.66 683.411C635.563 680.691 630.258 682.783 629.141 688.224V736.281H663.907V736.421H738.537V736.281H766.462V687.387C766.532 687.247 766.462 617.567 766.462 617.567Z" fill="black"/>
<path d="M766.462 617.567V599.083H716.337C715.31 598.618 714.396 597.94 713.656 597.093C712.916 596.247 712.364 595.252 712.043 594.175C711.715 593.098 711.631 591.964 711.778 590.85C711.931 589.736 712.315 588.666 712.916 587.714C719.688 576.833 721.293 563.371 708.657 555.908C698.395 549.91 684.362 553.816 678.708 564.208C674.03 572.788 677.87 580.321 682.268 587.993C682.813 588.948 683.148 590.006 683.259 591.099C683.371 592.192 683.252 593.296 682.91 594.34C682.568 595.385 682.01 596.346 681.277 597.163C680.537 597.98 679.643 598.634 678.638 599.083H629.141V648.048C629.434 649.255 630.013 650.375 630.823 651.314C631.64 652.253 632.666 652.986 633.818 653.449C634.97 653.913 636.22 654.095 637.462 653.981C638.698 653.866 639.892 653.458 640.939 652.791C651.9 646.025 665.373 644.491 672.773 657.046C678.777 667.299 674.379 681.109 663.907 686.759C655.32 691.432 648.479 687.666 640.66 683.411C635.563 680.691 630.258 682.783 629.141 688.224V736.281H663.907V736.421H738.537V736.281H766.462V687.387C766.532 687.247 766.462 617.567 766.462 617.567Z" fill="#4D61FC"/>
<path d="M672.774 656.976C665.374 644.351 651.9 645.955 640.939 652.721C639.753 653.475 638.377 653.894 636.974 653.933C635.564 653.973 634.167 653.632 632.939 652.947C631.71 652.26 630.691 651.255 629.979 650.037C629.274 648.819 628.911 647.432 628.932 646.025V600.409H580.202C579.128 600.805 578.153 601.431 577.345 602.242C576.537 603.052 575.915 604.029 575.523 605.105C575.131 606.18 574.978 607.328 575.075 608.468C575.172 609.609 575.516 610.714 576.083 611.708C580.482 619.381 584.252 626.914 579.644 635.493C573.919 645.955 559.887 649.792 549.694 643.793C537.058 636.4 538.594 622.938 545.366 611.987C545.987 610.988 546.376 609.863 546.505 608.694C546.634 607.525 546.499 606.342 546.111 605.231C545.723 604.121 545.09 603.112 544.261 602.277C543.431 601.442 542.425 600.804 541.317 600.409H492.518V600.06H491.82V599.223H491.61V736.421H628.932V690.177C628.918 688.799 629.274 687.443 629.951 686.246C630.635 685.049 631.619 684.052 632.813 683.359C634 682.665 635.354 682.297 636.737 682.295C638.112 682.292 639.466 682.652 640.66 683.341C648.339 687.736 655.949 691.502 664.536 686.899C674.938 681.249 678.847 667.159 672.774 656.976Z" fill="#8291FF" fill-opacity="0.6"/>
<path d="M766.462 597.618L766.671 463.28H629.35V510.082C629.35 516.289 616.714 530.1 611.478 526.822C600.587 519.986 592.908 508.408 585.438 521.033C579.434 531.216 583.343 545.236 593.746 550.955C602.333 555.559 609.593 543.98 617.272 539.586C622.508 536.587 629.35 548.165 629.35 554.233V600.478H677.451C678.617 600.157 679.699 599.574 680.606 598.775C681.514 597.976 682.226 596.98 682.687 595.863C683.155 594.747 683.357 593.54 683.28 592.333C683.21 591.126 682.861 589.952 682.268 588.899C677.87 581.297 674.03 573.694 678.708 565.115C684.362 554.722 698.395 550.816 708.657 556.884C721.293 564.278 719.688 577.739 712.916 588.69C712.266 589.742 711.868 590.932 711.764 592.164C711.652 593.397 711.841 594.637 712.301 595.785C712.762 596.932 713.488 597.956 714.424 598.771C715.352 599.586 716.462 600.171 717.663 600.478H766.462V597.618Z" fill="#8291FF" fill-opacity="0.6"/>
<path opacity="0.5" d="M766.462 617.567V599.083H716.336C715.31 598.618 714.396 597.94 713.656 597.093C712.916 596.247 712.364 595.252 712.043 594.175C711.715 593.098 711.631 591.964 711.778 590.85C711.931 589.736 712.315 588.666 712.916 587.714C719.687 576.833 721.293 563.371 708.657 555.908C698.395 549.91 684.362 553.816 678.708 564.208C674.03 572.788 677.87 580.321 682.268 587.993C682.812 588.948 683.148 590.006 683.259 591.099C683.371 592.192 683.252 593.296 682.91 594.34C682.568 595.385 682.01 596.346 681.277 597.163C680.537 597.98 679.643 598.634 678.638 599.083H629.141V648.048C629.434 649.255 630.013 650.375 630.823 651.314C631.64 652.253 632.666 652.986 633.818 653.449C634.97 653.913 636.22 654.095 637.462 653.981C638.698 653.866 639.892 653.458 640.939 652.791C651.9 646.025 665.373 644.491 672.773 657.046C678.777 667.299 674.379 681.109 663.907 686.759C655.32 691.432 648.479 687.666 640.66 683.411C635.563 680.691 630.258 682.783 629.141 688.224V736.281H663.907V736.421H738.537V736.281H766.462V617.567Z" fill="white"/>
<path d="M564.424 469.348C563.866 464.187 559.258 461.746 554.301 463.838C546.762 466.907 540.13 469.697 532.66 464.605C523.654 458.398 520.931 445.354 527.424 436.566C535.452 425.755 547.669 428.405 557.024 435.729C557.925 436.423 558.976 436.897 560.093 437.111C561.21 437.325 562.362 437.274 563.455 436.961C564.549 436.65 565.554 436.085 566.389 435.313C567.224 434.542 567.867 433.585 568.264 432.52L571.056 405.946L572.941 388.229V387.671L558.63 386.137L452.515 374.977L447.07 374.419V375.046L445.324 391.368L442.392 419.756L442.113 420.175L438.483 454.84C438.52 455.006 438.566 455.168 438.622 455.329L433.875 500.108H434.503V500.457L450.839 502.201L479.253 505.2C480.233 505.66 481.095 506.336 481.777 507.176C482.459 508.016 482.942 508.999 483.191 510.052C483.438 511.105 483.446 512.2 483.211 513.256C482.977 514.312 482.507 515.301 481.836 516.151C474.576 525.497 471.853 537.703 482.674 545.725C491.54 552.211 504.735 550.049 510.948 541.051C516.044 533.588 513.252 526.334 509.971 518.871C509.554 517.902 509.353 516.855 509.379 515.801C509.406 514.747 509.659 513.71 510.123 512.764C510.588 511.816 511.251 510.981 512.068 510.313C512.885 509.646 513.836 509.162 514.857 508.897L559.747 513.64L561.632 495.226L564.424 469.348Z" fill="#4D61FC"/>
<path opacity="0.5" d="M564.424 469.348C563.866 464.187 559.258 461.746 554.301 463.838C546.762 466.907 540.13 469.697 532.66 464.605C523.654 458.398 520.931 445.354 527.424 436.566C535.452 425.755 547.669 428.405 557.024 435.729C557.925 436.423 558.976 436.897 560.093 437.111C561.21 437.325 562.362 437.274 563.455 436.961C564.549 436.65 565.554 436.085 566.389 435.313C567.224 434.542 567.867 433.585 568.264 432.52L571.056 405.946L572.941 388.229V387.671L558.63 386.137L452.515 374.977L447.07 374.419V375.046L445.324 391.368L442.392 419.756L442.113 420.175L438.483 454.84C438.52 455.006 438.566 455.168 438.622 455.329L433.875 500.108H434.503V500.457L450.839 502.201L479.253 505.2C480.233 505.66 481.095 506.336 481.777 507.176C482.459 508.016 482.942 508.999 483.191 510.052C483.438 511.105 483.446 512.2 483.211 513.256C482.977 514.312 482.507 515.301 481.836 516.151C474.576 525.497 471.853 537.703 482.674 545.725C491.54 552.211 504.735 550.049 510.948 541.051C516.044 533.588 513.252 526.334 509.971 518.871C509.554 517.902 509.353 516.855 509.379 515.801C509.406 514.747 509.659 513.71 510.123 512.764C510.588 511.816 511.251 510.981 512.068 510.313C512.885 509.646 513.836 509.162 514.857 508.897L559.747 513.64L561.632 495.226L564.424 469.348Z" fill="white"/>
<path d="M771.279 464.326C771.781 464.326 772.186 463.92 772.186 463.42C772.186 462.919 771.781 462.513 771.279 462.513C770.776 462.513 770.371 462.919 770.371 463.42C770.371 463.92 770.776 464.326 771.279 464.326Z" fill="white"/>
<path d="M760.179 599.781V599.083H710.053C709.02 598.625 708.106 597.951 707.352 597.108C706.605 596.264 706.046 595.27 705.718 594.193C705.383 593.115 705.292 591.979 705.439 590.861C705.585 589.744 705.969 588.671 706.563 587.714C713.404 576.833 714.94 563.371 702.304 555.908C692.111 549.91 678.079 553.816 672.424 564.208C667.747 572.788 671.587 580.321 675.915 587.993C676.459 588.948 676.795 590.006 676.906 591.099C677.018 592.192 676.899 593.296 676.557 594.34C676.215 595.385 675.657 596.346 674.924 597.163C674.184 597.98 673.29 598.634 672.285 599.083H622.857V648.048C623.151 649.255 623.73 650.375 624.54 651.314C625.357 652.253 626.383 652.986 627.535 653.449C628.687 653.913 629.936 654.095 631.179 653.981C632.415 653.866 633.609 653.458 634.656 652.791C645.547 646.025 659.09 644.491 666.49 657.046C672.494 667.299 668.026 681.109 657.624 686.759C649.037 691.432 642.126 687.666 634.376 683.411C629.21 680.691 623.974 682.783 622.857 688.224V736.281H657.554V736.421H732.184V736.281H760.179V599.781Z" fill="#4D61FC"/>
<path d="M666.49 656.976C659.09 644.351 645.546 645.955 634.656 652.721C633.462 653.469 632.087 653.883 630.676 653.921C629.266 653.959 627.87 653.618 626.641 652.934C625.405 652.25 624.379 651.249 623.667 650.034C622.948 648.818 622.578 647.434 622.578 646.025V600.409H573.919C572.839 600.798 571.856 601.418 571.04 602.226C570.225 603.033 569.595 604.01 569.197 605.085C568.797 606.162 568.639 607.312 568.731 608.456C568.823 609.6 569.164 610.709 569.73 611.708C574.128 619.381 577.968 626.914 573.29 635.493C567.636 645.955 553.603 649.792 543.341 643.793C530.705 636.4 532.31 622.938 539.082 611.987C539.703 610.988 540.092 609.863 540.221 608.694C540.35 607.525 540.215 606.342 539.827 605.231C539.438 604.121 538.806 603.112 537.977 602.277C537.148 601.442 536.142 600.804 535.033 600.409H486.164V600.06H485.466V599.223H485.257V736.421H622.578V690.177C622.578 688.797 622.941 687.443 623.632 686.248C624.323 685.053 625.315 684.061 626.509 683.369C627.702 682.677 629.057 682.31 630.439 682.305C631.821 682.301 633.176 682.658 634.376 683.341C642.056 687.736 649.596 691.502 658.183 686.899C668.654 681.249 672.494 667.159 666.49 656.976Z" fill="#8291FF"/>
<path d="M760.109 597.618V463.28H622.788V510.082C622.788 511.491 622.418 512.875 621.699 514.09C620.987 515.305 619.96 516.307 618.725 516.991C617.496 517.675 616.1 518.015 614.69 517.978C613.279 517.94 611.904 517.526 610.71 516.778C599.82 509.942 586.346 508.408 578.876 521.033C572.872 531.216 576.712 545.236 587.184 550.955C595.771 555.559 603.311 551.792 610.989 547.398C612.19 546.714 613.545 546.357 614.927 546.362C616.309 546.367 617.664 546.734 618.857 547.426C620.051 548.118 621.042 549.11 621.734 550.305C622.425 551.5 622.788 552.855 622.788 554.233V600.478H670.889C672.054 600.157 673.137 599.574 674.044 598.775C674.952 597.976 675.664 596.98 676.125 595.863C676.592 594.747 676.795 593.54 676.718 592.333C676.648 591.126 676.299 589.952 675.706 588.899C671.307 581.297 667.468 573.694 672.145 565.115C677.8 554.722 691.832 550.816 702.095 556.884C714.661 564.278 713.125 577.739 706.353 588.69C705.704 589.742 705.306 590.932 705.201 592.164C705.09 593.397 705.278 594.637 705.739 595.785C706.2 596.932 706.926 597.956 707.861 598.771C708.79 599.586 709.9 600.171 711.101 600.478H760.109V597.618Z" fill="#8291FF"/>
<path d="M559.817 469.069C559.328 463.907 554.721 461.466 549.764 463.558C542.224 466.627 535.522 469.418 528.122 464.326C519.116 458.118 516.324 445.075 522.816 436.286C530.845 425.475 543.062 428.125 552.417 435.449C553.324 436.143 554.379 436.616 555.501 436.83C556.623 437.044 557.779 436.993 558.878 436.682C559.976 436.37 560.987 435.806 561.829 435.035C562.67 434.264 563.32 433.307 563.727 432.241L566.519 405.666L568.334 387.95V387.392L554.023 385.857L447.908 374.697L442.532 374.139V374.767L440.787 391.088L437.785 419.477L437.575 419.895L433.875 454.561L434.085 455.049L429.337 499.828H429.966V500.177L446.232 501.921L474.716 504.92C475.695 505.381 476.558 506.056 477.24 506.897C477.921 507.737 478.404 508.72 478.653 509.773C478.901 510.826 478.908 511.921 478.674 512.977C478.439 514.033 477.97 515.022 477.299 515.871C470.038 525.217 467.315 537.424 478.136 545.445C486.933 551.932 500.197 549.769 506.41 540.772C511.507 533.308 508.714 526.055 505.433 518.591C505.004 517.624 504.794 516.574 504.814 515.516C504.834 514.459 505.086 513.418 505.552 512.467C506.017 511.517 506.685 510.68 507.509 510.015C508.333 509.349 509.292 508.873 510.32 508.617L555.14 513.36L557.094 494.946L559.817 469.069Z" fill="#4D61FC"/>
<path opacity="0.7" d="M760.179 599.083H710.053C709.02 598.625 708.106 597.951 707.352 597.108C706.605 596.264 706.046 595.27 705.718 594.193C705.383 593.115 705.292 591.979 705.439 590.861C705.585 589.744 705.969 588.671 706.563 587.714C713.404 576.833 714.94 563.371 702.304 555.908C692.111 549.91 678.079 553.816 672.424 564.208C667.747 572.788 671.587 580.321 675.915 587.993C676.459 588.948 676.795 590.006 676.906 591.099C677.018 592.192 676.899 593.296 676.557 594.34C676.215 595.385 675.657 596.346 674.924 597.163C674.184 597.98 673.29 598.634 672.285 599.083H622.857V648.048C623.151 649.255 623.73 650.375 624.54 651.314C625.357 652.253 626.383 652.986 627.535 653.449C628.687 653.913 629.936 654.095 631.179 653.981C632.415 653.866 633.609 653.458 634.656 652.791C645.547 646.025 659.09 644.491 666.49 657.046C672.494 667.299 668.026 681.109 657.624 686.759C649.037 691.432 642.126 687.666 634.376 683.411C629.21 680.691 623.974 682.783 622.857 688.224V736.281H657.554V736.421H732.184V736.281H760.179V599.083Z" fill="white"/>
<path opacity="0.7" d="M559.817 469.069C559.328 463.907 554.721 461.466 549.764 463.558C542.224 466.627 535.522 469.418 528.122 464.326C519.116 458.118 516.324 445.075 522.816 436.286C530.845 425.475 543.062 428.125 552.417 435.449C553.324 436.143 554.379 436.616 555.501 436.83C556.623 437.044 557.779 436.993 558.878 436.682C559.976 436.37 560.987 435.806 561.829 435.035C562.67 434.264 563.32 433.307 563.727 432.241L566.519 405.666L568.334 387.95V387.392L554.023 385.857L447.908 374.697L442.532 374.139V374.767L440.787 391.088L437.785 419.477L437.575 419.895L433.875 454.561L434.085 455.049L429.337 499.828H429.966V500.177L446.232 501.921L474.716 504.92C475.695 505.381 476.558 506.056 477.24 506.897C477.921 507.737 478.404 508.72 478.653 509.773C478.901 510.826 478.908 511.921 478.674 512.977C478.439 514.033 477.97 515.022 477.299 515.871C470.038 525.217 467.315 537.424 478.136 545.445C486.933 551.932 500.197 549.769 506.41 540.772C511.507 533.308 508.714 526.055 505.433 518.591C505.004 517.624 504.794 516.574 504.814 515.516C504.834 514.459 505.086 513.418 505.552 512.467C506.017 511.517 506.685 510.68 507.509 510.015C508.333 509.349 509.292 508.873 510.32 508.617L555.14 513.36L557.094 494.946L559.817 469.069Z" fill="white"/>
<path d="M487.91 373.511L497.474 372.953C497.695 372.932 497.917 372.973 498.116 373.072C498.315 373.171 498.482 373.324 498.598 373.512C498.715 373.701 498.775 373.919 498.774 374.14C498.773 374.362 498.709 374.579 498.591 374.767C498.153 375.508 497.494 376.093 496.706 376.441L487.91 373.511Z" fill="#F39494"/>
<path d="M481.557 371.767C481.557 371.767 490.772 370.582 491.261 370.652C491.75 370.721 493.285 372.325 491.539 373.302L487.002 373.581L481.557 371.767Z" fill="#F39494"/>
<path opacity="0.15" d="M490.144 373.372C490.563 373.581 498.242 375.325 498.242 375.325L497.056 376.441L487.282 373.651L490.144 373.372Z" fill="black"/>
<path opacity="0.15" d="M483.093 371.628L490.144 373.372L489.027 373.511L481.697 371.767L483.093 371.628Z" fill="black"/>
<path d="M506.27 380.695C507.806 380.626 507.597 378.464 506.061 377.975C499.219 375.743 481.487 371.698 480.579 371.558C479.672 371.419 462.358 369.745 444.417 368.768L443.998 386.624C449.004 386.398 454.021 386.538 459.007 387.043C461.172 387.322 466.128 388.438 468.781 390.112C471.434 391.786 476.181 393.669 478.904 394.088C479.187 394.112 479.47 394.034 479.701 393.868C479.932 393.701 480.094 393.458 480.161 393.181C480.3 392.135 480.37 390.6 478.974 389.972C477.578 389.344 471.294 385.508 472.132 383.555C472.97 381.602 479.044 380.277 480.091 380.556C481.138 380.835 489.725 382.648 489.865 383.137C490.004 383.625 497.125 391.576 499.359 391.018C499.61 390.96 499.844 390.841 500.04 390.673C500.236 390.505 500.388 390.292 500.484 390.052C500.58 389.813 500.616 389.554 500.59 389.297C500.565 389.04 500.477 388.793 500.336 388.577C498.731 386.275 495.868 381.602 494.472 379.719C498.731 380.068 504.595 380.765 506.27 380.695Z" fill="#F39494"/>
<path opacity="0.15" d="M494.402 379.719C493.921 379.16 493.292 378.75 492.587 378.533L484.978 376.162L492.867 377.905C493.632 378.111 494.3 378.58 494.752 379.231L495.031 379.719H494.402Z" fill="black"/>
<path opacity="0.15" d="M499.499 389.205C497.474 389.693 491.61 383.276 490.283 381.672C490.077 381.426 489.813 381.234 489.515 381.114L480.23 378.673C479.183 378.464 473.11 379.789 472.202 381.742C472.153 381.97 472.153 382.206 472.201 382.434C472.25 382.662 472.344 382.878 472.481 383.067C474.017 381.393 479.113 380.277 480.091 380.486C481.068 380.696 489.725 382.649 489.865 383.137C490.004 383.625 497.125 391.577 499.359 391.019C499.6 390.956 499.822 390.839 500.01 390.675C500.198 390.511 500.345 390.307 500.44 390.077C500.535 389.847 500.574 389.598 500.557 389.349C500.539 389.102 500.463 388.861 500.336 388.647C500.136 388.931 499.837 389.13 499.499 389.205Z" fill="black"/>
<path opacity="0.15" d="M479.044 392.274C476.321 391.856 471.225 389.763 468.921 388.298C466.617 386.834 463.755 384.602 461.032 383.765C456.912 382.831 452.685 382.455 448.466 382.649L443.998 386.624C449.004 386.398 454.021 386.539 459.007 387.043C461.172 387.322 466.128 388.438 468.781 390.112C471.434 391.786 476.181 393.669 478.974 394.088C479.249 394.109 479.522 394.029 479.741 393.862C479.96 393.694 480.11 393.451 480.161 393.181C480.266 392.651 480.266 392.106 480.161 391.577C480.095 391.811 479.943 392.012 479.737 392.142C479.53 392.271 479.283 392.318 479.044 392.274Z" fill="black"/>
<path d="M456.075 368.839L405.461 357.121L383.121 380.138L452.934 387.462L456.075 368.839Z" fill="#4D61FC"/>
<path d="M456.075 368.839L405.461 357.121L383.121 380.138L452.934 387.462L456.075 368.839Z" fill="#7C8EC8"/>
<path d="M405.461 357.121L397.782 298.531C395.687 287.371 388.008 285.278 381.795 282.558L374.255 279.768L383.121 380.138L405.461 357.121Z" fill="#7C8EC8"/>
<path opacity="0.15" d="M392.057 371.14L391.918 304.459C391.289 301.111 391.289 296.02 385.844 293.09L375.093 288.835L383.121 380.347L448.745 386.625L449.583 381.812L395.338 374.07C394.929 374.098 394.519 374.044 394.131 373.912C393.742 373.778 393.385 373.569 393.079 373.296C392.773 373.024 392.526 372.692 392.35 372.321C392.174 371.951 392.075 371.549 392.057 371.14Z" fill="black"/>
<path d="M456.075 368.839L452.933 387.462L448.465 387.741L451.537 366.886L456.075 368.839Z" fill="#21252B"/>
<path d="M304.024 432.311L291.667 315.968C290.69 303.971 300.463 290.649 311.913 286.673L340.745 276.629L362.945 278.861L373.627 279.838C373.836 280.117 396.525 299.647 396.386 299.228L395.688 434.404L304.024 432.311Z" fill="#7C8EC8"/>
<path opacity="0.15" d="M353.032 287.789L357.989 316.596L356.244 287.719L353.032 287.789Z" fill="black"/>
<path d="M385.495 302.925L386.333 302.088C386.383 302.021 386.407 301.938 386.402 301.854C386.396 301.771 386.36 301.692 386.301 301.633C386.241 301.573 386.162 301.537 386.078 301.531C385.994 301.525 385.911 301.55 385.844 301.6L384.936 302.437L384.099 301.6C384.069 301.56 384.03 301.526 383.986 301.503C383.942 301.479 383.894 301.465 383.844 301.461C383.794 301.457 383.744 301.465 383.697 301.483C383.651 301.5 383.608 301.527 383.572 301.563C383.537 301.598 383.51 301.64 383.493 301.687C383.475 301.734 383.468 301.784 383.471 301.834C383.475 301.884 383.489 301.932 383.513 301.976C383.537 302.02 383.57 302.058 383.61 302.088L384.448 302.925L383.61 303.762C383.57 303.792 383.537 303.83 383.513 303.874C383.489 303.918 383.475 303.966 383.471 304.016C383.468 304.066 383.475 304.116 383.493 304.163C383.51 304.21 383.537 304.252 383.572 304.288C383.608 304.323 383.651 304.351 383.697 304.368C383.744 304.385 383.794 304.392 383.844 304.389C383.894 304.385 383.942 304.371 383.986 304.347C384.03 304.323 384.069 304.29 384.099 304.25L384.936 303.413L385.844 304.25C385.874 304.29 385.912 304.323 385.956 304.347C386 304.371 386.049 304.385 386.099 304.389C386.148 304.392 386.199 304.385 386.245 304.368C386.292 304.351 386.335 304.323 386.37 304.288C386.405 304.252 386.433 304.21 386.45 304.163C386.468 304.116 386.475 304.066 386.472 304.016C386.468 303.966 386.454 303.918 386.43 303.874C386.406 303.83 386.373 303.792 386.333 303.762L385.495 302.925Z" fill="white"/>
<path d="M363.294 327.198L364.411 326.779C364.504 326.742 364.578 326.671 364.617 326.579C364.656 326.487 364.658 326.384 364.621 326.291C364.584 326.199 364.512 326.124 364.42 326.085C364.328 326.046 364.225 326.045 364.132 326.082L363.085 326.57L362.596 325.454C362.591 325.408 362.575 325.364 362.548 325.326C362.521 325.287 362.485 325.257 362.444 325.236C362.402 325.216 362.356 325.205 362.309 325.207C362.263 325.209 362.218 325.221 362.177 325.245C362.129 325.26 362.084 325.285 362.047 325.319C362.01 325.353 361.98 325.394 361.959 325.441C361.94 325.487 361.93 325.537 361.932 325.588C361.933 325.638 361.946 325.688 361.968 325.733L362.387 326.779L361.27 327.268C361.13 327.337 360.991 327.547 361.06 327.686C361.13 327.826 361.34 327.965 361.549 327.895L362.666 327.477L363.085 328.593C363.13 328.679 363.203 328.747 363.291 328.785C363.381 328.823 363.481 328.829 363.574 328.802C363.659 328.758 363.728 328.685 363.766 328.596C363.804 328.506 363.81 328.407 363.783 328.314L363.294 327.198Z" fill="white"/>
<path d="M319.941 295.043L320.988 294.625C321.197 294.485 321.267 294.346 321.197 294.136C321.192 294.09 321.176 294.046 321.149 294.008C321.122 293.97 321.086 293.939 321.045 293.918C321.003 293.897 320.957 293.887 320.91 293.889C320.864 293.89 320.819 293.903 320.779 293.927L319.661 294.415L319.173 293.299C319.173 293.244 319.16 293.19 319.134 293.14C319.109 293.092 319.073 293.049 319.028 293.016C318.983 292.984 318.931 292.963 318.877 292.955C318.822 292.947 318.766 292.951 318.713 292.969C318.661 292.986 318.614 293.016 318.575 293.055C318.536 293.094 318.507 293.143 318.491 293.196C318.474 293.249 318.47 293.304 318.48 293.359C318.489 293.413 318.512 293.465 318.544 293.509L318.963 294.625L317.846 295.113C317.779 295.156 317.728 295.221 317.702 295.297C317.677 295.374 317.678 295.456 317.707 295.531C317.712 295.577 317.729 295.622 317.756 295.66C317.782 295.698 317.818 295.729 317.86 295.75C317.901 295.771 317.947 295.78 317.994 295.779C318.04 295.778 318.086 295.764 318.126 295.741L319.243 295.322L319.661 296.438C319.717 296.511 319.794 296.565 319.882 296.59C319.971 296.615 320.065 296.611 320.15 296.578C320.196 296.573 320.241 296.556 320.279 296.529C320.317 296.502 320.348 296.467 320.369 296.425C320.39 296.384 320.399 296.338 320.398 296.291C320.397 296.244 320.383 296.199 320.36 296.159L319.941 295.043Z" fill="white"/>
<path d="M392.197 330.197L393.314 329.779C393.388 329.724 393.441 329.646 393.466 329.558C393.492 329.47 393.487 329.376 393.454 329.29C393.384 329.151 393.174 329.011 393.035 329.081L391.918 329.569L391.499 328.453C391.454 328.368 391.382 328.299 391.292 328.262C391.203 328.223 391.104 328.217 391.01 328.244C390.962 328.259 390.917 328.285 390.88 328.318C390.843 328.352 390.813 328.393 390.792 328.44C390.773 328.486 390.763 328.536 390.764 328.587C390.766 328.638 390.778 328.687 390.801 328.732L391.22 329.848L390.172 330.267C390.124 330.282 390.08 330.307 390.042 330.341C390.005 330.375 389.975 330.416 389.955 330.463C389.935 330.509 389.925 330.559 389.927 330.61C389.928 330.66 389.941 330.71 389.963 330.755C390.033 330.895 390.242 331.034 390.382 330.895L391.499 330.476L391.988 331.592C391.993 331.638 392.01 331.682 392.036 331.721C392.063 331.759 392.099 331.79 392.14 331.811C392.182 331.831 392.228 331.841 392.274 331.84C392.321 331.838 392.367 331.825 392.406 331.801C392.455 331.787 392.499 331.761 392.537 331.728C392.575 331.693 392.604 331.652 392.624 331.605C392.644 331.559 392.654 331.509 392.652 331.458C392.651 331.408 392.638 331.359 392.616 331.313L392.197 330.197Z" fill="white"/>
<path d="M356.453 356.911L357.57 356.423C357.71 356.353 357.849 356.144 357.779 356.005C357.765 355.957 357.74 355.912 357.705 355.874C357.672 355.837 357.63 355.807 357.584 355.787C357.537 355.768 357.487 355.758 357.437 355.759C357.386 355.761 357.336 355.773 357.291 355.795L356.174 356.214L355.755 355.098C355.74 355.05 355.715 355.005 355.681 354.968C355.647 354.931 355.605 354.901 355.559 354.88C355.513 354.861 355.462 354.851 355.412 354.852C355.361 354.854 355.311 354.866 355.266 354.889C355.18 354.933 355.113 355.007 355.074 355.095C355.036 355.184 355.029 355.284 355.057 355.377L355.545 356.493L354.428 356.911C354.37 356.955 354.326 357.017 354.305 357.087C354.283 357.156 354.284 357.232 354.307 357.301C354.33 357.37 354.375 357.43 354.434 357.474C354.493 357.516 354.564 357.539 354.638 357.539L355.755 357.121L356.243 358.237C356.249 358.283 356.266 358.327 356.292 358.365C356.319 358.403 356.354 358.434 356.396 358.455C356.438 358.476 356.484 358.486 356.53 358.484C356.577 358.483 356.623 358.47 356.662 358.446C356.71 358.431 356.755 358.406 356.793 358.372C356.831 358.339 356.86 358.297 356.88 358.25C356.9 358.204 356.909 358.154 356.908 358.104C356.907 358.053 356.894 358.003 356.872 357.958L356.453 356.911Z" fill="white"/>
<path d="M352.194 341.776L353.311 341.287C353.358 341.282 353.402 341.265 353.44 341.239C353.478 341.212 353.509 341.177 353.53 341.135C353.551 341.093 353.561 341.047 353.559 341.001C353.558 340.954 353.544 340.909 353.521 340.869C353.506 340.82 353.481 340.776 353.447 340.739C353.413 340.701 353.371 340.671 353.325 340.651C353.279 340.631 353.228 340.622 353.178 340.623C353.127 340.625 353.077 340.637 353.032 340.66L351.915 341.078L351.496 339.962C351.442 339.888 351.364 339.835 351.276 339.809C351.188 339.784 351.093 339.789 351.008 339.823C350.868 339.892 350.728 340.102 350.868 340.241L351.287 341.357L350.17 341.845C350.124 341.85 350.08 341.867 350.041 341.894C350.004 341.92 349.972 341.956 349.952 341.997C349.931 342.039 349.921 342.085 349.923 342.131C349.924 342.178 349.937 342.223 349.96 342.264C349.976 342.312 350.001 342.356 350.034 342.394C350.069 342.431 350.11 342.461 350.157 342.481C350.203 342.501 350.254 342.511 350.304 342.509C350.354 342.508 350.404 342.496 350.449 342.473L351.566 342.055L351.985 343.101C352 343.149 352.025 343.193 352.059 343.231C352.093 343.268 352.134 343.298 352.181 343.318C352.228 343.338 352.278 343.348 352.328 343.346C352.379 343.344 352.428 343.333 352.474 343.31C352.613 343.24 352.753 343.031 352.683 342.892L352.194 341.776Z" fill="white"/>
<path d="M373.487 354.121L374.604 353.703C374.647 353.681 374.684 353.651 374.714 353.614C374.744 353.577 374.767 353.535 374.78 353.489C374.793 353.443 374.796 353.395 374.791 353.348C374.784 353.301 374.768 353.255 374.744 353.215C374.739 353.169 374.722 353.124 374.696 353.086C374.669 353.048 374.633 353.017 374.592 352.996C374.55 352.975 374.504 352.966 374.457 352.967C374.411 352.968 374.365 352.982 374.325 353.005L373.208 353.494L372.789 352.378C372.771 352.332 372.744 352.29 372.709 352.255C372.675 352.219 372.633 352.191 372.588 352.172C372.543 352.152 372.494 352.142 372.445 352.141C372.395 352.141 372.346 352.15 372.3 352.168C372.255 352.187 372.213 352.214 372.178 352.248C372.143 352.283 372.114 352.324 372.094 352.369C372.076 352.415 372.065 352.463 372.064 352.512C372.064 352.562 372.073 352.611 372.091 352.657L372.58 353.703L371.463 354.191C371.414 354.206 371.37 354.231 371.333 354.265C371.295 354.299 371.265 354.34 371.246 354.387C371.225 354.433 371.216 354.483 371.217 354.534C371.218 354.585 371.231 354.634 371.253 354.679C371.297 354.747 371.361 354.798 371.438 354.824C371.514 354.849 371.597 354.848 371.672 354.819L372.789 354.4L373.278 355.516C373.348 355.656 373.557 355.795 373.697 355.726C373.745 355.71 373.789 355.685 373.827 355.652C373.865 355.618 373.895 355.576 373.914 355.53C373.935 355.484 373.944 355.433 373.942 355.383C373.941 355.332 373.929 355.283 373.906 355.237L373.487 354.121Z" fill="white"/>
<path d="M335.16 322.734L336.277 322.315C336.37 322.279 336.444 322.206 336.483 322.115C336.522 322.023 336.523 321.919 336.486 321.827C336.449 321.734 336.377 321.661 336.285 321.621C336.194 321.582 336.09 321.581 335.998 321.618L334.881 322.106L334.462 320.99C334.447 320.942 334.421 320.897 334.388 320.86C334.353 320.822 334.312 320.793 334.266 320.773C334.219 320.753 334.169 320.743 334.118 320.745C334.068 320.746 334.018 320.759 333.973 320.781C333.9 320.835 333.846 320.914 333.821 321.001C333.796 321.089 333.8 321.183 333.833 321.269L334.252 322.315L333.135 322.804C333.049 322.848 332.981 322.921 332.943 323.01C332.905 323.099 332.899 323.199 332.926 323.292C332.981 323.365 333.059 323.419 333.146 323.444C333.235 323.469 333.329 323.465 333.415 323.431L334.532 323.013L334.95 324.129C334.987 324.221 335.06 324.296 335.151 324.335C335.243 324.374 335.346 324.375 335.439 324.338C335.532 324.301 335.606 324.229 335.645 324.137C335.684 324.046 335.685 323.942 335.648 323.85L335.16 322.734Z" fill="white"/>
<path d="M304.303 360.259L305.42 359.771C305.466 359.766 305.51 359.75 305.548 359.722C305.586 359.696 305.617 359.66 305.638 359.618C305.659 359.577 305.669 359.531 305.667 359.485C305.666 359.438 305.653 359.392 305.629 359.353C305.614 359.305 305.588 359.26 305.555 359.222C305.521 359.185 305.48 359.155 305.433 359.135C305.387 359.116 305.336 359.106 305.285 359.107C305.235 359.109 305.186 359.121 305.14 359.143L304.093 359.562L303.604 358.516C303.604 358.461 303.591 358.406 303.566 358.357C303.541 358.308 303.505 358.265 303.459 358.232C303.415 358.2 303.363 358.18 303.308 358.171C303.253 358.163 303.197 358.168 303.145 358.185C303.093 358.202 303.045 358.232 303.006 358.272C302.968 358.311 302.938 358.359 302.922 358.412C302.906 358.464 302.902 358.521 302.911 358.575C302.921 358.629 302.943 358.681 302.976 358.725L303.395 359.841L302.278 360.329C302.138 360.399 301.999 360.608 302.069 360.748C302.138 360.887 302.348 361.027 302.557 360.957L303.674 360.538L304.093 361.654C304.148 361.728 304.226 361.781 304.314 361.807C304.402 361.832 304.497 361.827 304.582 361.794C304.628 361.788 304.673 361.772 304.71 361.745C304.749 361.719 304.779 361.683 304.8 361.641C304.821 361.6 304.831 361.554 304.83 361.507C304.828 361.461 304.815 361.415 304.791 361.376L304.303 360.259Z" fill="white"/>
<path d="M306.677 379.789L307.794 379.371C307.842 379.356 307.886 379.331 307.924 379.297C307.962 379.263 307.991 379.221 308.011 379.175C308.031 379.128 308.041 379.078 308.039 379.028C308.038 378.978 308.025 378.927 308.003 378.883C307.958 378.796 307.886 378.729 307.796 378.69C307.707 378.653 307.608 378.646 307.514 378.673L306.467 379.162L305.979 378.046C305.974 377.999 305.957 377.955 305.93 377.917C305.903 377.879 305.868 377.848 305.826 377.827C305.784 377.806 305.738 377.796 305.692 377.798C305.646 377.8 305.6 377.813 305.56 377.836C305.512 377.851 305.467 377.876 305.429 377.91C305.392 377.944 305.362 377.986 305.342 378.032C305.322 378.079 305.313 378.129 305.314 378.179C305.315 378.23 305.328 378.279 305.35 378.325L305.769 379.441L304.652 379.859C304.566 379.903 304.499 379.976 304.46 380.066C304.422 380.155 304.415 380.254 304.443 380.348C304.582 380.487 304.722 380.627 304.931 380.557L306.048 380.069L306.467 381.185C306.504 381.277 306.577 381.351 306.668 381.39C306.76 381.429 306.864 381.431 306.956 381.394C307.049 381.357 307.123 381.284 307.162 381.193C307.201 381.101 307.202 380.998 307.165 380.906L306.677 379.789Z" fill="white"/>
<path d="M310.795 410.758L311.912 410.34C311.998 410.295 312.067 410.222 312.104 410.133C312.143 410.044 312.149 409.944 312.122 409.852C312.107 409.804 312.082 409.759 312.048 409.721C312.014 409.684 311.972 409.654 311.926 409.634C311.879 409.615 311.829 409.605 311.778 409.606C311.728 409.608 311.678 409.62 311.633 409.642L310.516 410.061L310.097 408.945C310.043 408.871 309.965 408.818 309.877 408.793C309.788 408.768 309.694 408.772 309.609 408.805C309.528 408.837 309.462 408.897 309.424 408.974C309.384 409.052 309.376 409.141 309.399 409.224L309.888 410.34L308.771 410.758C308.723 410.773 308.678 410.799 308.64 410.832C308.603 410.866 308.573 410.908 308.553 410.954C308.533 411 308.524 411.051 308.525 411.102C308.526 411.152 308.539 411.201 308.561 411.247C308.631 411.386 308.841 411.526 308.98 411.456L310.097 411.037L310.586 412.153C310.632 412.222 310.7 412.271 310.779 412.294C310.858 412.317 310.943 412.31 311.017 412.278C311.092 412.244 311.153 412.186 311.189 412.112C311.225 412.038 311.234 411.954 311.214 411.874L310.795 410.758Z" fill="white"/>
<path d="M324.618 405.178L325.735 404.76C325.783 404.745 325.828 404.719 325.866 404.686C325.903 404.652 325.933 404.611 325.953 404.564C325.973 404.518 325.982 404.468 325.981 404.417C325.98 404.367 325.967 404.317 325.945 404.272C325.923 404.229 325.892 404.192 325.855 404.162C325.819 404.131 325.776 404.11 325.73 404.097C325.685 404.083 325.637 404.08 325.589 404.086C325.543 404.092 325.497 404.108 325.456 404.132L324.339 404.551L323.92 403.435C323.905 403.387 323.88 403.342 323.846 403.304C323.812 403.267 323.771 403.237 323.724 403.217C323.678 403.198 323.628 403.188 323.577 403.189C323.526 403.191 323.477 403.203 323.431 403.225C323.357 403.281 323.304 403.358 323.279 403.446C323.253 403.534 323.258 403.629 323.292 403.714L323.711 404.83L322.594 405.248C322.501 405.285 322.427 405.358 322.388 405.449C322.349 405.54 322.347 405.644 322.384 405.736C322.421 405.829 322.494 405.903 322.585 405.942C322.677 405.981 322.78 405.983 322.873 405.946L323.99 405.457L324.409 406.573C324.427 406.619 324.454 406.661 324.489 406.696C324.523 406.732 324.564 406.76 324.61 406.779C324.655 406.799 324.704 406.809 324.753 406.809C324.803 406.81 324.851 406.801 324.897 406.783C324.944 406.765 324.985 406.737 325.02 406.702C325.056 406.668 325.084 406.627 325.103 406.582C325.123 406.536 325.133 406.488 325.133 406.439C325.134 406.389 325.125 406.34 325.107 406.294L324.618 405.178Z" fill="white"/>
<path d="M343.049 402.179L344.166 401.761C344.253 401.716 344.32 401.644 344.359 401.554C344.397 401.465 344.403 401.366 344.376 401.273C344.361 401.224 344.336 401.18 344.302 401.142C344.268 401.105 344.226 401.075 344.18 401.055C344.133 401.035 344.083 401.026 344.033 401.027C343.982 401.028 343.932 401.041 343.887 401.063L342.77 401.551L342.351 400.435C342.314 400.343 342.242 400.27 342.15 400.23C342.059 400.191 341.955 400.189 341.862 400.226C341.77 400.263 341.696 400.336 341.656 400.427C341.617 400.518 341.616 400.622 341.653 400.714L342.142 401.761L341.025 402.249C340.979 402.255 340.935 402.271 340.896 402.298C340.858 402.324 340.827 402.36 340.806 402.402C340.786 402.443 340.775 402.489 340.777 402.536C340.779 402.582 340.792 402.628 340.815 402.668C340.831 402.716 340.856 402.76 340.889 402.798C340.923 402.836 340.965 402.865 341.011 402.885C341.058 402.905 341.108 402.914 341.159 402.913C341.209 402.912 341.258 402.899 341.304 402.877L342.421 402.458L342.84 403.574C342.884 403.66 342.958 403.728 343.047 403.767C343.136 403.804 343.236 403.811 343.328 403.784C343.395 403.723 343.442 403.645 343.467 403.559C343.492 403.473 343.492 403.382 343.468 403.295L343.049 402.179Z" fill="white"/>
<path d="M333.834 420.384L334.951 419.965C335.044 419.928 335.118 419.856 335.157 419.765C335.196 419.673 335.197 419.569 335.16 419.477C335.123 419.384 335.051 419.31 334.959 419.271C334.868 419.232 334.764 419.231 334.671 419.268L333.554 419.756L333.135 418.64C333.121 418.592 333.096 418.547 333.061 418.51C333.028 418.472 332.986 418.443 332.939 418.423C332.893 418.403 332.843 418.393 332.792 418.395C332.742 418.396 332.692 418.409 332.647 418.431C332.561 418.476 332.492 418.548 332.455 418.637C332.416 418.727 332.41 418.826 332.437 418.919L332.926 419.965L331.809 420.454C331.763 420.459 331.719 420.475 331.681 420.502C331.642 420.529 331.611 420.565 331.59 420.606C331.57 420.648 331.56 420.694 331.561 420.74C331.563 420.786 331.576 420.832 331.6 420.872C331.615 420.92 331.64 420.965 331.674 421.003C331.708 421.04 331.749 421.07 331.796 421.09C331.842 421.109 331.892 421.119 331.943 421.118C331.993 421.116 332.043 421.104 332.088 421.081L333.205 420.663L333.624 421.779C333.669 421.865 333.742 421.932 333.831 421.971C333.92 422.009 334.02 422.015 334.113 421.988C334.253 421.849 334.392 421.639 334.253 421.5L333.834 420.384Z" fill="white"/>
<path d="M353.73 418.571L354.847 418.152C354.933 418.107 355.001 418.034 355.039 417.946C355.077 417.856 355.084 417.757 355.056 417.664C355.042 417.616 355.017 417.571 354.982 417.533C354.949 417.496 354.907 417.466 354.86 417.446C354.814 417.427 354.764 417.417 354.713 417.418C354.663 417.42 354.613 417.432 354.568 417.454L353.451 417.873L353.032 416.757C352.977 416.684 352.899 416.63 352.811 416.605C352.722 416.58 352.629 416.584 352.543 416.618C352.463 416.649 352.396 416.71 352.358 416.786C352.319 416.864 352.311 416.953 352.334 417.036L352.822 418.152L351.705 418.571C351.657 418.586 351.612 418.611 351.575 418.644C351.538 418.679 351.508 418.72 351.488 418.767C351.468 418.813 351.458 418.863 351.46 418.914C351.461 418.964 351.474 419.013 351.496 419.059C351.566 419.198 351.775 419.338 351.915 419.268L353.032 418.849L353.451 419.965C353.506 420.039 353.583 420.092 353.671 420.118C353.76 420.143 353.854 420.138 353.939 420.105C353.985 420.1 354.03 420.083 354.068 420.057C354.106 420.03 354.137 419.994 354.158 419.953C354.179 419.911 354.189 419.865 354.187 419.818C354.186 419.772 354.173 419.727 354.149 419.686L353.73 418.571Z" fill="white"/>
<path d="M374.185 420.663L375.302 420.175C375.37 420.132 375.422 420.067 375.447 419.991C375.472 419.914 375.47 419.832 375.442 419.756C375.437 419.71 375.42 419.666 375.394 419.628C375.366 419.59 375.331 419.559 375.29 419.538C375.248 419.518 375.202 419.507 375.155 419.509C375.109 419.511 375.063 419.523 375.023 419.547L373.906 419.965L373.417 418.849C373.374 418.782 373.309 418.731 373.233 418.705C373.156 418.68 373.074 418.681 372.998 418.71C372.952 418.716 372.908 418.732 372.87 418.759C372.831 418.785 372.801 418.821 372.78 418.863C372.759 418.904 372.749 418.95 372.75 418.997C372.752 419.043 372.765 419.089 372.789 419.128L373.208 420.244L372.161 420.733C372.102 420.777 372.059 420.838 372.037 420.908C372.015 420.978 372.016 421.053 372.039 421.122C372.062 421.192 372.107 421.252 372.166 421.295C372.225 421.337 372.297 421.36 372.37 421.36L373.487 420.942L373.976 421.988C374.02 422.047 374.081 422.09 374.151 422.112C374.221 422.134 374.296 422.133 374.365 422.11C374.435 422.086 374.495 422.043 374.538 421.983C374.581 421.923 374.604 421.852 374.604 421.779L374.185 420.663Z" fill="white"/>
<path d="M390.94 376.651L392.057 376.162C392.197 376.093 392.336 375.883 392.197 375.744C392.192 375.697 392.175 375.653 392.149 375.615C392.122 375.577 392.086 375.547 392.044 375.526C392.003 375.505 391.956 375.494 391.91 375.496C391.864 375.498 391.818 375.511 391.778 375.535L390.661 375.953L390.242 374.837C390.187 374.763 390.11 374.71 390.021 374.684C389.933 374.659 389.839 374.664 389.753 374.698C389.707 374.703 389.663 374.719 389.625 374.746C389.587 374.772 389.556 374.809 389.535 374.85C389.514 374.892 389.504 374.938 389.505 374.984C389.508 375.03 389.521 375.076 389.544 375.116L390.033 376.232L388.915 376.72C388.86 376.72 388.806 376.733 388.756 376.758C388.707 376.784 388.665 376.82 388.633 376.865C388.6 376.909 388.579 376.962 388.571 377.016C388.562 377.071 388.567 377.127 388.585 377.179C388.602 377.232 388.632 377.279 388.671 377.317C388.711 377.357 388.759 377.385 388.811 377.402C388.865 377.418 388.92 377.422 388.975 377.412C389.029 377.403 389.081 377.381 389.125 377.348L390.242 376.93L390.731 377.976C390.731 378.031 390.744 378.085 390.769 378.134C390.794 378.184 390.831 378.226 390.876 378.258C390.92 378.291 390.973 378.312 391.027 378.321C391.082 378.329 391.138 378.324 391.19 378.307C391.243 378.289 391.291 378.259 391.329 378.22C391.368 378.18 391.397 378.132 391.413 378.08C391.429 378.027 391.433 377.971 391.424 377.917C391.415 377.862 391.392 377.811 391.359 377.767L390.94 376.651Z" fill="white"/>
<path d="M370.415 369.257L371.532 368.839C371.578 368.821 371.62 368.793 371.655 368.758C371.691 368.724 371.719 368.683 371.738 368.638C371.758 368.593 371.768 368.544 371.768 368.495C371.769 368.445 371.76 368.397 371.742 368.35C371.724 368.304 371.696 368.263 371.661 368.228C371.627 368.192 371.586 368.164 371.541 368.145C371.495 368.125 371.446 368.115 371.397 368.115C371.348 368.114 371.299 368.123 371.253 368.141L370.136 368.629L369.717 367.513C369.68 367.421 369.608 367.347 369.516 367.308C369.425 367.269 369.321 367.267 369.228 367.304C369.136 367.341 369.062 367.414 369.022 367.505C368.983 367.596 368.982 367.7 369.019 367.792L369.508 368.908L368.391 369.327C368.343 369.342 368.298 369.367 368.26 369.401C368.222 369.435 368.193 369.476 368.173 369.523C368.153 369.569 368.144 369.619 368.145 369.67C368.146 369.72 368.159 369.77 368.181 369.815C368.226 369.901 368.299 369.969 368.388 370.007C368.477 370.045 368.577 370.052 368.67 370.024L369.717 369.536L370.206 370.652C370.22 370.7 370.246 370.745 370.28 370.783C370.314 370.82 370.355 370.85 370.402 370.87C370.448 370.889 370.498 370.899 370.549 370.898C370.6 370.896 370.649 370.884 370.695 370.861C370.768 370.806 370.822 370.729 370.847 370.641C370.872 370.553 370.868 370.458 370.834 370.373L370.415 369.257Z" fill="white"/>
<path d="M386.542 384.463L387.659 383.974C387.799 383.905 387.938 383.695 387.869 383.556C387.854 383.508 387.828 383.463 387.794 383.426C387.761 383.388 387.719 383.359 387.672 383.338C387.626 383.318 387.576 383.309 387.525 383.31C387.475 383.312 387.425 383.324 387.38 383.347L386.263 383.765L385.844 382.649C385.79 382.575 385.711 382.522 385.623 382.496C385.535 382.471 385.441 382.476 385.355 382.51C385.216 382.579 385.076 382.789 385.146 382.928L385.634 384.044L384.517 384.532C384.471 384.537 384.427 384.554 384.389 384.581C384.351 384.607 384.32 384.643 384.299 384.684C384.278 384.726 384.268 384.772 384.27 384.819C384.271 384.865 384.284 384.91 384.308 384.951C384.323 384.999 384.349 385.044 384.382 385.081C384.416 385.118 384.457 385.148 384.504 385.168C384.55 385.188 384.601 385.198 384.652 385.196C384.702 385.195 384.751 385.183 384.797 385.16L385.914 384.742L386.333 385.788C386.347 385.836 386.373 385.881 386.407 385.918C386.441 385.955 386.482 385.985 386.529 386.005C386.575 386.025 386.625 386.035 386.676 386.033C386.726 386.032 386.776 386.02 386.821 385.997C386.889 385.954 386.941 385.889 386.966 385.812C386.991 385.736 386.99 385.653 386.961 385.579L386.542 384.463Z" fill="white"/>
<path d="M344.655 354.47L345.772 354.052C345.82 354.036 345.864 354.011 345.902 353.978C345.94 353.944 345.969 353.902 345.989 353.856C346.009 353.81 346.019 353.759 346.017 353.709C346.016 353.658 346.003 353.609 345.981 353.563C345.936 353.478 345.864 353.409 345.774 353.372C345.685 353.333 345.585 353.327 345.492 353.354L344.375 353.842L343.956 352.726C343.942 352.678 343.917 352.634 343.882 352.596C343.849 352.558 343.807 352.529 343.76 352.509C343.714 352.489 343.664 352.48 343.614 352.481C343.563 352.482 343.513 352.495 343.468 352.517C343.382 352.562 343.314 352.634 343.276 352.724C343.237 352.813 343.231 352.912 343.258 353.005L343.747 354.121L342.63 354.54C342.582 354.555 342.537 354.58 342.499 354.614C342.462 354.647 342.432 354.689 342.412 354.735C342.393 354.782 342.383 354.832 342.384 354.882C342.386 354.933 342.398 354.983 342.42 355.028C342.465 355.114 342.538 355.182 342.627 355.22C342.716 355.258 342.816 355.265 342.909 355.237L344.026 354.749L344.445 355.865C344.46 355.913 344.486 355.958 344.519 355.996C344.553 356.033 344.594 356.063 344.641 356.083C344.687 356.102 344.738 356.112 344.789 356.111C344.839 356.109 344.888 356.097 344.934 356.074C344.976 356.052 345.013 356.022 345.043 355.985C345.074 355.949 345.096 355.906 345.109 355.86C345.122 355.814 345.126 355.767 345.119 355.719C345.114 355.672 345.098 355.627 345.073 355.586L344.655 354.47Z" fill="white"/>
<path d="M368.042 307.947L369.229 307.459C369.328 307.427 369.411 307.358 369.463 307.268C369.514 307.178 369.53 307.072 369.508 306.97C369.451 306.878 369.365 306.809 369.264 306.771C369.164 306.733 369.053 306.729 368.949 306.761L367.763 307.249L367.274 305.994C367.229 305.907 367.157 305.84 367.067 305.801C366.978 305.764 366.879 305.757 366.785 305.785C366.694 305.841 366.623 305.927 366.586 306.028C366.548 306.129 366.544 306.239 366.576 306.343L367.064 307.528L365.808 308.017C365.722 308.061 365.654 308.134 365.616 308.223C365.577 308.312 365.572 308.411 365.598 308.505C365.621 308.555 365.654 308.601 365.694 308.639C365.735 308.677 365.782 308.707 365.834 308.726C365.886 308.746 365.941 308.755 365.997 308.753C366.052 308.75 366.107 308.737 366.157 308.714L367.344 308.226L367.832 309.481C367.877 309.567 367.95 309.635 368.04 309.673C368.128 309.712 368.228 309.717 368.321 309.691C368.372 309.668 368.417 309.636 368.456 309.595C368.494 309.555 368.524 309.507 368.543 309.456C368.562 309.403 368.571 309.348 368.569 309.292C368.567 309.237 368.554 309.183 368.53 309.133L368.042 307.947Z" fill="white"/>
<path opacity="0.15" d="M390.103 428.266L397.084 382.231L395.688 428.266H390.103Z" fill="black"/>
<path d="M414.467 394.506L426.056 394.715C426.646 394.722 427.223 394.888 427.727 395.194C428.231 395.501 428.643 395.938 428.918 396.459L430.245 398.761L424.869 400.086L414.467 394.506Z" fill="#F39494"/>
<path d="M439.206 412.631L423.568 402.169C422.214 401.323 420.728 400.711 419.17 400.355C419.17 400.355 403.742 397.496 403.532 397.356L381.122 387.173L382.379 409.911L392.641 413.538L427.268 425.186C427.594 425.334 427.964 425.35 428.302 425.234C428.639 425.117 428.919 424.875 429.084 424.559C429.171 424.407 429.228 424.241 429.25 424.068C429.273 423.895 429.262 423.719 429.216 423.55C429.171 423.382 429.093 423.224 428.986 423.086C428.88 422.947 428.746 422.832 428.595 422.745L416.796 416.189L430.48 423.722C430.661 423.83 430.863 423.901 431.073 423.928C431.283 423.955 431.496 423.939 431.699 423.88C431.903 423.821 432.091 423.72 432.254 423.586C432.416 423.45 432.549 423.283 432.644 423.094C432.816 422.774 432.887 422.411 432.85 422.05C432.812 421.69 432.668 421.349 432.435 421.071L433.621 421.978C433.962 422.216 434.379 422.32 434.792 422.269C435.205 422.217 435.584 422.014 435.855 421.699C436.001 421.54 436.113 421.354 436.185 421.151C436.257 420.948 436.287 420.733 436.274 420.518C436.261 420.303 436.205 420.093 436.109 419.901C436.013 419.708 435.879 419.537 435.716 419.397L422.172 407.051L437.601 415.352C437.779 415.449 437.976 415.51 438.178 415.532C438.38 415.553 438.584 415.534 438.779 415.475C438.974 415.417 439.155 415.32 439.312 415.191C439.47 415.062 439.6 414.903 439.695 414.724C439.904 414.38 439.97 413.969 439.879 413.578C439.787 413.187 439.546 412.846 439.206 412.631Z" fill="#F39494"/>
<g opacity="0.15">
<path opacity="0.15" d="M437.924 416.896C438.028 416.917 438.135 416.909 438.234 416.872C438.332 416.835 438.419 416.771 438.482 416.687C438.564 416.566 438.595 416.418 438.57 416.274C438.543 416.131 438.462 416.004 438.343 415.919L426.265 407.41C425.986 407.27 425.637 407.27 425.497 407.549C425.416 407.67 425.385 407.818 425.411 407.961C425.437 408.104 425.518 408.232 425.637 408.317L437.784 416.826L437.924 416.896Z" fill="black"/>
</g>
<g opacity="0.15">
<path opacity="0.15" d="M434.294 418.64C434.415 418.67 434.543 418.658 434.656 418.608C434.77 418.557 434.864 418.47 434.922 418.361C434.96 418.296 434.984 418.226 434.994 418.152C435.003 418.079 434.998 418.004 434.978 417.933C434.96 417.862 434.926 417.795 434.88 417.736C434.835 417.678 434.778 417.63 434.713 417.593L422.984 411.037C422.852 410.977 422.703 410.966 422.563 411.004C422.423 411.042 422.301 411.127 422.216 411.246C422.179 411.309 422.155 411.381 422.145 411.454C422.136 411.527 422.141 411.602 422.161 411.674C422.18 411.745 422.214 411.812 422.259 411.87C422.304 411.928 422.362 411.977 422.426 412.013L434.155 418.5L434.294 418.64Z" fill="black"/>
</g>
<path opacity="0.15" d="M435.062 419.825L403.297 408.177L389.404 405.247V406.643L399.876 410.13L433.246 421.36C433.945 421.709 435.411 421.081 435.062 419.825Z" fill="black"/>
<path opacity="0.15" d="M323.362 373.023L292.225 316.246L291.667 315.967C291.667 316.595 292.365 317.502 292.644 318.06C295.158 324.058 309.888 358.654 318.266 373.93C321.826 380.416 324.479 384.113 328.807 387.112C331.165 388.761 333.752 390.053 336.487 390.949L396.386 411.525V408.735L335.789 385.159C332.975 384.131 330.412 382.517 328.27 380.425C326.128 378.333 324.455 375.809 323.362 373.023Z" fill="black"/>
<path d="M348.913 361.793L325.945 318.269L291.667 315.967L325.107 375.952C327.411 381.393 335.3 384.113 340.815 386.136L394.361 408.247L395.059 386.206L348.913 361.793Z" fill="#7C8EC8"/>
<path opacity="0.15" d="M352.264 361.723L326.643 318.967L348.634 362.003L395.757 386.903L352.264 361.723Z" fill="black"/>
<path d="M397.991 387.531L394.291 408.805L388.776 406.782L393.104 384.811L397.991 387.531Z" fill="#21252B"/>
<path d="M335.719 247.822L333.275 232.058C331.809 223.898 340.256 219.573 345.353 219.573H363.015C368.461 219.573 374.883 223.828 372.161 233.035L370.555 246.985L335.719 247.822Z" fill="#1A1A1A"/>
<path opacity="0.2" d="M377.117 284.789C375.442 286.882 371.114 292.252 368.461 295.042C367.134 296.437 364.761 296.368 363.155 294.833L358.617 290.509C356.662 288.626 353.521 288.835 352.404 290.997L349.123 296.995C348.215 298.809 345.702 299.437 343.538 298.321L326.085 288.207C325.042 287.586 324.12 286.783 323.362 285.835C323.083 287.579 324.2 289.393 326.085 290.3L343.538 300.343C345.702 301.39 348.215 300.762 349.192 298.948L352.404 292.88C353.591 290.718 356.732 290.509 358.687 292.392L363.225 296.716C364.761 298.181 367.204 298.251 368.53 296.856C371.114 293.996 375.721 288.346 377.467 286.254C377.885 285.626 378.234 284.51 377.746 283.883L377.117 284.789Z" fill="#231F20"/>
<path d="M334.602 273.908L328.039 276.349C327.272 276.628 324.479 277.605 324.27 279.279L323.781 282.557C323.502 284.301 323.362 287.23 323.362 287.23L343.538 299.018C345.702 300.064 348.215 299.437 349.193 297.623L352.404 291.625C353.521 289.462 356.732 289.253 358.687 291.136L363.155 295.461C364.761 296.995 367.134 297.065 368.461 295.67C371.114 292.81 377.886 284.092 377.886 284.092C377.886 284.092 373.138 276.628 370.625 275.233L360.712 272.513C352.613 270.212 343.468 270.63 334.602 273.908Z" fill="#21252B"/>
<path d="M366.994 240.916C366.994 240.916 338.232 222.851 337.254 244.892L336.835 250.681L334.811 279.488C334.811 280.534 342.49 285.696 342.49 285.696C344.54 286.889 346.808 287.66 349.161 287.962C351.514 288.263 353.904 288.091 356.189 287.454C358.474 286.816 360.607 285.727 362.464 284.251C364.32 282.775 365.861 280.942 366.994 278.86C367.128 278.671 367.223 278.458 367.274 278.233L365.249 262.12C365.655 260.429 365.866 258.698 365.877 256.959C366.157 248.519 366.994 240.916 366.994 240.916Z" fill="#FC9D9D"/>
<path d="M370.206 225.223C370.206 225.223 380.329 268.05 358.478 270.91C339.419 273.421 337.324 243.847 337.324 243.847L338.092 224.665L370.206 225.223Z" fill="#FC9D9D"/>
<path opacity="0.15" d="M336.626 251.937C336.626 251.937 338.511 252.077 339.488 251.24L336.417 255.982L336.626 251.937Z" fill="black"/>
<path d="M337.743 240.498C337.743 240.498 336.347 236.453 332.158 238.336C327.969 240.219 328.249 251.379 336.417 251.937C340.675 252.286 339.838 249.845 339.139 246.566L337.743 240.498Z" fill="#FC9D9D"/>
<path opacity="0.3" d="M331.809 241.335C332.131 241.083 332.501 240.896 332.897 240.789C333.293 240.681 333.706 240.653 334.113 240.707C334.881 240.946 335.545 241.438 335.998 242.102C336.472 243.062 336.757 244.104 336.835 245.171L336.975 246.148C336.975 246.496 336.835 246.706 336.556 246.706C336.277 246.706 335.998 246.566 335.998 246.287L335.858 245.311C335.806 244.447 335.542 243.609 335.09 242.869C334.671 242.312 334.322 241.893 333.973 241.893C333.692 241.818 333.396 241.816 333.115 241.89C332.833 241.963 332.575 242.109 332.367 242.311C332.088 242.381 331.809 242.381 331.669 242.102C331.53 241.823 331.669 241.405 331.809 241.335Z" fill="black"/>
<path opacity="0.15" d="M366.715 274.327L366.017 267.421C364.132 269.305 358.896 272.025 352.962 270.7C349.995 269.9 347.325 268.251 345.283 265.957C345.191 265.893 345.081 265.86 344.969 265.86C344.857 265.86 344.747 265.893 344.654 265.957C344.586 266.033 344.548 266.133 344.548 266.236C344.548 266.338 344.586 266.438 344.654 266.515C347.291 269.488 350.908 271.418 354.847 271.955C356.567 273.122 358.503 273.933 360.541 274.34C362.579 274.747 364.679 274.743 366.715 274.327Z" fill="black"/>
<g opacity="0.3">
<path opacity="0.3" d="M360.013 262.26L357.291 262.539C357.152 262.513 357.025 262.446 356.925 262.347C356.825 262.247 356.758 262.12 356.732 261.981C356.745 261.83 356.805 261.687 356.907 261.574C357.007 261.461 357.142 261.383 357.291 261.353L359.874 261.144C359.95 261.132 360.028 261.138 360.101 261.162C360.174 261.186 360.241 261.227 360.295 261.281C360.35 261.336 360.39 261.402 360.414 261.475C360.438 261.549 360.444 261.626 360.432 261.702C360.572 261.772 360.293 262.121 360.013 262.26Z" fill="black"/>
</g>
<g opacity="0.3">
<path opacity="0.3" d="M360.921 259.679C356.104 260.377 353.939 257.866 353.241 256.54C353.18 256.426 353.16 256.294 353.185 256.167C353.211 256.04 353.28 255.925 353.381 255.843C353.508 255.787 353.65 255.77 353.787 255.796C353.923 255.821 354.049 255.886 354.149 255.983C354.847 257.308 357.221 259.958 362.945 258.075C363.014 258.04 363.089 258.02 363.165 258.015C363.241 258.01 363.318 258.021 363.39 258.048C363.462 258.074 363.528 258.115 363.584 258.167C363.639 258.22 363.683 258.284 363.713 258.354C363.853 258.703 363.713 258.912 363.434 259.121C363.155 259.33 361.759 259.47 360.921 259.679Z" fill="black"/>
</g>
<path d="M353.242 246.985C354.206 246.985 354.987 246.204 354.987 245.242C354.987 244.278 354.206 243.498 353.242 243.498C352.278 243.498 351.496 244.278 351.496 245.242C351.496 246.204 352.278 246.985 353.242 246.985Z" fill="#21252B"/>
<path d="M353.939 245.102C354.171 245.102 354.358 244.915 354.358 244.683C354.358 244.452 354.171 244.265 353.939 244.265C353.708 244.265 353.521 244.452 353.521 244.683C353.521 244.915 353.708 245.102 353.939 245.102Z" fill="white"/>
<path d="M366.715 247.822C367.679 247.822 368.461 247.041 368.461 246.078C368.461 245.115 367.679 244.334 366.715 244.334C365.751 244.334 364.97 245.115 364.97 246.078C364.97 247.041 365.751 247.822 366.715 247.822Z" fill="#21252B"/>
<path d="M367.483 245.938C367.714 245.938 367.902 245.751 367.902 245.519C367.902 245.288 367.714 245.101 367.483 245.101C367.252 245.101 367.064 245.288 367.064 245.519C367.064 245.751 367.252 245.938 367.483 245.938Z" fill="white"/>
<g opacity="0.3">
<path opacity="0.3" d="M362.317 255.286L360.013 255.495C359.664 255.495 359.455 255.286 359.455 255.076C359.455 254.867 359.594 254.518 359.873 254.518L362.177 254.309C362.315 254.3 362.45 254.264 362.573 254.203C362.697 254.142 362.807 254.057 362.899 253.953C362.989 253.85 363.058 253.73 363.102 253.599C363.146 253.468 363.165 253.331 363.155 253.193C363.12 252.909 362.977 252.65 362.756 252.468C362.535 252.286 362.253 252.196 361.968 252.217C361.689 252.217 361.409 252.077 361.409 251.798C361.409 251.519 361.549 251.24 361.828 251.24C362.38 251.2 362.927 251.373 363.356 251.723C363.784 252.073 364.062 252.574 364.132 253.123C364.161 253.385 364.136 253.651 364.06 253.902C363.983 254.155 363.856 254.389 363.687 254.592C363.517 254.794 363.308 254.959 363.073 255.078C362.838 255.198 362.58 255.268 362.317 255.286Z" fill="black"/>
</g>
<path d="M373.138 212.458C366.925 208.064 354.568 211.133 347.866 214.202C348.006 212.249 346.749 212.458 346.749 212.458C334.951 215.597 338.022 224.944 338.022 224.944H338.162C336.905 227.594 335.3 233.314 336.836 243.637C336.836 243.637 341.094 235.058 341.164 228.362C346.4 230.733 361.479 234.081 370.904 230.942C371.812 236.592 372.44 243.637 372.44 243.637C373.253 238.763 373.23 233.786 372.37 228.92C372.954 228.513 373.492 228.046 373.976 227.525C373.976 227.525 382.004 218.736 373.138 212.458Z" fill="#1A1A1A"/>
<path opacity="0.19" d="M376.209 245.59C376.209 247.055 375.774 248.488 374.958 249.705C374.142 250.922 372.981 251.87 371.625 252.427C370.269 252.985 368.777 253.127 367.34 252.836C365.902 252.545 364.584 251.834 363.552 250.793C362.52 249.752 361.821 248.428 361.543 246.989C361.265 245.551 361.423 244.062 361.993 242.712C362.564 241.362 363.523 240.213 364.749 239.409C365.976 238.604 367.413 238.183 368.879 238.196C370.83 238.215 372.694 239.002 374.067 240.386C375.439 241.771 376.21 243.641 376.209 245.59Z" fill="white"/>
<path opacity="0.19" d="M358.128 245.59C358.128 247.055 357.693 248.488 356.876 249.705C356.06 250.922 354.9 251.87 353.544 252.427C352.188 252.985 350.696 253.127 349.258 252.836C347.822 252.545 346.503 251.834 345.471 250.793C344.439 249.752 343.74 248.428 343.462 246.989C343.184 245.551 343.341 244.062 343.912 242.712C344.483 241.362 345.442 240.213 346.668 239.409C347.894 238.604 349.332 238.183 350.798 238.196C352.748 238.215 354.613 239.002 355.986 240.386C357.359 241.771 358.129 243.641 358.128 245.59Z" fill="white"/>
<path d="M358.128 245.59C358.128 247.055 357.693 248.488 356.876 249.705C356.06 250.922 354.9 251.87 353.544 252.427C352.188 252.985 350.696 253.127 349.258 252.836C347.822 252.545 346.503 251.834 345.471 250.793C344.439 249.752 343.74 248.428 343.462 246.989C343.184 245.551 343.341 244.062 343.912 242.712C344.483 241.362 345.442 240.213 346.668 239.409C347.894 238.604 349.332 238.183 350.798 238.196C352.748 238.215 354.613 239.002 355.986 240.386C357.359 241.771 358.129 243.641 358.128 245.59Z" stroke="#1A1A1A" stroke-width="0.428208" stroke-linecap="round" stroke-linejoin="round"/>
<path d="M376.209 245.59C376.209 247.055 375.774 248.488 374.958 249.705C374.142 250.922 372.981 251.87 371.625 252.427C370.269 252.985 368.777 253.127 367.34 252.836C365.902 252.545 364.584 251.834 363.552 250.793C362.52 249.752 361.821 248.428 361.543 246.989C361.265 245.551 361.423 244.062 361.993 242.712C362.564 241.362 363.523 240.213 364.749 239.409C365.976 238.604 367.413 238.183 368.879 238.196C370.83 238.215 372.694 239.002 374.067 240.386C375.439 241.771 376.21 243.641 376.209 245.59Z" stroke="#1A1A1A" stroke-width="0.428208" stroke-linecap="round" stroke-linejoin="round"/>
<path d="M358.129 245.59C358.129 245.59 359.874 243.985 361.48 245.59" stroke="#1A1A1A" stroke-width="0.428208" stroke-linecap="round" stroke-linejoin="round"/>
<path d="M343.398 245.59L336.975 243.149" stroke="#1A1A1A" stroke-width="0.428208" stroke-miterlimit="10"/>
<path d="M379.351 688.293H402.668L403.227 701.615C403.302 703.345 403.768 705.033 404.59 706.554C405.412 708.074 406.57 709.392 407.974 710.404L425.078 722.61L382.353 721.564L379.351 688.293Z" fill="#FB9C9C"/>
<path opacity="0.15" d="M388.567 716.053L382.423 718.564L404.763 707.962C403.54 704.782 402.969 701.392 403.088 697.988H380.259V700.987L394.222 701.685C395.688 701.824 396.176 704.126 396.037 705.661V705.94C395.842 708.151 395.042 710.264 393.724 712.043C392.407 713.828 390.622 715.216 388.567 716.053Z" fill="black"/>
<path d="M305.35 688.223L328.109 688.153L324.548 720.657H305.35V688.223Z" fill="#FB9C9C"/>
<path opacity="0.15" d="M324.479 720.517L327.062 697.918L305.42 697.779L305.769 700.569L319.592 702.731C320.223 702.794 320.809 703.087 321.245 703.547C321.68 704.008 321.936 704.607 321.966 705.242L322.454 715.286L324.479 720.517Z" fill="black"/>
<path d="M304.024 432.032L395.757 433.496L404.414 697.919H379.352L356.244 481.066C356.175 480.394 355.857 479.772 355.354 479.321C354.851 478.869 354.197 478.621 353.521 478.625C352.833 478.604 352.162 478.844 351.644 479.296C351.126 479.75 350.799 480.382 350.728 481.066L329.017 697.919H304.024V432.032Z" fill="#3F4249"/>
<path d="M303.465 692.479H330.483L329.994 697.919H303.326L303.465 692.479Z" fill="#3F4249"/>
<path opacity="0.15" d="M320.29 692.479H330.483L329.994 697.919L319.522 697.779L320.29 692.479Z" fill="black"/>
<path d="M378.165 692.479H404.903L405.182 697.919H378.723L378.165 692.479Z" fill="#3F4249"/>
<path opacity="0.15" d="M404.903 692.478L401.691 692.408L401.97 697.919H405.182L404.903 692.478Z" fill="black"/>
<path opacity="0.2" d="M320.29 692.478L338.302 490.203C339.139 483.577 345.004 478.625 351.915 478.625H353.73C353.036 478.621 352.365 478.876 351.848 479.341C351.331 479.805 351.008 480.445 350.938 481.135L329.435 692.478H320.29Z" fill="black"/>
<path d="M389.404 438.379L402.389 692.408H404.903L395.967 438.379H389.404Z" fill="#32353A"/>
<path d="M303.325 732.584H326.643C327.163 732.584 327.671 732.424 328.096 732.124C328.521 731.824 328.842 731.399 329.016 730.91C329.076 731.371 329.099 731.838 329.086 732.305V733.073C329.077 733.386 329.007 733.693 328.879 733.972C328.751 734.258 328.569 734.516 328.342 734.726C328.115 734.942 327.848 735.109 327.557 735.221C327.265 735.332 326.954 735.381 326.643 735.374H303.325C303.013 735.381 302.703 735.332 302.411 735.221C302.12 735.109 301.853 734.942 301.626 734.726C301.399 734.516 301.217 734.258 301.089 733.972C300.961 733.693 300.891 733.386 300.882 733.073V732.793C300.87 732.187 300.894 731.58 300.952 730.98C301.119 731.468 301.44 731.894 301.869 732.18C302.297 732.473 302.809 732.612 303.325 732.584Z" fill="black"/>
<path d="M306.746 707.893L307.305 707.335C309.529 705.256 312.47 704.119 315.515 704.154C318.56 704.196 321.471 705.41 323.641 707.544L323.92 707.893C325 708.967 325.626 710.418 325.665 711.938V714.379C325.629 715.774 325.841 717.169 326.294 718.495L328.318 725.121C328.822 726.697 329.081 728.343 329.086 730.004V730.841C329.05 731.475 328.767 732.075 328.298 732.501C327.828 732.933 327.21 733.163 326.573 733.142H303.325C303.008 733.163 302.69 733.114 302.391 733.01C302.09 732.905 301.815 732.738 301.581 732.521C301.347 732.305 301.158 732.047 301.026 731.761C300.894 731.468 300.821 731.161 300.812 730.841V730.492C300.831 728.546 301.161 726.614 301.789 724.772L304.163 718.355C304.656 716.87 304.915 715.314 304.931 713.752V711.868C305 710.362 305.651 708.932 306.746 707.893Z" fill="#3F4249"/>
<path opacity="0.4" d="M321.896 713.194C322.397 713.194 322.803 712.789 322.803 712.287C322.803 711.785 322.397 711.38 321.896 711.38C321.394 711.38 320.988 711.785 320.988 712.287C320.988 712.789 321.394 713.194 321.896 713.194Z" fill="#231F20"/>
<path opacity="0.4" d="M321.477 716.681C321.978 716.681 322.385 716.277 322.385 715.774C322.385 715.272 321.978 714.868 321.477 714.868C320.976 714.868 320.569 715.272 320.569 715.774C320.569 716.277 320.976 716.681 321.477 716.681Z" fill="#231F20"/>
<path opacity="0.4" d="M321.198 719.262C321.699 719.262 322.105 718.857 322.105 718.355C322.105 717.853 321.699 717.449 321.198 717.449C320.696 717.449 320.29 717.853 320.29 718.355C320.29 718.857 320.696 719.262 321.198 719.262Z" fill="#231F20"/>
<path opacity="0.4" d="M321.616 723.377C322.117 723.377 322.524 722.973 322.524 722.471C322.524 721.968 322.117 721.564 321.616 721.564C321.115 721.564 320.708 721.968 320.708 722.471C320.708 722.973 321.115 723.377 321.616 723.377Z" fill="#231F20"/>
<path opacity="0.4" d="M321.616 726.934C322.117 726.934 322.524 726.53 322.524 726.028C322.524 725.526 322.117 725.121 321.616 725.121C321.115 725.121 320.708 725.526 320.708 726.028C320.708 726.53 321.115 726.934 321.616 726.934Z" fill="#231F20"/>
<path opacity="0.4" d="M310.656 727.702C311.157 727.702 311.564 727.297 311.564 726.795C311.564 726.293 311.157 725.888 310.656 725.888C310.155 725.888 309.749 726.293 309.749 726.795C309.749 727.297 310.155 727.702 310.656 727.702Z" fill="#231F20"/>
<path opacity="0.4" d="M310.516 724.354C311.017 724.354 311.424 723.949 311.424 723.447C311.424 722.945 311.017 722.54 310.516 722.54C310.015 722.54 309.609 722.945 309.609 723.447C309.609 723.949 310.015 724.354 310.516 724.354Z" fill="#231F20"/>
<path opacity="0.4" d="M310.377 719.959C310.878 719.959 311.284 719.555 311.284 719.053C311.284 718.551 310.878 718.146 310.377 718.146C309.875 718.146 309.469 718.551 309.469 719.053C309.469 719.555 309.875 719.959 310.377 719.959Z" fill="#231F20"/>
<path opacity="0.4" d="M310.656 715.774C311.157 715.774 311.564 715.37 311.564 714.868C311.564 714.366 311.157 713.961 310.656 713.961C310.155 713.961 309.749 714.366 309.749 714.868C309.749 715.37 310.155 715.774 310.656 715.774Z" fill="#231F20"/>
<path opacity="0.4" d="M310.795 712.496C311.297 712.496 311.703 712.092 311.703 711.589C311.703 711.087 311.297 710.683 310.795 710.683C310.294 710.683 309.888 711.087 309.888 711.589C309.888 712.092 310.294 712.496 310.795 712.496Z" fill="#231F20"/>
<path d="M321.617 712.078C321.617 712.078 317.637 707.893 310.796 711.38" stroke="white" stroke-miterlimit="10" stroke-linecap="round"/>
<path d="M321.477 715.565C321.477 715.565 317.498 711.31 310.656 714.868" stroke="white" stroke-miterlimit="10" stroke-linecap="round"/>
<path d="M321.197 718.216C320.15 717.448 314.984 715.775 310.376 718.983" stroke="white" stroke-miterlimit="10" stroke-linecap="round"/>
<path d="M321.267 722.401C321.267 722.401 316.799 718.774 310.516 723.168" stroke="white" stroke-miterlimit="10" stroke-linecap="round"/>
<path d="M321.616 725.888C321.616 725.888 317.148 722.192 310.865 726.655" stroke="white" stroke-miterlimit="10" stroke-linecap="round"/>
<path d="M379.701 732.793L442.113 732.933C442.238 732.64 442.331 732.34 442.392 732.026C442.531 732.766 442.554 733.512 442.462 734.258C442.446 734.816 442.222 735.346 441.834 735.744C441.447 736.148 440.924 736.386 440.368 736.421L381.725 736.281C381.157 736.26 380.617 736.03 380.214 735.625C379.812 735.228 379.578 734.684 379.561 734.119L379.701 732.793Z" fill="black"/>
<path d="M438.692 725.749C427.592 720.796 418.516 716.681 410.208 709.218C408.323 707.544 406.857 706.289 404.414 706.079L394.989 711.869C394.43 712.245 393.768 712.44 393.093 712.427C392.419 712.413 391.765 712.196 391.219 711.799L381.166 706.498C379.491 706.358 378.095 708.521 378.234 710.264L379.7 732.793L442.113 732.933C443.439 730.213 440.647 726.586 438.692 725.749Z" fill="#3F4249"/>
<path opacity="0.4" d="M427.801 726.865C428.457 726.865 428.988 726.363 428.988 725.749C428.988 725.135 428.457 724.633 427.801 724.633C427.146 724.633 426.614 725.135 426.614 725.749C426.614 726.363 427.146 726.865 427.801 726.865Z" fill="#231F20"/>
<path opacity="0.4" d="M420.96 724.982C421.615 724.982 422.147 724.479 422.147 723.866C422.147 723.252 421.615 722.75 420.96 722.75C420.304 722.75 419.773 723.252 419.773 723.866C419.773 724.479 420.304 724.982 420.96 724.982Z" fill="#231F20"/>
<path opacity="0.4" d="M415.235 721.076C415.89 721.076 416.422 720.573 416.422 719.959C416.422 719.346 415.89 718.844 415.235 718.844C414.579 718.844 414.048 719.346 414.048 719.959C414.048 720.573 414.579 721.076 415.235 721.076Z" fill="#231F20"/>
<path opacity="0.4" d="M409.79 717.03C410.445 717.03 410.977 716.528 410.977 715.914C410.977 715.3 410.445 714.798 409.79 714.798C409.134 714.798 408.603 715.3 408.603 715.914C408.603 716.528 409.134 717.03 409.79 717.03Z" fill="#231F20"/>
<path opacity="0.4" d="M404.903 712.148C405.558 712.148 406.089 711.645 406.089 711.032C406.089 710.418 405.558 709.915 404.903 709.915C404.247 709.915 403.716 710.418 403.716 711.032C403.716 711.645 404.247 712.148 404.903 712.148Z" fill="#231F20"/>
<path d="M429.965 723.098L429.197 725.191C429.143 725.33 429.062 725.456 428.959 725.56C428.856 725.665 428.733 725.756 428.596 725.811C428.46 725.867 428.313 725.902 428.164 725.902C428.016 725.902 427.869 725.874 427.731 725.818C427.592 725.763 427.467 725.686 427.361 725.581C427.256 725.477 427.175 725.351 427.122 725.212C427.069 725.072 427.046 724.926 427.055 724.779C427.064 724.626 427.104 724.486 427.173 724.354L428.29 722.331L429.965 723.098Z" fill="white"/>
<path d="M423.892 720.239L422.426 723.377C422.36 723.51 422.267 723.635 422.152 723.733C422.038 723.831 421.906 723.901 421.762 723.949C421.619 723.991 421.467 724.012 421.318 723.998C421.168 723.984 421.023 723.935 420.89 723.866C420.764 723.803 420.651 723.712 420.561 723.601C420.47 723.489 420.403 723.363 420.364 723.224C420.325 723.084 420.314 722.945 420.333 722.798C420.351 722.659 420.399 722.526 420.471 722.401L422.077 719.402L423.892 720.239Z" fill="white"/>
<path d="M418.795 717.03L416.841 719.681C416.745 719.806 416.626 719.911 416.49 719.987C416.353 720.064 416.203 720.113 416.047 720.134C415.891 720.155 415.733 720.141 415.581 720.099C415.43 720.057 415.289 719.987 415.165 719.89H415.095C414.926 719.701 414.822 719.464 414.797 719.213C414.772 718.962 414.827 718.711 414.956 718.495L416.841 715.984L418.795 717.03Z" fill="white"/>
<path d="M413.769 713.682L411.256 716.053C411.06 716.242 410.797 716.353 410.523 716.353C410.248 716.353 409.985 716.242 409.79 716.053C409.676 715.949 409.587 715.823 409.528 715.684C409.47 715.537 409.443 715.391 409.449 715.237C409.456 715.084 409.496 714.931 409.567 714.798C409.638 714.659 409.738 714.54 409.859 714.449L412.373 712.566L413.769 713.682Z" fill="white"/>
<path d="M408.882 709.288C408.882 709.358 407.416 710.473 406.439 711.241C406.219 711.401 405.949 711.471 405.679 711.443C405.409 711.422 405.158 711.297 404.972 711.101C404.885 710.983 404.824 710.843 404.794 710.697C404.764 710.55 404.766 710.397 404.799 710.257C404.832 710.111 404.896 709.971 404.986 709.853C405.076 709.734 405.19 709.637 405.322 709.567L408.254 708.172L408.882 709.288Z" fill="white"/>
<path d="M303.675 427.916H395.897L395.967 438.379H304.094L304.024 432.31L303.675 427.916Z" fill="#21252B"/>
<path d="M303.326 427.916H395.897L395.967 438.379H303.814L303.675 432.31L303.326 427.916Z" fill="#1A1A1A"/>
<path d="M367.064 427.916H347.517V438.351H367.064V427.916Z" fill="#61656D"/>
<path d="M365.948 427.916H348.495V438.351H365.948V427.916Z" fill="#DADDDF"/>
</svg>
