<svg width="1033" height="775" viewBox="0 0 1033 775" fill="none" xmlns="http://www.w3.org/2000/svg">
<g clip-path="url(#clip0)">
<path d="M42.8169 774.556L0.185019 293.264C-0.90274 281.007 2.83594 268.807 10.6061 259.261L207.488 17.4531C212.463 11.3774 218.865 6.62558 226.124 3.62213C233.381 0.617826 241.27 -0.545158 249.086 0.236478L851.358 62.1304C859.695 62.9826 867.662 66.0394 874.431 70.9866C881.192 75.9338 886.515 82.5932 889.856 90.2796L1028.52 407.411C1032.15 415.746 1033.31 424.947 1031.88 433.924L976.67 774.642L42.8169 774.556Z" fill="#F2F2F2"/>
<path d="M421.244 520.269H81.8257V730.321H421.244V520.269Z" fill="#D7DADC"/>
<path d="M411.685 529.91H91.4722V720.748H411.685V529.91Z" fill="#F2F2F2"/>
<path d="M411.168 529.91H91.4722V720.748H411.168V529.91Z" fill="#F2F2F2"/>
<path d="M445.187 520.269H421.244V730.321H445.187V520.269Z" fill="#AFB3B8"/>
<path d="M411.685 620.212H91.4722V630.455H411.685V620.212Z" fill="#D7DADC"/>
<path d="M177.683 536.883H157.616V620.203H177.683V536.883Z" fill="#AFB3B8"/>
<path d="M231.339 536.883H177.683V620.203H231.339V536.883Z" fill="#D7DADC"/>
<path d="M195.51 546.437H184.228V620.219H195.51V546.437Z" fill="#AFB3B8"/>
<path d="M225.741 546.437H195.511V620.219H225.741V546.437Z" fill="#D7DADC"/>
<path d="M229.961 620.212H213.167L203.521 550.656H220.315L229.961 620.212Z" fill="#AFB3B8"/>
<path d="M229.961 620.212H274.747L265.1 550.656H220.315L229.961 620.212Z" fill="#D7DADC"/>
<path d="M162.611 720.757H145.817L136.17 651.202H152.965L162.611 720.757Z" fill="#AFB3B8"/>
<path d="M162.612 720.757H207.397L197.75 651.202H152.965L162.612 720.757Z" fill="#D7DADC"/>
<path d="M346.23 699.15H243.31V720.766H346.23V699.15Z" fill="#D7DADC"/>
<path d="M315.914 664.802H243.31V682.277H315.914V664.802Z" fill="#D7DADC"/>
<path d="M333.052 682.278H243.31V699.133H333.052V682.278Z" fill="#D7DADC"/>
<path d="M328.23 552.722H311.952V620.229H328.23V552.722Z" fill="#AFB3B8"/>
<path d="M371.722 552.722H328.229V620.229H371.722V552.722Z" fill="#D7DADC"/>
<path d="M364.144 560.384H348.555V620.168H364.144V560.384Z" fill="#AFB3B8"/>
<path d="M390.843 560.384H364.144V620.168H390.843V560.384Z" fill="#D7DADC"/>
<path d="M315.914 679.351H243.31V682.26H315.914V679.351Z" fill="#AFB3B8"/>
<path d="M333.052 696.222H243.31V699.132H333.052V696.222Z" fill="#AFB3B8"/>
<path d="M346.23 717.83H243.31V720.74H346.23V717.83Z" fill="#AFB3B8"/>
<path d="M439.503 730.398L443.206 771.288C443.268 771.641 443.253 772.002 443.161 772.355C443.069 772.7 442.903 773.027 442.674 773.302C442.445 773.586 442.159 773.81 441.834 773.965C441.509 774.12 441.155 774.206 440.794 774.215C440.298 774.206 439.817 774.042 439.416 773.75C439.015 773.457 438.715 773.052 438.555 772.579L427.876 730.398H439.503Z" fill="#D7DADC"/>
<path d="M438.125 754.243L433.646 753.124L427.876 730.398H439.589L443.206 771.374C443.313 771.908 443.234 772.467 442.984 772.949C442.733 773.431 442.326 773.819 441.828 774.043L438.125 754.243Z" fill="#AFB3B8"/>
<path d="M397.646 730.398L401.349 771.288C401.426 771.641 401.424 772.002 401.343 772.347C401.262 772.699 401.104 773.027 400.882 773.302C400.659 773.586 400.378 773.81 400.055 773.965C399.734 774.128 399.382 774.206 399.024 774.215C398.515 774.215 398.021 774.051 397.605 773.758C397.19 773.466 396.874 773.052 396.698 772.579L386.019 730.398H397.646Z" fill="#D7DADC"/>
<path d="M393.77 734.875L387.052 733.583L385.933 730.312H397.56L401.263 771.288C401.369 771.821 401.291 772.381 401.041 772.863C400.79 773.345 400.383 773.732 399.885 773.956L393.77 734.875Z" fill="#AFB3B8"/>
<path d="M144.524 730.398L140.907 771.288C140.813 771.641 140.802 772.011 140.876 772.364C140.949 772.717 141.106 773.052 141.332 773.336C141.558 773.621 141.848 773.853 142.178 773.999C142.508 774.154 142.869 774.223 143.233 774.215C143.729 774.206 144.211 774.042 144.611 773.75C145.012 773.457 145.312 773.052 145.472 772.579L156.237 730.398H144.524Z" fill="#D7DADC"/>
<path d="M146.591 752.177L142.63 751.144L144.524 730.398H156.237L145.472 772.579C145.312 773.052 145.012 773.457 144.611 773.75C144.21 774.042 143.729 774.206 143.233 774.215H143.06L146.591 752.177Z" fill="#AFB3B8"/>
<path d="M101.634 730.398L97.9308 771.288C97.8542 771.641 97.8567 772.002 97.9368 772.347C98.0178 772.699 98.1754 773.027 98.3976 773.302C98.6207 773.586 98.9032 773.81 99.2244 773.965C99.5456 774.128 99.8988 774.206 100.256 774.215C100.756 774.215 101.243 774.06 101.646 773.767C102.05 773.474 102.347 773.052 102.495 772.579L113.261 730.398H101.634Z" fill="#D7DADC"/>
<path d="M106.112 733.928L101.031 732.981L101.634 730.398H113.261L102.495 772.579C102.347 773.052 102.05 773.474 101.646 773.767C101.243 774.06 100.755 774.215 100.256 774.215H100.084L106.112 733.928Z" fill="#AFB3B8"/>
<path d="M559.13 108.532C559.132 97.6995 555.134 87.2464 547.903 79.177C540.672 71.1075 530.717 65.989 519.944 64.8019V64.4576H515.034C503.688 64.9594 492.973 69.8171 485.121 78.02C477.269 86.2229 472.886 97.1374 472.886 108.489C472.886 119.841 477.269 130.756 485.121 138.958C492.973 147.161 503.688 152.019 515.034 152.521H519.944V152.263C530.717 151.075 540.672 145.957 547.903 137.887C555.134 129.818 559.132 119.365 559.13 108.532Z" fill="#B0B4B9"/>
<path d="M519.944 152.607C544.297 152.607 564.04 132.874 564.04 108.532C564.04 84.1905 544.297 64.4576 519.944 64.4576C495.59 64.4576 475.848 84.1905 475.848 108.532C475.848 132.874 495.59 152.607 519.944 152.607Z" fill="#84888F"/>
<path d="M519.943 147.7C541.585 147.7 559.13 130.164 559.13 108.532C559.13 86.9004 541.585 69.3643 519.943 69.3643C498.301 69.3643 480.756 86.9004 480.756 108.532C480.756 130.164 498.301 147.7 519.943 147.7Z" fill="white"/>
<path d="M519.943 147.7C541.585 147.7 559.13 130.164 559.13 108.532C559.13 86.9004 541.585 69.3643 519.943 69.3643C498.301 69.3643 480.756 86.9004 480.756 108.532C480.756 130.164 498.301 147.7 519.943 147.7Z" fill="#84888F"/>
<path opacity="0.9" d="M519.943 147.7C541.585 147.7 559.13 130.164 559.13 108.532C559.13 86.9004 541.585 69.3643 519.943 69.3643C498.301 69.3643 480.756 86.9004 480.756 108.532C480.756 130.164 498.301 147.7 519.943 147.7Z" fill="white"/>
<path d="M519.943 69.3643H517.79C527.712 70.0229 537.012 74.4269 543.806 81.6837C550.6 88.9405 554.38 98.5079 554.38 108.446C554.38 118.384 550.6 127.952 543.806 135.209C537.012 142.465 527.712 146.869 517.79 147.528H519.943C530.336 147.528 540.304 143.401 547.652 136.056C555.001 128.71 559.13 118.748 559.13 108.36C559.13 97.9724 555.001 88.01 547.652 80.6645C540.304 73.319 530.336 69.1922 519.943 69.1922V69.3643Z" fill="#B0B4B9"/>
<path d="M520.288 111.545L507.283 85.7202C507.038 85.2398 506.992 84.682 507.153 84.1672C507.314 83.6524 507.669 83.2212 508.144 82.9655C508.625 82.721 509.183 82.6745 509.698 82.8355C510.213 82.9956 510.644 83.352 510.9 83.8263L522.096 106.122L536.91 98.8048C537.394 98.6137 537.932 98.612 538.417 98.8005C538.903 98.9882 539.299 99.3523 539.527 99.8197C539.755 100.287 539.798 100.823 539.649 101.321C539.499 101.819 539.167 102.242 538.718 102.506L520.288 111.545Z" fill="#7C8EC8"/>
<path opacity="0.5" d="M553.446 128.676C557.173 122.586 559.14 115.584 559.13 108.446C559.141 103.299 558.135 98.2005 556.17 93.4435C554.204 88.6866 551.318 84.3643 547.678 80.7247C544.037 77.0851 539.712 74.2005 534.953 72.2361C530.193 70.2717 525.093 69.2671 519.943 69.2783H516.67L553.446 128.676Z" fill="white"/>
<path opacity="0.5" d="M510.814 70.3964C508.916 70.8957 507.047 71.4991 505.216 72.2041L545.781 137.886C547.353 136.472 548.82 134.948 550.173 133.323L510.814 70.3964Z" fill="white"/>
<path d="M878.31 243.511H700.634V252.575H878.31V243.511Z" fill="#AFB3B8"/>
<path d="M921.286 243.511H878.396V252.575H921.286V243.511Z" fill="#D7DADC"/>
<path d="M772.462 152.435H754.548V243.545H772.462V152.435Z" fill="#AFB3B8"/>
<path d="M820.348 152.435H772.462V243.545H820.348V152.435Z" fill="#D7DADC"/>
<path d="M788.395 160.958H778.318V243.555H788.395V160.958Z" fill="#AFB3B8"/>
<path d="M815.352 160.958H788.395V243.555H815.352V160.958Z" fill="#D7DADC"/>
<path d="M819.141 243.597H804.156L795.543 164.745H810.529L819.141 243.597Z" fill="#AFB3B8"/>
<path d="M819.142 243.597H859.103L850.491 164.745H810.529L819.142 243.597Z" fill="#D7DADC"/>
<path d="M219.798 229.136H296.104V118.553H219.798V229.136Z" fill="#B0B4B9"/>
<path d="M215.578 229.136H291.885V118.553H215.578V229.136Z" fill="white"/>
<path d="M225.137 216.912H282.669V130.226H225.137V216.912Z" fill="#DBDBDB"/>
<path d="M244.257 179.035C247.92 179.035 250.889 176.068 250.889 172.407C250.889 168.747 247.92 165.779 244.257 165.779C240.595 165.779 237.625 168.747 237.625 172.407C237.625 176.068 240.595 179.035 244.257 179.035Z" fill="#7C8EC8"/>
<g opacity="0.2">
<path opacity="0.2" d="M244.257 200.814H263.463V146.307H244.257V200.814Z" fill="black"/>
</g>
<path d="M181.816 225.864H100.084V339.752H181.816V225.864Z" fill="white"/>
<path d="M185.262 225.864H181.731V339.752H185.262V225.864Z" fill="#B0B4B9"/>
<path d="M171.568 236.796H110.333V328.992H171.568V236.796Z" fill="#D8DBDD"/>
<path opacity="0.15" d="M883.822 627.357V604.545H821.984C820.718 603.971 819.59 603.134 818.677 602.089C817.764 601.044 817.084 599.817 816.687 598.488C816.283 597.158 816.179 595.759 816.36 594.384C816.55 593.008 817.023 591.689 817.764 590.514C826.118 577.085 828.099 560.471 812.51 551.26C799.85 543.856 782.539 548.677 775.563 561.504C769.792 572.092 774.529 581.389 779.955 590.858C780.627 592.036 781.04 593.342 781.178 594.691C781.316 596.04 781.169 597.403 780.747 598.692C780.325 599.981 779.636 601.167 778.732 602.175C777.819 603.183 776.717 603.99 775.477 604.545H714.414V664.976C714.776 666.465 715.49 667.847 716.489 669.007C717.497 670.166 718.763 671.07 720.184 671.642C721.605 672.214 723.147 672.439 724.68 672.298C726.204 672.156 727.677 671.653 728.969 670.829C742.491 662.479 759.113 660.585 768.242 676.08C775.649 688.735 770.223 705.779 757.304 712.752C746.711 718.52 738.27 713.871 728.624 708.62C722.337 705.263 715.792 707.845 714.414 714.56V773.87H757.304V774.043H849.372V773.87H883.822V713.527C883.908 713.355 883.822 627.357 883.822 627.357Z" fill="black"/>
<path d="M883.822 627.357V604.545H821.984C820.718 603.971 819.59 603.134 818.677 602.089C817.764 601.044 817.084 599.817 816.687 598.488C816.283 597.158 816.179 595.759 816.36 594.384C816.55 593.008 817.023 591.689 817.764 590.514C826.118 577.085 828.099 560.471 812.51 551.26C799.85 543.856 782.539 548.677 775.563 561.504C769.792 572.092 774.529 581.389 779.955 590.858C780.627 592.036 781.04 593.342 781.178 594.691C781.316 596.04 781.169 597.403 780.747 598.692C780.325 599.981 779.636 601.167 778.732 602.175C777.819 603.183 776.717 603.99 775.477 604.545H714.414V664.976C714.776 666.465 715.49 667.847 716.489 669.007C717.497 670.166 718.763 671.07 720.184 671.642C721.605 672.214 723.147 672.439 724.68 672.298C726.204 672.156 727.677 671.653 728.969 670.829C742.491 662.479 759.113 660.585 768.242 676.08C775.649 688.735 770.223 705.779 757.304 712.752C746.711 718.52 738.27 713.871 728.624 708.62C722.337 705.263 715.792 707.845 714.414 714.56V773.87H757.304V774.043H849.372V773.87H883.822V713.527C883.908 713.355 883.822 627.357 883.822 627.357Z" fill="#4D61FC"/>
<path d="M768.242 675.994C759.113 660.413 742.491 662.393 728.969 670.743C727.505 671.674 725.808 672.191 724.077 672.239C722.338 672.289 720.615 671.868 719.099 671.021C717.583 670.174 716.326 668.934 715.447 667.43C714.578 665.927 714.13 664.216 714.156 662.479V606.181H654.04C652.715 606.67 651.512 607.442 650.515 608.443C649.518 609.443 648.751 610.649 648.267 611.977C647.784 613.303 647.596 614.72 647.715 616.128C647.834 617.535 648.259 618.9 648.959 620.126C654.385 629.595 659.036 638.893 653.351 649.481C646.289 662.393 628.978 667.128 616.404 659.725C600.815 650.6 602.71 633.986 611.064 620.471C611.83 619.237 612.31 617.849 612.469 616.406C612.628 614.963 612.462 613.503 611.983 612.133C611.504 610.762 610.724 609.517 609.701 608.487C608.678 607.457 607.436 606.669 606.069 606.181H545.867V605.75H545.006V604.717H544.748V774.043H714.156V716.97C714.138 715.27 714.578 713.596 715.413 712.118C716.257 710.641 717.471 709.411 718.944 708.555C720.408 707.699 722.079 707.245 723.784 707.242C725.481 707.238 727.152 707.683 728.625 708.534C738.098 713.957 747.486 718.606 758.079 712.924C770.912 705.951 775.735 688.563 768.242 675.994Z" fill="#8291FF" fill-opacity="0.6"/>
<path d="M883.822 602.737L884.08 436.94H714.672V494.702C714.672 502.363 699.083 519.408 692.624 515.362C679.188 506.926 669.715 492.636 660.499 508.217C653.093 520.785 657.916 538.088 670.748 545.147C681.342 550.828 690.299 536.539 699.772 531.115C706.232 527.414 714.672 541.704 714.672 549.193V606.266H774.012C775.451 605.87 776.785 605.151 777.905 604.165C779.025 603.178 779.903 601.949 780.472 600.571C781.049 599.193 781.298 597.703 781.204 596.214C781.118 594.725 780.687 593.275 779.955 591.976C774.529 582.593 769.792 573.21 775.563 562.622C782.539 549.795 799.85 544.975 812.51 552.464C828.099 561.589 826.118 578.203 817.764 591.718C816.963 593.016 816.472 594.485 816.343 596.006C816.205 597.527 816.437 599.057 817.006 600.474C817.574 601.89 818.47 603.153 819.624 604.16C820.77 605.166 822.139 605.887 823.62 606.266H883.822V602.737Z" fill="#8291FF" fill-opacity="0.6"/>
<path opacity="0.5" d="M883.822 627.357V604.545H821.984C820.718 603.971 819.59 603.134 818.677 602.089C817.764 601.044 817.084 599.817 816.687 598.488C816.283 597.158 816.179 595.759 816.36 594.384C816.55 593.008 817.023 591.689 817.764 590.514C826.118 577.085 828.099 560.471 812.51 551.26C799.85 543.856 782.539 548.677 775.563 561.504C769.792 572.092 774.529 581.389 779.955 590.858C780.627 592.036 781.04 593.342 781.178 594.691C781.316 596.04 781.169 597.403 780.747 598.692C780.325 599.981 779.636 601.167 778.732 602.175C777.819 603.183 776.717 603.99 775.477 604.545H714.414V664.976C714.776 666.465 715.49 667.847 716.489 669.007C717.497 670.166 718.763 671.07 720.184 671.642C721.605 672.214 723.147 672.439 724.68 672.298C726.204 672.156 727.677 671.653 728.969 670.829C742.491 662.479 759.113 660.585 768.242 676.08C775.649 688.735 770.223 705.779 757.304 712.752C746.711 718.52 738.27 713.871 728.624 708.62C722.337 705.263 715.792 707.845 714.414 714.56V773.87H757.304V774.043H849.372V773.87H883.822V627.357Z" fill="white"/>
<path d="M634.576 444.43C633.887 438.06 628.203 435.047 622.088 437.63C612.786 441.417 604.604 444.861 595.389 438.577C584.279 430.915 580.92 414.818 588.93 403.971C598.834 390.628 613.906 393.899 625.447 402.938C626.558 403.795 627.855 404.379 629.233 404.643C630.611 404.908 632.032 404.845 633.38 404.459C634.73 404.074 635.969 403.377 637 402.425C638.03 401.473 638.823 400.292 639.313 398.978L642.758 366.181L645.083 344.315V343.627L627.427 341.733L496.518 327.96L489.8 327.271V328.046L487.647 348.189L484.029 383.225L483.685 383.742L479.206 426.525C479.253 426.729 479.31 426.93 479.379 427.128L473.522 482.393H474.297V482.823L494.451 484.976L529.503 488.677C530.712 489.245 531.776 490.079 532.618 491.116C533.458 492.153 534.054 493.366 534.361 494.666C534.667 495.965 534.676 497.316 534.387 498.62C534.097 499.923 533.518 501.144 532.69 502.192C523.733 513.727 520.374 528.792 533.724 538.692C544.661 546.697 560.939 544.029 568.604 532.924C574.891 523.713 571.446 514.76 567.398 505.549C566.885 504.354 566.636 503.061 566.669 501.76C566.702 500.459 567.014 499.18 567.587 498.012C568.16 496.843 568.978 495.812 569.986 494.988C570.993 494.164 572.167 493.568 573.427 493.24L628.805 499.093L631.131 476.367L634.576 444.43Z" fill="#4D61FC"/>
<path opacity="0.5" d="M634.576 444.43C633.887 438.06 628.203 435.047 622.088 437.63C612.786 441.417 604.604 444.861 595.389 438.577C584.279 430.915 580.92 414.818 588.93 403.971C598.834 390.628 613.906 393.899 625.447 402.938C626.558 403.795 627.855 404.379 629.233 404.643C630.611 404.908 632.032 404.845 633.38 404.459C634.73 404.074 635.969 403.377 637 402.425C638.03 401.473 638.823 400.292 639.313 398.978L642.758 366.181L645.083 344.315V343.627L627.427 341.733L496.518 327.96L489.8 327.271V328.046L487.647 348.189L484.029 383.225L483.685 383.742L479.206 426.525C479.253 426.729 479.31 426.93 479.379 427.128L473.522 482.393H474.297V482.823L494.451 484.976L529.503 488.677C530.712 489.245 531.776 490.079 532.618 491.116C533.458 492.153 534.054 493.366 534.361 494.666C534.667 495.965 534.676 497.316 534.387 498.62C534.097 499.923 533.518 501.144 532.69 502.192C523.733 513.727 520.374 528.792 533.724 538.692C544.661 546.697 560.939 544.029 568.604 532.924C574.891 523.713 571.446 514.76 567.398 505.549C566.885 504.354 566.636 503.061 566.669 501.76C566.702 500.459 567.014 499.18 567.587 498.012C568.16 496.843 568.978 495.812 569.986 494.988C570.993 494.164 572.167 493.568 573.427 493.24L628.805 499.093L631.131 476.367L634.576 444.43Z" fill="white"/>
<path d="M889.764 438.232C890.384 438.232 890.884 437.731 890.884 437.113C890.884 436.495 890.384 435.994 889.764 435.994C889.144 435.994 888.645 436.495 888.645 437.113C888.645 437.731 889.144 438.232 889.764 438.232Z" fill="white"/>
<path d="M876.071 605.406V604.545H814.233C812.958 603.98 811.83 603.148 810.9 602.107C809.978 601.066 809.289 599.839 808.884 598.509C808.471 597.179 808.359 595.778 808.54 594.398C808.721 593.019 809.195 591.694 809.927 590.514C818.367 577.085 820.262 560.471 804.673 551.26C792.099 543.856 774.788 548.677 767.811 561.504C762.041 572.092 766.778 581.389 772.118 590.858C772.789 592.036 773.203 593.342 773.341 594.691C773.478 596.04 773.332 597.403 772.91 598.692C772.488 599.981 771.799 601.167 770.895 602.175C769.982 603.183 768.879 603.99 767.639 604.545H706.663V664.976C707.024 666.465 707.739 667.847 708.738 669.007C709.746 670.166 711.012 671.07 712.433 671.642C713.854 672.214 715.396 672.439 716.929 672.298C718.453 672.156 719.926 671.653 721.218 670.829C734.653 662.479 751.362 660.585 760.491 676.08C767.898 688.735 762.385 705.779 749.553 712.752C738.959 718.52 730.433 713.871 720.873 708.62C714.5 705.263 708.041 707.845 706.663 714.56V773.87H749.467V774.043H841.535V773.87H876.071V605.406Z" fill="#4D61FC"/>
<path d="M760.491 675.994C751.361 660.413 734.653 662.393 721.218 670.743C719.745 671.666 718.048 672.177 716.308 672.224C714.569 672.27 712.846 671.85 711.33 671.006C709.806 670.162 708.54 668.926 707.661 667.427C706.774 665.926 706.318 664.218 706.318 662.479V606.181H646.289C644.956 606.661 643.744 607.426 642.738 608.423C641.732 609.42 640.955 610.625 640.463 611.953C639.97 613.281 639.775 614.7 639.889 616.112C640.002 617.524 640.423 618.894 641.121 620.126C646.547 629.595 651.284 638.893 645.514 649.481C638.537 662.393 621.226 667.128 608.566 659.725C592.977 650.6 594.958 633.986 603.312 620.471C604.078 619.237 604.558 617.849 604.717 616.406C604.876 614.963 604.71 613.503 604.231 612.133C603.751 610.762 602.972 609.517 601.949 608.487C600.926 607.457 599.685 606.669 598.317 606.181H538.029V605.75H537.168V604.717H536.91V774.043H706.318V716.97C706.318 715.267 706.766 713.596 707.618 712.121C708.471 710.646 709.694 709.421 711.167 708.567C712.639 707.714 714.31 707.261 716.016 707.255C717.721 707.25 719.392 707.69 720.873 708.534C730.347 713.957 739.648 718.606 750.242 712.924C763.16 705.951 767.897 688.563 760.491 675.994Z" fill="#8291FF"/>
<path d="M875.984 602.737V436.94H706.576V494.702C706.576 496.441 706.12 498.15 705.233 499.649C704.354 501.149 703.088 502.385 701.564 503.229C700.048 504.073 698.325 504.493 696.586 504.448C694.846 504.401 693.149 503.89 691.677 502.966C678.242 494.53 661.62 492.636 652.404 508.217C644.998 520.785 649.735 538.088 662.653 545.147C673.247 550.828 682.548 546.18 692.021 540.757C693.502 539.913 695.173 539.472 696.879 539.478C698.584 539.484 700.255 539.937 701.727 540.791C703.2 541.645 704.423 542.87 705.276 544.345C706.128 545.819 706.576 547.491 706.576 549.193V606.266H765.916C767.355 605.87 768.69 605.151 769.809 604.165C770.929 603.178 771.807 601.949 772.376 600.571C772.953 599.193 773.203 597.703 773.108 596.214C773.022 594.725 772.591 593.275 771.859 591.976C766.433 582.593 761.696 573.21 767.467 562.622C774.443 549.795 791.754 544.975 804.414 552.464C819.917 561.589 818.022 578.203 809.668 591.718C808.867 593.016 808.376 594.485 808.247 596.006C808.109 597.527 808.342 599.057 808.91 600.474C809.478 601.89 810.374 603.153 811.528 604.16C812.674 605.166 814.043 605.887 815.524 606.266H875.984V602.737Z" fill="#8291FF"/>
<path d="M628.892 444.085C628.289 437.715 622.605 434.702 616.49 437.284C607.188 441.072 598.92 444.515 589.791 438.231C578.681 430.57 575.236 414.472 583.246 403.626C593.15 390.283 608.222 393.554 619.763 402.593C620.881 403.449 622.184 404.033 623.568 404.297C624.952 404.561 626.378 404.498 627.734 404.114C629.088 403.729 630.335 403.034 631.374 402.082C632.412 401.13 633.214 399.949 633.715 398.633L637.16 365.835L639.399 343.97V343.281L621.744 341.388L490.834 327.614L484.202 326.926V327.7L482.049 347.844L478.345 382.88L478.087 383.396L473.522 426.18L473.781 426.782L467.924 482.048H468.699V482.478L488.767 484.63L523.906 488.332C525.114 488.901 526.178 489.734 527.02 490.771C527.86 491.808 528.456 493.022 528.763 494.321C529.069 495.621 529.078 496.972 528.789 498.275C528.499 499.579 527.92 500.799 527.092 501.847C518.135 513.382 514.776 528.447 528.126 538.346C538.977 546.352 555.341 543.683 563.006 532.579C569.293 523.368 565.848 514.415 561.801 505.204C561.272 504.01 561.012 502.715 561.037 501.409C561.062 500.104 561.373 498.819 561.947 497.646C562.521 496.474 563.346 495.441 564.362 494.619C565.378 493.798 566.562 493.21 567.829 492.894L623.122 498.748L625.533 476.022L628.892 444.085Z" fill="#4D61FC"/>
<path opacity="0.7" d="M876.071 604.545H814.233C812.958 603.98 811.83 603.148 810.9 602.107C809.978 601.066 809.289 599.839 808.884 598.509C808.471 597.179 808.359 595.778 808.54 594.398C808.721 593.019 809.195 591.694 809.927 590.514C818.367 577.085 820.262 560.471 804.673 551.26C792.099 543.856 774.788 548.677 767.811 561.504C762.041 572.092 766.778 581.389 772.118 590.858C772.789 592.036 773.203 593.342 773.341 594.691C773.478 596.04 773.332 597.403 772.91 598.692C772.488 599.981 771.799 601.167 770.895 602.175C769.982 603.183 768.879 603.99 767.639 604.545H706.663V664.976C707.024 666.465 707.739 667.847 708.738 669.007C709.746 670.166 711.012 671.07 712.433 671.642C713.854 672.214 715.396 672.439 716.929 672.298C718.453 672.156 719.926 671.653 721.218 670.829C734.653 662.479 751.362 660.585 760.491 676.08C767.898 688.735 762.385 705.779 749.553 712.752C738.959 718.52 730.433 713.871 720.873 708.62C714.5 705.263 708.041 707.845 706.663 714.56V773.87H749.467V774.043H841.535V773.87H876.071V604.545Z" fill="white"/>
<path opacity="0.7" d="M628.892 444.085C628.289 437.715 622.605 434.702 616.49 437.284C607.188 441.072 598.92 444.515 589.791 438.231C578.681 430.57 575.236 414.472 583.246 403.626C593.15 390.283 608.222 393.554 619.763 402.593C620.881 403.449 622.184 404.033 623.568 404.297C624.952 404.561 626.378 404.498 627.734 404.114C629.088 403.729 630.335 403.034 631.374 402.082C632.412 401.13 633.214 399.949 633.715 398.633L637.16 365.835L639.399 343.97V343.281L621.744 341.388L490.834 327.614L484.202 326.926V327.7L482.049 347.844L478.345 382.88L478.087 383.396L473.522 426.18L473.781 426.782L467.924 482.048H468.699V482.478L488.767 484.63L523.906 488.332C525.114 488.901 526.178 489.734 527.02 490.771C527.86 491.808 528.456 493.022 528.763 494.321C529.069 495.621 529.078 496.972 528.789 498.275C528.499 499.579 527.92 500.799 527.092 501.847C518.135 513.382 514.776 528.447 528.126 538.346C538.977 546.352 555.341 543.683 563.006 532.579C569.293 523.368 565.848 514.415 561.801 505.204C561.272 504.01 561.012 502.715 561.037 501.409C561.062 500.104 561.373 498.819 561.947 497.646C562.521 496.474 563.346 495.441 564.362 494.619C565.378 493.798 566.562 493.21 567.829 492.894L623.122 498.748L625.533 476.022L628.892 444.085Z" fill="white"/>
<path d="M540.183 326.151L551.982 325.462C552.254 325.436 552.529 325.487 552.774 325.609C553.019 325.731 553.225 325.919 553.368 326.152C553.512 326.385 553.587 326.654 553.585 326.927C553.584 327.201 553.505 327.469 553.36 327.7C552.82 328.615 552.006 329.338 551.034 329.766L540.183 326.151Z" fill="#F39494"/>
<path d="M532.345 323.999C532.345 323.999 543.714 322.535 544.317 322.622C544.92 322.708 546.813 324.687 544.66 325.893L539.062 326.237L532.345 323.999Z" fill="#F39494"/>
<path opacity="0.15" d="M542.939 325.979C543.456 326.237 552.93 328.389 552.93 328.389L551.465 329.766L539.408 326.323L542.939 325.979Z" fill="black"/>
<path opacity="0.15" d="M534.241 323.827L542.939 325.979L541.561 326.151L532.518 323.999L534.241 323.827Z" fill="black"/>
<path d="M562.834 335.017C564.728 334.931 564.47 332.263 562.575 331.66C554.135 328.906 532.259 323.913 531.14 323.741C530.02 323.568 508.661 321.502 486.527 320.297L486.01 342.335C492.186 342.056 498.375 342.229 504.527 342.851C507.197 343.195 513.312 344.573 516.585 346.639C519.857 348.705 525.714 351.029 529.073 351.545C529.422 351.576 529.771 351.479 530.055 351.274C530.34 351.069 530.541 350.768 530.623 350.426C530.795 349.135 530.881 347.241 529.159 346.467C527.436 345.692 519.685 340.957 520.719 338.547C521.752 336.137 529.245 334.501 530.537 334.845C531.829 335.19 542.422 337.428 542.594 338.03C542.767 338.633 551.551 348.446 554.307 347.758C554.617 347.685 554.906 347.539 555.147 347.332C555.389 347.124 555.577 346.861 555.695 346.566C555.814 346.269 555.858 345.95 555.826 345.633C555.795 345.316 555.687 345.012 555.513 344.745C553.532 341.904 550.001 336.137 548.278 333.812C553.532 334.243 560.767 335.104 562.834 335.017Z" fill="#F39494"/>
<path opacity="0.15" d="M548.193 333.812C547.599 333.123 546.823 332.616 545.953 332.349L536.566 329.422L546.298 331.574C547.242 331.827 548.066 332.407 548.623 333.21L548.968 333.812H548.193Z" fill="black"/>
<path opacity="0.15" d="M554.479 345.52C551.982 346.122 544.747 338.203 543.111 336.223C542.856 335.919 542.53 335.682 542.163 335.534L530.709 332.521C529.417 332.263 521.924 333.898 520.805 336.309C520.744 336.59 520.744 336.881 520.804 337.163C520.863 337.445 520.98 337.711 521.149 337.944C523.044 335.878 529.331 334.501 530.537 334.759C531.742 335.017 542.422 337.428 542.594 338.03C542.766 338.633 551.551 348.447 554.307 347.758C554.604 347.681 554.879 347.536 555.111 347.334C555.342 347.132 555.524 346.88 555.64 346.596C555.757 346.312 555.806 346.004 555.785 345.698C555.763 345.392 555.67 345.095 555.513 344.831C555.266 345.181 554.897 345.427 554.479 345.52Z" fill="black"/>
<path opacity="0.15" d="M529.245 349.307C525.886 348.791 519.599 346.208 516.757 344.401C513.915 342.593 510.384 339.838 507.025 338.805C501.942 337.653 496.728 337.189 491.522 337.428L486.01 342.335C492.186 342.056 498.375 342.229 504.527 342.851C507.197 343.195 513.312 344.573 516.585 346.639C519.857 348.705 525.714 351.029 529.159 351.546C529.498 351.572 529.835 351.473 530.105 351.267C530.376 351.06 530.56 350.76 530.623 350.426C530.753 349.773 530.753 349.1 530.623 348.447C530.542 348.736 530.355 348.985 530.1 349.144C529.845 349.303 529.54 349.362 529.245 349.307Z" fill="black"/>
<path d="M500.91 320.384L438.469 305.922L410.909 334.33L497.034 343.368L500.91 320.384Z" fill="#4D61FC"/>
<path d="M500.91 320.384L438.469 305.922L410.909 334.33L497.034 343.368L500.91 320.384Z" fill="#7C8EC8"/>
<path d="M438.469 305.922L428.995 233.612C426.411 219.839 416.938 217.256 409.272 213.899L399.971 210.456L410.909 334.33L438.469 305.922Z" fill="#7C8EC8"/>
<path opacity="0.15" d="M421.933 323.225L421.761 240.929C420.986 236.797 420.986 230.513 414.268 226.898L401.005 221.647L410.909 334.588L491.867 342.335L492.9 336.396L425.981 326.84C425.476 326.875 424.97 326.809 424.491 326.645C424.012 326.481 423.571 326.222 423.194 325.886C422.817 325.549 422.511 325.139 422.294 324.682C422.078 324.225 421.955 323.729 421.933 323.225Z" fill="black"/>
<path d="M500.909 320.384L497.034 343.368L491.522 343.713L495.311 317.974L500.909 320.384Z" fill="#21252B"/>
<path d="M313.329 398.72L298.085 255.133C296.879 240.327 308.937 223.885 323.062 218.978L358.631 206.582L386.019 209.337L399.196 210.542C399.454 210.886 427.445 234.99 427.273 234.473L426.412 401.303L313.329 398.72Z" fill="#7C8EC8"/>
<path opacity="0.15" d="M373.79 220.355L379.905 255.908L377.751 220.269L373.79 220.355Z" fill="black"/>
<path d="M413.838 239.035L414.871 238.002C414.933 237.92 414.963 237.817 414.956 237.714C414.949 237.611 414.905 237.514 414.831 237.44C414.757 237.367 414.661 237.322 414.557 237.315C414.453 237.308 414.351 237.338 414.268 237.4L413.148 238.433L412.115 237.4C412.078 237.351 412.031 237.31 411.976 237.28C411.922 237.251 411.863 237.234 411.801 237.229C411.739 237.224 411.677 237.234 411.62 237.255C411.562 237.277 411.509 237.31 411.466 237.354C411.423 237.397 411.389 237.45 411.367 237.508C411.345 237.565 411.336 237.627 411.341 237.689C411.345 237.75 411.363 237.811 411.392 237.864C411.422 237.918 411.463 237.965 411.512 238.002L412.546 239.035L411.512 240.068C411.463 240.105 411.422 240.153 411.392 240.207C411.363 240.261 411.345 240.321 411.341 240.383C411.336 240.444 411.345 240.506 411.367 240.563C411.389 240.621 411.423 240.674 411.466 240.717C411.509 240.76 411.562 240.795 411.62 240.816C411.677 240.838 411.739 240.847 411.801 240.842C411.863 240.838 411.922 240.82 411.976 240.791C412.031 240.761 412.078 240.72 412.115 240.671L413.148 239.638L414.268 240.671C414.305 240.72 414.353 240.761 414.407 240.791C414.461 240.82 414.521 240.838 414.583 240.842C414.644 240.847 414.706 240.838 414.763 240.816C414.821 240.795 414.874 240.76 414.918 240.717C414.961 240.674 414.994 240.621 415.016 240.563C415.037 240.506 415.047 240.444 415.042 240.383C415.038 240.321 415.02 240.261 414.991 240.207C414.961 240.153 414.92 240.105 414.871 240.068L413.838 239.035Z" fill="white"/>
<path d="M386.449 268.992L387.827 268.476C387.942 268.43 388.033 268.342 388.081 268.228C388.13 268.115 388.131 267.988 388.086 267.873C388.04 267.76 387.951 267.668 387.838 267.619C387.725 267.571 387.597 267.569 387.483 267.615L386.191 268.218L385.588 266.84C385.582 266.784 385.561 266.729 385.529 266.682C385.495 266.635 385.451 266.597 385.4 266.571C385.349 266.546 385.292 266.533 385.234 266.535C385.177 266.537 385.121 266.553 385.071 266.582C385.012 266.601 384.957 266.632 384.91 266.673C384.865 266.716 384.828 266.766 384.803 266.824C384.778 266.881 384.766 266.943 384.768 267.006C384.77 267.068 384.785 267.129 384.813 267.185L385.33 268.476L383.952 269.078C383.779 269.165 383.607 269.423 383.693 269.595C383.779 269.767 384.038 269.939 384.296 269.853L385.674 269.337L386.191 270.714C386.246 270.82 386.336 270.904 386.446 270.951C386.556 270.998 386.679 271.006 386.794 270.972C386.9 270.917 386.984 270.828 387.031 270.717C387.078 270.607 387.086 270.485 387.052 270.37L386.449 268.992Z" fill="white"/>
<path d="M332.966 229.308L334.258 228.792C334.516 228.619 334.602 228.447 334.516 228.189C334.51 228.132 334.489 228.077 334.457 228.031C334.423 227.983 334.379 227.945 334.328 227.92C334.277 227.894 334.22 227.882 334.162 227.883C334.105 227.885 334.049 227.901 333.999 227.931L332.621 228.533L332.018 227.156C332.018 227.088 332.002 227.021 331.971 226.96C331.94 226.899 331.895 226.847 331.84 226.806C331.784 226.767 331.72 226.741 331.653 226.731C331.585 226.72 331.516 226.726 331.452 226.748C331.387 226.769 331.329 226.806 331.28 226.855C331.233 226.903 331.198 226.962 331.177 227.028C331.156 227.093 331.152 227.162 331.163 227.229C331.175 227.296 331.203 227.36 331.243 227.414L331.76 228.792L330.382 229.394C330.299 229.448 330.236 229.528 330.204 229.621C330.173 229.716 330.175 229.818 330.21 229.911C330.217 229.967 330.237 230.023 330.27 230.069C330.303 230.116 330.347 230.154 330.398 230.18C330.449 230.206 330.506 230.218 330.564 230.216C330.622 230.215 330.678 230.198 330.727 230.169L332.105 229.652L332.621 231.03C332.689 231.12 332.785 231.186 332.893 231.217C333.003 231.248 333.119 231.243 333.224 231.202C333.281 231.196 333.336 231.175 333.383 231.142C333.43 231.109 333.468 231.065 333.494 231.013C333.52 230.963 333.532 230.906 333.53 230.848C333.528 230.79 333.512 230.734 333.483 230.685L332.966 229.308Z" fill="white"/>
<path d="M422.106 272.694L423.484 272.178C423.575 272.11 423.64 272.014 423.671 271.905C423.703 271.796 423.697 271.68 423.656 271.575C423.57 271.403 423.311 271.231 423.139 271.317L421.761 271.919L421.244 270.542C421.189 270.436 421.1 270.352 420.989 270.305C420.879 270.258 420.757 270.25 420.642 270.284C420.582 270.302 420.527 270.334 420.48 270.375C420.435 270.417 420.398 270.468 420.373 270.526C420.349 270.582 420.337 270.644 420.338 270.707C420.34 270.769 420.356 270.83 420.383 270.886L420.9 272.264L419.608 272.78C419.549 272.798 419.493 272.83 419.447 272.871C419.401 272.914 419.364 272.964 419.339 273.022C419.315 273.079 419.303 273.141 419.305 273.204C419.307 273.266 419.322 273.327 419.35 273.383C419.436 273.555 419.694 273.727 419.866 273.555L421.244 273.038L421.847 274.416C421.854 274.473 421.875 274.527 421.908 274.574C421.94 274.621 421.984 274.659 422.036 274.685C422.087 274.711 422.144 274.723 422.201 274.721C422.259 274.72 422.315 274.703 422.364 274.674C422.423 274.656 422.479 274.624 422.525 274.583C422.572 274.541 422.608 274.49 422.633 274.432C422.657 274.375 422.669 274.313 422.667 274.25C422.665 274.188 422.65 274.127 422.622 274.071L422.106 272.694Z" fill="white"/>
<path d="M378.009 305.664L379.387 305.061C379.56 304.975 379.732 304.717 379.646 304.545C379.628 304.485 379.597 304.43 379.554 304.384C379.513 304.338 379.461 304.301 379.404 304.276C379.347 304.252 379.285 304.24 379.223 304.242C379.16 304.244 379.099 304.259 379.043 304.287L377.665 304.803L377.148 303.426C377.13 303.366 377.099 303.311 377.057 303.265C377.015 303.219 376.964 303.182 376.907 303.157C376.849 303.133 376.787 303.121 376.725 303.123C376.662 303.124 376.601 303.14 376.545 303.168C376.439 303.223 376.356 303.313 376.308 303.422C376.261 303.533 376.253 303.656 376.287 303.77L376.89 305.147L375.512 305.664C375.439 305.718 375.386 305.794 375.359 305.88C375.333 305.966 375.333 306.059 375.362 306.144C375.39 306.23 375.445 306.304 375.519 306.358C375.592 306.41 375.68 306.439 375.77 306.439L377.148 305.922L377.751 307.3C377.758 307.356 377.778 307.411 377.811 307.458C377.844 307.505 377.888 307.543 377.94 307.569C377.99 307.595 378.048 307.607 378.105 307.605C378.163 307.603 378.219 307.587 378.268 307.558C378.327 307.54 378.382 307.509 378.429 307.467C378.475 307.425 378.511 307.374 378.536 307.316C378.56 307.259 378.573 307.197 378.571 307.135C378.569 307.072 378.554 307.011 378.526 306.955L378.009 305.664Z" fill="white"/>
<path d="M372.756 286.984L374.134 286.381C374.192 286.374 374.246 286.354 374.293 286.321C374.34 286.288 374.378 286.244 374.404 286.193C374.429 286.141 374.442 286.084 374.44 286.027C374.438 285.97 374.422 285.914 374.392 285.865C374.374 285.804 374.343 285.75 374.301 285.704C374.26 285.657 374.208 285.62 374.151 285.596C374.094 285.571 374.032 285.56 373.97 285.562C373.907 285.563 373.846 285.578 373.79 285.606L372.411 286.123L371.895 284.746C371.828 284.654 371.732 284.588 371.623 284.557C371.514 284.526 371.398 284.532 371.292 284.573C371.12 284.66 370.947 284.918 371.12 285.09L371.636 286.467L370.258 287.07C370.201 287.076 370.147 287.097 370.1 287.129C370.053 287.162 370.015 287.207 369.99 287.258C369.964 287.309 369.951 287.366 369.953 287.423C369.955 287.481 369.972 287.536 370 287.586C370.019 287.646 370.05 287.7 370.091 287.747C370.133 287.793 370.184 287.83 370.242 287.854C370.3 287.879 370.362 287.891 370.424 287.889C370.486 287.888 370.547 287.872 370.603 287.845L371.981 287.328L372.498 288.619C372.517 288.679 372.548 288.733 372.589 288.78C372.631 288.826 372.682 288.863 372.74 288.887C372.797 288.912 372.859 288.924 372.921 288.922C372.983 288.92 373.044 288.905 373.1 288.878C373.273 288.792 373.445 288.533 373.359 288.361L372.756 286.984Z" fill="white"/>
<path d="M399.024 302.221L400.402 301.704C400.455 301.677 400.5 301.64 400.538 301.594C400.575 301.549 400.603 301.497 400.619 301.44C400.635 301.383 400.639 301.324 400.632 301.266C400.624 301.208 400.604 301.151 400.574 301.102C400.568 301.045 400.548 300.99 400.515 300.943C400.482 300.896 400.437 300.858 400.386 300.832C400.335 300.806 400.278 300.794 400.22 300.796C400.163 300.798 400.107 300.814 400.058 300.843L398.68 301.446L398.163 300.069C398.14 300.012 398.107 299.96 398.065 299.917C398.022 299.873 397.971 299.839 397.915 299.815C397.859 299.79 397.799 299.778 397.738 299.777C397.677 299.776 397.617 299.788 397.56 299.81C397.504 299.833 397.452 299.866 397.408 299.908C397.365 299.951 397.33 300.002 397.306 300.058C397.283 300.114 397.27 300.174 397.269 300.235C397.268 300.296 397.279 300.356 397.302 300.413L397.904 301.704L396.526 302.307C396.467 302.325 396.412 302.356 396.366 302.398C396.32 302.439 396.283 302.491 396.259 302.549C396.234 302.605 396.222 302.667 396.223 302.729C396.225 302.792 396.241 302.853 396.268 302.909C396.321 302.993 396.402 303.056 396.496 303.087C396.59 303.118 396.693 303.117 396.785 303.081L398.163 302.565L398.766 303.942C398.852 304.114 399.11 304.287 399.282 304.201C399.343 304.182 399.397 304.151 399.443 304.109C399.49 304.067 399.527 304.016 399.551 303.959C399.576 303.902 399.587 303.84 399.586 303.777C399.584 303.715 399.569 303.654 399.541 303.598L399.024 302.221Z" fill="white"/>
<path d="M351.741 263.483L353.119 262.967C353.233 262.921 353.325 262.831 353.373 262.719C353.421 262.606 353.423 262.478 353.377 262.364C353.332 262.25 353.242 262.158 353.129 262.11C353.016 262.062 352.889 262.06 352.774 262.106L351.396 262.708L350.88 261.331C350.862 261.272 350.83 261.217 350.788 261.17C350.746 261.124 350.695 261.087 350.638 261.062C350.581 261.038 350.519 261.026 350.456 261.028C350.394 261.03 350.333 261.045 350.277 261.073C350.186 261.14 350.12 261.236 350.089 261.345C350.058 261.453 350.063 261.57 350.105 261.675L350.621 262.967L349.243 263.569C349.137 263.624 349.053 263.714 349.006 263.824C348.959 263.934 348.951 264.056 348.985 264.172C349.053 264.262 349.149 264.328 349.257 264.359C349.366 264.39 349.483 264.385 349.588 264.344L350.966 263.827L351.482 265.205C351.528 265.318 351.618 265.411 351.731 265.459C351.843 265.507 351.971 265.509 352.085 265.463C352.2 265.417 352.291 265.328 352.339 265.215C352.388 265.102 352.389 264.974 352.344 264.86L351.741 263.483Z" fill="white"/>
<path d="M313.674 309.796L315.052 309.193C315.108 309.187 315.163 309.167 315.21 309.133C315.257 309.1 315.295 309.056 315.321 309.005C315.347 308.954 315.359 308.897 315.357 308.84C315.356 308.782 315.339 308.726 315.31 308.677C315.292 308.617 315.26 308.562 315.219 308.516C315.177 308.469 315.126 308.433 315.068 308.408C315.011 308.384 314.949 308.372 314.886 308.374C314.824 308.376 314.763 308.391 314.707 308.419L313.415 308.935L312.812 307.644C312.812 307.576 312.796 307.509 312.765 307.448C312.734 307.387 312.689 307.335 312.633 307.294C312.578 307.255 312.514 307.229 312.447 307.219C312.379 307.208 312.31 307.214 312.246 307.236C312.181 307.257 312.123 307.293 312.074 307.343C312.027 307.391 311.991 307.45 311.971 307.516C311.95 307.58 311.946 307.65 311.957 307.717C311.969 307.784 311.997 307.848 312.037 307.902L312.554 309.279L311.176 309.882C311.004 309.968 310.832 310.226 310.918 310.399C311.004 310.571 311.262 310.743 311.521 310.657L312.898 310.14L313.415 311.518C313.483 311.608 313.579 311.674 313.687 311.705C313.797 311.736 313.913 311.731 314.018 311.69C314.075 311.683 314.13 311.663 314.177 311.63C314.224 311.597 314.262 311.553 314.288 311.501C314.313 311.451 314.326 311.394 314.324 311.336C314.322 311.278 314.306 311.222 314.276 311.173L313.674 309.796Z" fill="white"/>
<path d="M316.602 333.899L317.98 333.383C318.039 333.364 318.095 333.333 318.141 333.292C318.188 333.249 318.224 333.198 318.249 333.141C318.273 333.083 318.285 333.021 318.283 332.959C318.281 332.897 318.266 332.835 318.238 332.78C318.183 332.673 318.094 332.59 317.983 332.543C317.873 332.496 317.751 332.488 317.636 332.522L316.344 333.125L315.741 331.747C315.735 331.69 315.714 331.635 315.682 331.588C315.648 331.541 315.604 331.504 315.553 331.478C315.501 331.452 315.445 331.439 315.387 331.442C315.33 331.443 315.274 331.46 315.224 331.489C315.165 331.507 315.11 331.538 315.063 331.58C315.018 331.622 314.98 331.673 314.956 331.73C314.931 331.788 314.919 331.85 314.921 331.912C314.923 331.975 314.938 332.036 314.966 332.092L315.483 333.469L314.105 333.985C313.999 334.04 313.915 334.13 313.868 334.24C313.82 334.35 313.813 334.473 313.846 334.588C314.018 334.76 314.191 334.932 314.449 334.846L315.827 334.244L316.344 335.621C316.389 335.735 316.479 335.826 316.592 335.875C316.705 335.923 316.833 335.925 316.947 335.879C317.061 335.834 317.152 335.744 317.201 335.631C317.249 335.518 317.251 335.39 317.205 335.277L316.602 333.899Z" fill="white"/>
<path d="M321.683 372.12L323.061 371.604C323.167 371.549 323.252 371.458 323.298 371.349C323.346 371.239 323.353 371.116 323.32 371.001C323.302 370.942 323.271 370.887 323.229 370.84C323.187 370.794 323.136 370.758 323.078 370.733C323.021 370.709 322.959 370.696 322.896 370.698C322.834 370.7 322.773 370.715 322.717 370.743L321.339 371.259L320.822 369.882C320.755 369.791 320.659 369.725 320.55 369.694C320.441 369.663 320.325 369.669 320.219 369.71C320.12 369.749 320.039 369.823 319.991 369.918C319.943 370.014 319.933 370.124 319.961 370.226L320.564 371.604L319.186 372.12C319.126 372.138 319.071 372.17 319.025 372.212C318.979 372.253 318.942 372.304 318.917 372.362C318.893 372.419 318.881 372.481 318.883 372.544C318.884 372.606 318.9 372.667 318.928 372.723C319.014 372.895 319.272 373.067 319.444 372.981L320.822 372.465L321.425 373.842C321.482 373.926 321.566 373.987 321.664 374.015C321.761 374.043 321.865 374.036 321.957 373.995C322.05 373.954 322.125 373.882 322.169 373.79C322.214 373.699 322.225 373.596 322.2 373.498L321.683 372.12Z" fill="white"/>
<path d="M338.736 365.234L340.114 364.717C340.174 364.699 340.229 364.667 340.275 364.626C340.322 364.584 340.358 364.533 340.383 364.475C340.407 364.418 340.419 364.356 340.417 364.294C340.416 364.232 340.4 364.17 340.373 364.115C340.346 364.062 340.308 364.016 340.262 363.979C340.218 363.941 340.165 363.915 340.108 363.898C340.052 363.882 339.993 363.878 339.934 363.886C339.877 363.893 339.821 363.912 339.77 363.942L338.392 364.459L337.875 363.082C337.857 363.022 337.825 362.967 337.784 362.921C337.742 362.874 337.691 362.838 337.633 362.813C337.576 362.789 337.514 362.777 337.451 362.779C337.389 362.78 337.328 362.796 337.272 362.823C337.181 362.891 337.115 362.987 337.084 363.095C337.053 363.205 337.059 363.321 337.1 363.426L337.617 364.803L336.239 365.32C336.124 365.365 336.033 365.455 335.985 365.568C335.936 365.68 335.935 365.808 335.98 365.922C336.026 366.037 336.116 366.128 336.228 366.176C336.341 366.224 336.469 366.226 336.583 366.18L337.961 365.578L338.478 366.955C338.5 367.012 338.534 367.063 338.577 367.107C338.619 367.151 338.67 367.185 338.726 367.209C338.782 367.233 338.842 367.246 338.903 367.246C338.964 367.247 339.024 367.236 339.081 367.213C339.138 367.191 339.188 367.158 339.232 367.114C339.276 367.072 339.311 367.022 339.335 366.966C339.359 366.91 339.372 366.849 339.372 366.789C339.373 366.728 339.362 366.668 339.339 366.611L338.736 365.234Z" fill="white"/>
<path d="M361.473 361.532L362.851 361.016C362.958 360.96 363.042 360.871 363.089 360.761C363.136 360.651 363.143 360.528 363.11 360.413C363.092 360.354 363.061 360.299 363.019 360.252C362.977 360.206 362.926 360.169 362.869 360.144C362.811 360.12 362.749 360.108 362.687 360.11C362.624 360.112 362.563 360.127 362.507 360.155L361.129 360.757L360.612 359.38C360.567 359.266 360.478 359.175 360.364 359.126C360.251 359.078 360.124 359.076 360.009 359.122C359.896 359.167 359.804 359.257 359.755 359.37C359.707 359.482 359.705 359.611 359.751 359.724L360.354 361.016L358.976 361.618C358.919 361.625 358.865 361.646 358.817 361.678C358.77 361.711 358.732 361.755 358.706 361.807C358.681 361.857 358.668 361.914 358.67 361.972C358.673 362.03 358.689 362.086 358.717 362.135C358.736 362.194 358.767 362.249 358.809 362.296C358.851 362.342 358.902 362.378 358.96 362.403C359.017 362.427 359.079 362.439 359.141 362.438C359.203 362.436 359.264 362.42 359.32 362.393L360.698 361.876L361.215 363.254C361.27 363.36 361.361 363.444 361.471 363.491C361.58 363.538 361.703 363.546 361.818 363.512C361.9 363.437 361.958 363.342 361.988 363.235C362.019 363.129 362.02 363.016 361.99 362.909L361.473 361.532Z" fill="white"/>
<path d="M350.105 384L351.483 383.483C351.597 383.438 351.689 383.348 351.737 383.235C351.785 383.123 351.787 382.994 351.741 382.881C351.696 382.766 351.607 382.675 351.493 382.627C351.38 382.579 351.253 382.577 351.138 382.622L349.76 383.225L349.244 381.848C349.226 381.788 349.194 381.733 349.152 381.687C349.111 381.64 349.059 381.604 349.002 381.579C348.945 381.555 348.883 381.543 348.82 381.545C348.758 381.546 348.697 381.562 348.641 381.589C348.535 381.644 348.45 381.734 348.404 381.844C348.356 381.954 348.349 382.077 348.382 382.192L348.985 383.483L347.607 384.086C347.55 384.092 347.496 384.112 347.449 384.145C347.401 384.179 347.363 384.223 347.338 384.273C347.312 384.325 347.3 384.382 347.301 384.44C347.303 384.496 347.32 384.552 347.349 384.602C347.368 384.662 347.399 384.717 347.44 384.763C347.482 384.809 347.533 384.846 347.591 384.871C347.648 384.895 347.71 384.907 347.773 384.905C347.835 384.904 347.896 384.888 347.952 384.861L349.33 384.344L349.846 385.721C349.902 385.827 349.992 385.911 350.101 385.958C350.212 386.005 350.335 386.013 350.449 385.98C350.622 385.807 350.794 385.549 350.622 385.377L350.105 384Z" fill="white"/>
<path d="M374.65 381.762L376.028 381.245C376.134 381.19 376.218 381.1 376.265 380.99C376.312 380.88 376.32 380.758 376.286 380.643C376.268 380.583 376.237 380.528 376.195 380.482C376.154 380.436 376.102 380.399 376.044 380.374C375.988 380.35 375.926 380.338 375.863 380.34C375.801 380.341 375.74 380.357 375.684 380.384L374.306 380.901L373.789 379.523C373.722 379.433 373.625 379.367 373.517 379.336C373.407 379.305 373.292 379.31 373.186 379.351C373.087 379.39 373.005 379.465 372.958 379.56C372.909 379.655 372.899 379.765 372.928 379.868L373.53 381.245L372.152 381.762C372.093 381.781 372.038 381.812 371.991 381.853C371.946 381.895 371.909 381.946 371.884 382.004C371.86 382.06 371.848 382.122 371.849 382.185C371.851 382.247 371.867 382.308 371.894 382.364C371.98 382.536 372.239 382.709 372.411 382.623L373.789 382.106L374.306 383.483C374.374 383.575 374.469 383.64 374.578 383.671C374.687 383.703 374.803 383.697 374.908 383.656C374.965 383.649 375.02 383.629 375.067 383.596C375.114 383.563 375.152 383.519 375.178 383.468C375.204 383.416 375.216 383.359 375.214 383.302C375.212 383.245 375.196 383.189 375.167 383.139L374.65 381.762Z" fill="white"/>
<path d="M399.885 384.344L401.263 383.742C401.347 383.689 401.41 383.608 401.441 383.514C401.472 383.42 401.471 383.318 401.435 383.225C401.429 383.168 401.409 383.114 401.376 383.067C401.342 383.019 401.298 382.981 401.248 382.956C401.196 382.931 401.139 382.918 401.081 382.919C401.025 382.922 400.969 382.937 400.919 382.967L399.541 383.483L398.938 382.106C398.884 382.022 398.804 381.96 398.71 381.928C398.616 381.897 398.514 381.899 398.421 381.934C398.364 381.941 398.31 381.961 398.262 381.994C398.215 382.027 398.177 382.071 398.151 382.122C398.126 382.173 398.114 382.23 398.115 382.288C398.117 382.345 398.133 382.401 398.163 382.45L398.679 383.828L397.387 384.43C397.315 384.484 397.262 384.56 397.235 384.646C397.208 384.732 397.209 384.825 397.238 384.91C397.266 384.997 397.321 385.071 397.394 385.124C397.468 385.177 397.555 385.205 397.646 385.205L399.024 384.688L399.627 385.98C399.681 386.052 399.757 386.105 399.843 386.132C399.929 386.16 400.022 386.159 400.107 386.129C400.193 386.101 400.268 386.047 400.321 385.974C400.373 385.9 400.402 385.812 400.402 385.721L399.885 384.344Z" fill="white"/>
<path d="M420.555 330.025L421.933 329.423C422.105 329.337 422.277 329.079 422.105 328.906C422.099 328.849 422.078 328.794 422.046 328.747C422.013 328.701 421.968 328.663 421.917 328.637C421.866 328.611 421.809 328.598 421.751 328.601C421.694 328.603 421.638 328.619 421.588 328.648L420.21 329.165L419.694 327.787C419.627 327.696 419.531 327.63 419.422 327.599C419.313 327.568 419.197 327.574 419.091 327.615C419.034 327.621 418.98 327.642 418.932 327.675C418.886 327.707 418.847 327.752 418.821 327.803C418.796 327.854 418.783 327.911 418.785 327.968C418.788 328.026 418.804 328.082 418.832 328.132L419.435 329.509L418.057 330.112C417.989 330.112 417.922 330.127 417.861 330.158C417.801 330.19 417.748 330.235 417.709 330.29C417.668 330.345 417.642 330.409 417.632 330.477C417.622 330.544 417.628 330.613 417.649 330.678C417.671 330.743 417.708 330.801 417.756 330.848C417.805 330.897 417.864 330.932 417.929 330.953C417.994 330.972 418.063 330.978 418.131 330.966C418.198 330.954 418.261 330.927 418.316 330.886L419.694 330.37L420.297 331.661C420.297 331.729 420.313 331.796 420.344 331.856C420.375 331.918 420.421 331.97 420.476 332.01C420.531 332.049 420.595 332.076 420.663 332.086C420.73 332.097 420.799 332.091 420.863 332.069C420.929 332.048 420.987 332.011 421.035 331.962C421.083 331.913 421.118 331.854 421.139 331.789C421.159 331.724 421.163 331.655 421.152 331.588C421.141 331.521 421.113 331.457 421.072 331.403L420.555 330.025Z" fill="white"/>
<path d="M395.234 320.901L396.612 320.384C396.669 320.362 396.721 320.328 396.764 320.285C396.808 320.243 396.842 320.192 396.866 320.136C396.891 320.08 396.903 320.02 396.903 319.96C396.904 319.899 396.893 319.838 396.871 319.782C396.848 319.725 396.815 319.674 396.772 319.63C396.73 319.586 396.679 319.552 396.623 319.528C396.567 319.504 396.506 319.491 396.446 319.491C396.385 319.49 396.325 319.501 396.268 319.523L394.89 320.126L394.373 318.749C394.327 318.634 394.238 318.543 394.125 318.495C394.012 318.446 393.885 318.445 393.77 318.49C393.656 318.536 393.564 318.625 393.516 318.738C393.468 318.851 393.466 318.978 393.512 319.093L394.115 320.47L392.737 320.987C392.677 321.005 392.622 321.037 392.576 321.078C392.529 321.12 392.493 321.171 392.468 321.229C392.444 321.285 392.432 321.347 392.434 321.41C392.435 321.472 392.451 321.533 392.478 321.589C392.533 321.695 392.624 321.78 392.733 321.826C392.843 321.873 392.967 321.881 393.081 321.848L394.373 321.245L394.976 322.622C394.994 322.682 395.026 322.737 395.067 322.783C395.109 322.83 395.16 322.866 395.218 322.891C395.275 322.915 395.337 322.927 395.4 322.925C395.462 322.924 395.523 322.908 395.579 322.881C395.669 322.813 395.736 322.717 395.767 322.609C395.798 322.499 395.792 322.383 395.751 322.278L395.234 320.901Z" fill="white"/>
<path d="M415.129 339.667L416.507 339.064C416.68 338.978 416.852 338.72 416.766 338.548C416.748 338.488 416.716 338.433 416.674 338.387C416.633 338.34 416.581 338.304 416.524 338.279C416.467 338.254 416.405 338.243 416.342 338.245C416.28 338.247 416.219 338.262 416.163 338.29L414.785 338.806L414.268 337.429C414.201 337.337 414.105 337.272 413.996 337.24C413.887 337.209 413.771 337.215 413.665 337.257C413.493 337.343 413.321 337.601 413.407 337.773L414.01 339.15L412.632 339.753C412.575 339.759 412.521 339.78 412.473 339.812C412.426 339.845 412.388 339.89 412.362 339.941C412.336 339.992 412.324 340.049 412.326 340.107C412.328 340.164 412.344 340.22 412.373 340.269C412.392 340.329 412.423 340.384 412.465 340.43C412.507 340.476 412.558 340.513 412.615 340.537C412.672 340.562 412.734 340.574 412.797 340.572C412.859 340.571 412.92 340.555 412.976 340.528L414.354 340.011L414.871 341.302C414.889 341.362 414.921 341.417 414.962 341.463C415.005 341.509 415.055 341.546 415.113 341.57C415.17 341.595 415.232 341.607 415.295 341.605C415.357 341.604 415.418 341.588 415.474 341.561C415.557 341.507 415.621 341.427 415.652 341.333C415.683 341.239 415.681 341.136 415.646 341.044L415.129 339.667Z" fill="white"/>
<path d="M363.454 302.651L364.832 302.135C364.892 302.116 364.947 302.085 364.993 302.043C365.04 302.001 365.076 301.95 365.101 301.893C365.125 301.836 365.137 301.774 365.135 301.711C365.134 301.649 365.118 301.588 365.091 301.532C365.036 301.426 364.946 301.342 364.836 301.295C364.726 301.248 364.602 301.24 364.488 301.274L363.11 301.876L362.593 300.499C362.575 300.44 362.544 300.384 362.502 300.338C362.46 300.291 362.409 300.255 362.351 300.23C362.294 300.206 362.232 300.194 362.17 300.196C362.107 300.198 362.046 300.213 361.99 300.241C361.884 300.296 361.801 300.385 361.753 300.495C361.706 300.606 361.698 300.728 361.732 300.843L362.335 302.221L360.957 302.737C360.897 302.755 360.842 302.786 360.796 302.828C360.75 302.87 360.713 302.921 360.688 302.978C360.664 303.036 360.652 303.098 360.653 303.16C360.655 303.223 360.671 303.284 360.698 303.34C360.753 303.446 360.844 303.529 360.953 303.576C361.063 303.624 361.187 303.632 361.301 303.598L362.679 302.995L363.196 304.373C363.215 304.432 363.246 304.487 363.287 304.534C363.329 304.579 363.38 304.616 363.438 304.641C363.495 304.665 363.557 304.677 363.62 304.676C363.682 304.674 363.743 304.659 363.799 304.631C363.851 304.603 363.897 304.566 363.934 304.521C363.972 304.476 363.999 304.424 364.015 304.367C364.031 304.31 364.036 304.251 364.028 304.193C364.021 304.134 364.001 304.078 363.971 304.028L363.454 302.651Z" fill="white"/>
<path d="M392.306 245.233L393.77 244.631C393.893 244.591 393.995 244.507 394.059 244.396C394.123 244.285 394.142 244.153 394.115 244.028C394.045 243.915 393.939 243.829 393.814 243.782C393.69 243.735 393.553 243.73 393.426 243.77L391.962 244.373L391.359 242.823C391.304 242.716 391.214 242.633 391.104 242.586C390.994 242.539 390.871 242.531 390.756 242.565C390.643 242.635 390.556 242.74 390.51 242.865C390.463 242.989 390.459 243.126 390.498 243.254L391.101 244.717L389.55 245.32C389.444 245.375 389.361 245.464 389.313 245.574C389.266 245.684 389.259 245.807 389.292 245.922C389.32 245.984 389.36 246.041 389.41 246.087C389.46 246.135 389.518 246.171 389.583 246.195C389.647 246.219 389.715 246.23 389.784 246.228C389.852 246.225 389.919 246.209 389.981 246.18L391.445 245.578L392.048 247.127C392.103 247.233 392.193 247.317 392.304 247.364C392.413 247.411 392.536 247.418 392.651 247.385C392.714 247.357 392.77 247.317 392.817 247.268C392.863 247.218 392.9 247.159 392.925 247.095C392.948 247.031 392.959 246.963 392.957 246.894C392.954 246.826 392.938 246.759 392.909 246.697L392.306 245.233Z" fill="white"/>
<path opacity="0.15" d="M419.522 393.727L428.134 336.912L426.412 393.727H419.522Z" fill="black"/>
<path d="M449.58 352.062L463.876 352.32C464.604 352.328 465.316 352.533 465.938 352.911C466.559 353.29 467.067 353.829 467.407 354.472L469.044 357.313L462.412 358.949L449.58 352.062Z" fill="#F39494"/>
<path d="M487.656 369.42L468.364 356.507C466.693 355.463 464.86 354.707 462.938 354.269C462.938 354.269 443.905 350.74 443.646 350.568L416 338L417.55 366.063L430.211 370.539L472.929 384.915C473.33 385.096 473.787 385.117 474.203 384.973C474.619 384.829 474.965 384.531 475.168 384.14C475.276 383.953 475.346 383.748 475.374 383.534C475.402 383.321 475.388 383.104 475.332 382.895C475.276 382.688 475.179 382.492 475.047 382.322C474.916 382.152 474.752 382.009 474.565 381.902L460.01 373.81L476.89 383.107C477.114 383.241 477.363 383.328 477.623 383.362C477.881 383.395 478.144 383.375 478.395 383.302C478.646 383.229 478.878 383.105 479.079 382.939C479.28 382.772 479.443 382.566 479.56 382.332C479.772 381.938 479.86 381.49 479.814 381.045C479.768 380.599 479.59 380.179 479.302 379.836L480.766 380.955C481.186 381.249 481.701 381.378 482.21 381.314C482.72 381.25 483.188 381 483.522 380.611C483.701 380.414 483.84 380.185 483.929 379.934C484.017 379.684 484.054 379.418 484.039 379.153C484.022 378.888 483.954 378.629 483.835 378.391C483.717 378.154 483.551 377.942 483.35 377.77L466.642 362.533L485.675 372.777C485.896 372.898 486.138 372.973 486.387 372.999C486.636 373.025 486.889 373.002 487.129 372.929C487.369 372.857 487.593 372.738 487.787 372.579C487.982 372.42 488.142 372.224 488.259 372.002C488.516 371.578 488.598 371.071 488.485 370.588C488.373 370.105 488.075 369.685 487.656 369.42Z" fill="#F39494"/>
<g opacity="0.15">
<path opacity="0.15" d="M478.517 379.695C478.645 379.721 478.777 379.711 478.899 379.665C479.021 379.62 479.127 379.541 479.206 379.436C479.307 379.288 479.345 379.105 479.313 378.928C479.281 378.751 479.181 378.594 479.033 378.49L464.134 367.987C463.789 367.815 463.359 367.815 463.187 368.16C463.087 368.308 463.048 368.491 463.08 368.668C463.112 368.845 463.212 369.002 463.359 369.107L478.344 379.609L478.517 379.695Z" fill="black"/>
</g>
<g opacity="0.15">
<path opacity="0.15" d="M474.039 381.847C474.188 381.884 474.346 381.87 474.486 381.808C474.627 381.745 474.742 381.638 474.814 381.502C474.861 381.423 474.89 381.336 474.902 381.245C474.914 381.155 474.907 381.063 474.883 380.975C474.86 380.887 474.819 380.804 474.762 380.732C474.706 380.661 474.636 380.6 474.556 380.556L460.087 372.464C459.923 372.391 459.74 372.377 459.567 372.423C459.394 372.471 459.244 372.576 459.139 372.722C459.094 372.8 459.064 372.888 459.052 372.979C459.04 373.069 459.046 373.161 459.071 373.25C459.095 373.338 459.136 373.42 459.192 373.492C459.248 373.564 459.319 373.624 459.398 373.669L473.867 381.675L474.039 381.847Z" fill="black"/>
</g>
<path opacity="0.15" d="M474.986 383.31L435.799 368.934L418.66 365.319V367.04L431.579 371.345L472.747 385.204C473.608 385.635 475.417 384.86 474.986 383.31Z" fill="black"/>
<path opacity="0.15" d="M337.186 325.548L298.774 255.476L298.085 255.132C298.085 255.907 298.947 257.026 299.291 257.715C302.392 265.118 320.564 307.815 330.899 326.667C335.291 334.673 338.564 339.236 343.904 342.937C346.812 344.971 350.004 346.566 353.378 347.672L427.273 373.066V369.623L352.516 340.527C349.046 339.258 345.884 337.266 343.242 334.683C340.599 332.102 338.535 328.987 337.186 325.548Z" fill="black"/>
<path d="M368.708 311.689L340.373 257.973L298.085 255.132L339.339 329.164C342.181 335.878 351.914 339.236 358.717 341.732L424.775 369.02L425.637 341.818L368.708 311.689Z" fill="#7C8EC8"/>
<path opacity="0.15" d="M372.842 311.603L341.234 258.834L368.363 311.947L426.497 342.679L372.842 311.603Z" fill="black"/>
<path d="M429.253 343.454L424.689 369.709L417.885 367.213L423.225 340.096L429.253 343.454Z" fill="#21252B"/>
<path d="M352.43 171.029L349.416 151.574C347.607 141.502 358.028 136.165 364.315 136.165H386.105C392.823 136.165 400.746 141.416 397.387 152.779L395.407 169.996L352.43 171.029Z" fill="#1A1A1A"/>
<path opacity="0.2" d="M403.502 216.653C401.435 219.235 396.096 225.864 392.823 229.307C391.187 231.029 388.258 230.943 386.277 229.049L380.679 223.712C378.268 221.387 374.392 221.646 373.014 224.314L368.966 231.717C367.847 233.956 364.746 234.73 362.076 233.353L340.545 220.871C339.259 220.105 338.122 219.113 337.186 217.944C336.842 220.096 338.22 222.334 340.545 223.453L362.076 235.849C364.746 237.141 367.847 236.366 369.052 234.128L373.014 226.639C374.478 223.97 378.354 223.712 380.765 226.036L386.364 231.373C388.258 233.181 391.273 233.267 392.909 231.545C396.096 228.016 401.78 221.043 403.933 218.461C404.45 217.686 404.88 216.309 404.278 215.534L403.502 216.653Z" fill="#231F20"/>
<path d="M351.053 203.224L342.957 206.237C342.009 206.581 338.565 207.786 338.306 209.852L337.703 213.898C337.359 216.05 337.187 219.666 337.187 219.666L362.077 234.214C364.746 235.505 367.847 234.73 369.053 232.492L373.014 225.089C374.392 222.42 378.354 222.162 380.766 224.486L386.278 229.824C388.259 231.717 391.187 231.804 392.823 230.082C396.096 226.552 404.45 215.792 404.45 215.792C404.45 215.792 398.594 206.581 395.493 204.859L383.263 201.502C373.273 198.661 361.99 199.178 351.053 203.224Z" fill="#21252B"/>
<path d="M391.014 162.506C391.014 162.506 355.531 140.211 354.325 167.413L353.808 174.558L351.311 210.111C351.311 211.402 360.784 217.772 360.784 217.772C363.313 219.245 366.111 220.196 369.014 220.569C371.917 220.941 374.865 220.728 377.684 219.941C380.503 219.154 383.135 217.811 385.425 215.989C387.715 214.167 389.616 211.904 391.014 209.336C391.18 209.102 391.297 208.839 391.359 208.561L388.861 188.676C389.362 186.588 389.622 184.452 389.636 182.306C389.981 171.89 391.014 162.506 391.014 162.506Z" fill="#FC9D9D"/>
<path d="M394.976 143.139C394.976 143.139 407.464 195.994 380.507 199.523C356.995 202.622 354.411 166.123 354.411 166.123L355.359 142.45L394.976 143.139Z" fill="#FC9D9D"/>
<path opacity="0.15" d="M353.549 176.108C353.549 176.108 355.875 176.28 357.081 175.247L353.291 181.1L353.549 176.108Z" fill="black"/>
<path d="M354.928 161.99C354.928 161.99 353.205 156.997 348.038 159.321C342.87 161.646 343.215 175.419 353.291 176.108C358.545 176.538 357.512 173.525 356.65 169.479L354.928 161.99Z" fill="#FC9D9D"/>
<path opacity="0.3" d="M347.607 163.023C348.005 162.711 348.461 162.482 348.95 162.349C349.438 162.216 349.948 162.181 350.449 162.248C351.396 162.543 352.216 163.15 352.774 163.97C353.36 165.154 353.712 166.44 353.808 167.758L353.98 168.963C353.98 169.393 353.808 169.651 353.463 169.651C353.119 169.651 352.774 169.479 352.774 169.135L352.602 167.93C352.538 166.863 352.212 165.829 351.655 164.917C351.138 164.228 350.707 163.712 350.277 163.712C349.931 163.619 349.565 163.617 349.218 163.708C348.87 163.799 348.553 163.978 348.296 164.228C347.951 164.314 347.607 164.314 347.435 163.97C347.262 163.626 347.435 163.109 347.607 163.023Z" fill="black"/>
<path opacity="0.15" d="M390.67 203.74L389.808 195.218C387.483 197.542 381.024 200.9 373.703 199.264C370.043 198.277 366.749 196.242 364.229 193.41C364.116 193.332 363.98 193.291 363.842 193.291C363.704 193.291 363.569 193.332 363.454 193.41C363.37 193.505 363.323 193.627 363.323 193.755C363.323 193.881 363.37 194.004 363.454 194.099C366.707 197.769 371.168 200.151 376.028 200.814C378.15 202.254 380.539 203.254 383.053 203.757C385.568 204.259 388.157 204.254 390.67 203.74Z" fill="black"/>
<g opacity="0.3">
<path opacity="0.3" d="M382.402 188.848L379.043 189.192C378.872 189.161 378.715 189.078 378.592 188.955C378.469 188.832 378.386 188.675 378.354 188.504C378.37 188.318 378.444 188.141 378.569 188.001C378.693 187.861 378.86 187.766 379.043 187.729L382.23 187.471C382.323 187.456 382.42 187.464 382.509 187.493C382.6 187.522 382.683 187.573 382.75 187.64C382.817 187.707 382.867 187.789 382.896 187.88C382.925 187.97 382.933 188.066 382.919 188.159C383.091 188.245 382.746 188.676 382.402 188.848Z" fill="black"/>
</g>
<g opacity="0.3">
<path opacity="0.3" d="M383.521 185.663C377.579 186.524 374.909 183.425 374.047 181.789C373.972 181.648 373.947 181.485 373.978 181.328C374.01 181.171 374.096 181.029 374.22 180.928C374.376 180.859 374.551 180.839 374.72 180.87C374.889 180.901 375.044 180.981 375.167 181.1C376.028 182.736 378.957 186.007 386.019 183.683C386.103 183.64 386.196 183.615 386.289 183.609C386.384 183.603 386.479 183.617 386.568 183.649C386.656 183.681 386.738 183.732 386.806 183.797C386.875 183.862 386.929 183.94 386.966 184.027C387.139 184.458 386.966 184.716 386.622 184.974C386.277 185.232 384.555 185.405 383.521 185.663Z" fill="black"/>
</g>
<path d="M374.048 169.997C375.237 169.997 376.201 169.032 376.201 167.845C376.201 166.656 375.237 165.692 374.048 165.692C372.858 165.692 371.895 166.656 371.895 167.845C371.895 169.032 372.858 169.997 374.048 169.997Z" fill="#21252B"/>
<path d="M374.909 167.671C375.195 167.671 375.426 167.441 375.426 167.155C375.426 166.87 375.195 166.638 374.909 166.638C374.624 166.638 374.392 166.87 374.392 167.155C374.392 167.441 374.624 167.671 374.909 167.671Z" fill="white"/>
<path d="M390.67 171.029C391.859 171.029 392.823 170.065 392.823 168.877C392.823 167.688 391.859 166.725 390.67 166.725C389.48 166.725 388.517 167.688 388.517 168.877C388.517 170.065 389.48 171.029 390.67 171.029Z" fill="#21252B"/>
<path d="M391.617 168.704C391.902 168.704 392.134 168.473 392.134 168.187C392.134 167.902 391.902 167.671 391.617 167.671C391.332 167.671 391.1 167.902 391.1 168.187C391.1 168.473 391.332 168.704 391.617 168.704Z" fill="white"/>
<g opacity="0.3">
<path opacity="0.3" d="M385.244 180.24L382.401 180.499C381.971 180.499 381.712 180.24 381.712 179.982C381.712 179.724 381.885 179.294 382.229 179.294L385.071 179.035C385.241 179.024 385.407 178.979 385.56 178.904C385.712 178.83 385.848 178.725 385.961 178.596C386.073 178.469 386.158 178.32 386.213 178.159C386.267 177.997 386.289 177.828 386.277 177.658C386.234 177.308 386.058 176.987 385.785 176.764C385.513 176.539 385.165 176.428 384.813 176.453C384.469 176.453 384.124 176.281 384.124 175.936C384.124 175.592 384.296 175.248 384.641 175.248C385.322 175.198 385.996 175.411 386.525 175.843C387.054 176.275 387.397 176.894 387.483 177.572C387.518 177.895 387.488 178.223 387.394 178.533C387.3 178.845 387.143 179.134 386.933 179.384C386.724 179.634 386.467 179.838 386.176 179.985C385.886 180.132 385.568 180.219 385.244 180.24Z" fill="black"/>
</g>
<path d="M398.593 127.384C390.928 121.961 375.684 125.749 367.416 129.537C367.588 127.126 366.038 127.384 366.038 127.384C351.483 131.258 355.273 142.793 355.273 142.793H355.445C353.894 146.065 351.914 153.123 353.808 165.864C353.808 165.864 359.062 155.276 359.148 147.011C365.608 149.938 384.211 154.07 395.837 150.197C396.957 157.169 397.732 165.864 397.732 165.864C398.736 159.848 398.706 153.706 397.646 147.7C398.366 147.198 399.03 146.622 399.627 145.979C399.627 145.979 409.531 135.132 398.593 127.384Z" fill="#1A1A1A"/>
<path opacity="0.19" d="M402.382 168.274C402.382 170.083 401.845 171.851 400.838 173.353C399.831 174.855 398.4 176.025 396.726 176.713C395.054 177.401 393.213 177.576 391.44 177.217C389.667 176.858 388.041 175.98 386.768 174.696C385.494 173.411 384.632 171.777 384.289 170.001C383.946 168.226 384.14 166.388 384.844 164.722C385.548 163.057 386.732 161.638 388.244 160.645C389.757 159.653 391.53 159.133 393.339 159.149C395.745 159.172 398.046 160.144 399.739 161.852C401.432 163.561 402.383 165.869 402.382 168.274Z" fill="white"/>
<path opacity="0.19" d="M380.076 168.274C380.076 170.083 379.539 171.851 378.532 173.353C377.525 174.855 376.094 176.025 374.42 176.713C372.748 177.401 370.907 177.576 369.134 177.217C367.361 176.858 365.735 175.98 364.462 174.696C363.188 173.411 362.326 171.777 361.983 170.001C361.64 168.226 361.834 166.388 362.538 164.722C363.242 163.057 364.425 161.638 365.938 160.645C367.451 159.653 369.224 159.133 371.033 159.149C373.439 159.172 375.74 160.144 377.433 161.852C379.127 163.561 380.077 165.869 380.076 168.274Z" fill="white"/>
<path d="M380.076 168.274C380.076 170.083 379.539 171.851 378.532 173.353C377.525 174.855 376.094 176.025 374.42 176.713C372.748 177.401 370.907 177.576 369.134 177.217C367.361 176.858 365.735 175.98 364.462 174.696C363.188 173.411 362.326 171.777 361.983 170.001C361.64 168.226 361.834 166.388 362.538 164.722C363.242 163.057 364.425 161.638 365.938 160.645C367.451 159.653 369.224 159.133 371.033 159.149C373.439 159.172 375.74 160.144 377.433 161.852C379.127 163.561 380.077 165.869 380.076 168.274Z" stroke="#1A1A1A" stroke-width="0.428208" stroke-linecap="round" stroke-linejoin="round"/>
<path d="M402.382 168.274C402.382 170.083 401.845 171.851 400.838 173.353C399.831 174.855 398.4 176.025 396.726 176.713C395.054 177.401 393.213 177.576 391.44 177.217C389.667 176.858 388.041 175.98 386.768 174.696C385.494 173.411 384.632 171.777 384.289 170.001C383.946 168.226 384.14 166.388 384.844 164.722C385.548 163.057 386.732 161.638 388.244 160.645C389.757 159.653 391.53 159.133 393.339 159.149C395.745 159.172 398.046 160.144 399.739 161.852C401.432 163.561 402.383 165.869 402.382 168.274Z" stroke="#1A1A1A" stroke-width="0.428208" stroke-linecap="round" stroke-linejoin="round"/>
<path d="M380.077 168.274C380.077 168.274 382.23 166.294 384.211 168.274" stroke="#1A1A1A" stroke-width="0.428208" stroke-linecap="round" stroke-linejoin="round"/>
<path d="M361.904 168.275L353.981 165.262" stroke="#1A1A1A" stroke-width="0.428208" stroke-miterlimit="10"/>
<path d="M406.258 714.645H435.024L435.713 731.087C435.805 733.222 436.38 735.305 437.395 737.182C438.408 739.058 439.836 740.685 441.569 741.933L462.67 756.998L409.961 755.707L406.258 714.645Z" fill="#FB9C9C"/>
<path opacity="0.15" d="M417.627 748.906L410.048 752.005L437.608 738.92C436.099 734.995 435.395 730.811 435.541 726.61H407.378V730.312L424.603 731.173C426.412 731.345 427.015 734.186 426.843 736.08V736.424C426.602 739.153 425.615 741.761 423.989 743.956C422.364 746.16 420.163 747.873 417.627 748.906Z" fill="black"/>
<path d="M314.965 714.559L343.042 714.473L338.65 754.588H314.965V714.559Z" fill="#FB9C9C"/>
<path opacity="0.15" d="M338.564 754.415L341.751 726.524L315.052 726.352L315.483 729.796L332.536 732.464C333.314 732.542 334.037 732.903 334.574 733.471C335.112 734.039 335.427 734.78 335.464 735.563L336.067 747.959L338.564 754.415Z" fill="black"/>
<path d="M313.33 398.375L426.498 400.183L437.177 726.525H406.258L377.751 458.891C377.666 458.062 377.274 457.295 376.654 456.738C376.033 456.181 375.227 455.874 374.392 455.879C373.543 455.853 372.716 456.149 372.077 456.708C371.437 457.267 371.034 458.047 370.947 458.891L344.162 726.525H313.33V398.375Z" fill="#3F4249"/>
<path d="M312.641 719.811H345.971L345.368 726.525H312.469L312.641 719.811Z" fill="#3F4249"/>
<path opacity="0.15" d="M333.397 719.811H345.971L345.368 726.525L332.449 726.352L333.397 719.811Z" fill="black"/>
<path d="M404.795 719.811H437.78L438.125 726.525H405.484L404.795 719.811Z" fill="#3F4249"/>
<path opacity="0.15" d="M437.78 719.81L433.818 719.724L434.163 726.525H438.124L437.78 719.81Z" fill="black"/>
<path opacity="0.2" d="M333.397 719.81L355.617 470.168C356.651 461.99 363.885 455.878 372.411 455.878H374.651C373.794 455.874 372.966 456.189 372.329 456.763C371.691 457.336 371.292 458.125 371.206 458.977L344.679 719.81H333.397Z" fill="black"/>
<path d="M418.66 406.208L434.68 719.724H437.78L426.756 406.208H418.66Z" fill="#32353A"/>
<path d="M312.468 769.308H341.234C341.875 769.308 342.502 769.11 343.027 768.74C343.551 768.37 343.948 767.845 344.162 767.242C344.236 767.81 344.264 768.387 344.248 768.964V769.911C344.237 770.298 344.15 770.677 343.992 771.021C343.835 771.374 343.61 771.692 343.33 771.951C343.05 772.218 342.72 772.424 342.361 772.562C342.001 772.7 341.618 772.76 341.234 772.751H312.468C312.083 772.76 311.701 772.7 311.341 772.562C310.981 772.424 310.652 772.218 310.372 771.951C310.092 771.692 309.867 771.374 309.709 771.021C309.552 770.677 309.465 770.298 309.454 769.911V769.566C309.439 768.817 309.468 768.068 309.54 767.328C309.746 767.931 310.143 768.456 310.671 768.809C311.199 769.17 311.831 769.342 312.468 769.308Z" fill="black"/>
<path d="M316.688 738.834L317.377 738.146C320.121 735.58 323.749 734.177 327.505 734.22C331.262 734.272 334.853 735.77 337.53 738.404L337.875 738.834C339.207 740.16 339.979 741.951 340.028 743.827V746.84C339.983 748.562 340.245 750.284 340.803 751.919L343.3 760.097C343.922 762.043 344.241 764.074 344.248 766.123V767.156C344.203 767.939 343.854 768.68 343.275 769.205C342.696 769.738 341.933 770.022 341.147 769.997H312.468C312.076 770.022 311.684 769.962 311.315 769.833C310.944 769.704 310.605 769.497 310.315 769.23C310.027 768.964 309.794 768.645 309.631 768.292C309.468 767.931 309.378 767.552 309.367 767.156V766.726C309.39 764.324 309.798 761.939 310.573 759.667L313.501 751.747C314.109 749.913 314.429 747.994 314.449 746.065V743.741C314.534 741.882 315.337 740.117 316.688 738.834Z" fill="#3F4249"/>
<path opacity="0.4" d="M335.377 745.377C335.996 745.377 336.497 744.878 336.497 744.258C336.497 743.638 335.996 743.139 335.377 743.139C334.759 743.139 334.258 743.638 334.258 744.258C334.258 744.878 334.759 745.377 335.377 745.377Z" fill="#231F20"/>
<path opacity="0.4" d="M334.861 749.681C335.479 749.681 335.981 749.182 335.981 748.562C335.981 747.942 335.479 747.443 334.861 747.443C334.242 747.443 333.741 747.942 333.741 748.562C333.741 749.182 334.242 749.681 334.861 749.681Z" fill="#231F20"/>
<path opacity="0.4" d="M334.516 752.866C335.135 752.866 335.636 752.367 335.636 751.747C335.636 751.127 335.135 750.628 334.516 750.628C333.898 750.628 333.397 751.127 333.397 751.747C333.397 752.367 333.898 752.866 334.516 752.866Z" fill="#231F20"/>
<path opacity="0.4" d="M335.033 757.945C335.651 757.945 336.152 757.446 336.152 756.826C336.152 756.206 335.651 755.707 335.033 755.707C334.414 755.707 333.913 756.206 333.913 756.826C333.913 757.446 334.414 757.945 335.033 757.945Z" fill="#231F20"/>
<path opacity="0.4" d="M335.033 762.335C335.651 762.335 336.152 761.836 336.152 761.216C336.152 760.596 335.651 760.097 335.033 760.097C334.414 760.097 333.913 760.596 333.913 761.216C333.913 761.836 334.414 762.335 335.033 762.335Z" fill="#231F20"/>
<path opacity="0.4" d="M321.512 763.282C322.13 763.282 322.631 762.783 322.631 762.163C322.631 761.543 322.13 761.044 321.512 761.044C320.893 761.044 320.392 761.543 320.392 762.163C320.392 762.783 320.893 763.282 321.512 763.282Z" fill="#231F20"/>
<path opacity="0.4" d="M321.339 759.15C321.957 759.15 322.459 758.651 322.459 758.031C322.459 757.411 321.957 756.912 321.339 756.912C320.721 756.912 320.219 757.411 320.219 758.031C320.219 758.651 320.721 759.15 321.339 759.15Z" fill="#231F20"/>
<path opacity="0.4" d="M321.167 753.727C321.785 753.727 322.286 753.228 322.286 752.608C322.286 751.988 321.785 751.489 321.167 751.489C320.548 751.489 320.047 751.988 320.047 752.608C320.047 753.228 320.548 753.727 321.167 753.727Z" fill="#231F20"/>
<path opacity="0.4" d="M321.512 748.562C322.13 748.562 322.631 748.062 322.631 747.443C322.631 746.823 322.13 746.324 321.512 746.324C320.893 746.324 320.392 746.823 320.392 747.443C320.392 748.062 320.893 748.562 321.512 748.562Z" fill="#231F20"/>
<path opacity="0.4" d="M321.683 744.516C322.302 744.516 322.803 744.017 322.803 743.397C322.803 742.777 322.302 742.278 321.683 742.278C321.065 742.278 320.564 742.777 320.564 743.397C320.564 744.017 321.065 744.516 321.683 744.516Z" fill="#231F20"/>
<path d="M335.033 744C335.033 744 330.124 738.834 321.684 743.139" stroke="white" stroke-miterlimit="10" stroke-linecap="round"/>
<path d="M334.861 748.304C334.861 748.304 329.952 743.052 321.512 747.443" stroke="white" stroke-miterlimit="10" stroke-linecap="round"/>
<path d="M334.516 751.575C333.224 750.628 326.851 748.562 321.167 752.522" stroke="white" stroke-miterlimit="10" stroke-linecap="round"/>
<path d="M334.602 756.74C334.602 756.74 329.09 752.264 321.339 757.687" stroke="white" stroke-miterlimit="10" stroke-linecap="round"/>
<path d="M335.033 761.044C335.033 761.044 329.521 756.482 321.77 761.991" stroke="white" stroke-miterlimit="10" stroke-linecap="round"/>
<path d="M406.689 769.566L483.685 769.738C483.839 769.377 483.955 769.007 484.03 768.619C484.201 769.532 484.229 770.453 484.116 771.374C484.096 772.063 483.819 772.717 483.341 773.208C482.863 773.707 482.218 774 481.532 774.043L409.187 773.87C408.486 773.845 407.819 773.561 407.323 773.061C406.827 772.571 406.539 771.899 406.517 771.202L406.689 769.566Z" fill="black"/>
<path d="M479.465 760.872C465.771 754.76 454.574 749.681 444.326 740.47C442 738.404 440.192 736.854 437.177 736.596L425.55 743.741C424.86 744.206 424.044 744.447 423.211 744.43C422.379 744.413 421.572 744.146 420.9 743.655L408.498 737.113C406.431 736.941 404.708 739.609 404.88 741.761L406.689 769.566L483.685 769.738C485.321 766.381 481.876 761.905 479.465 760.872Z" fill="#3F4249"/>
<path opacity="0.4" d="M466.029 762.249C466.838 762.249 467.493 761.629 467.493 760.872C467.493 760.114 466.838 759.494 466.029 759.494C465.22 759.494 464.565 760.114 464.565 760.872C464.565 761.629 465.22 762.249 466.029 762.249Z" fill="#231F20"/>
<path opacity="0.4" d="M457.589 759.925C458.398 759.925 459.053 759.305 459.053 758.548C459.053 757.79 458.398 757.17 457.589 757.17C456.78 757.17 456.125 757.79 456.125 758.548C456.125 759.305 456.78 759.925 457.589 759.925Z" fill="#231F20"/>
<path opacity="0.4" d="M450.527 755.104C451.335 755.104 451.991 754.484 451.991 753.727C451.991 752.969 451.335 752.349 450.527 752.349C449.718 752.349 449.062 752.969 449.062 753.727C449.062 754.484 449.718 755.104 450.527 755.104Z" fill="#231F20"/>
<path opacity="0.4" d="M443.809 750.111C444.618 750.111 445.273 749.492 445.273 748.734C445.273 747.976 444.618 747.357 443.809 747.357C443 747.357 442.345 747.976 442.345 748.734C442.345 749.492 443 750.111 443.809 750.111Z" fill="#231F20"/>
<path opacity="0.4" d="M437.78 744.086C438.589 744.086 439.244 743.466 439.244 742.708C439.244 741.951 438.589 741.331 437.78 741.331C436.971 741.331 436.316 741.951 436.316 742.708C436.316 743.466 436.971 744.086 437.78 744.086Z" fill="#231F20"/>
<path d="M468.698 757.6L467.751 760.183C467.685 760.355 467.585 760.51 467.457 760.639C467.33 760.768 467.178 760.88 467.01 760.949C466.842 761.018 466.66 761.061 466.477 761.061C466.294 761.061 466.112 761.027 465.943 760.958C465.771 760.889 465.616 760.794 465.486 760.665C465.357 760.536 465.256 760.381 465.191 760.209C465.125 760.037 465.098 759.856 465.108 759.675C465.119 759.486 465.168 759.314 465.254 759.15L466.632 756.654L468.698 757.6Z" fill="white"/>
<path d="M461.206 754.071L459.398 757.945C459.316 758.109 459.201 758.264 459.06 758.384C458.92 758.505 458.756 758.591 458.579 758.651C458.402 758.703 458.215 758.728 458.031 758.711C457.846 758.694 457.667 758.634 457.503 758.548C457.347 758.47 457.208 758.358 457.096 758.221C456.985 758.083 456.903 757.928 456.854 757.756C456.806 757.584 456.792 757.411 456.816 757.231C456.838 757.058 456.897 756.895 456.986 756.74L458.967 753.038L461.206 754.071Z" fill="white"/>
<path d="M454.919 750.111L452.508 753.383C452.39 753.538 452.242 753.667 452.074 753.761C451.905 753.856 451.72 753.916 451.528 753.942C451.335 753.968 451.141 753.951 450.954 753.899C450.767 753.847 450.593 753.761 450.44 753.641H450.354C450.146 753.408 450.018 753.116 449.987 752.806C449.956 752.496 450.024 752.186 450.182 751.919L452.508 748.82L454.919 750.111Z" fill="white"/>
<path d="M448.718 745.979L445.617 748.906C445.376 749.139 445.052 749.276 444.713 749.276C444.375 749.276 444.05 749.139 443.809 748.906C443.669 748.777 443.559 748.622 443.487 748.45C443.414 748.269 443.381 748.088 443.389 747.899C443.397 747.71 443.446 747.52 443.534 747.357C443.622 747.184 443.745 747.038 443.895 746.926L446.996 744.602L448.718 745.979Z" fill="white"/>
<path d="M442.689 740.556C442.689 740.642 440.881 742.019 439.675 742.966C439.404 743.164 439.071 743.25 438.738 743.216C438.405 743.19 438.095 743.035 437.866 742.794C437.759 742.648 437.684 742.476 437.647 742.295C437.61 742.114 437.611 741.925 437.652 741.753C437.693 741.572 437.772 741.4 437.883 741.253C437.994 741.107 438.135 740.987 438.297 740.9L441.914 739.179L442.689 740.556Z" fill="white"/>
<path d="M312.899 393.296H426.67L426.756 406.208H313.416L313.33 398.719L312.899 393.296Z" fill="#21252B"/>
<path d="M312.469 393.296H426.67L426.756 406.208H313.071L312.899 398.719L312.469 393.296Z" fill="#1A1A1A"/>
<path d="M391.1 393.296H366.985V406.174H391.1V393.296Z" fill="#61656D"/>
<path d="M389.723 393.296H368.191V406.174H389.723V393.296Z" fill="#DADDDF"/>
</g>
<defs>
<clipPath id="clip0">
<rect width="1033" height="775" fill="white"/>
</clipPath>
</defs>
</svg>
