<svg width="1378" height="1017" viewBox="0 0 1378 1017" fill="none" xmlns="http://www.w3.org/2000/svg">
<path d="M219.28 893.381L176.648 412.089C175.561 399.832 179.299 387.632 187.07 378.087L383.951 136.278C388.927 130.203 395.328 125.451 402.587 122.447C409.845 119.443 417.733 118.28 425.55 119.062L1027.82 180.956C1036.16 181.808 1044.13 184.865 1050.89 189.812C1057.66 194.759 1062.98 201.419 1066.32 209.105L1204.98 526.236C1208.62 534.571 1209.78 543.773 1208.34 552.75L1153.13 893.467L219.28 893.381Z" fill="#F2F2F2"/>
<path d="M597.708 639.094H258.289V849.146H597.708V639.094Z" fill="#D7DADC"/>
<path d="M588.148 648.735H267.936V839.573H588.148V648.735Z" fill="#F2F2F2"/>
<path d="M587.632 648.735H267.936V839.573H587.632V648.735Z" fill="#F2F2F2"/>
<path d="M621.65 639.094H597.708V849.146H621.65V639.094Z" fill="#AFB3B8"/>
<path d="M588.148 739.037H267.936V749.281H588.148V739.037Z" fill="#D7DADC"/>
<path d="M354.146 655.708H334.079V739.028H354.146V655.708Z" fill="#AFB3B8"/>
<path d="M407.802 655.708H354.146V739.028H407.802V655.708Z" fill="#D7DADC"/>
<path d="M371.974 665.263H360.691V739.045H371.974V665.263Z" fill="#AFB3B8"/>
<path d="M402.204 665.263H371.974V739.045H402.204V665.263Z" fill="#D7DADC"/>
<path d="M406.425 739.037H389.63L379.984 669.482H396.779L406.425 739.037Z" fill="#AFB3B8"/>
<path d="M406.425 739.037H451.21L441.564 669.482H396.779L406.425 739.037Z" fill="#D7DADC"/>
<path d="M339.075 839.582H322.28L312.634 770.027H329.428L339.075 839.582Z" fill="#AFB3B8"/>
<path d="M339.075 839.582H383.86L374.213 770.027H329.428L339.075 839.582Z" fill="#D7DADC"/>
<path d="M522.693 817.975H419.773V839.591H522.693V817.975Z" fill="#D7DADC"/>
<path d="M492.377 783.627H419.773V801.102H492.377V783.627Z" fill="#D7DADC"/>
<path d="M509.516 801.103H419.773V817.958H509.516V801.103Z" fill="#D7DADC"/>
<path d="M504.693 671.547H488.416V739.054H504.693V671.547Z" fill="#AFB3B8"/>
<path d="M548.186 671.547H504.693V739.054H548.186V671.547Z" fill="#D7DADC"/>
<path d="M540.607 679.209H525.019V738.994H540.607V679.209Z" fill="#AFB3B8"/>
<path d="M567.306 679.209H540.608V738.994H567.306V679.209Z" fill="#D7DADC"/>
<path d="M492.377 798.176H419.773V801.086H492.377V798.176Z" fill="#AFB3B8"/>
<path d="M509.516 815.047H419.773V817.957H509.516V815.047Z" fill="#AFB3B8"/>
<path d="M522.693 836.655H419.773V839.565H522.693V836.655Z" fill="#AFB3B8"/>
<path d="M615.966 849.224L619.669 890.113C619.731 890.466 619.717 890.828 619.625 891.18C619.532 891.525 619.366 891.852 619.137 892.127C618.908 892.411 618.622 892.635 618.297 892.79C617.973 892.945 617.619 893.031 617.258 893.04C616.762 893.031 616.28 892.868 615.88 892.575C615.478 892.282 615.178 891.878 615.019 891.404L604.339 849.224H615.966Z" fill="#D7DADC"/>
<path d="M614.588 873.069L610.109 871.95L604.339 849.224H616.052L619.669 890.199C619.776 890.733 619.698 891.293 619.447 891.775C619.196 892.257 618.789 892.644 618.291 892.868L614.588 873.069Z" fill="#AFB3B8"/>
<path d="M574.109 849.224L577.812 890.113C577.889 890.466 577.887 890.828 577.806 891.172C577.725 891.525 577.568 891.852 577.346 892.127C577.122 892.411 576.841 892.635 576.519 892.79C576.198 892.954 575.845 893.031 575.487 893.04C574.979 893.04 574.484 892.876 574.068 892.584C573.653 892.291 573.337 891.878 573.162 891.404L562.482 849.224H574.109Z" fill="#D7DADC"/>
<path d="M570.234 853.7L563.516 852.409L562.396 849.137H574.023L577.726 890.113C577.832 890.647 577.754 891.206 577.504 891.688C577.254 892.171 576.846 892.558 576.349 892.782L570.234 853.7Z" fill="#AFB3B8"/>
<path d="M320.988 849.224L317.37 890.113C317.277 890.466 317.265 890.836 317.339 891.189C317.413 891.542 317.569 891.878 317.795 892.162C318.022 892.446 318.311 892.678 318.642 892.825C318.972 892.98 319.332 893.048 319.696 893.04C320.193 893.031 320.674 892.868 321.075 892.575C321.475 892.282 321.776 891.878 321.935 891.404L332.701 849.224H320.988Z" fill="#D7DADC"/>
<path d="M323.055 871.003L319.093 869.97L320.988 849.224H332.701L321.935 891.404C321.776 891.878 321.475 892.282 321.074 892.575C320.673 892.868 320.192 893.031 319.696 893.04H319.524L323.055 871.003Z" fill="#AFB3B8"/>
<path d="M278.098 849.224L274.394 890.113C274.318 890.466 274.32 890.828 274.4 891.172C274.481 891.525 274.639 891.852 274.861 892.127C275.084 892.411 275.367 892.635 275.688 892.79C276.009 892.954 276.362 893.031 276.72 893.04C277.219 893.04 277.707 892.885 278.11 892.592C278.514 892.3 278.811 891.878 278.959 891.404L289.724 849.224H278.098Z" fill="#D7DADC"/>
<path d="M282.576 852.753L277.495 851.806L278.097 849.224H289.724L278.959 891.404C278.81 891.878 278.513 892.3 278.109 892.592C277.706 892.885 277.219 893.04 276.719 893.04H276.547L282.576 852.753Z" fill="#AFB3B8"/>
<path d="M735.594 227.358C735.596 216.525 731.598 206.072 724.367 198.002C717.136 189.933 707.18 184.814 696.407 183.627V183.283H691.498C680.152 183.785 669.436 188.642 661.584 196.845C653.733 205.048 649.35 215.963 649.35 227.315C649.35 238.666 653.733 249.581 661.584 257.784C669.436 265.987 680.152 270.844 691.498 271.346H696.407V271.088C707.18 269.901 717.136 264.782 724.367 256.713C731.598 248.643 735.596 238.19 735.594 227.358Z" fill="#B0B4B9"/>
<path d="M696.407 271.432C720.761 271.432 740.503 251.699 740.503 227.358C740.503 203.016 720.761 183.283 696.407 183.283C672.053 183.283 652.311 203.016 652.311 227.358C652.311 251.699 672.053 271.432 696.407 271.432Z" fill="#84888F"/>
<path d="M696.406 266.526C718.048 266.526 735.593 248.99 735.593 227.358C735.593 205.726 718.048 188.19 696.406 188.19C674.764 188.19 657.219 205.726 657.219 227.358C657.219 248.99 674.764 266.526 696.406 266.526Z" fill="white"/>
<path d="M696.406 266.526C718.048 266.526 735.593 248.99 735.593 227.358C735.593 205.726 718.048 188.19 696.406 188.19C674.764 188.19 657.219 205.726 657.219 227.358C657.219 248.99 674.764 266.526 696.406 266.526Z" fill="#84888F"/>
<path opacity="0.9" d="M696.406 266.526C718.048 266.526 735.593 248.99 735.593 227.358C735.593 205.726 718.048 188.19 696.406 188.19C674.764 188.19 657.219 205.726 657.219 227.358C657.219 248.99 674.764 266.526 696.406 266.526Z" fill="white"/>
<path d="M696.407 188.19H694.253C704.175 188.848 713.476 193.252 720.269 200.509C727.064 207.766 730.844 217.333 730.844 227.272C730.844 237.21 727.064 246.777 720.269 254.034C713.476 261.291 704.175 265.695 694.253 266.353H696.407C706.799 266.353 716.767 262.227 724.115 254.881C731.464 247.536 735.593 237.573 735.593 227.185C735.593 216.798 731.464 206.835 724.115 199.49C716.767 192.144 706.799 188.018 696.407 188.018V188.19Z" fill="#B0B4B9"/>
<path d="M696.751 230.37L683.746 204.546C683.501 204.065 683.455 203.507 683.616 202.993C683.777 202.478 684.133 202.047 684.607 201.791C685.089 201.546 685.646 201.5 686.161 201.661C686.676 201.821 687.107 202.177 687.363 202.652L698.559 224.947L713.373 217.63C713.857 217.439 714.395 217.437 714.88 217.626C715.366 217.814 715.762 218.178 715.99 218.645C716.219 219.113 716.262 219.649 716.113 220.146C715.963 220.645 715.63 221.067 715.182 221.332L696.751 230.37Z" fill="#7C8EC8"/>
<path opacity="0.5" d="M729.909 247.501C733.637 241.411 735.604 234.409 735.593 227.271C735.604 222.125 734.599 217.026 732.633 212.269C730.668 207.512 727.782 203.19 724.141 199.55C720.5 195.91 716.176 193.026 711.416 191.061C706.656 189.097 701.556 188.092 696.407 188.104H693.134L729.909 247.501Z" fill="white"/>
<path opacity="0.5" d="M687.277 189.222C685.379 189.721 683.51 190.324 681.679 191.029L722.244 256.711C723.816 255.298 725.284 253.773 726.637 252.149L687.277 189.222Z" fill="white"/>
<path d="M1054.77 362.336H877.097V371.401H1054.77V362.336Z" fill="#AFB3B8"/>
<path d="M1097.75 362.336H1054.86V371.401H1097.75V362.336Z" fill="#D7DADC"/>
<path d="M948.925 271.26H931.011V362.371H948.925V271.26Z" fill="#AFB3B8"/>
<path d="M996.811 271.26H948.926V362.371H996.811V271.26Z" fill="#D7DADC"/>
<path d="M964.858 279.783H954.782V362.38H964.858V279.783Z" fill="#AFB3B8"/>
<path d="M991.816 279.783H964.858V362.38H991.816V279.783Z" fill="#D7DADC"/>
<path d="M995.605 362.422H980.619L972.006 283.57H986.992L995.605 362.422Z" fill="#AFB3B8"/>
<path d="M995.605 362.422H1035.57L1026.95 283.57H986.992L995.605 362.422Z" fill="#D7DADC"/>
<path d="M396.261 347.961H472.568V237.379H396.261V347.961Z" fill="#B0B4B9"/>
<path d="M392.041 347.961H468.348V237.379H392.041V347.961Z" fill="white"/>
<path d="M401.601 335.737H459.132V249.051H401.601V335.737Z" fill="#DBDBDB"/>
<path d="M420.721 297.861C424.383 297.861 427.352 294.893 427.352 291.232C427.352 287.572 424.383 284.604 420.721 284.604C417.058 284.604 414.089 287.572 414.089 291.232C414.089 294.893 417.058 297.861 420.721 297.861Z" fill="#7C8EC8"/>
<g opacity="0.2">
<path opacity="0.2" d="M420.721 319.64H439.927V265.132H420.721V319.64Z" fill="black"/>
</g>
<path d="M358.28 344.689H276.547V458.577H358.28V344.689Z" fill="white"/>
<path d="M361.725 344.689H358.194V458.577H361.725V344.689Z" fill="#B0B4B9"/>
<path d="M348.031 355.622H286.796V447.817H348.031V355.622Z" fill="#D8DBDD"/>
<path opacity="0.15" d="M1060.29 746.183V723.371H998.447C997.181 722.796 996.053 721.96 995.14 720.915C994.227 719.87 993.547 718.642 993.151 717.313C992.746 715.984 992.643 714.584 992.823 713.209C993.013 711.834 993.487 710.514 994.227 709.339C1002.58 695.91 1004.56 679.296 988.974 670.085C976.313 662.682 959.002 667.503 952.026 680.329C946.256 690.917 950.993 700.214 956.418 709.683C957.09 710.862 957.504 712.168 957.641 713.517C957.779 714.866 957.633 716.228 957.211 717.517C956.789 718.806 956.1 719.993 955.195 721.001C954.282 722.009 953.18 722.815 951.94 723.371H890.877V783.801C891.239 785.29 891.954 786.673 892.953 787.832C893.961 788.991 895.226 789.895 896.648 790.467C898.069 791.04 899.61 791.265 901.143 791.123C902.668 790.981 904.14 790.479 905.432 789.655C918.954 781.305 935.576 779.411 944.705 794.906C952.112 807.56 946.686 824.605 933.767 831.577C923.174 837.345 914.734 832.697 905.088 827.445C898.801 824.088 892.255 826.671 890.877 833.385V892.696H933.767V892.868H1025.84V892.696H1060.29V832.352C1060.37 832.18 1060.29 746.183 1060.29 746.183Z" fill="black"/>
<path d="M1060.29 746.183V723.371H998.447C997.181 722.796 996.053 721.96 995.14 720.915C994.227 719.87 993.547 718.642 993.151 717.313C992.746 715.984 992.643 714.584 992.823 713.209C993.013 711.834 993.487 710.514 994.227 709.339C1002.58 695.91 1004.56 679.296 988.974 670.085C976.313 662.682 959.002 667.503 952.026 680.329C946.256 690.917 950.993 700.214 956.418 709.683C957.09 710.862 957.504 712.168 957.641 713.517C957.779 714.866 957.633 716.228 957.211 717.517C956.789 718.806 956.1 719.993 955.195 721.001C954.282 722.009 953.18 722.815 951.94 723.371H890.877V783.801C891.239 785.29 891.954 786.673 892.953 787.832C893.961 788.991 895.226 789.895 896.648 790.467C898.069 791.04 899.61 791.265 901.143 791.123C902.668 790.981 904.14 790.479 905.432 789.655C918.954 781.305 935.576 779.411 944.705 794.906C952.112 807.56 946.686 824.605 933.767 831.577C923.174 837.345 914.734 832.697 905.088 827.445C898.801 824.088 892.255 826.671 890.877 833.385V892.696H933.767V892.868H1025.84V892.696H1060.29V832.352C1060.37 832.18 1060.29 746.183 1060.29 746.183Z" fill="#4D61FC"/>
<path d="M944.706 794.82C935.576 779.239 918.954 781.219 905.433 789.569C903.968 790.499 902.272 791.017 900.541 791.065C898.801 791.114 897.078 790.693 895.563 789.847C894.047 789 892.789 787.759 891.911 786.255C891.041 784.752 890.593 783.041 890.619 781.305V725.006H830.504C829.178 725.495 827.975 726.267 826.979 727.268C825.981 728.269 825.215 729.475 824.731 730.802C824.248 732.129 824.059 733.546 824.179 734.953C824.298 736.361 824.722 737.725 825.422 738.952C830.848 748.421 835.499 757.718 829.815 768.306C822.753 781.219 805.441 785.953 792.867 778.55C777.279 769.425 779.173 752.811 787.527 739.296C788.293 738.062 788.774 736.674 788.932 735.231C789.091 733.788 788.925 732.328 788.446 730.958C787.967 729.588 787.187 728.342 786.164 727.312C785.141 726.282 783.9 725.494 782.532 725.006H722.331V724.576H721.47V723.543H721.211V892.868H890.619V835.795C890.602 834.095 891.041 832.422 891.876 830.944C892.721 829.467 893.935 828.237 895.408 827.381C896.872 826.524 898.543 826.071 900.248 826.067C901.944 826.064 903.615 826.509 905.088 827.359C914.562 832.783 923.949 837.431 934.543 831.75C947.375 824.777 952.198 807.388 944.706 794.82Z" fill="#8291FF" fill-opacity="0.6"/>
<path d="M1060.29 721.562L1060.54 555.766H891.135V613.527C891.135 621.189 875.547 638.233 869.087 634.187C855.652 625.751 846.178 611.461 836.963 627.042C829.556 639.611 834.379 656.913 847.212 663.972C857.805 669.654 866.762 655.364 876.236 649.941C882.695 646.239 891.135 660.529 891.135 668.018V725.091H950.476C951.914 724.695 953.249 723.977 954.368 722.99C955.488 722.004 956.367 720.774 956.935 719.396C957.512 718.019 957.762 716.529 957.667 715.039C957.581 713.55 957.15 712.101 956.418 710.802C950.992 701.418 946.256 692.035 952.026 681.447C959.002 668.621 976.313 663.8 988.974 671.289C1004.56 680.414 1002.58 697.028 994.227 710.543C993.426 711.841 992.935 713.31 992.806 714.831C992.668 716.352 992.901 717.883 993.469 719.3C994.038 720.716 994.933 721.979 996.088 722.985C997.233 723.991 998.602 724.713 1000.08 725.091H1060.29V721.562Z" fill="#8291FF" fill-opacity="0.6"/>
<path opacity="0.5" d="M1060.29 746.183V723.371H998.447C997.181 722.796 996.053 721.96 995.14 720.915C994.227 719.87 993.547 718.642 993.151 717.313C992.746 715.984 992.643 714.584 992.823 713.209C993.013 711.834 993.487 710.514 994.227 709.339C1002.58 695.91 1004.56 679.296 988.974 670.085C976.313 662.682 959.002 667.503 952.026 680.329C946.256 690.917 950.992 700.214 956.418 709.683C957.09 710.862 957.504 712.168 957.641 713.517C957.779 714.866 957.633 716.228 957.211 717.517C956.789 718.806 956.1 719.993 955.195 721.001C954.282 722.009 953.18 722.815 951.94 723.371H890.877V783.801C891.239 785.29 891.954 786.673 892.953 787.832C893.961 788.991 895.226 789.895 896.648 790.467C898.069 791.04 899.61 791.265 901.143 791.123C902.668 790.981 904.14 790.479 905.432 789.655C918.954 781.305 935.576 779.411 944.705 794.906C952.112 807.56 946.686 824.605 933.767 831.577C923.174 837.345 914.734 832.697 905.088 827.445C898.801 824.088 892.255 826.671 890.877 833.385V892.696H933.767V892.868H1025.84V892.696H1060.29V746.183Z" fill="white"/>
<path d="M811.039 563.256C810.35 556.885 804.666 553.873 798.551 556.455C789.25 560.243 781.068 563.686 771.852 557.402C760.742 549.741 757.383 533.643 765.393 522.796C775.297 509.454 790.369 512.725 801.91 521.763C803.021 522.62 804.318 523.205 805.696 523.469C807.074 523.733 808.495 523.67 809.844 523.285C811.193 522.9 812.433 522.202 813.464 521.25C814.494 520.298 815.286 519.117 815.776 517.804L819.221 485.006L821.546 463.141V462.452L803.891 460.558L672.981 446.785L666.263 446.096V446.871L664.11 467.014L660.493 502.05L660.148 502.567L655.67 545.35C655.716 545.554 655.773 545.755 655.842 545.953L649.986 601.218H650.761V601.649L670.914 603.801L705.967 607.502C707.175 608.071 708.24 608.905 709.081 609.941C709.922 610.978 710.518 612.191 710.824 613.491C711.13 614.79 711.139 616.142 710.85 617.445C710.561 618.748 709.981 619.969 709.153 621.018C700.196 632.553 696.838 647.617 710.187 657.517C721.125 665.523 737.402 662.854 745.067 651.749C751.355 642.538 747.91 633.586 743.862 624.375C743.348 623.179 743.1 621.886 743.132 620.585C743.165 619.285 743.478 618.006 744.05 616.837C744.623 615.668 745.441 614.637 746.449 613.813C747.457 612.989 748.63 612.393 749.891 612.065L805.269 617.919L807.594 595.193L811.039 563.256Z" fill="#4D61FC"/>
<path opacity="0.5" d="M811.039 563.256C810.35 556.885 804.666 553.873 798.551 556.455C789.25 560.243 781.068 563.686 771.852 557.402C760.742 549.741 757.383 533.643 765.393 522.796C775.297 509.454 790.369 512.725 801.91 521.763C803.021 522.62 804.318 523.205 805.696 523.469C807.074 523.733 808.495 523.67 809.844 523.285C811.193 522.9 812.433 522.202 813.464 521.25C814.494 520.298 815.286 519.117 815.776 517.804L819.221 485.006L821.546 463.141V462.452L803.891 460.558L672.981 446.785L666.263 446.096V446.871L664.11 467.014L660.493 502.05L660.148 502.567L655.67 545.35C655.716 545.554 655.773 545.755 655.842 545.953L649.986 601.218H650.761V601.649L670.914 603.801L705.967 607.502C707.175 608.071 708.24 608.905 709.081 609.941C709.922 610.978 710.518 612.191 710.824 613.491C711.13 614.79 711.139 616.142 710.85 617.445C710.561 618.748 709.981 619.969 709.153 621.018C700.196 632.553 696.838 647.617 710.187 657.517C721.125 665.523 737.402 662.854 745.067 651.749C751.355 642.538 747.91 633.586 743.862 624.375C743.348 623.179 743.1 621.886 743.132 620.585C743.165 619.285 743.478 618.006 744.05 616.837C744.623 615.668 745.441 614.637 746.449 613.813C747.457 612.989 748.63 612.393 749.891 612.065L805.269 617.919L807.594 595.193L811.039 563.256Z" fill="white"/>
<path d="M1066.23 557.058C1066.85 557.058 1067.35 556.557 1067.35 555.939C1067.35 555.32 1066.85 554.819 1066.23 554.819C1065.61 554.819 1065.11 555.32 1065.11 555.939C1065.11 556.557 1065.61 557.058 1066.23 557.058Z" fill="white"/>
<path d="M1052.53 724.231V723.371H990.696C989.422 722.805 988.293 721.973 987.363 720.933C986.442 719.891 985.753 718.664 985.348 717.334C984.934 716.004 984.822 714.603 985.003 713.223C985.184 711.844 985.658 710.519 986.39 709.339C994.83 695.91 996.725 679.296 981.136 670.085C968.562 662.682 951.251 667.503 944.275 680.329C938.504 690.917 943.241 700.214 948.581 709.683C949.253 710.862 949.666 712.168 949.804 713.517C949.942 714.866 949.795 716.228 949.373 717.517C948.951 718.806 948.262 719.993 947.358 721.001C946.445 722.009 945.343 722.815 944.103 723.371H883.126V783.801C883.488 785.29 884.203 786.673 885.202 787.832C886.209 788.991 887.475 789.895 888.896 790.467C890.317 791.04 891.859 791.265 893.392 791.123C894.916 790.981 896.389 790.479 897.681 789.655C911.117 781.305 927.825 779.411 936.954 794.906C944.361 807.56 938.849 824.605 926.016 831.577C915.423 837.345 906.897 832.697 897.337 827.445C890.963 824.088 884.504 826.671 883.126 833.385V892.696H925.93V892.868H1018V892.696H1052.53V724.231Z" fill="#4D61FC"/>
<path d="M936.954 794.82C927.825 779.239 911.116 781.219 897.681 789.569C896.208 790.492 894.511 791.003 892.772 791.049C891.032 791.096 889.309 790.675 887.794 789.831C886.269 788.988 885.003 787.751 884.125 786.252C883.238 784.751 882.781 783.044 882.781 781.305V725.006H822.752C821.42 725.487 820.207 726.252 819.201 727.249C818.195 728.246 817.418 729.451 816.926 730.778C816.434 732.106 816.238 733.526 816.352 734.938C816.466 736.349 816.886 737.719 817.584 738.952C823.01 748.421 827.747 757.718 821.977 768.306C815.001 781.219 797.69 785.953 785.029 778.55C769.441 769.425 771.421 752.811 779.776 739.296C780.541 738.062 781.022 736.674 781.18 735.231C781.34 733.788 781.173 732.328 780.694 730.958C780.215 729.588 779.435 728.342 778.412 727.312C777.389 726.282 776.148 725.494 774.78 725.006H714.493V724.576H713.631V723.543H713.373V892.868H882.781V835.795C882.781 834.093 883.229 832.421 884.082 830.946C884.934 829.472 886.157 828.247 887.63 827.393C889.103 826.539 890.774 826.086 892.479 826.08C894.184 826.075 895.855 826.516 897.336 827.359C906.81 832.783 916.112 837.431 926.705 831.75C939.624 824.777 944.361 807.388 936.954 794.82Z" fill="#8291FF"/>
<path d="M1052.45 721.562V555.766H883.04V613.527C883.04 615.266 882.583 616.975 881.696 618.475C880.818 619.974 879.552 621.21 878.027 622.054C876.511 622.898 874.789 623.319 873.049 623.273C871.309 623.226 869.613 622.715 868.14 621.791C854.705 613.355 838.083 611.461 828.868 627.042C821.461 639.611 826.198 656.913 839.117 663.972C849.71 669.654 859.012 665.005 868.484 659.582C869.966 658.738 871.637 658.298 873.342 658.304C875.047 658.31 876.718 658.763 878.191 659.616C879.663 660.47 880.886 661.695 881.739 663.17C882.592 664.645 883.04 666.316 883.04 668.018V725.091H942.38C943.818 724.695 945.153 723.977 946.273 722.99C947.392 722.004 948.271 720.774 948.839 719.396C949.416 718.019 949.666 716.529 949.571 715.039C949.485 713.55 949.054 712.101 948.322 710.802C942.897 701.418 938.16 692.035 943.93 681.447C950.906 668.621 968.217 663.8 980.878 671.289C996.38 680.414 994.485 697.028 986.131 710.543C985.33 711.841 984.839 713.31 984.71 714.831C984.572 716.352 984.805 717.883 985.373 719.3C985.942 720.716 986.838 721.979 987.992 722.985C989.137 723.991 990.507 724.713 991.988 725.091H1052.45V721.562Z" fill="#8291FF"/>
<path d="M805.355 562.91C804.752 556.54 799.068 553.527 792.953 556.11C783.652 559.897 775.384 563.341 766.255 557.057C755.144 549.395 751.699 533.298 759.709 522.451C769.613 509.108 784.685 512.379 796.226 521.418C797.345 522.275 798.647 522.858 800.031 523.123C801.415 523.386 802.841 523.323 804.197 522.939C805.552 522.555 806.799 521.859 807.837 520.907C808.875 519.956 809.677 518.775 810.178 517.458L813.623 484.661L815.863 462.795V462.107L798.207 460.213L667.297 446.44L660.665 445.751V446.526L658.512 466.669L654.809 501.705L654.55 502.222L649.986 545.005L650.244 545.608L644.388 600.873H645.163V601.304L665.23 603.456L700.369 607.157C701.577 607.726 702.642 608.56 703.483 609.597C704.324 610.633 704.92 611.847 705.226 613.146C705.532 614.446 705.542 615.797 705.252 617.101C704.963 618.404 704.383 619.625 703.556 620.672C694.599 632.207 691.24 647.272 704.589 657.172C715.441 665.177 731.805 662.509 739.47 651.404C745.757 642.193 742.312 633.24 738.264 624.03C737.735 622.836 737.475 621.54 737.5 620.234C737.525 618.929 737.836 617.645 738.41 616.471C738.985 615.299 739.809 614.266 740.825 613.445C741.842 612.624 743.025 612.036 744.293 611.72L799.585 617.573L801.996 594.847L805.355 562.91Z" fill="#4D61FC"/>
<path opacity="0.7" d="M1052.53 723.371H990.696C989.422 722.805 988.293 721.973 987.363 720.933C986.442 719.891 985.753 718.664 985.348 717.334C984.934 716.004 984.822 714.603 985.003 713.223C985.184 711.844 985.658 710.519 986.39 709.339C994.83 695.91 996.725 679.296 981.136 670.085C968.562 662.682 951.251 667.503 944.275 680.329C938.504 690.917 943.241 700.214 948.581 709.683C949.253 710.862 949.666 712.168 949.804 713.517C949.942 714.866 949.795 716.228 949.373 717.517C948.951 718.806 948.262 719.993 947.358 721.001C946.445 722.009 945.343 722.815 944.103 723.371H883.126V783.801C883.488 785.29 884.203 786.673 885.202 787.832C886.209 788.991 887.475 789.895 888.896 790.467C890.317 791.04 891.859 791.265 893.392 791.123C894.916 790.981 896.389 790.479 897.681 789.655C911.117 781.305 927.825 779.411 936.954 794.906C944.361 807.56 938.849 824.605 926.016 831.577C915.423 837.345 906.897 832.697 897.337 827.445C890.963 824.088 884.504 826.671 883.126 833.385V892.696H925.93V892.868H1018V892.696H1052.53V723.371Z" fill="white"/>
<path opacity="0.7" d="M805.355 562.91C804.752 556.54 799.068 553.527 792.953 556.11C783.652 559.897 775.384 563.341 766.255 557.057C755.144 549.395 751.699 533.298 759.709 522.451C769.613 509.108 784.685 512.379 796.226 521.418C797.345 522.275 798.647 522.858 800.031 523.123C801.415 523.386 802.841 523.323 804.197 522.939C805.552 522.555 806.799 521.859 807.837 520.907C808.875 519.956 809.677 518.775 810.178 517.458L813.623 484.661L815.863 462.795V462.107L798.207 460.213L667.297 446.44L660.665 445.751V446.526L658.512 466.669L654.809 501.705L654.55 502.222L649.986 545.005L650.244 545.608L644.388 600.873H645.163V601.304L665.23 603.456L700.369 607.157C701.577 607.726 702.642 608.56 703.483 609.597C704.324 610.633 704.92 611.847 705.226 613.146C705.532 614.446 705.542 615.797 705.252 617.101C704.963 618.404 704.383 619.625 703.556 620.672C694.599 632.207 691.24 647.272 704.589 657.172C715.441 665.177 731.805 662.509 739.47 651.404C745.757 642.193 742.312 633.24 738.264 624.03C737.735 622.836 737.475 621.54 737.5 620.234C737.525 618.929 737.836 617.645 738.41 616.471C738.985 615.299 739.809 614.266 740.825 613.445C741.842 612.624 743.025 612.036 744.293 611.72L799.585 617.573L801.996 594.847L805.355 562.91Z" fill="white"/>
<path d="M716.646 444.976L728.445 444.288C728.717 444.262 728.992 444.313 729.237 444.434C729.482 444.556 729.689 444.745 729.832 444.977C729.976 445.21 730.05 445.479 730.049 445.753C730.047 446.026 729.969 446.294 729.823 446.526C729.283 447.441 728.469 448.163 727.498 448.592L716.646 444.976Z" fill="#F39494"/>
<path d="M708.809 442.824C708.809 442.824 720.177 441.361 720.78 441.447C721.383 441.533 723.277 443.513 721.124 444.718L715.526 445.062L708.809 442.824Z" fill="#F39494"/>
<path opacity="0.15" d="M719.402 444.804C719.919 445.062 729.393 447.214 729.393 447.214L727.929 448.592L715.871 445.148L719.402 444.804Z" fill="black"/>
<path opacity="0.15" d="M710.704 442.652L719.402 444.804L718.024 444.976L708.981 442.824L710.704 442.652Z" fill="black"/>
<path d="M739.297 453.843C741.192 453.757 740.933 451.088 739.039 450.486C730.598 447.731 708.723 442.738 707.603 442.566C706.483 442.394 685.124 440.328 662.99 439.123L662.474 461.16C668.65 460.881 674.839 461.054 680.99 461.676C683.66 462.021 689.775 463.398 693.048 465.464C696.321 467.53 702.177 469.854 705.536 470.371C705.886 470.401 706.234 470.305 706.519 470.1C706.804 469.894 707.004 469.594 707.086 469.252C707.259 467.961 707.345 466.067 705.622 465.292C703.9 464.517 696.148 459.783 697.182 457.372C698.215 454.962 705.708 453.326 707 453.671C708.292 454.015 718.885 456.253 719.058 456.856C719.23 457.458 728.015 467.272 730.771 466.583C731.081 466.511 731.369 466.364 731.61 466.157C731.852 465.95 732.04 465.686 732.158 465.391C732.277 465.095 732.322 464.775 732.29 464.459C732.259 464.141 732.15 463.837 731.976 463.57C729.995 460.729 726.464 454.962 724.742 452.638C729.995 453.068 737.23 453.929 739.297 453.843Z" fill="#F39494"/>
<path opacity="0.15" d="M724.656 452.638C724.063 451.948 723.287 451.441 722.417 451.174L713.029 448.247L722.761 450.399C723.705 450.653 724.529 451.232 725.087 452.035L725.431 452.638H724.656Z" fill="black"/>
<path opacity="0.15" d="M730.943 464.345C728.445 464.948 721.211 457.028 719.574 455.048C719.319 454.744 718.994 454.507 718.627 454.359L707.172 451.346C705.88 451.088 698.388 452.724 697.268 455.134C697.208 455.416 697.208 455.707 697.267 455.988C697.327 456.27 697.444 456.536 697.612 456.77C699.507 454.704 705.794 453.326 707 453.585C708.206 453.843 718.885 456.253 719.058 456.856C719.23 457.458 728.014 467.272 730.77 466.583C731.068 466.507 731.342 466.361 731.574 466.16C731.806 465.957 731.987 465.705 732.104 465.421C732.221 465.137 732.27 464.83 732.248 464.523C732.226 464.218 732.133 463.921 731.976 463.656C731.729 464.007 731.36 464.252 730.943 464.345Z" fill="black"/>
<path opacity="0.15" d="M705.708 468.133C702.349 467.616 696.062 465.034 693.22 463.226C690.378 461.418 686.847 458.664 683.488 457.631C678.406 456.478 673.191 456.015 667.986 456.253L662.474 461.16C668.65 460.881 674.839 461.054 680.99 461.676C683.66 462.021 689.775 463.398 693.048 465.464C696.321 467.53 702.177 469.854 705.622 470.371C705.961 470.398 706.298 470.299 706.569 470.092C706.839 469.885 707.023 469.586 707.086 469.252C707.216 468.598 707.216 467.925 707.086 467.272C707.005 467.561 706.818 467.81 706.563 467.969C706.309 468.128 706.004 468.187 705.708 468.133Z" fill="black"/>
<path d="M677.373 439.21L614.933 424.748L587.373 453.155L673.498 462.194L677.373 439.21Z" fill="#4D61FC"/>
<path d="M677.373 439.21L614.933 424.748L587.373 453.155L673.498 462.194L677.373 439.21Z" fill="#7C8EC8"/>
<path d="M614.932 424.747L605.458 352.438C602.875 338.664 593.401 336.082 585.736 332.724L576.434 329.281L587.372 453.155L614.932 424.747Z" fill="#7C8EC8"/>
<path opacity="0.15" d="M598.396 442.05L598.224 359.755C597.449 355.623 597.449 349.339 590.731 345.723L577.468 340.472L587.372 453.413L668.33 461.161L669.363 455.221L602.444 445.666C601.94 445.7 601.433 445.634 600.954 445.47C600.475 445.306 600.034 445.048 599.657 444.711C599.28 444.375 598.974 443.965 598.757 443.508C598.541 443.051 598.418 442.555 598.396 442.05Z" fill="black"/>
<path d="M677.373 439.21L673.497 462.194L667.985 462.538L671.775 436.799L677.373 439.21Z" fill="#21252B"/>
<path d="M489.793 517.546L474.549 373.958C473.343 359.152 485.4 342.71 499.525 337.803L535.095 325.407L562.482 328.162L575.659 329.367C575.918 329.712 603.908 353.815 603.736 353.298L602.875 520.128L489.793 517.546Z" fill="#7C8EC8"/>
<path opacity="0.15" d="M550.253 339.181L556.368 374.733L554.215 339.095L550.253 339.181Z" fill="black"/>
<path d="M590.301 357.861L591.334 356.828C591.396 356.745 591.427 356.643 591.42 356.539C591.412 356.436 591.368 356.339 591.295 356.266C591.221 356.193 591.124 356.148 591.02 356.14C590.917 356.133 590.814 356.163 590.732 356.225L589.612 357.258L588.578 356.225C588.541 356.176 588.494 356.135 588.44 356.106C588.385 356.076 588.326 356.059 588.264 356.054C588.203 356.05 588.141 356.059 588.083 356.081C588.025 356.102 587.973 356.136 587.929 356.18C587.886 356.223 587.852 356.275 587.831 356.333C587.808 356.391 587.8 356.453 587.804 356.514C587.808 356.576 587.826 356.636 587.856 356.689C587.885 356.743 587.926 356.791 587.975 356.828L589.009 357.861L587.975 358.894C587.926 358.931 587.885 358.978 587.856 359.032C587.826 359.087 587.808 359.146 587.804 359.208C587.8 359.269 587.808 359.331 587.831 359.389C587.852 359.446 587.886 359.499 587.929 359.543C587.973 359.586 588.025 359.62 588.083 359.642C588.141 359.663 588.203 359.672 588.264 359.668C588.326 359.663 588.385 359.645 588.44 359.616C588.494 359.587 588.541 359.545 588.578 359.496L589.612 358.463L590.732 359.496C590.769 359.545 590.816 359.587 590.87 359.616C590.924 359.645 590.984 359.663 591.046 359.668C591.107 359.672 591.169 359.663 591.227 359.642C591.284 359.62 591.337 359.586 591.381 359.543C591.424 359.499 591.458 359.446 591.479 359.389C591.501 359.331 591.51 359.269 591.506 359.208C591.502 359.146 591.483 359.087 591.454 359.032C591.425 358.978 591.383 358.931 591.334 358.894L590.301 357.861Z" fill="white"/>
<path d="M562.913 387.818L564.291 387.301C564.405 387.256 564.497 387.167 564.545 387.053C564.593 386.941 564.595 386.813 564.549 386.699C564.503 386.585 564.415 386.493 564.301 386.445C564.188 386.397 564.061 386.395 563.946 386.44L562.654 387.043L562.051 385.666C562.045 385.609 562.025 385.555 561.992 385.507C561.958 385.46 561.915 385.422 561.864 385.396C561.812 385.371 561.755 385.358 561.697 385.36C561.641 385.363 561.585 385.378 561.535 385.407C561.475 385.426 561.42 385.457 561.374 385.499C561.328 385.541 561.291 385.592 561.266 385.649C561.242 385.706 561.23 385.768 561.232 385.831C561.233 385.893 561.249 385.954 561.276 386.01L561.793 387.301L560.415 387.904C560.243 387.99 560.071 388.248 560.157 388.42C560.243 388.592 560.501 388.765 560.76 388.679L562.138 388.162L562.654 389.539C562.709 389.645 562.8 389.73 562.909 389.776C563.019 389.823 563.143 389.831 563.257 389.798C563.363 389.743 563.448 389.653 563.494 389.543C563.541 389.433 563.549 389.31 563.516 389.195L562.913 387.818Z" fill="white"/>
<path d="M509.429 348.133L510.721 347.617C510.979 347.445 511.066 347.273 510.979 347.014C510.973 346.957 510.953 346.902 510.92 346.856C510.886 346.809 510.842 346.771 510.792 346.745C510.74 346.719 510.683 346.707 510.625 346.709C510.569 346.71 510.513 346.727 510.463 346.756L509.085 347.359L508.482 345.981C508.482 345.913 508.465 345.846 508.434 345.785C508.403 345.725 508.359 345.672 508.304 345.632C508.248 345.592 508.184 345.566 508.117 345.556C508.049 345.546 507.98 345.552 507.915 345.573C507.851 345.595 507.792 345.631 507.744 345.68C507.696 345.728 507.661 345.788 507.64 345.853C507.62 345.918 507.615 345.987 507.627 346.054C507.639 346.122 507.666 346.185 507.707 346.24L508.223 347.617L506.845 348.219C506.762 348.273 506.699 348.353 506.667 348.447C506.636 348.541 506.638 348.643 506.673 348.736C506.68 348.793 506.701 348.848 506.734 348.894C506.766 348.942 506.81 348.98 506.862 349.005C506.913 349.031 506.969 349.043 507.027 349.042C507.085 349.04 507.141 349.024 507.19 348.994L508.568 348.478L509.085 349.855C509.153 349.945 509.248 350.012 509.357 350.043C509.466 350.074 509.582 350.069 509.688 350.027C509.744 350.021 509.8 350.001 509.846 349.967C509.893 349.934 509.931 349.89 509.957 349.839C509.983 349.788 509.995 349.731 509.993 349.673C509.992 349.616 509.975 349.56 509.946 349.511L509.429 348.133Z" fill="white"/>
<path d="M598.569 391.519L599.947 391.003C600.038 390.935 600.104 390.839 600.135 390.731C600.167 390.622 600.161 390.505 600.119 390.4C600.033 390.228 599.775 390.056 599.603 390.142L598.224 390.745L597.708 389.367C597.653 389.261 597.563 389.177 597.453 389.131C597.343 389.083 597.22 389.075 597.105 389.109C597.045 389.127 596.99 389.159 596.944 389.2C596.898 389.242 596.861 389.293 596.836 389.351C596.812 389.408 596.8 389.47 596.802 389.533C596.803 389.595 596.819 389.656 596.847 389.712L597.363 391.089L596.071 391.605C596.012 391.624 595.957 391.655 595.91 391.697C595.865 391.739 595.828 391.79 595.803 391.847C595.779 391.904 595.767 391.966 595.768 392.029C595.77 392.091 595.785 392.152 595.813 392.208C595.899 392.38 596.158 392.552 596.33 392.38L597.708 391.864L598.311 393.241C598.318 393.298 598.338 393.352 598.371 393.399C598.404 393.447 598.448 393.485 598.499 393.51C598.55 393.536 598.607 393.548 598.665 393.547C598.722 393.545 598.778 393.529 598.827 393.499C598.887 393.481 598.942 393.449 598.988 393.408C599.035 393.366 599.071 393.315 599.096 393.257C599.12 393.201 599.132 393.139 599.131 393.076C599.129 393.014 599.113 392.953 599.086 392.897L598.569 391.519Z" fill="white"/>
<path d="M554.473 424.489L555.851 423.887C556.023 423.801 556.195 423.542 556.109 423.37C556.091 423.311 556.06 423.256 556.018 423.209C555.976 423.164 555.925 423.127 555.868 423.102C555.81 423.078 555.748 423.065 555.686 423.067C555.623 423.069 555.562 423.084 555.506 423.112L554.128 423.628L553.611 422.251C553.593 422.192 553.562 422.137 553.52 422.09C553.479 422.045 553.427 422.008 553.37 421.983C553.313 421.958 553.251 421.946 553.189 421.948C553.126 421.95 553.065 421.965 553.009 421.993C552.903 422.048 552.819 422.138 552.772 422.248C552.724 422.358 552.717 422.481 552.75 422.595L553.353 423.973L551.975 424.489C551.903 424.544 551.849 424.619 551.823 424.705C551.796 424.791 551.797 424.884 551.825 424.97C551.854 425.056 551.909 425.13 551.982 425.183C552.055 425.236 552.143 425.264 552.233 425.264L553.611 424.748L554.214 426.125C554.221 426.182 554.242 426.237 554.275 426.283C554.307 426.331 554.351 426.369 554.403 426.394C554.454 426.42 554.511 426.432 554.568 426.431C554.626 426.429 554.682 426.412 554.731 426.383C554.79 426.365 554.846 426.334 554.892 426.292C554.939 426.251 554.975 426.199 555 426.141C555.024 426.084 555.036 426.022 555.034 425.96C555.033 425.898 555.017 425.837 554.989 425.781L554.473 424.489Z" fill="white"/>
<path d="M549.219 405.809L550.597 405.207C550.655 405.2 550.709 405.179 550.757 405.146C550.803 405.114 550.841 405.07 550.867 405.018C550.893 404.966 550.905 404.91 550.903 404.853C550.901 404.795 550.885 404.739 550.856 404.69C550.838 404.63 550.807 404.576 550.764 404.529C550.723 404.483 550.671 404.446 550.615 404.422C550.557 404.397 550.495 404.385 550.433 404.387C550.37 404.389 550.309 404.403 550.253 404.432L548.875 404.948L548.358 403.571C548.291 403.48 548.195 403.413 548.086 403.382C547.977 403.351 547.861 403.357 547.755 403.399C547.583 403.485 547.411 403.743 547.583 403.915L548.1 405.293L546.722 405.895C546.665 405.901 546.611 405.922 546.563 405.955C546.517 405.987 546.478 406.032 546.453 406.083C546.427 406.135 546.414 406.191 546.417 406.248C546.419 406.306 546.435 406.362 546.463 406.412C546.482 406.471 546.513 406.525 546.555 406.572C546.597 406.618 546.648 406.655 546.705 406.679C546.763 406.704 546.825 406.716 546.887 406.715C546.949 406.713 547.01 406.698 547.066 406.67L548.444 406.154L548.961 407.445C548.98 407.504 549.011 407.558 549.052 407.605C549.094 407.651 549.145 407.688 549.203 407.712C549.261 407.737 549.323 407.749 549.385 407.748C549.447 407.745 549.508 407.731 549.564 407.703C549.736 407.617 549.908 407.359 549.822 407.187L549.219 405.809Z" fill="white"/>
<path d="M575.487 421.046L576.865 420.529C576.918 420.503 576.964 420.465 577.001 420.419C577.038 420.374 577.066 420.322 577.082 420.265C577.098 420.208 577.102 420.15 577.095 420.091C577.088 420.034 577.068 419.977 577.038 419.927C577.032 419.87 577.011 419.815 576.978 419.768C576.945 419.721 576.901 419.683 576.85 419.657C576.798 419.632 576.741 419.62 576.684 419.621C576.627 419.623 576.571 419.639 576.521 419.669L575.143 420.271L574.626 418.894C574.604 418.837 574.57 418.785 574.528 418.742C574.485 418.698 574.434 418.664 574.378 418.64C574.322 418.616 574.263 418.603 574.202 418.602C574.14 418.601 574.08 418.613 574.023 418.636C573.967 418.658 573.916 418.692 573.872 418.734C573.829 418.777 573.793 418.828 573.769 418.884C573.746 418.939 573.733 419 573.732 419.06C573.731 419.121 573.743 419.181 573.765 419.238L574.368 420.529L572.99 421.132C572.93 421.15 572.875 421.181 572.83 421.223C572.783 421.265 572.746 421.316 572.722 421.374C572.697 421.431 572.685 421.493 572.687 421.555C572.688 421.618 572.704 421.679 572.731 421.735C572.785 421.818 572.865 421.881 572.96 421.913C573.054 421.944 573.156 421.942 573.248 421.907L574.626 421.39L575.229 422.768C575.315 422.94 575.574 423.112 575.746 423.026C575.806 423.007 575.86 422.976 575.907 422.935C575.953 422.892 575.99 422.842 576.014 422.784C576.039 422.727 576.051 422.665 576.049 422.602C576.047 422.54 576.033 422.479 576.004 422.423L575.487 421.046Z" fill="white"/>
<path d="M528.204 382.308L529.582 381.792C529.697 381.746 529.788 381.657 529.836 381.544C529.884 381.431 529.886 381.303 529.841 381.189C529.795 381.075 529.705 380.984 529.593 380.935C529.48 380.887 529.352 380.886 529.238 380.931L527.86 381.534L527.343 380.156C527.325 380.097 527.293 380.042 527.252 379.995C527.21 379.949 527.159 379.913 527.101 379.888C527.044 379.864 526.982 379.852 526.919 379.853C526.857 379.855 526.796 379.871 526.74 379.898C526.65 379.965 526.583 380.062 526.552 380.17C526.521 380.279 526.527 380.395 526.568 380.501L527.085 381.792L525.707 382.395C525.601 382.45 525.516 382.539 525.47 382.649C525.422 382.76 525.415 382.882 525.448 382.997C525.516 383.088 525.612 383.154 525.72 383.185C525.83 383.216 525.946 383.211 526.051 383.169L527.429 382.653L527.946 384.03C527.992 384.144 528.081 384.236 528.194 384.284C528.307 384.332 528.434 384.334 528.549 384.288C528.663 384.243 528.755 384.153 528.803 384.04C528.851 383.928 528.853 383.799 528.807 383.686L528.204 382.308Z" fill="white"/>
<path d="M490.137 428.621L491.515 428.019C491.572 428.012 491.627 427.992 491.673 427.958C491.721 427.926 491.759 427.882 491.785 427.83C491.81 427.779 491.822 427.723 491.821 427.665C491.819 427.607 491.803 427.551 491.773 427.502C491.755 427.443 491.723 427.388 491.682 427.341C491.641 427.295 491.589 427.259 491.531 427.234C491.474 427.21 491.412 427.197 491.35 427.199C491.288 427.201 491.226 427.216 491.17 427.244L489.879 427.76L489.276 426.469C489.276 426.401 489.259 426.334 489.228 426.273C489.197 426.213 489.153 426.16 489.097 426.12C489.042 426.08 488.978 426.054 488.911 426.044C488.843 426.034 488.774 426.04 488.709 426.061C488.644 426.083 488.586 426.119 488.538 426.168C488.49 426.216 488.454 426.276 488.434 426.341C488.414 426.405 488.409 426.475 488.421 426.542C488.433 426.61 488.46 426.673 488.501 426.727L489.017 428.105L487.639 428.707C487.467 428.794 487.295 429.052 487.381 429.224C487.467 429.396 487.726 429.568 487.984 429.482L489.362 428.966L489.879 430.343C489.947 430.433 490.042 430.5 490.151 430.531C490.26 430.562 490.376 430.556 490.481 430.515C490.538 430.508 490.593 430.488 490.64 430.455C490.687 430.422 490.725 430.378 490.751 430.327C490.777 430.276 490.789 430.219 490.787 430.161C490.785 430.104 490.769 430.048 490.74 429.999L490.137 428.621Z" fill="white"/>
<path d="M493.065 452.725L494.443 452.208C494.503 452.189 494.558 452.158 494.604 452.117C494.651 452.075 494.687 452.023 494.712 451.966C494.736 451.909 494.748 451.847 494.747 451.785C494.745 451.723 494.729 451.661 494.702 451.606C494.647 451.499 494.557 451.415 494.447 451.368C494.337 451.322 494.214 451.314 494.099 451.347L492.807 451.95L492.204 450.573C492.198 450.515 492.178 450.461 492.145 450.413C492.111 450.367 492.067 450.329 492.017 450.303C491.965 450.277 491.908 450.264 491.85 450.267C491.793 450.269 491.738 450.285 491.688 450.314C491.628 450.332 491.573 450.363 491.527 450.406C491.481 450.447 491.444 450.499 491.419 450.555C491.395 450.613 491.383 450.675 491.384 450.737C491.386 450.8 491.402 450.861 491.429 450.917L491.946 452.294L490.568 452.811C490.462 452.865 490.379 452.955 490.331 453.066C490.284 453.176 490.276 453.298 490.31 453.413C490.482 453.586 490.654 453.758 490.912 453.672L492.29 453.069L492.807 454.446C492.853 454.56 492.942 454.651 493.055 454.7C493.168 454.749 493.296 454.75 493.41 454.705C493.525 454.659 493.616 454.569 493.664 454.457C493.712 454.343 493.714 454.216 493.668 454.102L493.065 452.725Z" fill="white"/>
<path d="M498.147 490.946L499.525 490.429C499.631 490.374 499.715 490.284 499.762 490.174C499.809 490.064 499.817 489.941 499.783 489.827C499.765 489.767 499.734 489.712 499.692 489.666C499.651 489.619 499.599 489.583 499.541 489.558C499.484 489.534 499.422 489.522 499.359 489.524C499.297 489.525 499.236 489.541 499.18 489.568L497.802 490.085L497.286 488.707C497.218 488.616 497.122 488.551 497.013 488.52C496.904 488.489 496.789 488.494 496.683 488.535C496.584 488.574 496.502 488.648 496.455 488.744C496.406 488.839 496.396 488.949 496.424 489.052L497.027 490.429L495.649 490.946C495.59 490.964 495.535 490.996 495.488 491.037C495.443 491.078 495.406 491.13 495.381 491.188C495.356 491.244 495.344 491.306 495.346 491.369C495.348 491.431 495.363 491.492 495.391 491.548C495.477 491.72 495.735 491.893 495.908 491.806L497.286 491.29L497.888 492.667C497.945 492.752 498.03 492.813 498.127 492.84C498.224 492.869 498.329 492.861 498.421 492.82C498.513 492.779 498.589 492.707 498.633 492.616C498.677 492.524 498.689 492.421 498.664 492.323L498.147 490.946Z" fill="white"/>
<path d="M515.2 484.059L516.578 483.542C516.637 483.524 516.692 483.493 516.739 483.451C516.785 483.409 516.821 483.358 516.846 483.301C516.871 483.244 516.883 483.182 516.881 483.119C516.879 483.057 516.864 482.996 516.836 482.94C516.809 482.887 516.771 482.842 516.726 482.805C516.681 482.767 516.629 482.74 516.572 482.724C516.516 482.707 516.456 482.703 516.398 482.711C516.34 482.719 516.284 482.738 516.233 482.768L514.855 483.284L514.338 481.907C514.32 481.847 514.289 481.792 514.247 481.746C514.205 481.699 514.154 481.663 514.096 481.638C514.04 481.614 513.978 481.602 513.915 481.604C513.853 481.606 513.792 481.621 513.736 481.649C513.644 481.717 513.579 481.812 513.548 481.921C513.516 482.03 513.522 482.146 513.563 482.251L514.08 483.629L512.702 484.145C512.588 484.191 512.496 484.28 512.448 484.393C512.4 484.506 512.398 484.633 512.444 484.748C512.489 484.862 512.579 484.953 512.692 485.002C512.805 485.05 512.932 485.051 513.047 485.006L514.425 484.403L514.941 485.781C514.964 485.837 514.997 485.888 515.04 485.932C515.083 485.976 515.133 486.01 515.189 486.035C515.245 486.059 515.306 486.072 515.366 486.072C515.427 486.072 515.487 486.061 515.544 486.039C515.601 486.016 515.652 485.983 515.696 485.94C515.74 485.898 515.774 485.847 515.798 485.791C515.822 485.735 515.835 485.675 515.835 485.614C515.836 485.553 515.825 485.493 515.803 485.436L515.2 484.059Z" fill="white"/>
<path d="M537.937 480.357L539.315 479.841C539.422 479.786 539.505 479.696 539.553 479.586C539.599 479.476 539.607 479.354 539.573 479.238C539.555 479.179 539.524 479.124 539.482 479.077C539.441 479.032 539.389 478.995 539.332 478.97C539.274 478.946 539.212 478.934 539.15 478.935C539.087 478.937 539.026 478.953 538.97 478.98L537.592 479.583L537.076 478.205C537.03 478.092 536.941 478 536.828 477.951C536.715 477.903 536.587 477.901 536.473 477.947C536.359 477.993 536.268 478.082 536.219 478.195C536.17 478.308 536.169 478.436 536.214 478.55L536.817 479.841L535.439 480.444C535.382 480.45 535.328 480.471 535.281 480.504C535.233 480.536 535.196 480.58 535.17 480.632C535.145 480.683 535.132 480.74 535.133 480.797C535.136 480.855 535.152 480.911 535.181 480.96C535.2 481.019 535.231 481.074 535.272 481.121C535.314 481.167 535.365 481.204 535.423 481.229C535.481 481.253 535.543 481.265 535.605 481.263C535.667 481.261 535.728 481.246 535.784 481.218L537.162 480.702L537.678 482.079C537.734 482.185 537.824 482.269 537.934 482.317C538.044 482.363 538.167 482.371 538.281 482.337C538.363 482.262 538.422 482.167 538.452 482.06C538.483 481.954 538.483 481.842 538.454 481.735L537.937 480.357Z" fill="white"/>
<path d="M526.568 502.825L527.946 502.309C528.061 502.263 528.152 502.173 528.2 502.061C528.249 501.948 528.25 501.82 528.205 501.706C528.159 501.592 528.07 501.5 527.957 501.452C527.844 501.404 527.716 501.402 527.602 501.448L526.224 502.05L525.707 500.673C525.689 500.614 525.658 500.558 525.616 500.512C525.574 500.466 525.523 500.429 525.465 500.404C525.408 500.38 525.346 500.368 525.283 500.37C525.221 500.372 525.16 500.387 525.104 500.415C524.998 500.47 524.914 500.559 524.867 500.67C524.82 500.78 524.812 500.902 524.846 501.017L525.449 502.309L524.071 502.911C524.014 502.917 523.959 502.938 523.912 502.971C523.865 503.004 523.827 503.048 523.801 503.099C523.775 503.15 523.763 503.207 523.765 503.265C523.767 503.322 523.783 503.378 523.812 503.428C523.831 503.487 523.862 503.542 523.903 503.589C523.946 503.634 523.996 503.671 524.054 503.696C524.111 503.72 524.173 503.732 524.236 503.731C524.298 503.729 524.359 503.713 524.415 503.686L525.793 503.169L526.31 504.547C526.365 504.653 526.455 504.736 526.565 504.783C526.675 504.831 526.798 504.839 526.913 504.805C527.085 504.633 527.257 504.375 527.085 504.202L526.568 502.825Z" fill="white"/>
<path d="M551.113 500.587L552.491 500.07C552.597 500.015 552.682 499.925 552.728 499.816C552.776 499.706 552.783 499.583 552.75 499.468C552.732 499.409 552.701 499.353 552.658 499.307C552.617 499.261 552.565 499.224 552.508 499.199C552.451 499.175 552.389 499.163 552.326 499.165C552.264 499.167 552.203 499.182 552.147 499.21L550.769 499.726L550.252 498.349C550.185 498.258 550.089 498.192 549.98 498.161C549.871 498.13 549.755 498.135 549.649 498.177C549.55 498.215 549.468 498.29 549.421 498.385C549.373 498.481 549.363 498.591 549.391 498.693L549.994 500.07L548.616 500.587C548.556 500.606 548.501 500.637 548.455 500.678C548.409 500.72 548.372 500.771 548.347 500.829C548.323 500.886 548.311 500.948 548.313 501.011C548.314 501.073 548.33 501.134 548.357 501.19C548.444 501.362 548.702 501.534 548.874 501.448L550.252 500.931L550.769 502.309C550.837 502.4 550.933 502.465 551.041 502.496C551.15 502.528 551.267 502.522 551.372 502.481C551.429 502.475 551.484 502.454 551.53 502.421C551.578 502.388 551.616 502.344 551.641 502.293C551.667 502.242 551.679 502.185 551.678 502.127C551.676 502.07 551.659 502.014 551.63 501.964L551.113 500.587Z" fill="white"/>
<path d="M576.349 503.169L577.727 502.567C577.81 502.514 577.874 502.433 577.905 502.34C577.936 502.245 577.934 502.143 577.899 502.05C577.893 501.994 577.872 501.939 577.839 501.892C577.806 501.845 577.762 501.807 577.711 501.781C577.659 501.756 577.602 501.743 577.545 501.745C577.488 501.747 577.432 501.763 577.382 501.792L576.004 502.309L575.401 500.931C575.348 500.848 575.268 500.785 575.174 500.753C575.079 500.722 574.977 500.724 574.884 500.759C574.827 500.766 574.773 500.787 574.726 500.819C574.678 500.852 574.641 500.896 574.615 500.948C574.589 500.998 574.577 501.055 574.579 501.113C574.58 501.171 574.597 501.227 574.626 501.276L575.143 502.653L573.851 503.255C573.778 503.31 573.725 503.386 573.698 503.472C573.672 503.558 573.673 503.651 573.701 503.736C573.729 503.822 573.784 503.896 573.858 503.949C573.931 504.002 574.019 504.03 574.109 504.03L575.487 503.514L576.09 504.805C576.144 504.877 576.22 504.931 576.306 504.957C576.392 504.985 576.485 504.984 576.571 504.955C576.657 504.926 576.731 504.872 576.784 504.799C576.837 504.725 576.865 504.637 576.865 504.547L576.349 503.169Z" fill="white"/>
<path d="M597.018 448.851L598.396 448.248C598.569 448.162 598.741 447.904 598.569 447.732C598.563 447.674 598.542 447.62 598.509 447.572C598.476 447.526 598.432 447.488 598.381 447.462C598.329 447.436 598.272 447.424 598.215 447.426C598.158 447.428 598.102 447.444 598.052 447.473L596.674 447.99L596.157 446.613C596.09 446.521 595.994 446.455 595.885 446.424C595.776 446.393 595.66 446.399 595.554 446.44C595.497 446.447 595.443 446.467 595.396 446.5C595.349 446.533 595.31 446.577 595.285 446.628C595.26 446.68 595.247 446.737 595.248 446.793C595.251 446.851 595.267 446.907 595.296 446.957L595.899 448.334L594.521 448.937C594.453 448.937 594.385 448.952 594.324 448.983C594.264 449.015 594.212 449.06 594.172 449.115C594.131 449.17 594.106 449.235 594.095 449.302C594.085 449.369 594.091 449.439 594.112 449.503C594.134 449.568 594.171 449.626 594.219 449.674C594.268 449.722 594.328 449.757 594.392 449.778C594.458 449.798 594.527 449.803 594.594 449.791C594.661 449.78 594.725 449.752 594.779 449.712L596.157 449.195L596.76 450.486C596.76 450.554 596.776 450.622 596.807 450.682C596.838 450.743 596.884 450.795 596.939 450.835C596.994 450.875 597.059 450.901 597.126 450.912C597.193 450.922 597.262 450.916 597.327 450.894C597.392 450.873 597.451 450.836 597.498 450.788C597.546 450.739 597.582 450.679 597.602 450.615C597.622 450.549 597.626 450.48 597.615 450.413C597.604 450.346 597.576 450.282 597.535 450.228L597.018 448.851Z" fill="white"/>
<path d="M571.698 439.726L573.076 439.21C573.133 439.187 573.184 439.154 573.227 439.111C573.271 439.068 573.306 439.018 573.33 438.962C573.354 438.906 573.367 438.845 573.367 438.785C573.368 438.724 573.357 438.664 573.334 438.607C573.312 438.55 573.278 438.499 573.235 438.455C573.193 438.412 573.142 438.377 573.086 438.353C573.03 438.329 572.97 438.316 572.91 438.316C572.848 438.315 572.788 438.326 572.731 438.349L571.353 438.951L570.836 437.574C570.791 437.459 570.701 437.368 570.588 437.32C570.476 437.272 570.348 437.27 570.234 437.316C570.119 437.361 570.028 437.451 569.98 437.564C569.931 437.676 569.93 437.804 569.975 437.918L570.578 439.296L569.2 439.812C569.141 439.83 569.086 439.862 569.039 439.903C568.993 439.946 568.956 439.996 568.931 440.054C568.907 440.111 568.895 440.173 568.897 440.236C568.899 440.298 568.914 440.359 568.942 440.415C568.997 440.521 569.087 440.605 569.197 440.651C569.307 440.699 569.43 440.707 569.545 440.673L570.836 440.07L571.439 441.448C571.457 441.507 571.489 441.562 571.531 441.609C571.573 441.655 571.624 441.691 571.681 441.716C571.738 441.74 571.8 441.752 571.863 441.751C571.925 441.749 571.986 441.734 572.042 441.706C572.133 441.638 572.199 441.542 572.23 441.434C572.261 441.325 572.256 441.208 572.215 441.103L571.698 439.726Z" fill="white"/>
<path d="M591.593 458.492L592.971 457.89C593.143 457.804 593.315 457.545 593.229 457.373C593.211 457.314 593.179 457.259 593.138 457.212C593.097 457.166 593.045 457.13 592.987 457.105C592.93 457.08 592.868 457.068 592.805 457.07C592.743 457.072 592.682 457.087 592.626 457.115L591.248 457.631L590.732 456.254C590.664 456.163 590.568 456.097 590.459 456.066C590.35 456.035 590.235 456.041 590.129 456.082C589.956 456.168 589.784 456.426 589.87 456.598L590.473 457.976L589.095 458.578C589.038 458.584 588.984 458.605 588.937 458.638C588.889 458.67 588.851 458.715 588.826 458.766C588.8 458.818 588.788 458.874 588.789 458.932C588.791 458.989 588.808 459.045 588.837 459.095C588.856 459.154 588.887 459.209 588.928 459.255C588.97 459.301 589.021 459.338 589.079 459.362C589.136 459.387 589.198 459.4 589.261 459.398C589.323 459.396 589.384 459.381 589.44 459.353L590.818 458.837L591.334 460.128C591.352 460.187 591.384 460.242 591.426 460.288C591.468 460.334 591.519 460.371 591.576 460.395C591.633 460.42 591.695 460.433 591.758 460.431C591.82 460.429 591.881 460.414 591.937 460.386C592.021 460.333 592.085 460.253 592.116 460.158C592.147 460.064 592.145 459.962 592.11 459.87L591.593 458.492Z" fill="white"/>
<path d="M539.918 421.476L541.296 420.96C541.355 420.941 541.41 420.91 541.457 420.869C541.503 420.826 541.539 420.776 541.564 420.718C541.589 420.661 541.601 420.599 541.599 420.536C541.597 420.474 541.582 420.413 541.554 420.357C541.499 420.251 541.409 420.167 541.299 420.121C541.189 420.073 541.066 420.065 540.951 420.099L539.573 420.702L539.056 419.324C539.038 419.265 539.007 419.21 538.965 419.163C538.924 419.117 538.872 419.081 538.814 419.056C538.758 419.032 538.696 419.02 538.634 419.021C538.571 419.023 538.51 419.038 538.454 419.066C538.348 419.121 538.264 419.211 538.217 419.321C538.169 419.431 538.162 419.553 538.195 419.669L538.798 421.046L537.42 421.562C537.361 421.581 537.305 421.612 537.259 421.654C537.213 421.695 537.176 421.747 537.151 421.804C537.127 421.861 537.115 421.923 537.117 421.985C537.119 422.048 537.134 422.109 537.162 422.165C537.217 422.271 537.307 422.354 537.417 422.402C537.527 422.449 537.65 422.457 537.765 422.423L539.143 421.821L539.659 423.198C539.678 423.257 539.709 423.313 539.751 423.359C539.793 423.405 539.844 423.442 539.901 423.467C539.958 423.491 540.02 423.503 540.083 423.501C540.145 423.499 540.206 423.484 540.262 423.456C540.315 423.429 540.36 423.392 540.397 423.346C540.435 423.301 540.463 423.249 540.478 423.192C540.495 423.135 540.499 423.077 540.491 423.018C540.484 422.96 540.465 422.904 540.434 422.854L539.918 421.476Z" fill="white"/>
<path d="M568.77 364.059L570.234 363.456C570.356 363.417 570.459 363.332 570.522 363.221C570.586 363.11 570.606 362.978 570.578 362.854C570.508 362.74 570.403 362.654 570.278 362.607C570.154 362.56 570.017 362.556 569.889 362.595L568.425 363.198L567.822 361.648C567.767 361.542 567.678 361.458 567.567 361.411C567.457 361.364 567.335 361.357 567.219 361.39C567.107 361.46 567.02 361.566 566.973 361.691C566.927 361.815 566.922 361.951 566.961 362.079L567.564 363.542L566.014 364.145C565.908 364.2 565.824 364.289 565.777 364.4C565.729 364.51 565.723 364.632 565.755 364.747C565.784 364.809 565.823 364.866 565.873 364.913C565.923 364.96 565.982 364.996 566.046 365.02C566.11 365.044 566.178 365.056 566.247 365.053C566.315 365.05 566.382 365.034 566.444 365.006L567.908 364.403L568.511 365.953C568.566 366.058 568.657 366.142 568.767 366.189C568.876 366.237 569 366.244 569.114 366.211C569.177 366.182 569.233 366.143 569.28 366.093C569.327 366.043 569.364 365.984 569.388 365.921C569.411 365.856 569.422 365.788 569.42 365.719C569.417 365.651 569.402 365.584 569.372 365.522L568.77 364.059Z" fill="white"/>
<path opacity="0.15" d="M595.985 512.552L604.598 455.738L602.875 512.552H595.985Z" fill="black"/>
<path d="M626.043 470.887L640.34 471.146C641.067 471.153 641.78 471.358 642.402 471.736C643.022 472.115 643.531 472.655 643.871 473.298L645.507 476.138L638.876 477.774L626.043 470.887Z" fill="#F39494"/>
<path d="M656.562 493.257L637.27 480.345C635.6 479.301 633.766 478.545 631.845 478.107C631.845 478.107 612.811 474.577 612.553 474.405L584.906 461.837L586.457 489.9L599.117 494.376L641.835 508.752C642.236 508.934 642.693 508.954 643.11 508.811C643.526 508.666 643.871 508.368 644.074 507.977C644.182 507.791 644.253 507.585 644.28 507.371C644.309 507.158 644.294 506.941 644.238 506.733C644.182 506.525 644.086 506.33 643.954 506.159C643.823 505.989 643.658 505.846 643.471 505.739L628.916 497.647L645.797 506.944C646.021 507.079 646.27 507.166 646.529 507.199C646.787 507.233 647.051 507.212 647.301 507.14C647.552 507.067 647.785 506.943 647.985 506.777C648.186 506.61 648.35 506.403 648.467 506.17C648.679 505.775 648.766 505.327 648.721 504.882C648.674 504.437 648.496 504.016 648.208 503.673L649.672 504.792C650.093 505.087 650.608 505.215 651.117 505.151C651.627 505.088 652.094 504.837 652.428 504.448C652.608 504.252 652.746 504.022 652.835 503.771C652.924 503.522 652.961 503.256 652.945 502.991C652.929 502.725 652.86 502.466 652.741 502.229C652.623 501.991 652.458 501.779 652.256 501.607L635.548 486.371L654.582 496.614C654.802 496.735 655.044 496.81 655.294 496.837C655.543 496.862 655.795 496.839 656.035 496.767C656.276 496.695 656.5 496.576 656.693 496.416C656.888 496.257 657.048 496.061 657.165 495.84C657.423 495.415 657.505 494.908 657.392 494.425C657.279 493.942 656.981 493.522 656.562 493.257Z" fill="#F39494"/>
<g opacity="0.15">
<path opacity="0.15" d="M654.98 498.52C655.108 498.547 655.24 498.536 655.362 498.491C655.484 498.445 655.591 498.366 655.669 498.262C655.77 498.113 655.809 497.93 655.777 497.753C655.744 497.577 655.644 497.419 655.497 497.315L640.597 486.813C640.253 486.641 639.822 486.641 639.65 486.985C639.55 487.134 639.511 487.316 639.543 487.494C639.576 487.67 639.676 487.828 639.822 487.932L654.808 498.434L654.98 498.52Z" fill="black"/>
</g>
<g opacity="0.15">
<path opacity="0.15" d="M650.503 500.672C650.652 500.709 650.809 500.695 650.95 500.633C651.09 500.571 651.205 500.463 651.278 500.328C651.324 500.249 651.353 500.162 651.366 500.07C651.378 499.98 651.371 499.888 651.347 499.8C651.323 499.712 651.282 499.63 651.225 499.557C651.169 499.486 651.099 499.426 651.019 499.381L636.55 491.289C636.387 491.216 636.203 491.202 636.031 491.249C635.858 491.296 635.707 491.401 635.603 491.547C635.557 491.626 635.527 491.713 635.515 491.804C635.504 491.894 635.51 491.986 635.534 492.075C635.558 492.163 635.599 492.245 635.655 492.317C635.711 492.389 635.782 492.45 635.861 492.494L650.33 500.5L650.503 500.672Z" fill="black"/>
</g>
<path opacity="0.15" d="M651.449 502.136L612.263 487.76L595.124 484.144V485.866L608.043 490.17L649.21 504.029C650.071 504.46 651.88 503.685 651.449 502.136Z" fill="black"/>
<path opacity="0.15" d="M513.65 444.374L475.238 374.302L474.549 373.957C474.549 374.732 475.41 375.851 475.755 376.54C478.855 383.943 497.027 426.64 507.362 445.493C511.755 453.498 515.028 458.061 520.367 461.762C523.276 463.797 526.468 465.392 529.841 466.497L603.736 491.892V488.448L528.98 459.352C525.509 458.083 522.347 456.091 519.705 453.509C517.062 450.927 514.998 447.813 513.65 444.374Z" fill="black"/>
<path d="M545.171 430.514L516.836 376.798L474.549 373.957L515.803 447.989C518.645 454.704 528.377 458.061 535.181 460.557L601.239 487.846L602.1 460.643L545.171 430.514Z" fill="#7C8EC8"/>
<path opacity="0.15" d="M549.305 430.428L517.697 377.659L544.827 430.773L602.961 461.504L549.305 430.428Z" fill="black"/>
<path d="M605.717 462.279L601.152 488.534L594.348 486.038L599.688 458.922L605.717 462.279Z" fill="#21252B"/>
<path d="M528.894 289.854L525.879 270.399C524.071 260.328 534.492 254.99 540.779 254.99H562.568C569.286 254.99 577.21 260.241 573.851 271.604L571.87 288.821L528.894 289.854Z" fill="#1A1A1A"/>
<path opacity="0.2" d="M579.966 335.478C577.899 338.061 572.559 344.689 569.286 348.133C567.65 349.854 564.722 349.768 562.741 347.874L557.143 342.537C554.731 340.213 550.856 340.471 549.478 343.14L545.43 350.543C544.31 352.781 541.21 353.556 538.54 352.178L517.008 339.696C515.723 338.93 514.585 337.938 513.65 336.769C513.305 338.922 514.683 341.16 517.008 342.279L538.54 354.675C541.21 355.966 544.31 355.191 545.516 352.953L549.478 345.464C550.942 342.795 554.817 342.537 557.229 344.861L562.827 350.199C564.722 352.006 567.736 352.092 569.372 350.371C572.559 346.841 578.243 339.868 580.396 337.286C580.913 336.511 581.344 335.134 580.741 334.359L579.966 335.478Z" fill="#231F20"/>
<path d="M527.516 322.049L519.42 325.062C518.473 325.406 515.028 326.612 514.77 328.678L514.167 332.724C513.822 334.876 513.65 338.491 513.65 338.491L538.54 353.039C541.21 354.33 544.31 353.556 545.516 351.318L549.478 343.914C550.856 341.246 554.818 340.988 557.229 343.312L562.741 348.649C564.722 350.543 567.65 350.629 569.287 348.907C572.559 345.378 580.913 334.617 580.913 334.617C580.913 334.617 575.057 325.406 571.956 323.685L559.727 320.328C549.736 317.487 538.454 318.003 527.516 322.049Z" fill="#21252B"/>
<path d="M567.478 281.332C567.478 281.332 531.994 259.036 530.788 286.239L530.272 293.383L527.774 328.936C527.774 330.227 537.248 336.597 537.248 336.597C539.776 338.07 542.575 339.021 545.478 339.394C548.38 339.766 551.328 339.553 554.147 338.767C556.966 337.98 559.598 336.636 561.888 334.815C564.178 332.992 566.079 330.73 567.478 328.161C567.643 327.928 567.76 327.664 567.822 327.386L565.324 307.501C565.826 305.414 566.086 303.277 566.1 301.131C566.444 290.715 567.478 281.332 567.478 281.332Z" fill="#FC9D9D"/>
<path d="M571.44 261.964C571.44 261.964 583.928 314.819 556.971 318.349C533.458 321.448 530.875 284.948 530.875 284.948L531.822 261.275L571.44 261.964Z" fill="#FC9D9D"/>
<path opacity="0.15" d="M530.013 294.933C530.013 294.933 532.338 295.105 533.544 294.072L529.754 299.926L530.013 294.933Z" fill="black"/>
<path d="M531.391 280.815C531.391 280.815 529.669 275.823 524.501 278.147C519.334 280.471 519.678 294.244 529.755 294.933C535.008 295.363 533.975 292.351 533.114 288.305L531.391 280.815Z" fill="#FC9D9D"/>
<path opacity="0.3" d="M524.07 281.848C524.468 281.537 524.925 281.307 525.413 281.174C525.901 281.041 526.411 281.006 526.912 281.074C527.86 281.369 528.68 281.976 529.238 282.795C529.823 283.98 530.175 285.266 530.271 286.583L530.444 287.788C530.444 288.218 530.271 288.477 529.927 288.477C529.582 288.477 529.238 288.305 529.238 287.96L529.066 286.755C529.001 285.688 528.675 284.655 528.118 283.742C527.601 283.053 527.171 282.537 526.74 282.537C526.394 282.444 526.029 282.442 525.682 282.534C525.334 282.624 525.016 282.803 524.759 283.053C524.415 283.14 524.07 283.14 523.898 282.795C523.726 282.451 523.898 281.934 524.07 281.848Z" fill="black"/>
<path opacity="0.15" d="M567.133 322.566L566.272 314.043C563.946 316.368 557.487 319.725 550.166 318.089C546.506 317.102 543.213 315.067 540.693 312.236C540.579 312.157 540.444 312.116 540.305 312.116C540.167 312.116 540.032 312.157 539.918 312.236C539.833 312.33 539.787 312.453 539.787 312.58C539.787 312.707 539.833 312.83 539.918 312.924C543.17 316.594 547.632 318.976 552.492 319.639C554.613 321.079 557.002 322.079 559.516 322.582C562.031 323.085 564.621 323.08 567.133 322.566Z" fill="black"/>
<g opacity="0.3">
<path opacity="0.3" d="M558.865 307.673L555.506 308.018C555.336 307.986 555.178 307.903 555.055 307.78C554.932 307.657 554.849 307.5 554.817 307.329C554.833 307.143 554.908 306.967 555.033 306.826C555.157 306.687 555.323 306.591 555.506 306.554L558.693 306.296C558.787 306.281 558.883 306.289 558.973 306.318C559.063 306.348 559.146 306.398 559.213 306.466C559.28 306.533 559.33 306.615 559.36 306.705C559.389 306.795 559.397 306.891 559.382 306.985C559.554 307.071 559.21 307.501 558.865 307.673Z" fill="black"/>
</g>
<g opacity="0.3">
<path opacity="0.3" d="M559.985 304.488C554.042 305.349 551.372 302.25 550.511 300.614C550.435 300.473 550.411 300.311 550.442 300.153C550.474 299.996 550.559 299.854 550.683 299.754C550.84 299.685 551.015 299.664 551.183 299.695C551.352 299.726 551.507 299.806 551.63 299.926C552.492 301.561 555.42 304.833 562.482 302.508C562.567 302.465 562.659 302.44 562.753 302.434C562.848 302.428 562.942 302.442 563.031 302.475C563.12 302.507 563.201 302.557 563.27 302.622C563.338 302.687 563.393 302.766 563.43 302.853C563.602 303.283 563.43 303.541 563.085 303.8C562.741 304.058 561.018 304.23 559.985 304.488Z" fill="black"/>
</g>
<path d="M550.511 288.822C551.7 288.822 552.664 287.858 552.664 286.67C552.664 285.481 551.7 284.518 550.511 284.518C549.322 284.518 548.358 285.481 548.358 286.67C548.358 287.858 549.322 288.822 550.511 288.822Z" fill="#21252B"/>
<path d="M551.372 286.497C551.658 286.497 551.889 286.266 551.889 285.98C551.889 285.695 551.658 285.464 551.372 285.464C551.087 285.464 550.855 285.695 550.855 285.98C550.855 286.266 551.087 286.497 551.372 286.497Z" fill="white"/>
<path d="M567.133 289.854C568.323 289.854 569.286 288.891 569.286 287.702C569.286 286.513 568.323 285.55 567.133 285.55C565.944 285.55 564.98 286.513 564.98 287.702C564.98 288.891 565.944 289.854 567.133 289.854Z" fill="#21252B"/>
<path d="M568.08 287.529C568.365 287.529 568.597 287.298 568.597 287.012C568.597 286.728 568.365 286.496 568.08 286.496C567.795 286.496 567.564 286.728 567.564 287.012C567.564 287.298 567.795 287.529 568.08 287.529Z" fill="white"/>
<g opacity="0.3">
<path opacity="0.3" d="M561.707 299.066L558.865 299.324C558.434 299.324 558.176 299.066 558.176 298.808C558.176 298.549 558.348 298.119 558.693 298.119L561.535 297.861C561.704 297.849 561.871 297.805 562.023 297.73C562.176 297.655 562.312 297.55 562.424 297.422C562.536 297.294 562.622 297.145 562.676 296.984C562.73 296.822 562.753 296.653 562.741 296.483C562.697 296.133 562.522 295.813 562.249 295.589C561.977 295.364 561.629 295.253 561.276 295.278C560.932 295.278 560.587 295.106 560.587 294.762C560.587 294.417 560.76 294.073 561.104 294.073C561.785 294.023 562.46 294.237 562.989 294.669C563.517 295.101 563.86 295.72 563.946 296.397C563.982 296.72 563.952 297.048 563.858 297.359C563.763 297.67 563.606 297.96 563.397 298.209C563.188 298.459 562.93 298.663 562.64 298.81C562.35 298.957 562.032 299.044 561.707 299.066Z" fill="black"/>
</g>
<path d="M575.057 246.21C567.392 240.787 552.148 244.574 543.88 248.362C544.052 245.952 542.502 246.21 542.502 246.21C527.946 250.084 531.736 261.619 531.736 261.619H531.908C530.358 264.89 528.377 271.949 530.272 284.689C530.272 284.689 535.525 274.101 535.612 265.837C542.071 268.764 560.674 272.896 572.301 269.022C573.42 275.995 574.196 284.689 574.196 284.689C575.199 278.674 575.17 272.532 574.109 266.526C574.829 266.024 575.493 265.447 576.09 264.804C576.09 264.804 585.995 253.957 575.057 246.21Z" fill="#1A1A1A"/>
<path opacity="0.19" d="M578.846 287.099C578.846 288.908 578.308 290.676 577.301 292.178C576.295 293.68 574.863 294.85 573.19 295.538C571.517 296.226 569.677 296.402 567.903 296.043C566.13 295.684 564.504 294.806 563.231 293.521C561.957 292.236 561.095 290.602 560.753 288.826C560.41 287.051 560.604 285.213 561.307 283.548C562.012 281.882 563.195 280.463 564.707 279.471C566.221 278.478 567.994 277.958 569.802 277.975C572.209 277.998 574.509 278.969 576.202 280.678C577.896 282.386 578.846 284.694 578.846 287.099Z" fill="white"/>
<path opacity="0.19" d="M556.54 287.099C556.54 288.908 556.002 290.676 554.995 292.178C553.988 293.68 552.557 294.85 550.884 295.538C549.211 296.226 547.371 296.402 545.597 296.043C543.825 295.684 542.198 294.806 540.925 293.521C539.651 292.236 538.789 290.602 538.446 288.826C538.104 287.051 538.297 285.213 539.001 283.548C539.706 281.882 540.889 280.463 542.401 279.471C543.914 278.478 545.688 277.958 547.496 277.975C549.903 277.998 552.203 278.969 553.896 280.678C555.59 282.386 556.54 284.694 556.54 287.099Z" fill="white"/>
<path d="M556.54 287.099C556.54 288.908 556.002 290.676 554.995 292.178C553.988 293.68 552.557 294.85 550.884 295.538C549.211 296.226 547.371 296.402 545.597 296.043C543.825 295.684 542.198 294.806 540.925 293.521C539.651 292.236 538.789 290.602 538.446 288.826C538.104 287.051 538.297 285.213 539.001 283.548C539.706 281.882 540.889 280.463 542.401 279.471C543.914 278.478 545.688 277.958 547.496 277.975C549.903 277.998 552.203 278.969 553.896 280.678C555.59 282.386 556.54 284.694 556.54 287.099Z" stroke="#1A1A1A" stroke-width="0.428208" stroke-linecap="round" stroke-linejoin="round"/>
<path d="M578.846 287.099C578.846 288.908 578.308 290.676 577.301 292.178C576.295 293.68 574.863 294.85 573.19 295.538C571.517 296.226 569.677 296.402 567.903 296.043C566.13 295.684 564.504 294.806 563.231 293.521C561.957 292.236 561.095 290.602 560.753 288.826C560.41 287.051 560.604 285.213 561.307 283.548C562.012 281.882 563.195 280.463 564.707 279.471C566.221 278.478 567.994 277.958 569.802 277.975C572.209 277.998 574.509 278.969 576.202 280.678C577.896 282.386 578.846 284.694 578.846 287.099Z" stroke="#1A1A1A" stroke-width="0.428208" stroke-linecap="round" stroke-linejoin="round"/>
<path d="M556.54 287.099C556.54 287.099 558.693 285.119 560.674 287.099" stroke="#1A1A1A" stroke-width="0.428208" stroke-linecap="round" stroke-linejoin="round"/>
<path d="M538.368 287.1L530.444 284.087" stroke="#1A1A1A" stroke-width="0.428208" stroke-miterlimit="10"/>
<path d="M582.721 833.47H611.487L612.176 849.912C612.268 852.047 612.843 854.13 613.858 856.007C614.872 857.884 616.3 859.511 618.032 860.759L639.133 875.823L586.425 874.532L582.721 833.47Z" fill="#FB9C9C"/>
<path opacity="0.15" d="M594.091 867.731L586.512 870.83L614.072 857.746C612.562 853.82 611.858 849.637 612.005 845.436H583.842V849.137L601.067 849.998C602.875 850.17 603.478 853.011 603.306 854.905V855.249C603.066 857.978 602.079 860.586 600.453 862.782C598.828 864.985 596.626 866.698 594.091 867.731Z" fill="black"/>
<path d="M491.429 833.384L519.506 833.298L515.113 873.413H491.429V833.384Z" fill="#FB9C9C"/>
<path opacity="0.15" d="M515.028 873.241L518.214 845.35L491.516 845.178L491.946 848.621L508.999 851.29C509.778 851.367 510.5 851.729 511.038 852.297C511.575 852.865 511.89 853.605 511.927 854.389L512.53 866.785L515.028 873.241Z" fill="black"/>
<path d="M489.793 517.2L602.961 519.008L613.641 845.35H582.722L554.214 577.717C554.129 576.888 553.737 576.12 553.117 575.563C552.496 575.006 551.69 574.7 550.856 574.704C550.006 574.678 549.18 574.974 548.541 575.533C547.901 576.092 547.498 576.872 547.411 577.717L520.626 845.35H489.793V517.2Z" fill="#3F4249"/>
<path d="M489.104 838.636H522.434L521.832 845.35H488.932L489.104 838.636Z" fill="#3F4249"/>
<path opacity="0.15" d="M509.86 838.636H522.434L521.832 845.35L508.913 845.178L509.86 838.636Z" fill="black"/>
<path d="M581.258 838.636H614.244L614.588 845.35H581.947L581.258 838.636Z" fill="#3F4249"/>
<path opacity="0.15" d="M614.243 838.635L610.281 838.549L610.626 845.35H614.588L614.243 838.635Z" fill="black"/>
<path opacity="0.2" d="M509.86 838.635L532.08 588.994C533.114 580.816 540.348 574.704 548.875 574.704H551.114C550.257 574.7 549.429 575.015 548.792 575.588C548.155 576.161 547.755 576.951 547.669 577.803L521.142 838.635H509.86Z" fill="black"/>
<path d="M595.124 525.034L611.143 838.549H614.244L603.22 525.034H595.124Z" fill="#32353A"/>
<path d="M488.931 888.133H517.697C518.339 888.133 518.966 887.935 519.49 887.565C520.015 887.195 520.411 886.67 520.625 886.067C520.699 886.635 520.728 887.212 520.711 887.789V888.736C520.7 889.123 520.613 889.502 520.456 889.846C520.298 890.199 520.073 890.518 519.793 890.776C519.513 891.043 519.184 891.249 518.824 891.387C518.464 891.525 518.081 891.585 517.697 891.577H488.931C488.546 891.585 488.164 891.525 487.804 891.387C487.444 891.249 487.115 891.043 486.835 890.776C486.555 890.518 486.33 890.199 486.173 889.846C486.015 889.502 485.928 889.123 485.917 888.736V888.391C485.902 887.643 485.932 886.894 486.003 886.153C486.209 886.756 486.606 887.281 487.135 887.634C487.663 887.995 488.294 888.168 488.931 888.133Z" fill="black"/>
<path d="M493.151 857.66L493.84 856.971C496.584 854.406 500.213 853.003 503.968 853.046C507.725 853.097 511.317 854.595 513.993 857.229L514.338 857.66C515.67 858.985 516.442 860.776 516.491 862.653V865.665C516.446 867.387 516.708 869.109 517.266 870.744L519.764 878.922C520.386 880.868 520.704 882.899 520.711 884.948V885.981C520.666 886.765 520.318 887.505 519.739 888.03C519.159 888.564 518.396 888.848 517.611 888.822H488.931C488.539 888.848 488.147 888.788 487.778 888.658C487.408 888.529 487.068 888.323 486.779 888.056C486.49 887.789 486.257 887.47 486.094 887.118C485.931 886.756 485.842 886.377 485.831 885.981V885.551C485.854 883.149 486.261 880.765 487.036 878.492L489.965 870.572C490.573 868.739 490.892 866.819 490.912 864.891V862.566C490.997 860.707 491.8 858.942 493.151 857.66Z" fill="#3F4249"/>
<path opacity="0.4" d="M511.841 864.202C512.459 864.202 512.96 863.703 512.96 863.083C512.96 862.463 512.459 861.964 511.841 861.964C511.222 861.964 510.721 862.463 510.721 863.083C510.721 863.703 511.222 864.202 511.841 864.202Z" fill="#231F20"/>
<path opacity="0.4" d="M511.324 868.506C511.943 868.506 512.444 868.007 512.444 867.387C512.444 866.767 511.943 866.268 511.324 866.268C510.706 866.268 510.205 866.767 510.205 867.387C510.205 868.007 510.706 868.506 511.324 868.506Z" fill="#231F20"/>
<path opacity="0.4" d="M510.98 871.691C511.598 871.691 512.099 871.192 512.099 870.572C512.099 869.953 511.598 869.453 510.98 869.453C510.361 869.453 509.86 869.953 509.86 870.572C509.86 871.192 510.361 871.691 510.98 871.691Z" fill="#231F20"/>
<path opacity="0.4" d="M511.496 876.77C512.114 876.77 512.616 876.271 512.616 875.651C512.616 875.031 512.114 874.532 511.496 874.532C510.878 874.532 510.376 875.031 510.376 875.651C510.376 876.271 510.878 876.77 511.496 876.77Z" fill="#231F20"/>
<path opacity="0.4" d="M511.496 881.16C512.114 881.16 512.616 880.661 512.616 880.041C512.616 879.422 512.114 878.922 511.496 878.922C510.878 878.922 510.376 879.422 510.376 880.041C510.376 880.661 510.878 881.16 511.496 881.16Z" fill="#231F20"/>
<path opacity="0.4" d="M497.975 882.107C498.593 882.107 499.095 881.608 499.095 880.988C499.095 880.369 498.593 879.869 497.975 879.869C497.357 879.869 496.855 880.369 496.855 880.988C496.855 881.608 497.357 882.107 497.975 882.107Z" fill="#231F20"/>
<path opacity="0.4" d="M497.802 877.975C498.421 877.975 498.922 877.476 498.922 876.856C498.922 876.236 498.421 875.737 497.802 875.737C497.184 875.737 496.683 876.236 496.683 876.856C496.683 877.476 497.184 877.975 497.802 877.975Z" fill="#231F20"/>
<path opacity="0.4" d="M497.63 872.552C498.249 872.552 498.75 872.053 498.75 871.433C498.75 870.813 498.249 870.314 497.63 870.314C497.012 870.314 496.51 870.813 496.51 871.433C496.51 872.053 497.012 872.552 497.63 872.552Z" fill="#231F20"/>
<path opacity="0.4" d="M497.975 867.387C498.593 867.387 499.095 866.888 499.095 866.268C499.095 865.648 498.593 865.149 497.975 865.149C497.357 865.149 496.855 865.648 496.855 866.268C496.855 866.888 497.357 867.387 497.975 867.387Z" fill="#231F20"/>
<path opacity="0.4" d="M498.147 863.341C498.765 863.341 499.266 862.842 499.266 862.222C499.266 861.602 498.765 861.103 498.147 861.103C497.528 861.103 497.027 861.602 497.027 862.222C497.027 862.842 497.528 863.341 498.147 863.341Z" fill="#231F20"/>
<path d="M511.497 862.825C511.497 862.825 506.588 857.66 498.147 861.964" stroke="white" stroke-miterlimit="10" stroke-linecap="round"/>
<path d="M511.324 867.129C511.324 867.129 506.415 861.878 497.975 866.268" stroke="white" stroke-miterlimit="10" stroke-linecap="round"/>
<path d="M510.98 870.4C509.688 869.453 503.314 867.387 497.63 871.347" stroke="white" stroke-miterlimit="10" stroke-linecap="round"/>
<path d="M511.065 875.565C511.065 875.565 505.553 871.089 497.802 876.512" stroke="white" stroke-miterlimit="10" stroke-linecap="round"/>
<path d="M511.496 879.869C511.496 879.869 505.984 875.307 498.233 880.816" stroke="white" stroke-miterlimit="10" stroke-linecap="round"/>
<path d="M583.153 888.391L660.148 888.564C660.303 888.202 660.418 887.832 660.493 887.445C660.664 888.357 660.693 889.278 660.579 890.199C660.559 890.888 660.283 891.542 659.805 892.033C659.327 892.532 658.682 892.825 657.995 892.868L585.65 892.696C584.949 892.67 584.283 892.386 583.787 891.887C583.29 891.396 583.002 890.724 582.98 890.027L583.153 888.391Z" fill="black"/>
<path d="M655.928 879.697C642.234 873.585 631.038 868.506 620.789 859.295C618.464 857.229 616.655 855.68 613.641 855.422L602.014 862.566C601.324 863.031 600.507 863.272 599.675 863.255C598.843 863.238 598.036 862.971 597.363 862.48L584.961 855.938C582.894 855.766 581.171 858.434 581.344 860.587L583.152 888.391L660.148 888.564C661.784 885.206 658.339 880.73 655.928 879.697Z" fill="#3F4249"/>
<path opacity="0.4" d="M642.492 881.074C643.301 881.074 643.956 880.455 643.956 879.697C643.956 878.94 643.301 878.32 642.492 878.32C641.684 878.32 641.028 878.94 641.028 879.697C641.028 880.455 641.684 881.074 642.492 881.074Z" fill="#231F20"/>
<path opacity="0.4" d="M634.052 878.75C634.861 878.75 635.516 878.13 635.516 877.373C635.516 876.615 634.861 875.995 634.052 875.995C633.244 875.995 632.588 876.615 632.588 877.373C632.588 878.13 633.244 878.75 634.052 878.75Z" fill="#231F20"/>
<path opacity="0.4" d="M626.99 873.93C627.799 873.93 628.454 873.31 628.454 872.552C628.454 871.795 627.799 871.175 626.99 871.175C626.181 871.175 625.526 871.795 625.526 872.552C625.526 873.31 626.181 873.93 626.99 873.93Z" fill="#231F20"/>
<path opacity="0.4" d="M620.272 868.937C621.081 868.937 621.736 868.317 621.736 867.559C621.736 866.802 621.081 866.182 620.272 866.182C619.464 866.182 618.808 866.802 618.808 867.559C618.808 868.317 619.464 868.937 620.272 868.937Z" fill="#231F20"/>
<path opacity="0.4" d="M614.243 862.911C615.052 862.911 615.708 862.291 615.708 861.534C615.708 860.776 615.052 860.156 614.243 860.156C613.435 860.156 612.779 860.776 612.779 861.534C612.779 862.291 613.435 862.911 614.243 862.911Z" fill="#231F20"/>
<path d="M645.162 876.426L644.215 879.008C644.148 879.181 644.048 879.335 643.921 879.465C643.793 879.594 643.642 879.706 643.473 879.775C643.305 879.843 643.123 879.886 642.94 879.886C642.757 879.886 642.576 879.852 642.406 879.783C642.235 879.714 642.08 879.62 641.95 879.49C641.82 879.361 641.72 879.206 641.654 879.034C641.589 878.862 641.561 878.681 641.571 878.5C641.583 878.311 641.632 878.139 641.717 877.975L643.095 875.479L645.162 876.426Z" fill="white"/>
<path d="M637.67 872.897L635.861 876.77C635.779 876.934 635.665 877.089 635.524 877.209C635.383 877.33 635.22 877.416 635.042 877.476C634.866 877.528 634.679 877.554 634.494 877.537C634.309 877.519 634.13 877.459 633.966 877.373C633.81 877.296 633.672 877.184 633.56 877.046C633.449 876.908 633.366 876.753 633.318 876.581C633.27 876.409 633.256 876.237 633.279 876.056C633.301 875.884 633.36 875.72 633.45 875.565L635.431 871.864L637.67 872.897Z" fill="white"/>
<path d="M631.382 868.937L628.971 872.208C628.853 872.363 628.706 872.492 628.538 872.587C628.369 872.681 628.184 872.742 627.992 872.767C627.799 872.793 627.604 872.776 627.417 872.724C627.23 872.673 627.056 872.587 626.904 872.466H626.818C626.609 872.234 626.481 871.941 626.45 871.631C626.419 871.321 626.487 871.011 626.645 870.744L628.971 867.645L631.382 868.937Z" fill="white"/>
<path d="M625.181 864.805L622.081 867.731C621.84 867.964 621.515 868.102 621.177 868.102C620.838 868.102 620.513 867.964 620.272 867.731C620.133 867.602 620.022 867.447 619.95 867.275C619.878 867.094 619.844 866.914 619.852 866.724C619.861 866.535 619.91 866.346 619.997 866.182C620.085 866.01 620.208 865.864 620.358 865.752L623.459 863.427L625.181 864.805Z" fill="white"/>
<path d="M619.152 859.381C619.152 859.468 617.344 860.845 616.138 861.792C615.867 861.99 615.534 862.076 615.201 862.041C614.869 862.015 614.559 861.861 614.33 861.62C614.222 861.473 614.147 861.301 614.11 861.12C614.073 860.939 614.075 860.75 614.115 860.578C614.157 860.397 614.235 860.225 614.346 860.079C614.457 859.932 614.598 859.812 614.76 859.726L618.377 858.004L619.152 859.381Z" fill="white"/>
<path d="M489.363 512.121H603.134L603.22 525.034H489.879L489.793 517.545L489.363 512.121Z" fill="#21252B"/>
<path d="M488.932 512.121H603.134L603.22 525.034H489.535L489.363 517.545L488.932 512.121Z" fill="#1A1A1A"/>
<path d="M567.564 512.121H543.449V524.999H567.564V512.121Z" fill="#61656D"/>
<path d="M566.186 512.121H544.655V524.999H566.186V512.121Z" fill="#DADDDF"/>
</svg>
