<svg width="791" height="478" viewBox="0 0 791 478" fill="none" xmlns="http://www.w3.org/2000/svg">
<g clip-path="url(#clip0)">
<path opacity="0.1" d="M782.656 445.816C779.597 453.352 775.837 460.583 771.424 467.414C769.351 470.671 767.079 473.797 764.62 476.773L764.544 476.863L49 469C13.5 469 25.6822 457.249 32.0001 451C83.6724 400.124 182.28 280.663 99.6141 170.347C22.7661 67.7933 105.508 49.1765 160.089 47.0113C181.061 46.1963 201.983 49.6196 221.604 57.0768C246.814 66.6696 292.901 81.3807 352.945 88.1162C354.916 88.3401 356.906 88.5547 358.914 88.7603C390.703 91.9979 422.707 92.5777 454.592 90.4939C455.53 90.4459 456.474 90.3774 457.426 90.3089C488.969 88.0858 520.272 83.2362 551.01 75.8101C553.002 75.3236 554.966 74.8645 556.924 74.4397C659.345 50.7182 753.764 131.565 730.162 222.936C721.428 256.723 723.646 292.75 752.751 321.885C800.357 369.465 794.559 416.305 782.656 445.816Z" fill="#6C63FF"/>
<path d="M620.855 189.816C623.447 185.175 622.678 179.807 619.138 177.825C615.597 175.844 610.626 177.999 608.034 182.64C605.442 187.281 606.211 192.649 609.751 194.631C613.292 196.612 618.263 194.457 620.855 189.816Z" fill="#3F3D56"/>
<path d="M626.588 179.545C629.18 174.904 628.411 169.536 624.871 167.554C621.33 165.573 616.359 167.728 613.767 172.369C611.175 177.01 611.944 182.378 615.484 184.36C619.025 186.341 623.996 184.186 626.588 179.545Z" fill="#3F3D56"/>
<path d="M632.327 169.277C634.919 164.637 634.15 159.268 630.61 157.287C627.069 155.305 622.098 157.461 619.506 162.102C616.914 166.742 617.683 172.111 621.223 174.092C624.764 176.074 629.735 173.918 632.327 169.277Z" fill="#3F3D56"/>
<path d="M638.06 159C640.652 154.359 639.884 148.991 636.343 147.009C632.803 145.027 627.831 147.183 625.239 151.824C622.647 156.465 623.416 161.833 626.957 163.815C630.497 165.796 635.468 163.641 638.06 159Z" fill="#3F3D56"/>
<path d="M643.79 148.735C646.382 144.094 645.614 138.726 642.073 136.744C638.533 134.763 633.561 136.918 630.969 141.559C628.377 146.2 629.146 151.568 632.687 153.55C636.227 155.531 641.198 153.376 643.79 148.735Z" fill="#3F3D56"/>
<path d="M649.53 138.464C652.122 133.823 651.353 128.455 647.813 126.473C644.272 124.492 639.301 126.647 636.709 131.288C634.117 135.929 634.886 141.297 638.426 143.279C641.967 145.26 646.938 143.105 649.53 138.464Z" fill="#3F3D56"/>
<path d="M655.269 128.197C657.861 123.556 657.093 118.187 653.552 116.206C650.012 114.224 645.04 116.38 642.448 121.021C639.856 125.661 640.625 131.03 644.166 133.011C647.706 134.993 652.677 132.837 655.269 128.197Z" fill="#3F3D56"/>
<path d="M712.078 67.7454C713.577 67.1186 715.031 66.3907 716.431 65.5665L701.133 53.3632L719.265 63.6959C723.138 60.8668 726.394 57.2766 728.834 53.1449C731.274 49.0132 732.846 44.4268 733.455 39.6661L701.92 38.6794L733.728 34.7121C733.691 29.8548 732.651 25.0576 730.673 20.6221C728.694 16.1866 725.821 12.2085 722.233 8.93789C718.646 5.66727 714.421 3.17477 709.825 1.61701C705.229 0.0592387 700.36 -0.530131 695.526 -0.114073C690.691 0.301985 685.994 1.71448 681.731 4.03466C677.468 6.35484 673.73 9.53256 670.753 13.3682C667.776 17.2038 665.623 21.6143 664.43 26.3228C663.237 31.0312 663.03 35.9357 663.821 40.7281C661.486 41.7022 659.263 42.9243 657.188 44.3734L672.72 67.9853L653.78 47.1005C649.435 51.0281 646.137 55.9786 644.185 61.5037C642.233 67.0289 641.689 72.9541 642.602 78.7428C636.508 81.2847 631.251 85.4917 627.432 90.883C623.614 96.2743 621.388 102.632 621.009 109.23C620.63 115.828 622.113 122.4 625.288 128.194C628.464 133.988 633.204 138.771 638.967 141.995C644.73 145.22 651.283 146.756 657.877 146.429C664.471 146.101 670.84 143.923 676.255 140.143C681.671 136.364 685.915 131.135 688.502 125.055C691.09 118.974 691.916 112.288 690.886 105.76C698.169 102.724 704.221 97.3245 708.07 90.43C711.918 83.5355 713.34 75.546 712.105 67.7454H712.078Z" fill="#359A58"/>
<path opacity="0.1" d="M646.613 56.0559C642.766 62.9518 641.353 70.9441 642.602 78.7428C636.508 81.2846 631.251 85.4916 627.432 90.8829C623.614 96.2742 621.388 102.632 621.009 109.23C620.63 115.828 622.113 122.4 625.288 128.194C628.464 133.988 633.204 138.771 638.967 141.995C644.73 145.22 651.283 146.756 657.877 146.429C664.471 146.101 670.84 143.923 676.255 140.143C681.671 136.364 685.915 131.135 688.502 125.055C691.09 118.974 691.916 112.288 690.886 105.76C697.888 102.834 648.543 52.6299 646.613 56.0559Z" fill="black"/>
<path d="M692.289 432.887H700.578C705.117 432.887 709.469 434.691 712.678 437.904C715.888 441.116 717.691 445.473 717.691 450.017V475.444H675.177V450.017C675.177 445.473 676.98 441.116 680.189 437.904C683.398 434.691 687.751 432.887 692.289 432.887Z" fill="#3F3D56"/>
<path opacity="0.1" d="M692.289 432.887H700.578C705.117 432.887 709.469 434.691 712.678 437.904C715.888 441.116 717.691 445.473 717.691 450.017V475.444H675.177V450.017C675.177 445.473 676.98 441.116 680.189 437.904C683.398 434.691 687.751 432.887 692.289 432.887Z" fill="black"/>
<path d="M694.74 442.253C696.619 442.253 698.142 440.729 698.142 438.848C698.142 436.967 696.619 435.442 694.74 435.442C692.861 435.442 691.338 436.967 691.338 438.848C691.338 440.729 692.861 442.253 694.74 442.253Z" fill="#3F3D56"/>
<path d="M694.74 437.998C696.619 437.998 698.142 436.474 698.142 434.593C698.142 432.712 696.619 431.187 694.74 431.187C692.861 431.187 691.338 432.712 691.338 434.593C691.338 436.474 692.861 437.998 694.74 437.998Z" fill="#3F3D56"/>
<path d="M694.74 433.736C696.619 433.736 698.142 432.212 698.142 430.331C698.142 428.45 696.619 426.925 694.74 426.925C692.861 426.925 691.338 428.45 691.338 430.331C691.338 432.212 692.861 433.736 694.74 433.736Z" fill="#3F3D56"/>
<path d="M694.74 429.481C696.619 429.481 698.142 427.957 698.142 426.076C698.142 424.195 696.619 422.67 694.74 422.67C692.861 422.67 691.338 424.195 691.338 426.076C691.338 427.957 692.861 429.481 694.74 429.481Z" fill="#3F3D56"/>
<path d="M694.74 425.226C696.619 425.226 698.142 423.702 698.142 421.821C698.142 419.94 696.619 418.415 694.74 418.415C692.861 418.415 691.338 419.94 691.338 421.821C691.338 423.702 692.861 425.226 694.74 425.226Z" fill="#3F3D56"/>
<path d="M694.74 420.971C696.619 420.971 698.142 419.446 698.142 417.566C698.142 415.685 696.619 414.16 694.74 414.16C692.861 414.16 691.338 415.685 691.338 417.566C691.338 419.446 692.861 420.971 694.74 420.971Z" fill="#3F3D56"/>
<path d="M694.74 416.716C696.619 416.716 698.142 415.191 698.142 413.311C698.142 411.43 696.619 409.905 694.74 409.905C692.861 409.905 691.338 411.43 691.338 413.311C691.338 415.191 692.861 416.716 694.74 416.716Z" fill="#3F3D56"/>
<path d="M699.839 418.415C701.718 418.415 703.241 416.891 703.241 415.01C703.241 413.129 701.718 411.604 699.839 411.604C697.961 411.604 696.438 413.129 696.438 415.01C696.438 416.891 697.961 418.415 699.839 418.415Z" fill="#3F3D56"/>
<path d="M703.241 416.716C705.12 416.716 706.643 415.191 706.643 413.311C706.643 411.43 705.12 409.905 703.241 409.905C701.362 409.905 699.839 411.43 699.839 413.311C699.839 415.191 701.362 416.716 703.241 416.716Z" fill="#3F3D56"/>
<path d="M706.643 415.01C708.522 415.01 710.045 413.485 710.045 411.604C710.045 409.724 708.522 408.199 706.643 408.199C704.764 408.199 703.241 409.724 703.241 411.604C703.241 413.485 704.764 415.01 706.643 415.01Z" fill="#3F3D56"/>
<path d="M694.74 412.461C696.619 412.461 698.142 410.936 698.142 409.056C698.142 407.175 696.619 405.65 694.74 405.65C692.861 405.65 691.338 407.175 691.338 409.056C691.338 410.936 692.861 412.461 694.74 412.461Z" fill="#3F3D56"/>
<path d="M694.74 408.206C696.619 408.206 698.142 406.681 698.142 404.8C698.142 402.92 696.619 401.395 694.74 401.395C692.861 401.395 691.338 402.92 691.338 404.8C691.338 406.681 692.861 408.206 694.74 408.206Z" fill="#3F3D56"/>
<path d="M694.74 403.944C696.619 403.944 698.142 402.419 698.142 400.538C698.142 398.658 696.619 397.133 694.74 397.133C692.861 397.133 691.338 398.658 691.338 400.538C691.338 402.419 692.861 403.944 694.74 403.944Z" fill="#3F3D56"/>
<path d="M694.74 399.689C696.619 399.689 698.142 398.164 698.142 396.283C698.142 394.403 696.619 392.878 694.74 392.878C692.861 392.878 691.338 394.403 691.338 396.283C691.338 398.164 692.861 399.689 694.74 399.689Z" fill="#3F3D56"/>
<path d="M708.84 385.307C707.996 385.43 707.147 385.519 706.294 385.574C707.083 384.885 707.816 384.133 708.484 383.326C708.013 381.895 707.32 380.547 706.431 379.332C705.587 379.806 704.655 380.102 703.693 380.202C702.851 380.325 702.002 380.414 701.154 380.469C702.296 379.384 703.381 378.241 704.405 377.043C701.951 374.817 698.807 373.502 695.501 373.32C692.194 373.137 688.925 374.098 686.242 376.041C683.558 377.983 681.623 380.79 680.761 383.991C679.899 387.192 680.161 390.592 681.505 393.622C682.849 396.652 685.192 399.127 688.142 400.634C691.092 402.14 694.47 402.586 697.709 401.897C700.948 401.208 703.852 399.425 705.935 396.847C708.018 394.27 709.152 391.054 709.148 387.739C709.149 386.905 709.075 386.073 708.929 385.252L708.84 385.307Z" fill="#0C672B"/>
<path d="M720.203 402.224C719.335 402.758 718.356 403.086 717.342 403.183C716.5 403.307 715.651 403.396 714.802 403.451C715.705 402.641 716.546 401.766 717.321 400.833C716.611 400.646 715.879 400.55 715.145 400.545C713.12 400.542 711.161 401.26 709.617 402.572C708.074 403.883 707.048 405.703 706.724 407.703C706.399 409.703 706.797 411.754 707.847 413.487C708.896 415.22 710.528 416.522 712.449 417.16C714.371 417.798 716.457 417.729 718.332 416.967C720.208 416.205 721.751 414.798 722.685 413C723.618 411.202 723.881 409.129 723.426 407.155C722.972 405.18 721.829 403.432 720.203 402.224Z" fill="#0C672B"/>
<path d="M689.633 418.415C691.512 418.415 693.035 416.891 693.035 415.01C693.035 413.129 691.512 411.604 689.633 411.604C687.755 411.604 686.231 413.129 686.231 415.01C686.231 416.891 687.755 418.415 689.633 418.415Z" fill="#3F3D56"/>
<path d="M686.232 416.716C688.11 416.716 689.633 415.191 689.633 413.311C689.633 411.43 688.11 409.905 686.232 409.905C684.353 409.905 682.83 411.43 682.83 413.311C682.83 415.191 684.353 416.716 686.232 416.716Z" fill="#3F3D56"/>
<path d="M682.837 415.01C684.715 415.01 686.238 413.485 686.238 411.604C686.238 409.724 684.715 408.199 682.837 408.199C680.958 408.199 679.435 409.724 679.435 411.604C679.435 413.485 680.958 415.01 682.837 415.01Z" fill="#3F3D56"/>
<path d="M669.297 402.224C670.166 402.758 671.144 403.086 672.159 403.183C673 403.307 673.849 403.396 674.698 403.451C673.796 402.641 672.954 401.766 672.179 400.833C672.89 400.646 673.621 400.55 674.356 400.545C676.38 400.542 678.34 401.26 679.883 402.572C681.426 403.883 682.452 405.703 682.777 407.703C683.101 409.703 682.703 411.754 681.654 413.487C680.605 415.22 678.973 416.522 677.051 417.16C675.13 417.798 673.044 417.729 671.168 416.967C669.292 416.205 667.749 414.798 666.816 413C665.882 411.202 665.619 409.129 666.074 407.155C666.529 405.18 667.672 403.432 669.297 402.224Z" fill="#0C672B"/>
<path d="M692.289 435.442H700.578C705.117 435.442 709.469 437.247 712.678 440.46C715.888 443.672 717.691 448.029 717.691 452.572V475.095C717.691 475.865 717.385 476.604 716.841 477.149C716.296 477.694 715.558 478 714.788 478H678.079C677.309 478 676.571 477.694 676.027 477.149C675.483 476.604 675.177 475.865 675.177 475.095V452.572C675.177 448.029 676.98 443.672 680.189 440.46C683.398 437.247 687.751 435.442 692.289 435.442Z" fill="#3F3D56"/>
<g opacity="0.1">
<path opacity="0.1" d="M709.1 386.239C708.757 386.61 708.389 386.958 707.998 387.28C708.388 387.28 708.778 387.218 709.162 387.177C709.148 386.862 709.134 386.547 709.1 386.239Z" fill="black"/>
<path opacity="0.1" d="M702.899 382.168C703.748 382.114 704.597 382.024 705.438 381.901C706.201 381.808 706.945 381.605 707.649 381.298C707.302 380.614 706.903 379.957 706.458 379.332C706.033 379.591 705.571 379.787 705.089 379.914C704.419 380.721 703.686 381.475 702.899 382.168Z" fill="black"/>
<path opacity="0.1" d="M681.981 389.479C681.975 386.882 682.67 384.331 683.992 382.095C685.314 379.859 687.213 378.022 689.49 376.776C691.768 375.531 694.338 374.923 696.932 375.017C699.525 375.111 702.045 375.903 704.227 377.31L704.446 377.077C703.022 375.809 701.362 374.836 699.561 374.213C697.76 373.59 695.853 373.331 693.951 373.449C692.05 373.567 690.19 374.06 688.479 374.901C686.769 375.742 685.242 376.913 683.985 378.347C682.729 379.781 681.769 381.45 681.16 383.258C680.551 385.065 680.305 386.975 680.437 388.878C680.569 390.781 681.075 392.639 681.928 394.345C682.78 396.051 683.961 397.572 685.403 398.819C683.189 396.212 681.976 392.901 681.981 389.479Z" fill="black"/>
</g>
<g opacity="0.1">
<path opacity="0.1" d="M714.802 405.157C715.651 405.095 716.5 405.006 717.342 404.883C718.355 404.787 719.334 404.462 720.203 403.93C721.165 404.638 721.968 405.54 722.557 406.579C723.147 407.618 723.511 408.77 723.625 409.96C723.659 409.66 723.675 409.358 723.673 409.056C723.679 407.725 723.373 406.411 722.778 405.221C722.184 404.031 721.318 402.997 720.251 402.204C719.382 402.737 718.404 403.065 717.39 403.163L716.705 403.245C716.123 403.932 715.487 404.571 714.802 405.157Z" fill="black"/>
<path opacity="0.1" d="M715.158 402.245C715.446 402.245 715.726 402.245 716.007 402.306C716.452 401.834 716.89 401.327 717.335 400.833C716.624 400.646 715.893 400.55 715.158 400.545C712.903 400.545 710.741 401.442 709.147 403.038C707.552 404.634 706.657 406.799 706.657 409.056C706.657 409.343 706.657 409.631 706.698 409.905C706.91 407.806 707.892 405.861 709.455 404.445C711.018 403.03 713.051 402.246 715.158 402.245Z" fill="black"/>
</g>
<g opacity="0.1">
<path opacity="0.1" d="M674.67 405.157C673.822 405.095 672.973 405.006 672.131 404.883C671.117 404.787 670.139 404.462 669.27 403.93C668.307 404.638 667.505 405.54 666.915 406.579C666.326 407.618 665.962 408.77 665.847 409.96C665.814 409.66 665.798 409.358 665.799 409.056C665.793 407.725 666.1 406.411 666.695 405.221C667.289 404.031 668.155 402.997 669.222 402.204C670.09 402.737 671.069 403.065 672.083 403.163L672.768 403.245C673.352 403.931 673.988 404.57 674.67 405.157Z" fill="black"/>
<path opacity="0.1" d="M674.328 402.245C674.041 402.245 673.76 402.245 673.479 402.306C673.034 401.834 672.596 401.327 672.151 400.833C672.862 400.646 673.593 400.55 674.328 400.545C676.583 400.545 678.745 401.442 680.339 403.038C681.934 404.634 682.829 406.799 682.829 409.056C682.829 409.343 682.829 409.631 682.788 409.905C682.576 407.806 681.594 405.861 680.031 404.445C678.468 403.03 676.436 402.246 674.328 402.245Z" fill="black"/>
</g>
<path d="M465.441 476.993L331.965 475.28L332.355 471.854L338.81 415.325H456.03L464.654 471.854L465.311 476.136L465.441 476.993Z" fill="#D0D2D5"/>
<path opacity="0.1" d="M465.311 476.136H398.703L331.965 475.28L332.355 471.854H464.654L465.311 476.136Z" fill="black"/>
<path d="M486.832 472.71H309.719V476.993H486.832V472.71Z" fill="#D0D2D5"/>
<path d="M655.813 75.7965C655.827 72.8392 654.668 69.9971 652.59 67.895C650.512 65.793 647.685 64.603 644.731 64.5867H150.109C148.646 64.5939 147.198 64.8895 145.849 65.4567C144.5 66.024 143.275 66.8517 142.246 67.8926C141.216 68.9335 140.401 70.1673 139.848 71.5235C139.295 72.8796 139.013 74.3316 139.021 75.7965V375.913H655.813V75.7965Z" fill="#444053"/>
<path d="M139.021 372.925V408.082C139.016 409.543 139.3 410.99 139.855 412.34C140.41 413.69 141.226 414.917 142.257 415.951C143.287 416.985 144.511 417.805 145.858 418.364C147.206 418.924 148.651 419.211 150.109 419.21H644.731C647.67 419.21 650.489 418.041 652.567 415.961C654.645 413.881 655.813 411.059 655.813 408.117V372.925H139.021Z" fill="#D0D2D5"/>
<path opacity="0.1" d="M636.989 83.4296H160.411V353.226H636.989V83.4296Z" fill="#6C63FF"/>
<path d="M399.983 405.842C401.733 405.843 403.461 405.446 405.035 404.682C406.61 403.918 407.991 402.806 409.073 401.429C409.4 401.008 409.7 400.566 409.97 400.107L403.632 399.065L410.477 399.113C411.137 397.682 411.497 396.131 411.534 394.555C411.572 392.98 411.287 391.413 410.696 389.952L401.503 394.749L409.984 388.513C409.205 387.115 408.145 385.894 406.871 384.927C405.596 383.96 404.135 383.269 402.58 382.897C401.024 382.525 399.409 382.481 397.835 382.767C396.262 383.053 394.765 383.662 393.439 384.557C392.114 385.453 390.988 386.614 390.134 387.967C389.28 389.32 388.716 390.836 388.478 392.419C388.24 394.002 388.333 395.617 388.751 397.162C389.169 398.708 389.903 400.149 390.907 401.395C391.984 402.776 393.361 403.895 394.933 404.665C396.506 405.436 398.233 405.838 399.983 405.842Z" fill="#A9A9A9"/>
<path opacity="0.1" d="M411.538 419.176L464.784 472.71L456.618 419.176H411.538Z" fill="black"/>
<path d="M541.591 120.17H173.676V315.732H541.591V120.17Z" fill="white"/>
<path opacity="0.1" d="M296.816 171.148H194.197V176.472H296.816V171.148Z" fill="#6C63FF"/>
<path opacity="0.1" d="M213.206 142.994H203.322V171.148H213.206V142.994Z" fill="#6C63FF"/>
<path opacity="0.1" d="M227.649 142.994H217.765V171.148H227.649V142.994Z" fill="#6C63FF"/>
<path opacity="0.1" d="M242.092 142.994H232.208V171.148H242.092V142.994Z" fill="#6C63FF"/>
<path opacity="0.1" d="M256.534 142.994H246.65V171.148H256.534V142.994Z" fill="#6C63FF"/>
<path opacity="0.1" d="M270.977 142.994H261.093V171.148H270.977V142.994Z" fill="#6C63FF"/>
<path opacity="0.1" d="M285.42 142.994H275.536V171.148H285.42V142.994Z" fill="#6C63FF"/>
<path opacity="0.1" d="M213.206 148.324H203.322V151.367H213.206V148.324Z" fill="#6C63FF"/>
<path opacity="0.1" d="M227.649 148.324H217.765V151.367H227.649V148.324Z" fill="#6C63FF"/>
<path opacity="0.1" d="M242.092 148.324H232.208V151.367H242.092V148.324Z" fill="#6C63FF"/>
<path opacity="0.1" d="M256.534 148.324H246.65V151.367H256.534V148.324Z" fill="#6C63FF"/>
<path opacity="0.1" d="M270.977 148.324H261.093V151.367H270.977V148.324Z" fill="#6C63FF"/>
<path opacity="0.1" d="M285.42 148.324H275.536V151.367H285.42V148.324Z" fill="#6C63FF"/>
<path opacity="0.1" d="M213.206 162.022H203.322V165.064H213.206V162.022Z" fill="#6C63FF"/>
<path opacity="0.1" d="M227.649 162.022H217.765V165.064H227.649V162.022Z" fill="#6C63FF"/>
<path opacity="0.1" d="M242.092 162.022H232.208V165.064H242.092V162.022Z" fill="#6C63FF"/>
<path opacity="0.1" d="M256.534 162.022H246.65V165.064H256.534V162.022Z" fill="#6C63FF"/>
<path opacity="0.1" d="M270.977 162.022H261.093V165.064H270.977V162.022Z" fill="#6C63FF"/>
<path opacity="0.1" d="M285.42 162.022H275.536V165.064H285.42V162.022Z" fill="#6C63FF"/>
<path opacity="0.1" d="M521.823 184.845H419.204V190.169H521.823V184.845Z" fill="#6C63FF"/>
<path opacity="0.1" d="M438.212 156.691H428.328V184.846H438.212V156.691Z" fill="#6C63FF"/>
<path opacity="0.1" d="M452.655 156.691H442.771V184.846H452.655V156.691Z" fill="#6C63FF"/>
<path opacity="0.1" d="M467.098 156.691H457.214V184.846H467.098V156.691Z" fill="#6C63FF"/>
<path opacity="0.1" d="M481.541 156.691H471.657V184.846H481.541V156.691Z" fill="#6C63FF"/>
<path opacity="0.1" d="M495.984 156.691H486.1V184.846H495.984V156.691Z" fill="#6C63FF"/>
<path opacity="0.1" d="M510.427 156.691H500.542V184.846H510.427V156.691Z" fill="#6C63FF"/>
<path opacity="0.1" d="M438.212 162.022H428.328V165.064H438.212V162.022Z" fill="#6C63FF"/>
<path opacity="0.1" d="M452.655 162.022H442.771V165.064H452.655V162.022Z" fill="#6C63FF"/>
<path opacity="0.1" d="M467.098 162.022H457.214V165.064H467.098V162.022Z" fill="#6C63FF"/>
<path opacity="0.1" d="M481.541 162.022H471.657V165.064H481.541V162.022Z" fill="#6C63FF"/>
<path opacity="0.1" d="M495.984 162.022H486.1V165.064H495.984V162.022Z" fill="#6C63FF"/>
<path opacity="0.1" d="M510.427 162.022H500.542V165.064H510.427V162.022Z" fill="#6C63FF"/>
<path opacity="0.1" d="M438.212 175.719H428.328V178.761H438.212V175.719Z" fill="#6C63FF"/>
<path opacity="0.1" d="M452.655 175.719H442.771V178.761H452.655V175.719Z" fill="#6C63FF"/>
<path opacity="0.1" d="M467.098 175.719H457.214V178.761H467.098V175.719Z" fill="#6C63FF"/>
<path opacity="0.1" d="M481.541 175.719H471.657V178.761H481.541V175.719Z" fill="#6C63FF"/>
<path opacity="0.1" d="M495.984 175.719H486.1V178.761H495.984V175.719Z" fill="#6C63FF"/>
<path opacity="0.1" d="M510.427 175.719H500.542V178.761H510.427V175.719Z" fill="#6C63FF"/>
<path opacity="0.1" d="M521.823 223.655H419.204V228.979H521.823V223.655Z" fill="#6C63FF"/>
<path opacity="0.1" d="M438.212 195.5H428.328V223.655H438.212V195.5Z" fill="#6C63FF"/>
<path opacity="0.1" d="M452.655 195.5H442.771V223.655H452.655V195.5Z" fill="#6C63FF"/>
<path opacity="0.1" d="M467.098 195.5H457.214V223.655H467.098V195.5Z" fill="#6C63FF"/>
<path opacity="0.1" d="M481.541 195.5H471.657V223.655H481.541V195.5Z" fill="#6C63FF"/>
<path opacity="0.1" d="M495.984 195.5H486.1V223.655H495.984V195.5Z" fill="#6C63FF"/>
<path opacity="0.1" d="M510.427 195.5H500.542V223.655H510.427V195.5Z" fill="#6C63FF"/>
<path opacity="0.1" d="M438.212 200.824H428.328V203.867H438.212V200.824Z" fill="#6C63FF"/>
<path opacity="0.1" d="M452.655 200.824H442.771V203.867H452.655V200.824Z" fill="#6C63FF"/>
<path opacity="0.1" d="M467.098 200.824H457.214V203.867H467.098V200.824Z" fill="#6C63FF"/>
<path opacity="0.1" d="M481.541 200.824H471.657V203.867H481.541V200.824Z" fill="#6C63FF"/>
<path opacity="0.1" d="M495.984 200.824H486.1V203.867H495.984V200.824Z" fill="#6C63FF"/>
<path opacity="0.1" d="M510.427 200.824H500.542V203.867H510.427V200.824Z" fill="#6C63FF"/>
<path opacity="0.1" d="M438.212 214.521H428.328V217.564H438.212V214.521Z" fill="#6C63FF"/>
<path opacity="0.1" d="M452.655 214.521H442.771V217.564H452.655V214.521Z" fill="#6C63FF"/>
<path opacity="0.1" d="M467.098 214.521H457.214V217.564H467.098V214.521Z" fill="#6C63FF"/>
<path opacity="0.1" d="M481.541 214.521H471.657V217.564H481.541V214.521Z" fill="#6C63FF"/>
<path opacity="0.1" d="M495.984 214.521H486.1V217.564H495.984V214.521Z" fill="#6C63FF"/>
<path opacity="0.1" d="M510.427 214.521H500.542V217.564H510.427V214.521Z" fill="#6C63FF"/>
<path opacity="0.1" d="M257.137 231.364C256.369 230.385 255.669 229.355 255.042 228.28L269.82 225.855L253.81 225.985C252.278 222.646 251.442 219.029 251.354 215.355C251.265 211.682 251.926 208.029 253.297 204.62L274.735 215.755L254.967 201.208C256.814 197.996 259.302 195.2 262.277 192.995C265.252 190.789 268.649 189.22 272.256 188.388C275.864 187.555 279.604 187.475 283.243 188.154C286.882 188.833 290.343 190.255 293.409 192.332C296.474 194.41 299.079 197.097 301.061 200.228C303.042 203.358 304.358 206.863 304.926 210.525C305.494 214.187 305.301 217.927 304.361 221.511C303.42 225.095 301.751 228.447 299.459 231.357C300.661 232.876 301.696 234.521 302.546 236.263L283.38 246.232L303.826 239.38C305.264 243.628 305.62 248.167 304.862 252.587C304.104 257.006 302.256 261.167 299.486 264.691C302.612 268.668 304.557 273.445 305.098 278.477C305.64 283.508 304.756 288.59 302.547 293.142C300.339 297.694 296.896 301.532 292.611 304.217C288.327 306.902 283.373 308.326 278.318 308.326C273.263 308.326 268.31 306.902 264.026 304.217C259.741 301.532 256.298 297.694 254.089 293.142C251.881 288.59 250.997 283.508 251.538 278.477C252.08 273.445 254.025 268.668 257.15 264.691C253.417 259.939 251.388 254.069 251.388 248.024C251.388 241.979 253.417 236.109 257.15 231.357L257.137 231.364Z" fill="#6C63FF"/>
<path opacity="0.1" d="M305.236 248.034C305.244 254.08 303.213 259.952 299.472 264.698C302.598 268.675 304.543 273.452 305.084 278.484C305.626 283.515 304.742 288.597 302.533 293.149C300.325 297.701 296.882 301.539 292.597 304.224C288.313 306.909 283.36 308.333 278.304 308.333C273.249 308.333 268.296 306.909 264.012 304.224C259.727 301.539 256.284 297.701 254.075 293.149C251.867 288.597 250.983 283.515 251.525 278.484C252.066 273.452 254.011 268.675 257.136 264.698C253.529 260.114 305.236 245.006 305.236 248.034Z" fill="#6C63FF"/>
<path opacity="0.2" d="M282.627 315.506C282.675 315.581 282.71 315.656 282.757 315.732H273.613C273.66 315.656 273.695 315.581 273.743 315.506C272.957 314.134 272.551 312.578 272.565 310.997C272.564 309.915 272.752 308.842 273.12 307.825C273.626 307.907 274.256 307.996 274.982 308.071C277.103 308.283 279.24 308.283 281.361 308.071C281.963 308.01 282.6 307.921 283.243 307.825C283.244 307.841 283.244 307.857 283.243 307.873C283.604 308.875 283.787 309.932 283.784 310.997C283.805 312.576 283.405 314.132 282.627 315.506Z" fill="#3F3D56"/>
<path opacity="0.1" d="M249.764 315.745H198.907C198.79 315.451 198.688 315.142 198.599 314.841C196.805 309.067 197.015 302.857 199.194 297.218C194.224 293.781 190.552 288.771 188.77 282.994C186.987 277.216 187.196 271.007 189.365 265.363C188.342 264.652 187.368 263.874 186.449 263.033L199.851 256.346L184.621 261.183C182.17 258.446 180.304 255.236 179.136 251.751C177.968 248.266 177.524 244.578 177.831 240.915L201.597 245.211L178.42 237.153C179.239 233.539 180.794 230.133 182.987 227.148C185.18 224.162 187.965 221.661 191.167 219.801C194.368 217.941 197.919 216.761 201.597 216.336C205.274 215.911 209 216.249 212.541 217.33C216.083 218.411 219.363 220.211 222.178 222.617C224.994 225.024 227.283 227.986 228.904 231.318C230.524 234.65 231.441 238.28 231.597 241.983C231.754 245.686 231.146 249.381 229.811 252.838C231.403 253.942 232.874 255.212 234.199 256.627L218.812 271.824L236.328 259.217C238.953 262.852 240.631 267.086 241.209 271.534C241.788 275.983 241.249 280.505 239.641 284.692C244.489 288.047 248.105 292.901 249.933 298.51C251.762 304.119 251.702 310.173 249.764 315.745Z" fill="#6C63FF"/>
<path opacity="0.1" d="M249.765 315.745H198.907C198.79 315.451 198.688 315.142 198.599 314.841C196.805 309.067 197.015 302.857 199.194 297.218C194.403 293.894 239.347 264.184 240.264 267.069C242.05 272.846 241.84 279.056 239.668 284.699C244.51 288.057 248.119 292.912 249.943 298.519C251.766 304.126 251.704 310.177 249.765 315.745Z" fill="#6C63FF"/>
<path opacity="0.1" d="M480.062 279.218C476.973 284.413 472.221 288.411 466.578 290.565C466.819 292.49 466.858 294.435 466.694 296.368L445.119 295.073L466.188 299.684C464.795 306.129 461.097 311.841 455.79 315.745H426.425V316.506H396.534C396.595 316.246 396.657 315.992 396.725 315.745C397.824 311.612 399.885 307.799 402.741 304.617C405.597 301.436 409.165 298.978 413.153 297.444C412.39 291.445 413.661 285.363 416.765 280.174C419.868 274.985 424.622 270.99 430.265 268.83C430.105 267.597 430.029 266.353 430.04 265.109L443.969 270.591L430.197 262.492C430.591 258.842 431.723 255.311 433.524 252.114C435.326 248.917 437.76 246.12 440.677 243.896L453.367 264.452L443.86 241.84C449.039 238.956 455.025 237.864 460.888 238.732C466.751 239.599 472.164 242.379 476.288 246.641C480.412 250.902 483.017 256.406 483.698 262.299C484.379 268.193 483.099 274.147 480.056 279.238L480.062 279.218Z" fill="#6C63FF"/>
<path opacity="0.1" d="M462.971 307.831C461.137 310.929 458.694 313.622 455.79 315.745H426.425V316.506H396.534C396.595 316.246 396.657 315.992 396.725 315.745C397.824 311.612 399.885 307.799 402.741 304.617C405.597 301.436 409.165 298.978 413.153 297.444C412.9 295.477 418.704 295.745 426.432 297.046C441.539 299.582 463.997 306.112 462.971 307.831Z" fill="#6C63FF"/>
<path d="M335.709 235.893C335.709 235.893 339.371 255.88 331.157 262.396C322.944 268.912 338.098 308.016 363.274 303.46C388.449 298.903 398.648 266.089 398.648 266.089C398.648 266.089 373.473 260.882 382.802 234.378L335.709 235.893Z" fill="#EFB7B9"/>
<path opacity="0.1" d="M335.709 235.893C335.709 235.893 339.371 255.88 331.157 262.396C322.944 268.912 338.098 308.016 363.274 303.46C388.449 298.903 398.648 266.089 398.648 266.089C398.648 266.089 373.473 260.882 382.802 234.378L335.709 235.893Z" fill="black"/>
<path d="M357.956 250.556C380.967 250.556 399.621 231.883 399.621 208.848C399.621 185.813 380.967 167.14 357.956 167.14C334.945 167.14 316.291 185.813 316.291 208.848C316.291 231.883 334.945 250.556 357.956 250.556Z" fill="#EFB7B9"/>
<path d="M426.425 288.139V316.492H288.842V289.434C288.844 286.002 289.854 282.646 291.748 279.785C293.642 276.924 296.336 274.684 299.493 273.346L303.443 271.667C313.422 267.412 325.545 262.129 329.508 259.929C329.942 259.713 330.351 259.449 330.726 259.141C332.896 256.969 332.465 259.792 332.465 259.792C332.465 259.792 332.403 260.327 332.362 261.259C332.13 267.638 333.047 292.73 362.412 290.64C391.064 288.584 392.324 269.234 392.064 263.54C392.048 263.013 392.002 262.487 391.927 261.964C391.927 261.814 394.391 262.65 397.731 263.856C403.734 266.069 412.558 269.632 414.933 271.311C415.672 271.824 416.569 272.373 417.541 272.914C420.246 274.426 422.498 276.635 424.063 279.312C425.628 281.989 426.448 285.037 426.439 288.139H426.425Z" fill="#7C8EC8"/>
<path opacity="0.1" d="M397.725 263.856C395.301 275.106 387.69 296.183 360.235 296.745C331 297.321 329.316 268.213 329.494 259.957C329.932 259.74 330.343 259.473 330.719 259.162C332.889 256.99 332.458 259.813 332.458 259.813C332.458 259.813 328.769 293.052 362.405 290.647C396.041 288.242 391.92 261.971 391.92 261.971C391.92 261.814 394.384 262.622 397.725 263.856Z" fill="black"/>
<path d="M308.638 210.91C311.376 210.02 314.641 211.527 316.168 213.651C317.694 215.775 317.906 218.345 318.091 220.805C319.905 221.188 320.925 219.133 321.089 217.591C321.774 211.28 321.808 204.853 323.923 198.769C326.038 192.684 330.658 186.791 337.763 184.448C340.179 183.609 342.762 183.362 345.293 183.729C346.792 183.982 348.209 184.503 349.708 184.75C354.889 185.606 360.536 183.146 365.403 184.859C368.449 185.935 370.414 188.422 371.81 190.916C372.432 192.255 373.275 193.481 374.301 194.541C376.355 196.391 379.613 196.877 382.57 197.46C385.527 198.042 388.772 199.043 390.038 201.331C391.181 203.387 390.339 205.785 389.956 208.032C389.371 211.574 389.965 215.209 391.647 218.379C392.194 219.42 393.303 220.599 394.61 220.263C395.205 220.062 395.708 219.654 396.027 219.112C399.45 214.316 399.34 208.094 403.605 203.812C405.035 202.38 406.877 201.256 408.266 199.796C409.318 198.733 410.089 197.426 410.511 195.99C410.932 194.555 410.991 193.038 410.682 191.574C409.916 188.278 407.26 185.531 405.158 182.667C402.396 178.996 400.384 174.817 399.238 170.367C399.035 169.852 399.035 169.279 399.238 168.764C399.64 168.239 400.157 167.815 400.75 167.524C401.912 166.753 402.752 165.584 403.114 164.236C403.476 162.889 403.334 161.456 402.715 160.206C401.524 157.719 398.847 155.875 395.911 154.765C392.974 153.655 389.75 153.183 386.561 152.71C384.466 153.018 382.009 151.819 381.359 150.14C381.071 149.393 381.071 148.585 380.777 147.838C380.209 146.406 378.573 145.392 376.814 145.042C375.024 144.749 373.191 144.878 371.461 145.419C369.489 145.974 367.203 146.79 365.485 145.844C364.582 145.33 364.075 144.398 363.103 143.98C361.132 143.138 359.051 144.837 357.627 146.241C356.246 147.705 354.555 148.84 352.678 149.565C350.7 150.25 348.263 150.25 346.559 149.16C345.19 148.29 344.505 146.892 343.417 145.782C341.631 143.953 338.804 142.959 335.984 142.733C333.155 142.584 330.321 142.895 327.592 143.651C322.381 144.915 317.402 146.996 312.841 149.818C310.561 151.25 308.378 152.922 307.187 155.08C306.341 156.764 305.905 158.623 305.914 160.507C305.702 166.407 307.659 172.628 312.759 176.76C309.651 178.062 308.597 181.248 307.871 184.078C306.708 188.587 305.537 193.177 305.975 197.782C306.194 200.16 306.845 202.537 306.496 204.901C306.331 206.045 305.934 207.169 306.03 208.327C306.157 208.969 306.474 209.559 306.938 210.019C307.403 210.48 307.995 210.79 308.638 210.91Z" fill="#454B69"/>
<g opacity="0.1">
<path opacity="0.1" d="M410.079 189.793C409.628 190.769 409.02 191.665 408.279 192.444C406.91 193.904 405.048 195.028 403.618 196.466C399.353 200.742 399.442 206.984 396.04 211.767C395.721 212.307 395.218 212.713 394.623 212.911C393.316 213.247 392.207 212.068 391.66 211.027C390.994 209.76 390.495 208.413 390.174 207.018C390.101 207.366 390.033 207.715 389.969 208.067C389.383 211.608 389.978 215.243 391.66 218.413C392.207 219.455 393.316 220.633 394.623 220.298C395.218 220.097 395.721 219.688 396.04 219.146C399.463 214.35 399.353 208.128 403.618 203.846C405.048 202.414 406.889 201.29 408.279 199.831C409.331 198.768 410.102 197.46 410.524 196.025C410.945 194.59 411.004 193.072 410.695 191.608C410.549 190.985 410.343 190.376 410.079 189.793Z" fill="black"/>
<path opacity="0.1" d="M400.777 160.206C400.183 160.493 399.665 160.915 399.264 161.439C399.062 161.954 399.062 162.527 399.264 163.043C399.659 164.596 400.165 166.118 400.777 167.599C401.953 166.822 402.8 165.637 403.158 164.273C403.515 162.909 403.357 161.461 402.714 160.206C402.522 159.798 402.293 159.408 402.03 159.041C401.673 159.49 401.251 159.883 400.777 160.206Z" fill="black"/>
<path opacity="0.1" d="M312.751 169.442C309.221 166.521 306.893 162.397 306.214 157.862C306.038 158.766 305.937 159.683 305.913 160.603C305.693 164.957 306.843 169.27 309.199 172.937C309.915 171.375 311.179 170.132 312.751 169.442Z" fill="black"/>
<path opacity="0.1" d="M389.969 200.68C390.353 198.433 391.194 196.042 390.051 193.979C388.785 191.691 385.547 190.683 382.584 190.108C379.62 189.532 376.382 189.039 374.315 187.189C373.288 186.128 372.446 184.903 371.823 183.564C370.454 181.07 368.462 178.583 365.416 177.507C360.55 175.794 354.903 178.254 349.721 177.397C348.222 177.151 346.805 176.63 345.306 176.376C342.778 175.999 340.196 176.234 337.777 177.062C330.672 179.405 326.051 185.284 323.936 191.382C321.821 197.48 321.773 203.894 321.102 210.205C320.938 211.746 319.918 213.802 318.104 213.418C317.92 210.958 317.694 208.389 316.181 206.265C314.668 204.141 311.437 202.626 308.651 203.524C307.808 203.333 307.06 202.847 306.543 202.154C306.639 203.066 306.625 203.986 306.502 204.894C306.338 206.039 305.941 207.162 306.037 208.32C306.162 208.963 306.477 209.553 306.94 210.015C307.404 210.476 307.995 210.788 308.638 210.91C311.376 210.02 314.641 211.527 316.167 213.651C317.694 215.775 317.906 218.345 318.091 220.805C319.905 221.188 320.924 219.133 321.089 217.591C321.773 211.28 321.807 204.853 323.923 198.769C326.038 192.684 330.658 186.791 337.763 184.448C340.179 183.609 342.761 183.362 345.292 183.729C346.791 183.982 348.208 184.503 349.707 184.75C354.889 185.606 360.536 183.146 365.403 184.859C368.449 185.935 370.413 188.422 371.81 190.916C372.432 192.255 373.274 193.481 374.301 194.541C376.355 196.391 379.613 196.878 382.57 197.46C385.527 198.042 388.532 198.974 389.887 201.098C389.921 200.982 389.942 200.831 389.969 200.68Z" fill="black"/>
<path opacity="0.1" d="M306.515 197.57C306.676 195.709 306.565 193.835 306.187 192.006C305.894 193.935 305.83 195.892 305.995 197.837C306.036 198.337 306.105 198.83 306.173 199.331C306.255 198.741 306.406 198.159 306.515 197.57Z" fill="black"/>
</g>
<path d="M622.019 273.181H560.415V315.972H622.019V273.181Z" fill="white"/>
<path opacity="0.1" d="M616.53 305.467C615.651 306.947 614.297 308.085 612.69 308.695C612.759 309.242 612.771 309.796 612.724 310.346L606.563 309.976L612.56 311.292C612.159 313.121 611.109 314.743 609.603 315.855H601.266V316.074H592.764C592.764 315.999 592.764 315.93 592.819 315.855C593.001 315.158 593.283 314.492 593.654 313.875C594.532 312.398 595.883 311.261 597.487 310.648C597.268 308.941 597.629 307.21 598.512 305.734C599.395 304.257 600.748 303.121 602.354 302.507C602.306 302.158 602.286 301.805 602.292 301.452L606.256 303.014L602.333 300.712C602.444 299.672 602.767 298.665 603.281 297.754C603.796 296.843 604.491 296.047 605.325 295.416L608.932 301.267L606.228 294.826C607.701 294.024 609.397 293.727 611.055 293.981C612.713 294.236 614.242 295.027 615.408 296.235C616.573 297.443 617.31 299 617.507 300.668C617.703 302.335 617.348 304.021 616.495 305.467H616.53Z" fill="#6C63FF"/>
<path opacity="0.1" d="M611.663 313.628C611.138 314.509 610.44 315.274 609.61 315.876H601.266V316.095H592.764C592.764 316.02 592.764 315.951 592.819 315.876C593.001 315.179 593.283 314.512 593.654 313.895C594.532 312.418 595.883 311.281 597.487 310.668C597.419 310.113 599.068 310.189 601.266 310.559C605.564 311.285 611.957 313.142 611.663 313.628Z" fill="#6C63FF"/>
<path opacity="0.1" d="M562.756 305.467C563.634 306.947 564.988 308.085 566.596 308.695C566.526 309.242 566.515 309.796 566.561 310.346L572.722 309.976L566.726 311.292C567.126 313.121 568.177 314.743 569.683 315.855H578.04V316.074H586.549C586.549 315.999 586.508 315.93 586.494 315.855C586.306 315.16 586.025 314.494 585.659 313.875C584.776 312.399 583.424 311.262 581.819 310.648C582.038 308.941 581.677 307.21 580.794 305.734C579.911 304.257 578.558 303.121 576.952 302.507C576.999 302.158 577.022 301.805 577.02 301.452L573.057 303.014L576.973 300.712C576.862 299.672 576.539 298.665 576.025 297.754C575.51 296.843 574.815 296.047 573.981 295.416L570.374 301.267L573.078 294.826C571.604 294.024 569.909 293.727 568.251 293.981C566.593 294.236 565.064 295.027 563.898 296.235C562.733 297.443 561.995 299 561.799 300.668C561.602 302.335 561.958 304.021 562.81 305.467H562.756Z" fill="#6C63FF"/>
<path opacity="0.1" d="M567.622 313.628C568.147 314.509 568.846 315.274 569.676 315.876H578.034V316.095H586.542C586.542 316.02 586.501 315.951 586.487 315.876C586.299 315.181 586.018 314.515 585.652 313.895C584.77 312.419 583.417 311.283 581.812 310.668C581.88 310.113 580.231 310.189 578.034 310.559C573.721 311.285 567.308 313.142 567.622 313.628Z" fill="#6C63FF"/>
<path d="M597.302 282.609H583.537V297.958H597.302V282.609Z" fill="#464353"/>
<path opacity="0.1" d="M597.302 282.609H583.537V297.958H597.302V282.609Z" fill="black"/>
<path d="M577.671 312.004L577.39 315.992H581.319L581.565 310.723L577.671 312.004Z" fill="#A1616A"/>
<path d="M598.37 312.004L597.774 315.992H601.375L601.601 310.723L598.37 312.004Z" fill="#A1616A"/>
<path d="M586.973 290.29C586.973 290.29 586.836 292.284 586.357 292.805C585.878 293.326 590.635 297.937 594.38 293.381C594.38 293.381 592.771 292.01 593.147 290.475C593.524 288.941 586.973 290.29 586.973 290.29Z" fill="#A1616A"/>
<path opacity="0.1" d="M586.973 290.29C586.973 290.29 586.836 292.284 586.357 292.805C585.878 293.326 590.635 297.937 594.38 293.381C594.38 293.381 592.771 292.01 593.147 290.475C593.524 288.941 586.973 290.29 586.973 290.29Z" fill="black"/>
<path d="M590.416 292.072C594.219 292.072 597.302 288.986 597.302 285.179C597.302 281.372 594.219 278.286 590.416 278.286C586.613 278.286 583.53 281.372 583.53 285.179C583.53 288.986 586.613 292.072 590.416 292.072Z" fill="#A1616A"/>
<path d="M590.06 294.566C590.06 294.566 587.172 294.518 586.74 291.88C586.168 292.375 585.565 292.833 584.933 293.25C584.653 293.346 581.894 294.909 581.374 295.004C580.865 295.108 580.393 295.344 580.005 295.69C579.325 296.225 578.768 296.901 578.375 297.673C577.981 298.444 577.76 299.292 577.726 300.157C577.63 303.247 577.253 309.284 577.253 309.284L577.397 311.47V312.895C577.397 312.895 579.957 313.58 581.504 312.21C581.504 312.21 581.504 311.689 581.792 311.525C582.079 311.36 582.12 310.668 582.072 310.38C582.048 309.954 582.048 309.526 582.072 309.099C582.122 309.331 582.259 309.535 582.456 309.668C582.569 310.054 582.602 310.46 582.551 310.86C582.408 311.141 582.264 311.806 582.408 311.949C582.48 312.077 582.51 312.224 582.493 312.369C582.475 312.515 582.412 312.651 582.312 312.758C582.051 313.124 581.843 313.525 581.696 313.95C581.696 313.95 581.552 314.8 581.408 314.896C581.246 315.243 581.136 315.613 581.08 315.992H598.192C597.89 315.124 597.661 314.233 597.507 313.327C597.555 312.902 597.083 311.141 597.412 310.668C597.895 310.041 598.162 309.274 598.171 308.482L598.363 310.332L597.843 314.444C597.843 314.444 601.019 315.444 601.354 314.82C601.709 313.735 601.979 312.624 602.162 311.497C602.162 311.497 602.922 308.071 603.113 307.598C603.305 307.126 603.73 297.622 601.163 296.245C598.596 294.867 593.757 292.497 593.633 292.613C593.359 293.305 592.852 293.879 592.199 294.236C591.547 294.593 590.79 294.71 590.06 294.566Z" fill="#D39276"/>
<path opacity="0.1" d="M581.812 303.857C581.323 304.557 581.113 305.415 581.223 306.262C581.339 307.101 581.613 307.911 582.031 308.647" stroke="black" stroke-miterlimit="10"/>
<path opacity="0.1" d="M598.439 304.508C598.562 304.857 598.658 305.214 598.726 305.577C598.849 306.031 598.873 306.506 598.795 306.97C598.717 307.433 598.539 307.875 598.274 308.263" stroke="black" stroke-miterlimit="10"/>
<path d="M587.336 280.465C587.874 280.321 588.446 280.379 588.944 280.629C589.434 280.882 589.948 281.086 590.478 281.239C590.834 281.314 591.162 281.314 591.559 281.369C592.22 281.489 592.83 281.805 593.311 282.275C593.792 282.745 594.121 283.348 594.256 284.007C594.564 285.693 593.572 287.351 593.572 289.071C593.575 290.055 593.921 291.007 594.55 291.764C595.078 292.245 595.539 292.796 595.919 293.401C596.118 293.84 596.159 294.34 596.351 294.772C596.769 295.548 597.463 296.139 598.295 296.43C599.119 296.707 599.915 297.065 600.67 297.499C602.039 298.41 602.846 300.157 604.434 300.534C604.513 300.568 604.598 300.586 604.684 300.586C604.77 300.586 604.855 300.568 604.934 300.534C605.006 300.477 605.065 300.404 605.105 300.321C605.145 300.238 605.166 300.147 605.167 300.054C605.206 299.719 605.17 299.379 605.059 299.06C604.949 298.741 604.768 298.451 604.53 298.211C604.14 297.821 603.572 297.526 603.449 296.998C603.326 296.471 603.654 296.019 603.832 295.539C604.4 293.984 603.456 292.291 602.381 291.03C601.306 289.77 600.02 288.523 599.759 286.919C599.698 286.378 599.677 285.833 599.698 285.288C599.678 284.167 599.484 283.055 599.123 281.993C598.949 281.419 598.671 280.882 598.301 280.41C597.959 279.999 597.521 279.684 597.165 279.286C596.692 278.632 596.267 277.945 595.892 277.23C595.348 276.383 594.605 275.683 593.728 275.189C592.851 274.696 591.867 274.425 590.861 274.401C588.938 274.401 587.117 275.25 585.488 276.271C584.889 276.598 584.37 277.055 583.968 277.607C583.284 278.697 583.489 280.136 583.092 281.369C582.695 282.602 581.757 283.514 581.429 284.72C581.328 285.074 581.311 285.447 581.381 285.809C581.503 286.191 581.666 286.559 581.867 286.905C582.23 287.788 582.437 288.727 582.476 289.681C582.579 290.832 582.627 292.072 582.024 293.052C581.557 293.646 580.975 294.14 580.313 294.504C580.984 295.049 581.841 295.312 582.702 295.237C584.002 295.292 585.508 295.237 586.316 294.21C586.799 293.472 586.994 292.581 586.864 291.709C586.8 290.755 586.606 289.814 586.289 288.913C585.844 287.646 585.159 286.446 584.961 285.117C584.883 284.638 584.903 284.147 585.021 283.676C585.139 283.205 585.351 282.763 585.645 282.376C585.892 282.068 586.33 281.91 586.535 281.582C586.795 281.143 586.72 280.684 587.336 280.465Z" fill="#464353"/>
<g opacity="0.1">
<path opacity="0.1" d="M581.867 286.816C582.23 287.699 582.437 288.638 582.476 289.592C582.476 289.893 582.524 290.201 582.531 290.51C582.603 289.84 582.603 289.165 582.531 288.495C582.489 287.553 582.283 286.625 581.922 285.754C581.725 285.408 581.562 285.043 581.436 284.665C581.334 285.017 581.318 285.388 581.388 285.748C581.509 286.12 581.67 286.478 581.867 286.816Z" fill="black"/>
<path opacity="0.1" d="M586.378 293.134C585.57 294.155 584.064 294.217 582.763 294.169C582.213 294.17 581.666 294.087 581.141 293.922C580.881 294.134 580.6 294.333 580.327 294.525C580.998 295.07 581.854 295.333 582.716 295.258C584.016 295.313 585.522 295.258 586.33 294.23C586.792 293.545 586.992 292.715 586.891 291.894C586.83 292.345 586.653 292.772 586.378 293.134Z" fill="black"/>
<path opacity="0.1" d="M603.496 295.875C603.516 295.953 603.543 296.029 603.579 296.101C603.661 295.909 603.757 295.71 603.832 295.512C603.996 295.06 604.043 294.575 603.969 294.1C603.945 294.209 603.916 294.317 603.88 294.422C603.702 294.902 603.38 295.381 603.496 295.875Z" fill="black"/>
<path opacity="0.1" d="M594.297 284.336C594.376 283.867 594.376 283.387 594.297 282.918C594.162 282.258 593.834 281.655 593.353 281.184C592.872 280.714 592.262 280.399 591.6 280.28C591.237 280.218 590.874 280.218 590.519 280.149C589.99 279.994 589.476 279.79 588.985 279.54C588.488 279.288 587.916 279.227 587.377 279.368C586.761 279.588 586.836 280.054 586.562 280.506C586.364 280.835 585.919 280.999 585.672 281.301C585.13 282.025 584.885 282.93 584.988 283.829C585.074 283.305 585.293 282.812 585.624 282.397C585.871 282.089 586.309 281.931 586.514 281.602C586.788 281.143 586.713 280.684 587.329 280.465C587.867 280.321 588.439 280.379 588.937 280.629C589.427 280.882 589.941 281.086 590.471 281.239C590.827 281.314 591.155 281.314 591.552 281.369C592.213 281.489 592.823 281.805 593.304 282.275C593.785 282.745 594.114 283.348 594.249 284.007C594.272 284.116 594.288 284.226 594.297 284.336Z" fill="black"/>
<path opacity="0.1" d="M604.955 299.417C604.794 299.48 604.616 299.48 604.455 299.417C602.867 299.04 602.046 297.293 600.691 296.382C599.933 295.954 599.138 295.596 598.315 295.313C597.484 295.025 596.79 294.436 596.371 293.662C596.18 293.216 596.139 292.723 595.94 292.291C595.559 291.686 595.099 291.136 594.571 290.654C594.001 289.974 593.656 289.133 593.586 288.249C593.545 288.514 593.524 288.782 593.524 289.05C593.536 290.047 593.9 291.008 594.551 291.764C595.079 292.245 595.539 292.796 595.92 293.401C596.118 293.84 596.159 294.34 596.351 294.772C596.77 295.548 597.463 296.139 598.295 296.43C599.12 296.707 599.915 297.065 600.67 297.499C602.039 298.41 602.847 300.157 604.435 300.534C604.514 300.568 604.599 300.586 604.685 300.586C604.771 300.586 604.856 300.568 604.934 300.534C605.006 300.476 605.064 300.403 605.105 300.32C605.145 300.237 605.166 300.147 605.167 300.054C605.198 299.796 605.184 299.534 605.126 299.28C605.082 299.34 605.023 299.388 604.955 299.417Z" fill="black"/>
</g>
<path opacity="0.1" d="M575.501 276.326H566.698V288.913H575.501V276.326Z" fill="#6C63FF"/>
<path opacity="0.1" d="M574.242 278.128H567.958V287.118H574.242V278.128Z" fill="#6C63FF"/>
<path opacity="0.1" d="M618.87 278.217H604.414V285.768H618.87V278.217Z" fill="#6C63FF"/>
<path opacity="0.1" d="M616.988 279.204H606.303V284.788H616.988V279.204Z" fill="#6C63FF"/>
</g>
<defs>
<clipPath id="clip0">
<rect width="791" height="478" fill="white"/>
</clipPath>
</defs>
</svg>
